G04 Layer_Color=16711935*
%FSLAX25Y25*%
%MOIN*%
G70*
G01*
G75*
%ADD24C,0.01000*%
%ADD28C,0.00984*%
%ADD29C,0.00984*%
%ADD60C,0.00500*%
%ADD61C,0.00800*%
%ADD119C,0.00197*%
%ADD120C,0.00079*%
%ADD121C,0.00394*%
D24*
X117986Y187789D02*
X128486D01*
Y183789D02*
Y187789D01*
X117986Y183789D02*
X128486D01*
X117986D02*
Y187789D01*
X85703Y188240D02*
X96203D01*
Y184240D02*
Y188240D01*
X85703Y184240D02*
X96203D01*
X85703D02*
Y188240D01*
X32278Y11765D02*
Y26765D01*
Y11765D02*
X45663D01*
Y26765D01*
X32278D02*
X45663D01*
X21118Y53488D02*
Y68488D01*
Y53488D02*
X34504D01*
Y68488D01*
X21118D02*
X34504D01*
X12500Y167500D02*
Y187500D01*
X2500Y167500D02*
X12500D01*
X2500Y187500D02*
X12500D01*
X2500Y167500D02*
Y187500D01*
Y2500D02*
Y42500D01*
Y2500D02*
X12500D01*
Y42500D01*
X2500D02*
X12500D01*
X178000Y40512D02*
Y160512D01*
Y40512D02*
X198000D01*
Y160512D01*
X178000D02*
X198000D01*
X153864Y23179D02*
Y35777D01*
X147565Y29478D02*
X160163D01*
X56856Y174163D02*
Y186761D01*
X50557Y180462D02*
X63155D01*
D28*
X167368Y15973D02*
Y193966D01*
X43352Y15973D02*
Y193966D01*
X0Y0D02*
Y200000D01*
X200000Y0D02*
Y200000D01*
D29*
X43352Y15973D02*
X167368D01*
X43352Y193966D02*
X167368D01*
X0Y200000D02*
X200000D01*
X0Y0D02*
X200000D01*
D60*
X131780Y142064D02*
Y157222D01*
X139773D01*
X131780Y142064D02*
X139773D01*
Y157222D01*
X44164Y121798D02*
Y136955D01*
X36172Y121798D02*
X44164D01*
X36172Y136955D02*
X44164D01*
X36172Y121798D02*
Y136955D01*
X50750Y121301D02*
Y136458D01*
X58742D01*
X50750Y121301D02*
X58742D01*
Y136458D01*
X125070Y146248D02*
Y161406D01*
X117078Y146248D02*
X125070D01*
X117078Y161406D02*
X125070D01*
X117078Y146248D02*
Y161406D01*
X75243Y61257D02*
Y76415D01*
X83235D01*
X75243Y61257D02*
X83235D01*
Y76415D01*
X136291Y49363D02*
Y64520D01*
X128298Y49363D02*
X136291D01*
X128298Y64520D02*
X136291D01*
X128298Y49363D02*
Y64520D01*
X99537Y51827D02*
Y66984D01*
X91545Y51827D02*
X99537D01*
X91545Y66984D02*
X99537D01*
X91545Y51827D02*
Y66984D01*
X114816Y51127D02*
Y66285D01*
X122808D01*
X114816Y51127D02*
X122808D01*
Y66285D01*
D61*
X26047Y146201D02*
Y159980D01*
X12268Y146201D02*
X26047D01*
X12268D02*
Y159980D01*
X26047D01*
D119*
X12329Y54049D02*
G03*
X12329Y54049I-818J0D01*
G01*
X38143Y36116D02*
G03*
X38143Y36116I-818J0D01*
G01*
X135197Y95591D02*
X143071D01*
X135197Y90669D02*
X143071D01*
Y95591D01*
X135197Y90669D02*
Y95591D01*
X134854Y79575D02*
X142728D01*
X134854Y74654D02*
X142728D01*
Y79575D01*
X134854Y74654D02*
Y79575D01*
X28685Y121063D02*
Y125000D01*
X30654Y121063D02*
Y125000D01*
X28685Y121063D02*
X30654D01*
X28685Y125000D02*
X30654D01*
X71894Y76669D02*
Y81590D01*
X64020Y76669D02*
Y81590D01*
X71894D01*
X64020Y76669D02*
X71894D01*
X72187Y85642D02*
Y90563D01*
X64313Y85642D02*
Y90563D01*
X72187D01*
X64313Y85642D02*
X72187D01*
X72405Y95854D02*
Y100776D01*
X64531Y95854D02*
Y100776D01*
X72405D01*
X64531Y95854D02*
X72405D01*
X85548Y139962D02*
X90469D01*
X85548Y147836D02*
X90469D01*
Y139962D02*
Y147836D01*
X85548Y139962D02*
Y147836D01*
X92283Y140054D02*
X97205D01*
X92283Y147928D02*
X97205D01*
Y140054D02*
Y147928D01*
X92283Y140054D02*
Y147928D01*
X98934Y139962D02*
X103855D01*
X98934Y147836D02*
X103855D01*
Y139962D02*
Y147836D01*
X98934Y139962D02*
Y147836D01*
X105627Y139962D02*
X110548D01*
X105627Y147836D02*
X110548D01*
Y139962D02*
Y147836D01*
X105627Y139962D02*
Y147836D01*
X134783Y108476D02*
Y113398D01*
X142657Y108476D02*
Y113398D01*
X134783Y108476D02*
X142657D01*
X134783Y113398D02*
X142657D01*
X31713Y112732D02*
Y114701D01*
X27776Y112732D02*
Y114701D01*
Y112732D02*
X31713D01*
X27776Y114701D02*
X31713D01*
X34390Y117638D02*
X36358D01*
X34390Y113701D02*
X36358D01*
Y117638D01*
X34390Y113701D02*
Y117638D01*
X36130Y107984D02*
Y109953D01*
X32193Y107984D02*
Y109953D01*
Y107984D02*
X36130D01*
X32193Y109953D02*
X36130D01*
X38692Y106559D02*
X40661D01*
X38692Y110496D02*
X40661D01*
X38692Y106559D02*
Y110496D01*
X40661Y106559D02*
Y110496D01*
X11244Y45276D02*
Y47244D01*
X7307Y45276D02*
Y47244D01*
X11244D01*
X7307Y45276D02*
X11244D01*
X15049Y19291D02*
X17018D01*
X15049Y15354D02*
X17018D01*
X15049D02*
Y19291D01*
X17018Y15354D02*
Y19291D01*
X19488Y43308D02*
Y45276D01*
X23425Y43308D02*
Y45276D01*
X19488Y43308D02*
X23425D01*
X19488Y45276D02*
X23425D01*
X26969Y19242D02*
X28937D01*
X26969Y15305D02*
X28937D01*
X26969D02*
Y19242D01*
X28937Y15305D02*
Y19242D01*
X19291Y19488D02*
Y21457D01*
X23228Y19488D02*
Y21457D01*
X19291Y19488D02*
X23228D01*
X19291Y21457D02*
X23228D01*
X17717Y105709D02*
Y107677D01*
X21654Y105709D02*
Y107677D01*
X17717Y105709D02*
X21654D01*
X17717Y107677D02*
X21654D01*
X17764Y85537D02*
Y87506D01*
X21701Y85537D02*
Y87506D01*
X17764Y85537D02*
X21701D01*
X17764Y87506D02*
X21701D01*
X13179Y65158D02*
Y67126D01*
X17116Y65158D02*
Y67126D01*
X13179Y65158D02*
X17116D01*
X13179Y67126D02*
X17116D01*
X36585Y47343D02*
Y49311D01*
X40522Y47343D02*
Y49311D01*
X36585Y47343D02*
X40522D01*
X36585Y49311D02*
X40522D01*
X38228Y117323D02*
X44528D01*
X38228Y114173D02*
X44528D01*
Y117323D01*
X38228Y114173D02*
Y117323D01*
X38441Y170370D02*
Y176669D01*
X41591Y170370D02*
Y176669D01*
X38441D02*
X41591D01*
X38441Y170370D02*
X41591D01*
X17717Y184252D02*
X24016D01*
X17717Y187402D02*
X24016D01*
X17717Y184252D02*
Y187402D01*
X24016Y184252D02*
Y187402D01*
X8484Y97244D02*
Y103543D01*
X11634Y97244D02*
Y103543D01*
X8484Y97244D02*
X11634D01*
X8484Y103543D02*
X11634D01*
X8290Y77165D02*
Y83465D01*
X11439Y77165D02*
Y83465D01*
X8290Y77165D02*
X11439D01*
X8290Y83465D02*
X11439D01*
X9621Y52159D02*
X15920D01*
X9621Y63576D02*
X15920D01*
X35435Y34226D02*
X41734D01*
X35435Y45643D02*
X41734D01*
X8292Y76969D02*
Y83268D01*
X11441Y76969D02*
Y83268D01*
X8292D02*
X11441D01*
X8292Y76969D02*
X11441D01*
X8485Y97441D02*
Y103741D01*
X11634Y97441D02*
Y103741D01*
X8485D02*
X11634D01*
X8485Y97441D02*
X11634D01*
X17717Y96457D02*
X21654D01*
X17717Y104331D02*
X21654D01*
Y96457D02*
Y104331D01*
X17717Y96457D02*
Y104331D01*
X17764Y76299D02*
X21701D01*
X17764Y84173D02*
X21701D01*
Y76299D02*
Y84173D01*
X17764Y76299D02*
Y84173D01*
X19489Y33661D02*
X23426D01*
X19489Y41535D02*
X23426D01*
Y33661D02*
Y41535D01*
X19489Y33661D02*
Y41535D01*
X19292Y10153D02*
X23229D01*
X19292Y18028D02*
X23229D01*
Y10153D02*
Y18028D01*
X19292Y10153D02*
Y18028D01*
X122146Y85630D02*
X129823D01*
X122146D02*
Y99410D01*
X129823D01*
Y85630D02*
Y99410D01*
X108366Y85630D02*
X116043D01*
X108366D02*
Y99410D01*
X116043D01*
Y85630D02*
Y99410D01*
X108303Y134776D02*
X115980D01*
Y120996D02*
Y134776D01*
X108303Y120996D02*
X115980D01*
X108303D02*
Y134776D01*
X88689D02*
X96366D01*
Y120996D02*
Y134776D01*
X88689Y120996D02*
X96366D01*
X88689D02*
Y134776D01*
X99879Y106694D02*
X107359D01*
X99879Y113781D02*
X107359D01*
Y106694D02*
Y113781D01*
X99879Y106694D02*
Y113781D01*
X96374Y85653D02*
Y99432D01*
X88697D02*
X96374D01*
X88697Y85653D02*
Y99432D01*
Y85653D02*
X96374D01*
X114485Y115088D02*
Y119025D01*
X116454Y115088D02*
Y119025D01*
X114485Y115088D02*
X116454D01*
X114485Y119025D02*
X116454D01*
X110860Y115088D02*
Y119025D01*
X112829Y115088D02*
Y119025D01*
X110860Y115088D02*
X112829D01*
X110860Y119025D02*
X112829D01*
X126516Y114962D02*
Y118899D01*
X128484Y114962D02*
Y118899D01*
X126516Y114962D02*
X128484D01*
X126516Y118899D02*
X128484D01*
X77889Y101969D02*
Y105905D01*
X75920Y101969D02*
Y105905D01*
X77889D01*
X75920Y101969D02*
X77889D01*
X95405Y101840D02*
Y105777D01*
X93436Y101840D02*
Y105777D01*
X95405D01*
X93436Y101840D02*
X95405D01*
X81693Y101969D02*
Y105905D01*
X79724Y101969D02*
Y105905D01*
X81693D01*
X79724Y101969D02*
X81693D01*
X91650Y101926D02*
Y105863D01*
X89682Y101926D02*
Y105863D01*
X91650D01*
X89682Y101926D02*
X91650D01*
X82579Y85630D02*
Y99410D01*
X74902D02*
X82579D01*
X74902Y85630D02*
Y99410D01*
Y85630D02*
X82579D01*
X116535Y101899D02*
Y105836D01*
X114567Y101899D02*
Y105836D01*
X116535D01*
X114567Y101899D02*
X116535D01*
X112795D02*
Y105836D01*
X110827Y101899D02*
Y105836D01*
X112795D01*
X110827Y101899D02*
X112795D01*
X125624Y101793D02*
Y105730D01*
X123655Y101793D02*
Y105730D01*
X125624D01*
X123655Y101793D02*
X125624D01*
X129551D02*
Y105730D01*
X127583Y101793D02*
Y105730D01*
X129551D01*
X127583Y101793D02*
X129551D01*
X122671Y114961D02*
Y118898D01*
X124640Y114961D02*
Y118898D01*
X122671Y114961D02*
X124640D01*
X122671Y118898D02*
X124640D01*
X76591Y114982D02*
Y118919D01*
X78560Y114982D02*
Y118919D01*
X76591Y114982D02*
X78560D01*
X76591Y118919D02*
X78560D01*
X89516Y114962D02*
Y118899D01*
X91484Y114962D02*
Y118899D01*
X89516Y114962D02*
X91484D01*
X89516Y118899D02*
X91484D01*
X93534Y114891D02*
Y118828D01*
X95503Y114891D02*
Y118828D01*
X93534Y114891D02*
X95503D01*
X93534Y118828D02*
X95503D01*
X80545Y114961D02*
Y118898D01*
X82514Y114961D02*
Y118898D01*
X80545Y114961D02*
X82514D01*
X80545Y118898D02*
X82514D01*
X74902Y134843D02*
X82579D01*
Y121063D02*
Y134843D01*
X74902Y121063D02*
X82579D01*
X74902D02*
Y134843D01*
X122146Y121063D02*
Y134843D01*
Y121063D02*
X129823D01*
Y134843D01*
X122146D02*
X129823D01*
X29339Y154189D02*
X33276D01*
X29339Y152220D02*
X33276D01*
X29339D02*
Y154189D01*
X33276Y152220D02*
Y154189D01*
D120*
X85067Y110461D02*
Y114398D01*
X87035Y110461D02*
Y114398D01*
X85067Y110461D02*
X87035D01*
X85067Y114398D02*
X87035D01*
X87768Y103449D02*
Y107386D01*
X85799Y103449D02*
Y107386D01*
X87768D01*
X85799Y103449D02*
X87768D01*
X100509Y104135D02*
X104446D01*
X100509Y102167D02*
X104446D01*
X100509D02*
Y104135D01*
X104446Y102167D02*
Y104135D01*
X97359Y117915D02*
X101296D01*
X97359Y115946D02*
X101296D01*
X97359D02*
Y117915D01*
X101296Y115946D02*
Y117915D01*
X14872Y33216D02*
Y37153D01*
X16841Y33216D02*
Y37153D01*
X14872D02*
X16841D01*
X14872Y33216D02*
X16841D01*
X15443Y23031D02*
X19380D01*
X15443Y25000D02*
X19380D01*
X15443Y23031D02*
Y25000D01*
X19380Y23031D02*
Y25000D01*
X19562Y32087D02*
X23499D01*
X19562Y30118D02*
X23499D01*
Y32087D01*
X19562Y30118D02*
Y32087D01*
X19291Y8684D02*
X23228D01*
X19291Y6716D02*
X23228D01*
Y8684D01*
X19291Y6716D02*
Y8684D01*
X17717Y94900D02*
X21654D01*
X17717Y92931D02*
X21654D01*
Y94900D01*
X17717Y92931D02*
Y94900D01*
X17717Y74894D02*
X21654D01*
X17717Y72926D02*
X21654D01*
Y74894D01*
X17717Y72926D02*
Y74894D01*
X10847Y50492D02*
X14784D01*
X10847Y48524D02*
X14784D01*
Y50492D01*
X10847Y48524D02*
Y50492D01*
X36862Y32677D02*
X40799D01*
X36862Y30709D02*
X40799D01*
Y32677D01*
X36862Y30709D02*
Y32677D01*
X13583Y102954D02*
Y106891D01*
X15551Y102954D02*
Y106891D01*
X13583D02*
X15551D01*
X13583Y102954D02*
X15551D01*
X13406Y82677D02*
Y86614D01*
X15374Y82677D02*
Y86614D01*
X13406D02*
X15374D01*
X13406Y82677D02*
X15374D01*
X31913Y162594D02*
X38213D01*
X31913Y159445D02*
X38213D01*
Y162594D01*
X31913Y159445D02*
Y162594D01*
X18110Y174213D02*
Y180512D01*
X21260Y174213D02*
Y180512D01*
X18110D02*
X21260D01*
X18110Y174213D02*
X21260D01*
X28374Y191787D02*
X34673D01*
X28374Y188638D02*
X34673D01*
Y191787D01*
X28374Y188638D02*
Y191787D01*
X141693Y76276D02*
Y79425D01*
X135394Y76276D02*
Y79425D01*
Y76276D02*
X141693D01*
X135394Y79425D02*
X141693D01*
X141697Y80874D02*
Y84024D01*
X135398Y80874D02*
Y84024D01*
Y80874D02*
X141697D01*
X135398Y84024D02*
X141697D01*
X141732Y85520D02*
Y88669D01*
X135433Y85520D02*
Y88669D01*
Y85520D02*
X141732D01*
X135433Y88669D02*
X141732D01*
X141768Y90197D02*
Y93347D01*
X135468Y90197D02*
Y93347D01*
Y90197D02*
X141768D01*
X135468Y93347D02*
X141768D01*
X141732Y94803D02*
Y97953D01*
X135433Y94803D02*
Y97953D01*
Y94803D02*
X141732D01*
X135433Y97953D02*
X141732D01*
Y99410D02*
Y102559D01*
X135433Y99410D02*
Y102559D01*
Y99410D02*
X141732D01*
X135433Y102559D02*
X141732D01*
X141740Y104201D02*
Y107350D01*
X135441Y104201D02*
Y107350D01*
Y104201D02*
X141740D01*
X135441Y107350D02*
X141740D01*
X141713Y136906D02*
Y140055D01*
X135413Y136906D02*
Y140055D01*
Y136906D02*
X141713D01*
X135413Y140055D02*
X141713D01*
X141717Y132229D02*
Y135379D01*
X135417Y132229D02*
Y135379D01*
Y132229D02*
X141717D01*
X135417Y135379D02*
X141717D01*
Y127553D02*
Y130702D01*
X135417Y127553D02*
Y130702D01*
Y127553D02*
X141717D01*
X135417Y130702D02*
X141717D01*
X141724Y122877D02*
Y126026D01*
X135425Y122877D02*
Y126026D01*
Y122877D02*
X141724D01*
X135425Y126026D02*
X141724D01*
Y118200D02*
Y121350D01*
X135425Y118200D02*
Y121350D01*
Y118200D02*
X141724D01*
X135425Y121350D02*
X141724D01*
X141732Y113524D02*
Y116674D01*
X135433Y113524D02*
Y116674D01*
Y113524D02*
X141732D01*
X135433Y116674D02*
X141732D01*
Y108848D02*
Y111997D01*
X135433Y108848D02*
Y111997D01*
Y108848D02*
X141732D01*
X135433Y111997D02*
X141732D01*
X65194Y110004D02*
Y113154D01*
X71493Y110004D02*
Y113154D01*
X65194D02*
X71493D01*
X65194Y110004D02*
X71493D01*
X65194Y114669D02*
Y117819D01*
X71493Y114669D02*
Y117819D01*
X65194D02*
X71493D01*
X65194Y114669D02*
X71493D01*
X65189Y119370D02*
Y122520D01*
X71488Y119370D02*
Y122520D01*
X65189D02*
X71488D01*
X65189Y119370D02*
X71488D01*
X65169Y124004D02*
Y127154D01*
X71469Y124004D02*
Y127154D01*
X65169D02*
X71469D01*
X65169Y124004D02*
X71469D01*
X65189Y128618D02*
Y131768D01*
X71488Y128618D02*
Y131768D01*
X65189D02*
X71488D01*
X65189Y128618D02*
X71488D01*
X65169Y133252D02*
Y136402D01*
X71469Y133252D02*
Y136402D01*
X65169D02*
X71469D01*
X65169Y133252D02*
X71469D01*
X65139Y137898D02*
Y141047D01*
X71438Y137898D02*
Y141047D01*
X65139D02*
X71438D01*
X65139Y137898D02*
X71438D01*
X65133Y77098D02*
Y80248D01*
X71432Y77098D02*
Y80248D01*
X65133D02*
X71432D01*
X65133Y77098D02*
X71432D01*
X65133Y81807D02*
Y84957D01*
X71432Y81807D02*
Y84957D01*
X65133D02*
X71432D01*
X65133Y81807D02*
X71432D01*
X65168Y86447D02*
Y89596D01*
X71467Y86447D02*
Y89596D01*
X65168D02*
X71467D01*
X65168Y86447D02*
X71467D01*
X65148Y91091D02*
Y94240D01*
X71448Y91091D02*
Y94240D01*
X65148D02*
X71448D01*
X65148Y91091D02*
X71448D01*
X65164Y95772D02*
Y98921D01*
X71463Y95772D02*
Y98921D01*
X65164D02*
X71463D01*
X65164Y95772D02*
X71463D01*
X65180Y100433D02*
Y103583D01*
X71479Y100433D02*
Y103583D01*
X65180D02*
X71479D01*
X65180Y100433D02*
X71479D01*
X65200Y105134D02*
Y108283D01*
X71499Y105134D02*
Y108283D01*
X65200D02*
X71499D01*
X65200Y105134D02*
X71499D01*
D121*
X7259Y63576D02*
X18283D01*
X7259Y52159D02*
Y63576D01*
X18283Y52159D02*
Y63576D01*
X7259Y52159D02*
X18283D01*
X33073Y45643D02*
X44096D01*
X33073Y34226D02*
Y45643D01*
X44096Y34226D02*
Y45643D01*
X33073Y34226D02*
X44096D01*
M02*
