M48
;Layer_Color=9474304
;FILE_FORMAT=2:5
INCH,LZ
;TYPE=PLATED
T1F00S00C0.00780
T2F00S00C0.01000
T3F00S00C0.02800
T4F00S00C0.04000
;TYPE=NON_PLATED
T5F00S00C0.11811
T6F00S00C0.12520
%
T01
X0019462Y000976
X0023106
X0024213Y0019094
X0027953Y0020866
X0018504Y0018701
X0019732Y0033268
X0023327
X0024803Y0043701
X001938Y0042126
X0010937Y0047638
X0035702Y0046024
X0040724Y004626
X0040937Y0034055
X0036012Y0031693
X0064476Y0079858
X0066342Y0079886
X006845Y008196
X0070344
Y0077281
X006845
Y0086639
X0070344
Y0091318
X006845
X0066342Y0089295
X0064476Y0089272
Y0084565
X0066342Y0084591
X0061811Y0083071
X0064476Y0093979
X0066342Y0094
X006845Y0095998
X0070344
Y0100677
X006845
X0066342Y0098705
X0064476Y0098686
Y0103393
X0066342Y010341
X006845Y0105356
X0070344
X0070276Y0111387
X0068478Y01114
X0066342Y0112819
X0064476Y0112806
Y0108099
X0066342Y0108114
X0074913Y0107866
X0074839Y0110055
X00771Y0106187
X0080783Y0106101
X0083858Y0104071
X0090666Y0106
X0094464Y0106187
X0100787Y0105512
X010395Y0105703
X0108454Y0101602
X0109055Y0098448
X0111024
X0110249Y0096471
X0112219
X0114185
X0113204Y0094511
X0111235
X0109266
X011025Y0092541
X0112221Y0092542
X0114187Y0092541
X0113203Y0090574
X0111234
X0109266Y0090572
X011025Y0088604
X0112219Y0088605
X0114187
X0115171Y0090572
X0115173Y0086635
X0113204Y0086637
X0111235
X0109266
X0104204Y0087164
X0101042Y0087165
X0099641Y0089473
X0102804Y0089472
X0105954
X0104204Y00918
X0101042Y0091801
X0099641Y0094107
X0102804Y0094106
X0105954
X0104204Y0096436
X0101042Y0096437
X0094501Y0096471
X0092535Y0096479
X0090565
X0089581Y0098448
X0091549
X009155Y0094511
X0089581
X0090565Y0092541
X0092535Y0092542
X0094502Y0092541
X0093518Y0090574
X0091549
X0089581Y0090572
X0090565Y0088604
X0092533Y0088605
X0094502
X0095486Y0090572
X0095488Y0086635
X0093519Y0086637
X009155
X0089581
X0081496Y0086616
X0079528
X0077559Y0086637
X0075589Y0086614
Y0090574
X0077576Y0090553
X0079528
X0081496
Y009449
X0079528
X0077559
X0075591Y0094488
Y0098427
X0077559
X0077674Y0114497
X0081559
X0086004Y01165
X0090666Y0114252
X0094603
X00989Y01148
X009705Y0111518
X0099918Y0119913
X0100571Y0124006
X0103733Y0124005
X0105134Y0126334
X0101971Y0126335
X0098822
X009553Y0125932
X0093561
X0091592
X0089623
X0090609Y0123964
X0092576
X0094546
X0093562Y0121995
X009553
X0094546Y0127902
X0092576Y0127901
X0090609Y0127902
X0091593Y0129869
X0093562
X009553Y0129871
X0094546Y013184
X0092577Y0131838
X0090609
X0089625Y0129871
X0089623Y0133808
X0091592Y0133806
X0093561
X009553
X0100571Y0133277
X0103733Y0133276
X0105134Y0130968
X0101971Y0130969
X0098822
X0100571Y0128641
X0103733Y012864
X010931Y0129879
X0111278Y0129877
X0113247
X0115215Y0129879
X0114231Y0131847
X0112262Y0131845
X0110294
X0111277Y0133814
X0113246
X0115215
X0109308Y0133816
X0110294Y012791
X0112261Y0127909
X0114231Y012791
X0115205Y0125937
X0113216Y0125925
X0111278
X0109343Y0125917
X0110294Y0123971
X0112261
X0114228Y0123961
X0113247Y0122003
X0115215
X0115017Y0114497
X0111844Y0114371
X0111815Y0110528
X0111926Y0106428
X0115469Y0106554
X0115156Y0108661
X0120784Y0111812
X0123737Y0114252
X0127651
X0134805Y0114282
X013665
X0138618Y0116077
X0140868
Y0111412
X0138618
X013665Y0109629
X0134805
Y0104975
X013665
X0138618Y0106747
X0140868
Y0102083
X0138618
X013665Y0100321
X0134805
Y0095668
X013665
X0138618Y0097418
X0140868
Y0092753
X0138618
X013665Y0091014
X0134805
Y0086361
X013665
X0138618Y0088088
X0140868
Y0083423
X0138618
X013665Y0081707
X0134805
Y0077053
X013665
X0138618Y0078759
X0140868
X012874Y0086616
X0126772
X0124803
X0122835
Y0090553
X0124803
X0126772
X012874
Y009449
X0126772
X0124803
X0122835Y0094488
Y0098427
X0124803
X0124524Y0106428
X0128796Y0106554
X0120316Y010432
X0115173Y0094511
X0095488
X0093519
X0103855Y011686
X01087Y01182
X0123228Y0125984
X0125197
X0127165
X0129134Y0125986
Y0129921
X0127165
X0125197
X0123228
Y0133858
X0125197
X0127165
X0129134
X0134805Y0132897
X013665
X0138618Y0134736
X0140868
Y0139401
X0138618
X013665Y013755
X0134805
Y0128243
X013665
X0138618Y0130071
X0140868
Y0125407
X0138618
X013665Y012359
X0134805
Y0118936
X013665
X0138618Y0120742
X0140868
X0129134Y0122047
X0127165
X0114784Y0144945
X009461Y014515
X0081521Y0145197
X008189Y0133858
X0079921
X0077953
X0075984
Y0129921
X0077953
X0079921
X008189
Y0125986
X0079921Y0125984
X0077953
X0075984
X0070344Y0124073
X006845
X0066342Y0122228
X0064476Y012222
Y0117513
X0066342Y0117524
X0068423Y0115987
X0070343
X0070344Y0119393
X006845
Y0128752
X0070344
Y0133431
X006845
X0066342Y0131638
X0064476Y0131633
Y0126927
X0066342Y0126933
Y0136343
X0064476Y013634
Y0141047
X0066342
X006845Y013811
X0070344
X0057949Y0134741
X0060933Y0116674
X0079921Y0122047
X008189
X0153543Y0096457
Y0086614
X0055021Y0110333
X0055118Y0113584
X005485Y0145756
X0046559Y0152551
X0046063Y0166535
X0046193Y0168315
X0029921Y0173622
Y0181102
X0016929Y0174409
X0032319Y0156465
X0021819Y0115756
X0005709Y0117323
Y0120866
X0010236Y0102362
X0014567Y0102954
X0010059Y0097244
X0017717Y0092931
X0021358Y0096063
X0022835Y0084806
X0015374Y0086614
X001439Y0082677
X0009864Y0083465
Y0076772
X0017717Y0072926
X0021531Y0075904
T02
X0015837Y0012205
X0026969
X0012598Y004252
X0016019Y0051496
X0066929Y0047244
X0076772
Y0027559
X0086417Y0027713
X0066929Y0027559
Y0017717
Y0007874
X0076772
Y0017717
X0163386Y0017717
X0163437Y0024118
X0173228Y0027953
Y0037795
X0165705Y0037657
X0173228Y0047638
X0183071Y0037795
Y0027953
X0192913
Y001811
Y0008268
X0183071
X0173228
Y001811
X0183071
X0192913Y0037795
X0143866Y0037941
X0173228Y005748
Y0067323
X0163386Y0086614
X0162098Y0096949
X0163386Y0106299
Y0116142
Y0125984
Y0135827
X0153543
X0143701
Y0125221
X0153543Y0125984
Y0116142
Y0106299
X0173228Y0106693
Y0116535
X0173228Y0126378
Y0136221
Y0146063
Y0155905
X0173228Y0165748
X0183071
Y0175591
Y0185433
X0173228
Y0175591
X0163386Y0175197
Y0165748
X0153543Y0175197
Y0185039
X0163386
Y0194882
X0153543
X0143701
Y0185039
Y0175197
Y0165354
X0133858
X0124016
X0114173
Y0175197
X0104331
X0104309Y0165396
X0094488Y0165354
Y0175197
X0084646
X0084624Y0165396
X0074782
X0074803Y0175197
X0074921Y0180209
X0084646Y0185039
X0094488
Y0194882
X0084646
X0104331
Y0185039
X0114173
X0118133Y0183967
X0127976
X0133858Y0185039
Y0175197
X0124016
Y0194882
X0133858
X0114173
X0114075Y0155512
X0104232
X0094488
X0072925Y0155929
X0064961Y0175197
Y0194882
X0123941Y0152732
X0163386Y0145669
X0192913Y0165748
Y0175591
Y0185433
X0173228Y0195276
X0173228Y009685
X0109677Y0063279
X0104786Y0066929
X0076772Y0057087
X0066929
X001082Y0064173
X0015036Y0076764
X0024564Y0078221
Y0081912
X0024409Y0098819
Y0102362
X0014809Y0096335
X0015748Y0135827
X0025591
X0035433Y0145669
X0045276
Y0155512
X0035799Y0155303
X0035333Y0185069
X0035333Y0194912
X0025491
X0015648
X0045176
Y0185069
T03
X003649Y0014245
Y0019245
Y0024245
X004149
Y0019245
Y0014245
X0030331Y0055968
X0025331
Y0060969
Y0065969
X0030331
Y0060969
T04
X00075Y00075
Y00175
Y00275
Y00375
X0183Y0045512
X0193
Y0055512
Y0065512
Y0075512
Y0085512
X0183
Y0095512
Y0105512
Y0115512
Y0125512
X0193
Y0135512
Y0145512
Y0155512
X0183
Y0145512
Y0135512
X0193Y0115512
Y0105512
Y0095512
X0183Y0075512
Y0065512
Y0055512
X0124524Y0079805
X0114524
X0020299Y0128661
Y0138661
X00075Y01725
Y01825
T05
X0153543Y0057874
X0153543Y0158268
X0057972Y0158268
X005461Y0056595
T06
X0153864Y0029478
X0056856Y0180462
M30
