G04 Layer_Physical_Order=5*
G04 Layer_Color=16737945*
%FSLAX25Y25*%
%MOIN*%
G70*
G01*
G75*
%ADD24C,0.01000*%
%ADD28C,0.00984*%
%ADD29C,0.00984*%
G04:AMPARAMS|DCode=31|XSize=66.93mil|YSize=66.93mil|CornerRadius=16.73mil|HoleSize=0mil|Usage=FLASHONLY|Rotation=180.000|XOffset=0mil|YOffset=0mil|HoleType=Round|Shape=RoundedRectangle|*
%AMROUNDEDRECTD31*
21,1,0.06693,0.03347,0,0,180.0*
21,1,0.03347,0.06693,0,0,180.0*
1,1,0.03346,-0.01673,0.01673*
1,1,0.03346,0.01673,0.01673*
1,1,0.03346,0.01673,-0.01673*
1,1,0.03346,-0.01673,-0.01673*
%
%ADD31ROUNDEDRECTD31*%
%ADD32C,0.06693*%
G04:AMPARAMS|DCode=33|XSize=66.93mil|YSize=66.93mil|CornerRadius=16.73mil|HoleSize=0mil|Usage=FLASHONLY|Rotation=90.000|XOffset=0mil|YOffset=0mil|HoleType=Round|Shape=RoundedRectangle|*
%AMROUNDEDRECTD33*
21,1,0.06693,0.03347,0,0,90.0*
21,1,0.03347,0.06693,0,0,90.0*
1,1,0.03346,0.01673,0.01673*
1,1,0.03346,0.01673,-0.01673*
1,1,0.03346,-0.01673,-0.01673*
1,1,0.03346,-0.01673,0.01673*
%
%ADD33ROUNDEDRECTD33*%
%ADD34C,0.04200*%
G04:AMPARAMS|DCode=35|XSize=42mil|YSize=42mil|CornerRadius=10.5mil|HoleSize=0mil|Usage=FLASHONLY|Rotation=270.000|XOffset=0mil|YOffset=0mil|HoleType=Round|Shape=RoundedRectangle|*
%AMROUNDEDRECTD35*
21,1,0.04200,0.02100,0,0,270.0*
21,1,0.02100,0.04200,0,0,270.0*
1,1,0.02100,-0.01050,-0.01050*
1,1,0.02100,-0.01050,0.01050*
1,1,0.02100,0.01050,0.01050*
1,1,0.02100,0.01050,-0.01050*
%
%ADD35ROUNDEDRECTD35*%
%ADD36C,0.10000*%
%ADD37C,0.01380*%
%ADD38C,0.02000*%
G36*
X198928Y60706D02*
X159351D01*
X158938Y61479D01*
X158131Y62462D01*
X157148Y63269D01*
X156026Y63868D01*
X154809Y64237D01*
X153543Y64362D01*
X152278Y64237D01*
X151060Y63868D01*
X149939Y63269D01*
X148956Y62462D01*
X148149Y61479D01*
X147736Y60706D01*
X67431D01*
Y79014D01*
X67651Y79343D01*
X67759Y79886D01*
X67651Y80428D01*
X67431Y80757D01*
X67431Y174310D01*
X67375Y174445D01*
X67361Y174591D01*
X67291Y174648D01*
X67256Y174731D01*
X67121Y174787D01*
X67008Y174880D01*
X66826Y174936D01*
Y175458D01*
X67008Y175513D01*
X67121Y175606D01*
X67256Y175662D01*
X67291Y175746D01*
X67361Y175803D01*
X67375Y175949D01*
X67431Y176084D01*
Y193994D01*
X67375Y194130D01*
X67361Y194276D01*
X67291Y194333D01*
X67256Y194416D01*
X67121Y194472D01*
X67008Y194565D01*
X66826Y194621D01*
Y195143D01*
X67008Y195198D01*
X67121Y195291D01*
X67256Y195347D01*
X67291Y195431D01*
X67361Y195488D01*
X67375Y195634D01*
X67431Y195769D01*
Y198928D01*
X198928D01*
Y60706D01*
D02*
G37*
G36*
X66835Y195769D02*
X66335Y195618D01*
X66079Y196000D01*
X65566Y196343D01*
X64961Y196464D01*
X64355Y196343D01*
X63842Y196000D01*
X63499Y195487D01*
X63379Y194882D01*
X63499Y194277D01*
X63842Y193764D01*
X64355Y193421D01*
X64961Y193300D01*
X65566Y193421D01*
X66079Y193764D01*
X66335Y194146D01*
X66835Y193994D01*
Y176084D01*
X66335Y175933D01*
X66079Y176315D01*
X65566Y176658D01*
X64961Y176778D01*
X64355Y176658D01*
X63842Y176315D01*
X63499Y175802D01*
X63379Y175197D01*
X63499Y174592D01*
X63842Y174079D01*
X64355Y173736D01*
X64961Y173615D01*
X65566Y173736D01*
X66079Y174079D01*
X66335Y174461D01*
X66835Y174310D01*
X66835Y60110D01*
X198928D01*
Y1072D01*
X1072D01*
Y60110D01*
Y198928D01*
X66835D01*
Y195769D01*
D02*
G37*
%LPC*%
G36*
X81588Y95592D02*
X75489D01*
X75079Y95511D01*
X74732Y95279D01*
X74500Y94931D01*
X74418Y94522D01*
X74500Y94112D01*
X74732Y93765D01*
X75079Y93533D01*
X75489Y93451D01*
X81588D01*
X81997Y93533D01*
X82345Y93765D01*
X82577Y94112D01*
X82658Y94522D01*
X82577Y94931D01*
X82345Y95279D01*
X81997Y95511D01*
X81588Y95592D01*
D02*
G37*
G36*
X140868Y94019D02*
X140384Y93922D01*
X140314Y93876D01*
X139172D01*
X139102Y93922D01*
X138618Y94019D01*
X138134Y93922D01*
X137723Y93648D01*
X137449Y93237D01*
X137353Y92753D01*
X137449Y92269D01*
X137723Y91858D01*
X138134Y91584D01*
X138618Y91487D01*
X139102Y91584D01*
X139325Y91732D01*
X140161D01*
X140384Y91584D01*
X140868Y91487D01*
X141352Y91584D01*
X141763Y91858D01*
X142037Y92269D01*
X142133Y92753D01*
X142037Y93237D01*
X141763Y93648D01*
X141352Y93922D01*
X140868Y94019D01*
D02*
G37*
G36*
X102804Y95106D02*
X102421Y95029D01*
X102097Y94813D01*
X101880Y94488D01*
X101804Y94106D01*
X101880Y93723D01*
X102097Y93399D01*
X102421Y93182D01*
X102804Y93106D01*
X103187Y93182D01*
X103511Y93399D01*
X103728Y93723D01*
X103804Y94106D01*
X103728Y94488D01*
X103511Y94813D01*
X103187Y95029D01*
X102804Y95106D01*
D02*
G37*
G36*
X105954D02*
X105571Y95029D01*
X105247Y94813D01*
X105030Y94488D01*
X104954Y94106D01*
X105030Y93723D01*
X105247Y93399D01*
X105571Y93182D01*
X105954Y93106D01*
X106336Y93182D01*
X106660Y93399D01*
X106877Y93723D01*
X106953Y94106D01*
X106877Y94488D01*
X106660Y94813D01*
X106336Y95029D01*
X105954Y95106D01*
D02*
G37*
G36*
X99641Y95107D02*
X99259Y95030D01*
X98934Y94814D01*
X98718Y94489D01*
X98642Y94107D01*
X98718Y93724D01*
X98934Y93400D01*
X99259Y93183D01*
X99641Y93107D01*
X100024Y93183D01*
X100348Y93400D01*
X100565Y93724D01*
X100641Y94107D01*
X100565Y94489D01*
X100348Y94814D01*
X100024Y95030D01*
X99641Y95107D01*
D02*
G37*
G36*
X173228Y98432D02*
X172623Y98312D01*
X172110Y97969D01*
X171767Y97456D01*
X171647Y96850D01*
X171767Y96245D01*
X172110Y95732D01*
X172623Y95389D01*
X173228Y95269D01*
X173834Y95389D01*
X174347Y95732D01*
X174689Y96245D01*
X174810Y96850D01*
X174689Y97456D01*
X174347Y97969D01*
X173834Y98312D01*
X173228Y98432D01*
D02*
G37*
G36*
X162098Y98530D02*
X161493Y98410D01*
X160980Y98067D01*
X160637Y97554D01*
X160517Y96949D01*
X160637Y96344D01*
X160980Y95831D01*
X161493Y95488D01*
X162098Y95367D01*
X162704Y95488D01*
X163217Y95831D01*
X163560Y96344D01*
X163680Y96949D01*
X163560Y97554D01*
X163217Y98067D01*
X162704Y98410D01*
X162098Y98530D01*
D02*
G37*
G36*
X153543Y97722D02*
X153059Y97626D01*
X152648Y97351D01*
X152374Y96941D01*
X152278Y96457D01*
X152374Y95972D01*
X152648Y95562D01*
X153059Y95288D01*
X153543Y95191D01*
X154027Y95288D01*
X154438Y95562D01*
X154712Y95972D01*
X154809Y96457D01*
X154712Y96941D01*
X154438Y97351D01*
X154027Y97626D01*
X153543Y97722D01*
D02*
G37*
G36*
X99641Y90473D02*
X99259Y90397D01*
X98934Y90180D01*
X98718Y89856D01*
X98642Y89473D01*
X98718Y89091D01*
X98934Y88766D01*
X99259Y88549D01*
X99641Y88473D01*
X100024Y88549D01*
X100348Y88766D01*
X100565Y89091D01*
X100641Y89473D01*
X100565Y89856D01*
X100348Y90180D01*
X100024Y90397D01*
X99641Y90473D01*
D02*
G37*
G36*
X140868Y89354D02*
X140384Y89257D01*
X140314Y89211D01*
X139172D01*
X139102Y89257D01*
X138618Y89354D01*
X138134Y89257D01*
X137723Y88983D01*
X137449Y88573D01*
X137353Y88088D01*
X137449Y87604D01*
X137723Y87193D01*
X138134Y86919D01*
X138618Y86823D01*
X139102Y86919D01*
X139325Y87068D01*
X140161D01*
X140384Y86919D01*
X140868Y86823D01*
X141352Y86919D01*
X141763Y87193D01*
X142037Y87604D01*
X142133Y88088D01*
X142037Y88573D01*
X141763Y88983D01*
X141352Y89257D01*
X140868Y89354D01*
D02*
G37*
G36*
X105954Y90472D02*
X105571Y90396D01*
X105247Y90179D01*
X105030Y89855D01*
X104954Y89472D01*
X105030Y89090D01*
X105247Y88765D01*
X105571Y88548D01*
X105954Y88472D01*
X106336Y88548D01*
X106660Y88765D01*
X106877Y89090D01*
X106953Y89472D01*
X106877Y89855D01*
X106660Y90179D01*
X106336Y90396D01*
X105954Y90472D01*
D02*
G37*
G36*
X128740Y87882D02*
X128256Y87785D01*
X128165Y87725D01*
X127347D01*
X127256Y87785D01*
X126772Y87882D01*
X126287Y87785D01*
X126197Y87725D01*
X125378D01*
X125287Y87785D01*
X124803Y87882D01*
X124319Y87785D01*
X124228Y87725D01*
X123410D01*
X123319Y87785D01*
X122835Y87882D01*
X122350Y87785D01*
X121940Y87511D01*
X121666Y87100D01*
X121569Y86616D01*
X121666Y86132D01*
X121940Y85721D01*
X122350Y85447D01*
X122835Y85351D01*
X123319Y85447D01*
X123520Y85581D01*
X124118D01*
X124319Y85447D01*
X124803Y85351D01*
X125287Y85447D01*
X125488Y85581D01*
X126086D01*
X126287Y85447D01*
X126772Y85351D01*
X127256Y85447D01*
X127457Y85581D01*
X128055D01*
X128256Y85447D01*
X128740Y85351D01*
X129224Y85447D01*
X129635Y85721D01*
X129909Y86132D01*
X130006Y86616D01*
X129909Y87100D01*
X129635Y87511D01*
X129224Y87785D01*
X128740Y87882D01*
D02*
G37*
G36*
X102804Y90472D02*
X102421Y90396D01*
X102097Y90179D01*
X101880Y89855D01*
X101804Y89472D01*
X101880Y89090D01*
X102097Y88765D01*
X102421Y88548D01*
X102804Y88472D01*
X103187Y88548D01*
X103511Y88765D01*
X103728Y89090D01*
X103804Y89472D01*
X103728Y89855D01*
X103511Y90179D01*
X103187Y90396D01*
X102804Y90472D01*
D02*
G37*
G36*
X81528Y91650D02*
X75429D01*
X75020Y91569D01*
X74672Y91337D01*
X74440Y90990D01*
X74359Y90580D01*
X74440Y90170D01*
X74672Y89823D01*
X75020Y89591D01*
X75429Y89509D01*
X81528D01*
X81938Y89591D01*
X82285Y89823D01*
X82517Y90170D01*
X82599Y90580D01*
X82517Y90990D01*
X82285Y91337D01*
X81938Y91569D01*
X81528Y91650D01*
D02*
G37*
G36*
X193000Y99443D02*
X191982Y99309D01*
X191034Y98916D01*
X190220Y98292D01*
X189595Y97477D01*
X189203Y96529D01*
X189069Y95512D01*
X189203Y94494D01*
X189595Y93546D01*
X190220Y92732D01*
X191034Y92107D01*
X191982Y91715D01*
X193000Y91581D01*
X194018Y91715D01*
X194966Y92107D01*
X195780Y92732D01*
X196405Y93546D01*
X196797Y94494D01*
X196931Y95512D01*
X196797Y96529D01*
X196405Y97477D01*
X195780Y98292D01*
X194966Y98916D01*
X194018Y99309D01*
X193000Y99443D01*
D02*
G37*
G36*
X128740Y91819D02*
X128256Y91722D01*
X128194Y91681D01*
X127317D01*
X127256Y91722D01*
X126772Y91819D01*
X126287Y91722D01*
X126226Y91681D01*
X125349D01*
X125287Y91722D01*
X124803Y91819D01*
X124319Y91722D01*
X124258Y91681D01*
X123380D01*
X123319Y91722D01*
X122835Y91819D01*
X122350Y91722D01*
X121940Y91448D01*
X121666Y91037D01*
X121569Y90553D01*
X121666Y90069D01*
X121940Y89658D01*
X122350Y89384D01*
X122835Y89288D01*
X123319Y89384D01*
X123549Y89538D01*
X124089D01*
X124319Y89384D01*
X124803Y89288D01*
X125287Y89384D01*
X125518Y89538D01*
X126057D01*
X126287Y89384D01*
X126772Y89288D01*
X127256Y89384D01*
X127486Y89538D01*
X128026D01*
X128256Y89384D01*
X128740Y89288D01*
X129224Y89384D01*
X129635Y89658D01*
X129909Y90069D01*
X130006Y90553D01*
X129909Y91037D01*
X129635Y91448D01*
X129224Y91722D01*
X128740Y91819D01*
D02*
G37*
G36*
X183000Y99443D02*
X181983Y99309D01*
X181034Y98916D01*
X180220Y98292D01*
X179595Y97477D01*
X179203Y96529D01*
X179069Y95512D01*
X179203Y94494D01*
X179595Y93546D01*
X180220Y92732D01*
X181034Y92107D01*
X181983Y91715D01*
X183000Y91581D01*
X184018Y91715D01*
X184966Y92107D01*
X185780Y92732D01*
X186405Y93546D01*
X186797Y94494D01*
X186931Y95512D01*
X186797Y96529D01*
X186405Y97477D01*
X185780Y98292D01*
X184966Y98916D01*
X184018Y99309D01*
X183000Y99443D01*
D02*
G37*
G36*
X104204Y92800D02*
X103822Y92723D01*
X103497Y92507D01*
X103281Y92182D01*
X103205Y91800D01*
X103281Y91417D01*
X103497Y91093D01*
X103822Y90876D01*
X104204Y90800D01*
X104587Y90876D01*
X104911Y91093D01*
X105128Y91417D01*
X105204Y91800D01*
X105128Y92182D01*
X104911Y92507D01*
X104587Y92723D01*
X104204Y92800D01*
D02*
G37*
G36*
X101042Y92800D02*
X100659Y92724D01*
X100335Y92508D01*
X100118Y92183D01*
X100042Y91801D01*
X100118Y91418D01*
X100335Y91094D01*
X100659Y90877D01*
X101042Y90801D01*
X101424Y90877D01*
X101749Y91094D01*
X101965Y91418D01*
X102041Y91801D01*
X101965Y92183D01*
X101749Y92508D01*
X101424Y92724D01*
X101042Y92800D01*
D02*
G37*
G36*
X140868Y103348D02*
X140384Y103252D01*
X140375Y103246D01*
X139111D01*
X139102Y103252D01*
X138618Y103348D01*
X138134Y103252D01*
X137723Y102977D01*
X137449Y102567D01*
X137353Y102083D01*
X137449Y101598D01*
X137723Y101188D01*
X138134Y100913D01*
X138618Y100817D01*
X139102Y100913D01*
X139386Y101103D01*
X140100D01*
X140384Y100913D01*
X140868Y100817D01*
X141352Y100913D01*
X141763Y101188D01*
X142037Y101598D01*
X142133Y102083D01*
X142037Y102567D01*
X141763Y102977D01*
X141352Y103252D01*
X140868Y103348D01*
D02*
G37*
G36*
X120316Y105320D02*
X119933Y105244D01*
X119609Y105027D01*
X119392Y104703D01*
X119316Y104320D01*
X119392Y103938D01*
X119609Y103613D01*
X119933Y103396D01*
X120316Y103320D01*
X120698Y103396D01*
X121023Y103613D01*
X121239Y103938D01*
X121316Y104320D01*
X121239Y104703D01*
X121023Y105027D01*
X120698Y105244D01*
X120316Y105320D01*
D02*
G37*
G36*
X83858Y105070D02*
X83476Y104994D01*
X83151Y104778D01*
X82935Y104453D01*
X82859Y104071D01*
X82935Y103688D01*
X83151Y103364D01*
X83476Y103147D01*
X83858Y103071D01*
X84241Y103147D01*
X84565Y103364D01*
X84782Y103688D01*
X84858Y104071D01*
X84782Y104453D01*
X84565Y104778D01*
X84241Y104994D01*
X83858Y105070D01*
D02*
G37*
G36*
X183000Y109443D02*
X181983Y109309D01*
X181034Y108916D01*
X180220Y108292D01*
X179595Y107477D01*
X179203Y106529D01*
X179069Y105512D01*
X179203Y104494D01*
X179595Y103546D01*
X180220Y102732D01*
X181034Y102107D01*
X181983Y101715D01*
X183000Y101581D01*
X184018Y101715D01*
X184966Y102107D01*
X185780Y102732D01*
X186405Y103546D01*
X186797Y104494D01*
X186931Y105512D01*
X186797Y106529D01*
X186405Y107477D01*
X185780Y108292D01*
X184966Y108916D01*
X184018Y109309D01*
X183000Y109443D01*
D02*
G37*
G36*
X193000D02*
X191982Y109309D01*
X191034Y108916D01*
X190220Y108292D01*
X189595Y107477D01*
X189203Y106529D01*
X189069Y105512D01*
X189203Y104494D01*
X189595Y103546D01*
X190220Y102732D01*
X191034Y102107D01*
X191982Y101715D01*
X193000Y101581D01*
X194018Y101715D01*
X194966Y102107D01*
X195780Y102732D01*
X196405Y103546D01*
X196797Y104494D01*
X196931Y105512D01*
X196797Y106529D01*
X196405Y107477D01*
X195780Y108292D01*
X194966Y108916D01*
X194018Y109309D01*
X193000Y109443D01*
D02*
G37*
G36*
X163386Y107881D02*
X162781Y107760D01*
X162267Y107418D01*
X161925Y106904D01*
X161804Y106299D01*
X161925Y105694D01*
X162267Y105181D01*
X162781Y104838D01*
X163386Y104718D01*
X163991Y104838D01*
X164504Y105181D01*
X164847Y105694D01*
X164967Y106299D01*
X164847Y106904D01*
X164504Y107418D01*
X163991Y107760D01*
X163386Y107881D01*
D02*
G37*
G36*
X90666Y107000D02*
X90284Y106924D01*
X89959Y106707D01*
X89743Y106383D01*
X89666Y106000D01*
X89743Y105618D01*
X89959Y105293D01*
X90284Y105077D01*
X90666Y105000D01*
X91049Y105077D01*
X91373Y105293D01*
X91590Y105618D01*
X91666Y106000D01*
X91590Y106383D01*
X91373Y106707D01*
X91049Y106924D01*
X90666Y107000D01*
D02*
G37*
G36*
X153543Y107881D02*
X152938Y107760D01*
X152425Y107418D01*
X152082Y106904D01*
X151962Y106299D01*
X152082Y105694D01*
X152425Y105181D01*
X152938Y104838D01*
X153543Y104718D01*
X154149Y104838D01*
X154662Y105181D01*
X155005Y105694D01*
X155125Y106299D01*
X155005Y106904D01*
X154662Y107418D01*
X154149Y107760D01*
X153543Y107881D01*
D02*
G37*
G36*
X100787Y106511D02*
X100405Y106435D01*
X100080Y106219D01*
X99863Y105894D01*
X99787Y105512D01*
X99863Y105129D01*
X100080Y104805D01*
X100405Y104588D01*
X100787Y104512D01*
X101170Y104588D01*
X101494Y104805D01*
X101711Y105129D01*
X101787Y105512D01*
X101711Y105894D01*
X101494Y106219D01*
X101170Y106435D01*
X100787Y106511D01*
D02*
G37*
G36*
X103950Y106703D02*
X103567Y106627D01*
X103243Y106410D01*
X103026Y106086D01*
X102950Y105703D01*
X103026Y105321D01*
X103243Y104996D01*
X103567Y104779D01*
X103950Y104703D01*
X104332Y104779D01*
X104657Y104996D01*
X104873Y105321D01*
X104949Y105703D01*
X104873Y106086D01*
X104657Y106410D01*
X104332Y106627D01*
X103950Y106703D01*
D02*
G37*
G36*
X77556Y99549D02*
X75444D01*
X75034Y99467D01*
X74687Y99235D01*
X74455Y98888D01*
X74374Y98478D01*
X74455Y98069D01*
X74687Y97721D01*
X75034Y97489D01*
X75444Y97408D01*
X77556D01*
X77966Y97489D01*
X78313Y97721D01*
X78545Y98069D01*
X78627Y98478D01*
X78545Y98888D01*
X78313Y99235D01*
X77966Y99467D01*
X77556Y99549D01*
D02*
G37*
G36*
X128740Y95756D02*
X128256Y95659D01*
X128202Y95623D01*
X127310D01*
X127256Y95659D01*
X126772Y95756D01*
X126287Y95659D01*
X126233Y95623D01*
X125342D01*
X125287Y95659D01*
X124803Y95756D01*
X124319Y95659D01*
X124265Y95623D01*
X123370D01*
X123319Y95657D01*
X122835Y95754D01*
X122350Y95657D01*
X121940Y95383D01*
X121666Y94972D01*
X121569Y94488D01*
X121666Y94004D01*
X121940Y93593D01*
X122350Y93319D01*
X122835Y93223D01*
X123319Y93319D01*
X123559Y93480D01*
X124082D01*
X124319Y93321D01*
X124803Y93225D01*
X125287Y93321D01*
X125525Y93480D01*
X126050D01*
X126287Y93321D01*
X126772Y93225D01*
X127256Y93321D01*
X127493Y93480D01*
X128018D01*
X128256Y93321D01*
X128740Y93225D01*
X129224Y93321D01*
X129635Y93595D01*
X129909Y94006D01*
X130006Y94490D01*
X129909Y94974D01*
X129635Y95385D01*
X129224Y95659D01*
X128740Y95756D01*
D02*
G37*
G36*
X104204Y97435D02*
X103822Y97359D01*
X103497Y97143D01*
X103281Y96818D01*
X103205Y96436D01*
X103281Y96053D01*
X103497Y95729D01*
X103822Y95512D01*
X104204Y95436D01*
X104587Y95512D01*
X104911Y95729D01*
X105128Y96053D01*
X105204Y96436D01*
X105128Y96818D01*
X104911Y97143D01*
X104587Y97359D01*
X104204Y97435D01*
D02*
G37*
G36*
X101042Y97436D02*
X100659Y97360D01*
X100335Y97144D01*
X100118Y96819D01*
X100042Y96437D01*
X100118Y96054D01*
X100335Y95730D01*
X100659Y95513D01*
X101042Y95437D01*
X101424Y95513D01*
X101749Y95730D01*
X101965Y96054D01*
X102041Y96437D01*
X101965Y96819D01*
X101749Y97144D01*
X101424Y97360D01*
X101042Y97436D01*
D02*
G37*
G36*
X108454Y102602D02*
X108071Y102526D01*
X107747Y102309D01*
X107530Y101985D01*
X107454Y101602D01*
X107530Y101220D01*
X107747Y100895D01*
X108071Y100679D01*
X108454Y100603D01*
X108836Y100679D01*
X109161Y100895D01*
X109377Y101220D01*
X109453Y101602D01*
X109377Y101985D01*
X109161Y102309D01*
X108836Y102526D01*
X108454Y102602D01*
D02*
G37*
G36*
X124803Y99693D02*
X124319Y99596D01*
X124294Y99580D01*
X123344D01*
X123319Y99596D01*
X122835Y99693D01*
X122350Y99596D01*
X121940Y99322D01*
X121666Y98911D01*
X121569Y98427D01*
X121666Y97943D01*
X121940Y97532D01*
X122350Y97258D01*
X122835Y97162D01*
X123319Y97258D01*
X123586Y97436D01*
X124052D01*
X124319Y97258D01*
X124803Y97162D01*
X125287Y97258D01*
X125698Y97532D01*
X125972Y97943D01*
X126069Y98427D01*
X125972Y98911D01*
X125698Y99322D01*
X125287Y99596D01*
X124803Y99693D01*
D02*
G37*
G36*
X140868Y98683D02*
X140384Y98587D01*
X140314Y98541D01*
X139172D01*
X139102Y98587D01*
X138618Y98683D01*
X138134Y98587D01*
X137723Y98313D01*
X137449Y97902D01*
X137353Y97418D01*
X137449Y96934D01*
X137723Y96523D01*
X138134Y96249D01*
X138618Y96152D01*
X139102Y96249D01*
X139325Y96397D01*
X140161D01*
X140384Y96249D01*
X140868Y96152D01*
X141352Y96249D01*
X141763Y96523D01*
X142037Y96934D01*
X142133Y97418D01*
X142037Y97902D01*
X141763Y98313D01*
X141352Y98587D01*
X140868Y98683D01*
D02*
G37*
G36*
X101042Y88165D02*
X100659Y88089D01*
X100335Y87872D01*
X100118Y87547D01*
X100042Y87165D01*
X100118Y86782D01*
X100335Y86458D01*
X100659Y86241D01*
X101042Y86165D01*
X101424Y86241D01*
X101749Y86458D01*
X101965Y86782D01*
X102041Y87165D01*
X101965Y87547D01*
X101749Y87872D01*
X101424Y88089D01*
X101042Y88165D01*
D02*
G37*
G36*
X104786Y68511D02*
X104181Y68390D01*
X103668Y68047D01*
X103325Y67534D01*
X103205Y66929D01*
X103325Y66324D01*
X103668Y65811D01*
X104181Y65468D01*
X104786Y65348D01*
X105392Y65468D01*
X105905Y65811D01*
X106247Y66324D01*
X106368Y66929D01*
X106247Y67534D01*
X105905Y68047D01*
X105392Y68390D01*
X104786Y68511D01*
D02*
G37*
G36*
X173228Y68904D02*
X172623Y68784D01*
X172110Y68441D01*
X171767Y67928D01*
X171647Y67323D01*
X171767Y66718D01*
X172110Y66205D01*
X172623Y65862D01*
X173228Y65741D01*
X173834Y65862D01*
X174347Y66205D01*
X174689Y66718D01*
X174810Y67323D01*
X174689Y67928D01*
X174347Y68441D01*
X173834Y68784D01*
X173228Y68904D01*
D02*
G37*
G36*
X109677Y64861D02*
X109072Y64741D01*
X108559Y64398D01*
X108216Y63885D01*
X108096Y63279D01*
X108216Y62674D01*
X108559Y62161D01*
X109072Y61818D01*
X109677Y61698D01*
X110282Y61818D01*
X110795Y62161D01*
X111138Y62674D01*
X111259Y63279D01*
X111138Y63885D01*
X110795Y64398D01*
X110282Y64741D01*
X109677Y64861D01*
D02*
G37*
G36*
X183000Y69443D02*
X181983Y69309D01*
X181034Y68916D01*
X180220Y68292D01*
X179595Y67477D01*
X179203Y66529D01*
X179069Y65512D01*
X179203Y64494D01*
X179595Y63546D01*
X180220Y62732D01*
X181034Y62107D01*
X181983Y61715D01*
X183000Y61581D01*
X184018Y61715D01*
X184966Y62107D01*
X185780Y62732D01*
X186405Y63546D01*
X186797Y64494D01*
X186931Y65512D01*
X186797Y66529D01*
X186405Y67477D01*
X185780Y68292D01*
X184966Y68916D01*
X184018Y69309D01*
X183000Y69443D01*
D02*
G37*
G36*
X193000D02*
X191982Y69309D01*
X191034Y68916D01*
X190220Y68292D01*
X189595Y67477D01*
X189203Y66529D01*
X189069Y65512D01*
X189203Y64494D01*
X189595Y63546D01*
X190220Y62732D01*
X191034Y62107D01*
X191982Y61715D01*
X193000Y61581D01*
X194018Y61715D01*
X194966Y62107D01*
X195780Y62732D01*
X196405Y63546D01*
X196797Y64494D01*
X196931Y65512D01*
X196797Y66529D01*
X196405Y67477D01*
X195780Y68292D01*
X194966Y68916D01*
X194018Y69309D01*
X193000Y69443D01*
D02*
G37*
G36*
X140868Y84689D02*
X140384Y84592D01*
X140314Y84546D01*
X139172D01*
X139102Y84592D01*
X138618Y84689D01*
X138134Y84592D01*
X137723Y84318D01*
X137449Y83908D01*
X137353Y83423D01*
X137449Y82939D01*
X137723Y82529D01*
X138134Y82254D01*
X138618Y82158D01*
X139102Y82254D01*
X139325Y82403D01*
X140161D01*
X140384Y82254D01*
X140868Y82158D01*
X141352Y82254D01*
X141763Y82529D01*
X142037Y82939D01*
X142133Y83423D01*
X142037Y83908D01*
X141763Y84318D01*
X141352Y84592D01*
X140868Y84689D01*
D02*
G37*
G36*
X163386Y88196D02*
X162781Y88075D01*
X162267Y87732D01*
X161925Y87219D01*
X161804Y86614D01*
X161925Y86009D01*
X162267Y85496D01*
X162781Y85153D01*
X163386Y85033D01*
X163991Y85153D01*
X164504Y85496D01*
X164847Y86009D01*
X164967Y86614D01*
X164847Y87219D01*
X164504Y87732D01*
X163991Y88075D01*
X163386Y88196D01*
D02*
G37*
G36*
X193000Y89443D02*
X191982Y89309D01*
X191034Y88916D01*
X190220Y88292D01*
X189595Y87477D01*
X189203Y86529D01*
X189069Y85512D01*
X189203Y84494D01*
X189595Y83546D01*
X190220Y82732D01*
X191034Y82107D01*
X191982Y81714D01*
X193000Y81581D01*
X194018Y81714D01*
X194966Y82107D01*
X195780Y82732D01*
X196405Y83546D01*
X196797Y84494D01*
X196931Y85512D01*
X196797Y86529D01*
X196405Y87477D01*
X195780Y88292D01*
X194966Y88916D01*
X194018Y89309D01*
X193000Y89443D01*
D02*
G37*
G36*
X81617Y87694D02*
X75519D01*
X75109Y87612D01*
X74762Y87380D01*
X74529Y87033D01*
X74448Y86623D01*
X74529Y86213D01*
X74762Y85866D01*
X75109Y85634D01*
X75519Y85553D01*
X81617D01*
X82027Y85634D01*
X82374Y85866D01*
X82607Y86213D01*
X82688Y86623D01*
X82607Y87033D01*
X82374Y87380D01*
X82027Y87612D01*
X81617Y87694D01*
D02*
G37*
G36*
X104204Y88164D02*
X103822Y88087D01*
X103497Y87871D01*
X103281Y87546D01*
X103205Y87164D01*
X103281Y86781D01*
X103497Y86457D01*
X103822Y86240D01*
X104204Y86164D01*
X104587Y86240D01*
X104911Y86457D01*
X105128Y86781D01*
X105204Y87164D01*
X105128Y87546D01*
X104911Y87871D01*
X104587Y88087D01*
X104204Y88164D01*
D02*
G37*
G36*
X111048Y99599D02*
X108937D01*
X108527Y99518D01*
X108179Y99286D01*
X107947Y98939D01*
X107866Y98529D01*
X107947Y98119D01*
X108179Y97772D01*
X108527Y97540D01*
X108937Y97458D01*
X108958D01*
X109084Y97324D01*
X109174Y97174D01*
X109225Y96958D01*
X109173Y96880D01*
X109091Y96470D01*
X109173Y96060D01*
X109190Y96035D01*
X109192Y96013D01*
X108950Y95494D01*
X108813Y95467D01*
X108466Y95235D01*
X108234Y94888D01*
X108153Y94478D01*
X108234Y94068D01*
X108466Y93721D01*
X108813Y93489D01*
X108872Y93477D01*
X109143Y92983D01*
X109135Y92944D01*
X109062Y92573D01*
X109143Y92163D01*
X109189Y92095D01*
X109190Y92076D01*
X108948Y91555D01*
X108813Y91528D01*
X108466Y91296D01*
X108234Y90949D01*
X108153Y90539D01*
X108234Y90129D01*
X108466Y89782D01*
X108813Y89550D01*
X108891Y89534D01*
X109169Y89061D01*
X109161Y88994D01*
X109091Y88646D01*
X109173Y88236D01*
X109216Y88172D01*
X109217Y88106D01*
X108979Y87626D01*
X108813Y87593D01*
X108466Y87361D01*
X108234Y87014D01*
X108153Y86604D01*
X108234Y86194D01*
X108466Y85847D01*
X108813Y85615D01*
X109223Y85533D01*
X115173D01*
X115583Y85615D01*
X115930Y85847D01*
X116162Y86194D01*
X116244Y86604D01*
X116162Y87014D01*
X115930Y87361D01*
X115583Y87593D01*
X115497Y87610D01*
X115267Y88164D01*
X115315Y88236D01*
X115397Y88646D01*
X115315Y89056D01*
X115583Y89550D01*
X115930Y89782D01*
X116162Y90129D01*
X116244Y90539D01*
X116162Y90949D01*
X115930Y91296D01*
X115583Y91528D01*
X115477Y91549D01*
X115239Y92094D01*
X115286Y92163D01*
X115367Y92573D01*
X115286Y92983D01*
X115553Y93483D01*
X115583Y93489D01*
X115930Y93721D01*
X116162Y94068D01*
X116244Y94478D01*
X116162Y94888D01*
X115930Y95235D01*
X115583Y95467D01*
X115527Y95478D01*
X115297Y96034D01*
X115315Y96060D01*
X115397Y96470D01*
X115315Y96880D01*
X115083Y97227D01*
X114736Y97459D01*
X114326Y97541D01*
X112252D01*
X111985Y98041D01*
X112037Y98119D01*
X112119Y98529D01*
X112037Y98939D01*
X111805Y99286D01*
X111458Y99518D01*
X111048Y99599D01*
D02*
G37*
G36*
X153543Y87880D02*
X153059Y87783D01*
X152648Y87509D01*
X152374Y87098D01*
X152278Y86614D01*
X152374Y86130D01*
X152648Y85719D01*
X153059Y85445D01*
X153543Y85349D01*
X154027Y85445D01*
X154438Y85719D01*
X154712Y86130D01*
X154809Y86614D01*
X154712Y87098D01*
X154438Y87509D01*
X154027Y87783D01*
X153543Y87880D01*
D02*
G37*
G36*
X91574Y99599D02*
X89462D01*
X89052Y99518D01*
X88705Y99286D01*
X88473Y98939D01*
X88392Y98529D01*
X88473Y98119D01*
X88705Y97772D01*
X89052Y97540D01*
X89360Y97479D01*
X89598Y97114D01*
X89609Y97088D01*
X89609Y97084D01*
X89616Y96997D01*
X89615Y96965D01*
X89538Y96850D01*
X89457Y96440D01*
X89535Y96047D01*
X89538Y96020D01*
X89538Y96000D01*
X89292Y95499D01*
X89128Y95467D01*
X88781Y95235D01*
X88549Y94888D01*
X88468Y94478D01*
X88549Y94068D01*
X88781Y93721D01*
X89128Y93489D01*
X89249Y93465D01*
X89505Y92960D01*
X89503Y92922D01*
X89427Y92543D01*
X89509Y92133D01*
X89533Y92097D01*
X89510Y91949D01*
X89288Y91564D01*
X89048Y91516D01*
X88700Y91284D01*
X88468Y90936D01*
X88387Y90527D01*
X88468Y90117D01*
X88700Y89770D01*
X89048Y89538D01*
X89252Y89497D01*
X89508Y89075D01*
X89524Y88956D01*
X89457Y88616D01*
X89538Y88207D01*
X89564Y88169D01*
X89524Y87983D01*
X89315Y87640D01*
X89048Y87587D01*
X88700Y87355D01*
X88468Y87008D01*
X88387Y86598D01*
X88468Y86188D01*
X88700Y85841D01*
X89048Y85609D01*
X89457Y85528D01*
X95407D01*
X95817Y85609D01*
X96164Y85841D01*
X96396Y86188D01*
X96408Y86247D01*
X96412Y86252D01*
X96488Y86635D01*
X96412Y87018D01*
X96195Y87342D01*
X95871Y87559D01*
X95855Y87562D01*
X95845Y87569D01*
X95812Y87602D01*
X95632Y88134D01*
X95681Y88207D01*
X95762Y88616D01*
X95681Y89026D01*
X95817Y89538D01*
X96164Y89770D01*
X96396Y90117D01*
X96478Y90527D01*
X96478Y90529D01*
X96486Y90572D01*
X96410Y90955D01*
X96193Y91279D01*
X95869Y91496D01*
X95838Y91502D01*
X95831Y91506D01*
X95816Y91519D01*
X95607Y92067D01*
X95651Y92133D01*
X95732Y92543D01*
X95651Y92953D01*
X95895Y93488D01*
X95898Y93489D01*
X96245Y93721D01*
X96477Y94068D01*
X96559Y94478D01*
X96477Y94888D01*
X96245Y95235D01*
X95898Y95467D01*
X95674Y96021D01*
X95681Y96031D01*
X95762Y96440D01*
X95681Y96850D01*
X95448Y97197D01*
X95101Y97430D01*
X94691Y97511D01*
X92758D01*
X92491Y98011D01*
X92563Y98119D01*
X92644Y98529D01*
X92563Y98939D01*
X92331Y99286D01*
X91983Y99518D01*
X91574Y99599D01*
D02*
G37*
G36*
X183000Y89443D02*
X181983Y89309D01*
X181034Y88916D01*
X180220Y88292D01*
X179595Y87477D01*
X179203Y86529D01*
X179069Y85512D01*
X179203Y84494D01*
X179595Y83546D01*
X180220Y82732D01*
X181034Y82107D01*
X181983Y81714D01*
X183000Y81581D01*
X184018Y81714D01*
X184966Y82107D01*
X185780Y82732D01*
X186405Y83546D01*
X186797Y84494D01*
X186931Y85512D01*
X186797Y86529D01*
X186405Y87477D01*
X185780Y88292D01*
X184966Y88916D01*
X184018Y89309D01*
X183000Y89443D01*
D02*
G37*
G36*
Y79443D02*
X181983Y79309D01*
X181034Y78916D01*
X180220Y78292D01*
X179595Y77477D01*
X179203Y76529D01*
X179069Y75512D01*
X179203Y74494D01*
X179595Y73546D01*
X180220Y72732D01*
X181034Y72107D01*
X181983Y71715D01*
X183000Y71581D01*
X184018Y71715D01*
X184966Y72107D01*
X185780Y72732D01*
X186405Y73546D01*
X186797Y74494D01*
X186931Y75512D01*
X186797Y76529D01*
X186405Y77477D01*
X185780Y78292D01*
X184966Y78916D01*
X184018Y79309D01*
X183000Y79443D01*
D02*
G37*
G36*
X193000D02*
X191982Y79309D01*
X191034Y78916D01*
X190220Y78292D01*
X189595Y77477D01*
X189203Y76529D01*
X189069Y75512D01*
X189203Y74494D01*
X189595Y73546D01*
X190220Y72732D01*
X191034Y72107D01*
X191982Y71715D01*
X193000Y71581D01*
X194018Y71715D01*
X194966Y72107D01*
X195780Y72732D01*
X196405Y73546D01*
X196797Y74494D01*
X196931Y75512D01*
X196797Y76529D01*
X196405Y77477D01*
X195780Y78292D01*
X194966Y78916D01*
X194018Y79309D01*
X193000Y79443D01*
D02*
G37*
G36*
X140868Y80024D02*
X140384Y79928D01*
X140314Y79882D01*
X139172D01*
X139102Y79928D01*
X138618Y80024D01*
X138134Y79928D01*
X137723Y79653D01*
X137449Y79243D01*
X137353Y78759D01*
X137449Y78274D01*
X137723Y77864D01*
X138134Y77589D01*
X138618Y77493D01*
X139102Y77589D01*
X139325Y77738D01*
X140161D01*
X140384Y77589D01*
X140868Y77493D01*
X141352Y77589D01*
X141763Y77864D01*
X142037Y78274D01*
X142133Y78759D01*
X142037Y79243D01*
X141763Y79653D01*
X141352Y79928D01*
X140868Y80024D01*
D02*
G37*
G36*
X126197Y83746D02*
X122851D01*
X121983Y83574D01*
X121247Y83082D01*
X120755Y82346D01*
X120583Y81478D01*
Y78132D01*
X120755Y77264D01*
X121247Y76528D01*
X121983Y76037D01*
X122851Y75864D01*
X126197D01*
X127065Y76037D01*
X127801Y76528D01*
X128293Y77264D01*
X128465Y78132D01*
Y81478D01*
X128293Y82346D01*
X127801Y83082D01*
X127065Y83574D01*
X126197Y83746D01*
D02*
G37*
G36*
X114524Y83736D02*
X113506Y83602D01*
X112558Y83210D01*
X111744Y82585D01*
X111119Y81771D01*
X110727Y80823D01*
X110593Y79805D01*
X110727Y78788D01*
X111119Y77839D01*
X111744Y77025D01*
X112558Y76401D01*
X113506Y76008D01*
X114524Y75874D01*
X115542Y76008D01*
X116490Y76401D01*
X117304Y77025D01*
X117929Y77839D01*
X118321Y78788D01*
X118455Y79805D01*
X118321Y80823D01*
X117929Y81771D01*
X117304Y82585D01*
X116490Y83210D01*
X115542Y83602D01*
X114524Y83736D01*
D02*
G37*
G36*
X80783Y107101D02*
X80400Y107025D01*
X80076Y106808D01*
X79859Y106484D01*
X79783Y106101D01*
X79859Y105719D01*
X80076Y105394D01*
X80400Y105178D01*
X80783Y105102D01*
X81166Y105178D01*
X81490Y105394D01*
X81707Y105719D01*
X81783Y106101D01*
X81707Y106484D01*
X81490Y106808D01*
X81166Y107025D01*
X80783Y107101D01*
D02*
G37*
G36*
X101971Y131969D02*
X101589Y131893D01*
X101264Y131676D01*
X101048Y131352D01*
X100971Y130969D01*
X101048Y130587D01*
X101264Y130262D01*
X101589Y130045D01*
X101971Y129969D01*
X102354Y130045D01*
X102678Y130262D01*
X102895Y130587D01*
X102971Y130969D01*
X102895Y131352D01*
X102678Y131676D01*
X102354Y131893D01*
X101971Y131969D01*
D02*
G37*
G36*
X129134Y131187D02*
X128649Y131090D01*
X128506Y130994D01*
X127794D01*
X127650Y131090D01*
X127165Y131187D01*
X126681Y131090D01*
X126537Y130994D01*
X125825D01*
X125681Y131090D01*
X125197Y131187D01*
X124713Y131090D01*
X124568Y130994D01*
X123857D01*
X123713Y131090D01*
X123228Y131187D01*
X122744Y131090D01*
X122334Y130816D01*
X122059Y130405D01*
X121963Y129921D01*
X122059Y129437D01*
X122334Y129026D01*
X122744Y128752D01*
X123228Y128656D01*
X123713Y128752D01*
X123860Y128851D01*
X124565D01*
X124713Y128752D01*
X125197Y128656D01*
X125681Y128752D01*
X125829Y128851D01*
X126534D01*
X126681Y128752D01*
X127165Y128656D01*
X127650Y128752D01*
X127797Y128851D01*
X128502D01*
X128649Y128752D01*
X129134Y128656D01*
X129618Y128752D01*
X130029Y129026D01*
X130303Y129437D01*
X130399Y129921D01*
X130303Y130405D01*
X130029Y130816D01*
X129618Y131090D01*
X129134Y131187D01*
D02*
G37*
G36*
X98822Y131969D02*
X98439Y131893D01*
X98115Y131676D01*
X97898Y131352D01*
X97822Y130969D01*
X97898Y130587D01*
X98115Y130262D01*
X98439Y130045D01*
X98822Y129969D01*
X99204Y130045D01*
X99528Y130262D01*
X99745Y130587D01*
X99821Y130969D01*
X99745Y131352D01*
X99528Y131676D01*
X99204Y131893D01*
X98822Y131969D01*
D02*
G37*
G36*
X82079Y130963D02*
X75966D01*
X75556Y130882D01*
X75209Y130650D01*
X74977Y130302D01*
X74896Y129893D01*
X74977Y129483D01*
X75209Y129136D01*
X75556Y128903D01*
X75966Y128822D01*
X82079D01*
X82489Y128903D01*
X82836Y129136D01*
X83068Y129483D01*
X83149Y129893D01*
X83068Y130302D01*
X82836Y130650D01*
X82489Y130882D01*
X82079Y130963D01*
D02*
G37*
G36*
X105134Y131968D02*
X104751Y131892D01*
X104427Y131675D01*
X104210Y131351D01*
X104134Y130968D01*
X104210Y130586D01*
X104427Y130261D01*
X104751Y130044D01*
X105134Y129968D01*
X105516Y130044D01*
X105841Y130261D01*
X106058Y130586D01*
X106134Y130968D01*
X106058Y131351D01*
X105841Y131675D01*
X105516Y131892D01*
X105134Y131968D01*
D02*
G37*
G36*
X82018Y134936D02*
X75980D01*
X75570Y134854D01*
X75223Y134622D01*
X74991Y134275D01*
X74909Y133865D01*
X74991Y133455D01*
X75223Y133108D01*
X75570Y132876D01*
X75980Y132794D01*
X82018D01*
X82428Y132876D01*
X82775Y133108D01*
X83007Y133455D01*
X83089Y133865D01*
X83007Y134275D01*
X82775Y134622D01*
X82428Y134854D01*
X82018Y134936D01*
D02*
G37*
G36*
X100571Y134277D02*
X100188Y134201D01*
X99864Y133984D01*
X99647Y133660D01*
X99571Y133277D01*
X99647Y132895D01*
X99864Y132570D01*
X100188Y132354D01*
X100571Y132278D01*
X100953Y132354D01*
X101278Y132570D01*
X101494Y132895D01*
X101570Y133277D01*
X101494Y133660D01*
X101278Y133984D01*
X100953Y134201D01*
X100571Y134277D01*
D02*
G37*
G36*
X140868Y131337D02*
X140384Y131241D01*
X140314Y131194D01*
X139172D01*
X139102Y131241D01*
X138618Y131337D01*
X138134Y131241D01*
X137723Y130966D01*
X137449Y130556D01*
X137353Y130071D01*
X137449Y129587D01*
X137723Y129177D01*
X138134Y128902D01*
X138618Y128806D01*
X139102Y128902D01*
X139325Y129051D01*
X140161D01*
X140384Y128902D01*
X140868Y128806D01*
X141352Y128902D01*
X141763Y129177D01*
X142037Y129587D01*
X142133Y130071D01*
X142037Y130556D01*
X141763Y130966D01*
X141352Y131241D01*
X140868Y131337D01*
D02*
G37*
G36*
X103733Y134276D02*
X103351Y134200D01*
X103026Y133983D01*
X102810Y133659D01*
X102734Y133276D01*
X102810Y132894D01*
X103026Y132569D01*
X103351Y132353D01*
X103733Y132277D01*
X104116Y132353D01*
X104440Y132569D01*
X104657Y132894D01*
X104733Y133276D01*
X104657Y133659D01*
X104440Y133983D01*
X104116Y134200D01*
X103733Y134276D01*
D02*
G37*
G36*
X100571Y129641D02*
X100188Y129565D01*
X99864Y129348D01*
X99647Y129024D01*
X99571Y128641D01*
X99647Y128259D01*
X99864Y127935D01*
X100188Y127718D01*
X100571Y127642D01*
X100953Y127718D01*
X101278Y127935D01*
X101494Y128259D01*
X101570Y128641D01*
X101494Y129024D01*
X101278Y129348D01*
X100953Y129565D01*
X100571Y129641D01*
D02*
G37*
G36*
X82032Y127081D02*
X75920D01*
X75510Y126999D01*
X75163Y126767D01*
X74931Y126420D01*
X74849Y126010D01*
X74931Y125601D01*
X75163Y125253D01*
X75510Y125021D01*
X75920Y124940D01*
X82032D01*
X82442Y125021D01*
X82789Y125253D01*
X83021Y125601D01*
X83103Y126010D01*
X83021Y126420D01*
X82789Y126767D01*
X82442Y126999D01*
X82032Y127081D01*
D02*
G37*
G36*
X105134Y127334D02*
X104751Y127258D01*
X104427Y127041D01*
X104210Y126717D01*
X104134Y126334D01*
X104210Y125952D01*
X104427Y125628D01*
X104751Y125411D01*
X105134Y125335D01*
X105516Y125411D01*
X105841Y125628D01*
X106058Y125952D01*
X106134Y126334D01*
X106058Y126717D01*
X105841Y127041D01*
X105516Y127258D01*
X105134Y127334D01*
D02*
G37*
G36*
X100571Y125005D02*
X100188Y124929D01*
X99864Y124713D01*
X99647Y124388D01*
X99571Y124006D01*
X99647Y123623D01*
X99864Y123299D01*
X100188Y123082D01*
X100571Y123006D01*
X100953Y123082D01*
X101278Y123299D01*
X101494Y123623D01*
X101570Y124006D01*
X101494Y124388D01*
X101278Y124713D01*
X100953Y124929D01*
X100571Y125005D01*
D02*
G37*
G36*
X129134Y123313D02*
X128649Y123216D01*
X128448Y123082D01*
X127851D01*
X127650Y123216D01*
X127165Y123313D01*
X126681Y123216D01*
X126270Y122942D01*
X125996Y122531D01*
X125900Y122047D01*
X125996Y121563D01*
X126270Y121152D01*
X126681Y120878D01*
X127165Y120782D01*
X127650Y120878D01*
X127740Y120938D01*
X128560D01*
X128649Y120878D01*
X129134Y120782D01*
X129618Y120878D01*
X130029Y121152D01*
X130303Y121563D01*
X130399Y122047D01*
X130303Y122531D01*
X130029Y122942D01*
X129618Y123216D01*
X129134Y123313D01*
D02*
G37*
G36*
Y127252D02*
X128649Y127155D01*
X128585Y127112D01*
X127712D01*
X127650Y127153D01*
X127165Y127250D01*
X126681Y127153D01*
X126619Y127112D01*
X125743D01*
X125681Y127153D01*
X125197Y127250D01*
X124713Y127153D01*
X124650Y127112D01*
X123775D01*
X123713Y127153D01*
X123228Y127250D01*
X122744Y127153D01*
X122334Y126879D01*
X122059Y126469D01*
X121963Y125984D01*
X122059Y125500D01*
X122334Y125089D01*
X122744Y124815D01*
X123228Y124719D01*
X123713Y124815D01*
X123942Y124968D01*
X124483D01*
X124713Y124815D01*
X125197Y124719D01*
X125681Y124815D01*
X125910Y124968D01*
X126452D01*
X126681Y124815D01*
X127165Y124719D01*
X127650Y124815D01*
X127879Y124968D01*
X128423D01*
X128649Y124817D01*
X129134Y124721D01*
X129618Y124817D01*
X130029Y125091D01*
X130303Y125502D01*
X130399Y125986D01*
X130303Y126470D01*
X130029Y126881D01*
X129618Y127155D01*
X129134Y127252D01*
D02*
G37*
G36*
X103733Y129640D02*
X103351Y129564D01*
X103026Y129347D01*
X102810Y129023D01*
X102734Y128640D01*
X102810Y128258D01*
X103026Y127934D01*
X103351Y127717D01*
X103733Y127641D01*
X104116Y127717D01*
X104440Y127934D01*
X104657Y128258D01*
X104733Y128640D01*
X104657Y129023D01*
X104440Y129347D01*
X104116Y129564D01*
X103733Y129640D01*
D02*
G37*
G36*
X143701Y126802D02*
X143096Y126682D01*
X142868Y126530D01*
X141421D01*
X141352Y126576D01*
X140868Y126672D01*
X140384Y126576D01*
X140314Y126530D01*
X139172D01*
X139102Y126576D01*
X138618Y126672D01*
X138134Y126576D01*
X137723Y126302D01*
X137449Y125891D01*
X137353Y125407D01*
X137449Y124922D01*
X137723Y124512D01*
X138134Y124238D01*
X138618Y124141D01*
X139102Y124238D01*
X139325Y124386D01*
X140161D01*
X140384Y124238D01*
X140868Y124141D01*
X141352Y124238D01*
X141575Y124386D01*
X142393D01*
X142582Y124102D01*
X143096Y123759D01*
X143701Y123639D01*
X144306Y123759D01*
X144819Y124102D01*
X145162Y124615D01*
X145282Y125221D01*
X145162Y125826D01*
X144819Y126339D01*
X144306Y126682D01*
X143701Y126802D01*
D02*
G37*
G36*
X98822Y127335D02*
X98439Y127259D01*
X98115Y127042D01*
X97898Y126718D01*
X97822Y126335D01*
X97898Y125953D01*
X98115Y125628D01*
X98439Y125412D01*
X98822Y125336D01*
X99204Y125412D01*
X99528Y125628D01*
X99745Y125953D01*
X99821Y126335D01*
X99745Y126718D01*
X99528Y127042D01*
X99204Y127259D01*
X98822Y127335D01*
D02*
G37*
G36*
X101971D02*
X101589Y127259D01*
X101264Y127042D01*
X101048Y126718D01*
X100971Y126335D01*
X101048Y125953D01*
X101264Y125628D01*
X101589Y125412D01*
X101971Y125336D01*
X102354Y125412D01*
X102678Y125628D01*
X102895Y125953D01*
X102971Y126335D01*
X102895Y126718D01*
X102678Y127042D01*
X102354Y127259D01*
X101971Y127335D01*
D02*
G37*
G36*
X129134Y135124D02*
X128649Y135027D01*
X128558Y134967D01*
X127741D01*
X127650Y135027D01*
X127165Y135124D01*
X126681Y135027D01*
X126590Y134967D01*
X125772D01*
X125681Y135027D01*
X125197Y135124D01*
X124713Y135027D01*
X124621Y134967D01*
X123804D01*
X123713Y135027D01*
X123228Y135124D01*
X122744Y135027D01*
X122334Y134753D01*
X122059Y134343D01*
X121963Y133858D01*
X122059Y133374D01*
X122334Y132963D01*
X122744Y132689D01*
X123228Y132593D01*
X123713Y132689D01*
X123913Y132823D01*
X124512D01*
X124713Y132689D01*
X125197Y132593D01*
X125681Y132689D01*
X125882Y132823D01*
X126481D01*
X126681Y132689D01*
X127165Y132593D01*
X127650Y132689D01*
X127850Y132823D01*
X128449D01*
X128649Y132689D01*
X129134Y132593D01*
X129618Y132689D01*
X130029Y132963D01*
X130303Y133374D01*
X130399Y133858D01*
X130303Y134343D01*
X130029Y134753D01*
X129618Y135027D01*
X129134Y135124D01*
D02*
G37*
G36*
X143701Y166936D02*
X143096Y166815D01*
X142582Y166473D01*
X142240Y165960D01*
X142119Y165354D01*
X142240Y164749D01*
X142582Y164236D01*
X143096Y163893D01*
X143701Y163773D01*
X144306Y163893D01*
X144819Y164236D01*
X145162Y164749D01*
X145282Y165354D01*
X145162Y165960D01*
X144819Y166473D01*
X144306Y166815D01*
X143701Y166936D01*
D02*
G37*
G36*
X114075Y157093D02*
X113470Y156973D01*
X112956Y156630D01*
X112614Y156117D01*
X112493Y155512D01*
X112614Y154907D01*
X112956Y154393D01*
X113470Y154051D01*
X114075Y153930D01*
X114680Y154051D01*
X115193Y154393D01*
X115536Y154907D01*
X115656Y155512D01*
X115536Y156117D01*
X115193Y156630D01*
X114680Y156973D01*
X114075Y157093D01*
D02*
G37*
G36*
X72925Y157511D02*
X72320Y157390D01*
X71807Y157047D01*
X71464Y156534D01*
X71344Y155929D01*
X71464Y155324D01*
X71807Y154811D01*
X72320Y154468D01*
X72925Y154348D01*
X73530Y154468D01*
X74044Y154811D01*
X74386Y155324D01*
X74507Y155929D01*
X74386Y156534D01*
X74044Y157047D01*
X73530Y157390D01*
X72925Y157511D01*
D02*
G37*
G36*
X77017Y194095D02*
X76164D01*
X75327Y193928D01*
X74539Y193602D01*
X73830Y193128D01*
X73227Y192524D01*
X72753Y191815D01*
X72426Y191027D01*
X72260Y190190D01*
Y189337D01*
X72426Y188500D01*
X72753Y187712D01*
X73227Y187003D01*
X73830Y186400D01*
X74539Y185926D01*
X75327Y185600D01*
X76164Y185433D01*
X77017D01*
X77854Y185600D01*
X78642Y185926D01*
X79351Y186400D01*
X79954Y187003D01*
X80428Y187712D01*
X80755Y188500D01*
X80921Y189337D01*
Y190190D01*
X80755Y191027D01*
X80428Y191815D01*
X79954Y192524D01*
X79351Y193128D01*
X78642Y193602D01*
X77854Y193928D01*
X77017Y194095D01*
D02*
G37*
G36*
X188616D02*
X187762D01*
X186926Y193928D01*
X186138Y193602D01*
X185428Y193128D01*
X184825Y192524D01*
X184351Y191815D01*
X184025Y191027D01*
X183858Y190190D01*
Y189337D01*
X184025Y188500D01*
X184351Y187712D01*
X184825Y187003D01*
X185428Y186400D01*
X186138Y185926D01*
X186926Y185600D01*
X187762Y185433D01*
X188616D01*
X189452Y185600D01*
X190240Y185926D01*
X190950Y186400D01*
X191553Y187003D01*
X192027Y187712D01*
X192353Y188500D01*
X192520Y189337D01*
Y190190D01*
X192353Y191027D01*
X192027Y191815D01*
X191553Y192524D01*
X190950Y193128D01*
X190240Y193602D01*
X189452Y193928D01*
X188616Y194095D01*
D02*
G37*
G36*
X127976Y185548D02*
X127371Y185428D01*
X126857Y185085D01*
X126515Y184572D01*
X126394Y183967D01*
X126515Y183361D01*
X126857Y182848D01*
X127371Y182506D01*
X127976Y182385D01*
X128581Y182506D01*
X129094Y182848D01*
X129437Y183361D01*
X129557Y183967D01*
X129437Y184572D01*
X129094Y185085D01*
X128581Y185428D01*
X127976Y185548D01*
D02*
G37*
G36*
X118133D02*
X117528Y185428D01*
X117015Y185085D01*
X116672Y184572D01*
X116552Y183967D01*
X116672Y183361D01*
X117015Y182848D01*
X117528Y182506D01*
X118133Y182385D01*
X118738Y182506D01*
X119252Y182848D01*
X119595Y183361D01*
X119715Y183967D01*
X119595Y184572D01*
X119252Y185085D01*
X118738Y185428D01*
X118133Y185548D01*
D02*
G37*
G36*
X104232Y157093D02*
X103627Y156973D01*
X103114Y156630D01*
X102771Y156117D01*
X102651Y155512D01*
X102771Y154907D01*
X103114Y154393D01*
X103627Y154051D01*
X104232Y153930D01*
X104838Y154051D01*
X105351Y154393D01*
X105693Y154907D01*
X105814Y155512D01*
X105693Y156117D01*
X105351Y156630D01*
X104838Y156973D01*
X104232Y157093D01*
D02*
G37*
G36*
X94610Y146415D02*
X94126Y146319D01*
X93715Y146045D01*
X93441Y145634D01*
X93345Y145150D01*
X93441Y144665D01*
X93715Y144255D01*
X94126Y143980D01*
X94610Y143884D01*
X95095Y143980D01*
X95505Y144255D01*
X95779Y144665D01*
X95876Y145150D01*
X95779Y145634D01*
X95505Y146045D01*
X95095Y146319D01*
X94610Y146415D01*
D02*
G37*
G36*
X81521Y146462D02*
X81036Y146366D01*
X80626Y146092D01*
X80351Y145681D01*
X80255Y145197D01*
X80351Y144713D01*
X80626Y144302D01*
X81036Y144028D01*
X81521Y143931D01*
X82005Y144028D01*
X82415Y144302D01*
X82690Y144713D01*
X82786Y145197D01*
X82690Y145681D01*
X82415Y146092D01*
X82005Y146366D01*
X81521Y146462D01*
D02*
G37*
G36*
X114784Y146210D02*
X114300Y146114D01*
X113890Y145840D01*
X113615Y145429D01*
X113519Y144945D01*
X113615Y144461D01*
X113890Y144050D01*
X114300Y143776D01*
X114784Y143679D01*
X115269Y143776D01*
X115679Y144050D01*
X115954Y144461D01*
X116050Y144945D01*
X115954Y145429D01*
X115679Y145840D01*
X115269Y146114D01*
X114784Y146210D01*
D02*
G37*
G36*
X143701Y137408D02*
X143096Y137288D01*
X142582Y136945D01*
X142240Y136432D01*
X142126Y135859D01*
X141421D01*
X141352Y135905D01*
X140868Y136002D01*
X140384Y135905D01*
X140314Y135859D01*
X139172D01*
X139102Y135905D01*
X138618Y136002D01*
X138134Y135905D01*
X137723Y135631D01*
X137449Y135221D01*
X137353Y134736D01*
X137449Y134252D01*
X137723Y133841D01*
X138134Y133567D01*
X138618Y133471D01*
X139102Y133567D01*
X139325Y133716D01*
X140161D01*
X140384Y133567D01*
X140868Y133471D01*
X141352Y133567D01*
X141575Y133716D01*
X142661D01*
X142661Y133716D01*
X143072Y133797D01*
X143419Y134030D01*
X143646Y134256D01*
X143701Y134245D01*
X144306Y134366D01*
X144819Y134708D01*
X145162Y135222D01*
X145282Y135827D01*
X145162Y136432D01*
X144819Y136945D01*
X144306Y137288D01*
X143701Y137408D01*
D02*
G37*
G36*
X140868Y140667D02*
X140384Y140570D01*
X140314Y140524D01*
X139172D01*
X139102Y140570D01*
X138618Y140667D01*
X138134Y140570D01*
X137723Y140296D01*
X137449Y139885D01*
X137353Y139401D01*
X137449Y138917D01*
X137723Y138506D01*
X138134Y138232D01*
X138618Y138136D01*
X139102Y138232D01*
X139325Y138381D01*
X140161D01*
X140384Y138232D01*
X140868Y138136D01*
X141352Y138232D01*
X141763Y138506D01*
X142037Y138917D01*
X142133Y139401D01*
X142037Y139885D01*
X141763Y140296D01*
X141352Y140570D01*
X140868Y140667D01*
D02*
G37*
G36*
X153543Y164756D02*
X152278Y164631D01*
X151060Y164262D01*
X149939Y163662D01*
X148956Y162855D01*
X148149Y161872D01*
X147549Y160750D01*
X147180Y159533D01*
X147055Y158268D01*
X147180Y157002D01*
X147549Y155785D01*
X148149Y154663D01*
X148956Y153680D01*
X149939Y152873D01*
X151060Y152274D01*
X152278Y151904D01*
X153543Y151780D01*
X154809Y151904D01*
X156026Y152274D01*
X157148Y152873D01*
X158131Y153680D01*
X158938Y154663D01*
X159537Y155785D01*
X159907Y157002D01*
X160031Y158268D01*
X159907Y159533D01*
X159537Y160750D01*
X158938Y161872D01*
X158131Y162855D01*
X157148Y163662D01*
X156026Y164262D01*
X154809Y164631D01*
X153543Y164756D01*
D02*
G37*
G36*
X94488Y157093D02*
X93883Y156973D01*
X93370Y156630D01*
X93027Y156117D01*
X92907Y155512D01*
X93027Y154907D01*
X93370Y154393D01*
X93883Y154051D01*
X94488Y153930D01*
X95093Y154051D01*
X95606Y154393D01*
X95949Y154907D01*
X96070Y155512D01*
X95949Y156117D01*
X95606Y156630D01*
X95093Y156973D01*
X94488Y157093D01*
D02*
G37*
G36*
X123941Y154314D02*
X123336Y154193D01*
X122823Y153851D01*
X122480Y153338D01*
X122359Y152732D01*
X122480Y152127D01*
X122823Y151614D01*
X123336Y151271D01*
X123941Y151151D01*
X124546Y151271D01*
X125059Y151614D01*
X125402Y152127D01*
X125522Y152732D01*
X125402Y153338D01*
X125059Y153851D01*
X124546Y154193D01*
X123941Y154314D01*
D02*
G37*
G36*
X193000Y119443D02*
X191982Y119309D01*
X191034Y118916D01*
X190220Y118292D01*
X189595Y117477D01*
X189203Y116529D01*
X189069Y115512D01*
X189203Y114494D01*
X189595Y113546D01*
X190220Y112732D01*
X191034Y112107D01*
X191982Y111714D01*
X193000Y111581D01*
X194018Y111714D01*
X194966Y112107D01*
X195780Y112732D01*
X196405Y113546D01*
X196797Y114494D01*
X196931Y115512D01*
X196797Y116529D01*
X196405Y117477D01*
X195780Y118292D01*
X194966Y118916D01*
X194018Y119309D01*
X193000Y119443D01*
D02*
G37*
G36*
X140868Y112678D02*
X140384Y112581D01*
X140352Y112560D01*
X139134D01*
X139102Y112581D01*
X138618Y112678D01*
X138134Y112581D01*
X137723Y112307D01*
X137449Y111897D01*
X137353Y111412D01*
X137449Y110928D01*
X137723Y110517D01*
X138134Y110243D01*
X138618Y110147D01*
X139102Y110243D01*
X139362Y110417D01*
X140124D01*
X140384Y110243D01*
X140868Y110147D01*
X141352Y110243D01*
X141763Y110517D01*
X142037Y110928D01*
X142133Y111412D01*
X142037Y111897D01*
X141763Y112307D01*
X141352Y112581D01*
X140868Y112678D01*
D02*
G37*
G36*
X183000Y119443D02*
X181983Y119309D01*
X181034Y118916D01*
X180220Y118292D01*
X179595Y117477D01*
X179203Y116529D01*
X179069Y115512D01*
X179203Y114494D01*
X179595Y113546D01*
X180220Y112732D01*
X181034Y112107D01*
X181983Y111714D01*
X183000Y111581D01*
X184018Y111714D01*
X184966Y112107D01*
X185780Y112732D01*
X186405Y113546D01*
X186797Y114494D01*
X186931Y115512D01*
X186797Y116529D01*
X186405Y117477D01*
X185780Y118292D01*
X184966Y118916D01*
X184018Y119309D01*
X183000Y119443D01*
D02*
G37*
G36*
X97050Y112518D02*
X96667Y112442D01*
X96343Y112225D01*
X96126Y111901D01*
X96050Y111518D01*
X96126Y111136D01*
X96343Y110811D01*
X96667Y110595D01*
X97050Y110519D01*
X97433Y110595D01*
X97757Y110811D01*
X97974Y111136D01*
X98050Y111518D01*
X97974Y111901D01*
X97757Y112225D01*
X97433Y112442D01*
X97050Y112518D01*
D02*
G37*
G36*
X120784Y112812D02*
X120402Y112736D01*
X120077Y112519D01*
X119861Y112195D01*
X119785Y111812D01*
X119861Y111430D01*
X120077Y111105D01*
X120402Y110889D01*
X120784Y110813D01*
X121167Y110889D01*
X121491Y111105D01*
X121708Y111430D01*
X121784Y111812D01*
X121708Y112195D01*
X121491Y112519D01*
X121167Y112736D01*
X120784Y112812D01*
D02*
G37*
G36*
X90666Y115252D02*
X90284Y115176D01*
X89959Y114959D01*
X89743Y114635D01*
X89666Y114252D01*
X89743Y113870D01*
X89959Y113546D01*
X90284Y113329D01*
X90666Y113253D01*
X91049Y113329D01*
X91373Y113546D01*
X91590Y113870D01*
X91666Y114252D01*
X91590Y114635D01*
X91373Y114959D01*
X91049Y115176D01*
X90666Y115252D01*
D02*
G37*
G36*
X94603D02*
X94221Y115176D01*
X93896Y114959D01*
X93680Y114635D01*
X93603Y114252D01*
X93680Y113870D01*
X93896Y113546D01*
X94221Y113329D01*
X94603Y113253D01*
X94986Y113329D01*
X95310Y113546D01*
X95527Y113870D01*
X95603Y114252D01*
X95527Y114635D01*
X95310Y114959D01*
X94986Y115176D01*
X94603Y115252D01*
D02*
G37*
G36*
X127651Y115518D02*
X127167Y115422D01*
X126757Y115147D01*
X126482Y114737D01*
X126386Y114252D01*
X126482Y113768D01*
X126757Y113358D01*
X127167Y113083D01*
X127651Y112987D01*
X128136Y113083D01*
X128546Y113358D01*
X128821Y113768D01*
X128917Y114252D01*
X128821Y114737D01*
X128546Y115147D01*
X128136Y115422D01*
X127651Y115518D01*
D02*
G37*
G36*
X123737D02*
X123253Y115422D01*
X122842Y115147D01*
X122568Y114737D01*
X122472Y114252D01*
X122568Y113768D01*
X122842Y113358D01*
X123253Y113083D01*
X123737Y112987D01*
X124221Y113083D01*
X124632Y113358D01*
X124906Y113768D01*
X125003Y114252D01*
X124906Y114737D01*
X124632Y115147D01*
X124221Y115422D01*
X123737Y115518D01*
D02*
G37*
G36*
X111815Y111527D02*
X111432Y111451D01*
X111108Y111234D01*
X110891Y110910D01*
X110815Y110528D01*
X110891Y110145D01*
X111108Y109821D01*
X111432Y109604D01*
X111815Y109528D01*
X112198Y109604D01*
X112522Y109821D01*
X112739Y110145D01*
X112815Y110528D01*
X112739Y110910D01*
X112522Y111234D01*
X112198Y111451D01*
X111815Y111527D01*
D02*
G37*
G36*
X94464Y107187D02*
X94082Y107111D01*
X93757Y106894D01*
X93541Y106570D01*
X93464Y106187D01*
X93541Y105805D01*
X93757Y105480D01*
X94082Y105264D01*
X94464Y105188D01*
X94847Y105264D01*
X95171Y105480D01*
X95388Y105805D01*
X95464Y106187D01*
X95388Y106570D01*
X95171Y106894D01*
X94847Y107111D01*
X94464Y107187D01*
D02*
G37*
G36*
X128796Y107819D02*
X128312Y107723D01*
X127901Y107449D01*
X127627Y107038D01*
X127531Y106554D01*
X127627Y106070D01*
X127901Y105659D01*
X128312Y105385D01*
X128796Y105288D01*
X129280Y105385D01*
X129691Y105659D01*
X129965Y106070D01*
X130062Y106554D01*
X129965Y107038D01*
X129691Y107449D01*
X129280Y107723D01*
X128796Y107819D01*
D02*
G37*
G36*
X77100Y107187D02*
X76718Y107111D01*
X76393Y106894D01*
X76177Y106570D01*
X76100Y106187D01*
X76177Y105805D01*
X76393Y105480D01*
X76718Y105264D01*
X77100Y105188D01*
X77483Y105264D01*
X77807Y105480D01*
X78024Y105805D01*
X78100Y106187D01*
X78024Y106570D01*
X77807Y106894D01*
X77483Y107111D01*
X77100Y107187D01*
D02*
G37*
G36*
X173228Y108274D02*
X172623Y108154D01*
X172110Y107811D01*
X171767Y107298D01*
X171647Y106693D01*
X171767Y106088D01*
X172110Y105575D01*
X172623Y105232D01*
X173228Y105111D01*
X173834Y105232D01*
X174347Y105575D01*
X174689Y106088D01*
X174810Y106693D01*
X174689Y107298D01*
X174347Y107811D01*
X173834Y108154D01*
X173228Y108274D01*
D02*
G37*
G36*
X124524Y107693D02*
X124040Y107597D01*
X123630Y107323D01*
X123355Y106912D01*
X123259Y106428D01*
X123355Y105944D01*
X123630Y105533D01*
X124040Y105259D01*
X124524Y105162D01*
X125009Y105259D01*
X125419Y105533D01*
X125694Y105944D01*
X125790Y106428D01*
X125694Y106912D01*
X125419Y107323D01*
X125009Y107597D01*
X124524Y107693D01*
D02*
G37*
G36*
X140868Y108013D02*
X140384Y107917D01*
X140314Y107870D01*
X139172D01*
X139102Y107917D01*
X138618Y108013D01*
X138134Y107917D01*
X137723Y107642D01*
X137449Y107232D01*
X137353Y106747D01*
X137449Y106263D01*
X137723Y105853D01*
X138134Y105578D01*
X138618Y105482D01*
X139102Y105578D01*
X139325Y105727D01*
X140161D01*
X140384Y105578D01*
X140868Y105482D01*
X141352Y105578D01*
X141763Y105853D01*
X142037Y106263D01*
X142133Y106747D01*
X142037Y107232D01*
X141763Y107642D01*
X141352Y107917D01*
X140868Y108013D01*
D02*
G37*
G36*
X74839Y111055D02*
X74456Y110979D01*
X74132Y110762D01*
X73915Y110438D01*
X73839Y110055D01*
X73915Y109672D01*
X74132Y109348D01*
X74324Y109220D01*
X74359Y108756D01*
X74333Y108658D01*
X74206Y108573D01*
X73990Y108249D01*
X73914Y107866D01*
X73990Y107483D01*
X74206Y107159D01*
X74531Y106942D01*
X74913Y106866D01*
X75296Y106942D01*
X75620Y107159D01*
X75837Y107483D01*
X75913Y107866D01*
X75837Y108249D01*
X75620Y108573D01*
X75428Y108702D01*
X75393Y109165D01*
X75419Y109263D01*
X75546Y109348D01*
X75762Y109672D01*
X75838Y110055D01*
X75762Y110438D01*
X75546Y110762D01*
X75221Y110979D01*
X74839Y111055D01*
D02*
G37*
G36*
X111926Y107428D02*
X111544Y107351D01*
X111219Y107135D01*
X111002Y106810D01*
X110926Y106428D01*
X111002Y106045D01*
X111219Y105721D01*
X111544Y105504D01*
X111926Y105428D01*
X112309Y105504D01*
X112633Y105721D01*
X112850Y106045D01*
X112926Y106428D01*
X112850Y106810D01*
X112633Y107135D01*
X112309Y107351D01*
X111926Y107428D01*
D02*
G37*
G36*
X115156Y109661D02*
X114773Y109585D01*
X114449Y109368D01*
X114232Y109044D01*
X114156Y108661D01*
X114232Y108279D01*
X114449Y107955D01*
X114675Y107803D01*
X114764Y107313D01*
X114762Y107261D01*
X114546Y106936D01*
X114470Y106554D01*
X114546Y106171D01*
X114762Y105847D01*
X115087Y105630D01*
X115469Y105554D01*
X115852Y105630D01*
X116176Y105847D01*
X116393Y106171D01*
X116469Y106554D01*
X116393Y106936D01*
X116176Y107261D01*
X115950Y107412D01*
X115861Y107903D01*
X115863Y107955D01*
X116079Y108279D01*
X116156Y108661D01*
X116079Y109044D01*
X115863Y109368D01*
X115538Y109585D01*
X115156Y109661D01*
D02*
G37*
G36*
X111844Y115371D02*
X111462Y115295D01*
X111137Y115078D01*
X110921Y114754D01*
X110845Y114371D01*
X110921Y113989D01*
X111137Y113664D01*
X111462Y113448D01*
X111844Y113372D01*
X112227Y113448D01*
X112551Y113664D01*
X112768Y113989D01*
X112844Y114371D01*
X112768Y114754D01*
X112551Y115078D01*
X112227Y115295D01*
X111844Y115371D01*
D02*
G37*
G36*
X99918Y120913D02*
X99536Y120837D01*
X99211Y120620D01*
X98995Y120296D01*
X98918Y119913D01*
X98995Y119531D01*
X99211Y119207D01*
X99536Y118990D01*
X99918Y118914D01*
X100301Y118990D01*
X100625Y119207D01*
X100842Y119531D01*
X100918Y119913D01*
X100842Y120296D01*
X100625Y120620D01*
X100301Y120837D01*
X99918Y120913D01*
D02*
G37*
G36*
X140868Y117342D02*
X140384Y117246D01*
X140358Y117229D01*
X139128D01*
X139102Y117246D01*
X138618Y117342D01*
X138134Y117246D01*
X137723Y116972D01*
X137449Y116561D01*
X137353Y116077D01*
X137449Y115593D01*
X137723Y115182D01*
X138134Y114908D01*
X138618Y114812D01*
X139102Y114908D01*
X139368Y115085D01*
X140118D01*
X140384Y114908D01*
X140868Y114812D01*
X141352Y114908D01*
X141763Y115182D01*
X142037Y115593D01*
X142133Y116077D01*
X142037Y116561D01*
X141763Y116972D01*
X141352Y117246D01*
X140868Y117342D01*
D02*
G37*
G36*
X108700Y119200D02*
X108317Y119124D01*
X107993Y118907D01*
X107776Y118583D01*
X107700Y118200D01*
X107776Y117817D01*
X107993Y117493D01*
X108317Y117276D01*
X108700Y117200D01*
X109083Y117276D01*
X109407Y117493D01*
X109624Y117817D01*
X109700Y118200D01*
X109624Y118583D01*
X109407Y118907D01*
X109083Y119124D01*
X108700Y119200D01*
D02*
G37*
G36*
X140868Y122007D02*
X140384Y121911D01*
X140314Y121865D01*
X139172D01*
X139102Y121911D01*
X138618Y122007D01*
X138134Y121911D01*
X137723Y121637D01*
X137449Y121226D01*
X137353Y120742D01*
X137449Y120257D01*
X137723Y119847D01*
X138134Y119573D01*
X138618Y119476D01*
X139102Y119573D01*
X139325Y119721D01*
X140161D01*
X140384Y119573D01*
X140868Y119476D01*
X141352Y119573D01*
X141763Y119847D01*
X142037Y120257D01*
X142133Y120742D01*
X142037Y121226D01*
X141763Y121637D01*
X141352Y121911D01*
X140868Y122007D01*
D02*
G37*
G36*
X103733Y125004D02*
X103351Y124928D01*
X103026Y124712D01*
X102810Y124387D01*
X102734Y124005D01*
X102810Y123622D01*
X103026Y123298D01*
X103351Y123081D01*
X103733Y123005D01*
X104116Y123081D01*
X104440Y123298D01*
X104657Y123622D01*
X104733Y124005D01*
X104657Y124387D01*
X104440Y124712D01*
X104116Y124928D01*
X103733Y125004D01*
D02*
G37*
G36*
X115215Y134853D02*
X109265D01*
X108855Y134772D01*
X108508Y134540D01*
X108276Y134193D01*
X108195Y133783D01*
X108276Y133373D01*
X108508Y133026D01*
X108855Y132794D01*
X109021Y132761D01*
X109263Y132272D01*
X109262Y132222D01*
X109261Y132214D01*
X109181Y131812D01*
X109260Y131413D01*
X109262Y131400D01*
X109263Y131364D01*
X109019Y130867D01*
X108857Y130835D01*
X108510Y130603D01*
X108278Y130255D01*
X108196Y129846D01*
X108278Y129436D01*
X108510Y129089D01*
X108857Y128857D01*
X108971Y128834D01*
X109229Y128331D01*
X109226Y128292D01*
X109151Y127915D01*
X109232Y127506D01*
X109274Y127444D01*
X109275Y127412D01*
X109034Y126902D01*
X108890Y126873D01*
X108543Y126641D01*
X108311Y126294D01*
X108229Y125884D01*
X108311Y125475D01*
X108543Y125127D01*
X108890Y124895D01*
X108981Y124877D01*
X109257Y124407D01*
X109250Y124335D01*
X109181Y123988D01*
X109262Y123579D01*
X109494Y123231D01*
X109842Y122999D01*
X110251Y122918D01*
X111821D01*
X112022Y122650D01*
X112124Y122418D01*
X112057Y122084D01*
X112139Y121674D01*
X112371Y121327D01*
X112718Y121095D01*
X113128Y121013D01*
X113196D01*
X113247Y121003D01*
X113297Y121013D01*
X115165D01*
X115215Y121003D01*
X115598Y121079D01*
X115609Y121087D01*
X115649Y121095D01*
X115997Y121327D01*
X116229Y121674D01*
X116310Y122084D01*
X116229Y122494D01*
X115997Y122841D01*
X115649Y123073D01*
X115404Y123579D01*
X115486Y123988D01*
X115404Y124398D01*
X115660Y124895D01*
X116007Y125127D01*
X116239Y125475D01*
X116321Y125884D01*
X116239Y126294D01*
X116007Y126641D01*
X115660Y126873D01*
X115566Y126892D01*
X115332Y127442D01*
X115375Y127506D01*
X115456Y127915D01*
X115375Y128325D01*
X115621Y128856D01*
X115627Y128857D01*
X115974Y129089D01*
X116206Y129436D01*
X116288Y129846D01*
X116206Y130255D01*
X115974Y130603D01*
X115627Y130835D01*
X115627Y130835D01*
X115396Y131391D01*
X115404Y131403D01*
X115486Y131812D01*
X115404Y132222D01*
X115394Y132238D01*
X115624Y132794D01*
X115625Y132794D01*
X115972Y133026D01*
X116204Y133373D01*
X116286Y133783D01*
X116204Y134193D01*
X115972Y134540D01*
X115625Y134772D01*
X115215Y134853D01*
D02*
G37*
G36*
X82032Y123051D02*
X79833D01*
X79423Y122969D01*
X79076Y122737D01*
X78843Y122390D01*
X78762Y121980D01*
X78843Y121571D01*
X79076Y121223D01*
X79423Y120991D01*
X79833Y120910D01*
X82032D01*
X82442Y120991D01*
X82789Y121223D01*
X83021Y121571D01*
X83103Y121980D01*
X83021Y122390D01*
X82789Y122737D01*
X82442Y122969D01*
X82032Y123051D01*
D02*
G37*
G36*
X95530Y134845D02*
X89580D01*
X89170Y134764D01*
X88823Y134532D01*
X88591Y134185D01*
X88510Y133775D01*
X88591Y133365D01*
X88823Y133018D01*
X89170Y132786D01*
X89323Y132755D01*
X89569Y132246D01*
X89568Y132232D01*
X89566Y132210D01*
X89487Y131812D01*
X89568Y131403D01*
X89570Y131350D01*
X89330Y130859D01*
X89172Y130827D01*
X88825Y130595D01*
X88593Y130248D01*
X88512Y129838D01*
X88593Y129428D01*
X88825Y129081D01*
X89172Y128849D01*
X89274Y128829D01*
X89536Y128330D01*
X89531Y128288D01*
X89457Y127915D01*
X89538Y127506D01*
X89566Y127464D01*
X89568Y127411D01*
X89329Y126920D01*
X89170Y126888D01*
X88823Y126656D01*
X88591Y126309D01*
X88510Y125899D01*
X88591Y125489D01*
X88823Y125142D01*
X89170Y124910D01*
X89293Y124886D01*
X89560Y124413D01*
X89556Y124338D01*
X89487Y123988D01*
X89568Y123579D01*
X89800Y123231D01*
X90148Y122999D01*
X90557Y122918D01*
X92141D01*
X92377Y122592D01*
X92440Y122418D01*
X92373Y122076D01*
X92454Y121666D01*
X92686Y121319D01*
X93033Y121087D01*
X93443Y121005D01*
X93511D01*
X93562Y120995D01*
X93612Y121005D01*
X95480D01*
X95530Y120995D01*
X95913Y121071D01*
X95924Y121079D01*
X95964Y121087D01*
X96312Y121319D01*
X96544Y121666D01*
X96625Y122076D01*
X96544Y122486D01*
X96312Y122833D01*
X95964Y123065D01*
X95710Y123579D01*
X95792Y123988D01*
X95710Y124398D01*
X95940Y124910D01*
X96287Y125142D01*
X96519Y125489D01*
X96601Y125899D01*
X96519Y126309D01*
X96287Y126656D01*
X95940Y126888D01*
X95878Y126900D01*
X95648Y127456D01*
X95681Y127506D01*
X95762Y127915D01*
X95681Y128325D01*
X95933Y128847D01*
X95942Y128849D01*
X96289Y129081D01*
X96521Y129428D01*
X96603Y129838D01*
X96521Y130248D01*
X96289Y130595D01*
X95942Y130827D01*
X95929Y130830D01*
X95699Y131385D01*
X95710Y131403D01*
X95792Y131812D01*
X95710Y132222D01*
X95705Y132229D01*
X95936Y132785D01*
X95940Y132786D01*
X96287Y133018D01*
X96519Y133365D01*
X96601Y133775D01*
X96519Y134185D01*
X96287Y134532D01*
X95940Y134764D01*
X95530Y134845D01*
D02*
G37*
G36*
X103855Y117859D02*
X103473Y117783D01*
X103148Y117567D01*
X102932Y117242D01*
X102856Y116860D01*
X102932Y116477D01*
X103148Y116153D01*
X103473Y115936D01*
X103855Y115860D01*
X104238Y115936D01*
X104562Y116153D01*
X104779Y116477D01*
X104855Y116860D01*
X104779Y117242D01*
X104562Y117567D01*
X104238Y117783D01*
X103855Y117859D01*
D02*
G37*
G36*
X98900Y115800D02*
X98517Y115724D01*
X98193Y115507D01*
X97976Y115183D01*
X97900Y114800D01*
X97976Y114417D01*
X98193Y114093D01*
X98517Y113876D01*
X98900Y113800D01*
X99283Y113876D01*
X99607Y114093D01*
X99824Y114417D01*
X99900Y114800D01*
X99824Y115183D01*
X99607Y115507D01*
X99283Y115724D01*
X98900Y115800D01*
D02*
G37*
G36*
X153543Y117723D02*
X152938Y117603D01*
X152425Y117260D01*
X152082Y116747D01*
X151962Y116142D01*
X152082Y115536D01*
X152425Y115023D01*
X152938Y114681D01*
X153543Y114560D01*
X154149Y114681D01*
X154662Y115023D01*
X155005Y115536D01*
X155125Y116142D01*
X155005Y116747D01*
X154662Y117260D01*
X154149Y117603D01*
X153543Y117723D01*
D02*
G37*
G36*
X115017Y115497D02*
X114634Y115421D01*
X114310Y115204D01*
X114093Y114880D01*
X114017Y114497D01*
X114093Y114115D01*
X114310Y113790D01*
X114634Y113574D01*
X115017Y113498D01*
X115399Y113574D01*
X115724Y113790D01*
X115940Y114115D01*
X116016Y114497D01*
X115940Y114880D01*
X115724Y115204D01*
X115399Y115421D01*
X115017Y115497D01*
D02*
G37*
G36*
X77674D02*
X77292Y115421D01*
X76967Y115204D01*
X76750Y114880D01*
X76674Y114497D01*
X76750Y114115D01*
X76967Y113790D01*
X77292Y113574D01*
X77674Y113498D01*
X78057Y113574D01*
X78381Y113790D01*
X78598Y114115D01*
X78674Y114497D01*
X78598Y114880D01*
X78381Y115204D01*
X78057Y115421D01*
X77674Y115497D01*
D02*
G37*
G36*
X81559D02*
X81176Y115421D01*
X80852Y115204D01*
X80635Y114880D01*
X80559Y114497D01*
X80635Y114115D01*
X80852Y113790D01*
X81176Y113574D01*
X81559Y113498D01*
X81942Y113574D01*
X82266Y113790D01*
X82483Y114115D01*
X82559Y114497D01*
X82483Y114880D01*
X82266Y115204D01*
X81942Y115421D01*
X81559Y115497D01*
D02*
G37*
G36*
X86004Y117500D02*
X85621Y117424D01*
X85297Y117207D01*
X85080Y116883D01*
X85004Y116500D01*
X85080Y116117D01*
X85297Y115793D01*
X85621Y115576D01*
X86004Y115500D01*
X86387Y115576D01*
X86711Y115793D01*
X86928Y116117D01*
X87004Y116500D01*
X86928Y116883D01*
X86711Y117207D01*
X86387Y117424D01*
X86004Y117500D01*
D02*
G37*
G36*
X173228Y118117D02*
X172623Y117997D01*
X172110Y117654D01*
X171767Y117141D01*
X171647Y116535D01*
X171767Y115930D01*
X172110Y115417D01*
X172623Y115074D01*
X173228Y114954D01*
X173834Y115074D01*
X174347Y115417D01*
X174689Y115930D01*
X174810Y116535D01*
X174689Y117141D01*
X174347Y117654D01*
X173834Y117997D01*
X173228Y118117D01*
D02*
G37*
G36*
X163386Y117723D02*
X162781Y117603D01*
X162267Y117260D01*
X161925Y116747D01*
X161804Y116142D01*
X161925Y115536D01*
X162267Y115023D01*
X162781Y114681D01*
X163386Y114560D01*
X163991Y114681D01*
X164504Y115023D01*
X164847Y115536D01*
X164967Y116142D01*
X164847Y116747D01*
X164504Y117260D01*
X163991Y117603D01*
X163386Y117723D01*
D02*
G37*
G36*
X14809Y98068D02*
X14146Y97936D01*
X13584Y97561D01*
X13208Y96998D01*
X13076Y96335D01*
X13208Y95672D01*
X13584Y95109D01*
X14146Y94734D01*
X14809Y94602D01*
X15473Y94734D01*
X16035Y95109D01*
X16410Y95672D01*
X16542Y96335D01*
X16410Y96998D01*
X16035Y97561D01*
X15473Y97936D01*
X14809Y98068D01*
D02*
G37*
G36*
X21358Y97063D02*
X20976Y96987D01*
X20651Y96770D01*
X20435Y96446D01*
X20358Y96063D01*
X20435Y95680D01*
X20651Y95356D01*
X20976Y95139D01*
X21358Y95063D01*
X21741Y95139D01*
X22065Y95356D01*
X22282Y95680D01*
X22358Y96063D01*
X22282Y96446D01*
X22065Y96770D01*
X21741Y96987D01*
X21358Y97063D01*
D02*
G37*
G36*
X14567Y104371D02*
X14025Y104263D01*
X13565Y103956D01*
X13258Y103496D01*
X13150Y102954D01*
X13258Y102412D01*
X13565Y101952D01*
X14025Y101645D01*
X14567Y101537D01*
X15109Y101645D01*
X15569Y101952D01*
X15876Y102412D01*
X15984Y102954D01*
X15876Y103496D01*
X15569Y103956D01*
X15109Y104263D01*
X14567Y104371D01*
D02*
G37*
G36*
X10059Y98662D02*
X9516Y98554D01*
X9057Y98247D01*
X8749Y97787D01*
X8642Y97244D01*
X8749Y96702D01*
X9057Y96242D01*
X9516Y95935D01*
X10059Y95827D01*
X10601Y95935D01*
X11061Y96242D01*
X11368Y96702D01*
X11476Y97244D01*
X11368Y97787D01*
X11061Y98247D01*
X10601Y98554D01*
X10059Y98662D01*
D02*
G37*
G36*
X10236Y103779D02*
X9694Y103672D01*
X9234Y103364D01*
X8927Y102904D01*
X8819Y102362D01*
X8927Y101820D01*
X9234Y101360D01*
X9694Y101053D01*
X10236Y100945D01*
X10779Y101053D01*
X11238Y101360D01*
X11546Y101820D01*
X11653Y102362D01*
X11546Y102904D01*
X11238Y103364D01*
X10779Y103672D01*
X10236Y103779D01*
D02*
G37*
G36*
X24409Y100104D02*
X23918Y100006D01*
X23501Y99727D01*
X23223Y99310D01*
X23125Y98819D01*
X23223Y98327D01*
X23501Y97910D01*
X23918Y97632D01*
X24409Y97534D01*
X24901Y97632D01*
X25318Y97910D01*
X25596Y98327D01*
X25694Y98819D01*
X25596Y99310D01*
X25318Y99727D01*
X24901Y100006D01*
X24409Y100104D01*
D02*
G37*
G36*
X16019Y53229D02*
X15356Y53097D01*
X14793Y52722D01*
X14417Y52159D01*
X14286Y51496D01*
X14417Y50833D01*
X14793Y50270D01*
X15356Y49895D01*
X16019Y49763D01*
X16682Y49895D01*
X17244Y50270D01*
X17620Y50833D01*
X17752Y51496D01*
X17620Y52159D01*
X17244Y52722D01*
X16682Y53097D01*
X16019Y53229D01*
D02*
G37*
G36*
X26381Y68803D02*
X24281D01*
X23598Y68667D01*
X23019Y68280D01*
X22632Y67701D01*
X22496Y67019D01*
Y64919D01*
X22632Y64236D01*
X23019Y63657D01*
X23230Y63516D01*
X23303Y63130D01*
X23273Y62886D01*
X22885Y62381D01*
X22603Y61699D01*
X22506Y60969D01*
X22603Y60237D01*
X22656Y60110D01*
X22885Y59556D01*
X23334Y58972D01*
D01*
Y58972D01*
X23579Y58784D01*
Y58153D01*
X23334Y57965D01*
Y57965D01*
D01*
X22885Y57381D01*
X22603Y56700D01*
X22506Y55968D01*
X22603Y55238D01*
X22885Y54556D01*
X23334Y53971D01*
X23919Y53523D01*
X24600Y53241D01*
X25331Y53144D01*
X26062Y53241D01*
X26743Y53523D01*
X27328Y53971D01*
X27516Y54216D01*
X28146D01*
X28334Y53971D01*
X28334D01*
X28919Y53523D01*
X29600Y53241D01*
X30331Y53144D01*
X31062Y53241D01*
X31743Y53523D01*
X32328Y53971D01*
X32776Y54556D01*
X33059Y55238D01*
X33155Y55968D01*
X33059Y56700D01*
X32776Y57381D01*
D01*
X32328Y57965D01*
D01*
Y57965D01*
X32083Y58153D01*
Y58784D01*
X32328Y58972D01*
Y58972D01*
D01*
X32776Y59556D01*
X33006Y60110D01*
X33059Y60237D01*
X33155Y60969D01*
X33059Y61699D01*
X32776Y62381D01*
X32328Y62966D01*
X32083Y63153D01*
Y63784D01*
X32328Y63972D01*
X32776Y64556D01*
X33059Y65237D01*
X33155Y65969D01*
X33059Y66699D01*
X32776Y67381D01*
X32328Y67966D01*
X31743Y68414D01*
X31062Y68696D01*
X30331Y68793D01*
X29600Y68696D01*
X28919Y68414D01*
X28413Y68027D01*
X28169Y67997D01*
X27783Y68069D01*
X27642Y68280D01*
X27064Y68667D01*
X26381Y68803D01*
D02*
G37*
G36*
X40724Y47677D02*
X40181Y47569D01*
X39722Y47262D01*
X39414Y46802D01*
X39307Y46260D01*
X39414Y45717D01*
X39722Y45258D01*
X40181Y44951D01*
X40724Y44843D01*
X41266Y44951D01*
X41726Y45258D01*
X42033Y45717D01*
X42141Y46260D01*
X42033Y46802D01*
X41726Y47262D01*
X41266Y47569D01*
X40724Y47677D01*
D02*
G37*
G36*
X12598Y44253D02*
X11935Y44121D01*
X11373Y43745D01*
X10997Y43183D01*
X10865Y42520D01*
X10997Y41856D01*
X11373Y41294D01*
X11734Y41053D01*
D01*
X11935Y40918D01*
X12598Y40786D01*
X13262Y40918D01*
X13824Y41294D01*
X14200Y41856D01*
X14332Y42520D01*
X14200Y43183D01*
X13824Y43745D01*
X13262Y44121D01*
X12598Y44253D01*
D02*
G37*
G36*
X24803Y45118D02*
X24261Y45010D01*
X23801Y44703D01*
X23494Y44243D01*
X23386Y43701D01*
X23494Y43158D01*
X23801Y42699D01*
X24261Y42391D01*
X24803Y42284D01*
X25346Y42391D01*
X25805Y42699D01*
X26112Y43158D01*
X26220Y43701D01*
X26112Y44243D01*
X25805Y44703D01*
X25346Y45010D01*
X24803Y45118D01*
D02*
G37*
G36*
X9173Y41593D02*
X5827D01*
X4901Y41409D01*
X4116Y40884D01*
X3591Y40099D01*
X3407Y39173D01*
Y35827D01*
X3591Y34901D01*
X4116Y34116D01*
X4901Y33591D01*
X5827Y33407D01*
X9173D01*
X10099Y33591D01*
X10884Y34116D01*
X11409Y34901D01*
X11593Y35827D01*
Y39173D01*
X11409Y40099D01*
X10884Y40884D01*
X10523Y41125D01*
X10099Y41409D01*
X9173Y41593D01*
D02*
G37*
G36*
X26969Y13938D02*
X26305Y13806D01*
X25743Y13430D01*
X25367Y12868D01*
X25235Y12205D01*
X25367Y11541D01*
X25743Y10979D01*
X26305Y10603D01*
X26969Y10471D01*
X27632Y10603D01*
X28194Y10979D01*
X28570Y11541D01*
X28702Y12205D01*
X28570Y12868D01*
X28194Y13430D01*
X27632Y13806D01*
X26969Y13938D01*
D02*
G37*
G36*
X37540Y27080D02*
X35440D01*
X34757Y26944D01*
X34178Y26557D01*
X33791Y25978D01*
X33656Y25295D01*
Y23195D01*
X33791Y22513D01*
X34178Y21934D01*
X34389Y21793D01*
X34462Y21407D01*
X34432Y21163D01*
X34249Y20924D01*
D01*
X34044Y20658D01*
X33762Y19976D01*
X33666Y19245D01*
X33762Y18515D01*
X34044Y17833D01*
X34493Y17248D01*
D01*
Y17248D01*
X34738Y17061D01*
Y16430D01*
X34493Y16242D01*
Y16242D01*
D01*
X34044Y15657D01*
X33762Y14976D01*
X33666Y14245D01*
X33762Y13514D01*
X34044Y12833D01*
X34493Y12248D01*
X35078Y11800D01*
X35759Y11518D01*
X36490Y11421D01*
X37221Y11518D01*
X37902Y11800D01*
X38487Y12248D01*
X38675Y12493D01*
X39305D01*
X39493Y12248D01*
X39493D01*
X40078Y11800D01*
X40759Y11518D01*
X41490Y11421D01*
X42221Y11518D01*
X42902Y11800D01*
X43487Y12248D01*
X43936Y12833D01*
X44218Y13514D01*
X44314Y14245D01*
X44218Y14976D01*
X43936Y15657D01*
X43863Y15753D01*
X43487Y16242D01*
D01*
Y16242D01*
X43242Y16430D01*
Y17061D01*
X43487Y17248D01*
Y17248D01*
D01*
X43936Y17833D01*
X44218Y18515D01*
X44314Y19245D01*
X44218Y19976D01*
X43936Y20658D01*
X43487Y21242D01*
D01*
Y21242D01*
X43242Y21430D01*
Y22061D01*
X43487Y22248D01*
Y22248D01*
D01*
X43936Y22833D01*
X44218Y23515D01*
X44314Y24245D01*
X44218Y24976D01*
X43936Y25657D01*
X43487Y26242D01*
X42902Y26691D01*
X42221Y26973D01*
X41490Y27070D01*
X40759Y26973D01*
X40078Y26691D01*
X39572Y26303D01*
X39328Y26274D01*
X38942Y26346D01*
X38802Y26557D01*
X38223Y26944D01*
X37540Y27080D01*
D02*
G37*
G36*
X15837Y13938D02*
X15173Y13806D01*
X14611Y13430D01*
X14235Y12868D01*
X14104Y12205D01*
X14235Y11541D01*
X14611Y10979D01*
X15173Y10603D01*
X15837Y10471D01*
X16500Y10603D01*
X17062Y10979D01*
X17438Y11541D01*
X17570Y12205D01*
X17438Y12868D01*
X17062Y13430D01*
X16500Y13806D01*
X15837Y13938D01*
D02*
G37*
G36*
X23106Y11178D02*
X22563Y11070D01*
X22103Y10763D01*
X21796Y10303D01*
X21688Y9760D01*
X21796Y9218D01*
X22103Y8758D01*
X22563Y8451D01*
X23106Y8343D01*
X23648Y8451D01*
X24108Y8758D01*
X24415Y9218D01*
X24523Y9760D01*
X24415Y10303D01*
X24108Y10763D01*
X23648Y11070D01*
X23106Y11178D01*
D02*
G37*
G36*
X188616Y17323D02*
X187762D01*
X186926Y17156D01*
X186138Y16830D01*
X185428Y16356D01*
X184825Y15753D01*
X184351Y15044D01*
X184025Y14255D01*
X183858Y13419D01*
Y12566D01*
X184025Y11729D01*
X184351Y10941D01*
X184825Y10232D01*
X185428Y9628D01*
X186138Y9154D01*
X186926Y8828D01*
X187762Y8661D01*
X188616D01*
X189452Y8828D01*
X190240Y9154D01*
X190950Y9628D01*
X191553Y10232D01*
X192027Y10941D01*
X192353Y11729D01*
X192520Y12566D01*
Y13419D01*
X192353Y14255D01*
X192027Y15044D01*
X191553Y15753D01*
X190950Y16356D01*
X190240Y16830D01*
X189452Y17156D01*
X188616Y17323D01*
D02*
G37*
G36*
X23327Y34685D02*
X22784Y34577D01*
X22325Y34270D01*
X22017Y33810D01*
X21910Y33268D01*
X22017Y32726D01*
X22325Y32266D01*
X22784Y31959D01*
X23327Y31851D01*
X23869Y31959D01*
X24329Y32266D01*
X24636Y32726D01*
X24744Y33268D01*
X24636Y33810D01*
X24329Y34270D01*
X23869Y34577D01*
X23327Y34685D01*
D02*
G37*
G36*
X40937Y35472D02*
X40394Y35364D01*
X39935Y35057D01*
X39627Y34598D01*
X39520Y34055D01*
X39627Y33513D01*
X39935Y33053D01*
X40394Y32746D01*
X40937Y32638D01*
X41479Y32746D01*
X41939Y33053D01*
X42246Y33513D01*
X42354Y34055D01*
X42246Y34598D01*
X41939Y35057D01*
X41479Y35364D01*
X40937Y35472D01*
D02*
G37*
G36*
X153864Y36322D02*
X152529Y36190D01*
X151245Y35801D01*
X150062Y35168D01*
X149024Y34317D01*
X148173Y33280D01*
X147541Y32097D01*
X147152Y30813D01*
X147020Y29478D01*
X147152Y28143D01*
X147541Y26859D01*
X148173Y25676D01*
X149024Y24638D01*
X150062Y23787D01*
X151245Y23155D01*
X152529Y22765D01*
X153864Y22634D01*
X155199Y22765D01*
X156483Y23155D01*
X157666Y23787D01*
X158703Y24638D01*
X159555Y25676D01*
X160187Y26859D01*
X160576Y28143D01*
X160708Y29478D01*
X160576Y30813D01*
X160187Y32097D01*
X159555Y33280D01*
X158703Y34317D01*
X157666Y35168D01*
X156483Y35801D01*
X155199Y36190D01*
X153864Y36322D01*
D02*
G37*
G36*
X7500Y21581D02*
X6444Y21442D01*
X5459Y21035D01*
X4614Y20386D01*
X3965Y19541D01*
X3558Y18556D01*
X3419Y17500D01*
X3558Y16444D01*
X3965Y15459D01*
X4614Y14614D01*
X5459Y13965D01*
X6444Y13558D01*
X7500Y13419D01*
X8556Y13558D01*
X9541Y13965D01*
X10386Y14614D01*
X11035Y15459D01*
X11442Y16444D01*
X11581Y17500D01*
X11442Y18556D01*
X11035Y19541D01*
X10386Y20386D01*
X9541Y21035D01*
X8556Y21442D01*
X7500Y21581D01*
D02*
G37*
G36*
X24213Y20512D02*
X23670Y20404D01*
X23211Y20097D01*
X22903Y19637D01*
X22795Y19094D01*
X22903Y18552D01*
X23211Y18092D01*
X23670Y17785D01*
X24213Y17677D01*
X24755Y17785D01*
X25215Y18092D01*
X25522Y18552D01*
X25630Y19094D01*
X25522Y19637D01*
X25215Y20097D01*
X24755Y20404D01*
X24213Y20512D01*
D02*
G37*
G36*
X22835Y85805D02*
X22452Y85729D01*
X22128Y85513D01*
X21911Y85188D01*
X21835Y84806D01*
X21911Y84423D01*
X22128Y84099D01*
X22452Y83882D01*
X22835Y83806D01*
X23217Y83882D01*
X23542Y84099D01*
X23758Y84423D01*
X23834Y84806D01*
X23758Y85188D01*
X23542Y85513D01*
X23217Y85729D01*
X22835Y85805D01*
D02*
G37*
G36*
X9864Y84882D02*
X9322Y84774D01*
X8862Y84467D01*
X8555Y84007D01*
X8447Y83465D01*
X8555Y82922D01*
X8862Y82462D01*
X9322Y82155D01*
X9864Y82047D01*
X10407Y82155D01*
X10866Y82462D01*
X11174Y82922D01*
X11282Y83465D01*
X11174Y84007D01*
X10866Y84467D01*
X10407Y84774D01*
X9864Y84882D01*
D02*
G37*
G36*
X15036Y78497D02*
X14373Y78366D01*
X13810Y77990D01*
X13435Y77428D01*
X13303Y76764D01*
X13435Y76101D01*
X13810Y75539D01*
X14373Y75163D01*
X15036Y75031D01*
X15699Y75163D01*
X16262Y75539D01*
X16637Y76101D01*
X16769Y76764D01*
X16637Y77428D01*
X16262Y77990D01*
X15699Y78366D01*
X15036Y78497D01*
D02*
G37*
G36*
X9864Y78189D02*
X9322Y78081D01*
X8862Y77774D01*
X8555Y77314D01*
X8447Y76772D01*
X8555Y76229D01*
X8862Y75770D01*
X9322Y75462D01*
X9864Y75354D01*
X10407Y75462D01*
X10866Y75770D01*
X11174Y76229D01*
X11282Y76772D01*
X11174Y77314D01*
X10866Y77774D01*
X10407Y78081D01*
X9864Y78189D01*
D02*
G37*
G36*
X21531Y77322D02*
X20988Y77214D01*
X20529Y76907D01*
X20221Y76447D01*
X20113Y75904D01*
X20221Y75362D01*
X20529Y74902D01*
X20988Y74595D01*
X21531Y74487D01*
X22073Y74595D01*
X22533Y74902D01*
X22840Y75362D01*
X22948Y75904D01*
X22840Y76447D01*
X22533Y76907D01*
X22073Y77214D01*
X21531Y77322D01*
D02*
G37*
G36*
X14390Y84094D02*
X13847Y83987D01*
X13388Y83679D01*
X13080Y83219D01*
X12972Y82677D01*
X13080Y82135D01*
X13388Y81675D01*
X13847Y81368D01*
X14390Y81260D01*
X14932Y81368D01*
X15392Y81675D01*
X15699Y82135D01*
X15807Y82677D01*
X15699Y83219D01*
X15392Y83679D01*
X14932Y83987D01*
X14390Y84094D01*
D02*
G37*
G36*
X24564Y79954D02*
X23901Y79822D01*
X23338Y79447D01*
X22963Y78884D01*
X22831Y78221D01*
X22963Y77558D01*
X23338Y76995D01*
X23901Y76620D01*
X24564Y76488D01*
X25227Y76620D01*
X25790Y76995D01*
X26165Y77558D01*
X26297Y78221D01*
X26165Y78884D01*
X25790Y79447D01*
X25227Y79822D01*
X24564Y79954D01*
D02*
G37*
G36*
X57949Y135741D02*
X57566Y135665D01*
X57242Y135448D01*
X57025Y135124D01*
X56949Y134741D01*
X57025Y134359D01*
X57242Y134034D01*
X57566Y133818D01*
X57949Y133741D01*
X58332Y133818D01*
X58656Y134034D01*
X58873Y134359D01*
X58949Y134741D01*
X58873Y135124D01*
X58656Y135448D01*
X58332Y135665D01*
X57949Y135741D01*
D02*
G37*
G36*
X21972Y132643D02*
X18626D01*
X17743Y132467D01*
X16994Y131967D01*
X16494Y131218D01*
X16318Y130335D01*
Y126988D01*
X16494Y126105D01*
X16994Y125356D01*
X17743Y124856D01*
X18626Y124680D01*
X21972D01*
X22856Y124856D01*
X23605Y125356D01*
X24105Y126105D01*
X24281Y126988D01*
Y130335D01*
X24105Y131218D01*
X23605Y131967D01*
X22856Y132467D01*
X21972Y132643D01*
D02*
G37*
G36*
X46193Y169814D02*
X45619Y169700D01*
X45133Y169375D01*
X44808Y168888D01*
X44694Y168315D01*
X44808Y167741D01*
X44954Y167522D01*
X44678Y167109D01*
X44564Y166535D01*
X44678Y165962D01*
X45003Y165476D01*
X45489Y165151D01*
X46063Y165037D01*
X46637Y165151D01*
X47123Y165476D01*
X47448Y165962D01*
X47562Y166535D01*
X47448Y167109D01*
X47301Y167328D01*
X47578Y167741D01*
X47692Y168315D01*
X47578Y168888D01*
X47253Y169375D01*
X46766Y169700D01*
X46193Y169814D01*
D02*
G37*
G36*
X7500Y176662D02*
X6423Y176520D01*
X5419Y176104D01*
X4557Y175443D01*
X3896Y174581D01*
X3480Y173577D01*
X3338Y172500D01*
X3480Y171423D01*
X3896Y170419D01*
X4557Y169557D01*
X5419Y168896D01*
X6423Y168480D01*
X7500Y168338D01*
X8577Y168480D01*
X9581Y168896D01*
X10443Y169557D01*
X11104Y170419D01*
X11520Y171423D01*
X11662Y172500D01*
X11520Y173577D01*
X11104Y174581D01*
X10443Y175443D01*
X9581Y176104D01*
X8577Y176520D01*
X7500Y176662D01*
D02*
G37*
G36*
X56856Y187306D02*
X55521Y187175D01*
X54237Y186785D01*
X53054Y186153D01*
X52017Y185301D01*
X51165Y184264D01*
X50533Y183081D01*
X50144Y181797D01*
X50012Y180462D01*
X50144Y179127D01*
X50533Y177843D01*
X51165Y176660D01*
X52017Y175623D01*
X53054Y174772D01*
X54237Y174139D01*
X55521Y173750D01*
X56856Y173618D01*
X58191Y173750D01*
X59475Y174139D01*
X60658Y174772D01*
X61695Y175623D01*
X62547Y176660D01*
X63179Y177843D01*
X63569Y179127D01*
X63700Y180462D01*
X63569Y181797D01*
X63179Y183081D01*
X62547Y184264D01*
X61695Y185301D01*
X60658Y186153D01*
X59475Y186785D01*
X58191Y187175D01*
X56856Y187306D01*
D02*
G37*
G36*
X46559Y153817D02*
X46075Y153720D01*
X45664Y153446D01*
X45390Y153035D01*
X45294Y152551D01*
X45390Y152067D01*
X45664Y151656D01*
X46075Y151382D01*
X46559Y151286D01*
X47043Y151382D01*
X47454Y151656D01*
X47728Y152067D01*
X47825Y152551D01*
X47728Y153035D01*
X47454Y153446D01*
X47043Y153720D01*
X46559Y153817D01*
D02*
G37*
G36*
X54850Y147173D02*
X54308Y147065D01*
X53848Y146758D01*
X53541Y146298D01*
X53433Y145756D01*
X53541Y145214D01*
X53848Y144754D01*
X54308Y144447D01*
X54850Y144339D01*
X55393Y144447D01*
X55853Y144754D01*
X56160Y145214D01*
X56268Y145756D01*
X56160Y146298D01*
X55853Y146758D01*
X55393Y147065D01*
X54850Y147173D01*
D02*
G37*
G36*
X55118Y114584D02*
X54735Y114508D01*
X54411Y114291D01*
X54194Y113967D01*
X54118Y113584D01*
X54194Y113201D01*
X54411Y112877D01*
X54735Y112660D01*
X55118Y112584D01*
X55501Y112660D01*
X55825Y112877D01*
X56042Y113201D01*
X56118Y113584D01*
X56042Y113967D01*
X55825Y114291D01*
X55501Y114508D01*
X55118Y114584D01*
D02*
G37*
G36*
X55021Y111333D02*
X54638Y111257D01*
X54314Y111040D01*
X54097Y110716D01*
X54021Y110333D01*
X54097Y109950D01*
X54314Y109626D01*
X54638Y109409D01*
X55021Y109333D01*
X55403Y109409D01*
X55727Y109626D01*
X55944Y109950D01*
X56020Y110333D01*
X55944Y110716D01*
X55727Y111040D01*
X55403Y111257D01*
X55021Y111333D01*
D02*
G37*
G36*
X5709Y122283D02*
X5166Y122176D01*
X4707Y121868D01*
X4399Y121408D01*
X4291Y120866D01*
X4399Y120324D01*
X4707Y119864D01*
X5166Y119557D01*
X5709Y119449D01*
X6251Y119557D01*
X6711Y119864D01*
X7018Y120324D01*
X7126Y120866D01*
X7018Y121408D01*
X6711Y121868D01*
X6251Y122176D01*
X5709Y122283D01*
D02*
G37*
G36*
Y118740D02*
X5166Y118632D01*
X4707Y118325D01*
X4399Y117865D01*
X4291Y117323D01*
X4399Y116780D01*
X4707Y116321D01*
X5166Y116014D01*
X5709Y115906D01*
X6251Y116014D01*
X6711Y116321D01*
X7018Y116780D01*
X7126Y117323D01*
X7018Y117865D01*
X6711Y118325D01*
X6251Y118632D01*
X5709Y118740D01*
D02*
G37*
G36*
X60933Y117674D02*
X60550Y117598D01*
X60226Y117382D01*
X60009Y117057D01*
X59933Y116674D01*
X60009Y116292D01*
X60226Y115968D01*
X60550Y115751D01*
X60933Y115675D01*
X61316Y115751D01*
X61640Y115968D01*
X61857Y116292D01*
X61933Y116674D01*
X61857Y117057D01*
X61640Y117382D01*
X61316Y117598D01*
X60933Y117674D01*
D02*
G37*
G36*
X21819Y116756D02*
X21436Y116680D01*
X21112Y116463D01*
X20895Y116139D01*
X20819Y115756D01*
X20895Y115373D01*
X21112Y115049D01*
X21436Y114832D01*
X21819Y114756D01*
X22201Y114832D01*
X22526Y115049D01*
X22743Y115373D01*
X22819Y115756D01*
X22743Y116139D01*
X22526Y116463D01*
X22201Y116680D01*
X21819Y116756D01*
D02*
G37*
%LPD*%
D24*
X123162Y133895D02*
X129201D01*
X123149Y129922D02*
X129261D01*
X123102Y126040D02*
X129215D01*
X127015Y122010D02*
X129215D01*
X110251Y131812D02*
X114415D01*
X110222Y127915D02*
X114386D01*
X110251Y123988D02*
X114415D01*
X122790Y86653D02*
X128889D01*
X122716Y98508D02*
X124828D01*
X122761Y94551D02*
X128859D01*
X110162Y96470D02*
X114326D01*
X122701Y90610D02*
X128800D01*
X110162Y88646D02*
X114326D01*
X110132Y92573D02*
X114296D01*
X90557Y131812D02*
X94721D01*
X75966Y129893D02*
X82079D01*
X90527Y127915D02*
X94692D01*
X90557Y123988D02*
X94721D01*
X75980Y133865D02*
X82018D01*
X75920Y126010D02*
X82032D01*
X90527Y96440D02*
X94691D01*
X90527Y88616D02*
X94691D01*
X90498Y92543D02*
X94662D01*
X79833Y121980D02*
X82032D01*
X75444Y98478D02*
X77556D01*
X75489Y94522D02*
X81588D01*
X75429Y90580D02*
X81528D01*
X75519Y86623D02*
X81617D01*
X109265Y133783D02*
X115215D01*
X109267Y129846D02*
X115217D01*
X109300Y125884D02*
X115250D01*
X89580Y133775D02*
X95530D01*
X89582Y129838D02*
X95532D01*
X89580Y125899D02*
X95530D01*
X109223Y86604D02*
X115173D01*
X109223Y90539D02*
X115173D01*
X109223Y94478D02*
X115173D01*
X89457Y86598D02*
X95407D01*
X89457Y90527D02*
X95407D01*
X89538Y94478D02*
X95488D01*
X138472Y139452D02*
X140583D01*
X138472Y134787D02*
X142661D01*
X143701Y135827D01*
X138472Y130123D02*
X140583D01*
X138472Y125458D02*
X143701D01*
X138472Y120793D02*
X140583D01*
X138854Y116157D02*
X140965D01*
X138854Y111488D02*
X140965D01*
X138472Y106799D02*
X140583D01*
X138854Y102174D02*
X140965D01*
X138472Y97469D02*
X140583D01*
X138472Y92804D02*
X140583D01*
X138472Y88139D02*
X140583D01*
X138472Y83474D02*
X140583D01*
X138472Y78810D02*
X140583D01*
X108937Y98529D02*
X111048D01*
X89462D02*
X91574D01*
X93443Y122076D02*
X95555D01*
X113128Y122084D02*
X115240D01*
D28*
X0Y0D02*
Y200000D01*
X200000Y0D02*
Y200000D01*
D29*
X0D02*
X200000D01*
X0Y0D02*
X200000D01*
D31*
X124524Y79805D02*
D03*
D32*
X114524D02*
D03*
X20299Y138661D02*
D03*
X7500Y172500D02*
D03*
Y7500D02*
D03*
Y17500D02*
D03*
Y27500D02*
D03*
X193000Y125512D02*
D03*
Y135512D02*
D03*
Y145512D02*
D03*
Y155512D02*
D03*
X183000Y125512D02*
D03*
Y135512D02*
D03*
Y145512D02*
D03*
Y115512D02*
D03*
Y105512D02*
D03*
Y95512D02*
D03*
Y85512D02*
D03*
X193000Y115512D02*
D03*
Y105512D02*
D03*
Y95512D02*
D03*
Y85512D02*
D03*
Y45512D02*
D03*
Y55512D02*
D03*
Y65512D02*
D03*
Y75512D02*
D03*
X183000Y45512D02*
D03*
Y55512D02*
D03*
Y65512D02*
D03*
Y75512D02*
D03*
D33*
X20299Y128661D02*
D03*
X7500Y182500D02*
D03*
Y37500D02*
D03*
X183000Y155512D02*
D03*
D34*
X36490Y14245D02*
D03*
Y19245D02*
D03*
X41490Y24245D02*
D03*
Y14245D02*
D03*
Y19245D02*
D03*
X25331Y55968D02*
D03*
Y60969D02*
D03*
X30331Y65969D02*
D03*
Y55968D02*
D03*
Y60969D02*
D03*
D35*
X36490Y24245D02*
D03*
X25331Y65969D02*
D03*
D36*
X56856Y180462D02*
D03*
X153864Y29478D02*
D03*
D37*
X64476Y103393D02*
D03*
X68423Y115987D02*
D03*
X70343D02*
D03*
X68450Y119393D02*
D03*
Y124073D02*
D03*
Y128752D02*
D03*
Y133431D02*
D03*
Y138110D02*
D03*
X66342Y141047D02*
D03*
Y117524D02*
D03*
Y122228D02*
D03*
Y126933D02*
D03*
Y131638D02*
D03*
Y136343D02*
D03*
X64476Y141047D02*
D03*
X140868Y139401D02*
D03*
X100787Y105512D02*
D03*
X120316Y104320D02*
D03*
X111815Y110528D02*
D03*
X113247Y122003D02*
D03*
X115215D02*
D03*
X111926Y106428D02*
D03*
X115017Y114497D02*
D03*
X115469Y106554D02*
D03*
X124524Y106428D02*
D03*
X123737Y114252D02*
D03*
X103855Y116860D02*
D03*
X120784Y111812D02*
D03*
X115156Y108661D02*
D03*
X111844Y114371D02*
D03*
X103950Y105703D02*
D03*
X108700Y118200D02*
D03*
X70276Y111387D02*
D03*
X66342Y112819D02*
D03*
X68478Y111400D02*
D03*
X55021Y110333D02*
D03*
X66342Y108114D02*
D03*
X68450Y105356D02*
D03*
X64476Y108099D02*
D03*
Y112806D02*
D03*
X134805Y137550D02*
D03*
X136650Y109629D02*
D03*
X134805Y118936D02*
D03*
X99641Y94107D02*
D03*
X105954Y94106D02*
D03*
X102804D02*
D03*
X101042Y91801D02*
D03*
X104204Y91800D02*
D03*
X99641Y89473D02*
D03*
X105954Y89472D02*
D03*
X102804D02*
D03*
X101042Y87165D02*
D03*
Y96437D02*
D03*
X104204Y87164D02*
D03*
Y96436D02*
D03*
X64476Y79858D02*
D03*
X66342Y79886D02*
D03*
X64476Y84565D02*
D03*
X66342Y84591D02*
D03*
Y89295D02*
D03*
X64476Y89272D02*
D03*
X66342Y94000D02*
D03*
X64476Y93979D02*
D03*
X66342Y98705D02*
D03*
X64476Y98686D02*
D03*
X66342Y103410D02*
D03*
X64476Y117513D02*
D03*
Y122220D02*
D03*
Y126927D02*
D03*
Y131633D02*
D03*
X68450Y77281D02*
D03*
X70344D02*
D03*
X68450Y81960D02*
D03*
X70344D02*
D03*
X68450Y86639D02*
D03*
X70344D02*
D03*
X68450Y91318D02*
D03*
X70344D02*
D03*
X68450Y95998D02*
D03*
X70344D02*
D03*
X68450Y100677D02*
D03*
X70344D02*
D03*
Y105356D02*
D03*
Y119393D02*
D03*
Y124073D02*
D03*
Y128752D02*
D03*
Y133431D02*
D03*
X100571Y124006D02*
D03*
X75984Y125984D02*
D03*
X81521Y145197D02*
D03*
X94610Y145150D02*
D03*
X114784Y144945D02*
D03*
X86004Y116500D02*
D03*
X64476Y136340D02*
D03*
X138618Y125407D02*
D03*
X136650Y123590D02*
D03*
X60933Y116674D02*
D03*
X94464Y106187D02*
D03*
X99918Y119913D02*
D03*
X138618Y130071D02*
D03*
X123228Y133858D02*
D03*
X108454Y101602D02*
D03*
X74913Y107866D02*
D03*
X74839Y110055D02*
D03*
X138618Y78759D02*
D03*
X21819Y115756D02*
D03*
X112219Y96471D02*
D03*
X114185D02*
D03*
X110249D02*
D03*
X70344Y138110D02*
D03*
X95530Y133806D02*
D03*
X114228Y123961D02*
D03*
X115205Y125937D02*
D03*
X113216Y125925D02*
D03*
X111278D02*
D03*
X109343Y125917D02*
D03*
X112261Y127909D02*
D03*
X114231Y127910D02*
D03*
X110294D02*
D03*
X75589Y86614D02*
D03*
X77559Y86637D02*
D03*
X75589Y90574D02*
D03*
X77576Y90553D02*
D03*
X75591Y94488D02*
D03*
X140868Y111412D02*
D03*
X138618D02*
D03*
X140868Y125407D02*
D03*
Y134736D02*
D03*
X138618D02*
D03*
X136650Y137550D02*
D03*
Y132897D02*
D03*
Y128243D02*
D03*
Y114282D02*
D03*
Y81707D02*
D03*
Y86361D02*
D03*
Y91014D02*
D03*
Y95668D02*
D03*
Y100321D02*
D03*
Y104975D02*
D03*
X138618Y106747D02*
D03*
X140868D02*
D03*
Y78759D02*
D03*
X138618Y83423D02*
D03*
X140868D02*
D03*
X138618Y88088D02*
D03*
X140868D02*
D03*
X138618Y92753D02*
D03*
X140868D02*
D03*
X138618Y97418D02*
D03*
X140868D02*
D03*
X138618Y102083D02*
D03*
X140868D02*
D03*
X95530Y129871D02*
D03*
X153543Y86614D02*
D03*
Y96457D02*
D03*
X29921Y173622D02*
D03*
Y181102D02*
D03*
X16929Y174409D02*
D03*
X46063Y166535D02*
D03*
X18504Y18701D02*
D03*
X19462Y9760D02*
D03*
X23106D02*
D03*
X40937Y34055D02*
D03*
X35702Y46024D02*
D03*
X19732Y33268D02*
D03*
X23327D02*
D03*
X19380Y42126D02*
D03*
X36012Y31693D02*
D03*
X10236Y102362D02*
D03*
X10059Y97244D02*
D03*
X9864Y83465D02*
D03*
Y76772D02*
D03*
X14567Y102954D02*
D03*
X14390Y82677D02*
D03*
X61811Y83071D02*
D03*
X17717Y72926D02*
D03*
X17717Y92931D02*
D03*
X24803Y43701D02*
D03*
X10937Y47638D02*
D03*
X21531Y75904D02*
D03*
X21358Y96063D02*
D03*
X40724Y46260D02*
D03*
X27953Y20866D02*
D03*
X24213Y19094D02*
D03*
X15374Y86614D02*
D03*
X22835Y84806D02*
D03*
X122835Y86616D02*
D03*
X124803D02*
D03*
X126772D02*
D03*
X128740D02*
D03*
X123228Y125984D02*
D03*
X125197D02*
D03*
X127165D02*
D03*
Y122047D02*
D03*
X129134D02*
D03*
Y125986D02*
D03*
X75984Y129921D02*
D03*
X81890Y125986D02*
D03*
Y122047D02*
D03*
X79921D02*
D03*
X81890Y129921D02*
D03*
X79921Y125984D02*
D03*
X77953D02*
D03*
X79921Y129921D02*
D03*
X81890Y133858D02*
D03*
X79921D02*
D03*
X77953D02*
D03*
Y129921D02*
D03*
X93562Y121995D02*
D03*
Y129869D02*
D03*
X91593D02*
D03*
X91592Y133806D02*
D03*
X93561D02*
D03*
Y125932D02*
D03*
X91592D02*
D03*
X89623D02*
D03*
X90609Y123964D02*
D03*
X92576D02*
D03*
X92577Y131838D02*
D03*
X90609D02*
D03*
X92576Y127901D02*
D03*
X95530Y125932D02*
D03*
Y121995D02*
D03*
X89625Y129871D02*
D03*
X89623Y133808D02*
D03*
X94546Y123964D02*
D03*
Y127902D02*
D03*
Y131840D02*
D03*
X90609Y127902D02*
D03*
X112261Y123971D02*
D03*
X111234Y90574D02*
D03*
X113203D02*
D03*
X113204Y86637D02*
D03*
X111235D02*
D03*
Y94511D02*
D03*
X113204D02*
D03*
X115173D02*
D03*
X112219Y88605D02*
D03*
X114187D02*
D03*
X112221Y92542D02*
D03*
X109266Y94511D02*
D03*
Y90572D02*
D03*
Y86637D02*
D03*
X115171Y90572D02*
D03*
X115173Y86635D02*
D03*
X110250Y92541D02*
D03*
Y88604D02*
D03*
X114187Y92541D02*
D03*
X91549Y90574D02*
D03*
X91550Y94511D02*
D03*
X95488D02*
D03*
X89581D02*
D03*
Y90572D02*
D03*
Y86637D02*
D03*
Y98448D02*
D03*
X90565Y92541D02*
D03*
Y88604D02*
D03*
X128796Y106554D02*
D03*
X127651Y114252D02*
D03*
X90666D02*
D03*
Y106000D02*
D03*
X80783Y106101D02*
D03*
X77674Y114497D02*
D03*
X81559D02*
D03*
X55118Y113584D02*
D03*
X81496Y86616D02*
D03*
X79528D02*
D03*
X81496Y90553D02*
D03*
X79528D02*
D03*
X81496Y94490D02*
D03*
X79528D02*
D03*
X77559D02*
D03*
Y98427D02*
D03*
X75591D02*
D03*
X113247Y129877D02*
D03*
X109310Y129879D02*
D03*
X111278Y129877D02*
D03*
X110294Y123971D02*
D03*
X75984Y133858D02*
D03*
X115215Y129879D02*
D03*
X109308Y133816D02*
D03*
X111277Y133814D02*
D03*
X113246D02*
D03*
X115215D02*
D03*
X112262Y131845D02*
D03*
X114231Y131847D02*
D03*
X110294Y131845D02*
D03*
X125197Y133858D02*
D03*
X127165Y129921D02*
D03*
X129134D02*
D03*
X123228D02*
D03*
X129134Y133858D02*
D03*
X125197Y129921D02*
D03*
X127165Y133858D02*
D03*
X5709Y117323D02*
D03*
Y120866D02*
D03*
X124803Y98427D02*
D03*
X122835D02*
D03*
X124803Y94490D02*
D03*
X128740D02*
D03*
X126772D02*
D03*
Y90553D02*
D03*
X124803D02*
D03*
X128740D02*
D03*
X122835Y94488D02*
D03*
Y90553D02*
D03*
X83858Y104071D02*
D03*
X140868Y116077D02*
D03*
X138618D02*
D03*
X136650Y118936D02*
D03*
X109055Y98448D02*
D03*
X111024D02*
D03*
X91549D02*
D03*
X77100Y106187D02*
D03*
X54850Y145756D02*
D03*
X46559Y152551D02*
D03*
X46193Y168315D02*
D03*
X32319Y156465D02*
D03*
X94603Y114252D02*
D03*
X97050Y111518D02*
D03*
X100571Y133277D02*
D03*
X103733Y124005D02*
D03*
Y133276D02*
D03*
X101971Y130969D02*
D03*
X98822D02*
D03*
X105134Y130968D02*
D03*
X100571Y128641D02*
D03*
X103733Y128640D02*
D03*
X101971Y126335D02*
D03*
X98822D02*
D03*
X105134Y126334D02*
D03*
X138618Y139401D02*
D03*
X134805Y132897D02*
D03*
Y128243D02*
D03*
Y123590D02*
D03*
Y114282D02*
D03*
Y109629D02*
D03*
Y104975D02*
D03*
Y100321D02*
D03*
Y95668D02*
D03*
Y91014D02*
D03*
Y86361D02*
D03*
Y81707D02*
D03*
Y77053D02*
D03*
X136650D02*
D03*
X138618Y120742D02*
D03*
X140868D02*
D03*
Y130071D02*
D03*
X95488Y86635D02*
D03*
X92533Y88605D02*
D03*
X93518Y90574D02*
D03*
X90565Y96479D02*
D03*
X93519Y94511D02*
D03*
X92535Y96479D02*
D03*
Y92542D02*
D03*
X95486Y90572D02*
D03*
X94502Y92541D02*
D03*
Y88605D02*
D03*
X98900Y114800D02*
D03*
X94501Y96471D02*
D03*
X93519Y86637D02*
D03*
X91550D02*
D03*
X57949Y134741D02*
D03*
D38*
X163386Y165748D02*
D03*
X143701Y165354D02*
D03*
X173228Y155905D02*
D03*
X74782Y165396D02*
D03*
X104309D02*
D03*
X84624D02*
D03*
X118133Y183967D02*
D03*
X127976D02*
D03*
X123941Y152732D02*
D03*
X109677Y63279D02*
D03*
X162098Y96949D02*
D03*
X86417Y27713D02*
D03*
X143701Y125221D02*
D03*
X163386Y86614D02*
D03*
X143701Y135827D02*
D03*
X163386D02*
D03*
X153543D02*
D03*
Y125984D02*
D03*
X163386D02*
D03*
Y116142D02*
D03*
X153543D02*
D03*
X163386Y106299D02*
D03*
X153543D02*
D03*
X66929Y47244D02*
D03*
Y57087D02*
D03*
X173228Y116535D02*
D03*
Y96850D02*
D03*
X94488Y185039D02*
D03*
X84646D02*
D03*
X94488Y175197D02*
D03*
X84646D02*
D03*
X114173Y165354D02*
D03*
X104331Y175197D02*
D03*
X114173D02*
D03*
X104331Y185039D02*
D03*
X114173D02*
D03*
X183071Y185433D02*
D03*
X173228D02*
D03*
X163386Y185039D02*
D03*
X153543D02*
D03*
X143701D02*
D03*
X183071Y175591D02*
D03*
X173228D02*
D03*
X163386Y175197D02*
D03*
X153543D02*
D03*
X143701D02*
D03*
X183071Y165748D02*
D03*
X173228D02*
D03*
X192913D02*
D03*
Y175591D02*
D03*
Y185433D02*
D03*
X192913Y27953D02*
D03*
Y18110D02*
D03*
Y8268D02*
D03*
X173228D02*
D03*
X183071D02*
D03*
X163386Y17717D02*
D03*
X173228Y18110D02*
D03*
X183071D02*
D03*
X163437Y24118D02*
D03*
X173228Y27953D02*
D03*
X183071D02*
D03*
X173228Y136221D02*
D03*
Y146063D02*
D03*
X163386Y145669D02*
D03*
X173228Y47638D02*
D03*
X183071Y37795D02*
D03*
X173228Y57480D02*
D03*
Y67323D02*
D03*
X124016Y165354D02*
D03*
X133858D02*
D03*
X124016Y175197D02*
D03*
X133858D02*
D03*
Y185039D02*
D03*
X173228Y126378D02*
D03*
X192913Y37795D02*
D03*
X25591Y135827D02*
D03*
X66929Y27559D02*
D03*
Y17717D02*
D03*
Y7874D02*
D03*
X15748Y135827D02*
D03*
X165705Y37657D02*
D03*
X143866Y37941D02*
D03*
X173228Y37795D02*
D03*
X35333Y194912D02*
D03*
X35333Y185069D02*
D03*
X15648Y194912D02*
D03*
X25491D02*
D03*
X45176D02*
D03*
Y185069D02*
D03*
X74803Y175197D02*
D03*
X64961D02*
D03*
X173228Y106693D02*
D03*
X64961Y194882D02*
D03*
X74921Y180209D02*
D03*
X133858Y194882D02*
D03*
X124016D02*
D03*
X143701D02*
D03*
X153543D02*
D03*
X163386D02*
D03*
X173228Y195276D02*
D03*
X114173Y194882D02*
D03*
X104331D02*
D03*
X84646D02*
D03*
X94488D02*
D03*
Y165354D02*
D03*
Y155512D02*
D03*
X104232D02*
D03*
X114075D02*
D03*
X35799Y155303D02*
D03*
X45276Y155512D02*
D03*
X35433Y145669D02*
D03*
X45276D02*
D03*
X15837Y12205D02*
D03*
X16019Y51496D02*
D03*
X24564Y81912D02*
D03*
X24409Y102362D02*
D03*
X24564Y78221D02*
D03*
X14809Y96335D02*
D03*
X10820Y64173D02*
D03*
X15036Y76764D02*
D03*
X26969Y12205D02*
D03*
X12598Y42520D02*
D03*
X24409Y98819D02*
D03*
X76772Y7874D02*
D03*
Y27559D02*
D03*
Y47244D02*
D03*
Y57087D02*
D03*
Y17717D02*
D03*
X104786Y66929D02*
D03*
X72925Y155929D02*
D03*
M02*
