G04 Layer_Color=8421504*
%FSLAX25Y25*%
%MOIN*%
G70*
G01*
G75*
%ADD20C,0.00886*%
%ADD24C,0.01000*%
%ADD28C,0.00984*%
%ADD29C,0.00984*%
G04:AMPARAMS|DCode=65|XSize=9.06mil|YSize=29.72mil|CornerRadius=2.26mil|HoleSize=0mil|Usage=FLASHONLY|Rotation=270.000|XOffset=0mil|YOffset=0mil|HoleType=Round|Shape=RoundedRectangle|*
%AMROUNDEDRECTD65*
21,1,0.00906,0.02520,0,0,270.0*
21,1,0.00453,0.02972,0,0,270.0*
1,1,0.00453,-0.01260,-0.00226*
1,1,0.00453,-0.01260,0.00226*
1,1,0.00453,0.01260,0.00226*
1,1,0.00453,0.01260,-0.00226*
%
%ADD65ROUNDEDRECTD65*%
G04:AMPARAMS|DCode=66|XSize=9.06mil|YSize=70.08mil|CornerRadius=2.26mil|HoleSize=0mil|Usage=FLASHONLY|Rotation=270.000|XOffset=0mil|YOffset=0mil|HoleType=Round|Shape=RoundedRectangle|*
%AMROUNDEDRECTD66*
21,1,0.00906,0.06555,0,0,270.0*
21,1,0.00453,0.07008,0,0,270.0*
1,1,0.00453,-0.03278,-0.00226*
1,1,0.00453,-0.03278,0.00226*
1,1,0.00453,0.03278,0.00226*
1,1,0.00453,0.03278,-0.00226*
%
%ADD66ROUNDEDRECTD66*%
G04:AMPARAMS|DCode=67|XSize=9.06mil|YSize=63.19mil|CornerRadius=2.26mil|HoleSize=0mil|Usage=FLASHONLY|Rotation=270.000|XOffset=0mil|YOffset=0mil|HoleType=Round|Shape=RoundedRectangle|*
%AMROUNDEDRECTD67*
21,1,0.00906,0.05866,0,0,270.0*
21,1,0.00453,0.06319,0,0,270.0*
1,1,0.00453,-0.02933,-0.00226*
1,1,0.00453,-0.02933,0.00226*
1,1,0.00453,0.02933,0.00226*
1,1,0.00453,0.02933,-0.00226*
%
%ADD67ROUNDEDRECTD67*%
%ADD68C,0.03937*%
G04:AMPARAMS|DCode=69|XSize=43.31mil|YSize=43.31mil|CornerRadius=9.84mil|HoleSize=0mil|Usage=FLASHONLY|Rotation=0.000|XOffset=0mil|YOffset=0mil|HoleType=Round|Shape=RoundedRectangle|*
%AMROUNDEDRECTD69*
21,1,0.04331,0.02362,0,0,0.0*
21,1,0.02362,0.04331,0,0,0.0*
1,1,0.01968,0.01181,-0.01181*
1,1,0.01968,-0.01181,-0.01181*
1,1,0.01968,-0.01181,0.01181*
1,1,0.01968,0.01181,0.01181*
%
%ADD69ROUNDEDRECTD69*%
%ADD70R,0.02165X0.01378*%
%ADD71R,0.13106X0.06606*%
%ADD72R,0.01378X0.02165*%
%ADD73R,0.03740X0.02953*%
%ADD74R,0.02953X0.03740*%
G36*
X155778Y67605D02*
X156262Y67605D01*
X157210Y67417D01*
X158104Y67046D01*
X158908Y66509D01*
X159250Y66167D01*
X159250Y66167D01*
X161217Y64201D01*
X161651Y63766D01*
X162334Y62745D01*
X162804Y61610D01*
X163043Y60405D01*
X163043Y59791D01*
X159752Y59791D01*
X159736Y60116D01*
X159609Y60754D01*
X159360Y61355D01*
X158999Y61896D01*
X158780Y62137D01*
Y62137D01*
X158043Y62874D01*
X155020Y64209D01*
X155019Y67605D01*
X155778Y67605D01*
D02*
G37*
G36*
X64110Y58512D02*
Y58512D01*
X64110D01*
X64110Y58512D01*
D02*
G37*
G36*
X53133Y62929D02*
X50110Y61594D01*
X49373Y60857D01*
X49373Y60857D01*
X49154Y60616D01*
X48793Y60075D01*
X48544Y59474D01*
X48417Y58837D01*
X48401Y58512D01*
X45110Y58512D01*
Y58512D01*
X45110Y59126D01*
X45350Y60330D01*
X45820Y61465D01*
X46502Y62487D01*
X46937Y62921D01*
X48903Y64887D01*
Y64887D01*
X49245Y65229D01*
X50049Y65767D01*
X50943Y66137D01*
X51892Y66326D01*
X52376Y66326D01*
X53135Y66326D01*
X53133Y62929D01*
D02*
G37*
G36*
X163043Y59791D02*
Y59791D01*
X163043D01*
X163043Y59791D01*
D02*
G37*
G36*
X56845Y66326D02*
X57328Y66326D01*
X58277Y66137D01*
X59171Y65767D01*
X59975Y65229D01*
X60317Y64887D01*
X60317Y64887D01*
X62284Y62921D01*
X62718Y62487D01*
X63401Y61465D01*
X63871Y60330D01*
X64110Y59126D01*
X64110Y58512D01*
X60819Y58512D01*
X60803Y58837D01*
X60676Y59474D01*
X60427Y60075D01*
X60066Y60616D01*
X59847Y60857D01*
Y60857D01*
X59110Y61594D01*
X56087Y62929D01*
X56086Y66326D01*
X56845Y66326D01*
D02*
G37*
G36*
X147351Y55632D02*
X147477Y54994D01*
X147726Y54393D01*
X148088Y53852D01*
X148306Y53611D01*
X148306D01*
X149043Y52874D01*
X152066Y51539D01*
X152068Y48143D01*
X151309Y48143D01*
X150825Y48143D01*
X149876Y48331D01*
X148982Y48702D01*
X148178Y49239D01*
X147836Y49581D01*
Y49581D01*
X145870Y51548D01*
X145436Y51982D01*
X144753Y53003D01*
X144283Y54138D01*
X144043Y55343D01*
X144043Y55957D01*
X147335D01*
X147351Y55632D01*
D02*
G37*
G36*
X48417Y54352D02*
X48544Y53714D01*
X48793Y53114D01*
X49154Y52573D01*
X49373Y52332D01*
X49373D01*
X50110Y51595D01*
X53133Y50260D01*
X53135Y46863D01*
X52376Y46863D01*
X51892Y46863D01*
X50943Y47052D01*
X50049Y47422D01*
X49245Y47960D01*
X48903Y48302D01*
Y48302D01*
X46937Y50268D01*
X46502Y50702D01*
X45820Y51724D01*
X45350Y52859D01*
X45110Y54063D01*
X45110Y54677D01*
X48401D01*
X48417Y54352D01*
D02*
G37*
G36*
X163043Y55343D02*
X162804Y54138D01*
X162334Y53003D01*
X161651Y51982D01*
X161217Y51548D01*
X159250Y49581D01*
X159250Y49581D01*
X158908Y49239D01*
X158104Y48702D01*
X157210Y48331D01*
X156262Y48143D01*
X155778Y48143D01*
X155019Y48143D01*
X155020Y51539D01*
X158043Y52874D01*
X158780Y53611D01*
X158999Y53852D01*
X159360Y54393D01*
X159609Y54994D01*
X159736Y55632D01*
X159752Y55957D01*
X163043D01*
X163043Y55343D01*
D02*
G37*
G36*
X64110Y54063D02*
X63871Y52859D01*
X63401Y51724D01*
X62718Y50702D01*
X62284Y50268D01*
X60317Y48302D01*
X60317Y48302D01*
X59975Y47960D01*
X59171Y47422D01*
X58277Y47052D01*
X57328Y46863D01*
X56845Y46863D01*
X56086Y46863D01*
X56087Y50260D01*
X59110Y51595D01*
X59847Y52332D01*
X60066Y52573D01*
X60427Y53114D01*
X60676Y53714D01*
X60803Y54352D01*
X60819Y54677D01*
X64110D01*
X64110Y54063D01*
D02*
G37*
G36*
X60207Y167999D02*
X60691Y167999D01*
X61639Y167810D01*
X62533Y167440D01*
X63338Y166902D01*
X63680Y166560D01*
X63680Y166560D01*
X65646Y164594D01*
X66080Y164160D01*
X66763Y163138D01*
X67233Y162004D01*
X67472Y160799D01*
X67472Y160185D01*
X67472D01*
X67472Y160185D01*
Y160185D01*
X64181Y160185D01*
X64165Y160510D01*
X64038Y161148D01*
X63789Y161749D01*
X63428Y162289D01*
X63209Y162531D01*
Y162531D01*
X62472Y163268D01*
X59449Y164602D01*
X59448Y167999D01*
X60207Y167999D01*
D02*
G37*
G36*
X155778Y167999D02*
X156262Y167999D01*
X157210Y167810D01*
X158104Y167440D01*
X158908Y166902D01*
X159250Y166560D01*
X159250Y166560D01*
X161217Y164594D01*
X161651Y164160D01*
X162334Y163138D01*
X162804Y162004D01*
X163043Y160799D01*
X163043Y160185D01*
X163043D01*
X163043Y160185D01*
Y160185D01*
X159752Y160185D01*
X159736Y160510D01*
X159609Y161148D01*
X159360Y161749D01*
X158999Y162289D01*
X158780Y162531D01*
Y162531D01*
X158043Y163268D01*
X155020Y164602D01*
X155019Y167999D01*
X155778Y167999D01*
D02*
G37*
G36*
X56495Y164602D02*
X53472Y163268D01*
X52735Y162531D01*
X52735Y162531D01*
X52517Y162289D01*
X52155Y161749D01*
X51907Y161148D01*
X51780Y160510D01*
X51764Y160185D01*
X48472Y160185D01*
Y160185D01*
X48472Y160799D01*
X48712Y162004D01*
X49182Y163138D01*
X49865Y164160D01*
X50299Y164594D01*
X52265Y166560D01*
Y166560D01*
X52607Y166902D01*
X53412Y167440D01*
X54305Y167810D01*
X55254Y167999D01*
X55738Y167999D01*
X56497Y167999D01*
X56495Y164602D01*
D02*
G37*
G36*
X152066Y164602D02*
X149043Y163268D01*
X148306Y162531D01*
X148306Y162531D01*
X148088Y162289D01*
X147726Y161749D01*
X147477Y161148D01*
X147351Y160510D01*
X147335Y160185D01*
X144043Y160185D01*
Y160185D01*
X144043Y160799D01*
X144283Y162004D01*
X144753Y163138D01*
X145436Y164160D01*
X145870Y164594D01*
X147836Y166560D01*
Y166560D01*
X148178Y166902D01*
X148982Y167440D01*
X149876Y167810D01*
X150825Y167999D01*
X151309Y167999D01*
X152068Y167999D01*
X152066Y164602D01*
D02*
G37*
G36*
X67472Y155737D02*
X67233Y154532D01*
X66763Y153397D01*
X66080Y152375D01*
X65646Y151941D01*
X63680Y149975D01*
X63680Y149975D01*
X63338Y149633D01*
X62533Y149095D01*
X61639Y148725D01*
X60691Y148537D01*
X60207Y148537D01*
X59448Y148536D01*
X59449Y151933D01*
X62472Y153268D01*
X63209Y154005D01*
X63428Y154246D01*
X63789Y154787D01*
X64038Y155388D01*
X64165Y156026D01*
X64181Y156351D01*
X67472D01*
X67472Y155737D01*
D02*
G37*
G36*
X147351Y156026D02*
X147477Y155388D01*
X147726Y154787D01*
X148088Y154246D01*
X148306Y154005D01*
X148306D01*
X149043Y153268D01*
X152066Y151933D01*
X152068Y148536D01*
X151309Y148537D01*
X150825Y148537D01*
X149876Y148725D01*
X148982Y149095D01*
X148178Y149633D01*
X147836Y149975D01*
Y149975D01*
X145870Y151941D01*
X145436Y152375D01*
X144753Y153397D01*
X144283Y154532D01*
X144043Y155736D01*
X144043Y156351D01*
X147335D01*
X147351Y156026D01*
D02*
G37*
G36*
X152066Y64209D02*
X149043Y62874D01*
X148306Y62137D01*
X148306Y62137D01*
X148088Y61896D01*
X147726Y61355D01*
X147477Y60754D01*
X147351Y60116D01*
X147335Y59791D01*
X144043Y59791D01*
Y59791D01*
X144043Y60405D01*
X144283Y61610D01*
X144753Y62745D01*
X145436Y63766D01*
X145870Y64201D01*
X147836Y66167D01*
Y66167D01*
X148178Y66509D01*
X148982Y67046D01*
X149876Y67417D01*
X150825Y67605D01*
X151309Y67605D01*
X152068Y67605D01*
X152066Y64209D01*
D02*
G37*
G36*
X163043Y155736D02*
X162804Y154532D01*
X162334Y153397D01*
X161651Y152375D01*
X161217Y151941D01*
X159250Y149975D01*
X159250Y149975D01*
X158908Y149633D01*
X158104Y149095D01*
X157210Y148725D01*
X156262Y148537D01*
X155778Y148537D01*
X155019Y148536D01*
X155020Y151933D01*
X158043Y153268D01*
X158780Y154005D01*
X158999Y154246D01*
X159360Y154787D01*
X159609Y155388D01*
X159736Y156026D01*
X159752Y156351D01*
X163043D01*
X163043Y155736D01*
D02*
G37*
G36*
X51780Y156026D02*
X51907Y155388D01*
X52155Y154787D01*
X52517Y154246D01*
X52735Y154005D01*
X52735D01*
X53472Y153268D01*
X56495Y151933D01*
X56497Y148536D01*
X55738Y148537D01*
X55254Y148537D01*
X54305Y148725D01*
X53412Y149095D01*
X52607Y149633D01*
X52265Y149975D01*
Y149975D01*
X50299Y151941D01*
X49865Y152375D01*
X49182Y153397D01*
X48712Y154532D01*
X48472Y155737D01*
X48472Y156351D01*
X51764D01*
X51780Y156026D01*
D02*
G37*
D20*
X101296Y112600D02*
D03*
Y111025D02*
D03*
X104446Y107875D02*
D03*
X102871D02*
D03*
X101296D02*
D03*
Y109450D02*
D03*
X106021Y112600D02*
D03*
Y109450D02*
D03*
Y107875D02*
D03*
Y111025D02*
D03*
X104446Y112600D02*
D03*
X102871D02*
D03*
D24*
X152068Y164594D02*
G03*
X147336Y160184I1475J-6326D01*
G01*
X152068Y167999D02*
G03*
X143892Y160198I1476J-9731D01*
G01*
X163195D02*
G03*
X155019Y167999I-9651J-1930D01*
G01*
X159750Y160184D02*
G03*
X155018Y164594I-6207J-1916D01*
G01*
X155019Y148536D02*
G03*
X163195Y156337I-1476J9731D01*
G01*
X155018Y151941D02*
G03*
X159750Y156351I-1475J6326D01*
G01*
X143892Y156337D02*
G03*
X152068Y148536I9651J1930D01*
G01*
X147336Y156351D02*
G03*
X152068Y151941I6207J1916D01*
G01*
X152068Y64200D02*
G03*
X147336Y59790I1475J-6326D01*
G01*
X152068Y67605D02*
G03*
X143892Y59804I1476J-9731D01*
G01*
X163195D02*
G03*
X155019Y67605I-9651J-1930D01*
G01*
X159750Y59790D02*
G03*
X155018Y64200I-6207J-1916D01*
G01*
X155019Y48143D02*
G03*
X163195Y55944I-1476J9731D01*
G01*
X155018Y51548D02*
G03*
X159750Y55958I-1475J6326D01*
G01*
X143892Y55944D02*
G03*
X152068Y48143I9651J1930D01*
G01*
X147336Y55958D02*
G03*
X152068Y51548I6207J1916D01*
G01*
X51766Y156351D02*
G03*
X56497Y151941I6207J1916D01*
G01*
X48321Y156337D02*
G03*
X56497Y148536I9651J1930D01*
G01*
X59448Y151941D02*
G03*
X64179Y156351I-1475J6326D01*
G01*
X59448Y148536D02*
G03*
X67624Y156337I-1476J9731D01*
G01*
X64179Y160184D02*
G03*
X59448Y164594I-6207J-1916D01*
G01*
X67624Y160198D02*
G03*
X59448Y167999I-9651J-1930D01*
G01*
X56497D02*
G03*
X48321Y160198I1476J-9731D01*
G01*
X56497Y164594D02*
G03*
X51766Y160184I1475J-6326D01*
G01*
X48403Y54678D02*
G03*
X53135Y50268I6207J1916D01*
G01*
X44959Y54664D02*
G03*
X53135Y46863I9651J1930D01*
G01*
X56085Y50268D02*
G03*
X60817Y54678I-1475J6326D01*
G01*
X56086Y46863D02*
G03*
X64262Y54664I-1476J9731D01*
G01*
X60817Y58511D02*
G03*
X56085Y62921I-6207J-1916D01*
G01*
X64262Y58525D02*
G03*
X56086Y66326I-9651J-1930D01*
G01*
X53135D02*
G03*
X44959Y58525I1476J-9731D01*
G01*
X53135Y62921D02*
G03*
X48403Y58511I1475J-6326D01*
G01*
X152066Y164602D02*
Y168009D01*
X143892Y160185D02*
X147335D01*
X159752D02*
X163195D01*
X155020Y164602D02*
Y168009D01*
X159752Y156351D02*
X163195D01*
X155020Y148526D02*
Y151933D01*
X143892Y156351D02*
X147335D01*
X152066Y148526D02*
Y151933D01*
X152066Y64209D02*
Y67616D01*
X143892Y59791D02*
X147335D01*
X159752D02*
X163195D01*
X155020Y64209D02*
Y67616D01*
X159752Y55957D02*
X163195D01*
X155020Y48132D02*
Y51539D01*
X143892Y55957D02*
X147335D01*
X152066Y48132D02*
Y51539D01*
X56495Y148526D02*
Y151933D01*
X48321Y156351D02*
X51764D01*
X59449Y148526D02*
Y151933D01*
X64181Y156351D02*
X67624D01*
X59449Y164602D02*
Y168009D01*
X64181Y160185D02*
X67624D01*
X48321D02*
X51764D01*
X56495Y164602D02*
Y168009D01*
X53133Y46853D02*
Y50260D01*
X44959Y54677D02*
X48401D01*
X56087Y46853D02*
Y50260D01*
X60819Y54677D02*
X64262D01*
X56087Y62929D02*
Y66336D01*
X60819Y58512D02*
X64262D01*
X44959D02*
X48401D01*
X53133Y62929D02*
Y66336D01*
D28*
X0Y0D02*
Y200000D01*
X200000Y0D02*
Y200000D01*
D29*
X0D02*
X200000D01*
X0Y0D02*
X200000D01*
D65*
X123967Y98425D02*
D03*
X128004D02*
D03*
X110187D02*
D03*
X114224D02*
D03*
X114159Y121980D02*
D03*
X110122D02*
D03*
X94545D02*
D03*
X90508D02*
D03*
X94555Y98448D02*
D03*
X90518D02*
D03*
X80760Y98425D02*
D03*
X76722D02*
D03*
X80758Y122047D02*
D03*
X76720D02*
D03*
X123965D02*
D03*
X128002D02*
D03*
D66*
X125984Y86614D02*
D03*
Y90551D02*
D03*
Y94488D02*
D03*
X112205Y86614D02*
D03*
Y90551D02*
D03*
Y94488D02*
D03*
X112142Y133791D02*
D03*
Y129854D02*
D03*
Y125917D02*
D03*
X92528Y133791D02*
D03*
Y129854D02*
D03*
Y125917D02*
D03*
X92535Y94511D02*
D03*
Y90574D02*
D03*
Y86637D02*
D03*
X78740Y94488D02*
D03*
Y90551D02*
D03*
Y86614D02*
D03*
Y133858D02*
D03*
Y129921D02*
D03*
Y125984D02*
D03*
X125984D02*
D03*
Y129921D02*
D03*
Y133858D02*
D03*
D67*
Y88583D02*
D03*
Y96457D02*
D03*
Y92520D02*
D03*
X112205Y88583D02*
D03*
Y96457D02*
D03*
Y92520D02*
D03*
X112142Y131823D02*
D03*
Y123949D02*
D03*
Y127886D02*
D03*
X92528Y131823D02*
D03*
Y123949D02*
D03*
Y127886D02*
D03*
X92535Y92542D02*
D03*
Y96479D02*
D03*
Y88605D02*
D03*
X78740Y92520D02*
D03*
Y96457D02*
D03*
Y88583D02*
D03*
Y131890D02*
D03*
Y124016D02*
D03*
Y127953D02*
D03*
X125984D02*
D03*
Y124016D02*
D03*
Y131890D02*
D03*
D68*
X19158Y153091D02*
D03*
D69*
X24276Y158209D02*
D03*
X14039D02*
D03*
Y147972D02*
D03*
X24276D02*
D03*
D70*
X29669Y124803D02*
D03*
Y121260D02*
D03*
X86051Y114201D02*
D03*
Y110658D02*
D03*
X86783Y103646D02*
D03*
Y107189D02*
D03*
X35374Y113898D02*
D03*
Y117441D02*
D03*
X39676Y110299D02*
D03*
Y106756D02*
D03*
X115469Y118828D02*
D03*
Y115285D02*
D03*
X111844Y118828D02*
D03*
Y115285D02*
D03*
X127500Y118702D02*
D03*
Y115159D02*
D03*
X76904Y102165D02*
D03*
Y105709D02*
D03*
X94420Y102037D02*
D03*
Y105580D02*
D03*
X80709Y102165D02*
D03*
Y105709D02*
D03*
X90666Y102123D02*
D03*
Y105666D02*
D03*
X115551Y102096D02*
D03*
Y105639D02*
D03*
X111811Y102096D02*
D03*
Y105639D02*
D03*
X124640Y101989D02*
D03*
Y105533D02*
D03*
X128567Y101989D02*
D03*
Y105533D02*
D03*
X123655Y118701D02*
D03*
Y115157D02*
D03*
X77576Y118722D02*
D03*
Y115179D02*
D03*
X90500Y118702D02*
D03*
Y115159D02*
D03*
X94519Y118631D02*
D03*
Y115088D02*
D03*
X81529Y118701D02*
D03*
Y115157D02*
D03*
D71*
X123236Y185789D02*
D03*
X90953Y186240D02*
D03*
D72*
X104249Y103151D02*
D03*
X100706D02*
D03*
X101099Y116930D02*
D03*
X97556D02*
D03*
X27972Y113716D02*
D03*
X31516D02*
D03*
X32390Y108968D02*
D03*
X35933D02*
D03*
X33079Y153205D02*
D03*
X29535D02*
D03*
D73*
X10059Y97539D02*
D03*
Y103248D02*
D03*
X9864Y77461D02*
D03*
Y83169D02*
D03*
D74*
X141398Y77850D02*
D03*
X135689D02*
D03*
X141402Y82449D02*
D03*
X135693D02*
D03*
X141437Y87094D02*
D03*
X135728D02*
D03*
X141472Y91772D02*
D03*
X135764D02*
D03*
X141437Y96378D02*
D03*
X135728D02*
D03*
X141437Y100984D02*
D03*
X135728D02*
D03*
X141445Y105776D02*
D03*
X135736D02*
D03*
X141417Y138480D02*
D03*
X135709D02*
D03*
X141421Y133804D02*
D03*
X135713D02*
D03*
X141421Y129128D02*
D03*
X135713D02*
D03*
X141429Y124451D02*
D03*
X135721D02*
D03*
X141429Y119775D02*
D03*
X135721D02*
D03*
X141437Y115099D02*
D03*
X135728D02*
D03*
X141437Y110423D02*
D03*
X135728D02*
D03*
X65489Y111579D02*
D03*
X71198D02*
D03*
X65489Y116244D02*
D03*
X71198D02*
D03*
X65484Y120945D02*
D03*
X71193D02*
D03*
X65465Y125579D02*
D03*
X71173D02*
D03*
X65484Y130193D02*
D03*
X71193D02*
D03*
X65465Y134827D02*
D03*
X71173D02*
D03*
X65434Y139472D02*
D03*
X71143D02*
D03*
X65428Y78673D02*
D03*
X71137D02*
D03*
X65428Y83382D02*
D03*
X71137D02*
D03*
X65463Y88022D02*
D03*
X71172D02*
D03*
X65444Y92665D02*
D03*
X71152D02*
D03*
X65459Y97347D02*
D03*
X71168D02*
D03*
X65475Y102008D02*
D03*
X71184D02*
D03*
X65495Y106709D02*
D03*
X71204D02*
D03*
M02*
