G04 Layer_Color=128*
%FSLAX25Y25*%
%MOIN*%
G70*
G01*
G75*
%ADD28C,0.00984*%
%ADD29C,0.00984*%
%ADD122C,0.00200*%
D28*
X0Y0D02*
Y200000D01*
X200000Y0D02*
Y200000D01*
D29*
X0D02*
X200000D01*
X0Y0D02*
X200000D01*
D122*
X147638Y158268D02*
X159449D01*
X153543Y152362D02*
Y164173D01*
X122524Y79805D02*
X126524D01*
X124524Y77805D02*
Y81805D01*
X112524Y79805D02*
X116524D01*
X114524Y77805D02*
Y81805D01*
X18299Y138661D02*
X22299D01*
X20299Y136661D02*
Y140661D01*
X18299Y128661D02*
X22299D01*
X20299Y126661D02*
Y130661D01*
X147638Y57874D02*
X159449D01*
X153543Y51968D02*
Y63779D01*
X52067Y158268D02*
X63878D01*
X57972Y152362D02*
Y164173D01*
X48705Y56595D02*
X60516D01*
X54610Y50689D02*
Y62500D01*
X35090Y14245D02*
X37890D01*
X36490Y12845D02*
Y15645D01*
X35090Y19245D02*
X37890D01*
X36490Y17845D02*
Y20645D01*
X35090Y24245D02*
X37890D01*
X36490Y22845D02*
Y25645D01*
X40090Y24245D02*
X42890D01*
X41490Y22845D02*
Y25645D01*
X40090Y14245D02*
X42890D01*
X41490Y12845D02*
Y15645D01*
X40090Y19245D02*
X42890D01*
X41490Y17845D02*
Y20645D01*
X23931Y55968D02*
X26731D01*
X25331Y54568D02*
Y57368D01*
X23931Y60969D02*
X26731D01*
X25331Y59569D02*
Y62369D01*
X23931Y65969D02*
X26731D01*
X25331Y64569D02*
Y67369D01*
X28931Y65969D02*
X31731D01*
X30331Y64569D02*
Y67369D01*
X28931Y55968D02*
X31731D01*
X30331Y54568D02*
Y57368D01*
X28931Y60969D02*
X31731D01*
X30331Y59569D02*
Y62369D01*
X5500Y182500D02*
X9500D01*
X7500Y180500D02*
Y184500D01*
X5500Y172500D02*
X9500D01*
X7500Y170500D02*
Y174500D01*
X5500Y7500D02*
X9500D01*
X7500Y5500D02*
Y9500D01*
X5500Y17500D02*
X9500D01*
X7500Y15500D02*
Y19500D01*
X5500Y27500D02*
X9500D01*
X7500Y25500D02*
Y29500D01*
X5500Y37500D02*
X9500D01*
X7500Y35500D02*
Y39500D01*
X191000Y125512D02*
X195000D01*
X193000Y123512D02*
Y127512D01*
X191000Y135512D02*
X195000D01*
X193000Y133512D02*
Y137512D01*
X191000Y145512D02*
X195000D01*
X193000Y143512D02*
Y147512D01*
X191000Y155512D02*
X195000D01*
X193000Y153512D02*
Y157512D01*
X181000Y125512D02*
X185000D01*
X183000Y123512D02*
Y127512D01*
X181000Y135512D02*
X185000D01*
X183000Y133512D02*
Y137512D01*
X181000Y145512D02*
X185000D01*
X183000Y143512D02*
Y147512D01*
X181000Y155512D02*
X185000D01*
X183000Y153512D02*
Y157512D01*
X181000Y115512D02*
X185000D01*
X183000Y113512D02*
Y117512D01*
X181000Y105512D02*
X185000D01*
X183000Y103512D02*
Y107512D01*
X181000Y95512D02*
X185000D01*
X183000Y93512D02*
Y97512D01*
X181000Y85512D02*
X185000D01*
X183000Y83512D02*
Y87512D01*
X191000Y115512D02*
X195000D01*
X193000Y113512D02*
Y117512D01*
X191000Y105512D02*
X195000D01*
X193000Y103512D02*
Y107512D01*
X191000Y95512D02*
X195000D01*
X193000Y93512D02*
Y97512D01*
X191000Y85512D02*
X195000D01*
X193000Y83512D02*
Y87512D01*
X191000Y45512D02*
X195000D01*
X193000Y43512D02*
Y47512D01*
X191000Y55512D02*
X195000D01*
X193000Y53512D02*
Y57512D01*
X191000Y65512D02*
X195000D01*
X193000Y63512D02*
Y67512D01*
X191000Y75512D02*
X195000D01*
X193000Y73512D02*
Y77512D01*
X181000Y45512D02*
X185000D01*
X183000Y43512D02*
Y47512D01*
X181000Y55512D02*
X185000D01*
X183000Y53512D02*
Y57512D01*
X181000Y65512D02*
X185000D01*
X183000Y63512D02*
Y67512D01*
X181000Y75512D02*
X185000D01*
X183000Y73512D02*
Y77512D01*
X50596Y180462D02*
X63116D01*
X56856Y174202D02*
Y186722D01*
X147604Y29478D02*
X160124D01*
X153864Y23218D02*
Y35738D01*
X64086Y103393D02*
X64866D01*
X64476Y103003D02*
Y103782D01*
X68032Y115987D02*
X68813D01*
X68423Y115597D02*
Y116377D01*
X69953Y115987D02*
X70733D01*
X70343Y115597D02*
Y116377D01*
X68060Y119393D02*
X68840D01*
X68450Y119003D02*
Y119783D01*
X68060Y124073D02*
X68840D01*
X68450Y123683D02*
Y124463D01*
X68060Y128752D02*
X68840D01*
X68450Y128362D02*
Y129142D01*
X68060Y133431D02*
X68840D01*
X68450Y133041D02*
Y133821D01*
X68060Y138110D02*
X68840D01*
X68450Y137720D02*
Y138500D01*
X65952Y141047D02*
X66732D01*
X66342Y140657D02*
Y141437D01*
X65952Y117524D02*
X66732D01*
X66342Y117134D02*
Y117914D01*
X65952Y122228D02*
X66732D01*
X66342Y121838D02*
Y122618D01*
X65952Y126933D02*
X66732D01*
X66342Y126543D02*
Y127323D01*
X65952Y131638D02*
X66732D01*
X66342Y131248D02*
Y132028D01*
X65952Y136343D02*
X66732D01*
X66342Y135952D02*
Y136732D01*
X64086Y141047D02*
X64866D01*
X64476Y140657D02*
Y141437D01*
X140478Y139401D02*
X141258D01*
X140868Y139011D02*
Y139791D01*
X100397Y105512D02*
X101177D01*
X100787Y105122D02*
Y105902D01*
X119926Y104320D02*
X120706D01*
X120316Y103930D02*
Y104710D01*
X111425Y110528D02*
X112205D01*
X111815Y110138D02*
Y110918D01*
X112857Y122003D02*
X113637D01*
X113247Y121613D02*
Y122393D01*
X114825Y122003D02*
X115605D01*
X115215Y121613D02*
Y122393D01*
X111536Y106428D02*
X112316D01*
X111926Y106038D02*
Y106818D01*
X114627Y114497D02*
X115407D01*
X115017Y114107D02*
Y114887D01*
X115079Y106554D02*
X115859D01*
X115469Y106164D02*
Y106944D01*
X124135Y106428D02*
X124915D01*
X124524Y106038D02*
Y106818D01*
X123347Y114252D02*
X124127D01*
X123737Y113862D02*
Y114642D01*
X103465Y116860D02*
X104245D01*
X103855Y116470D02*
Y117250D01*
X120394Y111812D02*
X121174D01*
X120784Y111422D02*
Y112202D01*
X114766Y108661D02*
X115546D01*
X115156Y108271D02*
Y109051D01*
X111454Y114371D02*
X112234D01*
X111844Y113981D02*
Y114761D01*
X103560Y105703D02*
X104340D01*
X103950Y105313D02*
Y106093D01*
X108310Y118200D02*
X109090D01*
X108700Y117810D02*
Y118590D01*
X162886Y165748D02*
X163886D01*
X163386Y165248D02*
Y166248D01*
X143201Y165354D02*
X144201D01*
X143701Y164854D02*
Y165854D01*
X172728Y155905D02*
X173728D01*
X173228Y155405D02*
Y156405D01*
X69886Y111387D02*
X70666D01*
X70276Y110997D02*
Y111777D01*
X65952Y112819D02*
X66732D01*
X66342Y112429D02*
Y113209D01*
X68088Y111400D02*
X68868D01*
X68478Y111010D02*
Y111790D01*
X54631Y110333D02*
X55411D01*
X55021Y109943D02*
Y110723D01*
X65952Y108114D02*
X66732D01*
X66342Y107724D02*
Y108504D01*
X68060Y105356D02*
X68840D01*
X68450Y104966D02*
Y105746D01*
X64086Y108099D02*
X64866D01*
X64476Y107709D02*
Y108489D01*
X64086Y112806D02*
X64866D01*
X64476Y112416D02*
Y113196D01*
X134415Y137550D02*
X135195D01*
X134805Y137160D02*
Y137940D01*
X136260Y109629D02*
X137040D01*
X136650Y109239D02*
Y110019D01*
X134415Y118936D02*
X135195D01*
X134805Y118546D02*
Y119326D01*
X99251Y94107D02*
X100031D01*
X99641Y93717D02*
Y94497D01*
X105563Y94106D02*
X106343D01*
X105954Y93716D02*
Y94496D01*
X102414Y94106D02*
X103194D01*
X102804Y93716D02*
Y94496D01*
X100652Y91801D02*
X101432D01*
X101042Y91411D02*
Y92191D01*
X103814Y91800D02*
X104594D01*
X104204Y91410D02*
Y92190D01*
X99251Y89473D02*
X100031D01*
X99641Y89083D02*
Y89863D01*
X105563Y89472D02*
X106343D01*
X105954Y89082D02*
Y89862D01*
X102414Y89472D02*
X103194D01*
X102804Y89082D02*
Y89862D01*
X100652Y87165D02*
X101432D01*
X101042Y86775D02*
Y87555D01*
X100652Y96437D02*
X101432D01*
X101042Y96047D02*
Y96827D01*
X103814Y87164D02*
X104594D01*
X104204Y86774D02*
Y87554D01*
X103814Y96436D02*
X104594D01*
X104204Y96046D02*
Y96826D01*
X64086Y79858D02*
X64866D01*
X64476Y79468D02*
Y80248D01*
X65952Y79886D02*
X66732D01*
X66342Y79496D02*
Y80276D01*
X64086Y84565D02*
X64866D01*
X64476Y84175D02*
Y84955D01*
X65952Y84591D02*
X66732D01*
X66342Y84201D02*
Y84981D01*
X65952Y89295D02*
X66732D01*
X66342Y88905D02*
Y89685D01*
X64086Y89272D02*
X64866D01*
X64476Y88882D02*
Y89662D01*
X65952Y94000D02*
X66732D01*
X66342Y93610D02*
Y94390D01*
X64086Y93979D02*
X64866D01*
X64476Y93589D02*
Y94369D01*
X65952Y98705D02*
X66732D01*
X66342Y98315D02*
Y99095D01*
X64086Y98686D02*
X64866D01*
X64476Y98296D02*
Y99076D01*
X65952Y103410D02*
X66732D01*
X66342Y103019D02*
Y103799D01*
X64086Y117513D02*
X64866D01*
X64476Y117123D02*
Y117903D01*
X64086Y122220D02*
X64866D01*
X64476Y121830D02*
Y122610D01*
X64086Y126927D02*
X64866D01*
X64476Y126537D02*
Y127317D01*
X64086Y131633D02*
X64866D01*
X64476Y131244D02*
Y132024D01*
X68060Y77281D02*
X68840D01*
X68450Y76891D02*
Y77671D01*
X69954Y77281D02*
X70733D01*
X70344Y76891D02*
Y77671D01*
X68060Y81960D02*
X68840D01*
X68450Y81570D02*
Y82350D01*
X69954Y81960D02*
X70733D01*
X70344Y81570D02*
Y82350D01*
X68060Y86639D02*
X68840D01*
X68450Y86249D02*
Y87029D01*
X69954Y86639D02*
X70733D01*
X70344Y86249D02*
Y87029D01*
X68060Y91318D02*
X68840D01*
X68450Y90928D02*
Y91708D01*
X69954Y91318D02*
X70733D01*
X70344Y90928D02*
Y91708D01*
X68060Y95998D02*
X68840D01*
X68450Y95608D02*
Y96388D01*
X69954Y95998D02*
X70733D01*
X70344Y95608D02*
Y96388D01*
X68060Y100677D02*
X68840D01*
X68450Y100287D02*
Y101067D01*
X69954Y100677D02*
X70733D01*
X70344Y100287D02*
Y101067D01*
X69954Y105356D02*
X70733D01*
X70344Y104966D02*
Y105746D01*
X69954Y119393D02*
X70733D01*
X70344Y119003D02*
Y119783D01*
X69954Y124073D02*
X70733D01*
X70344Y123683D02*
Y124463D01*
X69954Y128752D02*
X70733D01*
X70344Y128362D02*
Y129142D01*
X69954Y133431D02*
X70733D01*
X70344Y133041D02*
Y133821D01*
X74282Y165396D02*
X75282D01*
X74782Y164896D02*
Y165896D01*
X103809Y165396D02*
X104809D01*
X104309Y164896D02*
Y165896D01*
X84124Y165396D02*
X85124D01*
X84624Y164896D02*
Y165896D01*
X117633Y183967D02*
X118633D01*
X118133Y183467D02*
Y184467D01*
X127476Y183967D02*
X128476D01*
X127976Y183467D02*
Y184467D01*
X100181Y124006D02*
X100961D01*
X100571Y123616D02*
Y124396D01*
X75594Y125984D02*
X76374D01*
X75984Y125594D02*
Y126374D01*
X81131Y145197D02*
X81911D01*
X81521Y144807D02*
Y145587D01*
X94220Y145150D02*
X95000D01*
X94610Y144760D02*
Y145540D01*
X114394Y144945D02*
X115174D01*
X114784Y144555D02*
Y145335D01*
X85614Y116500D02*
X86394D01*
X86004Y116110D02*
Y116890D01*
X64086Y136340D02*
X64866D01*
X64476Y135950D02*
Y136730D01*
X138228Y125407D02*
X139008D01*
X138618Y125017D02*
Y125797D01*
X136260Y123590D02*
X137040D01*
X136650Y123199D02*
Y123979D01*
X60543Y116674D02*
X61323D01*
X60933Y116285D02*
Y117064D01*
X94074Y106187D02*
X94854D01*
X94464Y105797D02*
Y106577D01*
X99528Y119913D02*
X100308D01*
X99918Y119523D02*
Y120303D01*
X123441Y152732D02*
X124441D01*
X123941Y152232D02*
Y153232D01*
X138228Y130071D02*
X139008D01*
X138618Y129681D02*
Y130461D01*
X122838Y133858D02*
X123618D01*
X123228Y133468D02*
Y134248D01*
X109177Y63279D02*
X110177D01*
X109677Y62779D02*
Y63779D01*
X161598Y96949D02*
X162598D01*
X162098Y96449D02*
Y97449D01*
X108064Y101602D02*
X108844D01*
X108454Y101212D02*
Y101992D01*
X74523Y107866D02*
X75303D01*
X74913Y107476D02*
Y108256D01*
X74449Y110055D02*
X75229D01*
X74839Y109665D02*
Y110445D01*
X138228Y78759D02*
X139008D01*
X138618Y78369D02*
Y79149D01*
X21429Y115756D02*
X22209D01*
X21819Y115366D02*
Y116146D01*
X85917Y27713D02*
X86917D01*
X86417Y27213D02*
Y28213D01*
X111829Y96471D02*
X112609D01*
X112219Y96081D02*
Y96861D01*
X113795Y96471D02*
X114575D01*
X114185Y96081D02*
Y96861D01*
X109859Y96471D02*
X110639D01*
X110249Y96081D02*
Y96861D01*
X69954Y138110D02*
X70733D01*
X70344Y137720D02*
Y138500D01*
X95140Y133806D02*
X95920D01*
X95530Y133416D02*
Y134196D01*
X113838Y123961D02*
X114618D01*
X114228Y123571D02*
Y124351D01*
X114815Y125937D02*
X115595D01*
X115205Y125547D02*
Y126327D01*
X112827Y125925D02*
X113607D01*
X113216Y125535D02*
Y126315D01*
X110888Y125925D02*
X111668D01*
X111278Y125535D02*
Y126315D01*
X108952Y125917D02*
X109732D01*
X109343Y125527D02*
Y126307D01*
X111871Y127909D02*
X112651D01*
X112261Y127518D02*
Y128298D01*
X113841Y127910D02*
X114621D01*
X114231Y127520D02*
Y128300D01*
X109904Y127910D02*
X110684D01*
X110294Y127520D02*
Y128300D01*
X75199Y86614D02*
X75979D01*
X75589Y86224D02*
Y87004D01*
X77169Y86637D02*
X77949D01*
X77559Y86247D02*
Y87027D01*
X75199Y90574D02*
X75979D01*
X75589Y90184D02*
Y90964D01*
X77186Y90553D02*
X77966D01*
X77576Y90163D02*
Y90943D01*
X75201Y94488D02*
X75981D01*
X75591Y94098D02*
Y94878D01*
X143201Y125221D02*
X144201D01*
X143701Y124721D02*
Y125721D01*
X140478Y111412D02*
X141258D01*
X140868Y111022D02*
Y111802D01*
X138228Y111412D02*
X139008D01*
X138618Y111022D02*
Y111802D01*
X140478Y125407D02*
X141258D01*
X140868Y125017D02*
Y125797D01*
X140478Y134736D02*
X141258D01*
X140868Y134346D02*
Y135126D01*
X138228Y134736D02*
X139008D01*
X138618Y134346D02*
Y135126D01*
X136260Y137550D02*
X137040D01*
X136650Y137160D02*
Y137940D01*
X136260Y132897D02*
X137040D01*
X136650Y132507D02*
Y133287D01*
X136260Y128243D02*
X137040D01*
X136650Y127853D02*
Y128633D01*
X136260Y114282D02*
X137040D01*
X136650Y113892D02*
Y114672D01*
X136260Y81707D02*
X137040D01*
X136650Y81317D02*
Y82097D01*
X136260Y86361D02*
X137040D01*
X136650Y85970D02*
Y86751D01*
X136260Y91014D02*
X137040D01*
X136650Y90624D02*
Y91404D01*
X136260Y95668D02*
X137040D01*
X136650Y95278D02*
Y96058D01*
X136260Y100321D02*
X137040D01*
X136650Y99931D02*
Y100711D01*
X136260Y104975D02*
X137040D01*
X136650Y104585D02*
Y105365D01*
X138228Y106747D02*
X139008D01*
X138618Y106357D02*
Y107137D01*
X140478Y106747D02*
X141258D01*
X140868Y106357D02*
Y107137D01*
X140478Y78759D02*
X141258D01*
X140868Y78369D02*
Y79149D01*
X138228Y83423D02*
X139008D01*
X138618Y83033D02*
Y83813D01*
X140478Y83423D02*
X141258D01*
X140868Y83033D02*
Y83813D01*
X138228Y88088D02*
X139008D01*
X138618Y87698D02*
Y88478D01*
X140478Y88088D02*
X141258D01*
X140868Y87698D02*
Y88478D01*
X138228Y92753D02*
X139008D01*
X138618Y92363D02*
Y93143D01*
X140478Y92753D02*
X141258D01*
X140868Y92363D02*
Y93143D01*
X138228Y97418D02*
X139008D01*
X138618Y97028D02*
Y97808D01*
X140478Y97418D02*
X141258D01*
X140868Y97028D02*
Y97808D01*
X138228Y102083D02*
X139008D01*
X138618Y101693D02*
Y102473D01*
X140478Y102083D02*
X141258D01*
X140868Y101693D02*
Y102473D01*
X95140Y129871D02*
X95920D01*
X95530Y129481D02*
Y130261D01*
X162886Y86614D02*
X163886D01*
X163386Y86114D02*
Y87114D01*
X143201Y135827D02*
X144201D01*
X143701Y135327D02*
Y136327D01*
X162886Y135827D02*
X163886D01*
X163386Y135327D02*
Y136327D01*
X153043Y135827D02*
X154043D01*
X153543Y135327D02*
Y136327D01*
X153043Y125984D02*
X154043D01*
X153543Y125484D02*
Y126484D01*
X162886Y125984D02*
X163886D01*
X163386Y125484D02*
Y126484D01*
X162886Y116142D02*
X163886D01*
X163386Y115642D02*
Y116642D01*
X153043Y116142D02*
X154043D01*
X153543Y115642D02*
Y116642D01*
X162886Y106299D02*
X163886D01*
X163386Y105799D02*
Y106799D01*
X153043Y106299D02*
X154043D01*
X153543Y105799D02*
Y106799D01*
X153153Y86614D02*
X153933D01*
X153543Y86224D02*
Y87004D01*
X153153Y96457D02*
X153933D01*
X153543Y96067D02*
Y96847D01*
X66429Y47244D02*
X67429D01*
X66929Y46744D02*
Y47744D01*
X66429Y57087D02*
X67429D01*
X66929Y56587D02*
Y57587D01*
X172728Y116535D02*
X173728D01*
X173228Y116035D02*
Y117035D01*
X172728Y96850D02*
X173728D01*
X173228Y96350D02*
Y97350D01*
X93988Y185039D02*
X94988D01*
X94488Y184539D02*
Y185539D01*
X84146Y185039D02*
X85146D01*
X84646Y184539D02*
Y185539D01*
X93988Y175197D02*
X94988D01*
X94488Y174697D02*
Y175697D01*
X84146Y175197D02*
X85146D01*
X84646Y174697D02*
Y175697D01*
X113673Y165354D02*
X114673D01*
X114173Y164854D02*
Y165854D01*
X103831Y175197D02*
X104831D01*
X104331Y174697D02*
Y175697D01*
X113673Y175197D02*
X114673D01*
X114173Y174697D02*
Y175697D01*
X103831Y185039D02*
X104831D01*
X104331Y184539D02*
Y185539D01*
X113673Y185039D02*
X114673D01*
X114173Y184539D02*
Y185539D01*
X182571Y185433D02*
X183571D01*
X183071Y184933D02*
Y185933D01*
X172728Y185433D02*
X173728D01*
X173228Y184933D02*
Y185933D01*
X162886Y185039D02*
X163886D01*
X163386Y184539D02*
Y185539D01*
X153043Y185039D02*
X154043D01*
X153543Y184539D02*
Y185539D01*
X143201Y185039D02*
X144201D01*
X143701Y184539D02*
Y185539D01*
X182571Y175591D02*
X183571D01*
X183071Y175091D02*
Y176091D01*
X172728Y175591D02*
X173728D01*
X173228Y175091D02*
Y176091D01*
X162886Y175197D02*
X163886D01*
X163386Y174697D02*
Y175697D01*
X153043Y175197D02*
X154043D01*
X153543Y174697D02*
Y175697D01*
X143201Y175197D02*
X144201D01*
X143701Y174697D02*
Y175697D01*
X182571Y165748D02*
X183571D01*
X183071Y165248D02*
Y166248D01*
X172728Y165748D02*
X173728D01*
X173228Y165248D02*
Y166248D01*
X192413Y165748D02*
X193413D01*
X192913Y165248D02*
Y166248D01*
X192413Y175591D02*
X193413D01*
X192913Y175091D02*
Y176091D01*
X192413Y185433D02*
X193413D01*
X192913Y184933D02*
Y185933D01*
X192413Y27953D02*
X193413D01*
X192913Y27453D02*
Y28453D01*
X192413Y18110D02*
X193413D01*
X192913Y17610D02*
Y18610D01*
X192413Y8268D02*
X193413D01*
X192913Y7768D02*
Y8768D01*
X172728Y8268D02*
X173728D01*
X173228Y7768D02*
Y8768D01*
X182571Y8268D02*
X183571D01*
X183071Y7768D02*
Y8768D01*
X162886Y17717D02*
X163886D01*
X163386Y17217D02*
Y18216D01*
X172728Y18110D02*
X173728D01*
X173228Y17610D02*
Y18610D01*
X182571Y18110D02*
X183571D01*
X183071Y17610D02*
Y18610D01*
X162937Y24118D02*
X163937D01*
X163437Y23618D02*
Y24618D01*
X172728Y27953D02*
X173728D01*
X173228Y27453D02*
Y28453D01*
X182571Y27953D02*
X183571D01*
X183071Y27453D02*
Y28453D01*
X172728Y136221D02*
X173728D01*
X173228Y135721D02*
Y136721D01*
X172728Y146063D02*
X173728D01*
X173228Y145563D02*
Y146563D01*
X162886Y145669D02*
X163886D01*
X163386Y145169D02*
Y146169D01*
X172728Y47638D02*
X173728D01*
X173228Y47138D02*
Y48138D01*
X182571Y37795D02*
X183571D01*
X183071Y37295D02*
Y38295D01*
X172728Y57480D02*
X173728D01*
X173228Y56980D02*
Y57980D01*
X172728Y67323D02*
X173728D01*
X173228Y66823D02*
Y67823D01*
X123516Y165354D02*
X124516D01*
X124016Y164854D02*
Y165854D01*
X133358Y165354D02*
X134358D01*
X133858Y164854D02*
Y165854D01*
X123516Y175197D02*
X124516D01*
X124016Y174697D02*
Y175697D01*
X133358Y175197D02*
X134358D01*
X133858Y174697D02*
Y175697D01*
X133358Y185039D02*
X134358D01*
X133858Y184539D02*
Y185539D01*
X172728Y126378D02*
X173728D01*
X173228Y125878D02*
Y126878D01*
X192413Y37795D02*
X193413D01*
X192913Y37295D02*
Y38295D01*
X25091Y135827D02*
X26091D01*
X25591Y135327D02*
Y136327D01*
X66429Y27559D02*
X67429D01*
X66929Y27059D02*
Y28059D01*
X66429Y17717D02*
X67429D01*
X66929Y17217D02*
Y18216D01*
X66429Y7874D02*
X67429D01*
X66929Y7374D02*
Y8374D01*
X15248Y135827D02*
X16248D01*
X15748Y135327D02*
Y136327D01*
X165205Y37657D02*
X166205D01*
X165705Y37157D02*
Y38157D01*
X143366Y37941D02*
X144366D01*
X143866Y37441D02*
Y38441D01*
X172728Y37795D02*
X173728D01*
X173228Y37295D02*
Y38295D01*
X29531Y173622D02*
X30311D01*
X29921Y173232D02*
Y174012D01*
X29531Y181102D02*
X30311D01*
X29921Y180712D02*
Y181492D01*
X16539Y174409D02*
X17319D01*
X16929Y174020D02*
Y174800D01*
X34833Y194912D02*
X35833D01*
X35333Y194412D02*
Y195412D01*
X34833Y185069D02*
X35833D01*
X35333Y184569D02*
Y185569D01*
X15148Y194912D02*
X16148D01*
X15648Y194412D02*
Y195412D01*
X24991Y194912D02*
X25991D01*
X25491Y194412D02*
Y195412D01*
X44676Y194912D02*
X45676D01*
X45176Y194412D02*
Y195412D01*
X44676Y185069D02*
X45676D01*
X45176Y184569D02*
Y185569D01*
X74303Y175197D02*
X75303D01*
X74803Y174697D02*
Y175697D01*
X64461Y175197D02*
X65461D01*
X64961Y174697D02*
Y175697D01*
X172728Y106693D02*
X173728D01*
X173228Y106193D02*
Y107193D01*
X45673Y166535D02*
X46453D01*
X46063Y166145D02*
Y166925D01*
X64461Y194882D02*
X65461D01*
X64961Y194382D02*
Y195382D01*
X74421Y180209D02*
X75421D01*
X74921Y179709D02*
Y180709D01*
X133358Y194882D02*
X134358D01*
X133858Y194382D02*
Y195382D01*
X123516Y194882D02*
X124516D01*
X124016Y194382D02*
Y195382D01*
X143201Y194882D02*
X144201D01*
X143701Y194382D02*
Y195382D01*
X153043Y194882D02*
X154043D01*
X153543Y194382D02*
Y195382D01*
X162886Y194882D02*
X163886D01*
X163386Y194382D02*
Y195382D01*
X172728Y195276D02*
X173728D01*
X173228Y194776D02*
Y195776D01*
X113673Y194882D02*
X114673D01*
X114173Y194382D02*
Y195382D01*
X103831Y194882D02*
X104831D01*
X104331Y194382D02*
Y195382D01*
X84146Y194882D02*
X85146D01*
X84646Y194382D02*
Y195382D01*
X93988Y194882D02*
X94988D01*
X94488Y194382D02*
Y195382D01*
X93988Y165354D02*
X94988D01*
X94488Y164854D02*
Y165854D01*
X93988Y155512D02*
X94988D01*
X94488Y155012D02*
Y156012D01*
X103732Y155512D02*
X104732D01*
X104232Y155012D02*
Y156012D01*
X113575Y155512D02*
X114575D01*
X114075Y155012D02*
Y156012D01*
X35299Y155303D02*
X36299D01*
X35799Y154803D02*
Y155803D01*
X44776Y155512D02*
X45776D01*
X45276Y155012D02*
Y156012D01*
X34933Y145669D02*
X35933D01*
X35433Y145169D02*
Y146169D01*
X44776Y145669D02*
X45776D01*
X45276Y145169D02*
Y146169D01*
X18114Y18701D02*
X18894D01*
X18504Y18311D02*
Y19091D01*
X19072Y9760D02*
X19852D01*
X19462Y9370D02*
Y10150D01*
X22715Y9760D02*
X23495D01*
X23106Y9370D02*
Y10150D01*
X40547Y34055D02*
X41327D01*
X40937Y33665D02*
Y34445D01*
X35313Y46024D02*
X36092D01*
X35702Y45634D02*
Y46414D01*
X19342Y33268D02*
X20122D01*
X19732Y32878D02*
Y33658D01*
X22937Y33268D02*
X23717D01*
X23327Y32878D02*
Y33658D01*
X15337Y12205D02*
X16337D01*
X15837Y11705D02*
Y12705D01*
X18990Y42126D02*
X19770D01*
X19380Y41736D02*
Y42516D01*
X35622Y31693D02*
X36402D01*
X36012Y31303D02*
Y32083D01*
X9846Y102362D02*
X10626D01*
X10236Y101972D02*
Y102752D01*
X9669Y97244D02*
X10449D01*
X10059Y96854D02*
Y97634D01*
X9474Y83465D02*
X10254D01*
X9864Y83075D02*
Y83855D01*
X9474Y76772D02*
X10254D01*
X9864Y76382D02*
Y77162D01*
X14177Y102954D02*
X14957D01*
X14567Y102564D02*
Y103344D01*
X14000Y82677D02*
X14780D01*
X14390Y82287D02*
Y83067D01*
X15519Y51496D02*
X16519D01*
X16019Y50996D02*
Y51996D01*
X24064Y81912D02*
X25064D01*
X24564Y81412D02*
Y82412D01*
X61421Y83071D02*
X62201D01*
X61811Y82681D02*
Y83461D01*
X23910Y102362D02*
X24909D01*
X24409Y101862D02*
Y102862D01*
X17326Y72926D02*
X18106D01*
X17717Y72536D02*
Y73316D01*
X17326Y92931D02*
X18106D01*
X17717Y92541D02*
Y93321D01*
X24413Y43701D02*
X25193D01*
X24803Y43311D02*
Y44091D01*
X10547Y47638D02*
X11327D01*
X10937Y47248D02*
Y48028D01*
X21141Y75904D02*
X21921D01*
X21531Y75514D02*
Y76294D01*
X24064Y78221D02*
X25064D01*
X24564Y77721D02*
Y78721D01*
X14309Y96335D02*
X15309D01*
X14809Y95835D02*
Y96835D01*
X10320Y64173D02*
X11320D01*
X10820Y63673D02*
Y64673D01*
X20968Y96063D02*
X21748D01*
X21358Y95673D02*
Y96453D01*
X14536Y76764D02*
X15536D01*
X15036Y76264D02*
Y77264D01*
X40334Y46260D02*
X41114D01*
X40724Y45870D02*
Y46650D01*
X27563Y20866D02*
X28343D01*
X27953Y20476D02*
Y21256D01*
X26469Y12205D02*
X27468D01*
X26969Y11705D02*
Y12705D01*
X23823Y19094D02*
X24603D01*
X24213Y18704D02*
Y19485D01*
X12098Y42520D02*
X13098D01*
X12598Y42020D02*
Y43020D01*
X14984Y86614D02*
X15764D01*
X15374Y86224D02*
Y87004D01*
X22445Y84806D02*
X23225D01*
X22835Y84416D02*
Y85196D01*
X23910Y98819D02*
X24909D01*
X24409Y98319D02*
Y99319D01*
X122445Y86616D02*
X123225D01*
X122835Y86226D02*
Y87006D01*
X124413Y86616D02*
X125193D01*
X124803Y86226D02*
Y87006D01*
X126382Y86616D02*
X127162D01*
X126772Y86226D02*
Y87006D01*
X128350Y86616D02*
X129130D01*
X128740Y86226D02*
Y87006D01*
X122838Y125984D02*
X123618D01*
X123228Y125594D02*
Y126374D01*
X124807Y125984D02*
X125587D01*
X125197Y125594D02*
Y126374D01*
X126775Y125984D02*
X127555D01*
X127165Y125594D02*
Y126374D01*
X126775Y122047D02*
X127555D01*
X127165Y121657D02*
Y122437D01*
X128744Y122047D02*
X129524D01*
X129134Y121657D02*
Y122437D01*
X128744Y125986D02*
X129524D01*
X129134Y125596D02*
Y126376D01*
X75594Y129921D02*
X76374D01*
X75984Y129531D02*
Y130311D01*
X81500Y125986D02*
X82280D01*
X81890Y125596D02*
Y126376D01*
X81500Y122047D02*
X82280D01*
X81890Y121657D02*
Y122437D01*
X79531Y122047D02*
X80311D01*
X79921Y121657D02*
Y122437D01*
X81500Y129921D02*
X82280D01*
X81890Y129531D02*
Y130311D01*
X79531Y125984D02*
X80311D01*
X79921Y125594D02*
Y126374D01*
X77563Y125984D02*
X78343D01*
X77953Y125594D02*
Y126374D01*
X79531Y129921D02*
X80311D01*
X79921Y129531D02*
Y130311D01*
X81500Y133858D02*
X82280D01*
X81890Y133468D02*
Y134248D01*
X79531Y133858D02*
X80311D01*
X79921Y133468D02*
Y134248D01*
X77563Y133858D02*
X78343D01*
X77953Y133468D02*
Y134248D01*
X77563Y129921D02*
X78343D01*
X77953Y129531D02*
Y130311D01*
X93172Y121995D02*
X93952D01*
X93562Y121605D02*
Y122385D01*
X93172Y129869D02*
X93952D01*
X93562Y129479D02*
Y130259D01*
X91203Y129869D02*
X91983D01*
X91593Y129479D02*
Y130259D01*
X91202Y133806D02*
X91982D01*
X91592Y133416D02*
Y134196D01*
X93171Y133806D02*
X93951D01*
X93561Y133416D02*
Y134196D01*
X93171Y125932D02*
X93951D01*
X93561Y125542D02*
Y126322D01*
X91202Y125932D02*
X91982D01*
X91592Y125542D02*
Y126322D01*
X89233Y125932D02*
X90013D01*
X89623Y125542D02*
Y126322D01*
X90219Y123964D02*
X90999D01*
X90609Y123574D02*
Y124354D01*
X92185Y123964D02*
X92966D01*
X92576Y123574D02*
Y124354D01*
X92188Y131838D02*
X92967D01*
X92577Y131448D02*
Y132228D01*
X90219Y131838D02*
X90999D01*
X90609Y131448D02*
Y132228D01*
X92185Y127901D02*
X92966D01*
X92576Y127511D02*
Y128291D01*
X95140Y125932D02*
X95920D01*
X95530Y125542D02*
Y126322D01*
X95140Y121995D02*
X95920D01*
X95530Y121605D02*
Y122385D01*
X89235Y129871D02*
X90015D01*
X89625Y129481D02*
Y130261D01*
X89233Y133808D02*
X90013D01*
X89623Y133418D02*
Y134198D01*
X94156Y123964D02*
X94936D01*
X94546Y123574D02*
Y124354D01*
X94156Y127902D02*
X94936D01*
X94546Y127513D02*
Y128293D01*
X94156Y131840D02*
X94936D01*
X94546Y131449D02*
Y132229D01*
X90219Y127902D02*
X90999D01*
X90609Y127513D02*
Y128293D01*
X111871Y123971D02*
X112651D01*
X112261Y123581D02*
Y124361D01*
X110844Y90574D02*
X111624D01*
X111234Y90184D02*
Y90964D01*
X112813Y90574D02*
X113593D01*
X113203Y90184D02*
Y90964D01*
X112814Y86637D02*
X113594D01*
X113204Y86247D02*
Y87027D01*
X110845Y86637D02*
X111625D01*
X111235Y86247D02*
Y87027D01*
X110845Y94511D02*
X111625D01*
X111235Y94121D02*
Y94901D01*
X112814Y94511D02*
X113594D01*
X113204Y94121D02*
Y94901D01*
X114783Y94511D02*
X115563D01*
X115173Y94121D02*
Y94901D01*
X111829Y88605D02*
X112609D01*
X112219Y88216D02*
Y88995D01*
X113797Y88605D02*
X114577D01*
X114187Y88216D02*
Y88995D01*
X111830Y92542D02*
X112610D01*
X112221Y92153D02*
Y92932D01*
X108876Y94511D02*
X109656D01*
X109266Y94121D02*
Y94901D01*
X108876Y90572D02*
X109656D01*
X109266Y90182D02*
Y90962D01*
X108876Y86637D02*
X109656D01*
X109266Y86247D02*
Y87027D01*
X114781Y90572D02*
X115561D01*
X115171Y90182D02*
Y90962D01*
X114783Y86635D02*
X115563D01*
X115173Y86245D02*
Y87025D01*
X109860Y92541D02*
X110640D01*
X110250Y92151D02*
Y92931D01*
X109860Y88604D02*
X110640D01*
X110250Y88213D02*
Y88994D01*
X113797Y92541D02*
X114577D01*
X114187Y92151D02*
Y92931D01*
X91159Y90574D02*
X91939D01*
X91549Y90184D02*
Y90964D01*
X91160Y94511D02*
X91940D01*
X91550Y94121D02*
Y94901D01*
X95098Y94511D02*
X95878D01*
X95488Y94121D02*
Y94901D01*
X89191Y94511D02*
X89971D01*
X89581Y94121D02*
Y94901D01*
X89191Y90572D02*
X89971D01*
X89581Y90182D02*
Y90962D01*
X89191Y86637D02*
X89971D01*
X89581Y86247D02*
Y87027D01*
X89191Y98448D02*
X89971D01*
X89581Y98058D02*
Y98838D01*
X90175Y92541D02*
X90955D01*
X90565Y92151D02*
Y92931D01*
X90175Y88604D02*
X90955D01*
X90565Y88213D02*
Y88994D01*
X128406Y106554D02*
X129186D01*
X128796Y106164D02*
Y106944D01*
X127261Y114252D02*
X128041D01*
X127651Y113862D02*
Y114642D01*
X90276Y114252D02*
X91056D01*
X90666Y113862D02*
Y114642D01*
X90276Y106000D02*
X91056D01*
X90666Y105610D02*
Y106390D01*
X80393Y106101D02*
X81173D01*
X80783Y105711D02*
Y106491D01*
X77284Y114497D02*
X78064D01*
X77674Y114107D02*
Y114887D01*
X81169Y114497D02*
X81949D01*
X81559Y114107D02*
Y114887D01*
X54728Y113584D02*
X55508D01*
X55118Y113194D02*
Y113974D01*
X81106Y86616D02*
X81886D01*
X81496Y86226D02*
Y87006D01*
X79138Y86616D02*
X79918D01*
X79528Y86226D02*
Y87006D01*
X81106Y90553D02*
X81886D01*
X81496Y90163D02*
Y90943D01*
X79138Y90553D02*
X79918D01*
X79528Y90163D02*
Y90943D01*
X81106Y94490D02*
X81886D01*
X81496Y94100D02*
Y94880D01*
X79138Y94490D02*
X79918D01*
X79528Y94100D02*
Y94880D01*
X76272Y7874D02*
X77272D01*
X76772Y7374D02*
Y8374D01*
X76272Y27559D02*
X77272D01*
X76772Y27059D02*
Y28059D01*
X76272Y47244D02*
X77272D01*
X76772Y46744D02*
Y47744D01*
X76272Y57087D02*
X77272D01*
X76772Y56587D02*
Y57587D01*
X77169Y94490D02*
X77949D01*
X77559Y94100D02*
Y94880D01*
X76272Y17717D02*
X77272D01*
X76772Y17217D02*
Y18216D01*
X77169Y98427D02*
X77949D01*
X77559Y98037D02*
Y98817D01*
X75201Y98427D02*
X75981D01*
X75591Y98037D02*
Y98817D01*
X112857Y129877D02*
X113637D01*
X113247Y129487D02*
Y130267D01*
X108920Y129879D02*
X109700D01*
X109310Y129489D02*
Y130269D01*
X110888Y129877D02*
X111668D01*
X111278Y129487D02*
Y130267D01*
X109904Y123971D02*
X110684D01*
X110294Y123581D02*
Y124361D01*
X75594Y133858D02*
X76374D01*
X75984Y133468D02*
Y134248D01*
X114825Y129879D02*
X115605D01*
X115215Y129489D02*
Y130269D01*
X108918Y133816D02*
X109698D01*
X109308Y133426D02*
Y134206D01*
X110887Y133814D02*
X111667D01*
X111277Y133424D02*
Y134204D01*
X112856Y133814D02*
X113636D01*
X113246Y133424D02*
Y134204D01*
X114825Y133814D02*
X115605D01*
X115215Y133424D02*
Y134204D01*
X111872Y131845D02*
X112653D01*
X112262Y131456D02*
Y132236D01*
X113841Y131847D02*
X114621D01*
X114231Y131457D02*
Y132237D01*
X109904Y131845D02*
X110684D01*
X110294Y131456D02*
Y132236D01*
X124807Y133858D02*
X125587D01*
X125197Y133468D02*
Y134248D01*
X126775Y129921D02*
X127555D01*
X127165Y129531D02*
Y130311D01*
X128744Y129921D02*
X129524D01*
X129134Y129531D02*
Y130311D01*
X122838Y129921D02*
X123618D01*
X123228Y129531D02*
Y130311D01*
X128744Y133858D02*
X129524D01*
X129134Y133468D02*
Y134248D01*
X124807Y129921D02*
X125587D01*
X125197Y129531D02*
Y130311D01*
X126775Y133858D02*
X127555D01*
X127165Y133468D02*
Y134248D01*
X5319Y117323D02*
X6099D01*
X5709Y116933D02*
Y117713D01*
X5319Y120866D02*
X6099D01*
X5709Y120476D02*
Y121256D01*
X124413Y98427D02*
X125193D01*
X124803Y98037D02*
Y98817D01*
X122445Y98427D02*
X123225D01*
X122835Y98037D02*
Y98817D01*
X124413Y94490D02*
X125193D01*
X124803Y94100D02*
Y94880D01*
X128350Y94490D02*
X129130D01*
X128740Y94100D02*
Y94880D01*
X126382Y94490D02*
X127162D01*
X126772Y94100D02*
Y94880D01*
X126382Y90553D02*
X127162D01*
X126772Y90163D02*
Y90943D01*
X124413Y90553D02*
X125193D01*
X124803Y90163D02*
Y90943D01*
X128350Y90553D02*
X129130D01*
X128740Y90163D02*
Y90943D01*
X122445Y94488D02*
X123225D01*
X122835Y94098D02*
Y94878D01*
X122445Y90553D02*
X123225D01*
X122835Y90163D02*
Y90943D01*
X104286Y66929D02*
X105286D01*
X104786Y66429D02*
Y67429D01*
X83468Y104071D02*
X84248D01*
X83858Y103681D02*
Y104461D01*
X140478Y116077D02*
X141258D01*
X140868Y115687D02*
Y116467D01*
X138228Y116077D02*
X139008D01*
X138618Y115687D02*
Y116467D01*
X136260Y118936D02*
X137040D01*
X136650Y118546D02*
Y119326D01*
X108665Y98448D02*
X109445D01*
X109055Y98058D02*
Y98838D01*
X110634Y98448D02*
X111414D01*
X111024Y98058D02*
Y98838D01*
X91159Y98448D02*
X91939D01*
X91549Y98058D02*
Y98838D01*
X76710Y106187D02*
X77490D01*
X77100Y105797D02*
Y106577D01*
X54460Y145756D02*
X55240D01*
X54850Y145366D02*
Y146146D01*
X46169Y152551D02*
X46949D01*
X46559Y152161D02*
Y152941D01*
X72425Y155929D02*
X73425D01*
X72925Y155429D02*
Y156429D01*
X45803Y168315D02*
X46583D01*
X46193Y167925D02*
Y168705D01*
X31929Y156465D02*
X32709D01*
X32319Y156075D02*
Y156855D01*
X94213Y114252D02*
X94993D01*
X94603Y113862D02*
Y114642D01*
X96660Y111518D02*
X97440D01*
X97050Y111128D02*
Y111908D01*
X100181Y133277D02*
X100961D01*
X100571Y132887D02*
Y133667D01*
X103343Y124005D02*
X104123D01*
X103733Y123615D02*
Y124395D01*
X103343Y133276D02*
X104123D01*
X103733Y132886D02*
Y133666D01*
X101581Y130969D02*
X102361D01*
X101971Y130579D02*
Y131359D01*
X98432Y130969D02*
X99212D01*
X98822Y130579D02*
Y131359D01*
X104744Y130968D02*
X105524D01*
X105134Y130578D02*
Y131358D01*
X100181Y128641D02*
X100961D01*
X100571Y128251D02*
Y129031D01*
X103343Y128640D02*
X104123D01*
X103733Y128251D02*
Y129030D01*
X101581Y126335D02*
X102361D01*
X101971Y125945D02*
Y126725D01*
X98432Y126335D02*
X99212D01*
X98822Y125945D02*
Y126725D01*
X104744Y126334D02*
X105524D01*
X105134Y125944D02*
Y126724D01*
X138228Y139401D02*
X139008D01*
X138618Y139011D02*
Y139791D01*
X134415Y132897D02*
X135195D01*
X134805Y132507D02*
Y133287D01*
X134415Y128243D02*
X135195D01*
X134805Y127853D02*
Y128633D01*
X134415Y123590D02*
X135195D01*
X134805Y123199D02*
Y123979D01*
X134415Y114282D02*
X135195D01*
X134805Y113892D02*
Y114672D01*
X134415Y109629D02*
X135195D01*
X134805Y109239D02*
Y110019D01*
X134415Y104975D02*
X135195D01*
X134805Y104585D02*
Y105365D01*
X134415Y100321D02*
X135195D01*
X134805Y99931D02*
Y100711D01*
X134415Y95668D02*
X135195D01*
X134805Y95278D02*
Y96058D01*
X134415Y91014D02*
X135195D01*
X134805Y90624D02*
Y91404D01*
X134415Y86361D02*
X135195D01*
X134805Y85970D02*
Y86751D01*
X134415Y81707D02*
X135195D01*
X134805Y81317D02*
Y82097D01*
X134415Y77053D02*
X135195D01*
X134805Y76663D02*
Y77443D01*
X136260Y77053D02*
X137040D01*
X136650Y76663D02*
Y77443D01*
X138228Y120742D02*
X139008D01*
X138618Y120352D02*
Y121132D01*
X140478Y120742D02*
X141258D01*
X140868Y120352D02*
Y121132D01*
X140478Y130071D02*
X141258D01*
X140868Y129681D02*
Y130461D01*
X95098Y86635D02*
X95878D01*
X95488Y86245D02*
Y87025D01*
X92143Y88605D02*
X92923D01*
X92533Y88216D02*
Y88995D01*
X93128Y90574D02*
X93908D01*
X93518Y90184D02*
Y90964D01*
X90175Y96479D02*
X90955D01*
X90565Y96090D02*
Y96869D01*
X93129Y94511D02*
X93909D01*
X93519Y94121D02*
Y94901D01*
X92145Y96479D02*
X92925D01*
X92535Y96090D02*
Y96869D01*
X92145Y92542D02*
X92925D01*
X92535Y92153D02*
Y92932D01*
X95096Y90572D02*
X95876D01*
X95486Y90182D02*
Y90962D01*
X94112Y92541D02*
X94892D01*
X94502Y92151D02*
Y92931D01*
X94112Y88605D02*
X94892D01*
X94502Y88216D02*
Y88995D01*
X98510Y114800D02*
X99290D01*
X98900Y114410D02*
Y115190D01*
X94111Y96471D02*
X94891D01*
X94501Y96081D02*
Y96861D01*
X93129Y86637D02*
X93909D01*
X93519Y86247D02*
Y87027D01*
X91160Y86637D02*
X91940D01*
X91550Y86247D02*
Y87027D01*
X57559Y134741D02*
X58339D01*
X57949Y134351D02*
Y135131D01*
M02*
