G04 Layer_Color=2752767*
%FSLAX25Y25*%
%MOIN*%
G70*
G01*
G75*
%ADD28C,0.00984*%
%ADD29C,0.00984*%
%ADD122C,0.00200*%
%ADD123C,0.00267*%
D28*
X0Y0D02*
Y200000D01*
X200000Y0D02*
Y200000D01*
D29*
X0D02*
X200000D01*
X0Y0D02*
X200000D01*
D122*
X152743Y157468D02*
Y159068D01*
X154343D01*
Y157468D01*
X152743D01*
X152743Y57074D02*
Y58674D01*
X154343D01*
Y57074D01*
X152743D01*
X57172Y157468D02*
Y159068D01*
X58772D01*
Y157468D01*
X57172D01*
X53810Y55795D02*
Y57394D01*
X55410D01*
Y55795D01*
X53810D01*
X36490Y13445D02*
X35690Y15045D01*
X37290D01*
X36490Y13445D01*
Y18445D02*
X35690Y20045D01*
X37290D01*
X36490Y18445D01*
Y23445D02*
X35690Y25045D01*
X37290D01*
X36490Y23445D01*
X41490D02*
X40690Y25045D01*
X42290D01*
X41490Y23445D01*
Y13445D02*
X40690Y15045D01*
X42290D01*
X41490Y13445D01*
Y18445D02*
X40690Y20045D01*
X42290D01*
X41490Y18445D01*
X25331Y55168D02*
X24531Y56769D01*
X26131D01*
X25331Y55168D01*
Y60168D02*
X24531Y61769D01*
X26131D01*
X25331Y60168D01*
Y65168D02*
X24531Y66768D01*
X26131D01*
X25331Y65168D01*
X30331D02*
X29531Y66768D01*
X31131D01*
X30331Y65168D01*
Y55168D02*
X29531Y56769D01*
X31131D01*
X30331Y55168D01*
Y60168D02*
X29531Y61769D01*
X31131D01*
X30331Y60168D01*
X56856Y179662D02*
X57256Y180062D01*
X57656D01*
X57256Y180462D01*
X57656Y180862D01*
X57256D01*
X56856Y181262D01*
X56456Y180862D01*
X56056D01*
X56456Y180462D01*
X56056Y180062D01*
X56456D01*
X56856Y179662D01*
X153864Y28678D02*
X154264Y29078D01*
X154664D01*
X154264Y29478D01*
X154664Y29878D01*
X154264D01*
X153864Y30278D01*
X153464Y29878D01*
X153064D01*
X153464Y29478D01*
X153064Y29078D01*
X153464D01*
X153864Y28678D01*
X63676Y102593D02*
X64076Y103393D01*
X63676Y104192D01*
X64476Y103793D01*
X65276Y104192D01*
X64876Y103393D01*
X65276Y102593D01*
X64476Y102992D01*
X63676Y102593D01*
X67623Y115187D02*
X68023Y115987D01*
X67623Y116787D01*
X68423Y116387D01*
X69222Y116787D01*
X68822Y115987D01*
X69222Y115187D01*
X68423Y115587D01*
X67623Y115187D01*
X69543D02*
X69943Y115987D01*
X69543Y116787D01*
X70343Y116387D01*
X71143Y116787D01*
X70743Y115987D01*
X71143Y115187D01*
X70343Y115587D01*
X69543Y115187D01*
X67650Y118593D02*
X68050Y119393D01*
X67650Y120193D01*
X68450Y119793D01*
X69250Y120193D01*
X68850Y119393D01*
X69250Y118593D01*
X68450Y118993D01*
X67650Y118593D01*
Y123273D02*
X68050Y124073D01*
X67650Y124873D01*
X68450Y124473D01*
X69250Y124873D01*
X68850Y124073D01*
X69250Y123273D01*
X68450Y123673D01*
X67650Y123273D01*
Y127952D02*
X68050Y128752D01*
X67650Y129552D01*
X68450Y129152D01*
X69250Y129552D01*
X68850Y128752D01*
X69250Y127952D01*
X68450Y128352D01*
X67650Y127952D01*
Y132631D02*
X68050Y133431D01*
X67650Y134231D01*
X68450Y133831D01*
X69250Y134231D01*
X68850Y133431D01*
X69250Y132631D01*
X68450Y133031D01*
X67650Y132631D01*
Y137310D02*
X68050Y138110D01*
X67650Y138910D01*
X68450Y138510D01*
X69250Y138910D01*
X68850Y138110D01*
X69250Y137310D01*
X68450Y137710D01*
X67650Y137310D01*
X65542Y140247D02*
X65942Y141047D01*
X65542Y141847D01*
X66342Y141447D01*
X67142Y141847D01*
X66742Y141047D01*
X67142Y140247D01*
X66342Y140647D01*
X65542Y140247D01*
Y116724D02*
X65942Y117524D01*
X65542Y118324D01*
X66342Y117924D01*
X67142Y118324D01*
X66742Y117524D01*
X67142Y116724D01*
X66342Y117124D01*
X65542Y116724D01*
Y121428D02*
X65942Y122228D01*
X65542Y123028D01*
X66342Y122628D01*
X67142Y123028D01*
X66742Y122228D01*
X67142Y121428D01*
X66342Y121828D01*
X65542Y121428D01*
Y126133D02*
X65942Y126933D01*
X65542Y127733D01*
X66342Y127333D01*
X67142Y127733D01*
X66742Y126933D01*
X67142Y126133D01*
X66342Y126533D01*
X65542Y126133D01*
Y130838D02*
X65942Y131638D01*
X65542Y132438D01*
X66342Y132038D01*
X67142Y132438D01*
X66742Y131638D01*
X67142Y130838D01*
X66342Y131238D01*
X65542Y130838D01*
Y135543D02*
X65942Y136343D01*
X65542Y137143D01*
X66342Y136742D01*
X67142Y137143D01*
X66742Y136343D01*
X67142Y135543D01*
X66342Y135942D01*
X65542Y135543D01*
X63676Y140247D02*
X64076Y141047D01*
X63676Y141847D01*
X64476Y141447D01*
X65276Y141847D01*
X64876Y141047D01*
X65276Y140247D01*
X64476Y140647D01*
X63676Y140247D01*
X140068Y138601D02*
X140468Y139401D01*
X140068Y140201D01*
X140868Y139801D01*
X141668Y140201D01*
X141268Y139401D01*
X141668Y138601D01*
X140868Y139001D01*
X140068Y138601D01*
X99987Y104712D02*
X100387Y105512D01*
X99987Y106312D01*
X100787Y105912D01*
X101587Y106312D01*
X101187Y105512D01*
X101587Y104712D01*
X100787Y105112D01*
X99987Y104712D01*
X119516Y103520D02*
X119916Y104320D01*
X119516Y105120D01*
X120316Y104720D01*
X121116Y105120D01*
X120716Y104320D01*
X121116Y103520D01*
X120316Y103920D01*
X119516Y103520D01*
X111015Y109728D02*
X111415Y110528D01*
X111015Y111328D01*
X111815Y110928D01*
X112615Y111328D01*
X112215Y110528D01*
X112615Y109728D01*
X111815Y110128D01*
X111015Y109728D01*
X112447Y121203D02*
X112847Y122003D01*
X112447Y122803D01*
X113247Y122403D01*
X114047Y122803D01*
X113647Y122003D01*
X114047Y121203D01*
X113247Y121603D01*
X112447Y121203D01*
X114415D02*
X114815Y122003D01*
X114415Y122803D01*
X115215Y122403D01*
X116015Y122803D01*
X115615Y122003D01*
X116015Y121203D01*
X115215Y121603D01*
X114415Y121203D01*
X111126Y105628D02*
X111526Y106428D01*
X111126Y107228D01*
X111926Y106828D01*
X112726Y107228D01*
X112326Y106428D01*
X112726Y105628D01*
X111926Y106028D01*
X111126Y105628D01*
X114217Y113697D02*
X114617Y114497D01*
X114217Y115297D01*
X115017Y114897D01*
X115817Y115297D01*
X115417Y114497D01*
X115817Y113697D01*
X115017Y114097D01*
X114217Y113697D01*
X114669Y105754D02*
X115069Y106554D01*
X114669Y107354D01*
X115469Y106954D01*
X116269Y107354D01*
X115869Y106554D01*
X116269Y105754D01*
X115469Y106154D01*
X114669Y105754D01*
X123724Y105628D02*
X124125Y106428D01*
X123724Y107228D01*
X124524Y106828D01*
X125324Y107228D01*
X124925Y106428D01*
X125324Y105628D01*
X124524Y106028D01*
X123724Y105628D01*
X122937Y113452D02*
X123337Y114252D01*
X122937Y115052D01*
X123737Y114652D01*
X124537Y115052D01*
X124137Y114252D01*
X124537Y113452D01*
X123737Y113852D01*
X122937Y113452D01*
X103055Y116060D02*
X103455Y116860D01*
X103055Y117660D01*
X103855Y117260D01*
X104655Y117660D01*
X104255Y116860D01*
X104655Y116060D01*
X103855Y116460D01*
X103055Y116060D01*
X119984Y111012D02*
X120384Y111812D01*
X119984Y112612D01*
X120784Y112212D01*
X121584Y112612D01*
X121184Y111812D01*
X121584Y111012D01*
X120784Y111412D01*
X119984Y111012D01*
X114356Y107861D02*
X114756Y108661D01*
X114356Y109461D01*
X115156Y109061D01*
X115956Y109461D01*
X115556Y108661D01*
X115956Y107861D01*
X115156Y108261D01*
X114356Y107861D01*
X111044Y113571D02*
X111444Y114371D01*
X111044Y115171D01*
X111844Y114771D01*
X112644Y115171D01*
X112244Y114371D01*
X112644Y113571D01*
X111844Y113971D01*
X111044Y113571D01*
X103150Y104903D02*
X103550Y105703D01*
X103150Y106503D01*
X103950Y106103D01*
X104750Y106503D01*
X104350Y105703D01*
X104750Y104903D01*
X103950Y105303D01*
X103150Y104903D01*
X107900Y117400D02*
X108300Y118200D01*
X107900Y119000D01*
X108700Y118600D01*
X109500Y119000D01*
X109100Y118200D01*
X109500Y117400D01*
X108700Y117800D01*
X107900Y117400D01*
X162986Y165348D02*
Y164948D01*
X163786D01*
Y165348D01*
X164186D01*
Y166148D01*
X163786D01*
Y166548D01*
X162986D01*
Y166148D01*
X162586D01*
Y165348D01*
X162986D01*
X143301Y164954D02*
Y164554D01*
X144101D01*
Y164954D01*
X144501D01*
Y165754D01*
X144101D01*
Y166154D01*
X143301D01*
Y165754D01*
X142901D01*
Y164954D01*
X143301D01*
X172828Y155506D02*
Y155105D01*
X173628D01*
Y155506D01*
X174028D01*
Y156306D01*
X173628D01*
Y156705D01*
X172828D01*
Y156306D01*
X172428D01*
Y155506D01*
X172828D01*
X69476Y110587D02*
X69876Y111387D01*
X69476Y112187D01*
X70276Y111787D01*
X71076Y112187D01*
X70676Y111387D01*
X71076Y110587D01*
X70276Y110987D01*
X69476Y110587D01*
X65542Y112019D02*
X65942Y112819D01*
X65542Y113619D01*
X66342Y113219D01*
X67142Y113619D01*
X66742Y112819D01*
X67142Y112019D01*
X66342Y112419D01*
X65542Y112019D01*
X67678Y110600D02*
X68078Y111400D01*
X67678Y112200D01*
X68478Y111800D01*
X69278Y112200D01*
X68878Y111400D01*
X69278Y110600D01*
X68478Y111000D01*
X67678Y110600D01*
X54221Y109533D02*
X54621Y110333D01*
X54221Y111133D01*
X55021Y110733D01*
X55821Y111133D01*
X55421Y110333D01*
X55821Y109533D01*
X55021Y109933D01*
X54221Y109533D01*
X65542Y107314D02*
X65942Y108114D01*
X65542Y108914D01*
X66342Y108514D01*
X67142Y108914D01*
X66742Y108114D01*
X67142Y107314D01*
X66342Y107714D01*
X65542Y107314D01*
X67650Y104556D02*
X68050Y105356D01*
X67650Y106156D01*
X68450Y105756D01*
X69250Y106156D01*
X68850Y105356D01*
X69250Y104556D01*
X68450Y104956D01*
X67650Y104556D01*
X63676Y107299D02*
X64076Y108099D01*
X63676Y108899D01*
X64476Y108499D01*
X65276Y108899D01*
X64876Y108099D01*
X65276Y107299D01*
X64476Y107699D01*
X63676Y107299D01*
Y112006D02*
X64076Y112806D01*
X63676Y113606D01*
X64476Y113206D01*
X65276Y113606D01*
X64876Y112806D01*
X65276Y112006D01*
X64476Y112406D01*
X63676Y112006D01*
X134005Y136750D02*
X134405Y137550D01*
X134005Y138350D01*
X134805Y137950D01*
X135605Y138350D01*
X135205Y137550D01*
X135605Y136750D01*
X134805Y137150D01*
X134005Y136750D01*
X135850Y108829D02*
X136250Y109629D01*
X135850Y110429D01*
X136650Y110029D01*
X137450Y110429D01*
X137050Y109629D01*
X137450Y108829D01*
X136650Y109229D01*
X135850Y108829D01*
X134005Y118136D02*
X134405Y118936D01*
X134005Y119736D01*
X134805Y119336D01*
X135605Y119736D01*
X135205Y118936D01*
X135605Y118136D01*
X134805Y118536D01*
X134005Y118136D01*
X98841Y93307D02*
X99241Y94107D01*
X98841Y94907D01*
X99641Y94507D01*
X100441Y94907D01*
X100041Y94107D01*
X100441Y93307D01*
X99641Y93707D01*
X98841Y93307D01*
X105154Y93306D02*
X105553Y94106D01*
X105154Y94906D01*
X105954Y94506D01*
X106754Y94906D01*
X106353Y94106D01*
X106754Y93306D01*
X105954Y93706D01*
X105154Y93306D01*
X102004D02*
X102404Y94106D01*
X102004Y94906D01*
X102804Y94506D01*
X103604Y94906D01*
X103204Y94106D01*
X103604Y93306D01*
X102804Y93706D01*
X102004Y93306D01*
X100242Y91001D02*
X100642Y91801D01*
X100242Y92601D01*
X101042Y92201D01*
X101842Y92601D01*
X101442Y91801D01*
X101842Y91001D01*
X101042Y91401D01*
X100242Y91001D01*
X103404Y91000D02*
X103804Y91800D01*
X103404Y92600D01*
X104204Y92200D01*
X105004Y92600D01*
X104604Y91800D01*
X105004Y91000D01*
X104204Y91400D01*
X103404Y91000D01*
X98841Y88673D02*
X99241Y89473D01*
X98841Y90273D01*
X99641Y89873D01*
X100441Y90273D01*
X100041Y89473D01*
X100441Y88673D01*
X99641Y89073D01*
X98841Y88673D01*
X105154Y88672D02*
X105553Y89472D01*
X105154Y90272D01*
X105954Y89872D01*
X106754Y90272D01*
X106353Y89472D01*
X106754Y88672D01*
X105954Y89072D01*
X105154Y88672D01*
X102004D02*
X102404Y89472D01*
X102004Y90272D01*
X102804Y89872D01*
X103604Y90272D01*
X103204Y89472D01*
X103604Y88672D01*
X102804Y89072D01*
X102004Y88672D01*
X100242Y86365D02*
X100642Y87165D01*
X100242Y87965D01*
X101042Y87565D01*
X101842Y87965D01*
X101442Y87165D01*
X101842Y86365D01*
X101042Y86765D01*
X100242Y86365D01*
Y95637D02*
X100642Y96437D01*
X100242Y97237D01*
X101042Y96837D01*
X101842Y97237D01*
X101442Y96437D01*
X101842Y95637D01*
X101042Y96037D01*
X100242Y95637D01*
X103404Y86364D02*
X103804Y87164D01*
X103404Y87964D01*
X104204Y87564D01*
X105004Y87964D01*
X104604Y87164D01*
X105004Y86364D01*
X104204Y86764D01*
X103404Y86364D01*
Y95636D02*
X103804Y96436D01*
X103404Y97236D01*
X104204Y96836D01*
X105004Y97236D01*
X104604Y96436D01*
X105004Y95636D01*
X104204Y96036D01*
X103404Y95636D01*
X63676Y79058D02*
X64076Y79858D01*
X63676Y80658D01*
X64476Y80258D01*
X65276Y80658D01*
X64876Y79858D01*
X65276Y79058D01*
X64476Y79458D01*
X63676Y79058D01*
X65542Y79086D02*
X65942Y79886D01*
X65542Y80686D01*
X66342Y80286D01*
X67142Y80686D01*
X66742Y79886D01*
X67142Y79086D01*
X66342Y79486D01*
X65542Y79086D01*
X63676Y83765D02*
X64076Y84565D01*
X63676Y85365D01*
X64476Y84965D01*
X65276Y85365D01*
X64876Y84565D01*
X65276Y83765D01*
X64476Y84165D01*
X63676Y83765D01*
X65542Y83791D02*
X65942Y84591D01*
X65542Y85391D01*
X66342Y84991D01*
X67142Y85391D01*
X66742Y84591D01*
X67142Y83791D01*
X66342Y84191D01*
X65542Y83791D01*
Y88495D02*
X65942Y89295D01*
X65542Y90095D01*
X66342Y89695D01*
X67142Y90095D01*
X66742Y89295D01*
X67142Y88495D01*
X66342Y88895D01*
X65542Y88495D01*
X63676Y88472D02*
X64076Y89272D01*
X63676Y90072D01*
X64476Y89672D01*
X65276Y90072D01*
X64876Y89272D01*
X65276Y88472D01*
X64476Y88872D01*
X63676Y88472D01*
X65542Y93200D02*
X65942Y94000D01*
X65542Y94800D01*
X66342Y94400D01*
X67142Y94800D01*
X66742Y94000D01*
X67142Y93200D01*
X66342Y93600D01*
X65542Y93200D01*
X63676Y93179D02*
X64076Y93979D01*
X63676Y94779D01*
X64476Y94379D01*
X65276Y94779D01*
X64876Y93979D01*
X65276Y93179D01*
X64476Y93579D01*
X63676Y93179D01*
X65542Y97905D02*
X65942Y98705D01*
X65542Y99505D01*
X66342Y99105D01*
X67142Y99505D01*
X66742Y98705D01*
X67142Y97905D01*
X66342Y98305D01*
X65542Y97905D01*
X63676Y97886D02*
X64076Y98686D01*
X63676Y99486D01*
X64476Y99086D01*
X65276Y99486D01*
X64876Y98686D01*
X65276Y97886D01*
X64476Y98286D01*
X63676Y97886D01*
X65542Y102610D02*
X65942Y103410D01*
X65542Y104209D01*
X66342Y103809D01*
X67142Y104209D01*
X66742Y103410D01*
X67142Y102610D01*
X66342Y103009D01*
X65542Y102610D01*
X63676Y116713D02*
X64076Y117513D01*
X63676Y118313D01*
X64476Y117913D01*
X65276Y118313D01*
X64876Y117513D01*
X65276Y116713D01*
X64476Y117113D01*
X63676Y116713D01*
Y121420D02*
X64076Y122220D01*
X63676Y123020D01*
X64476Y122620D01*
X65276Y123020D01*
X64876Y122220D01*
X65276Y121420D01*
X64476Y121820D01*
X63676Y121420D01*
Y126127D02*
X64076Y126927D01*
X63676Y127727D01*
X64476Y127327D01*
X65276Y127727D01*
X64876Y126927D01*
X65276Y126127D01*
X64476Y126527D01*
X63676Y126127D01*
Y130833D02*
X64076Y131633D01*
X63676Y132433D01*
X64476Y132034D01*
X65276Y132433D01*
X64876Y131633D01*
X65276Y130833D01*
X64476Y131234D01*
X63676Y130833D01*
X67650Y76481D02*
X68050Y77281D01*
X67650Y78081D01*
X68450Y77681D01*
X69250Y78081D01*
X68850Y77281D01*
X69250Y76481D01*
X68450Y76881D01*
X67650Y76481D01*
X69543D02*
X69943Y77281D01*
X69543Y78081D01*
X70344Y77681D01*
X71144Y78081D01*
X70744Y77281D01*
X71144Y76481D01*
X70344Y76881D01*
X69543Y76481D01*
X67650Y81160D02*
X68050Y81960D01*
X67650Y82760D01*
X68450Y82360D01*
X69250Y82760D01*
X68850Y81960D01*
X69250Y81160D01*
X68450Y81560D01*
X67650Y81160D01*
X69543D02*
X69943Y81960D01*
X69543Y82760D01*
X70344Y82360D01*
X71144Y82760D01*
X70744Y81960D01*
X71144Y81160D01*
X70344Y81560D01*
X69543Y81160D01*
X67650Y85839D02*
X68050Y86639D01*
X67650Y87439D01*
X68450Y87039D01*
X69250Y87439D01*
X68850Y86639D01*
X69250Y85839D01*
X68450Y86239D01*
X67650Y85839D01*
X69543D02*
X69943Y86639D01*
X69543Y87439D01*
X70344Y87039D01*
X71144Y87439D01*
X70744Y86639D01*
X71144Y85839D01*
X70344Y86239D01*
X69543Y85839D01*
X67650Y90518D02*
X68050Y91318D01*
X67650Y92118D01*
X68450Y91718D01*
X69250Y92118D01*
X68850Y91318D01*
X69250Y90518D01*
X68450Y90918D01*
X67650Y90518D01*
X69543D02*
X69943Y91318D01*
X69543Y92118D01*
X70344Y91718D01*
X71144Y92118D01*
X70744Y91318D01*
X71144Y90518D01*
X70344Y90918D01*
X69543Y90518D01*
X67650Y95198D02*
X68050Y95998D01*
X67650Y96798D01*
X68450Y96398D01*
X69250Y96798D01*
X68850Y95998D01*
X69250Y95198D01*
X68450Y95598D01*
X67650Y95198D01*
X69543D02*
X69943Y95998D01*
X69543Y96798D01*
X70344Y96398D01*
X71144Y96798D01*
X70744Y95998D01*
X71144Y95198D01*
X70344Y95598D01*
X69543Y95198D01*
X67650Y99877D02*
X68050Y100677D01*
X67650Y101477D01*
X68450Y101077D01*
X69250Y101477D01*
X68850Y100677D01*
X69250Y99877D01*
X68450Y100277D01*
X67650Y99877D01*
X69543D02*
X69943Y100677D01*
X69543Y101477D01*
X70344Y101077D01*
X71144Y101477D01*
X70744Y100677D01*
X71144Y99877D01*
X70344Y100277D01*
X69543Y99877D01*
Y104556D02*
X69943Y105356D01*
X69543Y106156D01*
X70344Y105756D01*
X71144Y106156D01*
X70744Y105356D01*
X71144Y104556D01*
X70344Y104956D01*
X69543Y104556D01*
Y118593D02*
X69943Y119393D01*
X69543Y120193D01*
X70344Y119793D01*
X71144Y120193D01*
X70744Y119393D01*
X71144Y118593D01*
X70344Y118993D01*
X69543Y118593D01*
Y123273D02*
X69943Y124073D01*
X69543Y124873D01*
X70344Y124473D01*
X71144Y124873D01*
X70744Y124073D01*
X71144Y123273D01*
X70344Y123673D01*
X69543Y123273D01*
Y127952D02*
X69943Y128752D01*
X69543Y129552D01*
X70344Y129152D01*
X71144Y129552D01*
X70744Y128752D01*
X71144Y127952D01*
X70344Y128352D01*
X69543Y127952D01*
Y132631D02*
X69943Y133431D01*
X69543Y134231D01*
X70344Y133831D01*
X71144Y134231D01*
X70744Y133431D01*
X71144Y132631D01*
X70344Y133031D01*
X69543Y132631D01*
X74382Y164996D02*
Y164596D01*
X75182D01*
Y164996D01*
X75582D01*
Y165796D01*
X75182D01*
Y166196D01*
X74382D01*
Y165796D01*
X73982D01*
Y164996D01*
X74382D01*
X103909D02*
Y164596D01*
X104709D01*
Y164996D01*
X105109D01*
Y165796D01*
X104709D01*
Y166196D01*
X103909D01*
Y165796D01*
X103509D01*
Y164996D01*
X103909D01*
X84224D02*
Y164596D01*
X85024D01*
Y164996D01*
X85424D01*
Y165796D01*
X85024D01*
Y166196D01*
X84224D01*
Y165796D01*
X83824D01*
Y164996D01*
X84224D01*
X117733Y183567D02*
Y183167D01*
X118533D01*
Y183567D01*
X118933D01*
Y184367D01*
X118533D01*
Y184767D01*
X117733D01*
Y184367D01*
X117333D01*
Y183567D01*
X117733D01*
X127576D02*
Y183167D01*
X128376D01*
Y183567D01*
X128776D01*
Y184367D01*
X128376D01*
Y184767D01*
X127576D01*
Y184367D01*
X127176D01*
Y183567D01*
X127576D01*
X99771Y123206D02*
X100171Y124006D01*
X99771Y124806D01*
X100571Y124406D01*
X101371Y124806D01*
X100971Y124006D01*
X101371Y123206D01*
X100571Y123606D01*
X99771Y123206D01*
X75184Y125184D02*
X75584Y125984D01*
X75184Y126784D01*
X75984Y126384D01*
X76784Y126784D01*
X76384Y125984D01*
X76784Y125184D01*
X75984Y125584D01*
X75184Y125184D01*
X80721Y144397D02*
X81121Y145197D01*
X80721Y145997D01*
X81521Y145597D01*
X82321Y145997D01*
X81921Y145197D01*
X82321Y144397D01*
X81521Y144797D01*
X80721Y144397D01*
X93810Y144350D02*
X94210Y145150D01*
X93810Y145950D01*
X94610Y145550D01*
X95410Y145950D01*
X95010Y145150D01*
X95410Y144350D01*
X94610Y144750D01*
X93810Y144350D01*
X113984Y144145D02*
X114384Y144945D01*
X113984Y145745D01*
X114784Y145345D01*
X115584Y145745D01*
X115184Y144945D01*
X115584Y144145D01*
X114784Y144545D01*
X113984Y144145D01*
X85204Y115700D02*
X85604Y116500D01*
X85204Y117300D01*
X86004Y116900D01*
X86804Y117300D01*
X86404Y116500D01*
X86804Y115700D01*
X86004Y116100D01*
X85204Y115700D01*
X63676Y135540D02*
X64076Y136340D01*
X63676Y137140D01*
X64476Y136740D01*
X65276Y137140D01*
X64876Y136340D01*
X65276Y135540D01*
X64476Y135940D01*
X63676Y135540D01*
X137818Y124607D02*
X138218Y125407D01*
X137818Y126207D01*
X138618Y125807D01*
X139418Y126207D01*
X139018Y125407D01*
X139418Y124607D01*
X138618Y125007D01*
X137818Y124607D01*
X135850Y122790D02*
X136250Y123590D01*
X135850Y124390D01*
X136650Y123989D01*
X137450Y124390D01*
X137050Y123590D01*
X137450Y122790D01*
X136650Y123189D01*
X135850Y122790D01*
X60133Y115875D02*
X60533Y116674D01*
X60133Y117474D01*
X60933Y117075D01*
X61733Y117474D01*
X61333Y116674D01*
X61733Y115875D01*
X60933Y116274D01*
X60133Y115875D01*
X93664Y105387D02*
X94064Y106187D01*
X93664Y106987D01*
X94464Y106587D01*
X95264Y106987D01*
X94864Y106187D01*
X95264Y105387D01*
X94464Y105787D01*
X93664Y105387D01*
X99118Y119113D02*
X99518Y119913D01*
X99118Y120713D01*
X99918Y120313D01*
X100718Y120713D01*
X100318Y119913D01*
X100718Y119113D01*
X99918Y119513D01*
X99118Y119113D01*
X123541Y152332D02*
Y151932D01*
X124341D01*
Y152332D01*
X124741D01*
Y153132D01*
X124341D01*
Y153532D01*
X123541D01*
Y153132D01*
X123141D01*
Y152332D01*
X123541D01*
X137818Y129271D02*
X138218Y130071D01*
X137818Y130871D01*
X138618Y130472D01*
X139418Y130871D01*
X139018Y130071D01*
X139418Y129271D01*
X138618Y129672D01*
X137818Y129271D01*
X122428Y133058D02*
X122828Y133858D01*
X122428Y134658D01*
X123228Y134258D01*
X124028Y134658D01*
X123628Y133858D01*
X124028Y133058D01*
X123228Y133458D01*
X122428Y133058D01*
X109277Y62880D02*
Y62480D01*
X110077D01*
Y62880D01*
X110477D01*
Y63679D01*
X110077D01*
Y64079D01*
X109277D01*
Y63679D01*
X108877D01*
Y62880D01*
X109277D01*
X161698Y96549D02*
Y96149D01*
X162498D01*
Y96549D01*
X162898D01*
Y97349D01*
X162498D01*
Y97749D01*
X161698D01*
Y97349D01*
X161298D01*
Y96549D01*
X161698D01*
X107654Y100802D02*
X108054Y101602D01*
X107654Y102402D01*
X108454Y102002D01*
X109254Y102402D01*
X108854Y101602D01*
X109254Y100802D01*
X108454Y101202D01*
X107654Y100802D01*
X74113Y107066D02*
X74513Y107866D01*
X74113Y108666D01*
X74913Y108266D01*
X75713Y108666D01*
X75313Y107866D01*
X75713Y107066D01*
X74913Y107466D01*
X74113Y107066D01*
X74039Y109255D02*
X74439Y110055D01*
X74039Y110855D01*
X74839Y110455D01*
X75639Y110855D01*
X75239Y110055D01*
X75639Y109255D01*
X74839Y109655D01*
X74039Y109255D01*
X137818Y77959D02*
X138218Y78759D01*
X137818Y79558D01*
X138618Y79159D01*
X139418Y79558D01*
X139018Y78759D01*
X139418Y77959D01*
X138618Y78359D01*
X137818Y77959D01*
X21019Y114956D02*
X21419Y115756D01*
X21019Y116556D01*
X21819Y116156D01*
X22619Y116556D01*
X22219Y115756D01*
X22619Y114956D01*
X21819Y115356D01*
X21019Y114956D01*
X86017Y27313D02*
Y26913D01*
X86817D01*
Y27313D01*
X87217D01*
Y28113D01*
X86817D01*
Y28513D01*
X86017D01*
Y28113D01*
X85617D01*
Y27313D01*
X86017D01*
X111419Y95671D02*
X111819Y96471D01*
X111419Y97271D01*
X112219Y96871D01*
X113019Y97271D01*
X112619Y96471D01*
X113019Y95671D01*
X112219Y96071D01*
X111419Y95671D01*
X113385D02*
X113785Y96471D01*
X113385Y97271D01*
X114185Y96871D01*
X114985Y97271D01*
X114585Y96471D01*
X114985Y95671D01*
X114185Y96071D01*
X113385Y95671D01*
X109449D02*
X109849Y96471D01*
X109449Y97271D01*
X110249Y96871D01*
X111049Y97271D01*
X110649Y96471D01*
X111049Y95671D01*
X110249Y96071D01*
X109449Y95671D01*
X69543Y137310D02*
X69943Y138110D01*
X69543Y138910D01*
X70344Y138510D01*
X71144Y138910D01*
X70744Y138110D01*
X71144Y137310D01*
X70344Y137710D01*
X69543Y137310D01*
X94730Y133006D02*
X95130Y133806D01*
X94730Y134606D01*
X95530Y134206D01*
X96330Y134606D01*
X95930Y133806D01*
X96330Y133006D01*
X95530Y133406D01*
X94730Y133006D01*
X113428Y123161D02*
X113828Y123961D01*
X113428Y124761D01*
X114228Y124361D01*
X115028Y124761D01*
X114628Y123961D01*
X115028Y123161D01*
X114228Y123561D01*
X113428Y123161D01*
X114405Y125137D02*
X114805Y125937D01*
X114405Y126737D01*
X115205Y126337D01*
X116005Y126737D01*
X115605Y125937D01*
X116005Y125137D01*
X115205Y125537D01*
X114405Y125137D01*
X112417Y125125D02*
X112817Y125925D01*
X112417Y126725D01*
X113216Y126325D01*
X114016Y126725D01*
X113617Y125925D01*
X114016Y125125D01*
X113216Y125525D01*
X112417Y125125D01*
X110478D02*
X110878Y125925D01*
X110478Y126725D01*
X111278Y126325D01*
X112078Y126725D01*
X111678Y125925D01*
X112078Y125125D01*
X111278Y125525D01*
X110478Y125125D01*
X108543Y125117D02*
X108942Y125917D01*
X108543Y126717D01*
X109343Y126317D01*
X110143Y126717D01*
X109742Y125917D01*
X110143Y125117D01*
X109343Y125517D01*
X108543Y125117D01*
X111461Y127109D02*
X111861Y127909D01*
X111461Y128709D01*
X112261Y128308D01*
X113061Y128709D01*
X112661Y127909D01*
X113061Y127109D01*
X112261Y127508D01*
X111461Y127109D01*
X113431Y127110D02*
X113831Y127910D01*
X113431Y128710D01*
X114231Y128310D01*
X115031Y128710D01*
X114631Y127910D01*
X115031Y127110D01*
X114231Y127510D01*
X113431Y127110D01*
X109494D02*
X109894Y127910D01*
X109494Y128710D01*
X110294Y128310D01*
X111094Y128710D01*
X110694Y127910D01*
X111094Y127110D01*
X110294Y127510D01*
X109494Y127110D01*
X74789Y85814D02*
X75189Y86614D01*
X74789Y87414D01*
X75589Y87014D01*
X76389Y87414D01*
X75989Y86614D01*
X76389Y85814D01*
X75589Y86214D01*
X74789Y85814D01*
X76759Y85837D02*
X77159Y86637D01*
X76759Y87437D01*
X77559Y87037D01*
X78359Y87437D01*
X77959Y86637D01*
X78359Y85837D01*
X77559Y86237D01*
X76759Y85837D01*
X74789Y89774D02*
X75189Y90574D01*
X74789Y91374D01*
X75589Y90974D01*
X76389Y91374D01*
X75989Y90574D01*
X76389Y89774D01*
X75589Y90174D01*
X74789Y89774D01*
X76776Y89753D02*
X77176Y90553D01*
X76776Y91353D01*
X77576Y90953D01*
X78376Y91353D01*
X77976Y90553D01*
X78376Y89753D01*
X77576Y90153D01*
X76776Y89753D01*
X74791Y93688D02*
X75191Y94488D01*
X74791Y95288D01*
X75591Y94888D01*
X76391Y95288D01*
X75991Y94488D01*
X76391Y93688D01*
X75591Y94088D01*
X74791Y93688D01*
X143301Y124820D02*
Y124420D01*
X144101D01*
Y124820D01*
X144501D01*
Y125620D01*
X144101D01*
Y126021D01*
X143301D01*
Y125620D01*
X142901D01*
Y124820D01*
X143301D01*
X140068Y110612D02*
X140468Y111412D01*
X140068Y112212D01*
X140868Y111812D01*
X141668Y112212D01*
X141268Y111412D01*
X141668Y110612D01*
X140868Y111012D01*
X140068Y110612D01*
X137818D02*
X138218Y111412D01*
X137818Y112212D01*
X138618Y111812D01*
X139418Y112212D01*
X139018Y111412D01*
X139418Y110612D01*
X138618Y111012D01*
X137818Y110612D01*
X140068Y124607D02*
X140468Y125407D01*
X140068Y126207D01*
X140868Y125807D01*
X141668Y126207D01*
X141268Y125407D01*
X141668Y124607D01*
X140868Y125007D01*
X140068Y124607D01*
Y133936D02*
X140468Y134736D01*
X140068Y135536D01*
X140868Y135136D01*
X141668Y135536D01*
X141268Y134736D01*
X141668Y133936D01*
X140868Y134336D01*
X140068Y133936D01*
X137818D02*
X138218Y134736D01*
X137818Y135536D01*
X138618Y135136D01*
X139418Y135536D01*
X139018Y134736D01*
X139418Y133936D01*
X138618Y134336D01*
X137818Y133936D01*
X135850Y136750D02*
X136250Y137550D01*
X135850Y138350D01*
X136650Y137950D01*
X137450Y138350D01*
X137050Y137550D01*
X137450Y136750D01*
X136650Y137150D01*
X135850Y136750D01*
Y132097D02*
X136250Y132897D01*
X135850Y133697D01*
X136650Y133297D01*
X137450Y133697D01*
X137050Y132897D01*
X137450Y132097D01*
X136650Y132497D01*
X135850Y132097D01*
Y127443D02*
X136250Y128243D01*
X135850Y129043D01*
X136650Y128643D01*
X137450Y129043D01*
X137050Y128243D01*
X137450Y127443D01*
X136650Y127843D01*
X135850Y127443D01*
Y113482D02*
X136250Y114282D01*
X135850Y115082D01*
X136650Y114682D01*
X137450Y115082D01*
X137050Y114282D01*
X137450Y113482D01*
X136650Y113882D01*
X135850Y113482D01*
Y80907D02*
X136250Y81707D01*
X135850Y82507D01*
X136650Y82107D01*
X137450Y82507D01*
X137050Y81707D01*
X137450Y80907D01*
X136650Y81307D01*
X135850Y80907D01*
Y85561D02*
X136250Y86361D01*
X135850Y87160D01*
X136650Y86760D01*
X137450Y87160D01*
X137050Y86361D01*
X137450Y85561D01*
X136650Y85961D01*
X135850Y85561D01*
Y90214D02*
X136250Y91014D01*
X135850Y91814D01*
X136650Y91414D01*
X137450Y91814D01*
X137050Y91014D01*
X137450Y90214D01*
X136650Y90614D01*
X135850Y90214D01*
Y94868D02*
X136250Y95668D01*
X135850Y96468D01*
X136650Y96068D01*
X137450Y96468D01*
X137050Y95668D01*
X137450Y94868D01*
X136650Y95268D01*
X135850Y94868D01*
Y99521D02*
X136250Y100321D01*
X135850Y101121D01*
X136650Y100721D01*
X137450Y101121D01*
X137050Y100321D01*
X137450Y99521D01*
X136650Y99921D01*
X135850Y99521D01*
Y104175D02*
X136250Y104975D01*
X135850Y105775D01*
X136650Y105375D01*
X137450Y105775D01*
X137050Y104975D01*
X137450Y104175D01*
X136650Y104575D01*
X135850Y104175D01*
X137818Y105947D02*
X138218Y106747D01*
X137818Y107547D01*
X138618Y107147D01*
X139418Y107547D01*
X139018Y106747D01*
X139418Y105947D01*
X138618Y106347D01*
X137818Y105947D01*
X140068D02*
X140468Y106747D01*
X140068Y107547D01*
X140868Y107147D01*
X141668Y107547D01*
X141268Y106747D01*
X141668Y105947D01*
X140868Y106347D01*
X140068Y105947D01*
Y77959D02*
X140468Y78759D01*
X140068Y79558D01*
X140868Y79159D01*
X141668Y79558D01*
X141268Y78759D01*
X141668Y77959D01*
X140868Y78359D01*
X140068Y77959D01*
X137818Y82623D02*
X138218Y83423D01*
X137818Y84223D01*
X138618Y83823D01*
X139418Y84223D01*
X139018Y83423D01*
X139418Y82623D01*
X138618Y83023D01*
X137818Y82623D01*
X140068D02*
X140468Y83423D01*
X140068Y84223D01*
X140868Y83823D01*
X141668Y84223D01*
X141268Y83423D01*
X141668Y82623D01*
X140868Y83023D01*
X140068Y82623D01*
X137818Y87288D02*
X138218Y88088D01*
X137818Y88888D01*
X138618Y88488D01*
X139418Y88888D01*
X139018Y88088D01*
X139418Y87288D01*
X138618Y87688D01*
X137818Y87288D01*
X140068D02*
X140468Y88088D01*
X140068Y88888D01*
X140868Y88488D01*
X141668Y88888D01*
X141268Y88088D01*
X141668Y87288D01*
X140868Y87688D01*
X140068Y87288D01*
X137818Y91953D02*
X138218Y92753D01*
X137818Y93553D01*
X138618Y93153D01*
X139418Y93553D01*
X139018Y92753D01*
X139418Y91953D01*
X138618Y92353D01*
X137818Y91953D01*
X140068D02*
X140468Y92753D01*
X140068Y93553D01*
X140868Y93153D01*
X141668Y93553D01*
X141268Y92753D01*
X141668Y91953D01*
X140868Y92353D01*
X140068Y91953D01*
X137818Y96618D02*
X138218Y97418D01*
X137818Y98218D01*
X138618Y97818D01*
X139418Y98218D01*
X139018Y97418D01*
X139418Y96618D01*
X138618Y97018D01*
X137818Y96618D01*
X140068D02*
X140468Y97418D01*
X140068Y98218D01*
X140868Y97818D01*
X141668Y98218D01*
X141268Y97418D01*
X141668Y96618D01*
X140868Y97018D01*
X140068Y96618D01*
X137818Y101283D02*
X138218Y102083D01*
X137818Y102883D01*
X138618Y102483D01*
X139418Y102883D01*
X139018Y102083D01*
X139418Y101283D01*
X138618Y101683D01*
X137818Y101283D01*
X140068D02*
X140468Y102083D01*
X140068Y102883D01*
X140868Y102483D01*
X141668Y102883D01*
X141268Y102083D01*
X141668Y101283D01*
X140868Y101683D01*
X140068Y101283D01*
X94730Y129071D02*
X95130Y129871D01*
X94730Y130671D01*
X95530Y130271D01*
X96330Y130671D01*
X95930Y129871D01*
X96330Y129071D01*
X95530Y129471D01*
X94730Y129071D01*
X162986Y86214D02*
Y85814D01*
X163786D01*
Y86214D01*
X164186D01*
Y87014D01*
X163786D01*
Y87414D01*
X162986D01*
Y87014D01*
X162586D01*
Y86214D01*
X162986D01*
X143301Y135427D02*
Y135027D01*
X144101D01*
Y135427D01*
X144501D01*
Y136227D01*
X144101D01*
Y136627D01*
X143301D01*
Y136227D01*
X142901D01*
Y135427D01*
X143301D01*
X162986D02*
Y135027D01*
X163786D01*
Y135427D01*
X164186D01*
Y136227D01*
X163786D01*
Y136627D01*
X162986D01*
Y136227D01*
X162586D01*
Y135427D01*
X162986D01*
X153143D02*
Y135027D01*
X153943D01*
Y135427D01*
X154343D01*
Y136227D01*
X153943D01*
Y136627D01*
X153143D01*
Y136227D01*
X152743D01*
Y135427D01*
X153143D01*
Y125584D02*
Y125184D01*
X153943D01*
Y125584D01*
X154343D01*
Y126384D01*
X153943D01*
Y126784D01*
X153143D01*
Y126384D01*
X152743D01*
Y125584D01*
X153143D01*
X162986D02*
Y125184D01*
X163786D01*
Y125584D01*
X164186D01*
Y126384D01*
X163786D01*
Y126784D01*
X162986D01*
Y126384D01*
X162586D01*
Y125584D01*
X162986D01*
Y115742D02*
Y115342D01*
X163786D01*
Y115742D01*
X164186D01*
Y116542D01*
X163786D01*
Y116942D01*
X162986D01*
Y116542D01*
X162586D01*
Y115742D01*
X162986D01*
X153143D02*
Y115342D01*
X153943D01*
Y115742D01*
X154343D01*
Y116542D01*
X153943D01*
Y116942D01*
X153143D01*
Y116542D01*
X152743D01*
Y115742D01*
X153143D01*
X162986Y105899D02*
Y105499D01*
X163786D01*
Y105899D01*
X164186D01*
Y106699D01*
X163786D01*
Y107099D01*
X162986D01*
Y106699D01*
X162586D01*
Y105899D01*
X162986D01*
X153143D02*
Y105499D01*
X153943D01*
Y105899D01*
X154343D01*
Y106699D01*
X153943D01*
Y107099D01*
X153143D01*
Y106699D01*
X152743D01*
Y105899D01*
X153143D01*
X152743Y85814D02*
X153143Y86614D01*
X152743Y87414D01*
X153543Y87014D01*
X154343Y87414D01*
X153943Y86614D01*
X154343Y85814D01*
X153543Y86214D01*
X152743Y85814D01*
Y95657D02*
X153143Y96457D01*
X152743Y97257D01*
X153543Y96857D01*
X154343Y97257D01*
X153943Y96457D01*
X154343Y95657D01*
X153543Y96057D01*
X152743Y95657D01*
X66529Y46844D02*
Y46444D01*
X67329D01*
Y46844D01*
X67729D01*
Y47644D01*
X67329D01*
Y48044D01*
X66529D01*
Y47644D01*
X66129D01*
Y46844D01*
X66529D01*
Y56687D02*
Y56287D01*
X67329D01*
Y56687D01*
X67729D01*
Y57487D01*
X67329D01*
Y57887D01*
X66529D01*
Y57487D01*
X66129D01*
Y56687D01*
X66529D01*
X172828Y116135D02*
Y115735D01*
X173628D01*
Y116135D01*
X174028D01*
Y116935D01*
X173628D01*
Y117335D01*
X172828D01*
Y116935D01*
X172428D01*
Y116135D01*
X172828D01*
Y96450D02*
Y96050D01*
X173628D01*
Y96450D01*
X174028D01*
Y97250D01*
X173628D01*
Y97650D01*
X172828D01*
Y97250D01*
X172428D01*
Y96450D01*
X172828D01*
X94088Y184639D02*
Y184239D01*
X94888D01*
Y184639D01*
X95288D01*
Y185439D01*
X94888D01*
Y185839D01*
X94088D01*
Y185439D01*
X93688D01*
Y184639D01*
X94088D01*
X84246D02*
Y184239D01*
X85046D01*
Y184639D01*
X85446D01*
Y185439D01*
X85046D01*
Y185839D01*
X84246D01*
Y185439D01*
X83846D01*
Y184639D01*
X84246D01*
X94088Y174797D02*
Y174397D01*
X94888D01*
Y174797D01*
X95288D01*
Y175597D01*
X94888D01*
Y175997D01*
X94088D01*
Y175597D01*
X93688D01*
Y174797D01*
X94088D01*
X84246D02*
Y174397D01*
X85046D01*
Y174797D01*
X85446D01*
Y175597D01*
X85046D01*
Y175997D01*
X84246D01*
Y175597D01*
X83846D01*
Y174797D01*
X84246D01*
X113773Y164954D02*
Y164554D01*
X114573D01*
Y164954D01*
X114973D01*
Y165754D01*
X114573D01*
Y166154D01*
X113773D01*
Y165754D01*
X113373D01*
Y164954D01*
X113773D01*
X103931Y174797D02*
Y174397D01*
X104731D01*
Y174797D01*
X105131D01*
Y175597D01*
X104731D01*
Y175997D01*
X103931D01*
Y175597D01*
X103531D01*
Y174797D01*
X103931D01*
X113773D02*
Y174397D01*
X114573D01*
Y174797D01*
X114973D01*
Y175597D01*
X114573D01*
Y175997D01*
X113773D01*
Y175597D01*
X113373D01*
Y174797D01*
X113773D01*
X103931Y184639D02*
Y184239D01*
X104731D01*
Y184639D01*
X105131D01*
Y185439D01*
X104731D01*
Y185839D01*
X103931D01*
Y185439D01*
X103531D01*
Y184639D01*
X103931D01*
X113773D02*
Y184239D01*
X114573D01*
Y184639D01*
X114973D01*
Y185439D01*
X114573D01*
Y185839D01*
X113773D01*
Y185439D01*
X113373D01*
Y184639D01*
X113773D01*
X182671Y185033D02*
Y184633D01*
X183471D01*
Y185033D01*
X183871D01*
Y185833D01*
X183471D01*
Y186233D01*
X182671D01*
Y185833D01*
X182271D01*
Y185033D01*
X182671D01*
X172828D02*
Y184633D01*
X173628D01*
Y185033D01*
X174028D01*
Y185833D01*
X173628D01*
Y186233D01*
X172828D01*
Y185833D01*
X172428D01*
Y185033D01*
X172828D01*
X162986Y184639D02*
Y184239D01*
X163786D01*
Y184639D01*
X164186D01*
Y185439D01*
X163786D01*
Y185839D01*
X162986D01*
Y185439D01*
X162586D01*
Y184639D01*
X162986D01*
X153143D02*
Y184239D01*
X153943D01*
Y184639D01*
X154343D01*
Y185439D01*
X153943D01*
Y185839D01*
X153143D01*
Y185439D01*
X152743D01*
Y184639D01*
X153143D01*
X143301D02*
Y184239D01*
X144101D01*
Y184639D01*
X144501D01*
Y185439D01*
X144101D01*
Y185839D01*
X143301D01*
Y185439D01*
X142901D01*
Y184639D01*
X143301D01*
X182671Y175191D02*
Y174791D01*
X183471D01*
Y175191D01*
X183871D01*
Y175991D01*
X183471D01*
Y176391D01*
X182671D01*
Y175991D01*
X182271D01*
Y175191D01*
X182671D01*
X172828D02*
Y174791D01*
X173628D01*
Y175191D01*
X174028D01*
Y175991D01*
X173628D01*
Y176391D01*
X172828D01*
Y175991D01*
X172428D01*
Y175191D01*
X172828D01*
X162986Y174797D02*
Y174397D01*
X163786D01*
Y174797D01*
X164186D01*
Y175597D01*
X163786D01*
Y175997D01*
X162986D01*
Y175597D01*
X162586D01*
Y174797D01*
X162986D01*
X153143D02*
Y174397D01*
X153943D01*
Y174797D01*
X154343D01*
Y175597D01*
X153943D01*
Y175997D01*
X153143D01*
Y175597D01*
X152743D01*
Y174797D01*
X153143D01*
X143301D02*
Y174397D01*
X144101D01*
Y174797D01*
X144501D01*
Y175597D01*
X144101D01*
Y175997D01*
X143301D01*
Y175597D01*
X142901D01*
Y174797D01*
X143301D01*
X182671Y165348D02*
Y164948D01*
X183471D01*
Y165348D01*
X183871D01*
Y166148D01*
X183471D01*
Y166548D01*
X182671D01*
Y166148D01*
X182271D01*
Y165348D01*
X182671D01*
X172828D02*
Y164948D01*
X173628D01*
Y165348D01*
X174028D01*
Y166148D01*
X173628D01*
Y166548D01*
X172828D01*
Y166148D01*
X172428D01*
Y165348D01*
X172828D01*
X192513D02*
Y164948D01*
X193313D01*
Y165348D01*
X193713D01*
Y166148D01*
X193313D01*
Y166548D01*
X192513D01*
Y166148D01*
X192113D01*
Y165348D01*
X192513D01*
Y175191D02*
Y174791D01*
X193313D01*
Y175191D01*
X193713D01*
Y175991D01*
X193313D01*
Y176391D01*
X192513D01*
Y175991D01*
X192113D01*
Y175191D01*
X192513D01*
Y185033D02*
Y184633D01*
X193313D01*
Y185033D01*
X193713D01*
Y185833D01*
X193313D01*
Y186233D01*
X192513D01*
Y185833D01*
X192113D01*
Y185033D01*
X192513D01*
X192513Y27553D02*
Y27153D01*
X193313D01*
Y27553D01*
X193713D01*
Y28353D01*
X193313D01*
Y28753D01*
X192513D01*
Y28353D01*
X192113D01*
Y27553D01*
X192513D01*
Y17710D02*
Y17310D01*
X193313D01*
Y17710D01*
X193713D01*
Y18510D01*
X193313D01*
Y18910D01*
X192513D01*
Y18510D01*
X192113D01*
Y17710D01*
X192513D01*
Y7868D02*
Y7468D01*
X193313D01*
Y7868D01*
X193713D01*
Y8668D01*
X193313D01*
Y9068D01*
X192513D01*
Y8668D01*
X192113D01*
Y7868D01*
X192513D01*
X172828D02*
Y7468D01*
X173628D01*
Y7868D01*
X174028D01*
Y8668D01*
X173628D01*
Y9068D01*
X172828D01*
Y8668D01*
X172428D01*
Y7868D01*
X172828D01*
X182671D02*
Y7468D01*
X183471D01*
Y7868D01*
X183871D01*
Y8668D01*
X183471D01*
Y9068D01*
X182671D01*
Y8668D01*
X182271D01*
Y7868D01*
X182671D01*
X162986Y17316D02*
Y16917D01*
X163786D01*
Y17316D01*
X164186D01*
Y18116D01*
X163786D01*
Y18517D01*
X162986D01*
Y18116D01*
X162586D01*
Y17316D01*
X162986D01*
X172828Y17710D02*
Y17310D01*
X173628D01*
Y17710D01*
X174028D01*
Y18510D01*
X173628D01*
Y18910D01*
X172828D01*
Y18510D01*
X172428D01*
Y17710D01*
X172828D01*
X182671D02*
Y17310D01*
X183471D01*
Y17710D01*
X183871D01*
Y18510D01*
X183471D01*
Y18910D01*
X182671D01*
Y18510D01*
X182271D01*
Y17710D01*
X182671D01*
X163037Y23718D02*
Y23318D01*
X163837D01*
Y23718D01*
X164237D01*
Y24518D01*
X163837D01*
Y24918D01*
X163037D01*
Y24518D01*
X162637D01*
Y23718D01*
X163037D01*
X172828Y27553D02*
Y27153D01*
X173628D01*
Y27553D01*
X174028D01*
Y28353D01*
X173628D01*
Y28753D01*
X172828D01*
Y28353D01*
X172428D01*
Y27553D01*
X172828D01*
X182671D02*
Y27153D01*
X183471D01*
Y27553D01*
X183871D01*
Y28353D01*
X183471D01*
Y28753D01*
X182671D01*
Y28353D01*
X182271D01*
Y27553D01*
X182671D01*
X172828Y135820D02*
Y135421D01*
X173628D01*
Y135820D01*
X174028D01*
Y136620D01*
X173628D01*
Y137021D01*
X172828D01*
Y136620D01*
X172428D01*
Y135820D01*
X172828D01*
Y145663D02*
Y145263D01*
X173628D01*
Y145663D01*
X174028D01*
Y146463D01*
X173628D01*
Y146863D01*
X172828D01*
Y146463D01*
X172428D01*
Y145663D01*
X172828D01*
X162986Y145269D02*
Y144869D01*
X163786D01*
Y145269D01*
X164186D01*
Y146069D01*
X163786D01*
Y146469D01*
X162986D01*
Y146069D01*
X162586D01*
Y145269D01*
X162986D01*
X172828Y47238D02*
Y46838D01*
X173628D01*
Y47238D01*
X174028D01*
Y48038D01*
X173628D01*
Y48438D01*
X172828D01*
Y48038D01*
X172428D01*
Y47238D01*
X172828D01*
X182671Y37395D02*
Y36995D01*
X183471D01*
Y37395D01*
X183871D01*
Y38195D01*
X183471D01*
Y38595D01*
X182671D01*
Y38195D01*
X182271D01*
Y37395D01*
X182671D01*
X172828Y57080D02*
Y56680D01*
X173628D01*
Y57080D01*
X174028D01*
Y57880D01*
X173628D01*
Y58280D01*
X172828D01*
Y57880D01*
X172428D01*
Y57080D01*
X172828D01*
Y66923D02*
Y66523D01*
X173628D01*
Y66923D01*
X174028D01*
Y67723D01*
X173628D01*
Y68123D01*
X172828D01*
Y67723D01*
X172428D01*
Y66923D01*
X172828D01*
X123616Y164954D02*
Y164554D01*
X124416D01*
Y164954D01*
X124816D01*
Y165754D01*
X124416D01*
Y166154D01*
X123616D01*
Y165754D01*
X123216D01*
Y164954D01*
X123616D01*
X133458D02*
Y164554D01*
X134258D01*
Y164954D01*
X134658D01*
Y165754D01*
X134258D01*
Y166154D01*
X133458D01*
Y165754D01*
X133058D01*
Y164954D01*
X133458D01*
X123616Y174797D02*
Y174397D01*
X124416D01*
Y174797D01*
X124816D01*
Y175597D01*
X124416D01*
Y175997D01*
X123616D01*
Y175597D01*
X123216D01*
Y174797D01*
X123616D01*
X133458D02*
Y174397D01*
X134258D01*
Y174797D01*
X134658D01*
Y175597D01*
X134258D01*
Y175997D01*
X133458D01*
Y175597D01*
X133058D01*
Y174797D01*
X133458D01*
Y184639D02*
Y184239D01*
X134258D01*
Y184639D01*
X134658D01*
Y185439D01*
X134258D01*
Y185839D01*
X133458D01*
Y185439D01*
X133058D01*
Y184639D01*
X133458D01*
X172828Y125978D02*
Y125578D01*
X173628D01*
Y125978D01*
X174028D01*
Y126778D01*
X173628D01*
Y127178D01*
X172828D01*
Y126778D01*
X172428D01*
Y125978D01*
X172828D01*
X192513Y37395D02*
Y36995D01*
X193313D01*
Y37395D01*
X193713D01*
Y38195D01*
X193313D01*
Y38595D01*
X192513D01*
Y38195D01*
X192113D01*
Y37395D01*
X192513D01*
X25191Y135427D02*
Y135027D01*
X25991D01*
Y135427D01*
X26391D01*
Y136227D01*
X25991D01*
Y136627D01*
X25191D01*
Y136227D01*
X24791D01*
Y135427D01*
X25191D01*
X66529Y27159D02*
Y26759D01*
X67329D01*
Y27159D01*
X67729D01*
Y27959D01*
X67329D01*
Y28359D01*
X66529D01*
Y27959D01*
X66129D01*
Y27159D01*
X66529D01*
Y17316D02*
Y16917D01*
X67329D01*
Y17316D01*
X67729D01*
Y18116D01*
X67329D01*
Y18517D01*
X66529D01*
Y18116D01*
X66129D01*
Y17316D01*
X66529D01*
Y7474D02*
Y7074D01*
X67329D01*
Y7474D01*
X67729D01*
Y8274D01*
X67329D01*
Y8674D01*
X66529D01*
Y8274D01*
X66129D01*
Y7474D01*
X66529D01*
X15348Y135427D02*
Y135027D01*
X16148D01*
Y135427D01*
X16548D01*
Y136227D01*
X16148D01*
Y136627D01*
X15348D01*
Y136227D01*
X14948D01*
Y135427D01*
X15348D01*
X165305Y37258D02*
Y36858D01*
X166105D01*
Y37258D01*
X166505D01*
Y38058D01*
X166105D01*
Y38458D01*
X165305D01*
Y38058D01*
X164905D01*
Y37258D01*
X165305D01*
X143466Y37541D02*
Y37141D01*
X144266D01*
Y37541D01*
X144666D01*
Y38341D01*
X144266D01*
Y38741D01*
X143466D01*
Y38341D01*
X143066D01*
Y37541D01*
X143466D01*
X172828Y37395D02*
Y36995D01*
X173628D01*
Y37395D01*
X174028D01*
Y38195D01*
X173628D01*
Y38595D01*
X172828D01*
Y38195D01*
X172428D01*
Y37395D01*
X172828D01*
X29121Y172822D02*
X29521Y173622D01*
X29121Y174422D01*
X29921Y174022D01*
X30721Y174422D01*
X30321Y173622D01*
X30721Y172822D01*
X29921Y173222D01*
X29121Y172822D01*
Y180302D02*
X29521Y181102D01*
X29121Y181902D01*
X29921Y181502D01*
X30721Y181902D01*
X30321Y181102D01*
X30721Y180302D01*
X29921Y180702D01*
X29121Y180302D01*
X16129Y173609D02*
X16529Y174409D01*
X16129Y175209D01*
X16929Y174809D01*
X17729Y175209D01*
X17329Y174409D01*
X17729Y173609D01*
X16929Y174009D01*
X16129Y173609D01*
X34933Y194512D02*
Y194112D01*
X35733D01*
Y194512D01*
X36133D01*
Y195312D01*
X35733D01*
Y195712D01*
X34933D01*
Y195312D01*
X34533D01*
Y194512D01*
X34933D01*
X34933Y184669D02*
Y184269D01*
X35733D01*
Y184669D01*
X36133D01*
Y185469D01*
X35733D01*
Y185869D01*
X34933D01*
Y185469D01*
X34533D01*
Y184669D01*
X34933D01*
X15248Y194512D02*
Y194112D01*
X16048D01*
Y194512D01*
X16448D01*
Y195312D01*
X16048D01*
Y195712D01*
X15248D01*
Y195312D01*
X14848D01*
Y194512D01*
X15248D01*
X25091D02*
Y194112D01*
X25891D01*
Y194512D01*
X26291D01*
Y195312D01*
X25891D01*
Y195712D01*
X25091D01*
Y195312D01*
X24691D01*
Y194512D01*
X25091D01*
X44776D02*
Y194112D01*
X45576D01*
Y194512D01*
X45976D01*
Y195312D01*
X45576D01*
Y195712D01*
X44776D01*
Y195312D01*
X44376D01*
Y194512D01*
X44776D01*
Y184669D02*
Y184269D01*
X45576D01*
Y184669D01*
X45976D01*
Y185469D01*
X45576D01*
Y185869D01*
X44776D01*
Y185469D01*
X44376D01*
Y184669D01*
X44776D01*
X74403Y174797D02*
Y174397D01*
X75203D01*
Y174797D01*
X75603D01*
Y175597D01*
X75203D01*
Y175997D01*
X74403D01*
Y175597D01*
X74003D01*
Y174797D01*
X74403D01*
X64561D02*
Y174397D01*
X65361D01*
Y174797D01*
X65761D01*
Y175597D01*
X65361D01*
Y175997D01*
X64561D01*
Y175597D01*
X64161D01*
Y174797D01*
X64561D01*
X172828Y106293D02*
Y105893D01*
X173628D01*
Y106293D01*
X174028D01*
Y107093D01*
X173628D01*
Y107493D01*
X172828D01*
Y107093D01*
X172428D01*
Y106293D01*
X172828D01*
X45263Y165735D02*
X45663Y166535D01*
X45263Y167335D01*
X46063Y166935D01*
X46863Y167335D01*
X46463Y166535D01*
X46863Y165735D01*
X46063Y166135D01*
X45263Y165735D01*
X64561Y194482D02*
Y194082D01*
X65361D01*
Y194482D01*
X65761D01*
Y195282D01*
X65361D01*
Y195682D01*
X64561D01*
Y195282D01*
X64161D01*
Y194482D01*
X64561D01*
X74521Y179809D02*
Y179409D01*
X75321D01*
Y179809D01*
X75721D01*
Y180609D01*
X75321D01*
Y181009D01*
X74521D01*
Y180609D01*
X74121D01*
Y179809D01*
X74521D01*
X133458Y194482D02*
Y194082D01*
X134258D01*
Y194482D01*
X134658D01*
Y195282D01*
X134258D01*
Y195682D01*
X133458D01*
Y195282D01*
X133058D01*
Y194482D01*
X133458D01*
X123616D02*
Y194082D01*
X124416D01*
Y194482D01*
X124816D01*
Y195282D01*
X124416D01*
Y195682D01*
X123616D01*
Y195282D01*
X123216D01*
Y194482D01*
X123616D01*
X143301D02*
Y194082D01*
X144101D01*
Y194482D01*
X144501D01*
Y195282D01*
X144101D01*
Y195682D01*
X143301D01*
Y195282D01*
X142901D01*
Y194482D01*
X143301D01*
X153143D02*
Y194082D01*
X153943D01*
Y194482D01*
X154343D01*
Y195282D01*
X153943D01*
Y195682D01*
X153143D01*
Y195282D01*
X152743D01*
Y194482D01*
X153143D01*
X162986D02*
Y194082D01*
X163786D01*
Y194482D01*
X164186D01*
Y195282D01*
X163786D01*
Y195682D01*
X162986D01*
Y195282D01*
X162586D01*
Y194482D01*
X162986D01*
X172828Y194876D02*
Y194476D01*
X173628D01*
Y194876D01*
X174028D01*
Y195676D01*
X173628D01*
Y196076D01*
X172828D01*
Y195676D01*
X172428D01*
Y194876D01*
X172828D01*
X113773Y194482D02*
Y194082D01*
X114573D01*
Y194482D01*
X114973D01*
Y195282D01*
X114573D01*
Y195682D01*
X113773D01*
Y195282D01*
X113373D01*
Y194482D01*
X113773D01*
X103931D02*
Y194082D01*
X104731D01*
Y194482D01*
X105131D01*
Y195282D01*
X104731D01*
Y195682D01*
X103931D01*
Y195282D01*
X103531D01*
Y194482D01*
X103931D01*
X84246D02*
Y194082D01*
X85046D01*
Y194482D01*
X85446D01*
Y195282D01*
X85046D01*
Y195682D01*
X84246D01*
Y195282D01*
X83846D01*
Y194482D01*
X84246D01*
X94088D02*
Y194082D01*
X94888D01*
Y194482D01*
X95288D01*
Y195282D01*
X94888D01*
Y195682D01*
X94088D01*
Y195282D01*
X93688D01*
Y194482D01*
X94088D01*
Y164954D02*
Y164554D01*
X94888D01*
Y164954D01*
X95288D01*
Y165754D01*
X94888D01*
Y166154D01*
X94088D01*
Y165754D01*
X93688D01*
Y164954D01*
X94088D01*
Y155112D02*
Y154712D01*
X94888D01*
Y155112D01*
X95288D01*
Y155912D01*
X94888D01*
Y156312D01*
X94088D01*
Y155912D01*
X93688D01*
Y155112D01*
X94088D01*
X103832D02*
Y154712D01*
X104632D01*
Y155112D01*
X105032D01*
Y155912D01*
X104632D01*
Y156312D01*
X103832D01*
Y155912D01*
X103432D01*
Y155112D01*
X103832D01*
X113675D02*
Y154712D01*
X114475D01*
Y155112D01*
X114875D01*
Y155912D01*
X114475D01*
Y156312D01*
X113675D01*
Y155912D01*
X113275D01*
Y155112D01*
X113675D01*
X35399Y154903D02*
Y154503D01*
X36199D01*
Y154903D01*
X36599D01*
Y155703D01*
X36199D01*
Y156103D01*
X35399D01*
Y155703D01*
X34999D01*
Y154903D01*
X35399D01*
X44876Y155112D02*
Y154712D01*
X45676D01*
Y155112D01*
X46076D01*
Y155912D01*
X45676D01*
Y156312D01*
X44876D01*
Y155912D01*
X44476D01*
Y155112D01*
X44876D01*
X35033Y145269D02*
Y144869D01*
X35833D01*
Y145269D01*
X36233D01*
Y146069D01*
X35833D01*
Y146469D01*
X35033D01*
Y146069D01*
X34633D01*
Y145269D01*
X35033D01*
X44876D02*
Y144869D01*
X45676D01*
Y145269D01*
X46076D01*
Y146069D01*
X45676D01*
Y146469D01*
X44876D01*
Y146069D01*
X44476D01*
Y145269D01*
X44876D01*
X17704Y17901D02*
X18104Y18701D01*
X17704Y19501D01*
X18504Y19101D01*
X19304Y19501D01*
X18904Y18701D01*
X19304Y17901D01*
X18504Y18301D01*
X17704Y17901D01*
X18662Y8960D02*
X19062Y9760D01*
X18662Y10560D01*
X19462Y10160D01*
X20262Y10560D01*
X19862Y9760D01*
X20262Y8960D01*
X19462Y9360D01*
X18662Y8960D01*
X22306D02*
X22705Y9760D01*
X22306Y10560D01*
X23106Y10160D01*
X23905Y10560D01*
X23505Y9760D01*
X23905Y8960D01*
X23106Y9360D01*
X22306Y8960D01*
X40137Y33255D02*
X40537Y34055D01*
X40137Y34855D01*
X40937Y34455D01*
X41737Y34855D01*
X41337Y34055D01*
X41737Y33255D01*
X40937Y33655D01*
X40137Y33255D01*
X34903Y45224D02*
X35302Y46024D01*
X34903Y46824D01*
X35702Y46424D01*
X36503Y46824D01*
X36103Y46024D01*
X36503Y45224D01*
X35702Y45624D01*
X34903Y45224D01*
X18932Y32468D02*
X19332Y33268D01*
X18932Y34068D01*
X19732Y33668D01*
X20532Y34068D01*
X20132Y33268D01*
X20532Y32468D01*
X19732Y32868D01*
X18932Y32468D01*
X22527D02*
X22927Y33268D01*
X22527Y34068D01*
X23327Y33668D01*
X24127Y34068D01*
X23727Y33268D01*
X24127Y32468D01*
X23327Y32868D01*
X22527Y32468D01*
X15437Y11805D02*
Y11405D01*
X16237D01*
Y11805D01*
X16637D01*
Y12605D01*
X16237D01*
Y13005D01*
X15437D01*
Y12605D01*
X15037D01*
Y11805D01*
X15437D01*
X18580Y41326D02*
X18980Y42126D01*
X18580Y42926D01*
X19380Y42526D01*
X20180Y42926D01*
X19780Y42126D01*
X20180Y41326D01*
X19380Y41726D01*
X18580Y41326D01*
X35212Y30893D02*
X35612Y31693D01*
X35212Y32493D01*
X36012Y32093D01*
X36812Y32493D01*
X36412Y31693D01*
X36812Y30893D01*
X36012Y31293D01*
X35212Y30893D01*
X9436Y101562D02*
X9836Y102362D01*
X9436Y103162D01*
X10236Y102762D01*
X11036Y103162D01*
X10636Y102362D01*
X11036Y101562D01*
X10236Y101962D01*
X9436Y101562D01*
X9259Y96444D02*
X9659Y97244D01*
X9259Y98044D01*
X10059Y97644D01*
X10859Y98044D01*
X10459Y97244D01*
X10859Y96444D01*
X10059Y96844D01*
X9259Y96444D01*
X9064Y82665D02*
X9464Y83465D01*
X9064Y84265D01*
X9864Y83865D01*
X10664Y84265D01*
X10264Y83465D01*
X10664Y82665D01*
X9864Y83065D01*
X9064Y82665D01*
Y75972D02*
X9464Y76772D01*
X9064Y77572D01*
X9864Y77172D01*
X10664Y77572D01*
X10264Y76772D01*
X10664Y75972D01*
X9864Y76372D01*
X9064Y75972D01*
X13767Y102154D02*
X14167Y102954D01*
X13767Y103754D01*
X14567Y103354D01*
X15367Y103754D01*
X14967Y102954D01*
X15367Y102154D01*
X14567Y102554D01*
X13767Y102154D01*
X13590Y81877D02*
X13990Y82677D01*
X13590Y83477D01*
X14390Y83077D01*
X15190Y83477D01*
X14790Y82677D01*
X15190Y81877D01*
X14390Y82277D01*
X13590Y81877D01*
X15619Y51096D02*
Y50696D01*
X16419D01*
Y51096D01*
X16819D01*
Y51896D01*
X16419D01*
Y52296D01*
X15619D01*
Y51896D01*
X15219D01*
Y51096D01*
X15619D01*
X24164Y81512D02*
Y81112D01*
X24964D01*
Y81512D01*
X25364D01*
Y82312D01*
X24964D01*
Y82712D01*
X24164D01*
Y82312D01*
X23764D01*
Y81512D01*
X24164D01*
X61011Y82271D02*
X61411Y83071D01*
X61011Y83871D01*
X61811Y83471D01*
X62611Y83871D01*
X62211Y83071D01*
X62611Y82271D01*
X61811Y82671D01*
X61011Y82271D01*
X24010Y101962D02*
Y101562D01*
X24810D01*
Y101962D01*
X25210D01*
Y102762D01*
X24810D01*
Y103162D01*
X24010D01*
Y102762D01*
X23609D01*
Y101962D01*
X24010D01*
X16917Y72126D02*
X17316Y72926D01*
X16917Y73726D01*
X17717Y73326D01*
X18517Y73726D01*
X18116Y72926D01*
X18517Y72126D01*
X17717Y72526D01*
X16917Y72126D01*
X16917Y92131D02*
X17316Y92931D01*
X16917Y93731D01*
X17717Y93331D01*
X18517Y93731D01*
X18116Y92931D01*
X18517Y92131D01*
X17717Y92531D01*
X16917Y92131D01*
X24003Y42901D02*
X24403Y43701D01*
X24003Y44501D01*
X24803Y44101D01*
X25603Y44501D01*
X25203Y43701D01*
X25603Y42901D01*
X24803Y43301D01*
X24003Y42901D01*
X10137Y46838D02*
X10537Y47638D01*
X10137Y48438D01*
X10937Y48038D01*
X11737Y48438D01*
X11337Y47638D01*
X11737Y46838D01*
X10937Y47238D01*
X10137Y46838D01*
X20731Y75104D02*
X21131Y75904D01*
X20731Y76704D01*
X21531Y76304D01*
X22331Y76704D01*
X21931Y75904D01*
X22331Y75104D01*
X21531Y75504D01*
X20731Y75104D01*
X24164Y77821D02*
Y77421D01*
X24964D01*
Y77821D01*
X25364D01*
Y78621D01*
X24964D01*
Y79021D01*
X24164D01*
Y78621D01*
X23764D01*
Y77821D01*
X24164D01*
X14409Y95935D02*
Y95535D01*
X15209D01*
Y95935D01*
X15609D01*
Y96735D01*
X15209D01*
Y97135D01*
X14409D01*
Y96735D01*
X14009D01*
Y95935D01*
X14409D01*
X10420Y63773D02*
Y63373D01*
X11220D01*
Y63773D01*
X11620D01*
Y64573D01*
X11220D01*
Y64973D01*
X10420D01*
Y64573D01*
X10020D01*
Y63773D01*
X10420D01*
X20558Y95263D02*
X20958Y96063D01*
X20558Y96863D01*
X21358Y96463D01*
X22158Y96863D01*
X21758Y96063D01*
X22158Y95263D01*
X21358Y95663D01*
X20558Y95263D01*
X14636Y76364D02*
Y75964D01*
X15436D01*
Y76364D01*
X15836D01*
Y77164D01*
X15436D01*
Y77564D01*
X14636D01*
Y77164D01*
X14236D01*
Y76364D01*
X14636D01*
X39924Y45460D02*
X40324Y46260D01*
X39924Y47060D01*
X40724Y46660D01*
X41524Y47060D01*
X41124Y46260D01*
X41524Y45460D01*
X40724Y45860D01*
X39924Y45460D01*
X27153Y20066D02*
X27553Y20866D01*
X27153Y21666D01*
X27953Y21266D01*
X28753Y21666D01*
X28353Y20866D01*
X28753Y20066D01*
X27953Y20466D01*
X27153Y20066D01*
X26568Y11805D02*
Y11405D01*
X27369D01*
Y11805D01*
X27768D01*
Y12605D01*
X27369D01*
Y13005D01*
X26568D01*
Y12605D01*
X26169D01*
Y11805D01*
X26568D01*
X23413Y18294D02*
X23813Y19094D01*
X23413Y19895D01*
X24213Y19494D01*
X25013Y19895D01*
X24613Y19094D01*
X25013Y18294D01*
X24213Y18695D01*
X23413Y18294D01*
X12198Y42120D02*
Y41720D01*
X12998D01*
Y42120D01*
X13398D01*
Y42920D01*
X12998D01*
Y43320D01*
X12198D01*
Y42920D01*
X11798D01*
Y42120D01*
X12198D01*
X14574Y85814D02*
X14974Y86614D01*
X14574Y87414D01*
X15374Y87014D01*
X16174Y87414D01*
X15774Y86614D01*
X16174Y85814D01*
X15374Y86214D01*
X14574Y85814D01*
X22035Y84006D02*
X22435Y84806D01*
X22035Y85606D01*
X22835Y85206D01*
X23635Y85606D01*
X23235Y84806D01*
X23635Y84006D01*
X22835Y84406D01*
X22035Y84006D01*
X24010Y98419D02*
Y98019D01*
X24810D01*
Y98419D01*
X25210D01*
Y99219D01*
X24810D01*
Y99619D01*
X24010D01*
Y99219D01*
X23609D01*
Y98419D01*
X24010D01*
X122035Y85816D02*
X122435Y86616D01*
X122035Y87416D01*
X122835Y87016D01*
X123635Y87416D01*
X123235Y86616D01*
X123635Y85816D01*
X122835Y86216D01*
X122035Y85816D01*
X124003D02*
X124403Y86616D01*
X124003Y87416D01*
X124803Y87016D01*
X125603Y87416D01*
X125203Y86616D01*
X125603Y85816D01*
X124803Y86216D01*
X124003Y85816D01*
X125972D02*
X126372Y86616D01*
X125972Y87416D01*
X126772Y87016D01*
X127572Y87416D01*
X127172Y86616D01*
X127572Y85816D01*
X126772Y86216D01*
X125972Y85816D01*
X127940D02*
X128340Y86616D01*
X127940Y87416D01*
X128740Y87016D01*
X129540Y87416D01*
X129140Y86616D01*
X129540Y85816D01*
X128740Y86216D01*
X127940Y85816D01*
X122428Y125184D02*
X122828Y125984D01*
X122428Y126784D01*
X123228Y126384D01*
X124028Y126784D01*
X123628Y125984D01*
X124028Y125184D01*
X123228Y125584D01*
X122428Y125184D01*
X124397D02*
X124797Y125984D01*
X124397Y126784D01*
X125197Y126384D01*
X125997Y126784D01*
X125597Y125984D01*
X125997Y125184D01*
X125197Y125584D01*
X124397Y125184D01*
X126365D02*
X126765Y125984D01*
X126365Y126784D01*
X127165Y126384D01*
X127965Y126784D01*
X127565Y125984D01*
X127965Y125184D01*
X127165Y125584D01*
X126365Y125184D01*
Y121247D02*
X126765Y122047D01*
X126365Y122847D01*
X127165Y122447D01*
X127965Y122847D01*
X127565Y122047D01*
X127965Y121247D01*
X127165Y121647D01*
X126365Y121247D01*
X128334D02*
X128734Y122047D01*
X128334Y122847D01*
X129134Y122447D01*
X129934Y122847D01*
X129534Y122047D01*
X129934Y121247D01*
X129134Y121647D01*
X128334Y121247D01*
Y125186D02*
X128734Y125986D01*
X128334Y126786D01*
X129134Y126386D01*
X129934Y126786D01*
X129534Y125986D01*
X129934Y125186D01*
X129134Y125586D01*
X128334Y125186D01*
X75184Y129121D02*
X75584Y129921D01*
X75184Y130721D01*
X75984Y130321D01*
X76784Y130721D01*
X76384Y129921D01*
X76784Y129121D01*
X75984Y129521D01*
X75184Y129121D01*
X81090Y125186D02*
X81490Y125986D01*
X81090Y126786D01*
X81890Y126386D01*
X82690Y126786D01*
X82290Y125986D01*
X82690Y125186D01*
X81890Y125586D01*
X81090Y125186D01*
Y121247D02*
X81490Y122047D01*
X81090Y122847D01*
X81890Y122447D01*
X82690Y122847D01*
X82290Y122047D01*
X82690Y121247D01*
X81890Y121647D01*
X81090Y121247D01*
X79121D02*
X79521Y122047D01*
X79121Y122847D01*
X79921Y122447D01*
X80721Y122847D01*
X80321Y122047D01*
X80721Y121247D01*
X79921Y121647D01*
X79121Y121247D01*
X81090Y129121D02*
X81490Y129921D01*
X81090Y130721D01*
X81890Y130321D01*
X82690Y130721D01*
X82290Y129921D01*
X82690Y129121D01*
X81890Y129521D01*
X81090Y129121D01*
X79121Y125184D02*
X79521Y125984D01*
X79121Y126784D01*
X79921Y126384D01*
X80721Y126784D01*
X80321Y125984D01*
X80721Y125184D01*
X79921Y125584D01*
X79121Y125184D01*
X77153D02*
X77553Y125984D01*
X77153Y126784D01*
X77953Y126384D01*
X78753Y126784D01*
X78353Y125984D01*
X78753Y125184D01*
X77953Y125584D01*
X77153Y125184D01*
X79121Y129121D02*
X79521Y129921D01*
X79121Y130721D01*
X79921Y130321D01*
X80721Y130721D01*
X80321Y129921D01*
X80721Y129121D01*
X79921Y129521D01*
X79121Y129121D01*
X81090Y133058D02*
X81490Y133858D01*
X81090Y134658D01*
X81890Y134258D01*
X82690Y134658D01*
X82290Y133858D01*
X82690Y133058D01*
X81890Y133458D01*
X81090Y133058D01*
X79121D02*
X79521Y133858D01*
X79121Y134658D01*
X79921Y134258D01*
X80721Y134658D01*
X80321Y133858D01*
X80721Y133058D01*
X79921Y133458D01*
X79121Y133058D01*
X77153D02*
X77553Y133858D01*
X77153Y134658D01*
X77953Y134258D01*
X78753Y134658D01*
X78353Y133858D01*
X78753Y133058D01*
X77953Y133458D01*
X77153Y133058D01*
Y129121D02*
X77553Y129921D01*
X77153Y130721D01*
X77953Y130321D01*
X78753Y130721D01*
X78353Y129921D01*
X78753Y129121D01*
X77953Y129521D01*
X77153Y129121D01*
X92762Y121195D02*
X93162Y121995D01*
X92762Y122795D01*
X93562Y122395D01*
X94362Y122795D01*
X93962Y121995D01*
X94362Y121195D01*
X93562Y121595D01*
X92762Y121195D01*
Y129069D02*
X93162Y129869D01*
X92762Y130669D01*
X93562Y130269D01*
X94362Y130669D01*
X93962Y129869D01*
X94362Y129069D01*
X93562Y129469D01*
X92762Y129069D01*
X90793D02*
X91193Y129869D01*
X90793Y130669D01*
X91593Y130269D01*
X92393Y130669D01*
X91993Y129869D01*
X92393Y129069D01*
X91593Y129469D01*
X90793Y129069D01*
X90792Y133006D02*
X91192Y133806D01*
X90792Y134606D01*
X91592Y134206D01*
X92392Y134606D01*
X91992Y133806D01*
X92392Y133006D01*
X91592Y133406D01*
X90792Y133006D01*
X92761D02*
X93161Y133806D01*
X92761Y134606D01*
X93561Y134206D01*
X94361Y134606D01*
X93961Y133806D01*
X94361Y133006D01*
X93561Y133406D01*
X92761Y133006D01*
Y125132D02*
X93161Y125932D01*
X92761Y126732D01*
X93561Y126332D01*
X94361Y126732D01*
X93961Y125932D01*
X94361Y125132D01*
X93561Y125532D01*
X92761Y125132D01*
X90792D02*
X91192Y125932D01*
X90792Y126732D01*
X91592Y126332D01*
X92392Y126732D01*
X91992Y125932D01*
X92392Y125132D01*
X91592Y125532D01*
X90792Y125132D01*
X88823D02*
X89223Y125932D01*
X88823Y126732D01*
X89623Y126332D01*
X90423Y126732D01*
X90023Y125932D01*
X90423Y125132D01*
X89623Y125532D01*
X88823Y125132D01*
X89809Y123164D02*
X90209Y123964D01*
X89809Y124764D01*
X90609Y124364D01*
X91409Y124764D01*
X91009Y123964D01*
X91409Y123164D01*
X90609Y123564D01*
X89809Y123164D01*
X91776D02*
X92176Y123964D01*
X91776Y124764D01*
X92576Y124364D01*
X93375Y124764D01*
X92975Y123964D01*
X93375Y123164D01*
X92576Y123564D01*
X91776Y123164D01*
X91777Y131038D02*
X92177Y131838D01*
X91777Y132638D01*
X92577Y132238D01*
X93377Y132638D01*
X92977Y131838D01*
X93377Y131038D01*
X92577Y131438D01*
X91777Y131038D01*
X89809D02*
X90209Y131838D01*
X89809Y132638D01*
X90609Y132238D01*
X91409Y132638D01*
X91009Y131838D01*
X91409Y131038D01*
X90609Y131438D01*
X89809Y131038D01*
X91776Y127101D02*
X92176Y127901D01*
X91776Y128701D01*
X92576Y128301D01*
X93375Y128701D01*
X92975Y127901D01*
X93375Y127101D01*
X92576Y127501D01*
X91776Y127101D01*
X94730Y125132D02*
X95130Y125932D01*
X94730Y126732D01*
X95530Y126332D01*
X96330Y126732D01*
X95930Y125932D01*
X96330Y125132D01*
X95530Y125532D01*
X94730Y125132D01*
Y121195D02*
X95130Y121995D01*
X94730Y122795D01*
X95530Y122395D01*
X96330Y122795D01*
X95930Y121995D01*
X96330Y121195D01*
X95530Y121595D01*
X94730Y121195D01*
X88825Y129071D02*
X89225Y129871D01*
X88825Y130671D01*
X89625Y130271D01*
X90425Y130671D01*
X90025Y129871D01*
X90425Y129071D01*
X89625Y129471D01*
X88825Y129071D01*
X88823Y133008D02*
X89223Y133808D01*
X88823Y134608D01*
X89623Y134208D01*
X90423Y134608D01*
X90023Y133808D01*
X90423Y133008D01*
X89623Y133408D01*
X88823Y133008D01*
X93746Y123164D02*
X94146Y123964D01*
X93746Y124764D01*
X94546Y124364D01*
X95346Y124764D01*
X94946Y123964D01*
X95346Y123164D01*
X94546Y123564D01*
X93746Y123164D01*
Y127102D02*
X94146Y127902D01*
X93746Y128702D01*
X94546Y128303D01*
X95346Y128702D01*
X94946Y127902D01*
X95346Y127102D01*
X94546Y127503D01*
X93746Y127102D01*
Y131040D02*
X94146Y131840D01*
X93746Y132640D01*
X94546Y132239D01*
X95346Y132640D01*
X94946Y131840D01*
X95346Y131040D01*
X94546Y131439D01*
X93746Y131040D01*
X89809Y127102D02*
X90209Y127902D01*
X89809Y128702D01*
X90609Y128303D01*
X91409Y128702D01*
X91009Y127902D01*
X91409Y127102D01*
X90609Y127503D01*
X89809Y127102D01*
X111461Y123171D02*
X111861Y123971D01*
X111461Y124771D01*
X112261Y124372D01*
X113061Y124771D01*
X112661Y123971D01*
X113061Y123171D01*
X112261Y123572D01*
X111461Y123171D01*
X110434Y89774D02*
X110834Y90574D01*
X110434Y91374D01*
X111234Y90974D01*
X112034Y91374D01*
X111634Y90574D01*
X112034Y89774D01*
X111234Y90174D01*
X110434Y89774D01*
X112403D02*
X112803Y90574D01*
X112403Y91374D01*
X113203Y90974D01*
X114003Y91374D01*
X113603Y90574D01*
X114003Y89774D01*
X113203Y90174D01*
X112403Y89774D01*
X112404Y85837D02*
X112804Y86637D01*
X112404Y87437D01*
X113204Y87037D01*
X114004Y87437D01*
X113604Y86637D01*
X114004Y85837D01*
X113204Y86237D01*
X112404Y85837D01*
X110435D02*
X110835Y86637D01*
X110435Y87437D01*
X111235Y87037D01*
X112035Y87437D01*
X111635Y86637D01*
X112035Y85837D01*
X111235Y86237D01*
X110435Y85837D01*
Y93711D02*
X110835Y94511D01*
X110435Y95311D01*
X111235Y94911D01*
X112035Y95311D01*
X111635Y94511D01*
X112035Y93711D01*
X111235Y94111D01*
X110435Y93711D01*
X112404D02*
X112804Y94511D01*
X112404Y95311D01*
X113204Y94911D01*
X114004Y95311D01*
X113604Y94511D01*
X114004Y93711D01*
X113204Y94111D01*
X112404Y93711D01*
X114373D02*
X114773Y94511D01*
X114373Y95311D01*
X115173Y94911D01*
X115973Y95311D01*
X115573Y94511D01*
X115973Y93711D01*
X115173Y94111D01*
X114373Y93711D01*
X111419Y87805D02*
X111819Y88605D01*
X111419Y89406D01*
X112219Y89006D01*
X113019Y89406D01*
X112619Y88605D01*
X113019Y87805D01*
X112219Y88205D01*
X111419Y87805D01*
X113387D02*
X113787Y88605D01*
X113387Y89406D01*
X114187Y89006D01*
X114987Y89406D01*
X114587Y88605D01*
X114987Y87805D01*
X114187Y88205D01*
X113387Y87805D01*
X111421Y91742D02*
X111820Y92542D01*
X111421Y93343D01*
X112221Y92943D01*
X113021Y93343D01*
X112620Y92542D01*
X113021Y91742D01*
X112221Y92142D01*
X111421Y91742D01*
X108466Y93711D02*
X108866Y94511D01*
X108466Y95311D01*
X109266Y94911D01*
X110066Y95311D01*
X109666Y94511D01*
X110066Y93711D01*
X109266Y94111D01*
X108466Y93711D01*
Y89772D02*
X108866Y90572D01*
X108466Y91372D01*
X109266Y90972D01*
X110066Y91372D01*
X109666Y90572D01*
X110066Y89772D01*
X109266Y90172D01*
X108466Y89772D01*
Y85837D02*
X108866Y86637D01*
X108466Y87437D01*
X109266Y87037D01*
X110066Y87437D01*
X109666Y86637D01*
X110066Y85837D01*
X109266Y86237D01*
X108466Y85837D01*
X114371Y89772D02*
X114771Y90572D01*
X114371Y91372D01*
X115171Y90972D01*
X115971Y91372D01*
X115571Y90572D01*
X115971Y89772D01*
X115171Y90172D01*
X114371Y89772D01*
X114373Y85835D02*
X114773Y86635D01*
X114373Y87435D01*
X115173Y87035D01*
X115973Y87435D01*
X115573Y86635D01*
X115973Y85835D01*
X115173Y86235D01*
X114373Y85835D01*
X109450Y91741D02*
X109850Y92541D01*
X109450Y93341D01*
X110250Y92941D01*
X111050Y93341D01*
X110650Y92541D01*
X111050Y91741D01*
X110250Y92141D01*
X109450Y91741D01*
Y87804D02*
X109850Y88604D01*
X109450Y89403D01*
X110250Y89003D01*
X111050Y89403D01*
X110650Y88604D01*
X111050Y87804D01*
X110250Y88204D01*
X109450Y87804D01*
X113387Y91741D02*
X113787Y92541D01*
X113387Y93341D01*
X114187Y92941D01*
X114987Y93341D01*
X114587Y92541D01*
X114987Y91741D01*
X114187Y92141D01*
X113387Y91741D01*
X90749Y89774D02*
X91149Y90574D01*
X90749Y91374D01*
X91549Y90974D01*
X92349Y91374D01*
X91949Y90574D01*
X92349Y89774D01*
X91549Y90174D01*
X90749Y89774D01*
X90750Y93711D02*
X91150Y94511D01*
X90750Y95311D01*
X91550Y94911D01*
X92350Y95311D01*
X91950Y94511D01*
X92350Y93711D01*
X91550Y94111D01*
X90750Y93711D01*
X94688D02*
X95088Y94511D01*
X94688Y95311D01*
X95488Y94911D01*
X96288Y95311D01*
X95888Y94511D01*
X96288Y93711D01*
X95488Y94111D01*
X94688Y93711D01*
X88781D02*
X89181Y94511D01*
X88781Y95311D01*
X89581Y94911D01*
X90381Y95311D01*
X89981Y94511D01*
X90381Y93711D01*
X89581Y94111D01*
X88781Y93711D01*
Y89772D02*
X89181Y90572D01*
X88781Y91372D01*
X89581Y90972D01*
X90381Y91372D01*
X89981Y90572D01*
X90381Y89772D01*
X89581Y90172D01*
X88781Y89772D01*
Y85837D02*
X89181Y86637D01*
X88781Y87437D01*
X89581Y87037D01*
X90381Y87437D01*
X89981Y86637D01*
X90381Y85837D01*
X89581Y86237D01*
X88781Y85837D01*
Y97648D02*
X89181Y98448D01*
X88781Y99248D01*
X89581Y98848D01*
X90381Y99248D01*
X89981Y98448D01*
X90381Y97648D01*
X89581Y98048D01*
X88781Y97648D01*
X89765Y91741D02*
X90165Y92541D01*
X89765Y93341D01*
X90565Y92941D01*
X91365Y93341D01*
X90965Y92541D01*
X91365Y91741D01*
X90565Y92141D01*
X89765Y91741D01*
Y87804D02*
X90165Y88604D01*
X89765Y89403D01*
X90565Y89003D01*
X91365Y89403D01*
X90965Y88604D01*
X91365Y87804D01*
X90565Y88204D01*
X89765Y87804D01*
X127996Y105754D02*
X128396Y106554D01*
X127996Y107354D01*
X128796Y106954D01*
X129596Y107354D01*
X129196Y106554D01*
X129596Y105754D01*
X128796Y106154D01*
X127996Y105754D01*
X126851Y113452D02*
X127251Y114252D01*
X126851Y115052D01*
X127651Y114652D01*
X128451Y115052D01*
X128051Y114252D01*
X128451Y113452D01*
X127651Y113852D01*
X126851Y113452D01*
X89866D02*
X90266Y114252D01*
X89866Y115052D01*
X90666Y114652D01*
X91466Y115052D01*
X91066Y114252D01*
X91466Y113452D01*
X90666Y113852D01*
X89866Y113452D01*
Y105200D02*
X90266Y106000D01*
X89866Y106800D01*
X90666Y106400D01*
X91466Y106800D01*
X91066Y106000D01*
X91466Y105200D01*
X90666Y105600D01*
X89866Y105200D01*
X79983Y105301D02*
X80383Y106101D01*
X79983Y106901D01*
X80783Y106501D01*
X81583Y106901D01*
X81183Y106101D01*
X81583Y105301D01*
X80783Y105701D01*
X79983Y105301D01*
X76874Y113697D02*
X77274Y114497D01*
X76874Y115297D01*
X77674Y114897D01*
X78474Y115297D01*
X78074Y114497D01*
X78474Y113697D01*
X77674Y114097D01*
X76874Y113697D01*
X80759D02*
X81159Y114497D01*
X80759Y115297D01*
X81559Y114897D01*
X82359Y115297D01*
X81959Y114497D01*
X82359Y113697D01*
X81559Y114097D01*
X80759Y113697D01*
X54318Y112784D02*
X54718Y113584D01*
X54318Y114384D01*
X55118Y113984D01*
X55918Y114384D01*
X55518Y113584D01*
X55918Y112784D01*
X55118Y113184D01*
X54318Y112784D01*
X80696Y85816D02*
X81096Y86616D01*
X80696Y87416D01*
X81496Y87016D01*
X82296Y87416D01*
X81896Y86616D01*
X82296Y85816D01*
X81496Y86216D01*
X80696Y85816D01*
X78728D02*
X79128Y86616D01*
X78728Y87416D01*
X79528Y87016D01*
X80328Y87416D01*
X79928Y86616D01*
X80328Y85816D01*
X79528Y86216D01*
X78728Y85816D01*
X80696Y89753D02*
X81096Y90553D01*
X80696Y91353D01*
X81496Y90953D01*
X82296Y91353D01*
X81896Y90553D01*
X82296Y89753D01*
X81496Y90153D01*
X80696Y89753D01*
X78728D02*
X79128Y90553D01*
X78728Y91353D01*
X79528Y90953D01*
X80328Y91353D01*
X79928Y90553D01*
X80328Y89753D01*
X79528Y90153D01*
X78728Y89753D01*
X80696Y93690D02*
X81096Y94490D01*
X80696Y95290D01*
X81496Y94890D01*
X82296Y95290D01*
X81896Y94490D01*
X82296Y93690D01*
X81496Y94090D01*
X80696Y93690D01*
X78728D02*
X79128Y94490D01*
X78728Y95290D01*
X79528Y94890D01*
X80328Y95290D01*
X79928Y94490D01*
X80328Y93690D01*
X79528Y94090D01*
X78728Y93690D01*
X76372Y7474D02*
Y7074D01*
X77172D01*
Y7474D01*
X77572D01*
Y8274D01*
X77172D01*
Y8674D01*
X76372D01*
Y8274D01*
X75972D01*
Y7474D01*
X76372D01*
Y27159D02*
Y26759D01*
X77172D01*
Y27159D01*
X77572D01*
Y27959D01*
X77172D01*
Y28359D01*
X76372D01*
Y27959D01*
X75972D01*
Y27159D01*
X76372D01*
Y46844D02*
Y46444D01*
X77172D01*
Y46844D01*
X77572D01*
Y47644D01*
X77172D01*
Y48044D01*
X76372D01*
Y47644D01*
X75972D01*
Y46844D01*
X76372D01*
Y56687D02*
Y56287D01*
X77172D01*
Y56687D01*
X77572D01*
Y57487D01*
X77172D01*
Y57887D01*
X76372D01*
Y57487D01*
X75972D01*
Y56687D01*
X76372D01*
X76759Y93690D02*
X77159Y94490D01*
X76759Y95290D01*
X77559Y94890D01*
X78359Y95290D01*
X77959Y94490D01*
X78359Y93690D01*
X77559Y94090D01*
X76759Y93690D01*
X76372Y17316D02*
Y16917D01*
X77172D01*
Y17316D01*
X77572D01*
Y18116D01*
X77172D01*
Y18517D01*
X76372D01*
Y18116D01*
X75972D01*
Y17316D01*
X76372D01*
X76759Y97627D02*
X77159Y98427D01*
X76759Y99227D01*
X77559Y98827D01*
X78359Y99227D01*
X77959Y98427D01*
X78359Y97627D01*
X77559Y98027D01*
X76759Y97627D01*
X74791D02*
X75191Y98427D01*
X74791Y99227D01*
X75591Y98827D01*
X76391Y99227D01*
X75991Y98427D01*
X76391Y97627D01*
X75591Y98027D01*
X74791Y97627D01*
X112447Y129077D02*
X112847Y129877D01*
X112447Y130677D01*
X113247Y130277D01*
X114047Y130677D01*
X113647Y129877D01*
X114047Y129077D01*
X113247Y129477D01*
X112447Y129077D01*
X108510Y129079D02*
X108910Y129879D01*
X108510Y130679D01*
X109310Y130279D01*
X110110Y130679D01*
X109710Y129879D01*
X110110Y129079D01*
X109310Y129479D01*
X108510Y129079D01*
X110478Y129077D02*
X110878Y129877D01*
X110478Y130677D01*
X111278Y130277D01*
X112078Y130677D01*
X111678Y129877D01*
X112078Y129077D01*
X111278Y129477D01*
X110478Y129077D01*
X109494Y123171D02*
X109894Y123971D01*
X109494Y124771D01*
X110294Y124372D01*
X111094Y124771D01*
X110694Y123971D01*
X111094Y123171D01*
X110294Y123572D01*
X109494Y123171D01*
X75184Y133058D02*
X75584Y133858D01*
X75184Y134658D01*
X75984Y134258D01*
X76784Y134658D01*
X76384Y133858D01*
X76784Y133058D01*
X75984Y133458D01*
X75184Y133058D01*
X114415Y129079D02*
X114815Y129879D01*
X114415Y130679D01*
X115215Y130279D01*
X116015Y130679D01*
X115615Y129879D01*
X116015Y129079D01*
X115215Y129479D01*
X114415Y129079D01*
X108508Y133016D02*
X108908Y133816D01*
X108508Y134616D01*
X109308Y134216D01*
X110108Y134616D01*
X109708Y133816D01*
X110108Y133016D01*
X109308Y133416D01*
X108508Y133016D01*
X110477Y133014D02*
X110877Y133814D01*
X110477Y134614D01*
X111277Y134214D01*
X112077Y134614D01*
X111677Y133814D01*
X112077Y133014D01*
X111277Y133414D01*
X110477Y133014D01*
X112446D02*
X112846Y133814D01*
X112446Y134614D01*
X113246Y134214D01*
X114046Y134614D01*
X113646Y133814D01*
X114046Y133014D01*
X113246Y133414D01*
X112446Y133014D01*
X114415D02*
X114815Y133814D01*
X114415Y134614D01*
X115215Y134214D01*
X116015Y134614D01*
X115615Y133814D01*
X116015Y133014D01*
X115215Y133414D01*
X114415Y133014D01*
X111462Y131045D02*
X111863Y131845D01*
X111462Y132645D01*
X112262Y132246D01*
X113063Y132645D01*
X112662Y131845D01*
X113063Y131045D01*
X112262Y131446D01*
X111462Y131045D01*
X113431Y131047D02*
X113831Y131847D01*
X113431Y132647D01*
X114231Y132247D01*
X115031Y132647D01*
X114631Y131847D01*
X115031Y131047D01*
X114231Y131447D01*
X113431Y131047D01*
X109494Y131045D02*
X109894Y131845D01*
X109494Y132645D01*
X110294Y132246D01*
X111094Y132645D01*
X110694Y131845D01*
X111094Y131045D01*
X110294Y131446D01*
X109494Y131045D01*
X124397Y133058D02*
X124797Y133858D01*
X124397Y134658D01*
X125197Y134258D01*
X125997Y134658D01*
X125597Y133858D01*
X125997Y133058D01*
X125197Y133458D01*
X124397Y133058D01*
X126365Y129121D02*
X126765Y129921D01*
X126365Y130721D01*
X127165Y130321D01*
X127965Y130721D01*
X127565Y129921D01*
X127965Y129121D01*
X127165Y129521D01*
X126365Y129121D01*
X128334D02*
X128734Y129921D01*
X128334Y130721D01*
X129134Y130321D01*
X129934Y130721D01*
X129534Y129921D01*
X129934Y129121D01*
X129134Y129521D01*
X128334Y129121D01*
X122428D02*
X122828Y129921D01*
X122428Y130721D01*
X123228Y130321D01*
X124028Y130721D01*
X123628Y129921D01*
X124028Y129121D01*
X123228Y129521D01*
X122428Y129121D01*
X128334Y133058D02*
X128734Y133858D01*
X128334Y134658D01*
X129134Y134258D01*
X129934Y134658D01*
X129534Y133858D01*
X129934Y133058D01*
X129134Y133458D01*
X128334Y133058D01*
X124397Y129121D02*
X124797Y129921D01*
X124397Y130721D01*
X125197Y130321D01*
X125997Y130721D01*
X125597Y129921D01*
X125997Y129121D01*
X125197Y129521D01*
X124397Y129121D01*
X126365Y133058D02*
X126765Y133858D01*
X126365Y134658D01*
X127165Y134258D01*
X127965Y134658D01*
X127565Y133858D01*
X127965Y133058D01*
X127165Y133458D01*
X126365Y133058D01*
X4909Y116523D02*
X5309Y117323D01*
X4909Y118123D01*
X5709Y117723D01*
X6509Y118123D01*
X6109Y117323D01*
X6509Y116523D01*
X5709Y116923D01*
X4909Y116523D01*
Y120066D02*
X5309Y120866D01*
X4909Y121666D01*
X5709Y121266D01*
X6509Y121666D01*
X6109Y120866D01*
X6509Y120066D01*
X5709Y120466D01*
X4909Y120066D01*
X124003Y97627D02*
X124403Y98427D01*
X124003Y99227D01*
X124803Y98827D01*
X125603Y99227D01*
X125203Y98427D01*
X125603Y97627D01*
X124803Y98027D01*
X124003Y97627D01*
X122035D02*
X122435Y98427D01*
X122035Y99227D01*
X122835Y98827D01*
X123635Y99227D01*
X123235Y98427D01*
X123635Y97627D01*
X122835Y98027D01*
X122035Y97627D01*
X124003Y93690D02*
X124403Y94490D01*
X124003Y95290D01*
X124803Y94890D01*
X125603Y95290D01*
X125203Y94490D01*
X125603Y93690D01*
X124803Y94090D01*
X124003Y93690D01*
X127940D02*
X128340Y94490D01*
X127940Y95290D01*
X128740Y94890D01*
X129540Y95290D01*
X129140Y94490D01*
X129540Y93690D01*
X128740Y94090D01*
X127940Y93690D01*
X125972D02*
X126372Y94490D01*
X125972Y95290D01*
X126772Y94890D01*
X127572Y95290D01*
X127172Y94490D01*
X127572Y93690D01*
X126772Y94090D01*
X125972Y93690D01*
Y89753D02*
X126372Y90553D01*
X125972Y91353D01*
X126772Y90953D01*
X127572Y91353D01*
X127172Y90553D01*
X127572Y89753D01*
X126772Y90153D01*
X125972Y89753D01*
X124003D02*
X124403Y90553D01*
X124003Y91353D01*
X124803Y90953D01*
X125603Y91353D01*
X125203Y90553D01*
X125603Y89753D01*
X124803Y90153D01*
X124003Y89753D01*
X127940D02*
X128340Y90553D01*
X127940Y91353D01*
X128740Y90953D01*
X129540Y91353D01*
X129140Y90553D01*
X129540Y89753D01*
X128740Y90153D01*
X127940Y89753D01*
X122035Y93688D02*
X122435Y94488D01*
X122035Y95288D01*
X122835Y94888D01*
X123635Y95288D01*
X123235Y94488D01*
X123635Y93688D01*
X122835Y94088D01*
X122035Y93688D01*
Y89753D02*
X122435Y90553D01*
X122035Y91353D01*
X122835Y90953D01*
X123635Y91353D01*
X123235Y90553D01*
X123635Y89753D01*
X122835Y90153D01*
X122035Y89753D01*
X104386Y66529D02*
Y66129D01*
X105186D01*
Y66529D01*
X105586D01*
Y67329D01*
X105186D01*
Y67729D01*
X104386D01*
Y67329D01*
X103986D01*
Y66529D01*
X104386D01*
X83058Y103271D02*
X83458Y104071D01*
X83058Y104871D01*
X83858Y104471D01*
X84658Y104871D01*
X84258Y104071D01*
X84658Y103271D01*
X83858Y103671D01*
X83058Y103271D01*
X140068Y115277D02*
X140468Y116077D01*
X140068Y116877D01*
X140868Y116477D01*
X141668Y116877D01*
X141268Y116077D01*
X141668Y115277D01*
X140868Y115677D01*
X140068Y115277D01*
X137818D02*
X138218Y116077D01*
X137818Y116877D01*
X138618Y116477D01*
X139418Y116877D01*
X139018Y116077D01*
X139418Y115277D01*
X138618Y115677D01*
X137818Y115277D01*
X135850Y118136D02*
X136250Y118936D01*
X135850Y119736D01*
X136650Y119336D01*
X137450Y119736D01*
X137050Y118936D01*
X137450Y118136D01*
X136650Y118536D01*
X135850Y118136D01*
X108255Y97648D02*
X108655Y98448D01*
X108255Y99248D01*
X109055Y98848D01*
X109855Y99248D01*
X109455Y98448D01*
X109855Y97648D01*
X109055Y98048D01*
X108255Y97648D01*
X110224D02*
X110624Y98448D01*
X110224Y99248D01*
X111024Y98848D01*
X111824Y99248D01*
X111424Y98448D01*
X111824Y97648D01*
X111024Y98048D01*
X110224Y97648D01*
X90749D02*
X91149Y98448D01*
X90749Y99248D01*
X91549Y98848D01*
X92349Y99248D01*
X91949Y98448D01*
X92349Y97648D01*
X91549Y98048D01*
X90749Y97648D01*
X76300Y105387D02*
X76700Y106187D01*
X76300Y106987D01*
X77100Y106587D01*
X77900Y106987D01*
X77500Y106187D01*
X77900Y105387D01*
X77100Y105787D01*
X76300Y105387D01*
X54050Y144956D02*
X54450Y145756D01*
X54050Y146556D01*
X54850Y146156D01*
X55650Y146556D01*
X55250Y145756D01*
X55650Y144956D01*
X54850Y145356D01*
X54050Y144956D01*
X45759Y151751D02*
X46159Y152551D01*
X45759Y153351D01*
X46559Y152951D01*
X47359Y153351D01*
X46959Y152551D01*
X47359Y151751D01*
X46559Y152151D01*
X45759Y151751D01*
X72525Y155529D02*
Y155129D01*
X73325D01*
Y155529D01*
X73725D01*
Y156329D01*
X73325D01*
Y156729D01*
X72525D01*
Y156329D01*
X72125D01*
Y155529D01*
X72525D01*
X45393Y167515D02*
X45793Y168315D01*
X45393Y169115D01*
X46193Y168715D01*
X46993Y169115D01*
X46593Y168315D01*
X46993Y167515D01*
X46193Y167915D01*
X45393Y167515D01*
X31519Y155665D02*
X31919Y156465D01*
X31519Y157265D01*
X32319Y156865D01*
X33119Y157265D01*
X32719Y156465D01*
X33119Y155665D01*
X32319Y156065D01*
X31519Y155665D01*
X93803Y113452D02*
X94203Y114252D01*
X93803Y115052D01*
X94603Y114652D01*
X95403Y115052D01*
X95003Y114252D01*
X95403Y113452D01*
X94603Y113852D01*
X93803Y113452D01*
X96250Y110718D02*
X96650Y111518D01*
X96250Y112318D01*
X97050Y111918D01*
X97850Y112318D01*
X97450Y111518D01*
X97850Y110718D01*
X97050Y111118D01*
X96250Y110718D01*
X99771Y132477D02*
X100171Y133277D01*
X99771Y134077D01*
X100571Y133677D01*
X101371Y134077D01*
X100971Y133277D01*
X101371Y132477D01*
X100571Y132877D01*
X99771Y132477D01*
X102933Y123205D02*
X103333Y124005D01*
X102933Y124805D01*
X103733Y124405D01*
X104533Y124805D01*
X104133Y124005D01*
X104533Y123205D01*
X103733Y123605D01*
X102933Y123205D01*
Y132476D02*
X103333Y133276D01*
X102933Y134076D01*
X103733Y133676D01*
X104533Y134076D01*
X104133Y133276D01*
X104533Y132476D01*
X103733Y132876D01*
X102933Y132476D01*
X101171Y130169D02*
X101571Y130969D01*
X101171Y131769D01*
X101971Y131369D01*
X102771Y131769D01*
X102371Y130969D01*
X102771Y130169D01*
X101971Y130569D01*
X101171Y130169D01*
X98022D02*
X98422Y130969D01*
X98022Y131769D01*
X98822Y131369D01*
X99622Y131769D01*
X99222Y130969D01*
X99622Y130169D01*
X98822Y130569D01*
X98022Y130169D01*
X104334Y130168D02*
X104734Y130968D01*
X104334Y131768D01*
X105134Y131368D01*
X105934Y131768D01*
X105534Y130968D01*
X105934Y130168D01*
X105134Y130568D01*
X104334Y130168D01*
X99771Y127841D02*
X100171Y128641D01*
X99771Y129441D01*
X100571Y129042D01*
X101371Y129441D01*
X100971Y128641D01*
X101371Y127841D01*
X100571Y128242D01*
X99771Y127841D01*
X102933Y127840D02*
X103333Y128640D01*
X102933Y129440D01*
X103733Y129041D01*
X104533Y129440D01*
X104133Y128640D01*
X104533Y127840D01*
X103733Y128241D01*
X102933Y127840D01*
X101171Y125535D02*
X101571Y126335D01*
X101171Y127135D01*
X101971Y126735D01*
X102771Y127135D01*
X102371Y126335D01*
X102771Y125535D01*
X101971Y125935D01*
X101171Y125535D01*
X98022D02*
X98422Y126335D01*
X98022Y127135D01*
X98822Y126735D01*
X99622Y127135D01*
X99222Y126335D01*
X99622Y125535D01*
X98822Y125935D01*
X98022Y125535D01*
X104334Y125534D02*
X104734Y126334D01*
X104334Y127134D01*
X105134Y126734D01*
X105934Y127134D01*
X105534Y126334D01*
X105934Y125534D01*
X105134Y125934D01*
X104334Y125534D01*
X137818Y138601D02*
X138218Y139401D01*
X137818Y140201D01*
X138618Y139801D01*
X139418Y140201D01*
X139018Y139401D01*
X139418Y138601D01*
X138618Y139001D01*
X137818Y138601D01*
X134005Y132097D02*
X134405Y132897D01*
X134005Y133697D01*
X134805Y133297D01*
X135605Y133697D01*
X135205Y132897D01*
X135605Y132097D01*
X134805Y132497D01*
X134005Y132097D01*
Y127443D02*
X134405Y128243D01*
X134005Y129043D01*
X134805Y128643D01*
X135605Y129043D01*
X135205Y128243D01*
X135605Y127443D01*
X134805Y127843D01*
X134005Y127443D01*
Y122790D02*
X134405Y123590D01*
X134005Y124390D01*
X134805Y123989D01*
X135605Y124390D01*
X135205Y123590D01*
X135605Y122790D01*
X134805Y123189D01*
X134005Y122790D01*
Y113482D02*
X134405Y114282D01*
X134005Y115082D01*
X134805Y114682D01*
X135605Y115082D01*
X135205Y114282D01*
X135605Y113482D01*
X134805Y113882D01*
X134005Y113482D01*
Y108829D02*
X134405Y109629D01*
X134005Y110429D01*
X134805Y110029D01*
X135605Y110429D01*
X135205Y109629D01*
X135605Y108829D01*
X134805Y109229D01*
X134005Y108829D01*
Y104175D02*
X134405Y104975D01*
X134005Y105775D01*
X134805Y105375D01*
X135605Y105775D01*
X135205Y104975D01*
X135605Y104175D01*
X134805Y104575D01*
X134005Y104175D01*
Y99521D02*
X134405Y100321D01*
X134005Y101121D01*
X134805Y100721D01*
X135605Y101121D01*
X135205Y100321D01*
X135605Y99521D01*
X134805Y99921D01*
X134005Y99521D01*
Y94868D02*
X134405Y95668D01*
X134005Y96468D01*
X134805Y96068D01*
X135605Y96468D01*
X135205Y95668D01*
X135605Y94868D01*
X134805Y95268D01*
X134005Y94868D01*
Y90214D02*
X134405Y91014D01*
X134005Y91814D01*
X134805Y91414D01*
X135605Y91814D01*
X135205Y91014D01*
X135605Y90214D01*
X134805Y90614D01*
X134005Y90214D01*
Y85561D02*
X134405Y86361D01*
X134005Y87160D01*
X134805Y86760D01*
X135605Y87160D01*
X135205Y86361D01*
X135605Y85561D01*
X134805Y85961D01*
X134005Y85561D01*
Y80907D02*
X134405Y81707D01*
X134005Y82507D01*
X134805Y82107D01*
X135605Y82507D01*
X135205Y81707D01*
X135605Y80907D01*
X134805Y81307D01*
X134005Y80907D01*
Y76253D02*
X134405Y77053D01*
X134005Y77853D01*
X134805Y77453D01*
X135605Y77853D01*
X135205Y77053D01*
X135605Y76253D01*
X134805Y76653D01*
X134005Y76253D01*
X135850D02*
X136250Y77053D01*
X135850Y77853D01*
X136650Y77453D01*
X137450Y77853D01*
X137050Y77053D01*
X137450Y76253D01*
X136650Y76653D01*
X135850Y76253D01*
X137818Y119942D02*
X138218Y120742D01*
X137818Y121542D01*
X138618Y121142D01*
X139418Y121542D01*
X139018Y120742D01*
X139418Y119942D01*
X138618Y120342D01*
X137818Y119942D01*
X140068D02*
X140468Y120742D01*
X140068Y121542D01*
X140868Y121142D01*
X141668Y121542D01*
X141268Y120742D01*
X141668Y119942D01*
X140868Y120342D01*
X140068Y119942D01*
Y129271D02*
X140468Y130071D01*
X140068Y130871D01*
X140868Y130472D01*
X141668Y130871D01*
X141268Y130071D01*
X141668Y129271D01*
X140868Y129672D01*
X140068Y129271D01*
X94688Y85835D02*
X95088Y86635D01*
X94688Y87435D01*
X95488Y87035D01*
X96288Y87435D01*
X95888Y86635D01*
X96288Y85835D01*
X95488Y86235D01*
X94688Y85835D01*
X91733Y87805D02*
X92133Y88605D01*
X91733Y89406D01*
X92533Y89006D01*
X93334Y89406D01*
X92933Y88605D01*
X93334Y87805D01*
X92533Y88205D01*
X91733Y87805D01*
X92718Y89774D02*
X93118Y90574D01*
X92718Y91374D01*
X93518Y90974D01*
X94318Y91374D01*
X93918Y90574D01*
X94318Y89774D01*
X93518Y90174D01*
X92718Y89774D01*
X89765Y95679D02*
X90165Y96479D01*
X89765Y97280D01*
X90565Y96880D01*
X91365Y97280D01*
X90965Y96479D01*
X91365Y95679D01*
X90565Y96079D01*
X89765Y95679D01*
X92719Y93711D02*
X93119Y94511D01*
X92719Y95311D01*
X93519Y94911D01*
X94319Y95311D01*
X93919Y94511D01*
X94319Y93711D01*
X93519Y94111D01*
X92719Y93711D01*
X91735Y95679D02*
X92135Y96479D01*
X91735Y97280D01*
X92535Y96880D01*
X93335Y97280D01*
X92935Y96479D01*
X93335Y95679D01*
X92535Y96079D01*
X91735Y95679D01*
Y91742D02*
X92135Y92542D01*
X91735Y93343D01*
X92535Y92943D01*
X93335Y93343D01*
X92935Y92542D01*
X93335Y91742D01*
X92535Y92142D01*
X91735Y91742D01*
X94686Y89772D02*
X95086Y90572D01*
X94686Y91372D01*
X95486Y90972D01*
X96286Y91372D01*
X95886Y90572D01*
X96286Y89772D01*
X95486Y90172D01*
X94686Y89772D01*
X93702Y91741D02*
X94102Y92541D01*
X93702Y93341D01*
X94502Y92941D01*
X95302Y93341D01*
X94902Y92541D01*
X95302Y91741D01*
X94502Y92141D01*
X93702Y91741D01*
Y87805D02*
X94102Y88605D01*
X93702Y89406D01*
X94502Y89006D01*
X95302Y89406D01*
X94902Y88605D01*
X95302Y87805D01*
X94502Y88205D01*
X93702Y87805D01*
X98100Y114000D02*
X98500Y114800D01*
X98100Y115600D01*
X98900Y115200D01*
X99700Y115600D01*
X99300Y114800D01*
X99700Y114000D01*
X98900Y114400D01*
X98100Y114000D01*
X93701Y95671D02*
X94101Y96471D01*
X93701Y97271D01*
X94501Y96871D01*
X95301Y97271D01*
X94901Y96471D01*
X95301Y95671D01*
X94501Y96071D01*
X93701Y95671D01*
X92719Y85837D02*
X93119Y86637D01*
X92719Y87437D01*
X93519Y87037D01*
X94319Y87437D01*
X93919Y86637D01*
X94319Y85837D01*
X93519Y86237D01*
X92719Y85837D01*
X90750D02*
X91150Y86637D01*
X90750Y87437D01*
X91550Y87037D01*
X92350Y87437D01*
X91950Y86637D01*
X92350Y85837D01*
X91550Y86237D01*
X90750Y85837D01*
X57149Y133941D02*
X57549Y134741D01*
X57149Y135541D01*
X57949Y135141D01*
X58749Y135541D01*
X58349Y134741D01*
X58749Y133941D01*
X57949Y134341D01*
X57149Y133941D01*
D123*
X125324Y79805D02*
G03*
X125324Y79805I-800J0D01*
G01*
X115324D02*
G03*
X115324Y79805I-800J0D01*
G01*
X21099Y138661D02*
G03*
X21099Y138661I-800J0D01*
G01*
Y128661D02*
G03*
X21099Y128661I-800J0D01*
G01*
X8300Y182500D02*
G03*
X8300Y182500I-800J0D01*
G01*
Y172500D02*
G03*
X8300Y172500I-800J0D01*
G01*
Y7500D02*
G03*
X8300Y7500I-800J0D01*
G01*
Y17500D02*
G03*
X8300Y17500I-800J0D01*
G01*
Y27500D02*
G03*
X8300Y27500I-800J0D01*
G01*
Y37500D02*
G03*
X8300Y37500I-800J0D01*
G01*
X193800Y125512D02*
G03*
X193800Y125512I-800J0D01*
G01*
Y135512D02*
G03*
X193800Y135512I-800J0D01*
G01*
Y145512D02*
G03*
X193800Y145512I-800J0D01*
G01*
Y155512D02*
G03*
X193800Y155512I-800J0D01*
G01*
X183800Y125512D02*
G03*
X183800Y125512I-800J0D01*
G01*
Y135512D02*
G03*
X183800Y135512I-800J0D01*
G01*
Y145512D02*
G03*
X183800Y145512I-800J0D01*
G01*
Y155512D02*
G03*
X183800Y155512I-800J0D01*
G01*
Y115512D02*
G03*
X183800Y115512I-800J0D01*
G01*
Y105512D02*
G03*
X183800Y105512I-800J0D01*
G01*
Y95512D02*
G03*
X183800Y95512I-800J0D01*
G01*
Y85512D02*
G03*
X183800Y85512I-800J0D01*
G01*
X193800Y115512D02*
G03*
X193800Y115512I-800J0D01*
G01*
Y105512D02*
G03*
X193800Y105512I-800J0D01*
G01*
Y95512D02*
G03*
X193800Y95512I-800J0D01*
G01*
Y85512D02*
G03*
X193800Y85512I-800J0D01*
G01*
Y45512D02*
G03*
X193800Y45512I-800J0D01*
G01*
Y55512D02*
G03*
X193800Y55512I-800J0D01*
G01*
Y65512D02*
G03*
X193800Y65512I-800J0D01*
G01*
Y75512D02*
G03*
X193800Y75512I-800J0D01*
G01*
X183800Y45512D02*
G03*
X183800Y45512I-800J0D01*
G01*
Y55512D02*
G03*
X183800Y55512I-800J0D01*
G01*
Y65512D02*
G03*
X183800Y65512I-800J0D01*
G01*
Y75512D02*
G03*
X183800Y75512I-800J0D01*
G01*
M02*
