G04 Layer_Color=8388736*
%FSLAX25Y25*%
%MOIN*%
G70*
G01*
G75*
%ADD24C,0.01000*%
%ADD28C,0.00984*%
%ADD29C,0.00984*%
%ADD75O,0.02972X0.00906*%
%ADD76O,0.07008X0.00906*%
%ADD77O,0.06319X0.00906*%
%ADD78C,0.04931*%
G04:AMPARAMS|DCode=79|XSize=53.24mil|YSize=53.24mil|CornerRadius=14.81mil|HoleSize=0mil|Usage=FLASHONLY|Rotation=0.000|XOffset=0mil|YOffset=0mil|HoleType=Round|Shape=RoundedRectangle|*
%AMROUNDEDRECTD79*
21,1,0.05324,0.02362,0,0,0.0*
21,1,0.02362,0.05324,0,0,0.0*
1,1,0.02962,0.01181,-0.01181*
1,1,0.02962,-0.01181,-0.01181*
1,1,0.02962,-0.01181,0.01181*
1,1,0.02962,0.01181,0.01181*
%
%ADD79ROUNDEDRECTD79*%
%ADD80R,0.02559X0.01772*%
%ADD81R,0.14100X0.07600*%
%ADD82R,0.02562X0.01775*%
%ADD83R,0.01775X0.02562*%
%ADD84C,0.08000*%
%ADD85R,0.01772X0.02559*%
%ADD86R,0.04331X0.03543*%
%ADD87C,0.01086*%
%ADD88R,0.03701X0.04488*%
%ADD89C,0.05118*%
G04:AMPARAMS|DCode=90|XSize=72.93mil|YSize=72.93mil|CornerRadius=19.73mil|HoleSize=0mil|Usage=FLASHONLY|Rotation=180.000|XOffset=0mil|YOffset=0mil|HoleType=Round|Shape=RoundedRectangle|*
%AMROUNDEDRECTD90*
21,1,0.07293,0.03347,0,0,180.0*
21,1,0.03347,0.07293,0,0,180.0*
1,1,0.03946,-0.01673,0.01673*
1,1,0.03946,0.01673,0.01673*
1,1,0.03946,0.01673,-0.01673*
1,1,0.03946,-0.01673,-0.01673*
%
%ADD90ROUNDEDRECTD90*%
%ADD91C,0.07293*%
G04:AMPARAMS|DCode=92|XSize=72.93mil|YSize=72.93mil|CornerRadius=19.73mil|HoleSize=0mil|Usage=FLASHONLY|Rotation=90.000|XOffset=0mil|YOffset=0mil|HoleType=Round|Shape=RoundedRectangle|*
%AMROUNDEDRECTD92*
21,1,0.07293,0.03347,0,0,90.0*
21,1,0.03347,0.07293,0,0,90.0*
1,1,0.03946,0.01673,0.01673*
1,1,0.03946,0.01673,-0.01673*
1,1,0.03946,-0.01673,-0.01673*
1,1,0.03946,-0.01673,0.01673*
%
%ADD92ROUNDEDRECTD92*%
%ADD93C,0.04800*%
G04:AMPARAMS|DCode=94|XSize=48mil|YSize=48mil|CornerRadius=13.5mil|HoleSize=0mil|Usage=FLASHONLY|Rotation=270.000|XOffset=0mil|YOffset=0mil|HoleType=Round|Shape=RoundedRectangle|*
%AMROUNDEDRECTD94*
21,1,0.04800,0.02100,0,0,270.0*
21,1,0.02100,0.04800,0,0,270.0*
1,1,0.02700,-0.01050,-0.01050*
1,1,0.02700,-0.01050,0.01050*
1,1,0.02700,0.01050,0.01050*
1,1,0.02700,0.01050,-0.01050*
%
%ADD94ROUNDEDRECTD94*%
G04:AMPARAMS|DCode=95|XSize=74.93mil|YSize=74.93mil|CornerRadius=20.73mil|HoleSize=0mil|Usage=FLASHONLY|Rotation=270.000|XOffset=0mil|YOffset=0mil|HoleType=Round|Shape=RoundedRectangle|*
%AMROUNDEDRECTD95*
21,1,0.07493,0.03347,0,0,270.0*
21,1,0.03347,0.07493,0,0,270.0*
1,1,0.04146,-0.01673,-0.01673*
1,1,0.04146,-0.01673,0.01673*
1,1,0.04146,0.01673,0.01673*
1,1,0.04146,0.01673,-0.01673*
%
%ADD95ROUNDEDRECTD95*%
%ADD96C,0.07493*%
G36*
X53131Y62133D02*
X52761Y62130D01*
X52030Y62015D01*
X51335Y61759D01*
X50704Y61373D01*
X50160Y60870D01*
X49724Y60272D01*
X49414Y59600D01*
X49241Y58881D01*
X49208Y58512D01*
X44455D01*
X45949Y62500D01*
X50279Y66043D01*
X53131Y66845D01*
X53131Y62133D01*
D02*
G37*
G36*
X49208Y58511D02*
Y58512D01*
X49208D01*
X49208Y58511D01*
D02*
G37*
G36*
X152064Y63413D02*
X151694Y63409D01*
X150963Y63294D01*
X150268Y63038D01*
X149637Y62652D01*
X149093Y62150D01*
X148657Y61552D01*
X148347Y60880D01*
X148174Y60160D01*
X148141Y59791D01*
X148141D01*
X148141Y59791D01*
Y59791D01*
X143388D01*
X144882Y63779D01*
X149213Y67323D01*
X152064Y68125D01*
X152064Y63413D01*
D02*
G37*
G36*
X159449Y66535D02*
X162992Y62205D01*
X163794Y59353D01*
X159082Y59351D01*
X159079Y59722D01*
X158964Y60453D01*
X158708Y61148D01*
X158322Y61779D01*
X157820Y62323D01*
X157221Y62759D01*
X156549Y63070D01*
X155829Y63243D01*
X155460Y63276D01*
X155460Y63276D01*
Y68029D01*
X159449Y66535D01*
D02*
G37*
G36*
X60516Y65256D02*
X64059Y60925D01*
X64861Y58074D01*
X60149Y58072D01*
X60146Y58442D01*
X60031Y59173D01*
X59775Y59868D01*
X59389Y60500D01*
X58887Y61044D01*
X58288Y61480D01*
X57616Y61790D01*
X56896Y61964D01*
X56527Y61997D01*
X56527Y61997D01*
Y66750D01*
X60516Y65256D01*
D02*
G37*
G36*
X49075Y54747D02*
X49190Y54015D01*
X49446Y53321D01*
X49832Y52689D01*
X50334Y52145D01*
X50932Y51709D01*
X51604Y51399D01*
X52324Y51225D01*
X52693Y51192D01*
X52693D01*
Y46439D01*
X48705Y47933D01*
X45161Y52264D01*
X44360Y55115D01*
X49071Y55117D01*
X49075Y54747D01*
D02*
G37*
G36*
X63272Y50689D02*
X58941Y47146D01*
X56089Y46344D01*
X56087Y51056D01*
X56458Y51059D01*
X57189Y51174D01*
X57884Y51430D01*
X58516Y51816D01*
X59060Y52318D01*
X59496Y52917D01*
X59806Y53589D01*
X59979Y54308D01*
X60013Y54677D01*
X60013Y54677D01*
X64766D01*
X63272Y50689D01*
D02*
G37*
G36*
X148008Y56026D02*
X148123Y55295D01*
X148379Y54600D01*
X148765Y53969D01*
X149267Y53425D01*
X149865Y52989D01*
X150537Y52678D01*
X151257Y52505D01*
X151626Y52472D01*
X151626D01*
Y47719D01*
X147638Y49213D01*
X144095Y53543D01*
X143293Y56395D01*
X148004Y56397D01*
X148008Y56026D01*
D02*
G37*
G36*
X162205Y51968D02*
X157874Y48425D01*
X155022Y47624D01*
X155020Y52335D01*
X155391Y52338D01*
X156122Y52454D01*
X156817Y52709D01*
X157449Y53096D01*
X157993Y53597D01*
X158429Y54196D01*
X158739Y54868D01*
X158913Y55588D01*
X158946Y55957D01*
X158946Y55957D01*
X163699D01*
X162205Y51968D01*
D02*
G37*
G36*
X152064Y163806D02*
X151694Y163803D01*
X150963Y163688D01*
X150268Y163432D01*
X149637Y163046D01*
X149093Y162544D01*
X148657Y161945D01*
X148347Y161273D01*
X148174Y160554D01*
X148141Y160185D01*
X148141D01*
X148141Y160185D01*
Y160185D01*
X143388D01*
X144882Y164173D01*
X149213Y167717D01*
X152064Y168518D01*
X152064Y163806D01*
D02*
G37*
G36*
X63878Y166929D02*
X67421Y162598D01*
X68223Y159747D01*
X63511Y159745D01*
X63508Y160115D01*
X63393Y160847D01*
X63137Y161541D01*
X62751Y162173D01*
X62249Y162717D01*
X61650Y163153D01*
X60978Y163463D01*
X60259Y163637D01*
X59889Y163670D01*
X59889Y163670D01*
Y168423D01*
X63878Y166929D01*
D02*
G37*
G36*
X56493Y163806D02*
X56123Y163803D01*
X55392Y163688D01*
X54697Y163432D01*
X54066Y163046D01*
X53522Y162544D01*
X53087Y161945D01*
X52776Y161273D01*
X52603Y160554D01*
X52570Y160185D01*
X47817D01*
X49311Y164173D01*
X53642Y167717D01*
X56493Y168518D01*
X56493Y163806D01*
D02*
G37*
G36*
X52570Y160185D02*
Y160185D01*
X52570D01*
X52570Y160185D01*
D02*
G37*
G36*
X159449Y166929D02*
X162992Y162598D01*
X163794Y159747D01*
X159082Y159745D01*
X159079Y160115D01*
X158964Y160847D01*
X158708Y161541D01*
X158322Y162173D01*
X157820Y162717D01*
X157221Y163153D01*
X156549Y163463D01*
X155829Y163637D01*
X155460Y163670D01*
X155460Y163670D01*
Y168423D01*
X159449Y166929D01*
D02*
G37*
G36*
X66634Y152362D02*
X62303Y148819D01*
X59452Y148017D01*
X59449Y152729D01*
X59820Y152732D01*
X60551Y152847D01*
X61246Y153103D01*
X61878Y153489D01*
X62422Y153991D01*
X62858Y154590D01*
X63168Y155262D01*
X63342Y155982D01*
X63375Y156351D01*
X63375Y156351D01*
X68128D01*
X66634Y152362D01*
D02*
G37*
G36*
X162205Y152362D02*
X157874Y148819D01*
X155022Y148017D01*
X155020Y152729D01*
X155391Y152732D01*
X156122Y152847D01*
X156817Y153103D01*
X157449Y153489D01*
X157993Y153991D01*
X158429Y154590D01*
X158739Y155262D01*
X158913Y155982D01*
X158946Y156351D01*
X158946Y156351D01*
X163699D01*
X162205Y152362D01*
D02*
G37*
G36*
X52437Y156420D02*
X52552Y155689D01*
X52808Y154994D01*
X53194Y154362D01*
X53696Y153818D01*
X54295Y153383D01*
X54967Y153072D01*
X55686Y152898D01*
X56055Y152865D01*
X56055D01*
Y148112D01*
X52067Y149606D01*
X48524Y153937D01*
X47722Y156789D01*
X52434Y156791D01*
X52437Y156420D01*
D02*
G37*
G36*
X148008Y156420D02*
X148123Y155689D01*
X148379Y154994D01*
X148765Y154362D01*
X149267Y153818D01*
X149865Y153383D01*
X150537Y153072D01*
X151257Y152898D01*
X151626Y152865D01*
X151626D01*
Y148112D01*
X147638Y149606D01*
X144095Y153937D01*
X143293Y156789D01*
X148004Y156791D01*
X148008Y156420D01*
D02*
G37*
D24*
X155020Y152729D02*
G03*
X158946Y156351I-1477J5539D01*
G01*
X155022Y148017D02*
G03*
X163699Y156237I-1479J10250D01*
G01*
X148004Y156791D02*
G03*
X151626Y152865I5539J1477D01*
G01*
X143293Y156789D02*
G03*
X151512Y148112I10250J1479D01*
G01*
X152066Y163806D02*
G03*
X148141Y160185I1477J-5539D01*
G01*
X152064Y168518D02*
G03*
X143388Y160299I1479J-10250D01*
G01*
X159082Y159745D02*
G03*
X155460Y163670I-5539J-1477D01*
G01*
X163794Y159747D02*
G03*
X155574Y168423I-10250J-1479D01*
G01*
X155020Y52335D02*
G03*
X158946Y55957I-1477J5539D01*
G01*
X155022Y47624D02*
G03*
X163699Y55843I-1479J10250D01*
G01*
X148004Y56397D02*
G03*
X151626Y52472I5539J1477D01*
G01*
X143293Y56395D02*
G03*
X151512Y47719I10250J1479D01*
G01*
X152066Y63413D02*
G03*
X148141Y59791I1477J-5539D01*
G01*
X152064Y68125D02*
G03*
X143388Y59905I1479J-10250D01*
G01*
X159082Y59351D02*
G03*
X155460Y63276I-5539J-1477D01*
G01*
X163794Y59353D02*
G03*
X155574Y68029I-10250J-1479D01*
G01*
X68223Y159747D02*
G03*
X60004Y168423I-10250J-1479D01*
G01*
X63511Y159745D02*
G03*
X59889Y163670I-5539J-1477D01*
G01*
X56493Y168518D02*
G03*
X47817Y160299I1479J-10250D01*
G01*
X56495Y163806D02*
G03*
X52570Y160185I1477J-5539D01*
G01*
X47722Y156789D02*
G03*
X55941Y148112I10250J1479D01*
G01*
X52434Y156791D02*
G03*
X56055Y152865I5539J1477D01*
G01*
X59452Y148017D02*
G03*
X68128Y156237I-1479J10250D01*
G01*
X59449Y152729D02*
G03*
X63375Y156351I-1477J5539D01*
G01*
X64861Y58074D02*
G03*
X56641Y66750I-10250J-1479D01*
G01*
X60149Y58072D02*
G03*
X56527Y61997I-5539J-1477D01*
G01*
X53131Y66845D02*
G03*
X44455Y58626I1479J-10250D01*
G01*
X53133Y62133D02*
G03*
X49208Y58512I1477J-5539D01*
G01*
X44360Y55115D02*
G03*
X52579Y46439I10250J1479D01*
G01*
X49071Y55117D02*
G03*
X52693Y51192I5539J1477D01*
G01*
X56089Y46344D02*
G03*
X64766Y54563I-1479J10250D01*
G01*
X56087Y51056D02*
G03*
X60013Y54677I-1477J5539D01*
G01*
X143388Y160185D02*
Y160299D01*
X151512Y148112D02*
X151626D01*
X163699Y156237D02*
Y156351D01*
X155460Y168423D02*
X155574D01*
X158946Y156351D02*
X163699D01*
X155020Y148017D02*
Y152729D01*
X151626Y148112D02*
Y152865D01*
X143293Y156791D02*
X148004D01*
X143388Y160185D02*
X148141D01*
X152066Y163806D02*
Y168518D01*
X155460Y163670D02*
Y168423D01*
X159082Y159745D02*
X163794D01*
X143388Y59791D02*
Y59905D01*
X151512Y47719D02*
X151626D01*
X163699Y55843D02*
Y55957D01*
X155460Y68029D02*
X155574D01*
X158946Y55957D02*
X163699D01*
X155020Y47624D02*
Y52335D01*
X151626Y47719D02*
Y52472D01*
X143293Y56397D02*
X148004D01*
X143388Y59791D02*
X148141D01*
X152066Y63413D02*
Y68125D01*
X155460Y63276D02*
Y68029D01*
X159082Y59351D02*
X163794D01*
X63511Y159745D02*
X68223D01*
X59889Y163670D02*
Y168423D01*
X56495Y163806D02*
Y168518D01*
X47817Y160185D02*
X52570D01*
X47722Y156791D02*
X52434D01*
X56055Y148112D02*
Y152865D01*
X59449Y148017D02*
Y152729D01*
X63375Y156351D02*
X68128D01*
X59889Y168423D02*
X60004D01*
X68128Y156237D02*
Y156351D01*
X55941Y148112D02*
X56055D01*
X47817Y160185D02*
Y160299D01*
X60149Y58072D02*
X64861D01*
X56527Y61997D02*
Y66750D01*
X53133Y62133D02*
Y66845D01*
X44455Y58512D02*
X49208D01*
X44360Y55117D02*
X49071D01*
X52693Y46439D02*
Y51192D01*
X56087Y46344D02*
Y51056D01*
X60013Y54677D02*
X64766D01*
X56527Y66750D02*
X56641D01*
X64766Y54563D02*
Y54677D01*
X52579Y46439D02*
X52693D01*
X44455Y58512D02*
Y58626D01*
D28*
X0Y0D02*
Y200000D01*
X200000Y0D02*
Y200000D01*
D29*
X0D02*
X200000D01*
X0Y0D02*
X200000D01*
D75*
X123965Y98425D02*
D03*
X128004D02*
D03*
X110185D02*
D03*
X114224D02*
D03*
X114161Y121980D02*
D03*
X110122D02*
D03*
X94547D02*
D03*
X90508D02*
D03*
X94555Y98448D02*
D03*
X90516D02*
D03*
X80760Y98425D02*
D03*
X76720D02*
D03*
X80760Y122047D02*
D03*
X76720D02*
D03*
X123965D02*
D03*
X128004D02*
D03*
D76*
X125984Y86614D02*
D03*
Y90551D02*
D03*
Y94488D02*
D03*
X112205Y86614D02*
D03*
Y90551D02*
D03*
Y94488D02*
D03*
X112142Y133791D02*
D03*
Y129854D02*
D03*
Y125917D02*
D03*
X92528Y133791D02*
D03*
Y129854D02*
D03*
Y125917D02*
D03*
X92535Y94511D02*
D03*
Y90574D02*
D03*
Y86637D02*
D03*
X78740Y94488D02*
D03*
Y90551D02*
D03*
Y86614D02*
D03*
Y133858D02*
D03*
Y129921D02*
D03*
Y125984D02*
D03*
X125984D02*
D03*
Y129921D02*
D03*
Y133858D02*
D03*
D77*
Y88583D02*
D03*
Y96457D02*
D03*
Y92520D02*
D03*
X112205Y88583D02*
D03*
Y96457D02*
D03*
Y92520D02*
D03*
X112142Y131823D02*
D03*
Y123949D02*
D03*
Y127886D02*
D03*
X92528Y131823D02*
D03*
Y123949D02*
D03*
Y127886D02*
D03*
X92535Y92542D02*
D03*
Y96479D02*
D03*
Y88605D02*
D03*
X78740Y92520D02*
D03*
Y96457D02*
D03*
Y88583D02*
D03*
Y131890D02*
D03*
Y124016D02*
D03*
Y127953D02*
D03*
X125984D02*
D03*
Y124016D02*
D03*
Y131890D02*
D03*
D78*
X19158Y153091D02*
D03*
D79*
X24276Y158209D02*
D03*
X14039D02*
D03*
Y147972D02*
D03*
X24276D02*
D03*
D80*
X29669Y124803D02*
D03*
Y121260D02*
D03*
X35374Y113898D02*
D03*
Y117441D02*
D03*
X39676Y110299D02*
D03*
Y106756D02*
D03*
X115469Y118828D02*
D03*
Y115285D02*
D03*
X111844Y118828D02*
D03*
Y115285D02*
D03*
X127500Y118702D02*
D03*
Y115159D02*
D03*
X76904Y102165D02*
D03*
Y105709D02*
D03*
X94420Y102037D02*
D03*
Y105580D02*
D03*
X80709Y102165D02*
D03*
Y105709D02*
D03*
X90666Y102123D02*
D03*
Y105666D02*
D03*
X115551Y102096D02*
D03*
Y105639D02*
D03*
X111811Y102096D02*
D03*
Y105639D02*
D03*
X124640Y101989D02*
D03*
Y105533D02*
D03*
X128567Y101989D02*
D03*
Y105533D02*
D03*
X123655Y118701D02*
D03*
Y115157D02*
D03*
X77576Y118722D02*
D03*
Y115179D02*
D03*
X90500Y118702D02*
D03*
Y115159D02*
D03*
X94519Y118631D02*
D03*
Y115088D02*
D03*
X81529Y118701D02*
D03*
Y115157D02*
D03*
D81*
X123236Y185789D02*
D03*
X90953Y186240D02*
D03*
D82*
X86051Y114201D02*
D03*
Y110658D02*
D03*
X86783Y103646D02*
D03*
Y107189D02*
D03*
D83*
X104249Y103151D02*
D03*
X100706D02*
D03*
X101099Y116930D02*
D03*
X97556D02*
D03*
D84*
X76591Y189764D02*
D03*
X188189D02*
D03*
X188189Y12992D02*
D03*
D85*
X27972Y113716D02*
D03*
X31516D02*
D03*
X32390Y108968D02*
D03*
X35933D02*
D03*
X33079Y153205D02*
D03*
X29535D02*
D03*
D86*
X10059Y97539D02*
D03*
Y103248D02*
D03*
X9864Y77461D02*
D03*
Y83169D02*
D03*
D87*
X101296Y112600D02*
D03*
Y111025D02*
D03*
X104446Y107875D02*
D03*
X102871D02*
D03*
X101296D02*
D03*
Y109450D02*
D03*
X106021Y112600D02*
D03*
Y109450D02*
D03*
Y107875D02*
D03*
Y111025D02*
D03*
X104446Y112600D02*
D03*
X102871D02*
D03*
D88*
X141398Y77850D02*
D03*
X135689D02*
D03*
X141402Y82449D02*
D03*
X135693D02*
D03*
X141437Y87094D02*
D03*
X135728D02*
D03*
X141472Y91772D02*
D03*
X135764D02*
D03*
X141437Y96378D02*
D03*
X135728D02*
D03*
X141437Y100984D02*
D03*
X135728D02*
D03*
X141445Y105776D02*
D03*
X135736D02*
D03*
X141417Y138480D02*
D03*
X135709D02*
D03*
X141421Y133804D02*
D03*
X135713D02*
D03*
X141421Y129128D02*
D03*
X135713D02*
D03*
X141429Y124451D02*
D03*
X135721D02*
D03*
X141429Y119775D02*
D03*
X135721D02*
D03*
X141437Y115099D02*
D03*
X135728D02*
D03*
X141437Y110423D02*
D03*
X135728D02*
D03*
X65489Y111579D02*
D03*
X71198D02*
D03*
X65489Y116244D02*
D03*
X71198D02*
D03*
X65484Y120945D02*
D03*
X71193D02*
D03*
X65465Y125579D02*
D03*
X71173D02*
D03*
X65484Y130193D02*
D03*
X71193D02*
D03*
X65465Y134827D02*
D03*
X71173D02*
D03*
X65434Y139472D02*
D03*
X71143D02*
D03*
X65428Y78673D02*
D03*
X71137D02*
D03*
X65428Y83382D02*
D03*
X71137D02*
D03*
X65463Y88022D02*
D03*
X71172D02*
D03*
X65444Y92665D02*
D03*
X71152D02*
D03*
X65459Y97347D02*
D03*
X71168D02*
D03*
X65475Y102008D02*
D03*
X71184D02*
D03*
X65495Y106709D02*
D03*
X71204D02*
D03*
D89*
X153543Y158268D02*
D03*
X153543Y57874D02*
D03*
X57972Y158268D02*
D03*
X54610Y56595D02*
D03*
D90*
X124524Y79805D02*
D03*
D91*
X114524D02*
D03*
X20299Y138661D02*
D03*
D92*
Y128661D02*
D03*
D93*
X36490Y14245D02*
D03*
Y19245D02*
D03*
X41490Y24245D02*
D03*
Y14245D02*
D03*
Y19245D02*
D03*
X25331Y55968D02*
D03*
Y60969D02*
D03*
X30331Y65969D02*
D03*
Y55968D02*
D03*
Y60969D02*
D03*
D94*
X36490Y24245D02*
D03*
X25331Y65969D02*
D03*
D95*
X7500Y182500D02*
D03*
Y37500D02*
D03*
X183000Y155512D02*
D03*
D96*
X7500Y172500D02*
D03*
Y7500D02*
D03*
Y17500D02*
D03*
Y27500D02*
D03*
X193000Y125512D02*
D03*
Y135512D02*
D03*
Y145512D02*
D03*
Y155512D02*
D03*
X183000Y125512D02*
D03*
Y135512D02*
D03*
Y145512D02*
D03*
Y115512D02*
D03*
Y105512D02*
D03*
Y95512D02*
D03*
Y85512D02*
D03*
X193000Y115512D02*
D03*
Y105512D02*
D03*
Y95512D02*
D03*
Y85512D02*
D03*
Y45512D02*
D03*
Y55512D02*
D03*
Y65512D02*
D03*
Y75512D02*
D03*
X183000Y45512D02*
D03*
Y55512D02*
D03*
Y65512D02*
D03*
Y75512D02*
D03*
M02*
