G04 Layer_Color=16711935*
%FSLAX25Y25*%
%MOIN*%
G70*
G01*
G75*
%ADD28C,0.00984*%
%ADD29C,0.00984*%
%ADD51R,0.02362X0.01181*%
%ADD52R,0.02559X0.01181*%
%ADD80R,0.02559X0.01772*%
%ADD82R,0.02562X0.01775*%
%ADD83R,0.01775X0.02562*%
%ADD84C,0.08000*%
%ADD85R,0.01772X0.02559*%
%ADD86R,0.04331X0.03543*%
%ADD88R,0.03701X0.04488*%
G04:AMPARAMS|DCode=90|XSize=72.93mil|YSize=72.93mil|CornerRadius=19.73mil|HoleSize=0mil|Usage=FLASHONLY|Rotation=180.000|XOffset=0mil|YOffset=0mil|HoleType=Round|Shape=RoundedRectangle|*
%AMROUNDEDRECTD90*
21,1,0.07293,0.03347,0,0,180.0*
21,1,0.03347,0.07293,0,0,180.0*
1,1,0.03946,-0.01673,0.01673*
1,1,0.03946,0.01673,0.01673*
1,1,0.03946,0.01673,-0.01673*
1,1,0.03946,-0.01673,-0.01673*
%
%ADD90ROUNDEDRECTD90*%
%ADD91C,0.07293*%
G04:AMPARAMS|DCode=92|XSize=72.93mil|YSize=72.93mil|CornerRadius=19.73mil|HoleSize=0mil|Usage=FLASHONLY|Rotation=90.000|XOffset=0mil|YOffset=0mil|HoleType=Round|Shape=RoundedRectangle|*
%AMROUNDEDRECTD92*
21,1,0.07293,0.03347,0,0,90.0*
21,1,0.03347,0.07293,0,0,90.0*
1,1,0.03946,0.01673,0.01673*
1,1,0.03946,0.01673,-0.01673*
1,1,0.03946,-0.01673,-0.01673*
1,1,0.03946,-0.01673,0.01673*
%
%ADD92ROUNDEDRECTD92*%
%ADD93C,0.04800*%
G04:AMPARAMS|DCode=94|XSize=48mil|YSize=48mil|CornerRadius=13.5mil|HoleSize=0mil|Usage=FLASHONLY|Rotation=270.000|XOffset=0mil|YOffset=0mil|HoleType=Round|Shape=RoundedRectangle|*
%AMROUNDEDRECTD94*
21,1,0.04800,0.02100,0,0,270.0*
21,1,0.02100,0.04800,0,0,270.0*
1,1,0.02700,-0.01050,-0.01050*
1,1,0.02700,-0.01050,0.01050*
1,1,0.02700,0.01050,0.01050*
1,1,0.02700,0.01050,-0.01050*
%
%ADD94ROUNDEDRECTD94*%
G04:AMPARAMS|DCode=95|XSize=74.93mil|YSize=74.93mil|CornerRadius=20.73mil|HoleSize=0mil|Usage=FLASHONLY|Rotation=270.000|XOffset=0mil|YOffset=0mil|HoleType=Round|Shape=RoundedRectangle|*
%AMROUNDEDRECTD95*
21,1,0.07493,0.03347,0,0,270.0*
21,1,0.03347,0.07493,0,0,270.0*
1,1,0.04146,-0.01673,-0.01673*
1,1,0.04146,-0.01673,0.01673*
1,1,0.04146,0.01673,0.01673*
1,1,0.04146,0.01673,-0.01673*
%
%ADD95ROUNDEDRECTD95*%
%ADD96C,0.07493*%
%ADD97R,0.04488X0.05748*%
%ADD98R,0.10374X0.10886*%
%ADD99R,0.05374X0.03374*%
%ADD100R,0.03153X0.01381*%
%ADD101R,0.07441X0.06260*%
%ADD102R,0.04488X0.03701*%
%ADD103R,0.05748X0.04488*%
%ADD104R,0.03543X0.04331*%
G04:AMPARAMS|DCode=105|XSize=32.05mil|YSize=47.8mil|CornerRadius=7.17mil|HoleSize=0mil|Usage=FLASHONLY|Rotation=90.000|XOffset=0mil|YOffset=0mil|HoleType=Round|Shape=RoundedRectangle|*
%AMROUNDEDRECTD105*
21,1,0.03205,0.03347,0,0,90.0*
21,1,0.01772,0.04780,0,0,90.0*
1,1,0.01433,0.01673,0.00886*
1,1,0.01433,0.01673,-0.00886*
1,1,0.01433,-0.01673,-0.00886*
1,1,0.01433,-0.01673,0.00886*
%
%ADD105ROUNDEDRECTD105*%
G04:AMPARAMS|DCode=106|XSize=29.13mil|YSize=44.88mil|CornerRadius=5.71mil|HoleSize=0mil|Usage=FLASHONLY|Rotation=90.000|XOffset=0mil|YOffset=0mil|HoleType=Round|Shape=RoundedRectangle|*
%AMROUNDEDRECTD106*
21,1,0.02913,0.03347,0,0,90.0*
21,1,0.01772,0.04488,0,0,90.0*
1,1,0.01142,0.01673,0.00886*
1,1,0.01142,0.01673,-0.00886*
1,1,0.01142,-0.01673,-0.00886*
1,1,0.01142,-0.01673,0.00886*
%
%ADD106ROUNDEDRECTD106*%
%ADD107R,0.03701X0.02913*%
D28*
X0Y0D02*
Y200000D01*
X200000Y0D02*
Y200000D01*
D29*
X0D02*
X200000D01*
X0Y0D02*
X200000D01*
D51*
X18012Y103347D02*
D03*
X21358D02*
D03*
Y101378D02*
D03*
Y99410D02*
D03*
Y97441D02*
D03*
X18012Y101378D02*
D03*
Y99410D02*
D03*
X18059Y83189D02*
D03*
X21406D02*
D03*
Y81221D02*
D03*
Y79252D02*
D03*
Y77284D02*
D03*
X18059Y81221D02*
D03*
Y79252D02*
D03*
X19783Y40551D02*
D03*
X23130D02*
D03*
Y38583D02*
D03*
Y36614D02*
D03*
Y34646D02*
D03*
X19783Y38583D02*
D03*
Y36614D02*
D03*
X19587Y17043D02*
D03*
X22933D02*
D03*
Y15075D02*
D03*
Y13106D02*
D03*
Y11138D02*
D03*
X19587Y15075D02*
D03*
Y13106D02*
D03*
D52*
X18110Y97441D02*
D03*
X18158Y77284D02*
D03*
X19882Y34646D02*
D03*
X19685Y11138D02*
D03*
D80*
X16034Y15551D02*
D03*
Y19094D02*
D03*
X27953Y15502D02*
D03*
Y19045D02*
D03*
D82*
X15856Y33413D02*
D03*
Y36956D02*
D03*
X14567Y103151D02*
D03*
Y106694D02*
D03*
X14390Y82874D02*
D03*
Y86417D02*
D03*
D83*
X19183Y24016D02*
D03*
X15640D02*
D03*
X19759Y31102D02*
D03*
X23302D02*
D03*
X19488Y7700D02*
D03*
X23031D02*
D03*
X17913Y93915D02*
D03*
X21457D02*
D03*
X17913Y73910D02*
D03*
X21457D02*
D03*
X11043Y49508D02*
D03*
X14587D02*
D03*
X37059Y31693D02*
D03*
X40602D02*
D03*
D84*
X76591Y189764D02*
D03*
X188189D02*
D03*
X188189Y12992D02*
D03*
D85*
X7504Y46260D02*
D03*
X11047D02*
D03*
X23228Y44292D02*
D03*
X19685D02*
D03*
X23031Y20472D02*
D03*
X19488D02*
D03*
X21457Y106693D02*
D03*
X17913D02*
D03*
X21504Y86522D02*
D03*
X17961D02*
D03*
X16919Y66142D02*
D03*
X13376D02*
D03*
X40325Y48327D02*
D03*
X36782D02*
D03*
D86*
X40016Y176374D02*
D03*
Y170665D02*
D03*
D88*
X37917Y161020D02*
D03*
X32209D02*
D03*
X34378Y190213D02*
D03*
X28669D02*
D03*
D90*
X124524Y79805D02*
D03*
D91*
X114524D02*
D03*
X20299Y138661D02*
D03*
D92*
Y128661D02*
D03*
D93*
X36490Y14245D02*
D03*
Y19245D02*
D03*
X41490Y24245D02*
D03*
Y14245D02*
D03*
Y19245D02*
D03*
X25331Y55968D02*
D03*
Y60969D02*
D03*
X30331Y65969D02*
D03*
Y55968D02*
D03*
Y60969D02*
D03*
D94*
X36490Y24245D02*
D03*
X25331Y65969D02*
D03*
D95*
X7500Y182500D02*
D03*
Y37500D02*
D03*
X183000Y155512D02*
D03*
D96*
X7500Y172500D02*
D03*
Y7500D02*
D03*
Y17500D02*
D03*
Y27500D02*
D03*
X193000Y125512D02*
D03*
Y135512D02*
D03*
Y145512D02*
D03*
Y155512D02*
D03*
X183000Y125512D02*
D03*
Y135512D02*
D03*
Y145512D02*
D03*
Y115512D02*
D03*
Y105512D02*
D03*
Y95512D02*
D03*
Y85512D02*
D03*
X193000Y115512D02*
D03*
Y105512D02*
D03*
Y95512D02*
D03*
Y85512D02*
D03*
Y45512D02*
D03*
Y55512D02*
D03*
Y65512D02*
D03*
Y75512D02*
D03*
X183000Y45512D02*
D03*
Y55512D02*
D03*
Y65512D02*
D03*
Y75512D02*
D03*
D97*
X142972Y93130D02*
D03*
X135295D02*
D03*
X142630Y77114D02*
D03*
X134953D02*
D03*
X71795Y79130D02*
D03*
X64118D02*
D03*
X72089Y88102D02*
D03*
X64411D02*
D03*
X72307Y98315D02*
D03*
X64630D02*
D03*
X134882Y110937D02*
D03*
X142559D02*
D03*
D98*
X135787Y147142D02*
D03*
X40157Y131878D02*
D03*
X54757Y126378D02*
D03*
X121063Y156329D02*
D03*
X79250Y66335D02*
D03*
X132283Y59443D02*
D03*
X95530Y61907D02*
D03*
X118823Y56205D02*
D03*
D99*
X135787Y156398D02*
D03*
X40157Y122622D02*
D03*
X54757Y135634D02*
D03*
X121063Y147073D02*
D03*
X79250Y75590D02*
D03*
X132283Y50187D02*
D03*
X95530Y52651D02*
D03*
X118823Y65461D02*
D03*
D100*
X24016Y176378D02*
D03*
Y174409D02*
D03*
Y178347D02*
D03*
Y180315D02*
D03*
X35433Y174409D02*
D03*
Y176378D02*
D03*
Y180315D02*
D03*
Y178347D02*
D03*
D101*
X29724Y177362D02*
D03*
D102*
X19685Y180217D02*
D03*
Y174508D02*
D03*
D103*
X88009Y140060D02*
D03*
Y147738D02*
D03*
X94744Y140153D02*
D03*
Y147830D02*
D03*
X101395Y140060D02*
D03*
Y147738D02*
D03*
X108088Y140060D02*
D03*
Y147738D02*
D03*
D104*
X44232Y115748D02*
D03*
X38524D02*
D03*
X18012Y185827D02*
D03*
X23720D02*
D03*
D105*
X17889Y54127D02*
D03*
X43703Y36194D02*
D03*
D106*
X7653Y61608D02*
D03*
Y57867D02*
D03*
Y54127D02*
D03*
X17889Y61608D02*
D03*
X33467Y43674D02*
D03*
Y39934D02*
D03*
Y36194D02*
D03*
X43703Y43674D02*
D03*
D107*
X9866Y83465D02*
D03*
Y76772D02*
D03*
X10059Y103937D02*
D03*
Y97244D02*
D03*
M02*
