#VRML V2.0 utf8
Transform { translation 15.078740 -2.480315 4.133858 children [ Shape { appearance Appearance { material Material { diffuseColor 0.55 0.6 0.66 transparency 0.15 } } geometry Box { size 0.236220 0.236220 1.181102 } } ] }
Transform { translation 15.078740 -3.149606 4.133858 children [ Shape { appearance Appearance { material Material { diffuseColor 0.55 0.6 0.66 transparency 0.15 } } geometry Box { size 0.236220 1.102362 1.181102 } } ] }
Transform { translation 15.078740 -7.559055 4.133858 children [ Shape { appearance Appearance { material Material { diffuseColor 0.55 0.6 0.66 transparency 0.15 } } geometry Box { size 0.236220 7.716535 1.181102 } } ] }
Transform { translation 15.078740 -12.253937 4.133858 children [ Shape { appearance Appearance { material Material { diffuseColor 0.55 0.6 0.66 transparency 0.15 } } geometry Box { size 0.236220 1.673228 1.181102 } } ] }
Transform { translation 15.078740 -15.108268 4.133858 children [ Shape { appearance Appearance { material Material { diffuseColor 0.55 0.6 0.66 transparency 0.15 } } geometry Box { size 0.236220 1.279528 1.181102 } } ] }
Transform { translation 15.078740 -18.031496 4.133858 children [ Shape { appearance Appearance { material Material { diffuseColor 0.55 0.6 0.66 transparency 0.15 } } geometry Box { size 0.236220 4.566929 1.181102 } } ] }
Transform { translation 15.078740 -20.866142 4.133858 children [ Shape { appearance Appearance { material Material { diffuseColor 0.55 0.6 0.66 transparency 0.15 } } geometry Box { size 0.236220 1.102362 1.181102 } } ] }
Transform { translation 15.078740 -21.535433 4.133858 children [ Shape { appearance Appearance { material Material { diffuseColor 0.55 0.6 0.66 transparency 0.15 } } geometry Box { size 0.236220 0.236220 1.181102 } } ] }
Transform { translation 15.314961 -2.480315 4.133858 children [ Shape { appearance Appearance { material Material { diffuseColor 0.55 0.6 0.66 transparency 0.15 } } geometry Box { size 0.236220 0.236220 1.181102 } } ] }
Transform { translation 15.314961 -7.559055 4.133858 children [ Shape { appearance Appearance { material Material { diffuseColor 0.55 0.6 0.66 transparency 0.15 } } geometry Box { size 0.236220 7.716535 1.181102 } } ] }
Transform { translation 15.314961 -12.253937 4.133858 children [ Shape { appearance Appearance { material Material { diffuseColor 0.55 0.6 0.66 transparency 0.15 } } geometry Box { size 0.236220 1.673228 1.181102 } } ] }
Transform { translation 15.314961 -15.108268 4.133858 children [ Shape { appearance Appearance { material Material { diffuseColor 0.55 0.6 0.66 transparency 0.15 } } geometry Box { size 0.236220 1.279528 1.181102 } } ] }
Transform { translation 15.314961 -18.031496 4.133858 children [ Shape { appearance Appearance { material Material { diffuseColor 0.55 0.6 0.66 transparency 0.15 } } geometry Box { size 0.236220 4.566929 1.181102 } } ] }
Transform { translation 15.314961 -21.535433 4.133858 children [ Shape { appearance Appearance { material Material { diffuseColor 0.55 0.6 0.66 transparency 0.15 } } geometry Box { size 0.236220 0.236220 1.181102 } } ] }
Transform { translation 15.866142 -2.480315 4.133858 children [ Shape { appearance Appearance { material Material { diffuseColor 0.55 0.6 0.66 transparency 0.15 } } geometry Box { size 0.866142 0.236220 1.181102 } } ] }
Transform { translation 15.866142 -7.559055 4.133858 children [ Shape { appearance Appearance { material Material { diffuseColor 0.55 0.6 0.66 transparency 0.15 } } geometry Box { size 0.866142 7.716535 1.181102 } } ] }
Transform { translation 15.866142 -18.031496 4.133858 children [ Shape { appearance Appearance { material Material { diffuseColor 0.55 0.6 0.66 transparency 0.15 } } geometry Box { size 0.866142 4.566929 1.181102 } } ] }
Transform { translation 15.866142 -21.535433 4.133858 children [ Shape { appearance Appearance { material Material { diffuseColor 0.55 0.6 0.66 transparency 0.15 } } geometry Box { size 0.866142 0.236220 1.181102 } } ] }
Transform { translation 16.574803 -2.480315 4.133858 children [ Shape { appearance Appearance { material Material { diffuseColor 0.55 0.6 0.66 transparency 0.15 } } geometry Box { size 0.551181 0.236220 1.181102 } } ] }
Transform { translation 16.574803 -3.149606 4.133858 children [ Shape { appearance Appearance { material Material { diffuseColor 0.55 0.6 0.66 transparency 0.15 } } geometry Box { size 0.551181 1.102362 1.181102 } } ] }
Transform { translation 16.574803 -7.559055 4.133858 children [ Shape { appearance Appearance { material Material { diffuseColor 0.55 0.6 0.66 transparency 0.15 } } geometry Box { size 0.551181 7.716535 1.181102 } } ] }
Transform { translation 16.574803 -18.031496 4.133858 children [ Shape { appearance Appearance { material Material { diffuseColor 0.55 0.6 0.66 transparency 0.15 } } geometry Box { size 0.551181 4.566929 1.181102 } } ] }
Transform { translation 16.574803 -20.866142 4.133858 children [ Shape { appearance Appearance { material Material { diffuseColor 0.55 0.6 0.66 transparency 0.15 } } geometry Box { size 0.551181 1.102362 1.181102 } } ] }
Transform { translation 16.574803 -21.535433 4.133858 children [ Shape { appearance Appearance { material Material { diffuseColor 0.55 0.6 0.66 transparency 0.15 } } geometry Box { size 0.551181 0.236220 1.181102 } } ] }
Transform { translation 18.425197 -2.480315 4.133858 children [ Shape { appearance Appearance { material Material { diffuseColor 0.55 0.6 0.66 transparency 0.15 } } geometry Box { size 3.149606 0.236220 1.181102 } } ] }
Transform { translation 18.425197 -3.149606 4.133858 children [ Shape { appearance Appearance { material Material { diffuseColor 0.55 0.6 0.66 transparency 0.15 } } geometry Box { size 3.149606 1.102362 1.181102 } } ] }
Transform { translation 18.425197 -7.559055 4.133858 children [ Shape { appearance Appearance { material Material { diffuseColor 0.55 0.6 0.66 transparency 0.15 } } geometry Box { size 3.149606 7.716535 1.181102 } } ] }
Transform { translation 18.425197 -12.253937 4.133858 children [ Shape { appearance Appearance { material Material { diffuseColor 0.55 0.6 0.66 transparency 0.15 } } geometry Box { size 3.149606 1.673228 1.181102 } } ] }
Transform { translation 18.425197 -15.108268 4.133858 children [ Shape { appearance Appearance { material Material { diffuseColor 0.55 0.6 0.66 transparency 0.15 } } geometry Box { size 3.149606 1.279528 1.181102 } } ] }
Transform { translation 18.425197 -18.031496 4.133858 children [ Shape { appearance Appearance { material Material { diffuseColor 0.55 0.6 0.66 transparency 0.15 } } geometry Box { size 3.149606 4.566929 1.181102 } } ] }
Transform { translation 18.425197 -20.866142 4.133858 children [ Shape { appearance Appearance { material Material { diffuseColor 0.55 0.6 0.66 transparency 0.15 } } geometry Box { size 3.149606 1.102362 1.181102 } } ] }
Transform { translation 18.425197 -21.535433 4.133858 children [ Shape { appearance Appearance { material Material { diffuseColor 0.55 0.6 0.66 transparency 0.15 } } geometry Box { size 3.149606 0.236220 1.181102 } } ] }
Transform { translation 20.629921 -2.480315 4.133858 children [ Shape { appearance Appearance { material Material { diffuseColor 0.55 0.6 0.66 transparency 0.15 } } geometry Box { size 1.259843 0.236220 1.181102 } } ] }
Transform { translation 20.629921 -3.149606 4.133858 children [ Shape { appearance Appearance { material Material { diffuseColor 0.55 0.6 0.66 transparency 0.15 } } geometry Box { size 1.259843 1.102362 1.181102 } } ] }
Transform { translation 20.629921 -7.559055 4.133858 children [ Shape { appearance Appearance { material Material { diffuseColor 0.55 0.6 0.66 transparency 0.15 } } geometry Box { size 1.259843 7.716535 1.181102 } } ] }
Transform { translation 20.629921 -18.031496 4.133858 children [ Shape { appearance Appearance { material Material { diffuseColor 0.55 0.6 0.66 transparency 0.15 } } geometry Box { size 1.259843 4.566929 1.181102 } } ] }
Transform { translation 20.629921 -20.866142 4.133858 children [ Shape { appearance Appearance { material Material { diffuseColor 0.55 0.6 0.66 transparency 0.15 } } geometry Box { size 1.259843 1.102362 1.181102 } } ] }
Transform { translation 20.629921 -21.535433 4.133858 children [ Shape { appearance Appearance { material Material { diffuseColor 0.55 0.6 0.66 transparency 0.15 } } geometry Box { size 1.259843 0.236220 1.181102 } } ] }
Transform { translation 21.889764 -2.480315 4.133858 children [ Shape { appearance Appearance { material Material { diffuseColor 0.55 0.6 0.66 transparency 0.15 } } geometry Box { size 1.259843 0.236220 1.181102 } } ] }
Transform { translation 21.889764 -3.149606 4.133858 children [ Shape { appearance Appearance { material Material { diffuseColor 0.55 0.6 0.66 transparency 0.15 } } geometry Box { size 1.259843 1.102362 1.181102 } } ] }
Transform { translation 21.889764 -7.559055 4.133858 children [ Shape { appearance Appearance { material Material { diffuseColor 0.55 0.6 0.66 transparency 0.15 } } geometry Box { size 1.259843 7.716535 1.181102 } } ] }
Transform { translation 21.889764 -12.253937 4.133858 children [ Shape { appearance Appearance { material Material { diffuseColor 0.55 0.6 0.66 transparency 0.15 } } geometry Box { size 1.259843 1.673228 1.181102 } } ] }
Transform { translation 21.889764 -15.108268 4.133858 children [ Shape { appearance Appearance { material Material { diffuseColor 0.55 0.6 0.66 transparency 0.15 } } geometry Box { size 1.259843 1.279528 1.181102 } } ] }
Transform { translation 21.889764 -18.031496 4.133858 children [ Shape { appearance Appearance { material Material { diffuseColor 0.55 0.6 0.66 transparency 0.15 } } geometry Box { size 1.259843 4.566929 1.181102 } } ] }
Transform { translation 21.889764 -20.866142 4.133858 children [ Shape { appearance Appearance { material Material { diffuseColor 0.55 0.6 0.66 transparency 0.15 } } geometry Box { size 1.259843 1.102362 1.181102 } } ] }
Transform { translation 21.889764 -21.535433 4.133858 children [ Shape { appearance Appearance { material Material { diffuseColor 0.55 0.6 0.66 transparency 0.15 } } geometry Box { size 1.259843 0.236220 1.181102 } } ] }
Transform { translation 23.228346 -2.480315 4.133858 children [ Shape { appearance Appearance { material Material { diffuseColor 0.55 0.6 0.66 transparency 0.15 } } geometry Box { size 1.417323 0.236220 1.181102 } } ] }
Transform { translation 23.228346 -3.149606 4.133858 children [ Shape { appearance Appearance { material Material { diffuseColor 0.55 0.6 0.66 transparency 0.15 } } geometry Box { size 1.417323 1.102362 1.181102 } } ] }
Transform { translation 23.228346 -7.559055 4.133858 children [ Shape { appearance Appearance { material Material { diffuseColor 0.55 0.6 0.66 transparency 0.15 } } geometry Box { size 1.417323 7.716535 1.181102 } } ] }
Transform { translation 23.228346 -18.031496 4.133858 children [ Shape { appearance Appearance { material Material { diffuseColor 0.55 0.6 0.66 transparency 0.15 } } geometry Box { size 1.417323 4.566929 1.181102 } } ] }
Transform { translation 23.228346 -20.866142 4.133858 children [ Shape { appearance Appearance { material Material { diffuseColor 0.55 0.6 0.66 transparency 0.15 } } geometry Box { size 1.417323 1.102362 1.181102 } } ] }
Transform { translation 23.228346 -21.535433 4.133858 children [ Shape { appearance Appearance { material Material { diffuseColor 0.55 0.6 0.66 transparency 0.15 } } geometry Box { size 1.417323 0.236220 1.181102 } } ] }
Transform { translation 25.511811 -2.480315 4.133858 children [ Shape { appearance Appearance { material Material { diffuseColor 0.55 0.6 0.66 transparency 0.15 } } geometry Box { size 3.149606 0.236220 1.181102 } } ] }
Transform { translation 25.511811 -3.149606 4.133858 children [ Shape { appearance Appearance { material Material { diffuseColor 0.55 0.6 0.66 transparency 0.15 } } geometry Box { size 3.149606 1.102362 1.181102 } } ] }
Transform { translation 25.511811 -7.559055 4.133858 children [ Shape { appearance Appearance { material Material { diffuseColor 0.55 0.6 0.66 transparency 0.15 } } geometry Box { size 3.149606 7.716535 1.181102 } } ] }
Transform { translation 25.511811 -12.253937 4.133858 children [ Shape { appearance Appearance { material Material { diffuseColor 0.55 0.6 0.66 transparency 0.15 } } geometry Box { size 3.149606 1.673228 1.181102 } } ] }
Transform { translation 25.511811 -15.108268 4.133858 children [ Shape { appearance Appearance { material Material { diffuseColor 0.55 0.6 0.66 transparency 0.15 } } geometry Box { size 3.149606 1.279528 1.181102 } } ] }
Transform { translation 25.511811 -18.031496 4.133858 children [ Shape { appearance Appearance { material Material { diffuseColor 0.55 0.6 0.66 transparency 0.15 } } geometry Box { size 3.149606 4.566929 1.181102 } } ] }
Transform { translation 25.511811 -20.866142 4.133858 children [ Shape { appearance Appearance { material Material { diffuseColor 0.55 0.6 0.66 transparency 0.15 } } geometry Box { size 3.149606 1.102362 1.181102 } } ] }
Transform { translation 25.511811 -21.535433 4.133858 children [ Shape { appearance Appearance { material Material { diffuseColor 0.55 0.6 0.66 transparency 0.15 } } geometry Box { size 3.149606 0.236220 1.181102 } } ] }
Transform { translation 27.716535 -2.480315 4.133858 children [ Shape { appearance Appearance { material Material { diffuseColor 0.55 0.6 0.66 transparency 0.15 } } geometry Box { size 1.259843 0.236220 1.181102 } } ] }
Transform { translation 27.716535 -3.149606 4.133858 children [ Shape { appearance Appearance { material Material { diffuseColor 0.55 0.6 0.66 transparency 0.15 } } geometry Box { size 1.259843 1.102362 1.181102 } } ] }
Transform { translation 27.716535 -7.559055 4.133858 children [ Shape { appearance Appearance { material Material { diffuseColor 0.55 0.6 0.66 transparency 0.15 } } geometry Box { size 1.259843 7.716535 1.181102 } } ] }
Transform { translation 27.716535 -18.031496 4.133858 children [ Shape { appearance Appearance { material Material { diffuseColor 0.55 0.6 0.66 transparency 0.15 } } geometry Box { size 1.259843 4.566929 1.181102 } } ] }
Transform { translation 27.716535 -20.866142 4.133858 children [ Shape { appearance Appearance { material Material { diffuseColor 0.55 0.6 0.66 transparency 0.15 } } geometry Box { size 1.259843 1.102362 1.181102 } } ] }
Transform { translation 27.716535 -21.535433 4.133858 children [ Shape { appearance Appearance { material Material { diffuseColor 0.55 0.6 0.66 transparency 0.15 } } geometry Box { size 1.259843 0.236220 1.181102 } } ] }
Transform { translation 28.464567 -2.480315 4.133858 children [ Shape { appearance Appearance { material Material { diffuseColor 0.55 0.6 0.66 transparency 0.15 } } geometry Box { size 0.236220 0.236220 1.181102 } } ] }
Transform { translation 28.464567 -3.149606 4.133858 children [ Shape { appearance Appearance { material Material { diffuseColor 0.55 0.6 0.66 transparency 0.15 } } geometry Box { size 0.236220 1.102362 1.181102 } } ] }
Transform { translation 28.464567 -7.559055 4.133858 children [ Shape { appearance Appearance { material Material { diffuseColor 0.55 0.6 0.66 transparency 0.15 } } geometry Box { size 0.236220 7.716535 1.181102 } } ] }
Transform { translation 28.464567 -12.253937 4.133858 children [ Shape { appearance Appearance { material Material { diffuseColor 0.55 0.6 0.66 transparency 0.15 } } geometry Box { size 0.236220 1.673228 1.181102 } } ] }
Transform { translation 28.464567 -15.108268 4.133858 children [ Shape { appearance Appearance { material Material { diffuseColor 0.55 0.6 0.66 transparency 0.15 } } geometry Box { size 0.236220 1.279528 1.181102 } } ] }
Transform { translation 28.464567 -18.031496 4.133858 children [ Shape { appearance Appearance { material Material { diffuseColor 0.55 0.6 0.66 transparency 0.15 } } geometry Box { size 0.236220 4.566929 1.181102 } } ] }
Transform { translation 28.464567 -20.866142 4.133858 children [ Shape { appearance Appearance { material Material { diffuseColor 0.55 0.6 0.66 transparency 0.15 } } geometry Box { size 0.236220 1.102362 1.181102 } } ] }
Transform { translation 28.464567 -21.535433 4.133858 children [ Shape { appearance Appearance { material Material { diffuseColor 0.55 0.6 0.66 transparency 0.15 } } geometry Box { size 0.236220 0.236220 1.181102 } } ] }
Transform { translation 29.133858 -2.480315 4.133858 children [ Shape { appearance Appearance { material Material { diffuseColor 0.55 0.6 0.66 transparency 0.15 } } geometry Box { size 1.102362 0.236220 1.181102 } } ] }
Transform { translation 29.133858 -7.559055 4.133858 children [ Shape { appearance Appearance { material Material { diffuseColor 0.55 0.6 0.66 transparency 0.15 } } geometry Box { size 1.102362 7.716535 1.181102 } } ] }
Transform { translation 29.133858 -12.253937 4.133858 children [ Shape { appearance Appearance { material Material { diffuseColor 0.55 0.6 0.66 transparency 0.15 } } geometry Box { size 1.102362 1.673228 1.181102 } } ] }
Transform { translation 29.133858 -15.108268 4.133858 children [ Shape { appearance Appearance { material Material { diffuseColor 0.55 0.6 0.66 transparency 0.15 } } geometry Box { size 1.102362 1.279528 1.181102 } } ] }
Transform { translation 29.133858 -18.031496 4.133858 children [ Shape { appearance Appearance { material Material { diffuseColor 0.55 0.6 0.66 transparency 0.15 } } geometry Box { size 1.102362 4.566929 1.181102 } } ] }
Transform { translation 29.133858 -21.535433 4.133858 children [ Shape { appearance Appearance { material Material { diffuseColor 0.55 0.6 0.66 transparency 0.15 } } geometry Box { size 1.102362 0.236220 1.181102 } } ] }
Transform { translation 29.803150 -2.480315 4.133858 children [ Shape { appearance Appearance { material Material { diffuseColor 0.55 0.6 0.66 transparency 0.15 } } geometry Box { size 0.236220 0.236220 1.181102 } } ] }
Transform { translation 29.803150 -3.149606 4.133858 children [ Shape { appearance Appearance { material Material { diffuseColor 0.55 0.6 0.66 transparency 0.15 } } geometry Box { size 0.236220 1.102362 1.181102 } } ] }
Transform { translation 29.803150 -7.559055 4.133858 children [ Shape { appearance Appearance { material Material { diffuseColor 0.55 0.6 0.66 transparency 0.15 } } geometry Box { size 0.236220 7.716535 1.181102 } } ] }
Transform { translation 29.803150 -12.253937 4.133858 children [ Shape { appearance Appearance { material Material { diffuseColor 0.55 0.6 0.66 transparency 0.15 } } geometry Box { size 0.236220 1.673228 1.181102 } } ] }
Transform { translation 29.803150 -15.108268 4.133858 children [ Shape { appearance Appearance { material Material { diffuseColor 0.55 0.6 0.66 transparency 0.15 } } geometry Box { size 0.236220 1.279528 1.181102 } } ] }
Transform { translation 29.803150 -18.031496 4.133858 children [ Shape { appearance Appearance { material Material { diffuseColor 0.55 0.6 0.66 transparency 0.15 } } geometry Box { size 0.236220 4.566929 1.181102 } } ] }
Transform { translation 29.803150 -20.866142 4.133858 children [ Shape { appearance Appearance { material Material { diffuseColor 0.55 0.6 0.66 transparency 0.15 } } geometry Box { size 0.236220 1.102362 1.181102 } } ] }
Transform { translation 29.803150 -21.535433 4.133858 children [ Shape { appearance Appearance { material Material { diffuseColor 0.55 0.6 0.66 transparency 0.15 } } geometry Box { size 0.236220 0.236220 1.181102 } } ] }
Transform { translation 18.897638 -12.598425 1.978346 children [ Shape { appearance Appearance { material Material { diffuseColor 0.55 0.6 0.66 transparency 0.15 } } geometry Box { size 1.574803 0.787402 3.129921 } } ] }
Transform { translation 18.897638 -12.598425 0.344488 children [ Shape { appearance Appearance { material Material { diffuseColor 0.25 0.7 0.75 transparency 0.15 } } geometry Box { size 2.165354 1.377953 0.137795 } } ] }
Transform { translation 18.897638 -14.960630 1.978346 children [ Shape { appearance Appearance { material Material { diffuseColor 0.55 0.6 0.66 transparency 0.15 } } geometry Box { size 1.574803 0.787402 3.129921 } } ] }
Transform { translation 18.897638 -14.960630 0.344488 children [ Shape { appearance Appearance { material Material { diffuseColor 0.25 0.7 0.75 transparency 0.15 } } geometry Box { size 2.165354 1.377953 0.137795 } } ] }
Transform { translation 25.984252 -12.598425 1.978346 children [ Shape { appearance Appearance { material Material { diffuseColor 0.55 0.6 0.66 transparency 0.15 } } geometry Box { size 1.574803 0.787402 3.129921 } } ] }
Transform { translation 25.984252 -12.598425 0.344488 children [ Shape { appearance Appearance { material Material { diffuseColor 0.25 0.7 0.75 transparency 0.15 } } geometry Box { size 2.165354 1.377953 0.137795 } } ] }
Transform { translation 25.984252 -14.960630 1.978346 children [ Shape { appearance Appearance { material Material { diffuseColor 0.55 0.6 0.66 transparency 0.15 } } geometry Box { size 1.574803 0.787402 3.129921 } } ] }
Transform { translation 25.984252 -14.960630 0.344488 children [ Shape { appearance Appearance { material Material { diffuseColor 0.25 0.7 0.75 transparency 0.15 } } geometry Box { size 2.165354 1.377953 0.137795 } } ] }