#VRML V2.0 utf8
Transform { translation 15.078740157480313 -2.4803149606299213 4.133858267716535 children [ Shape { appearance Appearance { material Material { diffuseColor 0.55 0.6 0.66 transparency .2 } } geometry Box { size 0.23622047244094543 0.23622047244094474 1.1811023622047243 } } ] }
Transform { translation 15.078740157480313 -3.149606299212598 4.133858267716535 children [ Shape { appearance Appearance { material Material { diffuseColor 0.55 0.6 0.66 transparency .2 } } geometry Box { size 0.23622047244094543 1.1023622047244097 1.1811023622047243 } } ] }
Transform { translation 15.078740157480313 -7.559055118110236 4.133858267716535 children [ Shape { appearance Appearance { material Material { diffuseColor 0.55 0.6 0.66 transparency .2 } } geometry Box { size 0.23622047244094543 7.716535433070867 1.1811023622047243 } } ] }
Transform { translation 15.078740157480313 -12.185039370078739 4.133858267716535 children [ Shape { appearance Appearance { material Material { diffuseColor 0.55 0.6 0.66 transparency .2 } } geometry Box { size 0.23622047244094543 1.5354330708661412 1.1811023622047243 } } ] }
Transform { translation 15.078740157480313 -15.177165354330707 4.133858267716535 children [ Shape { appearance Appearance { material Material { diffuseColor 0.55 0.6 0.66 transparency .2 } } geometry Box { size 0.23622047244094543 1.1417322834645665 1.1811023622047243 } } ] }
Transform { translation 15.078740157480313 -18.031496062992126 4.133858267716535 children [ Shape { appearance Appearance { material Material { diffuseColor 0.55 0.6 0.66 transparency .2 } } geometry Box { size 0.23622047244094543 4.5669291338582685 1.1811023622047243 } } ] }
Transform { translation 15.078740157480313 -20.866141732283463 4.133858267716535 children [ Shape { appearance Appearance { material Material { diffuseColor 0.55 0.6 0.66 transparency .2 } } geometry Box { size 0.23622047244094543 1.1023622047244084 1.1811023622047243 } } ] }
Transform { translation 15.078740157480313 -21.53543307086614 4.133858267716535 children [ Shape { appearance Appearance { material Material { diffuseColor 0.55 0.6 0.66 transparency .2 } } geometry Box { size 0.23622047244094543 0.23622047244094543 1.1811023622047243 } } ] }
Transform { translation 15.314960629921261 -2.4803149606299213 4.133858267716535 children [ Shape { appearance Appearance { material Material { diffuseColor 0.55 0.6 0.66 transparency .2 } } geometry Box { size 0.23622047244094543 0.23622047244094474 1.1811023622047243 } } ] }
Transform { translation 15.314960629921261 -7.559055118110236 4.133858267716535 children [ Shape { appearance Appearance { material Material { diffuseColor 0.55 0.6 0.66 transparency .2 } } geometry Box { size 0.23622047244094543 7.716535433070867 1.1811023622047243 } } ] }
Transform { translation 15.314960629921261 -12.185039370078739 4.133858267716535 children [ Shape { appearance Appearance { material Material { diffuseColor 0.55 0.6 0.66 transparency .2 } } geometry Box { size 0.23622047244094543 1.5354330708661412 1.1811023622047243 } } ] }
Transform { translation 15.314960629921261 -15.177165354330707 4.133858267716535 children [ Shape { appearance Appearance { material Material { diffuseColor 0.55 0.6 0.66 transparency .2 } } geometry Box { size 0.23622047244094543 1.1417322834645665 1.1811023622047243 } } ] }
Transform { translation 15.314960629921261 -18.031496062992126 4.133858267716535 children [ Shape { appearance Appearance { material Material { diffuseColor 0.55 0.6 0.66 transparency .2 } } geometry Box { size 0.23622047244094543 4.5669291338582685 1.1811023622047243 } } ] }
Transform { translation 15.314960629921261 -21.53543307086614 4.133858267716535 children [ Shape { appearance Appearance { material Material { diffuseColor 0.55 0.6 0.66 transparency .2 } } geometry Box { size 0.23622047244094543 0.23622047244094543 1.1811023622047243 } } ] }
Transform { translation 15.866141732283463 -2.4803149606299213 4.133858267716535 children [ Shape { appearance Appearance { material Material { diffuseColor 0.55 0.6 0.66 transparency .2 } } geometry Box { size 0.8661417322834629 0.23622047244094474 1.1811023622047243 } } ] }
Transform { translation 15.866141732283463 -7.559055118110236 4.133858267716535 children [ Shape { appearance Appearance { material Material { diffuseColor 0.55 0.6 0.66 transparency .2 } } geometry Box { size 0.8661417322834629 7.716535433070867 1.1811023622047243 } } ] }
Transform { translation 15.866141732283463 -18.031496062992126 4.133858267716535 children [ Shape { appearance Appearance { material Material { diffuseColor 0.55 0.6 0.66 transparency .2 } } geometry Box { size 0.8661417322834629 4.5669291338582685 1.1811023622047243 } } ] }
Transform { translation 15.866141732283463 -21.53543307086614 4.133858267716535 children [ Shape { appearance Appearance { material Material { diffuseColor 0.55 0.6 0.66 transparency .2 } } geometry Box { size 0.8661417322834629 0.23622047244094543 1.1811023622047243 } } ] }
Transform { translation 16.574803149606296 -2.4803149606299213 4.133858267716535 children [ Shape { appearance Appearance { material Material { diffuseColor 0.55 0.6 0.66 transparency .2 } } geometry Box { size 0.5511811023622042 0.23622047244094474 1.1811023622047243 } } ] }
Transform { translation 16.574803149606296 -3.149606299212598 4.133858267716535 children [ Shape { appearance Appearance { material Material { diffuseColor 0.55 0.6 0.66 transparency .2 } } geometry Box { size 0.5511811023622042 1.1023622047244097 1.1811023622047243 } } ] }
Transform { translation 16.574803149606296 -7.559055118110236 4.133858267716535 children [ Shape { appearance Appearance { material Material { diffuseColor 0.55 0.6 0.66 transparency .2 } } geometry Box { size 0.5511811023622042 7.716535433070867 1.1811023622047243 } } ] }
Transform { translation 16.574803149606296 -18.031496062992126 4.133858267716535 children [ Shape { appearance Appearance { material Material { diffuseColor 0.55 0.6 0.66 transparency .2 } } geometry Box { size 0.5511811023622042 4.5669291338582685 1.1811023622047243 } } ] }
Transform { translation 16.574803149606296 -20.866141732283463 4.133858267716535 children [ Shape { appearance Appearance { material Material { diffuseColor 0.55 0.6 0.66 transparency .2 } } geometry Box { size 0.5511811023622042 1.1023622047244084 1.1811023622047243 } } ] }
Transform { translation 16.574803149606296 -21.53543307086614 4.133858267716535 children [ Shape { appearance Appearance { material Material { diffuseColor 0.55 0.6 0.66 transparency .2 } } geometry Box { size 0.5511811023622042 0.23622047244094543 1.1811023622047243 } } ] }
Transform { translation 18.4251968503937 -2.4803149606299213 4.133858267716535 children [ Shape { appearance Appearance { material Material { diffuseColor 0.55 0.6 0.66 transparency .2 } } geometry Box { size 3.149606299212598 0.23622047244094474 1.1811023622047243 } } ] }
Transform { translation 18.4251968503937 -3.149606299212598 4.133858267716535 children [ Shape { appearance Appearance { material Material { diffuseColor 0.55 0.6 0.66 transparency .2 } } geometry Box { size 3.149606299212598 1.1023622047244097 1.1811023622047243 } } ] }
Transform { translation 18.4251968503937 -7.559055118110236 4.133858267716535 children [ Shape { appearance Appearance { material Material { diffuseColor 0.55 0.6 0.66 transparency .2 } } geometry Box { size 3.149606299212598 7.716535433070867 1.1811023622047243 } } ] }
Transform { translation 18.4251968503937 -12.185039370078739 4.133858267716535 children [ Shape { appearance Appearance { material Material { diffuseColor 0.55 0.6 0.66 transparency .2 } } geometry Box { size 3.149606299212598 1.5354330708661412 1.1811023622047243 } } ] }
Transform { translation 18.4251968503937 -15.177165354330707 4.133858267716535 children [ Shape { appearance Appearance { material Material { diffuseColor 0.55 0.6 0.66 transparency .2 } } geometry Box { size 3.149606299212598 1.1417322834645665 1.1811023622047243 } } ] }
Transform { translation 18.4251968503937 -18.031496062992126 4.133858267716535 children [ Shape { appearance Appearance { material Material { diffuseColor 0.55 0.6 0.66 transparency .2 } } geometry Box { size 3.149606299212598 4.5669291338582685 1.1811023622047243 } } ] }
Transform { translation 18.4251968503937 -20.866141732283463 4.133858267716535 children [ Shape { appearance Appearance { material Material { diffuseColor 0.55 0.6 0.66 transparency .2 } } geometry Box { size 3.149606299212598 1.1023622047244084 1.1811023622047243 } } ] }
Transform { translation 18.4251968503937 -21.53543307086614 4.133858267716535 children [ Shape { appearance Appearance { material Material { diffuseColor 0.55 0.6 0.66 transparency .2 } } geometry Box { size 3.149606299212598 0.23622047244094543 1.1811023622047243 } } ] }
Transform { translation 20.62992125984252 -2.4803149606299213 4.133858267716535 children [ Shape { appearance Appearance { material Material { diffuseColor 0.55 0.6 0.66 transparency .2 } } geometry Box { size 1.2598425196850405 0.23622047244094474 1.1811023622047243 } } ] }
Transform { translation 20.62992125984252 -3.149606299212598 4.133858267716535 children [ Shape { appearance Appearance { material Material { diffuseColor 0.55 0.6 0.66 transparency .2 } } geometry Box { size 1.2598425196850405 1.1023622047244097 1.1811023622047243 } } ] }
Transform { translation 20.62992125984252 -7.559055118110236 4.133858267716535 children [ Shape { appearance Appearance { material Material { diffuseColor 0.55 0.6 0.66 transparency .2 } } geometry Box { size 1.2598425196850405 7.716535433070867 1.1811023622047243 } } ] }
Transform { translation 20.62992125984252 -18.031496062992126 4.133858267716535 children [ Shape { appearance Appearance { material Material { diffuseColor 0.55 0.6 0.66 transparency .2 } } geometry Box { size 1.2598425196850405 4.5669291338582685 1.1811023622047243 } } ] }
Transform { translation 20.62992125984252 -20.866141732283463 4.133858267716535 children [ Shape { appearance Appearance { material Material { diffuseColor 0.55 0.6 0.66 transparency .2 } } geometry Box { size 1.2598425196850405 1.1023622047244084 1.1811023622047243 } } ] }
Transform { translation 20.62992125984252 -21.53543307086614 4.133858267716535 children [ Shape { appearance Appearance { material Material { diffuseColor 0.55 0.6 0.66 transparency .2 } } geometry Box { size 1.2598425196850405 0.23622047244094543 1.1811023622047243 } } ] }
Transform { translation 21.88976377952756 -2.4803149606299213 4.133858267716535 children [ Shape { appearance Appearance { material Material { diffuseColor 0.55 0.6 0.66 transparency .2 } } geometry Box { size 1.2598425196850405 0.23622047244094474 1.1811023622047243 } } ] }
Transform { translation 21.88976377952756 -3.149606299212598 4.133858267716535 children [ Shape { appearance Appearance { material Material { diffuseColor 0.55 0.6 0.66 transparency .2 } } geometry Box { size 1.2598425196850405 1.1023622047244097 1.1811023622047243 } } ] }
Transform { translation 21.88976377952756 -7.559055118110236 4.133858267716535 children [ Shape { appearance Appearance { material Material { diffuseColor 0.55 0.6 0.66 transparency .2 } } geometry Box { size 1.2598425196850405 7.716535433070867 1.1811023622047243 } } ] }
Transform { translation 21.88976377952756 -12.185039370078739 4.133858267716535 children [ Shape { appearance Appearance { material Material { diffuseColor 0.55 0.6 0.66 transparency .2 } } geometry Box { size 1.2598425196850405 1.5354330708661412 1.1811023622047243 } } ] }
Transform { translation 21.88976377952756 -15.177165354330707 4.133858267716535 children [ Shape { appearance Appearance { material Material { diffuseColor 0.55 0.6 0.66 transparency .2 } } geometry Box { size 1.2598425196850405 1.1417322834645665 1.1811023622047243 } } ] }
Transform { translation 21.88976377952756 -18.031496062992126 4.133858267716535 children [ Shape { appearance Appearance { material Material { diffuseColor 0.55 0.6 0.66 transparency .2 } } geometry Box { size 1.2598425196850405 4.5669291338582685 1.1811023622047243 } } ] }
Transform { translation 21.88976377952756 -20.866141732283463 4.133858267716535 children [ Shape { appearance Appearance { material Material { diffuseColor 0.55 0.6 0.66 transparency .2 } } geometry Box { size 1.2598425196850405 1.1023622047244084 1.1811023622047243 } } ] }
Transform { translation 21.88976377952756 -21.53543307086614 4.133858267716535 children [ Shape { appearance Appearance { material Material { diffuseColor 0.55 0.6 0.66 transparency .2 } } geometry Box { size 1.2598425196850405 0.23622047244094543 1.1811023622047243 } } ] }
Transform { translation 23.228346456692915 -2.4803149606299213 4.133858267716535 children [ Shape { appearance Appearance { material Material { diffuseColor 0.55 0.6 0.66 transparency .2 } } geometry Box { size 1.417322834645667 0.23622047244094474 1.1811023622047243 } } ] }
Transform { translation 23.228346456692915 -3.149606299212598 4.133858267716535 children [ Shape { appearance Appearance { material Material { diffuseColor 0.55 0.6 0.66 transparency .2 } } geometry Box { size 1.417322834645667 1.1023622047244097 1.1811023622047243 } } ] }
Transform { translation 23.228346456692915 -7.559055118110236 4.133858267716535 children [ Shape { appearance Appearance { material Material { diffuseColor 0.55 0.6 0.66 transparency .2 } } geometry Box { size 1.417322834645667 7.716535433070867 1.1811023622047243 } } ] }
Transform { translation 23.228346456692915 -18.031496062992126 4.133858267716535 children [ Shape { appearance Appearance { material Material { diffuseColor 0.55 0.6 0.66 transparency .2 } } geometry Box { size 1.417322834645667 4.5669291338582685 1.1811023622047243 } } ] }
Transform { translation 23.228346456692915 -20.866141732283463 4.133858267716535 children [ Shape { appearance Appearance { material Material { diffuseColor 0.55 0.6 0.66 transparency .2 } } geometry Box { size 1.417322834645667 1.1023622047244084 1.1811023622047243 } } ] }
Transform { translation 23.228346456692915 -21.53543307086614 4.133858267716535 children [ Shape { appearance Appearance { material Material { diffuseColor 0.55 0.6 0.66 transparency .2 } } geometry Box { size 1.417322834645667 0.23622047244094543 1.1811023622047243 } } ] }
Transform { translation 25.511811023622045 -2.4803149606299213 4.133858267716535 children [ Shape { appearance Appearance { material Material { diffuseColor 0.55 0.6 0.66 transparency .2 } } geometry Box { size 3.149606299212598 0.23622047244094474 1.1811023622047243 } } ] }
Transform { translation 25.511811023622045 -3.149606299212598 4.133858267716535 children [ Shape { appearance Appearance { material Material { diffuseColor 0.55 0.6 0.66 transparency .2 } } geometry Box { size 3.149606299212598 1.1023622047244097 1.1811023622047243 } } ] }
Transform { translation 25.511811023622045 -7.559055118110236 4.133858267716535 children [ Shape { appearance Appearance { material Material { diffuseColor 0.55 0.6 0.66 transparency .2 } } geometry Box { size 3.149606299212598 7.716535433070867 1.1811023622047243 } } ] }
Transform { translation 25.511811023622045 -12.185039370078739 4.133858267716535 children [ Shape { appearance Appearance { material Material { diffuseColor 0.55 0.6 0.66 transparency .2 } } geometry Box { size 3.149606299212598 1.5354330708661412 1.1811023622047243 } } ] }
Transform { translation 25.511811023622045 -15.177165354330707 4.133858267716535 children [ Shape { appearance Appearance { material Material { diffuseColor 0.55 0.6 0.66 transparency .2 } } geometry Box { size 3.149606299212598 1.1417322834645665 1.1811023622047243 } } ] }
Transform { translation 25.511811023622045 -18.031496062992126 4.133858267716535 children [ Shape { appearance Appearance { material Material { diffuseColor 0.55 0.6 0.66 transparency .2 } } geometry Box { size 3.149606299212598 4.5669291338582685 1.1811023622047243 } } ] }
Transform { translation 25.511811023622045 -20.866141732283463 4.133858267716535 children [ Shape { appearance Appearance { material Material { diffuseColor 0.55 0.6 0.66 transparency .2 } } geometry Box { size 3.149606299212598 1.1023622047244084 1.1811023622047243 } } ] }
Transform { translation 25.511811023622045 -21.53543307086614 4.133858267716535 children [ Shape { appearance Appearance { material Material { diffuseColor 0.55 0.6 0.66 transparency .2 } } geometry Box { size 3.149606299212598 0.23622047244094543 1.1811023622047243 } } ] }
Transform { translation 27.716535433070867 -2.4803149606299213 4.133858267716535 children [ Shape { appearance Appearance { material Material { diffuseColor 0.55 0.6 0.66 transparency .2 } } geometry Box { size 1.2598425196850405 0.23622047244094474 1.1811023622047243 } } ] }
Transform { translation 27.716535433070867 -3.149606299212598 4.133858267716535 children [ Shape { appearance Appearance { material Material { diffuseColor 0.55 0.6 0.66 transparency .2 } } geometry Box { size 1.2598425196850405 1.1023622047244097 1.1811023622047243 } } ] }
Transform { translation 27.716535433070867 -7.559055118110236 4.133858267716535 children [ Shape { appearance Appearance { material Material { diffuseColor 0.55 0.6 0.66 transparency .2 } } geometry Box { size 1.2598425196850405 7.716535433070867 1.1811023622047243 } } ] }
Transform { translation 27.716535433070867 -18.031496062992126 4.133858267716535 children [ Shape { appearance Appearance { material Material { diffuseColor 0.55 0.6 0.66 transparency .2 } } geometry Box { size 1.2598425196850405 4.5669291338582685 1.1811023622047243 } } ] }
Transform { translation 27.716535433070867 -20.866141732283463 4.133858267716535 children [ Shape { appearance Appearance { material Material { diffuseColor 0.55 0.6 0.66 transparency .2 } } geometry Box { size 1.2598425196850405 1.1023622047244084 1.1811023622047243 } } ] }
Transform { translation 27.716535433070867 -21.53543307086614 4.133858267716535 children [ Shape { appearance Appearance { material Material { diffuseColor 0.55 0.6 0.66 transparency .2 } } geometry Box { size 1.2598425196850405 0.23622047244094543 1.1811023622047243 } } ] }
Transform { translation 28.464566929133856 -2.4803149606299213 4.133858267716535 children [ Shape { appearance Appearance { material Material { diffuseColor 0.55 0.6 0.66 transparency .2 } } geometry Box { size 0.23622047244094263 0.23622047244094474 1.1811023622047243 } } ] }
Transform { translation 28.464566929133856 -3.149606299212598 4.133858267716535 children [ Shape { appearance Appearance { material Material { diffuseColor 0.55 0.6 0.66 transparency .2 } } geometry Box { size 0.23622047244094263 1.1023622047244097 1.1811023622047243 } } ] }
Transform { translation 28.464566929133856 -7.559055118110236 4.133858267716535 children [ Shape { appearance Appearance { material Material { diffuseColor 0.55 0.6 0.66 transparency .2 } } geometry Box { size 0.23622047244094263 7.716535433070867 1.1811023622047243 } } ] }
Transform { translation 28.464566929133856 -12.185039370078739 4.133858267716535 children [ Shape { appearance Appearance { material Material { diffuseColor 0.55 0.6 0.66 transparency .2 } } geometry Box { size 0.23622047244094263 1.5354330708661412 1.1811023622047243 } } ] }
Transform { translation 28.464566929133856 -15.177165354330707 4.133858267716535 children [ Shape { appearance Appearance { material Material { diffuseColor 0.55 0.6 0.66 transparency .2 } } geometry Box { size 0.23622047244094263 1.1417322834645665 1.1811023622047243 } } ] }
Transform { translation 28.464566929133856 -18.031496062992126 4.133858267716535 children [ Shape { appearance Appearance { material Material { diffuseColor 0.55 0.6 0.66 transparency .2 } } geometry Box { size 0.23622047244094263 4.5669291338582685 1.1811023622047243 } } ] }
Transform { translation 28.464566929133856 -20.866141732283463 4.133858267716535 children [ Shape { appearance Appearance { material Material { diffuseColor 0.55 0.6 0.66 transparency .2 } } geometry Box { size 0.23622047244094263 1.1023622047244084 1.1811023622047243 } } ] }
Transform { translation 28.464566929133856 -21.53543307086614 4.133858267716535 children [ Shape { appearance Appearance { material Material { diffuseColor 0.55 0.6 0.66 transparency .2 } } geometry Box { size 0.23622047244094263 0.23622047244094543 1.1811023622047243 } } ] }
Transform { translation 29.133858267716533 -2.4803149606299213 4.133858267716535 children [ Shape { appearance Appearance { material Material { diffuseColor 0.55 0.6 0.66 transparency .2 } } geometry Box { size 1.102362204724414 0.23622047244094474 1.1811023622047243 } } ] }
Transform { translation 29.133858267716533 -7.559055118110236 4.133858267716535 children [ Shape { appearance Appearance { material Material { diffuseColor 0.55 0.6 0.66 transparency .2 } } geometry Box { size 1.102362204724414 7.716535433070867 1.1811023622047243 } } ] }
Transform { translation 29.133858267716533 -12.185039370078739 4.133858267716535 children [ Shape { appearance Appearance { material Material { diffuseColor 0.55 0.6 0.66 transparency .2 } } geometry Box { size 1.102362204724414 1.5354330708661412 1.1811023622047243 } } ] }
Transform { translation 29.133858267716533 -15.177165354330707 4.133858267716535 children [ Shape { appearance Appearance { material Material { diffuseColor 0.55 0.6 0.66 transparency .2 } } geometry Box { size 1.102362204724414 1.1417322834645665 1.1811023622047243 } } ] }
Transform { translation 29.133858267716533 -18.031496062992126 4.133858267716535 children [ Shape { appearance Appearance { material Material { diffuseColor 0.55 0.6 0.66 transparency .2 } } geometry Box { size 1.102362204724414 4.5669291338582685 1.1811023622047243 } } ] }
Transform { translation 29.133858267716533 -21.53543307086614 4.133858267716535 children [ Shape { appearance Appearance { material Material { diffuseColor 0.55 0.6 0.66 transparency .2 } } geometry Box { size 1.102362204724414 0.23622047244094543 1.1811023622047243 } } ] }
Transform { translation 29.803149606299215 -2.4803149606299213 4.133858267716535 children [ Shape { appearance Appearance { material Material { diffuseColor 0.55 0.6 0.66 transparency .2 } } geometry Box { size 0.23622047244094263 0.23622047244094474 1.1811023622047243 } } ] }
Transform { translation 29.803149606299215 -3.149606299212598 4.133858267716535 children [ Shape { appearance Appearance { material Material { diffuseColor 0.55 0.6 0.66 transparency .2 } } geometry Box { size 0.23622047244094263 1.1023622047244097 1.1811023622047243 } } ] }
Transform { translation 29.803149606299215 -7.559055118110236 4.133858267716535 children [ Shape { appearance Appearance { material Material { diffuseColor 0.55 0.6 0.66 transparency .2 } } geometry Box { size 0.23622047244094263 7.716535433070867 1.1811023622047243 } } ] }
Transform { translation 29.803149606299215 -12.185039370078739 4.133858267716535 children [ Shape { appearance Appearance { material Material { diffuseColor 0.55 0.6 0.66 transparency .2 } } geometry Box { size 0.23622047244094263 1.5354330708661412 1.1811023622047243 } } ] }
Transform { translation 29.803149606299215 -15.177165354330707 4.133858267716535 children [ Shape { appearance Appearance { material Material { diffuseColor 0.55 0.6 0.66 transparency .2 } } geometry Box { size 0.23622047244094263 1.1417322834645665 1.1811023622047243 } } ] }
Transform { translation 29.803149606299215 -18.031496062992126 4.133858267716535 children [ Shape { appearance Appearance { material Material { diffuseColor 0.55 0.6 0.66 transparency .2 } } geometry Box { size 0.23622047244094263 4.5669291338582685 1.1811023622047243 } } ] }
Transform { translation 29.803149606299215 -20.866141732283463 4.133858267716535 children [ Shape { appearance Appearance { material Material { diffuseColor 0.55 0.6 0.66 transparency .2 } } geometry Box { size 0.23622047244094263 1.1023622047244084 1.1811023622047243 } } ] }
Transform { translation 29.803149606299215 -21.53543307086614 4.133858267716535 children [ Shape { appearance Appearance { material Material { diffuseColor 0.55 0.6 0.66 transparency .2 } } geometry Box { size 0.23622047244094263 0.23622047244094543 1.1811023622047243 } } ] }
Transform { translation 18.89763779527559 -12.598425196850393 1.9783464566929134 children [ Shape { appearance Appearance { material Material { diffuseColor 0.55 0.6 0.66 transparency .2 } } geometry Box { size 1.574803149606299 0.6299212598425197 3.12992125984252 } } ] }
Transform { translation 18.89763779527559 -12.598425196850393 0.34448818897637795 children [ Shape { appearance Appearance { material Material { diffuseColor 0.25 0.7 0.75 transparency .2 } } geometry Box { size 2.1653543307086616 1.3779527559055118 0.13779527559055116 } } ] }
Transform { translation 18.89763779527559 -14.960629921259843 1.9783464566929134 children [ Shape { appearance Appearance { material Material { diffuseColor 0.55 0.6 0.66 transparency .2 } } geometry Box { size 1.574803149606299 0.6299212598425197 3.12992125984252 } } ] }
Transform { translation 18.89763779527559 -14.960629921259843 0.34448818897637795 children [ Shape { appearance Appearance { material Material { diffuseColor 0.25 0.7 0.75 transparency .2 } } geometry Box { size 2.1653543307086616 1.3779527559055118 0.13779527559055116 } } ] }
Transform { translation 25.984251968503937 -12.598425196850393 1.9783464566929134 children [ Shape { appearance Appearance { material Material { diffuseColor 0.55 0.6 0.66 transparency .2 } } geometry Box { size 1.574803149606299 0.6299212598425197 3.12992125984252 } } ] }
Transform { translation 25.984251968503937 -12.598425196850393 0.34448818897637795 children [ Shape { appearance Appearance { material Material { diffuseColor 0.25 0.7 0.75 transparency .2 } } geometry Box { size 2.1653543307086616 1.3779527559055118 0.13779527559055116 } } ] }
Transform { translation 25.984251968503937 -14.960629921259843 1.9783464566929134 children [ Shape { appearance Appearance { material Material { diffuseColor 0.55 0.6 0.66 transparency .2 } } geometry Box { size 1.574803149606299 0.6299212598425197 3.12992125984252 } } ] }
Transform { translation 25.984251968503937 -14.960629921259843 0.34448818897637795 children [ Shape { appearance Appearance { material Material { diffuseColor 0.25 0.7 0.75 transparency .2 } } geometry Box { size 2.1653543307086616 1.3779527559055118 0.13779527559055116 } } ] }