<svg xmlns="http://www.w3.org/2000/svg" xmlns:xlink="http://www.w3.org/1999/xlink" xmlns:inkscape="http://www.inkscape.org/namespaces/inkscape" version="1.1" width="236.6" height="144.59999" viewBox="0 0 236.6 144.59999">
<defs>
<clipPath id="clip_1">
<path transform="matrix(1,0,0,-1,-4.2,146.23467)" d="M4.2 1.634672H240.8V146.23467H4.2Z" clip-rule="evenodd"/>
</clipPath>
<path id="font_2_2" d="M.31399537 .63708499C.31399537 .664032 .31199647 .66503909 .2849884 .66503909 .24398804 .6251831 .19099427 .6013489 .09599304 .6013489V.5683594C.12298584 .5683594 .1769867 .5683594 .23498535 .5953522V.08203125C.23498535 .04499817 .23199463 .032989503 .13699341 .032989503H.101989749V0C.14299011 .0029907227 .22898865 .0029907227 .27398683 .0029907227 .31900025 .0029907227 .4059906 .0029907227 .44699098 0V.032989503H.4119873C.31698609 .032989503 .31399537 .04499817 .31399537 .08203125V.63708499Z"/>
<path id="font_2_3" d="M.28199769 .20405579C.2979889 .21907044 .33999635 .2520752 .35598756 .26608277 .41799928 .32312013 .47698976 .3781433 .47698976 .46917726 .47698976 .588089 .3769989 .66503909 .2519989 .66503909 .13198853 .66503909 .052993776 .57411196 .052993776 .48516847 .052993776 .4361725 .09199524 .4291687 .10598755 .4291687 .1269989 .4291687 .1579895 .4441681 .1579895 .48217774 .1579895 .5341797 .10798645 .5341797 .09599304 .5341797 .125 .6070709 .19198609 .6320343 .24099732 .6320343 .33399964 .6320343 .38198854 .55314639 .38198854 .46917726 .38198854 .36514283 .30899049 .28910829 .19099427 .16804505L.06498718 .037994386C.052993776 .026992798 .052993776 .024993897 .052993776 0H.44799806L.47698976 .17904663H.44599916C.44299317 .1590271 .43499757 .10900879 .4229889 .08999634 .4169922 .08198547 .34098817 .08198547 .32499696 .08198547H.14698792L.28199769 .20405579Z"/>
<path id="font_2_4" d="M.25299073 .33370973C.33198548 .33370973 .38198854 .27557374 .38198854 .17037964 .38198854 .045440675 .31098939 .008514404 .2579956 .008514404 .20298767 .008514404 .12799073 .0284729 .09298706 .08137512 .1289978 .08137512 .1539917 .10437012 .1539917 .13737488 .1539917 .16937256 .1309967 .19238281 .09899902 .19238281 .07199097 .19238281 .04399109 .17536927 .04399109 .13537598 .04399109 .04045105 .1459961-.021484375 .2599945-.021484375 .3929901-.021484375 .48599244 .070388797 .48599244 .17037964 .48599244 .25352479 .41999818 .32969667 .31799317 .3517456 .39698792 .37982179 .45599366 .4479828 .45599366 .52804568 .45599366 .6080475 .3659973 .66503909 .2619934 .66503909 .15499878 .66503909 .07398987 .6070404 .07398987 .53105166 .07398987 .49404908 .09899902 .4780426 .125 .4780426 .1559906 .4780426 .17599488 .5000458 .17599488 .52905276 .17599488 .56604006 .14399719 .5800476 .12199402 .5810547 .1639862 .6360321 .24099732 .6390381 .25898744 .6390381 .2849884 .6390381 .36099244 .6310272 .36099244 .52804568 .36099244 .45799256 .33198548 .41589356 .31799317 .39985658 .28799439 .36878968 .2649994 .36679078 .20399475 .3627777 .18499756 .36177064 .1769867 .36076356 .1769867 .3477478 .1769867 .33370973 .18598938 .33370973 .20298767 .33370973H.25299073Z"/>
<path id="font_2_5" d="M.3939972 .6468048C.3939972 .6667938 .3939972 .6748047 .37298585 .6748047 .3600006 .6748047 .35899354 .6737976 .34899903 .65979006L.02999878 .197052V.1640625H.31199647V.08100891C.31199647 .04399109 .30899049 .032989503 .23199463 .032989503H.20899964V0C.2939911 .0029907227 .29599 .0029907227 .35299684 .0029907227 .4099884 .0029907227 .4119873 .0029907227 .49699403 0V.032989503H.47399903C.39698792 .032989503 .3939972 .04399109 .3939972 .08100891V.1640625H.5V.197052H.3939972V.6468048M.31900025 .5658417V.197052H.06498718L.31900025 .5658417Z"/>
<path id="font_2_6" d="M.13999939 .5618439C.15299988 .55784609 .19299317 .54785159 .23498535 .54785159 .3600006 .54785159 .43598939 .6358948 .43598939 .6510315 .43598939 .6620331 .42900086 .66503909 .42399598 .66503909 .42199708 .66503909 .41999818 .66503909 .41099549 .6600342 .37199403 .6450348 .32598878 .632843 .27198792 .632843 .21299744 .632843 .1639862 .6480255 .1329956 .6600342 .12298584 .66503909 .12098694 .66503909 .11999512 .66503909 .10699463 .66503909 .10699463 .6540375 .10699463 .6358948V.34292604C.10699463 .32492066 .10699463 .312912 .12298584 .312912 .1309967 .312912 .13398743 .3169098 .13899231 .32492066 .15098572 .33992005 .18899536 .39093019 .27398683 .39093019 .32998658 .39093019 .35699464 .34492494 .3659973 .32591249 .3829956 .28990174 .3849945 .24389649 .3849945 .20487976 .3849945 .1678772 .38398744 .11387634 .35598756 .069732669 .33699037 .039611818 .29699708 .008514404 .24398804 .008514404 .1789856 .008514404 .114990238 .0496521 .09199524 .11488342 .09498596 .11387634 .100997928 .11387634 .101989749 .11387634 .12998963 .11387634 .1519928 .13188172 .1519928 .16288758 .1519928 .19989014 .12298584 .21289063 .102996829 .21289063 .084991458 .21289063 .052993776 .20288086 .052993776 .15988159 .052993776 .069732669 .1309967-.021484375 .24598694-.021484375 .37098695-.021484375 .47698976 .07574463 .47698976 .19989014 .47698976 .31591798 .3929901 .4189453 .2749939 .4189453 .22499085 .4189453 .17799378 .40293885 .13999939 .368927V.5618439Z"/>
<path id="font_2_8" d="M.33198548 .36080934C.3880005 .38783265 .45599366 .4378662 .45599366 .5159302 .45599366 .6110077 .35899354 .66503909 .2659912 .66503909 .1599884 .66503909 .07398987 .59199526 .07398987 .49790956 .07398987 .46089173 .08699036 .42686463 .11199951 .39782716 .1289978 .3768158 .1329956 .3748169 .19499207 .3357849 .070999149 .2807312 .04399109 .20767212 .04399109 .15162659 .04399109 .041534425 .15499878-.021484375 .2639923-.021484375 .3869934-.021484375 .48599244 .061553956 .48599244 .16764832 .48599244 .23069763 .45199586 .2727356 .43598939 .28974916 .4189911 .30575563 .41799928 .3067627 .33198548 .36080934M.1769867 .45487977C.147995 .4718933 .12399292 .5009155 .12399292 .5359497 .12399292 .598999 .19299317 .6390381 .2639923 .6390381 .34199525 .6390381 .4059906 .5859833 .4059906 .5159302 .4059906 .45788575 .36099244 .408844 .3019867 .37982179L.1769867 .45487977M.22599793 .31776429C.22999573 .31576539 .34399415 .24571228 .36099244 .23469544 .3769989 .22569275 .42900086 .19366455 .42900086 .13360596 .42900086 .056549074 .34799195 .008514404 .2659912 .008514404 .1769867 .008514404 .100997928 .06956482 .100997928 .15162659 .100997928 .22668457 .15699768 .28573609 .22599793 .31776429Z"/>
<path id="font_2_1" d="M.4889984 .31877137C.4889984 .42585755 .47799684 .49090577 .44499208 .55496218 .40098573 .6430359 .31999208 .66503909 .2649994 .66503909 .13899231 .66503909 .09298706 .5709839 .07899475 .5429535 .042999269 .4698944 .040985109 .3708191 .040985109 .31877137 .040985109 .25271607 .04399109 .15162659 .09199524 .07156372 .13798523-.0024871827 .21199036-.021484375 .2649994-.021484375 .31298829-.021484375 .39898683-.0064849855 .44898988 .09257507 .48599244 .16464234 .4889984 .2537079 .4889984 .31877137M.2649994 .006515503C.23098755 .006515503 .1619873 .022521973 .14099121 .12760926 .12998963 .18466187 .12998963 .2787323 .12998963 .33078004 .12998963 .3998413 .12998963 .4698944 .14099121 .5249481 .1619873 .6270294 .23999024 .6370239 .2649994 .6370239 .29899598 .6370239 .36799623 .62002566 .3880005 .5289459 .3999939 .4738922 .3999939 .39883424 .3999939 .33078004 .3999939 .27172853 .3999939 .18165589 .3880005 .12561035 .36698915 .020523072 .2979889 .006515503 .2649994 .006515503Z"/>
<path id="font_3_1" d="M.18699646 .01499939C.18699646-.050109865 .17298889-.10720825 .11099243-.16934204 .10699463-.17234802 .10499573-.17434693 .10499573-.17933655 .10499573-.18734741 .11299133-.19334412 .11999512-.19334412 .13198853-.19334412 .21499634-.114227298 .21499634 .0029907227 .21499634 .066986087 .19099427 .11099243 .14698792 .11099243 .11199951 .11099243 .09199524 .08299255 .09199524 .055999757 .09199524 .027999878 .11099243 0 .147995 0 .17199707 0 .18699646 .01399231 .18699646 .01499939Z"/>
<clipPath id="clip_4">
<path transform="matrix(1,0,0,-1,36.854,192.09067)" d="M0 100.00252H172.01609V188.3991H0Z"/>
</clipPath>
<path id="font_5_1" d="M.6199951 .4499359 .61099246 .67578127H.58999636C.58399966 .6547699 .56799319 .6427765 .5479889 .6427765 .5389862 .6427765 .5239868 .6457672 .5089874 .6517792 .45999146 .6677704 .4099884 .67578127 .36299134 .67578127 .2809906 .67578127 .19799805 .6447754 .13598633 .58981326 .06599426 .52786257 .027999878 .43495179 .027999878 .32505799 .027999878 .23213196 .057998659 .14620972 .10899353 .089263919 .16899109 .02432251 .26098634-.013671875 .3600006-.013671875 .47299195-.013671875 .57199099 .032318117 .6329956 .11325073L.61499026 .13122559C.54100039 .060287477 .47499085 .030319214 .3919983 .030319214 .32899476 .030319214 .272995 .050308229 .22999573 .088272098 .1749878 .13722229 .14399719 .22714234 .14399719 .3380432 .14399719 .5188751 .23699951 .6357727 .38198854 .6357727 .43899537 .6357727 .4909973 .61479189 .5309906 .5748291 .5629883 .54286196 .5779877 .5148773 .5970001 .4499359H.6199951Z"/>
<path id="font_5_4" d="M.4079895 .16427613C.3600006 .08824158 .31698609 .05921936 .25299073 .05921936 .19599915 .05921936 .15299988 .08824158 .12399292 .14526367 .10598755 .18328858 .09899902 .2163086 .09700012 .27734376H.40499879C.39698792 .34222413 .3869934 .37112428 .3619995 .40301515 .33198548 .43894959 .28599549 .45996095 .23399353 .45996095 .18399048 .45996095 .13699341 .44195558 .09899902 .40800477 .051986696 .36714173 .024993897 .29634095 .024993897 .21430969 .024993897 .07623291 .09700012-.009765625 .21199036-.009765625 .30699159-.009765625 .38198854 .049224855 .42399598 .15727234L.4079895 .16427613M.09899902 .30934144C.10998535 .3870697 .14399719 .4239502 .20498657 .4239502 .2659912 .4239502 .2899933 .39604188 .30299378 .30934144H.09899902Z"/>
<path id="font_5_7" d="M.018997193 .6230011H.024993897C.035995485 .6239929 .04798889 .625 .055999757 .625 .08799744 .625 .09799194 .61099246 .09799194 .56399539V.08699036C.09799194 .032989503 .083999637 .019989014 .020996094 .01499939V0H.25698854V.01499939C.19400025 .018997193 .18199158 .0289917 .18199158 .083999637V.68099978L.17799378 .68299868C.12599182 .66600039 .08799744 .6559906 .018997193 .6389923V.6230011Z"/>
<path id="font_5_3" d="M.397995 .15615845C.34999085 .08621216 .31399537 .06222534 .25698854 .06222534 .1659851 .06222534 .101989749 .14216614 .101989749 .25708009 .101989749 .3600006 .15699768 .43095399 .23799134 .43095399 .27398683 .43095399 .2869873 .41996766 .29699708 .3829956L.30299378 .3610077C.31098939 .33302308 .32899476 .31503297 .34999085 .31503297 .37599183 .31503297 .397995 .33403016 .397995 .3570099 .397995 .41296388 .32798768 .45996095 .24398804 .45996095 .19499207 .45996095 .14399719 .43995667 .102996829 .40397645 .052993776 .3600006 .024993897 .29205323 .024993897 .2131195 .024993897 .08320618 .10398865-.009765625 .21499634-.009765625 .2599945-.009765625 .2999878 .006225586 .33599855 .037231447 .36299134 .06123352 .38198854 .08821106 .4119873 .14717102L.397995 .15615845Z"/>
<path id="font_5_9" d="M.25 .45996095C.11999512 .45996095 .0289917 .3639984 .0289917 .22608948 .0289917 .09118652 .12199402-.009765625 .24798584-.009765625 .37399293-.009765625 .46998597 .09617615 .46998597 .23408509 .46998597 .3650055 .37799073 .45996095 .25 .45996095M.23699951 .4319458C.32099916 .4319458 .37998963 .3360138 .37998963 .19911194 .37998963 .08618164 .33499146 .018234253 .2599945 .018234253 .22099304 .018234253 .18399048 .04220581 .16299439 .08218384 .1349945 .13415528 .11898804 .20410156 .11898804 .27505494 .11898804 .36999513 .1659851 .4319458 .23699951 .4319458Z"/>
<path id="font_5_12" d="M.47898866 .050186159H.47399903C.42799378 .050186159 .4169922 .061187746 .4169922 .10719299V.4501953H.25898744V.43318177C.32099916 .43019105 .33299256 .42018128 .33299256 .37019349V.13522339C.33299256 .10722351 .32798768 .09321594 .31399537 .082229617 .2869873 .06022644 .2559967 .048233034 .22599793 .048233034 .18699646 .048233034 .15499878 .082229617 .15499878 .1242218V.4501953H.008987427V.43618775C.056991579 .43318177 .070999149 .41818238 .070999149 .37219239V.120224C.070999149 .041229249 .11898804-.009765625 .19198609-.009765625 .22898865-.009765625 .2679901 .006225586 .29499818 .033233644L.33799745 .07621765V-.0067749025L.34199525-.0087890629C.3919983 .011199951 .42799378 .022201539 .47898866 .036209108V.050186159Z"/>
<path id="font_5_8" d="M.015991211 .39794923C.021987915 .4009552 .03199768 .40194703 .042999269 .40194703 .070999149 .40194703 .07998657 .38694764 .07998657 .33796693V.08998108C.07998657 .032989503 .068984989 .018997193 .017990113 .01499939V0H.22999573V.01499939C.1789856 .018997193 .1639862 .0309906 .1639862 .066986087V.34796144C.21199036 .3929596 .23399353 .404953 .2669983 .404953 .31599427 .404953 .33999635 .3739624 .33999635 .30796815V.098983768C.33999635 .035995485 .32699586 .018997193 .2769928 .01499939V0H.4850006V.01499939C.43598939 .019989014 .42399598 .03199768 .42399598 .08097839V.30996705C.42399598 .40394593 .37998963 .45996095 .30599977 .45996095 .2599945 .45996095 .22898865 .4429474 .16099549 .37895204V.45794679L.1539917 .45996095C.10499573 .44195558 .070999149 .43095399 .015991211 .4149475V.39794923Z"/>
<path id="font_5_11" d="M.25498963 .4501953H.1539917V.5661926C.1539917 .57618716 .15299988 .5791931 .14698792 .5791931 .13999939 .5701904 .13398743 .56118777 .1269989 .55119326 .08898926 .4961853 .04598999 .44818116 .02999878 .44418336 .018997193 .43719483 .0129852299 .43019105 .0129852299 .42518617 .0129852299 .42218019 .01399231 .42018128 .016998291 .41818238H.069992069V.11721802C.069992069 .033233644 .099990848-.009765625 .15899658-.009765625 .20799256-.009765625 .24598694 .014221191 .2789917 .066223148L.2659912 .07722473C.24499512 .052230836 .22799683 .04222107 .20599365 .04222107 .16899109 .04222107 .1539917 .069229129 .1539917 .1322174V.41818238H.25498963V.4501953Z"/>
<path id="font_3_2" d="M.7919922 .5736542C.80400088 .6226196 .82598879 .64660647 .897995 .6496124 .9079895 .6496124 .91600039 .65560916 .91600039 .6686096 .91600039 .6746063 .9109955 .6826172 .901001 .6826172 .8939972 .6826172 .875 .6796112 .8009949 .6796112 .72099307 .6796112 .70799258 .6826172 .69898989 .6826172 .68299868 .6826172 .6799927 .6716156 .6799927 .66360476 .6799927 .65060427 .69299319 .6496124 .70199587 .6496124 .7630005 .6476135 .7630005 .6206207 .7630005 .6066284 .7630005 .6016388 .7630005 .5966339 .7589874 .58065798L.6489868 .14292908 .4079895 .6646118C.3999939 .6826172 .397995 .6826172 .37399293 .6826172H.24398804C.22599793 .6826172 .21299744 .6826172 .21299744 .66360476 .21299744 .6496124 .22499085 .6496124 .24598694 .6496124 .2539978 .6496124 .28399659 .6496124 .30699159 .6436157L.17298889 .10694885C.16099549 .05697632 .1349945 .034988405 .067993167 .032989503 .06199646 .032989503 .049987794 .03199768 .049987794 .01399231 .049987794 .0079956059 .054992677 0 .06498718 0 .068984989 0 .09199524 .0029907227 .1639862 .0029907227 .24299622 .0029907227 .2579956 0 .2669983 0 .2709961 0 .28599549 0 .28599549 .018997193 .28599549 .0309906 .2749939 .032989503 .2679901 .032989503 .23199463 .033996583 .20199585 .039993287 .20199585 .07496643 .20199585 .079956058 .20498657 .093948367 .20498657 .094955448L.33599855 .6166229H.33699037L.61499026 .017990113C.621994 .0019989014 .6230011 0 .6339874 0 .647995 0 .6489868 .0039978029 .6529999 .020996094L.7919922 .5736542Z"/>
<path id="font_3_3" d="M.66999819 .56359866C.7200012 .63960269 .7579956 .6476135 .7979889 .6496124 .8089905 .65060427 .8129883 .660614 .8129883 .6686096 .8129883 .6716156 .8109894 .6826172 .798996 .6826172 .7869873 .6826172 .79100039 .6796112 .71798709 .6796112 .6539917 .6796112 .6269989 .6826172 .6230011 .6826172 .6179962 .6826172 .6029968 .6826172 .6029968 .66360476 .6029968 .65060427 .6159973 .6496124 .62098696 .6496124 .647995 .6476135 .6609955 .63760378 .6609955 .6195984 .6609955 .6035919 .6519928 .59059146 .6469879 .5825958L.32199098 .09051514 .23899842 .604599C.23799134 .6136017 .23699951 .61860659 .23699951 .6215973 .23699951 .6345978 .2519989 .6496124 .30299378 .6496124 .31498719 .6496124 .32798768 .6496124 .32798768 .6686096 .32798768 .6726074 .32499696 .6826172 .31199647 .6826172 .30299378 .6826172 .2630005 .680603 .25498963 .6796112H.19198609C.101989749 .6796112 .08898926 .6826172 .07998657 .6826172 .07598877 .6826172 .06098938 .6826172 .06098938 .66360476 .06098938 .6496124 .07398987 .6496124 .08898926 .6496124 .13999939 .6496124 .14099121 .64060977 .14498902 .6156006L.24299622 .006515503C.24598694-.0134887699 .24699402-.021484375 .2659912-.021484375 .2829895-.021484375 .2889862-.012496948 .29599-.0014953613L.66999819 .56359866Z"/>
<path id="font_6_1" d="M.4099884 .40327455C.3999939 .39727784 .3889923 .38327027 .3889923 .36227418 .3889923 .3362732 .4079895 .31427003 .43699647 .31427003 .46798707 .31427003 .48599244 .3362732 .48599244 .363266 .48599244 .44328309 .37998963 .44628907 .31698609 .44628907 .13198853 .44628907 .053985597 .31427003 .053985597 .21624756 .053985597 .0912323 .16499329-.009765625 .30499269-.009765625 .46398927-.009765625 .49899293 .10923767 .49899293 .12023926 .49899293 .13424683 .48399354 .13424683 .47999574 .13424683 .46699525 .13424683 .46499635 .12924195 .46099855 .11923218 .45498658 .10423279 .44400025 .07524109 .4099884 .052230836 .3880005 .037231447 .35499574 .025222779 .31599427 .025222779 .23899842 .025222779 .14898682 .08023071 .14898682 .21725464 .14898682 .2602539 .15699768 .31626893 .19299317 .3592682 .23799134 .4112854 .29100038 .4112854 .32099916 .4112854 .34899903 .4112854 .3829956 .41027833 .4099884 .40327455Z"/>
<path id="font_6_2" d="M.46899415 .2265625C.4909973 .2265625 .49899293 .2265625 .49899293 .25054933 .49899293 .32743836 .45599366 .44628907 .2899933 .44628907 .1499939 .44628907 .04798889 .3394165 .04798889 .21954346 .04798889 .09333801 .16299439-.009765625 .3039856-.009765625 .44799806-.009765625 .49899293 .098342899 .49899293 .12037659 .49899293 .12539673 .49699403 .13641358 .47999574 .13641358 .46699525 .13641358 .46499635 .13040161 .46099855 .118377689 .43099977 .04425049 .35598756 .025222779 .30999757 .025222779 .25498963 .025222779 .20799256 .05026245 .17999268 .08631897 .14299011 .1334076 .14299011 .19950867 .14299011 .2265625H.46899415M.14498902 .25656129C.1559906 .39031983 .24798584 .41427613 .2889862 .41427613 .41799928 .41427613 .4249878 .2855072 .42599488 .25656129H.14498902Z"/>
<path id="font_6_3" d="M.22200012 .69433596 .06399536 .68333438V.6443329C.13398743 .6443329 .14299011 .6373291 .14299011 .5883026V.08201599C.14299011 .038986207 .1329956 .038986207 .06399536 .038986207V0C.09399414 .0019989014 .17399597 .0039978029 .18199158 .0039978029 .22200012 .0039978029 .26098634 .0029907227 .30099488 0V.038986207C.23199463 .038986207 .22200012 .038986207 .22200012 .08201599V.69433596Z"/>
<path id="font_7_1" d="M.22999573 .01399231C.22999573-.0811615 .17999268-.13627625 .15499878-.15830994 .14498902-.16833496 .14199829-.17033386 .14199829-.17634583 .14199829-.18534851 .15098572-.19433594 .15899658-.19433594 .17298889-.19433594 .2630005-.114227298 .2630005 .008987427 .2630005 .07199097 .23699951 .12098694 .18899536 .12098694 .1499939 .12098694 .1289978 .08999634 .1289978 .06098938 .1289978 .0309906 .1499939 0 .18998719 0 .20498657 0 .21899414 .0039978029 .22999573 .01399231Z"/>
<path id="font_6_5" d="M.5469971 .3022766C.5469971 .40039063 .4909973 .44140626 .3899994 .44140626 .3019867 .44140626 .24699402 .39538575 .21798706 .34733583V.44140626L.06298828 .43040467V.39138795C.1329956 .39138795 .14199829 .3843689 .14199829 .3353119V.08204651C.14199829 .038986207 .13198853 .038986207 .06298828 .038986207V0C.069992069 .0009918213 .13798523 .0039978029 .18299866 .0039978029 .22799683 .0039978029 .2939911 .0009918213 .3039856 0V.038986207C.23498535 .038986207 .22499085 .038986207 .22499085 .08204651V.25823976C.22499085 .36836244 .31900025 .4093933 .3809967 .4093933 .44799806 .4093933 .46398927 .36735536 .46398927 .3052826V.08204651C.46398927 .038986207 .45399476 .038986207 .3849945 .038986207V0C.3919983 .0009918213 .45999146 .0039978029 .5049896 .0039978029 .5499878 .0039978029 .6159973 .0009918213 .6259918 0V.038986207C.5569916 .038986207 .5469971 .038986207 .5469971 .08204651V.3022766Z"/>
<path id="font_6_6" d="M.56199648 .21325684C.56199648 .3382721 .44999696 .44628907 .30499269 .44628907 .15899658 .44628907 .04798889 .3382721 .04798889 .21325684 .04798889 .0912323 .16099549-.009765625 .30499269-.009765625 .44898988-.009765625 .56199648 .0912323 .56199648 .21325684M.30499269 .025222779C.14299011 .025222779 .14299011 .17424011 .14299011 .22225952 .14299011 .25326539 .14299011 .32226563 .17999268 .363266 .21398926 .39927674 .25698854 .41427613 .30499269 .41427613 .35299684 .41427613 .397995 .39927674 .43099977 .36227418 .46699525 .3212738 .46699525 .2542572 .46699525 .22225952 .46699525 .17424011 .46699525 .025222779 .30499269 .025222779Z"/>
<path id="font_6_4" d="M.87098696 .3022766C.87098696 .40438844 .8109894 .44140626 .71299746 .44140626 .6199951 .44140626 .5649872 .38838197 .54299929 .3503418 .519989 .44140626 .41799928 .44140626 .3899994 .44140626 .29899598 .44140626 .24299622 .39138795 .21899414 .34933473H.21798706V.44140626L.06298828 .43040467V.39138795C.1329956 .39138795 .14199829 .3843689 .14199829 .3353119V.08204651C.14199829 .038986207 .13198853 .038986207 .06298828 .038986207V0C.069992069 .0009918213 .13798523 .0039978029 .18299866 .0039978029 .22799683 .0039978029 .2939911 .0009918213 .3039856 0V.038986207C.23498535 .038986207 .22499085 .038986207 .22499085 .08204651V.25823976C.22499085 .36836244 .31999208 .4093933 .3809967 .4093933 .44999696 .4093933 .46499635 .36634828 .46499635 .30429078V.08204651C.46499635 .038986207 .45498658 .038986207 .38598634 .038986207V0C.3929901 .0009918213 .46099855 .0039978029 .5059967 .0039978029 .5509949 .0039978029 .61698916 .0009918213 .6269989 0V.038986207C.55799868 .038986207 .5479889 .038986207 .5479889 .08204651V.25823976C.5479889 .36836244 .6429901 .4093933 .70399478 .4093933 .772995 .4093933 .7879944 .36634828 .7879944 .30429078V.08204651C.7879944 .038986207 .7779999 .038986207 .70899966 .038986207V0C.71598818 .0009918213 .7839966 .0039978029 .82899478 .0039978029 .8739929 .0039978029 .9399872 .0009918213 .94999697 0V.038986207C.8809967 .038986207 .87098696 .038986207 .87098696 .08204651V.3022766Z"/>
<path id="font_5_24" d="M.29499818 .67578127C.22099304 .6277771 .19099427 .6017761 .1539917 .5557709 .08299255 .46878053 .04798889 .3687744 .04798889 .25177003 .04798889 .12477112 .084991458 .026779175 .17298889-.07522583 .21398926-.12322998 .23999024-.14523316 .2919922-.17723084L.3039856-.16122437C.22399903-.098220828 .19599915-.06323242 .16899109 .011779785 .14498902 .07876587 .13398743 .1547699 .13398743 .254776 .13398743 .35977174 .14698792 .44177247 .17399597 .5037689 .20199585 .56578066 .23199463 .6017761 .3039856 .6597748L.29499818 .67578127Z"/>
<path id="font_5_2" d="M.69699099 .6621094H.49198915V.6430969C.5469971 .6401062 .5649872 .6291046 .5649872 .60110476 .5649872 .5851135 .55799868 .5581207 .54599 .52812197L.39898683 .1612091 .24798584 .49913026C.21499634 .57211306 .20698548 .59510806 .20698548 .6101074 .20698548 .6291046 .22099304 .6390991 .25299073 .641098 .25698854 .641098 .2679901 .6421051 .28199769 .6430969V.6621094H.015991211V.6430969C.06498718 .641098 .07899475 .6271057 .12199402 .5381317L.36799623-.0107421879H.3829956L.6049957 .5501251C.6380005 .6291046 .6489868 .6401062 .69699099 .6430969V.6621094Z"/>
<path id="font_5_25" d="M.037994386-.17723084C.11199951-.12922669 .14199829-.10322571 .1789856-.05722046 .25 .029769898 .2849884 .129776 .2849884 .24676514 .2849884 .37477113 .24798584 .47177125 .1599884 .57377627 .11898804 .6217804 .09298706 .6437683 .040985109 .67578127L.0289917 .6597748C.10899353 .59677127 .13598633 .5617676 .1639862 .48677064 .18798828 .4197693 .19898987 .34378053 .19898987 .24377442 .19898987 .13977051 .18598938 .056777955 .15899658-.0042266848 .1309967-.067230228 .100997928-.10322571 .0289917-.16122437L.037994386-.17723084Z"/>
<path id="font_2_7" d="M.13798523 .33073426C.13798523 .41377259 .14498902 .4868164 .18099976 .54782107 .21099854 .5978241 .2619934 .6390381 .32499696 .6390381 .34498597 .6390381 .3909912 .63601687 .4139862 .60084536 .36898805 .5988312 .36499024 .5648346 .36499024 .553833 .36499024 .5238342 .3880005 .50683596 .4119873 .50683596 .42999269 .50683596 .45899964 .51782229 .45899964 .5558319 .45899964 .615921 .4139862 .66503909 .32398988 .66503909 .18499756 .66503909 .04399109 .53282168 .04399109 .31672669 .04399109 .045532228 .16999817-.021484375 .2669983-.021484375 .31498719-.021484375 .36698915-.0084991459 .4119873 .03453064 .45199586 .07354736 .48599244 .11558533 .48599244 .20263672 .48599244 .33372499 .3869934 .42578126 .27598573 .42578126 .20399475 .42578126 .16099549 .37976075 .13798523 .33073426M.2669983 .008514404C.21398926 .008514404 .18099976 .045532228 .1659851 .07354736 .14299011 .11859131 .14099121 .18663025 .14099121 .22465515 .14099121 .32373048 .19499207 .3977661 .27198792 .3977661 .32199098 .3977661 .35198976 .37176515 .37098695 .33673097 .3919983 .29971314 .3919983 .25468446 .3919983 .2036438 .3919983 .15260315 .3919983 .10858154 .37199403 .07255554 .34599305 .026519776 .31098939 .008514404 .2669983 .008514404Z"/>
<clipPath id="clip_8">
<path transform="matrix(1,0,0,-1,36.854,92.08766)" d="M0 0H172.01609V88.39685H0Z"/>
</clipPath>
<path id="font_5_26" d="M.70599368 .018997193C.6609955 .021987915 .651001 .031982423 .6159973 .10592651L.36698915 .6738281H.34700013L.13899231 .18286133C.07499695 .036972047 .06298828 .020996094 .01499939 .018997193V0H.21299744V.018997193C.16499329 .018997193 .14498902 .031982423 .14498902 .059951784 .14498902 .07194519 .147995 .0859375 .15299988 .09892273L.19898987 .21583557H.46099855L.5019989 .119903568C.5139923 .092926029 .5209961 .06695557 .5209961 .052963258 .5209961 .02798462 .5039978 .019989014 .45098878 .018997193V0H.70599368V.018997193M.21598816 .25683595 .33099366 .53182986 .44699098 .25683595H.21598816Z"/>
<path id="font_5_6" d="M.1749878 .45996095 .019989014 .40527345V.3902588L.027999878 .39126588C.039993287 .39326478 .052993776 .39427186 .06199646 .39427186 .085998538 .39427186 .09498596 .37826539 .09498596 .33422853V.10205078C.09498596 .02999878 .084991458 .018997193 .015991211 .01499939V0H.25299073V.01499939C.18699646 .019989014 .1789856 .02999878 .1789856 .10205078V.45695497L.1749878 .45996095M.12799073 .6826172C.100997928 .6826172 .07798767 .65960696 .07798767 .63160708 .07798767 .6036072 .099990848 .5806122 .12799073 .5806122 .15699768 .5806122 .17999268 .60261538 .17999268 .63160708 .17999268 .65960696 .15699768 .6826172 .12799073 .6826172Z"/>
<path id="font_5_13" d="M.47698976 .4501953H.33799745V.43518067C.36999513 .43218995 .3849945 .42219544 .3849945 .40319825 .3849945 .39320375 .3829956 .38320924 .3789978 .37319947L.27999879 .11428833 .17799378 .37020875C.17199707 .38420106 .16899109 .39819337 .16899109 .40719605 .16899109 .42518617 .17999268 .43218995 .21499634 .43518067V.4501953H.018997193V.43518067C.056991579 .43318177 .06399536 .42318727 .10998535 .32022096L.22999573 .033309938C.23199463 .027313233 .23498535 .020309449 .23799134 .012313843 .24398804-.0056762697 .25-.013671875 .2559967-.013671875 .2619934-.013671875 .2689972-.0006866455 .28399659 .036315919L.4119873 .35720826C.44099427 .42518617 .44699098 .43218995 .47698976 .43518067V.4501953Z"/>
<path id="font_5_10" d="M.31498719 .31419374 .31098939 .4501953H.2999878L.2979889 .44818116C.2889862 .44119264 .28799439 .44018556 .28399659 .44018556 .27799989 .44018556 .2679901 .44218446 .25698854 .44718934 .23498535 .4549713 .21299744 .45898438 .18699646 .45898438 .10798645 .45898438 .050994874 .4079895 .050994874 .33602906 .050994874 .28007508 .08299255 .24009705 .16799927 .19212342L.22599793 .15913391C.26098634 .1391449 .27799989 .11515808 .27799989 .08418274 .27799989 .04020691 .24598694 .01222229 .19499207 .01222229 .16099549 .01222229 .12998963 .025222779 .11099243 .047210695 .08999634 .07218933 .08099365 .095184329 .067993167 .15214539H.051986696V-.003768921H.06498718C.07199097 .006225586 .07598877 .008224487 .08799744 .008224487 .09700012 .0079956059 .11099243 .005996704 .13398743 0 .1619873-.0057678224 .18899536-.009765625 .20698548-.009765625 .28399659-.009765625 .34799195 .048202516 .34799195 .11816406 .34799195 .1681366 .32398988 .20111084 .2639923 .23709107L.1559906 .3010559C.12799073 .31704713 .11299133 .34202577 .11299133 .36901856 .11299133 .40899659 .14399719 .4369812 .18998719 .4369812 .24699402 .4369812 .2769928 .40299989 .2999878 .31404115L.31498719 .31419374Z"/>
<path id="font_5_14" d="M.57099917 .4501953V.43518067C.6049957 .42819215 .61499026 .42118836 .61499026 .40419007 .61499026 .38920594 .60899356 .36520387 .59799197 .33821107L.5079956 .11628723 .42399598 .34020997C.40699769 .38619996 .40699769 .38619996 .40699769 .39920045 .40699769 .42118836 .41799928 .42819215 .46499635 .43518067V.4501953H.2619934V.43518067C.29899598 .43118287 .31098939 .42019654 .33099366 .36621095 .33799745 .34721376 .34498597 .32821656 .35099793 .31022645L.2599945 .11128235 .16099549 .37220765C.15699768 .38220216 .15499878 .39219667 .15499878 .40219117 .15499878 .42318727 .16699219 .43118287 .20098877 .43518067V.4501953H.020996094V.43518067C.04399109 .43318177 .051986696 .42318727 .07398987 .37220765L.20899964 .030319214C.22099304 .00032043458 .22898865-.013671875 .23498535-.013671875 .23999024-.013671875 .24798584-.0006866455 .2599945 .025314331L.37199403 .26524354 .46299745 .029312134C.47698976-.007675171 .48098756-.013671875 .4869995-.013671875 .49398805-.013671875 .49899293-.0046844484 .5149994 .035308839L.6529999 .38121034C.67099 .42318727 .673996 .42819215 .69400027 .43518067V.4501953H.57099917Z"/>
<path id="font_5_5" d="M.15699768 .34295655C.19898987 .38894654 .22898865 .40596009 .2679901 .40596009 .31799317 .40596009 .34298707 .36994935 .34298707 .29995729V.101989749C.34298707 .033996583 .33299256 .020996094 .2749939 .01499939V0H.4869995V.01499939C.43299867 .024993897 .4269867 .032989503 .4269867 .101989749V.30096437C.4269867 .40596009 .3849945 .45996095 .3039856 .45996095 .24499512 .45996095 .20298767 .43595887 .15699768 .3759613V.6799469L.1519928 .6829529C.117996219 .6709595 .09298706 .6629486 .036987306 .6469574L.009994507 .63894656V.6229553C.01399231 .62394717 .016998291 .62394717 .021987915 .62394717 .06498718 .62394717 .07299805 .61595156 .07299805 .5729523V.101989749C.07299805 .03199768 .066986087 .022994996 .008987427 .01499939V0H.22499085V.01499939C.16699219 .020996094 .15699768 .032989503 .15699768 .101989749V.34295655Z"/>
<path id="font_5_15" d="M.29100038 .67578127 .11099243 .58496096V.57095339C.12298584 .57595828 .13398743 .57995608 .13798523 .58195498 .1559906 .5889435 .17298889 .592926 .18299866 .592926 .20399475 .592926 .21299744 .57795718 .21299744 .5459595V.09298706C.21299744 .0599823 .20498657 .036987306 .18899536 .02798462 .17399597 .018997193 .1599884 .015991211 .117996219 .01499939V0H.3939972V.01499939C.31498719 .015991211 .29899598 .025985718 .29899598 .07398987V.6737671L.29100038 .67578127Z"/>
<path id="font_5_16" d="M.47499085 .13696289 .46199037 .14196778C.4249878 .084991458 .4119873 .07598877 .36698915 .07598877H.12799073L.29599 .2519226C.3849945 .34487916 .42399598 .42085267 .42399598 .4988098 .42399598 .59877017 .34298707 .67578127 .23899842 .67578127 .18399048 .67578127 .13198853 .6537781 .09498596 .61376956 .06298828 .5797882 .04798889 .5477905 .0309906 .4768219L.051986696 .47183229C.09199524 .5697937 .12799073 .6017761 .19699097 .6017761 .2809906 .6017761 .33799745 .5447998 .33799745 .4608307 .33799745 .38285829 .2919922 .28990174 .20799256 .200943L.02999878 .011993408V0H.41999818L.47499085 .13696289Z"/>
<path id="font_5_17" d="M.15299988 .33003236C.21199036 .33003236 .23498535 .32803346 .25898744 .31904603 .32099916 .29707337 .3600006 .2401123 .3600006 .17118836 .3600006 .087265018 .30299378 .022323609 .22898865 .022323609 .20199585 .022323609 .18199158 .029312134 .14498902 .05329895 .114990238 .0712738 .09799194 .07826233 .08099365 .07826233 .057998659 .07826233 .042999269 .06428528 .042999269 .043304445 .042999269 .00831604 .085998538-.013671875 .1559906-.013671875 .23298645-.013671875 .31199647 .012313843 .35899354 .05329895 .4059906 .09425354 .43199159 .15220642 .43199159 .21913147 .43199159 .27009584 .41600038 .31704713 .3869934 .34802247 .36698915 .36999513 .34799195 .38198854 .3039856 .40097047 .37298585 .44792176 .397995 .4848938 .397995 .5388489 .397995 .61976626 .33399964 .67578127 .24198914 .67578127 .19198609 .67578127 .147995 .6587677 .11199951 .62677 .08198547 .5997925 .066986087 .57380679 .04499817 .51387026L.05999756 .50987246C.100997928 .58280947 .1459961 .61576846 .20899964 .61576846 .27398683 .61576846 .31900025 .57180789 .31900025 .50886538 .31900025 .4729004 .3039856 .43693543 .2789917 .4119568 .24899292 .38198854 .22099304 .3670044 .15299988 .34301759V.33003236Z"/>
<path id="font_5_18" d="M.47200013 .23098755H.36999513V.67578127H.32598878L.011993408 .23098755V.16699219H.29299928V0H.36999513V.16699219H.47200013V.23098755M.2919922 .23098755H.051986696L.2919922 .573822V.23098755Z"/>
<path id="font_5_19" d="M.18099976 .58309939H.3769989C.3929901 .58309939 .39698792 .58509829 .3999939 .59210208L.43798829 .68110659 .42900086 .6880951C.4139862 .667099 .4039917 .6621094 .3829956 .6621094H.17399597L.06498718 .4251709C.06399536 .423172 .06399536 .42216493 .06399536 .42016603 .06399536 .4151764 .067993167 .4121704 .07598877 .4121704 .10798645 .4121704 .147995 .40516664 .18899536 .3921814 .3039856 .3551941 .35699464 .2932129 .35699464 .19425965 .35699464 .09829712 .29599 .02331543 .21798706 .02331543 .19799805 .02331543 .18099976 .030319214 .15098572 .05230713 .11898804 .075302127 .09599304 .08529663 .07499695 .08529663 .04598999 .08529663 .03199768 .07330322 .03199768 .048309328 .03199768 .010314941 .07899475-.013671875 .1539917-.013671875 .23799134-.013671875 .30999757 .013320923 .3600006 .06430054 .4059906 .10928345 .4269867 .16625977 .4269867 .24223328 .4269867 .31420899 .4079895 .36018373 .35798646 .4101715 .31399537 .45414735 .25698854 .47714234 .13899231 .49813844L.18099976 .58309939Z"/>
<path id="font_5_21" d="M.2899933 .37101747C.3889923 .42396546 .42399598 .46592713 .42399598 .5338745 .42399598 .61579897 .35198976 .67578127 .2519989 .67578127 .14299011 .67578127 .06199646 .6088104 .06199646 .5178833 .06199646 .4529419 .08099365 .42396546 .18598938 .3320465 .07798767 .25012208 .055999757 .21914673 .055999757 .15119934 .055999757 .05429077 .1349945-.013671875 .24798584-.013671875 .36799623-.013671875 .44499208 .05229187 .44499208 .15519715 .44499208 .23213196 .41099549 .2810974 .2899933 .37101747M.27198792 .26809693C.34498597 .21614075 .36898805 .18017578 .36898805 .1242218 .36898805 .059280397 .32398988 .014328003 .25898744 .014328003 .18299866 .014328003 .13198853 .072265628 .13198853 .15919495 .13198853 .22314453 .1539917 .2651062 .21199036 .3120575L.27198792 .26809693M.26098634 .3889923C.17199707 .4469452 .13598633 .49290467 .13598633 .54885867 .13598633 .6068115 .18099976 .6477661 .24398804 .6477661 .31199647 .6477661 .35499574 .60380557 .35499574 .53486636 .35499574 .47792054 .32699586 .43295289 .269989 .394989 .2649994 .3919983 .2649994 .3919983 .26098634 .3889923Z"/>
<path id="font_5_23" d="M.2539978 .67578127C.19898987 .67578127 .15699768 .6587677 .11999512 .62379458 .06199646 .5678406 .023986817 .4529419 .023986817 .3360443 .023986817 .22714234 .056991579 .11022949 .10398865 .05429077 .14099121 .010314941 .19198609-.013671875 .25-.013671875 .30099488-.013671875 .34399415 .003326416 .37998963 .03829956 .43798829 .09324646 .47599793 .20915222 .47599793 .3300476 .47599793 .53486636 .3849945 .67578127 .2539978 .67578127M.25099183 .6497803C.33499146 .6497803 .37998963 .53686526 .37998963 .3280487 .37998963 .11923218 .33599855 .012313843 .25 .012313843 .1639862 .012313843 .11999512 .11923218 .11999512 .32704164 .11999512 .53886416 .16499329 .6497803 .25099183 .6497803Z"/>
<path id="font_5_20" d="M.44599916 .68470767C.33198548 .6746979 .27398683 .6557007 .20098877 .6047058 .09298706 .52770999 .033996583 .4136963 .033996583 .27960206 .033996583 .19250489 .06098938 .10441589 .10398865 .054367067 .14199829 .010314941 .19599915-.013671875 .2579956-.013671875 .38198854-.013671875 .46798707 .08139038 .46798707 .2195282 .46798707 .3476715 .394989 .42871095 .27999879 .42871095 .23599243 .42871095 .21499634 .42170716 .1519928 .3836975 .1789856 .5346985 .29100038 .6427002 .44799806 .6687012L.44599916 .68470767M.24198914 .3827057C.32798768 .3827057 .37799073 .31062318 .37799073 .1855011 .37799073 .07537842 .33898927 .014328003 .2689972 .014328003 .18099976 .014328003 .1269989 .1084137 .1269989 .26358033 .1269989 .31463624 .1349945 .34266664 .15499878 .35768128 .17599488 .373703 .20698548 .3827057 .24198914 .3827057Z"/>
<path id="font_5_22" d="M.05899048-.021728516C.17098999-.008728027 .22599793 .010269165 .2939911 .059265138 .397995 .13526917 .45899964 .25926209 .45899964 .39411927 .45899964 .5588989 .36698915 .67578127 .23799134 .67578127 .11898804 .67578127 .02999878 .5748749 .02999878 .44004823 .02999878 .31822206 .101989749 .23725891 .20999146 .23725891 .2649994 .23725891 .30699159 .25326539 .3600006 .2942505 .31900025 .13127136 .20799256 .024261475 .055999757-.001739502L.05899048-.021728516M.3619995 .35516358C.3619995 .33518983 .35798646 .3262024 .34700013 .31721498 .31900025 .2932434 .28199769 .28027345 .24598694 .28027345 .16999817 .28027345 .12199402 .35516358 .12199402 .47399903 .12199402 .53092959 .13798523 .59085085 .15899658 .6168213 .17599488 .63679507 .20098877 .6477661 .22999573 .6477661 .31698609 .6477661 .3619995 .56188967 .3619995 .39411927V.35516358Z"/>
</defs>
<g clip-path="url(#clip_1)">
<path transform="matrix(1,0,0,-1,36.854,192.09067)" stroke-width=".24907" stroke-linecap="butt" stroke-miterlimit="10" stroke-linejoin="miter" fill="none" stroke="#ececec" d="M10.751 100.00252V188.3991M21.50201 100.00252V188.3991M32.25302 100.00252V188.3991M43.00403 100.00252V188.3991M53.75504 100.00252V188.3991M86.00804 100.00252V188.3991M107.51006 100.00252V188.3991M161.26508 100.00252V188.3991"/>
<path transform="matrix(1,0,0,-1,36.854,192.09067)" stroke-width=".24907" stroke-linecap="butt" stroke-miterlimit="10" stroke-linejoin="miter" fill="none" stroke="#ececec" d="M0 114.92242H172.01609M0 172.38364H172.01609"/>
<path transform="matrix(1,0,0,-1,36.854,192.09067)" stroke-width=".19926" stroke-linecap="butt" stroke-miterlimit="10" stroke-linejoin="miter" fill="none" stroke="#7f807f" d="M10.751 100.00252V104.25208M21.50201 100.00252V104.25208M32.25302 100.00252V104.25208M43.00403 100.00252V104.25208M53.75504 100.00252V104.25208M86.00804 100.00252V104.25208M107.51006 100.00252V104.25208M161.26508 100.00252V104.25208M10.751 188.3991V184.14952M21.50201 188.3991V184.14952M32.25302 188.3991V184.14952M43.00403 188.3991V184.14952M53.75504 188.3991V184.14952M86.00804 188.3991V184.14952M107.51006 188.3991V184.14952M161.26508 188.3991V184.14952"/>
<path transform="matrix(1,0,0,-1,36.854,192.09067)" stroke-width=".19926" stroke-linecap="butt" stroke-miterlimit="10" stroke-linejoin="miter" fill="none" stroke="#7f807f" d="M0 102.1749H2.83527M0 106.02159H2.83527M0 109.35384H2.83527M0 112.2931H2.83527M0 114.92242H2.83527M0 132.21997H2.83527M0 142.33856H2.83527M0 149.5175H2.83527M0 155.08612H2.83527M0 159.6361H2.83527M0 163.4828H2.83527M0 166.81505H2.83527M0 169.75434H2.83527"/>
<path transform="matrix(1,0,0,-1,36.854,192.09067)" stroke-width=".19926" stroke-linecap="butt" stroke-miterlimit="10" stroke-linejoin="miter" fill="none" stroke="#7f807f" d="M0 114.92242H4.25244M0 172.38364H4.25244"/>
<path transform="matrix(1,0,0,-1,36.854,192.09067)" stroke-width=".39851" stroke-linecap="butt" stroke-miterlimit="10" stroke-linejoin="miter" fill="none" stroke="#404040" d="M0 100.00252H172.01609"/>
<path transform="matrix(1,0,0,-1,36.854,192.09067)" stroke-width=".39851" stroke-linecap="butt" stroke-miterlimit="10" stroke-linejoin="miter" fill="none" stroke="#404040" d="M0 188.3991H172.01609"/>
<path transform="matrix(1,0,0,-1,36.854,192.09067)" stroke-width=".39851" stroke-linecap="butt" stroke-miterlimit="10" stroke-linejoin="miter" fill="none" stroke="#3070be" d="M0 100.00252V188.3991"/>
<use data-text="1" xlink:href="#font_2_2" transform="matrix(7.9701,0,0,-7.9701,45.488,100.10466)"/>
<use data-text="2" xlink:href="#font_2_3" transform="matrix(7.9701,0,0,-7.9701,56.239,100.10466)"/>
<use data-text="3" xlink:href="#font_2_4" transform="matrix(7.9701,0,0,-7.9701,66.99,100.10466)"/>
<use data-text="4" xlink:href="#font_2_5" transform="matrix(7.9701,0,0,-7.9701,77.741,100.10466)"/>
<use data-text="5" xlink:href="#font_2_6" transform="matrix(7.9701,0,0,-7.9701,88.492008,100.10466)"/>
<use data-text="8" xlink:href="#font_2_8" transform="matrix(7.9701,0,0,-7.9701,120.744998,100.10466)"/>
<use data-text="1" xlink:href="#font_2_2" transform="matrix(7.9701,0,0,-7.9701,140.13,100.10466)"/>
<use data-text="0" xlink:href="#font_2_1" transform="matrix(7.9701,0,0,-7.9701,144.36212,100.10466)"/>
<use data-text="1" xlink:href="#font_2_2" transform="matrix(7.9701,0,0,-7.9701,193.88501,100.10466)"/>
<use data-text="5" xlink:href="#font_2_6" transform="matrix(7.9701,0,0,-7.9701,198.11713,100.10466)"/>
<use data-text="1" xlink:href="#font_2_2" transform="matrix(7.9701,0,0,-7.9701,21.271,79.73668)" fill="#3070be"/>
<use data-text="0" xlink:href="#font_2_1" transform="matrix(7.9701,0,0,-7.9701,25.503125,79.73668)" fill="#3070be"/>
<use data-text="0" xlink:href="#font_2_1" transform="matrix(7.9701,0,0,-7.9701,29.735249,79.73668)" fill="#3070be"/>
<use data-text="1" xlink:href="#font_2_2" transform="matrix(7.9701,0,0,-7.9701,14.684,21.500679)" fill="#3070be"/>
<use data-text="," xlink:href="#font_3_1" transform="matrix(7.9701,0,0,-7.9701,18.916123,21.500679)" fill="#3070be"/>
<use data-text="0" xlink:href="#font_2_1" transform="matrix(7.9701,0,0,-7.9701,21.267302,21.500679)" fill="#3070be"/>
<use data-text="0" xlink:href="#font_2_1" transform="matrix(7.9701,0,0,-7.9701,25.499424,21.500679)" fill="#3070be"/>
<use data-text="0" xlink:href="#font_2_1" transform="matrix(7.9701,0,0,-7.9701,29.731549,21.500679)" fill="#3070be"/>
<g clip-path="url(#clip_4)">
<path transform="matrix(1,0,0,-1,36.854,192.09067)" stroke-width=".79703" stroke-linecap="butt" stroke-miterlimit="10" stroke-linejoin="miter" fill="none" stroke="#3070be" d="M10.751 176.93288 21.50201 159.63535 32.25302 149.5175 43.00403 142.33782 53.75504 136.76921 86.00804 125.04027 107.51006 119.47166 161.26508 109.35384"/>
</g>
<path transform="matrix(1,0,0,-1,36.854,192.09067)" d="M12.74355 176.93288C12.74355 178.03334 11.85147 178.92542 10.751 178.92542 9.65056 178.92542 8.75848 178.03334 8.75848 176.93288 8.75848 175.83243 9.65056 174.94036 10.751 174.94036 11.85147 174.94036 12.74355 175.83243 12.74355 176.93288ZM10.751 176.93288" fill="#3070be"/>
<path transform="matrix(1,0,0,-1,36.854,192.09067)" stroke-width=".79703" stroke-linecap="butt" stroke-miterlimit="10" stroke-linejoin="miter" fill="none" stroke="#3070be" d="M12.74355 176.93288C12.74355 178.03334 11.85147 178.92542 10.751 178.92542 9.65056 178.92542 8.75848 178.03334 8.75848 176.93288 8.75848 175.83243 9.65056 174.94036 10.751 174.94036 11.85147 174.94036 12.74355 175.83243 12.74355 176.93288ZM10.751 176.93288"/>
<path transform="matrix(1,0,0,-1,36.854,192.09067)" d="M23.49454 159.63535C23.49454 160.7358 22.60248 161.62787 21.50201 161.62787 20.40157 161.62787 19.50949 160.7358 19.50949 159.63535 19.50949 158.53488 20.40157 157.6428 21.50201 157.6428 22.60248 157.6428 23.49454 158.53488 23.49454 159.63535ZM21.50201 159.63535" fill="#3070be"/>
<path transform="matrix(1,0,0,-1,36.854,192.09067)" stroke-width=".79703" stroke-linecap="butt" stroke-miterlimit="10" stroke-linejoin="miter" fill="none" stroke="#3070be" d="M23.49454 159.63535C23.49454 160.7358 22.60248 161.62787 21.50201 161.62787 20.40157 161.62787 19.50949 160.7358 19.50949 159.63535 19.50949 158.53488 20.40157 157.6428 21.50201 157.6428 22.60248 157.6428 23.49454 158.53488 23.49454 159.63535ZM21.50201 159.63535"/>
<path transform="matrix(1,0,0,-1,36.854,192.09067)" d="M34.24554 149.5175C34.24554 150.61797 33.35349 151.51003 32.25302 151.51003 31.15256 151.51003 30.2605 150.61797 30.2605 149.5175 30.2605 148.41706 31.15256 147.52498 32.25302 147.52498 33.35349 147.52498 34.24554 148.41706 34.24554 149.5175ZM32.25302 149.5175" fill="#3070be"/>
<path transform="matrix(1,0,0,-1,36.854,192.09067)" stroke-width=".79703" stroke-linecap="butt" stroke-miterlimit="10" stroke-linejoin="miter" fill="none" stroke="#3070be" d="M34.24554 149.5175C34.24554 150.61797 33.35349 151.51003 32.25302 151.51003 31.15256 151.51003 30.2605 150.61797 30.2605 149.5175 30.2605 148.41706 31.15256 147.52498 32.25302 147.52498 33.35349 147.52498 34.24554 148.41706 34.24554 149.5175ZM32.25302 149.5175"/>
<path transform="matrix(1,0,0,-1,36.854,192.09067)" d="M44.99655 142.33782C44.99655 143.43827 44.10448 144.33034 43.00403 144.33034 41.90356 144.33034 41.0115 143.43827 41.0115 142.33782 41.0115 141.23735 41.90356 140.34528 43.00403 140.34528 44.10448 140.34528 44.99655 141.23735 44.99655 142.33782ZM43.00403 142.33782" fill="#3070be"/>
<path transform="matrix(1,0,0,-1,36.854,192.09067)" stroke-width=".79703" stroke-linecap="butt" stroke-miterlimit="10" stroke-linejoin="miter" fill="none" stroke="#3070be" d="M44.99655 142.33782C44.99655 143.43827 44.10448 144.33034 43.00403 144.33034 41.90356 144.33034 41.0115 143.43827 41.0115 142.33782 41.0115 141.23735 41.90356 140.34528 43.00403 140.34528 44.10448 140.34528 44.99655 141.23735 44.99655 142.33782ZM43.00403 142.33782"/>
<path transform="matrix(1,0,0,-1,36.854,192.09067)" d="M55.74756 136.76921C55.74756 137.86968 54.85548 138.76174 53.75504 138.76174 52.65457 138.76174 51.7625 137.86968 51.7625 136.76921 51.7625 135.66876 52.65457 134.77669 53.75504 134.77669 54.85548 134.77669 55.74756 135.66876 55.74756 136.76921ZM53.75504 136.76921" fill="#3070be"/>
<path transform="matrix(1,0,0,-1,36.854,192.09067)" stroke-width=".79703" stroke-linecap="butt" stroke-miterlimit="10" stroke-linejoin="miter" fill="none" stroke="#3070be" d="M55.74756 136.76921C55.74756 137.86968 54.85548 138.76174 53.75504 138.76174 52.65457 138.76174 51.7625 137.86968 51.7625 136.76921 51.7625 135.66876 52.65457 134.77669 53.75504 134.77669 54.85548 134.77669 55.74756 135.66876 55.74756 136.76921ZM53.75504 136.76921"/>
<path transform="matrix(1,0,0,-1,36.854,192.09067)" d="M88.00056 125.04027C88.00056 126.14072 87.1085 127.03279 86.00804 127.03279 84.9076 127.03279 84.01552 126.14072 84.01552 125.04027 84.01552 123.9398 84.9076 123.04773 86.00804 123.04773 87.1085 123.04773 88.00056 123.9398 88.00056 125.04027ZM86.00804 125.04027" fill="#3070be"/>
<path transform="matrix(1,0,0,-1,36.854,192.09067)" stroke-width=".79703" stroke-linecap="butt" stroke-miterlimit="10" stroke-linejoin="miter" fill="none" stroke="#3070be" d="M88.00056 125.04027C88.00056 126.14072 87.1085 127.03279 86.00804 127.03279 84.9076 127.03279 84.01552 126.14072 84.01552 125.04027 84.01552 123.9398 84.9076 123.04773 86.00804 123.04773 87.1085 123.04773 88.00056 123.9398 88.00056 125.04027ZM86.00804 125.04027"/>
<path transform="matrix(1,0,0,-1,36.854,192.09067)" d="M109.50258 119.47166C109.50258 120.57213 108.6105 121.46419 107.51006 121.46419 106.40959 121.46419 105.51753 120.57213 105.51753 119.47166 105.51753 118.37122 106.40959 117.47914 107.51006 117.47914 108.6105 117.47914 109.50258 118.37122 109.50258 119.47166ZM107.51006 119.47166" fill="#3070be"/>
<path transform="matrix(1,0,0,-1,36.854,192.09067)" stroke-width=".79703" stroke-linecap="butt" stroke-miterlimit="10" stroke-linejoin="miter" fill="none" stroke="#3070be" d="M109.50258 119.47166C109.50258 120.57213 108.6105 121.46419 107.51006 121.46419 106.40959 121.46419 105.51753 120.57213 105.51753 119.47166 105.51753 118.37122 106.40959 117.47914 107.51006 117.47914 108.6105 117.47914 109.50258 118.37122 109.50258 119.47166ZM107.51006 119.47166"/>
<path transform="matrix(1,0,0,-1,36.854,192.09067)" d="M163.2576 109.35384C163.2576 110.45428 162.36554 111.34636 161.26508 111.34636 160.16461 111.34636 159.27256 110.45428 159.27256 109.35384 159.27256 108.25337 160.16461 107.3613 161.26508 107.3613 162.36554 107.3613 163.2576 108.25337 163.2576 109.35384ZM161.26508 109.35384" fill="#3070be"/>
<path transform="matrix(1,0,0,-1,36.854,192.09067)" stroke-width=".79703" stroke-linecap="butt" stroke-miterlimit="10" stroke-linejoin="miter" fill="none" stroke="#3070be" d="M163.2576 109.35384C163.2576 110.45428 162.36554 111.34636 161.26508 111.34636 160.16461 111.34636 159.27256 110.45428 159.27256 109.35384 159.27256 108.25337 160.16461 107.3613 161.26508 107.3613 162.36554 107.3613 163.2576 108.25337 163.2576 109.35384ZM161.26508 109.35384"/>
<path transform="matrix(1,0,0,-1,36.854,192.09067)" stroke-width=".79703" stroke-linecap="butt" stroke-miterlimit="10" stroke-linejoin="miter" fill="none" stroke="#3070be" d=""/>
<use data-text="C" xlink:href="#font_5_1" transform="matrix(7.9701,0,0,-7.9701,101.587009,111.08867)"/>
<use data-text="e" xlink:href="#font_5_4" transform="matrix(7.9701,0,0,-7.9701,106.90306,111.08867)"/>
<use data-text="l" xlink:href="#font_5_7" transform="matrix(7.9701,0,0,-7.9701,110.44179,111.08867)"/>
<use data-text="l" xlink:href="#font_5_7" transform="matrix(7.9701,0,0,-7.9701,112.65748,111.08867)"/>
<use data-text="c" xlink:href="#font_5_3" transform="matrix(7.9701,0,0,-7.9701,116.86569,111.08867)"/>
<use data-text="o" xlink:href="#font_5_9" transform="matrix(7.9701,0,0,-7.9701,120.40442,111.08867)"/>
<use data-text="u" xlink:href="#font_5_12" transform="matrix(7.9701,0,0,-7.9701,124.389469,111.08867)"/>
<use data-text="n" xlink:href="#font_5_8" transform="matrix(7.9701,0,0,-7.9701,128.37451,111.08867)"/>
<use data-text="t" xlink:href="#font_5_11" transform="matrix(7.9701,0,0,-7.9701,132.35956,111.08867)"/>
<use data-text="N" xlink:href="#font_3_2" transform="matrix(7.9701,0,0,-7.9701,136.56777,111.08867)"/>
<use data-text="V" xlink:href="#font_3_3" transform="matrix(0,-7.9701,-7.9701,-0,6.5790026,70.470668)" fill="#3070be"/>
<use data-text="c" xlink:href="#font_6_1" transform="matrix(0,-5.9776,-5.9776,-0,7.9850008,65.538669)" fill="#3070be"/>
<use data-text="e" xlink:href="#font_6_2" transform="matrix(0,-5.9776,-5.9776,-0,7.9850008,62.274896)" fill="#3070be"/>
<use data-text="l" xlink:href="#font_6_3" transform="matrix(0,-5.9776,-5.9776,-0,7.9850008,59.011125)" fill="#3070be"/>
<use data-text="l" xlink:href="#font_6_3" transform="matrix(0,-5.9776,-5.9776,-0,7.9850008,56.90701)" fill="#3070be"/>
<use data-text="," xlink:href="#font_7_1" transform="matrix(0,-5.9776,-5.9776,-0,7.9850008,54.802896)" fill="#3070be"/>
<use data-text="n" xlink:href="#font_6_5" transform="matrix(0,-5.9776,-5.9776,-0,7.9850008,52.531408)" fill="#3070be"/>
<use data-text="o" xlink:href="#font_6_6" transform="matrix(0,-5.9776,-5.9776,-0,7.9850008,48.490549)" fill="#3070be"/>
<use data-text="m" xlink:href="#font_6_4" transform="matrix(0,-5.9776,-5.9776,-0,7.9850008,44.838235)" fill="#3070be"/>
<use data-text="(" xlink:href="#font_5_24" transform="matrix(0,-7.9701,-7.9701,-0,6.5790026,36.370668)" fill="#3070be"/>
<use data-text="V" xlink:href="#font_5_2" transform="matrix(0,-7.9701,-7.9701,-0,6.5790026,33.71662)" fill="#3070be"/>
<use data-text=")" xlink:href="#font_5_25" transform="matrix(0,-7.9701,-7.9701,-0,6.5790026,27.962208)" fill="#3070be"/>
<path transform="matrix(1,0,0,-1,36.854,92.08766)" stroke-width=".19926" stroke-linecap="butt" stroke-miterlimit="10" stroke-linejoin="miter" fill="none" stroke="#7f807f" d="M172.01609 0H167.76363M172.01609 17.67938H167.76363M172.01609 35.35875H167.76363M172.01609 53.03812H167.76363M172.01609 70.71748H167.76363M172.01609 88.39685H167.76363"/>
<path transform="matrix(1,0,0,-1,36.854,92.08766)" stroke-width=".39851" stroke-linecap="butt" stroke-miterlimit="10" stroke-linejoin="miter" fill="none" stroke="#da4d2a" d="M172.01609 0V88.39685"/>
<use data-text="0" xlink:href="#font_2_1" transform="matrix(7.9701,0,0,-7.9701,211.751,94.65666)" fill="#da4d2a"/>
<use data-text="2" xlink:href="#font_2_3" transform="matrix(7.9701,0,0,-7.9701,211.751,76.97666)" fill="#da4d2a"/>
<use data-text="0" xlink:href="#font_2_1" transform="matrix(7.9701,0,0,-7.9701,215.98313,76.97666)" fill="#da4d2a"/>
<use data-text="4" xlink:href="#font_2_5" transform="matrix(7.9701,0,0,-7.9701,211.751,59.297655)" fill="#da4d2a"/>
<use data-text="0" xlink:href="#font_2_1" transform="matrix(7.9701,0,0,-7.9701,215.98313,59.297655)" fill="#da4d2a"/>
<use data-text="6" xlink:href="#font_2_7" transform="matrix(7.9701,0,0,-7.9701,211.751,41.617654)" fill="#da4d2a"/>
<use data-text="0" xlink:href="#font_2_1" transform="matrix(7.9701,0,0,-7.9701,215.98313,41.617654)" fill="#da4d2a"/>
<use data-text="8" xlink:href="#font_2_8" transform="matrix(7.9701,0,0,-7.9701,211.751,23.938652)" fill="#da4d2a"/>
<use data-text="0" xlink:href="#font_2_1" transform="matrix(7.9701,0,0,-7.9701,215.98313,23.938652)" fill="#da4d2a"/>
<use data-text="1" xlink:href="#font_2_2" transform="matrix(7.9701,0,0,-7.9701,211.751,6.259659)" fill="#da4d2a"/>
<use data-text="0" xlink:href="#font_2_1" transform="matrix(7.9701,0,0,-7.9701,215.98313,6.259659)" fill="#da4d2a"/>
<use data-text="0" xlink:href="#font_2_1" transform="matrix(7.9701,0,0,-7.9701,220.21524,6.259659)" fill="#da4d2a"/>
<g clip-path="url(#clip_8)">
<path transform="matrix(1,0,0,-1,36.854,92.08766)" stroke-width=".79703" stroke-linecap="butt" stroke-dasharray="2.9888,2.9888" stroke-miterlimit="10" stroke-linejoin="miter" fill="none" stroke="#da4d2a" d="M10.751 5.30382 21.50201 10.60764 32.25302 15.91144 43.00403 21.21526 53.75504 26.51906 86.00804 42.4305 107.51006 53.03812 161.26508 79.55717"/>
</g>
<path transform="matrix(1,0,0,-1,36.854,92.08766)" d="M8.75848 3.3113H12.74354V7.29636H8.75848Z" fill="#da4d2a"/>
<path transform="matrix(1,0,0,-1,36.854,92.08766)" stroke-width=".79703" stroke-linecap="butt" stroke-dasharray="2.9888,2.9888" stroke-miterlimit="10" stroke-linejoin="miter" fill="none" stroke="#da4d2a" d="M8.75848 3.3113H12.74354V7.29636H8.75848Z"/>
<path transform="matrix(1,0,0,-1,36.854,92.08766)" d="M19.50949 8.6151H23.494549V12.60016H19.50949Z" fill="#da4d2a"/>
<path transform="matrix(1,0,0,-1,36.854,92.08766)" stroke-width=".79703" stroke-linecap="butt" stroke-dasharray="2.9888,2.9888" stroke-miterlimit="10" stroke-linejoin="miter" fill="none" stroke="#da4d2a" d="M19.50949 8.6151H23.494549V12.60016H19.50949Z"/>
<path transform="matrix(1,0,0,-1,36.854,92.08766)" d="M30.2605 13.91891H34.24556V17.90397H30.2605Z" fill="#da4d2a"/>
<path transform="matrix(1,0,0,-1,36.854,92.08766)" stroke-width=".79703" stroke-linecap="butt" stroke-dasharray="2.9888,2.9888" stroke-miterlimit="10" stroke-linejoin="miter" fill="none" stroke="#da4d2a" d="M30.2605 13.91891H34.24556V17.90397H30.2605Z"/>
<path transform="matrix(1,0,0,-1,36.854,92.08766)" d="M41.0115 19.22272H44.996564V23.207779H41.0115Z" fill="#da4d2a"/>
<path transform="matrix(1,0,0,-1,36.854,92.08766)" stroke-width=".79703" stroke-linecap="butt" stroke-dasharray="2.9888,2.9888" stroke-miterlimit="10" stroke-linejoin="miter" fill="none" stroke="#da4d2a" d="M41.0115 19.22272H44.996564V23.207779H41.0115Z"/>
<path transform="matrix(1,0,0,-1,36.854,92.08766)" d="M51.7625 24.52654H55.747564V28.5116H51.7625Z" fill="#da4d2a"/>
<path transform="matrix(1,0,0,-1,36.854,92.08766)" stroke-width=".79703" stroke-linecap="butt" stroke-dasharray="2.9888,2.9888" stroke-miterlimit="10" stroke-linejoin="miter" fill="none" stroke="#da4d2a" d="M51.7625 24.52654H55.747564V28.5116H51.7625Z"/>
<path transform="matrix(1,0,0,-1,36.854,92.08766)" d="M84.01552 40.43796H88.00058V44.423025H84.01552Z" fill="#da4d2a"/>
<path transform="matrix(1,0,0,-1,36.854,92.08766)" stroke-width=".79703" stroke-linecap="butt" stroke-dasharray="2.9888,2.9888" stroke-miterlimit="10" stroke-linejoin="miter" fill="none" stroke="#da4d2a" d="M84.01552 40.43796H88.00058V44.423025H84.01552Z"/>
<path transform="matrix(1,0,0,-1,36.854,92.08766)" d="M105.51753 51.0456H109.502597V55.030664H105.51753Z" fill="#da4d2a"/>
<path transform="matrix(1,0,0,-1,36.854,92.08766)" stroke-width=".79703" stroke-linecap="butt" stroke-dasharray="2.9888,2.9888" stroke-miterlimit="10" stroke-linejoin="miter" fill="none" stroke="#da4d2a" d="M105.51753 51.0456H109.502597V55.030664H105.51753Z"/>
<path transform="matrix(1,0,0,-1,36.854,92.08766)" d="M159.27256 77.56464H163.25762V81.5497H159.27256Z" fill="#da4d2a"/>
<path transform="matrix(1,0,0,-1,36.854,92.08766)" stroke-width=".79703" stroke-linecap="butt" stroke-dasharray="2.9888,2.9888" stroke-miterlimit="10" stroke-linejoin="miter" fill="none" stroke="#da4d2a" d="M159.27256 77.56464H163.25762V81.5497H159.27256Z"/>
<path transform="matrix(1,0,0,-1,36.854,92.08766)" stroke-width=".79703" stroke-linecap="butt" stroke-dasharray="2.9888,2.9888" stroke-miterlimit="10" stroke-linejoin="miter" fill="none" stroke="#da4d2a" d=""/>
<use data-text="A" xlink:href="#font_5_26" transform="matrix(0,-7.9701,-7.9701,-0,235.43602,79.97368)" fill="#da4d2a"/>
<use data-text="c" xlink:href="#font_5_3" transform="matrix(0,-7.9701,-7.9701,-0,235.43602,74.21927)" fill="#da4d2a"/>
<use data-text="t" xlink:href="#font_5_11" transform="matrix(0,-7.9701,-7.9701,-0,235.43602,70.68054)" fill="#da4d2a"/>
<use data-text="i" xlink:href="#font_5_6" transform="matrix(0,-7.9701,-7.9701,-0,235.43602,68.46486)" fill="#da4d2a"/>
<use data-text="v" xlink:href="#font_5_13" transform="matrix(0,-7.9701,-7.9701,-0,235.43602,66.448429)" fill="#da4d2a"/>
<use data-text="e" xlink:href="#font_5_4" transform="matrix(0,-7.9701,-7.9701,-0,235.43602,62.582918)" fill="#da4d2a"/>
<use data-text="s" xlink:href="#font_5_10" transform="matrix(0,-7.9701,-7.9701,-0,235.43602,57.051668)" fill="#da4d2a"/>
<use data-text="w" xlink:href="#font_5_14" transform="matrix(0,-7.9701,-7.9701,-0,235.43602,53.951295)" fill="#da4d2a"/>
<use data-text="i" xlink:href="#font_5_6" transform="matrix(0,-7.9701,-7.9701,-0,235.43602,48.19687)" fill="#da4d2a"/>
<use data-text="t" xlink:href="#font_5_11" transform="matrix(0,-7.9701,-7.9701,-0,235.43602,45.98117)" fill="#da4d2a"/>
<use data-text="c" xlink:href="#font_5_3" transform="matrix(0,-7.9701,-7.9701,-0,235.43602,43.765474)" fill="#da4d2a"/>
<use data-text="h" xlink:href="#font_5_5" transform="matrix(0,-7.9701,-7.9701,-0,235.43602,40.226747)" fill="#da4d2a"/>
<use data-text="e" xlink:href="#font_5_4" transform="matrix(0,-7.9701,-7.9701,-0,235.43602,36.2417)" fill="#da4d2a"/>
<use data-text="s" xlink:href="#font_5_10" transform="matrix(0,-7.9701,-7.9701,-0,235.43602,32.702974)" fill="#da4d2a"/>
<use data-text="6" xlink:href="#font_2_7" transform="matrix(0,-7.9701,-7.9701,-0,235.43602,27.610077)" fill="#da4d2a"/>
<use data-text="N" xlink:href="#font_3_2" transform="matrix(0,-7.9701,-7.9701,-0,235.43602,23.37796)" fill="#da4d2a"/>
<use data-text="N" xlink:href="#font_3_2" transform="matrix(7.9701,0,0,-7.9701,31.001999,124.46667)"/>
<use data-text="1" xlink:href="#font_5_15" transform="matrix(7.9701,0,0,-7.9701,78.15312,124.46667)"/>
<use data-text="2" xlink:href="#font_5_16" transform="matrix(7.9701,0,0,-7.9701,96.085849,124.46667)"/>
<use data-text="3" xlink:href="#font_5_17" transform="matrix(7.9701,0,0,-7.9701,114.01857,124.46667)"/>
<use data-text="4" xlink:href="#font_5_18" transform="matrix(7.9701,0,0,-7.9701,131.9513,124.46667)"/>
<use data-text="5" xlink:href="#font_5_19" transform="matrix(7.9701,0,0,-7.9701,149.88402,124.46667)"/>
<use data-text="8" xlink:href="#font_5_21" transform="matrix(7.9701,0,0,-7.9701,167.81674,124.46667)"/>
<use data-text="1" xlink:href="#font_5_15" transform="matrix(7.9701,0,0,-7.9701,181.76442,124.46667)"/>
<use data-text="0" xlink:href="#font_5_23" transform="matrix(7.9701,0,0,-7.9701,185.74947,124.46667)"/>
<use data-text="1" xlink:href="#font_5_15" transform="matrix(7.9701,0,0,-7.9701,195.71208,124.46667)"/>
<use data-text="5" xlink:href="#font_5_19" transform="matrix(7.9701,0,0,-7.9701,199.69713,124.46667)"/>
<use data-text="V" xlink:href="#font_3_3" transform="matrix(7.9701,0,0,-7.9701,31.001999,133.93067)"/>
<use data-text="c" xlink:href="#font_6_1" transform="matrix(5.9776,0,0,-5.9776,35.934,135.33667)"/>
<use data-text="e" xlink:href="#font_6_2" transform="matrix(5.9776,0,0,-5.9776,39.19777,135.33667)"/>
<use data-text="l" xlink:href="#font_6_3" transform="matrix(5.9776,0,0,-5.9776,42.46154,135.33667)"/>
<use data-text="l" xlink:href="#font_6_3" transform="matrix(5.9776,0,0,-5.9776,44.565656,135.33667)"/>
<use data-text="(" xlink:href="#font_5_24" transform="matrix(7.9701,0,0,-7.9701,49.162,133.93067)"/>
<use data-text="V" xlink:href="#font_5_2" transform="matrix(7.9701,0,0,-7.9701,51.816045,133.93067)"/>
<use data-text=")" xlink:href="#font_5_25" transform="matrix(7.9701,0,0,-7.9701,57.570459,133.93067)"/>
<use data-text="1" xlink:href="#font_5_15" transform="matrix(7.9701,0,0,-7.9701,66.20207,133.93067)"/>
<use data-text="2" xlink:href="#font_5_16" transform="matrix(7.9701,0,0,-7.9701,70.18712,133.93067)"/>
<use data-text="0" xlink:href="#font_5_23" transform="matrix(7.9701,0,0,-7.9701,74.172168,133.93067)"/>
<use data-text="0" xlink:href="#font_5_23" transform="matrix(7.9701,0,0,-7.9701,78.15721,133.93067)"/>
<use data-text="6" xlink:href="#font_5_20" transform="matrix(7.9701,0,0,-7.9701,88.11984,133.93067)"/>
<use data-text="0" xlink:href="#font_5_23" transform="matrix(7.9701,0,0,-7.9701,92.10489,133.93067)"/>
<use data-text="0" xlink:href="#font_5_23" transform="matrix(7.9701,0,0,-7.9701,96.089939,133.93067)"/>
<use data-text="4" xlink:href="#font_5_18" transform="matrix(7.9701,0,0,-7.9701,106.05255,133.93067)"/>
<use data-text="0" xlink:href="#font_5_23" transform="matrix(7.9701,0,0,-7.9701,110.0376,133.93067)"/>
<use data-text="0" xlink:href="#font_5_23" transform="matrix(7.9701,0,0,-7.9701,114.022647,133.93067)"/>
<use data-text="3" xlink:href="#font_5_17" transform="matrix(7.9701,0,0,-7.9701,123.985279,133.93067)"/>
<use data-text="0" xlink:href="#font_5_23" transform="matrix(7.9701,0,0,-7.9701,127.97032,133.93067)"/>
<use data-text="0" xlink:href="#font_5_23" transform="matrix(7.9701,0,0,-7.9701,131.95537,133.93067)"/>
<use data-text="2" xlink:href="#font_5_16" transform="matrix(7.9701,0,0,-7.9701,141.91799,133.93067)"/>
<use data-text="4" xlink:href="#font_5_18" transform="matrix(7.9701,0,0,-7.9701,145.90303,133.93067)"/>
<use data-text="0" xlink:href="#font_5_23" transform="matrix(7.9701,0,0,-7.9701,149.88808,133.93067)"/>
<use data-text="1" xlink:href="#font_5_15" transform="matrix(7.9701,0,0,-7.9701,159.8507,133.93067)"/>
<use data-text="5" xlink:href="#font_5_19" transform="matrix(7.9701,0,0,-7.9701,163.83574,133.93067)"/>
<use data-text="0" xlink:href="#font_5_23" transform="matrix(7.9701,0,0,-7.9701,167.82079,133.93067)"/>
<use data-text="1" xlink:href="#font_5_15" transform="matrix(7.9701,0,0,-7.9701,177.7834,133.93067)"/>
<use data-text="2" xlink:href="#font_5_16" transform="matrix(7.9701,0,0,-7.9701,181.76845,133.93067)"/>
<use data-text="0" xlink:href="#font_5_23" transform="matrix(7.9701,0,0,-7.9701,185.7535,133.93067)"/>
<use data-text="8" xlink:href="#font_5_21" transform="matrix(7.9701,0,0,-7.9701,195.71611,133.93067)"/>
<use data-text="0" xlink:href="#font_5_23" transform="matrix(7.9701,0,0,-7.9701,199.70116,133.93067)"/>
<use data-text="6" xlink:href="#font_2_7" transform="matrix(7.9701,0,0,-7.9701,31.001999,143.39566)"/>
<use data-text="N" xlink:href="#font_3_2" transform="matrix(7.9701,0,0,-7.9701,35.234125,143.39566)"/>
<use data-text="6" xlink:href="#font_5_20" transform="matrix(7.9701,0,0,-7.9701,78.15312,143.39566)"/>
<use data-text="1" xlink:href="#font_5_15" transform="matrix(7.9701,0,0,-7.9701,92.100788,143.39566)"/>
<use data-text="2" xlink:href="#font_5_16" transform="matrix(7.9701,0,0,-7.9701,96.08583,143.39566)"/>
<use data-text="1" xlink:href="#font_5_15" transform="matrix(7.9701,0,0,-7.9701,110.03351,143.39566)"/>
<use data-text="8" xlink:href="#font_5_21" transform="matrix(7.9701,0,0,-7.9701,114.018558,143.39566)"/>
<use data-text="2" xlink:href="#font_5_16" transform="matrix(7.9701,0,0,-7.9701,127.96623,143.39566)"/>
<use data-text="4" xlink:href="#font_5_18" transform="matrix(7.9701,0,0,-7.9701,131.95128,143.39566)"/>
<use data-text="3" xlink:href="#font_5_17" transform="matrix(7.9701,0,0,-7.9701,145.89896,143.39566)"/>
<use data-text="0" xlink:href="#font_5_23" transform="matrix(7.9701,0,0,-7.9701,149.884,143.39566)"/>
<use data-text="4" xlink:href="#font_5_18" transform="matrix(7.9701,0,0,-7.9701,163.83168,143.39566)"/>
<use data-text="8" xlink:href="#font_5_21" transform="matrix(7.9701,0,0,-7.9701,167.81673,143.39566)"/>
<use data-text="6" xlink:href="#font_5_20" transform="matrix(7.9701,0,0,-7.9701,181.7644,143.39566)"/>
<use data-text="0" xlink:href="#font_5_23" transform="matrix(7.9701,0,0,-7.9701,185.74945,143.39566)"/>
<use data-text="9" xlink:href="#font_5_22" transform="matrix(7.9701,0,0,-7.9701,195.71207,143.39566)"/>
<use data-text="0" xlink:href="#font_5_23" transform="matrix(7.9701,0,0,-7.9701,199.69712,143.39566)"/>
</g>
</svg>
