#VRML V2.0 utf8
Shape { appearance Appearance { material Material { diffuseColor 0.100 0.100 0.110 specularColor 0.2 0.2 0.2 shininess 0.3 } }
 geometry IndexedFaceSet { solid TRUE coord Coordinate { point [ -0.9843 -0.5906 0.0000, 0.9843 -0.5906 0.0000, 0.9843 0.5906 0.0000, -0.9843 0.5906 0.0000, -0.9843 -0.5906 0.2362, 0.9843 -0.5906 0.2362, 0.9843 0.5906 0.2362, -0.9843 0.5906 0.2362 ] } coordIndex [ 0,3,2,1,-1, 4,5,6,7,-1, 0,1,5,4,-1, 1,2,6,5,-1, 2,3,7,6,-1, 3,0,4,7,-1 ] } }
Shape { appearance Appearance { material Material { diffuseColor 0.780 0.790 0.800 specularColor 0.2 0.2 0.2 shininess 0.3 } }
 geometry IndexedFaceSet { solid TRUE coord Coordinate { point [ -0.9449 -0.5512 0.2362, 0.9449 -0.5512 0.2362, 0.9449 0.5512 0.2362, -0.9449 0.5512 0.2362, -0.9449 -0.5512 0.2677, 0.9449 -0.5512 0.2677, 0.9449 0.5512 0.2677, -0.9449 0.5512 0.2677 ] } coordIndex [ 0,3,2,1,-1, 4,5,6,7,-1, 0,1,5,4,-1, 1,2,6,5,-1, 2,3,7,6,-1, 3,0,4,7,-1 ] } }
