ISO-10303-21;
HEADER;
FILE_DESCRIPTION(('HS_LAM4K5012_assembly'),'2;1');
FILE_NAME('HS_LAM4K5012_assembly.step','2026-10-09T00:00:00',('KTH'),('KTH'),'spb_fab','spb_fab','');
FILE_SCHEMA(('AUTOMOTIVE_DESIGN { 1 0 10303 214 1 1 1 1 }'));
ENDSEC;
DATA;
#1 = APPLICATION_CONTEXT('core data for automotive mechanical design processes');
#2 = APPLICATION_PROTOCOL_DEFINITION('international standard','automotive_design',2000,#1);
#3 = PRODUCT_CONTEXT('',#1,'mechanical');
#4 = PRODUCT('HS_LAM4K5012_assembly','HS_LAM4K5012_assembly','',(#3));
#5 = PRODUCT_RELATED_PRODUCT_CATEGORY('part',$,(#4));
#6 = PRODUCT_DEFINITION_FORMATION('','',#4);
#7 = PRODUCT_DEFINITION_CONTEXT('part definition',#1,'design');
#8 = PRODUCT_DEFINITION('design','',#6,#7);
#9 = PRODUCT_DEFINITION_SHAPE('','',#8);
#10 = ( LENGTH_UNIT() NAMED_UNIT(*) SI_UNIT(.MILLI.,.METRE.) );
#11 = ( NAMED_UNIT(*) PLANE_ANGLE_UNIT() SI_UNIT($,.RADIAN.) );
#12 = ( NAMED_UNIT(*) SI_UNIT($,.STERADIAN.) SOLID_ANGLE_UNIT() );
#13 = UNCERTAINTY_MEASURE_WITH_UNIT(LENGTH_MEASURE(1.E-07),#10,'distance_accuracy_value','confusion accuracy');
#14 = ( GEOMETRIC_REPRESENTATION_CONTEXT(3) GLOBAL_UNCERTAINTY_ASSIGNED_CONTEXT((#13)) GLOBAL_UNIT_ASSIGNED_CONTEXT((#10,#11,#12)) REPRESENTATION_CONTEXT('Context #1','3D Context') );
#15 = CARTESIAN_POINT('',(0.,0.,0.));
#16 = DIRECTION('',(0.,0.,1.));
#17 = DIRECTION('',(1.,0.,0.));
#18 = AXIS2_PLACEMENT_3D('',#15,#16,#17);
#19 = CARTESIAN_POINT('',(-13.500000,-6.000000,0.680000));
#20 = CARTESIAN_POINT('',(-5.500000,-6.000000,0.680000));
#21 = CARTESIAN_POINT('',(-5.500000,4.000000,0.680000));
#22 = CARTESIAN_POINT('',(-13.500000,4.000000,0.680000));
#23 = CARTESIAN_POINT('',(-13.500000,-6.000000,1.080000));
#24 = CARTESIAN_POINT('',(-5.500000,-6.000000,1.080000));
#25 = CARTESIAN_POINT('',(-5.500000,4.000000,1.080000));
#26 = CARTESIAN_POINT('',(-13.500000,4.000000,1.080000));
#27 = VERTEX_POINT('',#19);
#28 = VERTEX_POINT('',#20);
#29 = VERTEX_POINT('',#21);
#30 = VERTEX_POINT('',#22);
#31 = VERTEX_POINT('',#23);
#32 = VERTEX_POINT('',#24);
#33 = VERTEX_POINT('',#25);
#34 = VERTEX_POINT('',#26);
#35 = DIRECTION('',(0.000000,1.000000,0.000000));
#36 = VECTOR('',#35,10.000000);
#37 = LINE('',#19,#36);
#38 = EDGE_CURVE('',#27,#30,#37,.T.);
#39 = ORIENTED_EDGE('',*,*,#38,.T.);
#40 = DIRECTION('',(-1.000000,0.000000,0.000000));
#41 = VECTOR('',#40,8.000000);
#42 = LINE('',#21,#41);
#43 = EDGE_CURVE('',#29,#30,#42,.T.);
#44 = ORIENTED_EDGE('',*,*,#43,.F.);
#45 = DIRECTION('',(0.000000,1.000000,0.000000));
#46 = VECTOR('',#45,10.000000);
#47 = LINE('',#20,#46);
#48 = EDGE_CURVE('',#28,#29,#47,.T.);
#49 = ORIENTED_EDGE('',*,*,#48,.F.);
#50 = DIRECTION('',(1.000000,0.000000,0.000000));
#51 = VECTOR('',#50,8.000000);
#52 = LINE('',#19,#51);
#53 = EDGE_CURVE('',#27,#28,#52,.T.);
#54 = ORIENTED_EDGE('',*,*,#53,.F.);
#55 = EDGE_LOOP('',(#39,#44,#49,#54));
#56 = FACE_OUTER_BOUND('',#55,.T.);
#57 = DIRECTION('',(0.000000,0.000000,-1.000000));
#58 = DIRECTION('',(0.000000,1.000000,0.000000));
#59 = AXIS2_PLACEMENT_3D('',#19,#57,#58);
#60 = PLANE('',#59);
#61 = ADVANCED_FACE('',(#56),#60,.T.);
#62 = DIRECTION('',(1.000000,0.000000,0.000000));
#63 = VECTOR('',#62,8.000000);
#64 = LINE('',#23,#63);
#65 = EDGE_CURVE('',#31,#32,#64,.T.);
#66 = ORIENTED_EDGE('',*,*,#65,.T.);
#67 = DIRECTION('',(0.000000,1.000000,0.000000));
#68 = VECTOR('',#67,10.000000);
#69 = LINE('',#24,#68);
#70 = EDGE_CURVE('',#32,#33,#69,.T.);
#71 = ORIENTED_EDGE('',*,*,#70,.T.);
#72 = DIRECTION('',(-1.000000,0.000000,0.000000));
#73 = VECTOR('',#72,8.000000);
#74 = LINE('',#25,#73);
#75 = EDGE_CURVE('',#33,#34,#74,.T.);
#76 = ORIENTED_EDGE('',*,*,#75,.T.);
#77 = DIRECTION('',(0.000000,1.000000,0.000000));
#78 = VECTOR('',#77,10.000000);
#79 = LINE('',#23,#78);
#80 = EDGE_CURVE('',#31,#34,#79,.T.);
#81 = ORIENTED_EDGE('',*,*,#80,.F.);
#82 = EDGE_LOOP('',(#66,#71,#76,#81));
#83 = FACE_OUTER_BOUND('',#82,.T.);
#84 = DIRECTION('',(0.000000,0.000000,1.000000));
#85 = DIRECTION('',(1.000000,0.000000,0.000000));
#86 = AXIS2_PLACEMENT_3D('',#23,#84,#85);
#87 = PLANE('',#86);
#88 = ADVANCED_FACE('',(#83),#87,.T.);
#89 = ORIENTED_EDGE('',*,*,#53,.T.);
#90 = DIRECTION('',(0.000000,0.000000,1.000000));
#91 = VECTOR('',#90,0.400000);
#92 = LINE('',#20,#91);
#93 = EDGE_CURVE('',#28,#32,#92,.T.);
#94 = ORIENTED_EDGE('',*,*,#93,.T.);
#95 = ORIENTED_EDGE('',*,*,#65,.F.);
#96 = DIRECTION('',(0.000000,0.000000,1.000000));
#97 = VECTOR('',#96,0.400000);
#98 = LINE('',#19,#97);
#99 = EDGE_CURVE('',#27,#31,#98,.T.);
#100 = ORIENTED_EDGE('',*,*,#99,.F.);
#101 = EDGE_LOOP('',(#89,#94,#95,#100));
#102 = FACE_OUTER_BOUND('',#101,.T.);
#103 = DIRECTION('',(0.000000,-1.000000,0.000000));
#104 = DIRECTION('',(1.000000,0.000000,0.000000));
#105 = AXIS2_PLACEMENT_3D('',#19,#103,#104);
#106 = PLANE('',#105);
#107 = ADVANCED_FACE('',(#102),#106,.T.);
#108 = ORIENTED_EDGE('',*,*,#48,.T.);
#109 = DIRECTION('',(0.000000,0.000000,1.000000));
#110 = VECTOR('',#109,0.400000);
#111 = LINE('',#21,#110);
#112 = EDGE_CURVE('',#29,#33,#111,.T.);
#113 = ORIENTED_EDGE('',*,*,#112,.T.);
#114 = ORIENTED_EDGE('',*,*,#70,.F.);
#115 = ORIENTED_EDGE('',*,*,#93,.F.);
#116 = EDGE_LOOP('',(#108,#113,#114,#115));
#117 = FACE_OUTER_BOUND('',#116,.T.);
#118 = DIRECTION('',(1.000000,0.000000,0.000000));
#119 = DIRECTION('',(0.000000,1.000000,0.000000));
#120 = AXIS2_PLACEMENT_3D('',#20,#118,#119);
#121 = PLANE('',#120);
#122 = ADVANCED_FACE('',(#117),#121,.T.);
#123 = ORIENTED_EDGE('',*,*,#43,.T.);
#124 = DIRECTION('',(0.000000,0.000000,1.000000));
#125 = VECTOR('',#124,0.400000);
#126 = LINE('',#22,#125);
#127 = EDGE_CURVE('',#30,#34,#126,.T.);
#128 = ORIENTED_EDGE('',*,*,#127,.T.);
#129 = ORIENTED_EDGE('',*,*,#75,.F.);
#130 = ORIENTED_EDGE('',*,*,#112,.F.);
#131 = EDGE_LOOP('',(#123,#128,#129,#130));
#132 = FACE_OUTER_BOUND('',#131,.T.);
#133 = DIRECTION('',(0.000000,1.000000,0.000000));
#134 = DIRECTION('',(-1.000000,0.000000,0.000000));
#135 = AXIS2_PLACEMENT_3D('',#21,#133,#134);
#136 = PLANE('',#135);
#137 = ADVANCED_FACE('',(#132),#136,.T.);
#138 = ORIENTED_EDGE('',*,*,#38,.F.);
#139 = ORIENTED_EDGE('',*,*,#99,.T.);
#140 = ORIENTED_EDGE('',*,*,#80,.T.);
#141 = ORIENTED_EDGE('',*,*,#127,.F.);
#142 = EDGE_LOOP('',(#138,#139,#140,#141));
#143 = FACE_OUTER_BOUND('',#142,.T.);
#144 = DIRECTION('',(-1.000000,0.000000,0.000000));
#145 = DIRECTION('',(0.000000,-1.000000,0.000000));
#146 = AXIS2_PLACEMENT_3D('',#22,#144,#145);
#147 = PLANE('',#146);
#148 = ADVANCED_FACE('',(#143),#147,.T.);
#149 = CLOSED_SHELL('',(#61,#88,#107,#122,#137,#148));
#150 = MANIFOLD_SOLID_BREP('HS_LAM4K5012_assembly_0',#149);
#151 = COLOUR_RGB('',0.550000,0.620000,0.700000);
#152 = FILL_AREA_STYLE_COLOUR('',#151);
#153 = FILL_AREA_STYLE('',(#152));
#154 = SURFACE_STYLE_FILL_AREA(#153);
#155 = SURFACE_SIDE_STYLE('',(#154));
#156 = SURFACE_STYLE_USAGE(.BOTH.,#155);
#157 = PRESENTATION_STYLE_ASSIGNMENT((#156));
#158 = STYLED_ITEM('color',(#157),#150);
#159 = CARTESIAN_POINT('',(5.500000,-6.000000,0.680000));
#160 = CARTESIAN_POINT('',(13.500000,-6.000000,0.680000));
#161 = CARTESIAN_POINT('',(13.500000,4.000000,0.680000));
#162 = CARTESIAN_POINT('',(5.500000,4.000000,0.680000));
#163 = CARTESIAN_POINT('',(5.500000,-6.000000,1.080000));
#164 = CARTESIAN_POINT('',(13.500000,-6.000000,1.080000));
#165 = CARTESIAN_POINT('',(13.500000,4.000000,1.080000));
#166 = CARTESIAN_POINT('',(5.500000,4.000000,1.080000));
#167 = VERTEX_POINT('',#159);
#168 = VERTEX_POINT('',#160);
#169 = VERTEX_POINT('',#161);
#170 = VERTEX_POINT('',#162);
#171 = VERTEX_POINT('',#163);
#172 = VERTEX_POINT('',#164);
#173 = VERTEX_POINT('',#165);
#174 = VERTEX_POINT('',#166);
#175 = DIRECTION('',(0.000000,1.000000,0.000000));
#176 = VECTOR('',#175,10.000000);
#177 = LINE('',#159,#176);
#178 = EDGE_CURVE('',#167,#170,#177,.T.);
#179 = ORIENTED_EDGE('',*,*,#178,.T.);
#180 = DIRECTION('',(-1.000000,0.000000,0.000000));
#181 = VECTOR('',#180,8.000000);
#182 = LINE('',#161,#181);
#183 = EDGE_CURVE('',#169,#170,#182,.T.);
#184 = ORIENTED_EDGE('',*,*,#183,.F.);
#185 = DIRECTION('',(0.000000,1.000000,0.000000));
#186 = VECTOR('',#185,10.000000);
#187 = LINE('',#160,#186);
#188 = EDGE_CURVE('',#168,#169,#187,.T.);
#189 = ORIENTED_EDGE('',*,*,#188,.F.);
#190 = DIRECTION('',(1.000000,0.000000,0.000000));
#191 = VECTOR('',#190,8.000000);
#192 = LINE('',#159,#191);
#193 = EDGE_CURVE('',#167,#168,#192,.T.);
#194 = ORIENTED_EDGE('',*,*,#193,.F.);
#195 = EDGE_LOOP('',(#179,#184,#189,#194));
#196 = FACE_OUTER_BOUND('',#195,.T.);
#197 = DIRECTION('',(0.000000,0.000000,-1.000000));
#198 = DIRECTION('',(0.000000,1.000000,0.000000));
#199 = AXIS2_PLACEMENT_3D('',#159,#197,#198);
#200 = PLANE('',#199);
#201 = ADVANCED_FACE('',(#196),#200,.T.);
#202 = DIRECTION('',(1.000000,0.000000,0.000000));
#203 = VECTOR('',#202,8.000000);
#204 = LINE('',#163,#203);
#205 = EDGE_CURVE('',#171,#172,#204,.T.);
#206 = ORIENTED_EDGE('',*,*,#205,.T.);
#207 = DIRECTION('',(0.000000,1.000000,0.000000));
#208 = VECTOR('',#207,10.000000);
#209 = LINE('',#164,#208);
#210 = EDGE_CURVE('',#172,#173,#209,.T.);
#211 = ORIENTED_EDGE('',*,*,#210,.T.);
#212 = DIRECTION('',(-1.000000,0.000000,0.000000));
#213 = VECTOR('',#212,8.000000);
#214 = LINE('',#165,#213);
#215 = EDGE_CURVE('',#173,#174,#214,.T.);
#216 = ORIENTED_EDGE('',*,*,#215,.T.);
#217 = DIRECTION('',(0.000000,1.000000,0.000000));
#218 = VECTOR('',#217,10.000000);
#219 = LINE('',#163,#218);
#220 = EDGE_CURVE('',#171,#174,#219,.T.);
#221 = ORIENTED_EDGE('',*,*,#220,.F.);
#222 = EDGE_LOOP('',(#206,#211,#216,#221));
#223 = FACE_OUTER_BOUND('',#222,.T.);
#224 = DIRECTION('',(0.000000,0.000000,1.000000));
#225 = DIRECTION('',(1.000000,0.000000,0.000000));
#226 = AXIS2_PLACEMENT_3D('',#163,#224,#225);
#227 = PLANE('',#226);
#228 = ADVANCED_FACE('',(#223),#227,.T.);
#229 = ORIENTED_EDGE('',*,*,#193,.T.);
#230 = DIRECTION('',(0.000000,0.000000,1.000000));
#231 = VECTOR('',#230,0.400000);
#232 = LINE('',#160,#231);
#233 = EDGE_CURVE('',#168,#172,#232,.T.);
#234 = ORIENTED_EDGE('',*,*,#233,.T.);
#235 = ORIENTED_EDGE('',*,*,#205,.F.);
#236 = DIRECTION('',(0.000000,0.000000,1.000000));
#237 = VECTOR('',#236,0.400000);
#238 = LINE('',#159,#237);
#239 = EDGE_CURVE('',#167,#171,#238,.T.);
#240 = ORIENTED_EDGE('',*,*,#239,.F.);
#241 = EDGE_LOOP('',(#229,#234,#235,#240));
#242 = FACE_OUTER_BOUND('',#241,.T.);
#243 = DIRECTION('',(0.000000,-1.000000,0.000000));
#244 = DIRECTION('',(1.000000,0.000000,0.000000));
#245 = AXIS2_PLACEMENT_3D('',#159,#243,#244);
#246 = PLANE('',#245);
#247 = ADVANCED_FACE('',(#242),#246,.T.);
#248 = ORIENTED_EDGE('',*,*,#188,.T.);
#249 = DIRECTION('',(0.000000,0.000000,1.000000));
#250 = VECTOR('',#249,0.400000);
#251 = LINE('',#161,#250);
#252 = EDGE_CURVE('',#169,#173,#251,.T.);
#253 = ORIENTED_EDGE('',*,*,#252,.T.);
#254 = ORIENTED_EDGE('',*,*,#210,.F.);
#255 = ORIENTED_EDGE('',*,*,#233,.F.);
#256 = EDGE_LOOP('',(#248,#253,#254,#255));
#257 = FACE_OUTER_BOUND('',#256,.T.);
#258 = DIRECTION('',(1.000000,0.000000,0.000000));
#259 = DIRECTION('',(0.000000,1.000000,0.000000));
#260 = AXIS2_PLACEMENT_3D('',#160,#258,#259);
#261 = PLANE('',#260);
#262 = ADVANCED_FACE('',(#257),#261,.T.);
#263 = ORIENTED_EDGE('',*,*,#183,.T.);
#264 = DIRECTION('',(0.000000,0.000000,1.000000));
#265 = VECTOR('',#264,0.400000);
#266 = LINE('',#162,#265);
#267 = EDGE_CURVE('',#170,#174,#266,.T.);
#268 = ORIENTED_EDGE('',*,*,#267,.T.);
#269 = ORIENTED_EDGE('',*,*,#215,.F.);
#270 = ORIENTED_EDGE('',*,*,#252,.F.);
#271 = EDGE_LOOP('',(#263,#268,#269,#270));
#272 = FACE_OUTER_BOUND('',#271,.T.);
#273 = DIRECTION('',(0.000000,1.000000,0.000000));
#274 = DIRECTION('',(-1.000000,0.000000,0.000000));
#275 = AXIS2_PLACEMENT_3D('',#161,#273,#274);
#276 = PLANE('',#275);
#277 = ADVANCED_FACE('',(#272),#276,.T.);
#278 = ORIENTED_EDGE('',*,*,#178,.F.);
#279 = ORIENTED_EDGE('',*,*,#239,.T.);
#280 = ORIENTED_EDGE('',*,*,#220,.T.);
#281 = ORIENTED_EDGE('',*,*,#267,.F.);
#282 = EDGE_LOOP('',(#278,#279,#280,#281));
#283 = FACE_OUTER_BOUND('',#282,.T.);
#284 = DIRECTION('',(-1.000000,0.000000,0.000000));
#285 = DIRECTION('',(0.000000,-1.000000,0.000000));
#286 = AXIS2_PLACEMENT_3D('',#162,#284,#285);
#287 = PLANE('',#286);
#288 = ADVANCED_FACE('',(#283),#287,.T.);
#289 = CLOSED_SHELL('',(#201,#228,#247,#262,#277,#288));
#290 = MANIFOLD_SOLID_BREP('HS_LAM4K5012_assembly_1',#289);
#291 = COLOUR_RGB('',0.550000,0.620000,0.700000);
#292 = FILL_AREA_STYLE_COLOUR('',#291);
#293 = FILL_AREA_STYLE('',(#292));
#294 = SURFACE_STYLE_FILL_AREA(#293);
#295 = SURFACE_SIDE_STYLE('',(#294));
#296 = SURFACE_STYLE_USAGE(.BOTH.,#295);
#297 = PRESENTATION_STYLE_ASSIGNMENT((#296));
#298 = STYLED_ITEM('color',(#297),#290);
#299 = CARTESIAN_POINT('',(-13.500000,-6.000000,1.080000));
#300 = CARTESIAN_POINT('',(-5.500000,-6.000000,1.080000));
#301 = CARTESIAN_POINT('',(-5.500000,4.000000,1.080000));
#302 = CARTESIAN_POINT('',(-13.500000,4.000000,1.080000));
#303 = CARTESIAN_POINT('',(-13.500000,-6.000000,1.680000));
#304 = CARTESIAN_POINT('',(-5.500000,-6.000000,1.680000));
#305 = CARTESIAN_POINT('',(-5.500000,4.000000,1.680000));
#306 = CARTESIAN_POINT('',(-13.500000,4.000000,1.680000));
#307 = VERTEX_POINT('',#299);
#308 = VERTEX_POINT('',#300);
#309 = VERTEX_POINT('',#301);
#310 = VERTEX_POINT('',#302);
#311 = VERTEX_POINT('',#303);
#312 = VERTEX_POINT('',#304);
#313 = VERTEX_POINT('',#305);
#314 = VERTEX_POINT('',#306);
#315 = DIRECTION('',(0.000000,1.000000,0.000000));
#316 = VECTOR('',#315,10.000000);
#317 = LINE('',#299,#316);
#318 = EDGE_CURVE('',#307,#310,#317,.T.);
#319 = ORIENTED_EDGE('',*,*,#318,.T.);
#320 = DIRECTION('',(-1.000000,0.000000,0.000000));
#321 = VECTOR('',#320,8.000000);
#322 = LINE('',#301,#321);
#323 = EDGE_CURVE('',#309,#310,#322,.T.);
#324 = ORIENTED_EDGE('',*,*,#323,.F.);
#325 = DIRECTION('',(0.000000,1.000000,0.000000));
#326 = VECTOR('',#325,10.000000);
#327 = LINE('',#300,#326);
#328 = EDGE_CURVE('',#308,#309,#327,.T.);
#329 = ORIENTED_EDGE('',*,*,#328,.F.);
#330 = DIRECTION('',(1.000000,0.000000,0.000000));
#331 = VECTOR('',#330,8.000000);
#332 = LINE('',#299,#331);
#333 = EDGE_CURVE('',#307,#308,#332,.T.);
#334 = ORIENTED_EDGE('',*,*,#333,.F.);
#335 = EDGE_LOOP('',(#319,#324,#329,#334));
#336 = FACE_OUTER_BOUND('',#335,.T.);
#337 = DIRECTION('',(0.000000,0.000000,-1.000000));
#338 = DIRECTION('',(0.000000,1.000000,0.000000));
#339 = AXIS2_PLACEMENT_3D('',#299,#337,#338);
#340 = PLANE('',#339);
#341 = ADVANCED_FACE('',(#336),#340,.T.);
#342 = DIRECTION('',(1.000000,0.000000,0.000000));
#343 = VECTOR('',#342,8.000000);
#344 = LINE('',#303,#343);
#345 = EDGE_CURVE('',#311,#312,#344,.T.);
#346 = ORIENTED_EDGE('',*,*,#345,.T.);
#347 = DIRECTION('',(0.000000,1.000000,0.000000));
#348 = VECTOR('',#347,10.000000);
#349 = LINE('',#304,#348);
#350 = EDGE_CURVE('',#312,#313,#349,.T.);
#351 = ORIENTED_EDGE('',*,*,#350,.T.);
#352 = DIRECTION('',(-1.000000,0.000000,0.000000));
#353 = VECTOR('',#352,8.000000);
#354 = LINE('',#305,#353);
#355 = EDGE_CURVE('',#313,#314,#354,.T.);
#356 = ORIENTED_EDGE('',*,*,#355,.T.);
#357 = DIRECTION('',(0.000000,1.000000,0.000000));
#358 = VECTOR('',#357,10.000000);
#359 = LINE('',#303,#358);
#360 = EDGE_CURVE('',#311,#314,#359,.T.);
#361 = ORIENTED_EDGE('',*,*,#360,.F.);
#362 = EDGE_LOOP('',(#346,#351,#356,#361));
#363 = FACE_OUTER_BOUND('',#362,.T.);
#364 = DIRECTION('',(0.000000,0.000000,1.000000));
#365 = DIRECTION('',(1.000000,0.000000,0.000000));
#366 = AXIS2_PLACEMENT_3D('',#303,#364,#365);
#367 = PLANE('',#366);
#368 = ADVANCED_FACE('',(#363),#367,.T.);
#369 = ORIENTED_EDGE('',*,*,#333,.T.);
#370 = DIRECTION('',(0.000000,0.000000,1.000000));
#371 = VECTOR('',#370,0.600000);
#372 = LINE('',#300,#371);
#373 = EDGE_CURVE('',#308,#312,#372,.T.);
#374 = ORIENTED_EDGE('',*,*,#373,.T.);
#375 = ORIENTED_EDGE('',*,*,#345,.F.);
#376 = DIRECTION('',(0.000000,0.000000,1.000000));
#377 = VECTOR('',#376,0.600000);
#378 = LINE('',#299,#377);
#379 = EDGE_CURVE('',#307,#311,#378,.T.);
#380 = ORIENTED_EDGE('',*,*,#379,.F.);
#381 = EDGE_LOOP('',(#369,#374,#375,#380));
#382 = FACE_OUTER_BOUND('',#381,.T.);
#383 = DIRECTION('',(0.000000,-1.000000,0.000000));
#384 = DIRECTION('',(1.000000,0.000000,0.000000));
#385 = AXIS2_PLACEMENT_3D('',#299,#383,#384);
#386 = PLANE('',#385);
#387 = ADVANCED_FACE('',(#382),#386,.T.);
#388 = ORIENTED_EDGE('',*,*,#328,.T.);
#389 = DIRECTION('',(0.000000,0.000000,1.000000));
#390 = VECTOR('',#389,0.600000);
#391 = LINE('',#301,#390);
#392 = EDGE_CURVE('',#309,#313,#391,.T.);
#393 = ORIENTED_EDGE('',*,*,#392,.T.);
#394 = ORIENTED_EDGE('',*,*,#350,.F.);
#395 = ORIENTED_EDGE('',*,*,#373,.F.);
#396 = EDGE_LOOP('',(#388,#393,#394,#395));
#397 = FACE_OUTER_BOUND('',#396,.T.);
#398 = DIRECTION('',(1.000000,0.000000,0.000000));
#399 = DIRECTION('',(0.000000,1.000000,0.000000));
#400 = AXIS2_PLACEMENT_3D('',#300,#398,#399);
#401 = PLANE('',#400);
#402 = ADVANCED_FACE('',(#397),#401,.T.);
#403 = ORIENTED_EDGE('',*,*,#323,.T.);
#404 = DIRECTION('',(0.000000,0.000000,1.000000));
#405 = VECTOR('',#404,0.600000);
#406 = LINE('',#302,#405);
#407 = EDGE_CURVE('',#310,#314,#406,.T.);
#408 = ORIENTED_EDGE('',*,*,#407,.T.);
#409 = ORIENTED_EDGE('',*,*,#355,.F.);
#410 = ORIENTED_EDGE('',*,*,#392,.F.);
#411 = EDGE_LOOP('',(#403,#408,#409,#410));
#412 = FACE_OUTER_BOUND('',#411,.T.);
#413 = DIRECTION('',(0.000000,1.000000,0.000000));
#414 = DIRECTION('',(-1.000000,0.000000,0.000000));
#415 = AXIS2_PLACEMENT_3D('',#301,#413,#414);
#416 = PLANE('',#415);
#417 = ADVANCED_FACE('',(#412),#416,.T.);
#418 = ORIENTED_EDGE('',*,*,#318,.F.);
#419 = ORIENTED_EDGE('',*,*,#379,.T.);
#420 = ORIENTED_EDGE('',*,*,#360,.T.);
#421 = ORIENTED_EDGE('',*,*,#407,.F.);
#422 = EDGE_LOOP('',(#418,#419,#420,#421));
#423 = FACE_OUTER_BOUND('',#422,.T.);
#424 = DIRECTION('',(-1.000000,0.000000,0.000000));
#425 = DIRECTION('',(0.000000,-1.000000,0.000000));
#426 = AXIS2_PLACEMENT_3D('',#302,#424,#425);
#427 = PLANE('',#426);
#428 = ADVANCED_FACE('',(#423),#427,.T.);
#429 = CLOSED_SHELL('',(#341,#368,#387,#402,#417,#428));
#430 = MANIFOLD_SOLID_BREP('HS_LAM4K5012_assembly_2',#429);
#431 = COLOUR_RGB('',0.800000,0.820000,0.850000);
#432 = FILL_AREA_STYLE_COLOUR('',#431);
#433 = FILL_AREA_STYLE('',(#432));
#434 = SURFACE_STYLE_FILL_AREA(#433);
#435 = SURFACE_SIDE_STYLE('',(#434));
#436 = SURFACE_STYLE_USAGE(.BOTH.,#435);
#437 = PRESENTATION_STYLE_ASSIGNMENT((#436));
#438 = STYLED_ITEM('color',(#437),#430);
#439 = CARTESIAN_POINT('',(5.500000,-6.000000,1.080000));
#440 = CARTESIAN_POINT('',(13.500000,-6.000000,1.080000));
#441 = CARTESIAN_POINT('',(13.500000,4.000000,1.080000));
#442 = CARTESIAN_POINT('',(5.500000,4.000000,1.080000));
#443 = CARTESIAN_POINT('',(5.500000,-6.000000,1.680000));
#444 = CARTESIAN_POINT('',(13.500000,-6.000000,1.680000));
#445 = CARTESIAN_POINT('',(13.500000,4.000000,1.680000));
#446 = CARTESIAN_POINT('',(5.500000,4.000000,1.680000));
#447 = VERTEX_POINT('',#439);
#448 = VERTEX_POINT('',#440);
#449 = VERTEX_POINT('',#441);
#450 = VERTEX_POINT('',#442);
#451 = VERTEX_POINT('',#443);
#452 = VERTEX_POINT('',#444);
#453 = VERTEX_POINT('',#445);
#454 = VERTEX_POINT('',#446);
#455 = DIRECTION('',(0.000000,1.000000,0.000000));
#456 = VECTOR('',#455,10.000000);
#457 = LINE('',#439,#456);
#458 = EDGE_CURVE('',#447,#450,#457,.T.);
#459 = ORIENTED_EDGE('',*,*,#458,.T.);
#460 = DIRECTION('',(-1.000000,0.000000,0.000000));
#461 = VECTOR('',#460,8.000000);
#462 = LINE('',#441,#461);
#463 = EDGE_CURVE('',#449,#450,#462,.T.);
#464 = ORIENTED_EDGE('',*,*,#463,.F.);
#465 = DIRECTION('',(0.000000,1.000000,0.000000));
#466 = VECTOR('',#465,10.000000);
#467 = LINE('',#440,#466);
#468 = EDGE_CURVE('',#448,#449,#467,.T.);
#469 = ORIENTED_EDGE('',*,*,#468,.F.);
#470 = DIRECTION('',(1.000000,0.000000,0.000000));
#471 = VECTOR('',#470,8.000000);
#472 = LINE('',#439,#471);
#473 = EDGE_CURVE('',#447,#448,#472,.T.);
#474 = ORIENTED_EDGE('',*,*,#473,.F.);
#475 = EDGE_LOOP('',(#459,#464,#469,#474));
#476 = FACE_OUTER_BOUND('',#475,.T.);
#477 = DIRECTION('',(0.000000,0.000000,-1.000000));
#478 = DIRECTION('',(0.000000,1.000000,0.000000));
#479 = AXIS2_PLACEMENT_3D('',#439,#477,#478);
#480 = PLANE('',#479);
#481 = ADVANCED_FACE('',(#476),#480,.T.);
#482 = DIRECTION('',(1.000000,0.000000,0.000000));
#483 = VECTOR('',#482,8.000000);
#484 = LINE('',#443,#483);
#485 = EDGE_CURVE('',#451,#452,#484,.T.);
#486 = ORIENTED_EDGE('',*,*,#485,.T.);
#487 = DIRECTION('',(0.000000,1.000000,0.000000));
#488 = VECTOR('',#487,10.000000);
#489 = LINE('',#444,#488);
#490 = EDGE_CURVE('',#452,#453,#489,.T.);
#491 = ORIENTED_EDGE('',*,*,#490,.T.);
#492 = DIRECTION('',(-1.000000,0.000000,0.000000));
#493 = VECTOR('',#492,8.000000);
#494 = LINE('',#445,#493);
#495 = EDGE_CURVE('',#453,#454,#494,.T.);
#496 = ORIENTED_EDGE('',*,*,#495,.T.);
#497 = DIRECTION('',(0.000000,1.000000,0.000000));
#498 = VECTOR('',#497,10.000000);
#499 = LINE('',#443,#498);
#500 = EDGE_CURVE('',#451,#454,#499,.T.);
#501 = ORIENTED_EDGE('',*,*,#500,.F.);
#502 = EDGE_LOOP('',(#486,#491,#496,#501));
#503 = FACE_OUTER_BOUND('',#502,.T.);
#504 = DIRECTION('',(0.000000,0.000000,1.000000));
#505 = DIRECTION('',(1.000000,0.000000,0.000000));
#506 = AXIS2_PLACEMENT_3D('',#443,#504,#505);
#507 = PLANE('',#506);
#508 = ADVANCED_FACE('',(#503),#507,.T.);
#509 = ORIENTED_EDGE('',*,*,#473,.T.);
#510 = DIRECTION('',(0.000000,0.000000,1.000000));
#511 = VECTOR('',#510,0.600000);
#512 = LINE('',#440,#511);
#513 = EDGE_CURVE('',#448,#452,#512,.T.);
#514 = ORIENTED_EDGE('',*,*,#513,.T.);
#515 = ORIENTED_EDGE('',*,*,#485,.F.);
#516 = DIRECTION('',(0.000000,0.000000,1.000000));
#517 = VECTOR('',#516,0.600000);
#518 = LINE('',#439,#517);
#519 = EDGE_CURVE('',#447,#451,#518,.T.);
#520 = ORIENTED_EDGE('',*,*,#519,.F.);
#521 = EDGE_LOOP('',(#509,#514,#515,#520));
#522 = FACE_OUTER_BOUND('',#521,.T.);
#523 = DIRECTION('',(0.000000,-1.000000,0.000000));
#524 = DIRECTION('',(1.000000,0.000000,0.000000));
#525 = AXIS2_PLACEMENT_3D('',#439,#523,#524);
#526 = PLANE('',#525);
#527 = ADVANCED_FACE('',(#522),#526,.T.);
#528 = ORIENTED_EDGE('',*,*,#468,.T.);
#529 = DIRECTION('',(0.000000,0.000000,1.000000));
#530 = VECTOR('',#529,0.600000);
#531 = LINE('',#441,#530);
#532 = EDGE_CURVE('',#449,#453,#531,.T.);
#533 = ORIENTED_EDGE('',*,*,#532,.T.);
#534 = ORIENTED_EDGE('',*,*,#490,.F.);
#535 = ORIENTED_EDGE('',*,*,#513,.F.);
#536 = EDGE_LOOP('',(#528,#533,#534,#535));
#537 = FACE_OUTER_BOUND('',#536,.T.);
#538 = DIRECTION('',(1.000000,0.000000,0.000000));
#539 = DIRECTION('',(0.000000,1.000000,0.000000));
#540 = AXIS2_PLACEMENT_3D('',#440,#538,#539);
#541 = PLANE('',#540);
#542 = ADVANCED_FACE('',(#537),#541,.T.);
#543 = ORIENTED_EDGE('',*,*,#463,.T.);
#544 = DIRECTION('',(0.000000,0.000000,1.000000));
#545 = VECTOR('',#544,0.600000);
#546 = LINE('',#442,#545);
#547 = EDGE_CURVE('',#450,#454,#546,.T.);
#548 = ORIENTED_EDGE('',*,*,#547,.T.);
#549 = ORIENTED_EDGE('',*,*,#495,.F.);
#550 = ORIENTED_EDGE('',*,*,#532,.F.);
#551 = EDGE_LOOP('',(#543,#548,#549,#550));
#552 = FACE_OUTER_BOUND('',#551,.T.);
#553 = DIRECTION('',(0.000000,1.000000,0.000000));
#554 = DIRECTION('',(-1.000000,0.000000,0.000000));
#555 = AXIS2_PLACEMENT_3D('',#441,#553,#554);
#556 = PLANE('',#555);
#557 = ADVANCED_FACE('',(#552),#556,.T.);
#558 = ORIENTED_EDGE('',*,*,#458,.F.);
#559 = ORIENTED_EDGE('',*,*,#519,.T.);
#560 = ORIENTED_EDGE('',*,*,#500,.T.);
#561 = ORIENTED_EDGE('',*,*,#547,.F.);
#562 = EDGE_LOOP('',(#558,#559,#560,#561));
#563 = FACE_OUTER_BOUND('',#562,.T.);
#564 = DIRECTION('',(-1.000000,0.000000,0.000000));
#565 = DIRECTION('',(0.000000,-1.000000,0.000000));
#566 = AXIS2_PLACEMENT_3D('',#442,#564,#565);
#567 = PLANE('',#566);
#568 = ADVANCED_FACE('',(#563),#567,.T.);
#569 = CLOSED_SHELL('',(#481,#508,#527,#542,#557,#568));
#570 = MANIFOLD_SOLID_BREP('HS_LAM4K5012_assembly_3',#569);
#571 = COLOUR_RGB('',0.800000,0.820000,0.850000);
#572 = FILL_AREA_STYLE_COLOUR('',#571);
#573 = FILL_AREA_STYLE('',(#572));
#574 = SURFACE_STYLE_FILL_AREA(#573);
#575 = SURFACE_SIDE_STYLE('',(#574));
#576 = SURFACE_STYLE_USAGE(.BOTH.,#575);
#577 = PRESENTATION_STYLE_ASSIGNMENT((#576));
#578 = STYLED_ITEM('color',(#577),#570);
#579 = CARTESIAN_POINT('',(-21.000000,-6.950000,1.680000));
#580 = CARTESIAN_POINT('',(21.000000,-6.950000,1.680000));
#581 = CARTESIAN_POINT('',(21.000000,6.950000,1.680000));
#582 = CARTESIAN_POINT('',(-21.000000,6.950000,1.680000));
#583 = CARTESIAN_POINT('',(-21.000000,-6.950000,4.680000));
#584 = CARTESIAN_POINT('',(21.000000,-6.950000,4.680000));
#585 = CARTESIAN_POINT('',(21.000000,6.950000,4.680000));
#586 = CARTESIAN_POINT('',(-21.000000,6.950000,4.680000));
#587 = VERTEX_POINT('',#579);
#588 = VERTEX_POINT('',#580);
#589 = VERTEX_POINT('',#581);
#590 = VERTEX_POINT('',#582);
#591 = VERTEX_POINT('',#583);
#592 = VERTEX_POINT('',#584);
#593 = VERTEX_POINT('',#585);
#594 = VERTEX_POINT('',#586);
#595 = DIRECTION('',(0.000000,1.000000,0.000000));
#596 = VECTOR('',#595,13.900000);
#597 = LINE('',#579,#596);
#598 = EDGE_CURVE('',#587,#590,#597,.T.);
#599 = ORIENTED_EDGE('',*,*,#598,.T.);
#600 = DIRECTION('',(-1.000000,0.000000,0.000000));
#601 = VECTOR('',#600,42.000000);
#602 = LINE('',#581,#601);
#603 = EDGE_CURVE('',#589,#590,#602,.T.);
#604 = ORIENTED_EDGE('',*,*,#603,.F.);
#605 = DIRECTION('',(0.000000,1.000000,0.000000));
#606 = VECTOR('',#605,13.900000);
#607 = LINE('',#580,#606);
#608 = EDGE_CURVE('',#588,#589,#607,.T.);
#609 = ORIENTED_EDGE('',*,*,#608,.F.);
#610 = DIRECTION('',(1.000000,0.000000,0.000000));
#611 = VECTOR('',#610,42.000000);
#612 = LINE('',#579,#611);
#613 = EDGE_CURVE('',#587,#588,#612,.T.);
#614 = ORIENTED_EDGE('',*,*,#613,.F.);
#615 = EDGE_LOOP('',(#599,#604,#609,#614));
#616 = FACE_OUTER_BOUND('',#615,.T.);
#617 = DIRECTION('',(0.000000,0.000000,-1.000000));
#618 = DIRECTION('',(0.000000,1.000000,0.000000));
#619 = AXIS2_PLACEMENT_3D('',#579,#617,#618);
#620 = PLANE('',#619);
#621 = ADVANCED_FACE('',(#616),#620,.T.);
#622 = DIRECTION('',(1.000000,0.000000,0.000000));
#623 = VECTOR('',#622,42.000000);
#624 = LINE('',#583,#623);
#625 = EDGE_CURVE('',#591,#592,#624,.T.);
#626 = ORIENTED_EDGE('',*,*,#625,.T.);
#627 = DIRECTION('',(0.000000,1.000000,0.000000));
#628 = VECTOR('',#627,13.900000);
#629 = LINE('',#584,#628);
#630 = EDGE_CURVE('',#592,#593,#629,.T.);
#631 = ORIENTED_EDGE('',*,*,#630,.T.);
#632 = DIRECTION('',(-1.000000,0.000000,0.000000));
#633 = VECTOR('',#632,42.000000);
#634 = LINE('',#585,#633);
#635 = EDGE_CURVE('',#593,#594,#634,.T.);
#636 = ORIENTED_EDGE('',*,*,#635,.T.);
#637 = DIRECTION('',(0.000000,1.000000,0.000000));
#638 = VECTOR('',#637,13.900000);
#639 = LINE('',#583,#638);
#640 = EDGE_CURVE('',#591,#594,#639,.T.);
#641 = ORIENTED_EDGE('',*,*,#640,.F.);
#642 = EDGE_LOOP('',(#626,#631,#636,#641));
#643 = FACE_OUTER_BOUND('',#642,.T.);
#644 = DIRECTION('',(0.000000,0.000000,1.000000));
#645 = DIRECTION('',(1.000000,0.000000,0.000000));
#646 = AXIS2_PLACEMENT_3D('',#583,#644,#645);
#647 = PLANE('',#646);
#648 = ADVANCED_FACE('',(#643),#647,.T.);
#649 = ORIENTED_EDGE('',*,*,#613,.T.);
#650 = DIRECTION('',(0.000000,0.000000,1.000000));
#651 = VECTOR('',#650,3.000000);
#652 = LINE('',#580,#651);
#653 = EDGE_CURVE('',#588,#592,#652,.T.);
#654 = ORIENTED_EDGE('',*,*,#653,.T.);
#655 = ORIENTED_EDGE('',*,*,#625,.F.);
#656 = DIRECTION('',(0.000000,0.000000,1.000000));
#657 = VECTOR('',#656,3.000000);
#658 = LINE('',#579,#657);
#659 = EDGE_CURVE('',#587,#591,#658,.T.);
#660 = ORIENTED_EDGE('',*,*,#659,.F.);
#661 = EDGE_LOOP('',(#649,#654,#655,#660));
#662 = FACE_OUTER_BOUND('',#661,.T.);
#663 = DIRECTION('',(0.000000,-1.000000,0.000000));
#664 = DIRECTION('',(1.000000,0.000000,0.000000));
#665 = AXIS2_PLACEMENT_3D('',#579,#663,#664);
#666 = PLANE('',#665);
#667 = ADVANCED_FACE('',(#662),#666,.T.);
#668 = ORIENTED_EDGE('',*,*,#608,.T.);
#669 = DIRECTION('',(0.000000,0.000000,1.000000));
#670 = VECTOR('',#669,3.000000);
#671 = LINE('',#581,#670);
#672 = EDGE_CURVE('',#589,#593,#671,.T.);
#673 = ORIENTED_EDGE('',*,*,#672,.T.);
#674 = ORIENTED_EDGE('',*,*,#630,.F.);
#675 = ORIENTED_EDGE('',*,*,#653,.F.);
#676 = EDGE_LOOP('',(#668,#673,#674,#675));
#677 = FACE_OUTER_BOUND('',#676,.T.);
#678 = DIRECTION('',(1.000000,0.000000,0.000000));
#679 = DIRECTION('',(0.000000,1.000000,0.000000));
#680 = AXIS2_PLACEMENT_3D('',#580,#678,#679);
#681 = PLANE('',#680);
#682 = ADVANCED_FACE('',(#677),#681,.T.);
#683 = ORIENTED_EDGE('',*,*,#603,.T.);
#684 = DIRECTION('',(0.000000,0.000000,1.000000));
#685 = VECTOR('',#684,3.000000);
#686 = LINE('',#582,#685);
#687 = EDGE_CURVE('',#590,#594,#686,.T.);
#688 = ORIENTED_EDGE('',*,*,#687,.T.);
#689 = ORIENTED_EDGE('',*,*,#635,.F.);
#690 = ORIENTED_EDGE('',*,*,#672,.F.);
#691 = EDGE_LOOP('',(#683,#688,#689,#690));
#692 = FACE_OUTER_BOUND('',#691,.T.);
#693 = DIRECTION('',(0.000000,1.000000,0.000000));
#694 = DIRECTION('',(-1.000000,0.000000,0.000000));
#695 = AXIS2_PLACEMENT_3D('',#581,#693,#694);
#696 = PLANE('',#695);
#697 = ADVANCED_FACE('',(#692),#696,.T.);
#698 = ORIENTED_EDGE('',*,*,#598,.F.);
#699 = ORIENTED_EDGE('',*,*,#659,.T.);
#700 = ORIENTED_EDGE('',*,*,#640,.T.);
#701 = ORIENTED_EDGE('',*,*,#687,.F.);
#702 = EDGE_LOOP('',(#698,#699,#700,#701));
#703 = FACE_OUTER_BOUND('',#702,.T.);
#704 = DIRECTION('',(-1.000000,0.000000,0.000000));
#705 = DIRECTION('',(0.000000,-1.000000,0.000000));
#706 = AXIS2_PLACEMENT_3D('',#582,#704,#705);
#707 = PLANE('',#706);
#708 = ADVANCED_FACE('',(#703),#707,.T.);
#709 = CLOSED_SHELL('',(#621,#648,#667,#682,#697,#708));
#710 = MANIFOLD_SOLID_BREP('HS_LAM4K5012_assembly_4',#709);
#711 = COLOUR_RGB('',0.800000,0.820000,0.850000);
#712 = FILL_AREA_STYLE_COLOUR('',#711);
#713 = FILL_AREA_STYLE('',(#712));
#714 = SURFACE_STYLE_FILL_AREA(#713);
#715 = SURFACE_SIDE_STYLE('',(#714));
#716 = SURFACE_STYLE_USAGE(.BOTH.,#715);
#717 = PRESENTATION_STYLE_ASSIGNMENT((#716));
#718 = STYLED_ITEM('color',(#717),#710);
#719 = CARTESIAN_POINT('',(-21.000000,6.950000,1.680000));
#720 = CARTESIAN_POINT('',(-16.500000,6.950000,1.680000));
#721 = CARTESIAN_POINT('',(-16.500000,10.150000,1.680000));
#722 = CARTESIAN_POINT('',(-21.000000,10.150000,1.680000));
#723 = CARTESIAN_POINT('',(-21.000000,6.950000,4.680000));
#724 = CARTESIAN_POINT('',(-16.500000,6.950000,4.680000));
#725 = CARTESIAN_POINT('',(-16.500000,10.150000,4.680000));
#726 = CARTESIAN_POINT('',(-21.000000,10.150000,4.680000));
#727 = VERTEX_POINT('',#719);
#728 = VERTEX_POINT('',#720);
#729 = VERTEX_POINT('',#721);
#730 = VERTEX_POINT('',#722);
#731 = VERTEX_POINT('',#723);
#732 = VERTEX_POINT('',#724);
#733 = VERTEX_POINT('',#725);
#734 = VERTEX_POINT('',#726);
#735 = DIRECTION('',(0.000000,1.000000,0.000000));
#736 = VECTOR('',#735,3.200000);
#737 = LINE('',#719,#736);
#738 = EDGE_CURVE('',#727,#730,#737,.T.);
#739 = ORIENTED_EDGE('',*,*,#738,.T.);
#740 = DIRECTION('',(-1.000000,0.000000,0.000000));
#741 = VECTOR('',#740,4.500000);
#742 = LINE('',#721,#741);
#743 = EDGE_CURVE('',#729,#730,#742,.T.);
#744 = ORIENTED_EDGE('',*,*,#743,.F.);
#745 = DIRECTION('',(0.000000,1.000000,0.000000));
#746 = VECTOR('',#745,3.200000);
#747 = LINE('',#720,#746);
#748 = EDGE_CURVE('',#728,#729,#747,.T.);
#749 = ORIENTED_EDGE('',*,*,#748,.F.);
#750 = DIRECTION('',(1.000000,0.000000,0.000000));
#751 = VECTOR('',#750,4.500000);
#752 = LINE('',#719,#751);
#753 = EDGE_CURVE('',#727,#728,#752,.T.);
#754 = ORIENTED_EDGE('',*,*,#753,.F.);
#755 = EDGE_LOOP('',(#739,#744,#749,#754));
#756 = FACE_OUTER_BOUND('',#755,.T.);
#757 = DIRECTION('',(0.000000,0.000000,-1.000000));
#758 = DIRECTION('',(0.000000,1.000000,0.000000));
#759 = AXIS2_PLACEMENT_3D('',#719,#757,#758);
#760 = PLANE('',#759);
#761 = ADVANCED_FACE('',(#756),#760,.T.);
#762 = DIRECTION('',(1.000000,0.000000,0.000000));
#763 = VECTOR('',#762,4.500000);
#764 = LINE('',#723,#763);
#765 = EDGE_CURVE('',#731,#732,#764,.T.);
#766 = ORIENTED_EDGE('',*,*,#765,.T.);
#767 = DIRECTION('',(0.000000,1.000000,0.000000));
#768 = VECTOR('',#767,3.200000);
#769 = LINE('',#724,#768);
#770 = EDGE_CURVE('',#732,#733,#769,.T.);
#771 = ORIENTED_EDGE('',*,*,#770,.T.);
#772 = DIRECTION('',(-1.000000,0.000000,0.000000));
#773 = VECTOR('',#772,4.500000);
#774 = LINE('',#725,#773);
#775 = EDGE_CURVE('',#733,#734,#774,.T.);
#776 = ORIENTED_EDGE('',*,*,#775,.T.);
#777 = DIRECTION('',(0.000000,1.000000,0.000000));
#778 = VECTOR('',#777,3.200000);
#779 = LINE('',#723,#778);
#780 = EDGE_CURVE('',#731,#734,#779,.T.);
#781 = ORIENTED_EDGE('',*,*,#780,.F.);
#782 = EDGE_LOOP('',(#766,#771,#776,#781));
#783 = FACE_OUTER_BOUND('',#782,.T.);
#784 = DIRECTION('',(0.000000,0.000000,1.000000));
#785 = DIRECTION('',(1.000000,0.000000,0.000000));
#786 = AXIS2_PLACEMENT_3D('',#723,#784,#785);
#787 = PLANE('',#786);
#788 = ADVANCED_FACE('',(#783),#787,.T.);
#789 = ORIENTED_EDGE('',*,*,#753,.T.);
#790 = DIRECTION('',(0.000000,0.000000,1.000000));
#791 = VECTOR('',#790,3.000000);
#792 = LINE('',#720,#791);
#793 = EDGE_CURVE('',#728,#732,#792,.T.);
#794 = ORIENTED_EDGE('',*,*,#793,.T.);
#795 = ORIENTED_EDGE('',*,*,#765,.F.);
#796 = DIRECTION('',(0.000000,0.000000,1.000000));
#797 = VECTOR('',#796,3.000000);
#798 = LINE('',#719,#797);
#799 = EDGE_CURVE('',#727,#731,#798,.T.);
#800 = ORIENTED_EDGE('',*,*,#799,.F.);
#801 = EDGE_LOOP('',(#789,#794,#795,#800));
#802 = FACE_OUTER_BOUND('',#801,.T.);
#803 = DIRECTION('',(0.000000,-1.000000,0.000000));
#804 = DIRECTION('',(1.000000,0.000000,0.000000));
#805 = AXIS2_PLACEMENT_3D('',#719,#803,#804);
#806 = PLANE('',#805);
#807 = ADVANCED_FACE('',(#802),#806,.T.);
#808 = ORIENTED_EDGE('',*,*,#748,.T.);
#809 = DIRECTION('',(0.000000,0.000000,1.000000));
#810 = VECTOR('',#809,3.000000);
#811 = LINE('',#721,#810);
#812 = EDGE_CURVE('',#729,#733,#811,.T.);
#813 = ORIENTED_EDGE('',*,*,#812,.T.);
#814 = ORIENTED_EDGE('',*,*,#770,.F.);
#815 = ORIENTED_EDGE('',*,*,#793,.F.);
#816 = EDGE_LOOP('',(#808,#813,#814,#815));
#817 = FACE_OUTER_BOUND('',#816,.T.);
#818 = DIRECTION('',(1.000000,0.000000,0.000000));
#819 = DIRECTION('',(0.000000,1.000000,0.000000));
#820 = AXIS2_PLACEMENT_3D('',#720,#818,#819);
#821 = PLANE('',#820);
#822 = ADVANCED_FACE('',(#817),#821,.T.);
#823 = ORIENTED_EDGE('',*,*,#743,.T.);
#824 = DIRECTION('',(0.000000,0.000000,1.000000));
#825 = VECTOR('',#824,3.000000);
#826 = LINE('',#722,#825);
#827 = EDGE_CURVE('',#730,#734,#826,.T.);
#828 = ORIENTED_EDGE('',*,*,#827,.T.);
#829 = ORIENTED_EDGE('',*,*,#775,.F.);
#830 = ORIENTED_EDGE('',*,*,#812,.F.);
#831 = EDGE_LOOP('',(#823,#828,#829,#830));
#832 = FACE_OUTER_BOUND('',#831,.T.);
#833 = DIRECTION('',(0.000000,1.000000,0.000000));
#834 = DIRECTION('',(-1.000000,0.000000,0.000000));
#835 = AXIS2_PLACEMENT_3D('',#721,#833,#834);
#836 = PLANE('',#835);
#837 = ADVANCED_FACE('',(#832),#836,.T.);
#838 = ORIENTED_EDGE('',*,*,#738,.F.);
#839 = ORIENTED_EDGE('',*,*,#799,.T.);
#840 = ORIENTED_EDGE('',*,*,#780,.T.);
#841 = ORIENTED_EDGE('',*,*,#827,.F.);
#842 = EDGE_LOOP('',(#838,#839,#840,#841));
#843 = FACE_OUTER_BOUND('',#842,.T.);
#844 = DIRECTION('',(-1.000000,0.000000,0.000000));
#845 = DIRECTION('',(0.000000,-1.000000,0.000000));
#846 = AXIS2_PLACEMENT_3D('',#722,#844,#845);
#847 = PLANE('',#846);
#848 = ADVANCED_FACE('',(#843),#847,.T.);
#849 = CLOSED_SHELL('',(#761,#788,#807,#822,#837,#848));
#850 = MANIFOLD_SOLID_BREP('HS_LAM4K5012_assembly_5',#849);
#851 = COLOUR_RGB('',0.800000,0.820000,0.850000);
#852 = FILL_AREA_STYLE_COLOUR('',#851);
#853 = FILL_AREA_STYLE('',(#852));
#854 = SURFACE_STYLE_FILL_AREA(#853);
#855 = SURFACE_SIDE_STYLE('',(#854));
#856 = SURFACE_STYLE_USAGE(.BOTH.,#855);
#857 = PRESENTATION_STYLE_ASSIGNMENT((#856));
#858 = STYLED_ITEM('color',(#857),#850);
#859 = CARTESIAN_POINT('',(16.500000,6.950000,1.680000));
#860 = CARTESIAN_POINT('',(21.000000,6.950000,1.680000));
#861 = CARTESIAN_POINT('',(21.000000,10.150000,1.680000));
#862 = CARTESIAN_POINT('',(16.500000,10.150000,1.680000));
#863 = CARTESIAN_POINT('',(16.500000,6.950000,4.680000));
#864 = CARTESIAN_POINT('',(21.000000,6.950000,4.680000));
#865 = CARTESIAN_POINT('',(21.000000,10.150000,4.680000));
#866 = CARTESIAN_POINT('',(16.500000,10.150000,4.680000));
#867 = VERTEX_POINT('',#859);
#868 = VERTEX_POINT('',#860);
#869 = VERTEX_POINT('',#861);
#870 = VERTEX_POINT('',#862);
#871 = VERTEX_POINT('',#863);
#872 = VERTEX_POINT('',#864);
#873 = VERTEX_POINT('',#865);
#874 = VERTEX_POINT('',#866);
#875 = DIRECTION('',(0.000000,1.000000,0.000000));
#876 = VECTOR('',#875,3.200000);
#877 = LINE('',#859,#876);
#878 = EDGE_CURVE('',#867,#870,#877,.T.);
#879 = ORIENTED_EDGE('',*,*,#878,.T.);
#880 = DIRECTION('',(-1.000000,0.000000,0.000000));
#881 = VECTOR('',#880,4.500000);
#882 = LINE('',#861,#881);
#883 = EDGE_CURVE('',#869,#870,#882,.T.);
#884 = ORIENTED_EDGE('',*,*,#883,.F.);
#885 = DIRECTION('',(0.000000,1.000000,0.000000));
#886 = VECTOR('',#885,3.200000);
#887 = LINE('',#860,#886);
#888 = EDGE_CURVE('',#868,#869,#887,.T.);
#889 = ORIENTED_EDGE('',*,*,#888,.F.);
#890 = DIRECTION('',(1.000000,0.000000,0.000000));
#891 = VECTOR('',#890,4.500000);
#892 = LINE('',#859,#891);
#893 = EDGE_CURVE('',#867,#868,#892,.T.);
#894 = ORIENTED_EDGE('',*,*,#893,.F.);
#895 = EDGE_LOOP('',(#879,#884,#889,#894));
#896 = FACE_OUTER_BOUND('',#895,.T.);
#897 = DIRECTION('',(0.000000,0.000000,-1.000000));
#898 = DIRECTION('',(0.000000,1.000000,0.000000));
#899 = AXIS2_PLACEMENT_3D('',#859,#897,#898);
#900 = PLANE('',#899);
#901 = ADVANCED_FACE('',(#896),#900,.T.);
#902 = DIRECTION('',(1.000000,0.000000,0.000000));
#903 = VECTOR('',#902,4.500000);
#904 = LINE('',#863,#903);
#905 = EDGE_CURVE('',#871,#872,#904,.T.);
#906 = ORIENTED_EDGE('',*,*,#905,.T.);
#907 = DIRECTION('',(0.000000,1.000000,0.000000));
#908 = VECTOR('',#907,3.200000);
#909 = LINE('',#864,#908);
#910 = EDGE_CURVE('',#872,#873,#909,.T.);
#911 = ORIENTED_EDGE('',*,*,#910,.T.);
#912 = DIRECTION('',(-1.000000,0.000000,0.000000));
#913 = VECTOR('',#912,4.500000);
#914 = LINE('',#865,#913);
#915 = EDGE_CURVE('',#873,#874,#914,.T.);
#916 = ORIENTED_EDGE('',*,*,#915,.T.);
#917 = DIRECTION('',(0.000000,1.000000,0.000000));
#918 = VECTOR('',#917,3.200000);
#919 = LINE('',#863,#918);
#920 = EDGE_CURVE('',#871,#874,#919,.T.);
#921 = ORIENTED_EDGE('',*,*,#920,.F.);
#922 = EDGE_LOOP('',(#906,#911,#916,#921));
#923 = FACE_OUTER_BOUND('',#922,.T.);
#924 = DIRECTION('',(0.000000,0.000000,1.000000));
#925 = DIRECTION('',(1.000000,0.000000,0.000000));
#926 = AXIS2_PLACEMENT_3D('',#863,#924,#925);
#927 = PLANE('',#926);
#928 = ADVANCED_FACE('',(#923),#927,.T.);
#929 = ORIENTED_EDGE('',*,*,#893,.T.);
#930 = DIRECTION('',(0.000000,0.000000,1.000000));
#931 = VECTOR('',#930,3.000000);
#932 = LINE('',#860,#931);
#933 = EDGE_CURVE('',#868,#872,#932,.T.);
#934 = ORIENTED_EDGE('',*,*,#933,.T.);
#935 = ORIENTED_EDGE('',*,*,#905,.F.);
#936 = DIRECTION('',(0.000000,0.000000,1.000000));
#937 = VECTOR('',#936,3.000000);
#938 = LINE('',#859,#937);
#939 = EDGE_CURVE('',#867,#871,#938,.T.);
#940 = ORIENTED_EDGE('',*,*,#939,.F.);
#941 = EDGE_LOOP('',(#929,#934,#935,#940));
#942 = FACE_OUTER_BOUND('',#941,.T.);
#943 = DIRECTION('',(0.000000,-1.000000,0.000000));
#944 = DIRECTION('',(1.000000,0.000000,0.000000));
#945 = AXIS2_PLACEMENT_3D('',#859,#943,#944);
#946 = PLANE('',#945);
#947 = ADVANCED_FACE('',(#942),#946,.T.);
#948 = ORIENTED_EDGE('',*,*,#888,.T.);
#949 = DIRECTION('',(0.000000,0.000000,1.000000));
#950 = VECTOR('',#949,3.000000);
#951 = LINE('',#861,#950);
#952 = EDGE_CURVE('',#869,#873,#951,.T.);
#953 = ORIENTED_EDGE('',*,*,#952,.T.);
#954 = ORIENTED_EDGE('',*,*,#910,.F.);
#955 = ORIENTED_EDGE('',*,*,#933,.F.);
#956 = EDGE_LOOP('',(#948,#953,#954,#955));
#957 = FACE_OUTER_BOUND('',#956,.T.);
#958 = DIRECTION('',(1.000000,0.000000,0.000000));
#959 = DIRECTION('',(0.000000,1.000000,0.000000));
#960 = AXIS2_PLACEMENT_3D('',#860,#958,#959);
#961 = PLANE('',#960);
#962 = ADVANCED_FACE('',(#957),#961,.T.);
#963 = ORIENTED_EDGE('',*,*,#883,.T.);
#964 = DIRECTION('',(0.000000,0.000000,1.000000));
#965 = VECTOR('',#964,3.000000);
#966 = LINE('',#862,#965);
#967 = EDGE_CURVE('',#870,#874,#966,.T.);
#968 = ORIENTED_EDGE('',*,*,#967,.T.);
#969 = ORIENTED_EDGE('',*,*,#915,.F.);
#970 = ORIENTED_EDGE('',*,*,#952,.F.);
#971 = EDGE_LOOP('',(#963,#968,#969,#970));
#972 = FACE_OUTER_BOUND('',#971,.T.);
#973 = DIRECTION('',(0.000000,1.000000,0.000000));
#974 = DIRECTION('',(-1.000000,0.000000,0.000000));
#975 = AXIS2_PLACEMENT_3D('',#861,#973,#974);
#976 = PLANE('',#975);
#977 = ADVANCED_FACE('',(#972),#976,.T.);
#978 = ORIENTED_EDGE('',*,*,#878,.F.);
#979 = ORIENTED_EDGE('',*,*,#939,.T.);
#980 = ORIENTED_EDGE('',*,*,#920,.T.);
#981 = ORIENTED_EDGE('',*,*,#967,.F.);
#982 = EDGE_LOOP('',(#978,#979,#980,#981));
#983 = FACE_OUTER_BOUND('',#982,.T.);
#984 = DIRECTION('',(-1.000000,0.000000,0.000000));
#985 = DIRECTION('',(0.000000,-1.000000,0.000000));
#986 = AXIS2_PLACEMENT_3D('',#862,#984,#985);
#987 = PLANE('',#986);
#988 = ADVANCED_FACE('',(#983),#987,.T.);
#989 = CLOSED_SHELL('',(#901,#928,#947,#962,#977,#988));
#990 = MANIFOLD_SOLID_BREP('HS_LAM4K5012_assembly_6',#989);
#991 = COLOUR_RGB('',0.800000,0.820000,0.850000);
#992 = FILL_AREA_STYLE_COLOUR('',#991);
#993 = FILL_AREA_STYLE('',(#992));
#994 = SURFACE_STYLE_FILL_AREA(#993);
#995 = SURFACE_SIDE_STYLE('',(#994));
#996 = SURFACE_STYLE_USAGE(.BOTH.,#995);
#997 = PRESENTATION_STYLE_ASSIGNMENT((#996));
#998 = STYLED_ITEM('color',(#997),#990);
#999 = CARTESIAN_POINT('',(-21.000000,-11.250000,1.680000));
#1000 = CARTESIAN_POINT('',(-16.500000,-11.250000,1.680000));
#1001 = CARTESIAN_POINT('',(-16.500000,-6.950000,1.680000));
#1002 = CARTESIAN_POINT('',(-21.000000,-6.950000,1.680000));
#1003 = CARTESIAN_POINT('',(-21.000000,-11.250000,4.680000));
#1004 = CARTESIAN_POINT('',(-16.500000,-11.250000,4.680000));
#1005 = CARTESIAN_POINT('',(-16.500000,-6.950000,4.680000));
#1006 = CARTESIAN_POINT('',(-21.000000,-6.950000,4.680000));
#1007 = VERTEX_POINT('',#999);
#1008 = VERTEX_POINT('',#1000);
#1009 = VERTEX_POINT('',#1001);
#1010 = VERTEX_POINT('',#1002);
#1011 = VERTEX_POINT('',#1003);
#1012 = VERTEX_POINT('',#1004);
#1013 = VERTEX_POINT('',#1005);
#1014 = VERTEX_POINT('',#1006);
#1015 = DIRECTION('',(0.000000,1.000000,0.000000));
#1016 = VECTOR('',#1015,4.300000);
#1017 = LINE('',#999,#1016);
#1018 = EDGE_CURVE('',#1007,#1010,#1017,.T.);
#1019 = ORIENTED_EDGE('',*,*,#1018,.T.);
#1020 = DIRECTION('',(-1.000000,0.000000,0.000000));
#1021 = VECTOR('',#1020,4.500000);
#1022 = LINE('',#1001,#1021);
#1023 = EDGE_CURVE('',#1009,#1010,#1022,.T.);
#1024 = ORIENTED_EDGE('',*,*,#1023,.F.);
#1025 = DIRECTION('',(0.000000,1.000000,0.000000));
#1026 = VECTOR('',#1025,4.300000);
#1027 = LINE('',#1000,#1026);
#1028 = EDGE_CURVE('',#1008,#1009,#1027,.T.);
#1029 = ORIENTED_EDGE('',*,*,#1028,.F.);
#1030 = DIRECTION('',(1.000000,0.000000,0.000000));
#1031 = VECTOR('',#1030,4.500000);
#1032 = LINE('',#999,#1031);
#1033 = EDGE_CURVE('',#1007,#1008,#1032,.T.);
#1034 = ORIENTED_EDGE('',*,*,#1033,.F.);
#1035 = EDGE_LOOP('',(#1019,#1024,#1029,#1034));
#1036 = FACE_OUTER_BOUND('',#1035,.T.);
#1037 = DIRECTION('',(0.000000,0.000000,-1.000000));
#1038 = DIRECTION('',(0.000000,1.000000,0.000000));
#1039 = AXIS2_PLACEMENT_3D('',#999,#1037,#1038);
#1040 = PLANE('',#1039);
#1041 = ADVANCED_FACE('',(#1036),#1040,.T.);
#1042 = DIRECTION('',(1.000000,0.000000,0.000000));
#1043 = VECTOR('',#1042,4.500000);
#1044 = LINE('',#1003,#1043);
#1045 = EDGE_CURVE('',#1011,#1012,#1044,.T.);
#1046 = ORIENTED_EDGE('',*,*,#1045,.T.);
#1047 = DIRECTION('',(0.000000,1.000000,0.000000));
#1048 = VECTOR('',#1047,4.300000);
#1049 = LINE('',#1004,#1048);
#1050 = EDGE_CURVE('',#1012,#1013,#1049,.T.);
#1051 = ORIENTED_EDGE('',*,*,#1050,.T.);
#1052 = DIRECTION('',(-1.000000,0.000000,0.000000));
#1053 = VECTOR('',#1052,4.500000);
#1054 = LINE('',#1005,#1053);
#1055 = EDGE_CURVE('',#1013,#1014,#1054,.T.);
#1056 = ORIENTED_EDGE('',*,*,#1055,.T.);
#1057 = DIRECTION('',(0.000000,1.000000,0.000000));
#1058 = VECTOR('',#1057,4.300000);
#1059 = LINE('',#1003,#1058);
#1060 = EDGE_CURVE('',#1011,#1014,#1059,.T.);
#1061 = ORIENTED_EDGE('',*,*,#1060,.F.);
#1062 = EDGE_LOOP('',(#1046,#1051,#1056,#1061));
#1063 = FACE_OUTER_BOUND('',#1062,.T.);
#1064 = DIRECTION('',(0.000000,0.000000,1.000000));
#1065 = DIRECTION('',(1.000000,0.000000,0.000000));
#1066 = AXIS2_PLACEMENT_3D('',#1003,#1064,#1065);
#1067 = PLANE('',#1066);
#1068 = ADVANCED_FACE('',(#1063),#1067,.T.);
#1069 = ORIENTED_EDGE('',*,*,#1033,.T.);
#1070 = DIRECTION('',(0.000000,0.000000,1.000000));
#1071 = VECTOR('',#1070,3.000000);
#1072 = LINE('',#1000,#1071);
#1073 = EDGE_CURVE('',#1008,#1012,#1072,.T.);
#1074 = ORIENTED_EDGE('',*,*,#1073,.T.);
#1075 = ORIENTED_EDGE('',*,*,#1045,.F.);
#1076 = DIRECTION('',(0.000000,0.000000,1.000000));
#1077 = VECTOR('',#1076,3.000000);
#1078 = LINE('',#999,#1077);
#1079 = EDGE_CURVE('',#1007,#1011,#1078,.T.);
#1080 = ORIENTED_EDGE('',*,*,#1079,.F.);
#1081 = EDGE_LOOP('',(#1069,#1074,#1075,#1080));
#1082 = FACE_OUTER_BOUND('',#1081,.T.);
#1083 = DIRECTION('',(0.000000,-1.000000,0.000000));
#1084 = DIRECTION('',(1.000000,0.000000,0.000000));
#1085 = AXIS2_PLACEMENT_3D('',#999,#1083,#1084);
#1086 = PLANE('',#1085);
#1087 = ADVANCED_FACE('',(#1082),#1086,.T.);
#1088 = ORIENTED_EDGE('',*,*,#1028,.T.);
#1089 = DIRECTION('',(0.000000,0.000000,1.000000));
#1090 = VECTOR('',#1089,3.000000);
#1091 = LINE('',#1001,#1090);
#1092 = EDGE_CURVE('',#1009,#1013,#1091,.T.);
#1093 = ORIENTED_EDGE('',*,*,#1092,.T.);
#1094 = ORIENTED_EDGE('',*,*,#1050,.F.);
#1095 = ORIENTED_EDGE('',*,*,#1073,.F.);
#1096 = EDGE_LOOP('',(#1088,#1093,#1094,#1095));
#1097 = FACE_OUTER_BOUND('',#1096,.T.);
#1098 = DIRECTION('',(1.000000,0.000000,0.000000));
#1099 = DIRECTION('',(0.000000,1.000000,0.000000));
#1100 = AXIS2_PLACEMENT_3D('',#1000,#1098,#1099);
#1101 = PLANE('',#1100);
#1102 = ADVANCED_FACE('',(#1097),#1101,.T.);
#1103 = ORIENTED_EDGE('',*,*,#1023,.T.);
#1104 = DIRECTION('',(0.000000,0.000000,1.000000));
#1105 = VECTOR('',#1104,3.000000);
#1106 = LINE('',#1002,#1105);
#1107 = EDGE_CURVE('',#1010,#1014,#1106,.T.);
#1108 = ORIENTED_EDGE('',*,*,#1107,.T.);
#1109 = ORIENTED_EDGE('',*,*,#1055,.F.);
#1110 = ORIENTED_EDGE('',*,*,#1092,.F.);
#1111 = EDGE_LOOP('',(#1103,#1108,#1109,#1110));
#1112 = FACE_OUTER_BOUND('',#1111,.T.);
#1113 = DIRECTION('',(0.000000,1.000000,0.000000));
#1114 = DIRECTION('',(-1.000000,0.000000,0.000000));
#1115 = AXIS2_PLACEMENT_3D('',#1001,#1113,#1114);
#1116 = PLANE('',#1115);
#1117 = ADVANCED_FACE('',(#1112),#1116,.T.);
#1118 = ORIENTED_EDGE('',*,*,#1018,.F.);
#1119 = ORIENTED_EDGE('',*,*,#1079,.T.);
#1120 = ORIENTED_EDGE('',*,*,#1060,.T.);
#1121 = ORIENTED_EDGE('',*,*,#1107,.F.);
#1122 = EDGE_LOOP('',(#1118,#1119,#1120,#1121));
#1123 = FACE_OUTER_BOUND('',#1122,.T.);
#1124 = DIRECTION('',(-1.000000,0.000000,0.000000));
#1125 = DIRECTION('',(0.000000,-1.000000,0.000000));
#1126 = AXIS2_PLACEMENT_3D('',#1002,#1124,#1125);
#1127 = PLANE('',#1126);
#1128 = ADVANCED_FACE('',(#1123),#1127,.T.);
#1129 = CLOSED_SHELL('',(#1041,#1068,#1087,#1102,#1117,#1128));
#1130 = MANIFOLD_SOLID_BREP('HS_LAM4K5012_assembly_7',#1129);
#1131 = COLOUR_RGB('',0.800000,0.820000,0.850000);
#1132 = FILL_AREA_STYLE_COLOUR('',#1131);
#1133 = FILL_AREA_STYLE('',(#1132));
#1134 = SURFACE_STYLE_FILL_AREA(#1133);
#1135 = SURFACE_SIDE_STYLE('',(#1134));
#1136 = SURFACE_STYLE_USAGE(.BOTH.,#1135);
#1137 = PRESENTATION_STYLE_ASSIGNMENT((#1136));
#1138 = STYLED_ITEM('color',(#1137),#1130);
#1139 = CARTESIAN_POINT('',(16.500000,-11.250000,1.680000));
#1140 = CARTESIAN_POINT('',(21.000000,-11.250000,1.680000));
#1141 = CARTESIAN_POINT('',(21.000000,-6.950000,1.680000));
#1142 = CARTESIAN_POINT('',(16.500000,-6.950000,1.680000));
#1143 = CARTESIAN_POINT('',(16.500000,-11.250000,4.680000));
#1144 = CARTESIAN_POINT('',(21.000000,-11.250000,4.680000));
#1145 = CARTESIAN_POINT('',(21.000000,-6.950000,4.680000));
#1146 = CARTESIAN_POINT('',(16.500000,-6.950000,4.680000));
#1147 = VERTEX_POINT('',#1139);
#1148 = VERTEX_POINT('',#1140);
#1149 = VERTEX_POINT('',#1141);
#1150 = VERTEX_POINT('',#1142);
#1151 = VERTEX_POINT('',#1143);
#1152 = VERTEX_POINT('',#1144);
#1153 = VERTEX_POINT('',#1145);
#1154 = VERTEX_POINT('',#1146);
#1155 = DIRECTION('',(0.000000,1.000000,0.000000));
#1156 = VECTOR('',#1155,4.300000);
#1157 = LINE('',#1139,#1156);
#1158 = EDGE_CURVE('',#1147,#1150,#1157,.T.);
#1159 = ORIENTED_EDGE('',*,*,#1158,.T.);
#1160 = DIRECTION('',(-1.000000,0.000000,0.000000));
#1161 = VECTOR('',#1160,4.500000);
#1162 = LINE('',#1141,#1161);
#1163 = EDGE_CURVE('',#1149,#1150,#1162,.T.);
#1164 = ORIENTED_EDGE('',*,*,#1163,.F.);
#1165 = DIRECTION('',(0.000000,1.000000,0.000000));
#1166 = VECTOR('',#1165,4.300000);
#1167 = LINE('',#1140,#1166);
#1168 = EDGE_CURVE('',#1148,#1149,#1167,.T.);
#1169 = ORIENTED_EDGE('',*,*,#1168,.F.);
#1170 = DIRECTION('',(1.000000,0.000000,0.000000));
#1171 = VECTOR('',#1170,4.500000);
#1172 = LINE('',#1139,#1171);
#1173 = EDGE_CURVE('',#1147,#1148,#1172,.T.);
#1174 = ORIENTED_EDGE('',*,*,#1173,.F.);
#1175 = EDGE_LOOP('',(#1159,#1164,#1169,#1174));
#1176 = FACE_OUTER_BOUND('',#1175,.T.);
#1177 = DIRECTION('',(0.000000,0.000000,-1.000000));
#1178 = DIRECTION('',(0.000000,1.000000,0.000000));
#1179 = AXIS2_PLACEMENT_3D('',#1139,#1177,#1178);
#1180 = PLANE('',#1179);
#1181 = ADVANCED_FACE('',(#1176),#1180,.T.);
#1182 = DIRECTION('',(1.000000,0.000000,0.000000));
#1183 = VECTOR('',#1182,4.500000);
#1184 = LINE('',#1143,#1183);
#1185 = EDGE_CURVE('',#1151,#1152,#1184,.T.);
#1186 = ORIENTED_EDGE('',*,*,#1185,.T.);
#1187 = DIRECTION('',(0.000000,1.000000,0.000000));
#1188 = VECTOR('',#1187,4.300000);
#1189 = LINE('',#1144,#1188);
#1190 = EDGE_CURVE('',#1152,#1153,#1189,.T.);
#1191 = ORIENTED_EDGE('',*,*,#1190,.T.);
#1192 = DIRECTION('',(-1.000000,0.000000,0.000000));
#1193 = VECTOR('',#1192,4.500000);
#1194 = LINE('',#1145,#1193);
#1195 = EDGE_CURVE('',#1153,#1154,#1194,.T.);
#1196 = ORIENTED_EDGE('',*,*,#1195,.T.);
#1197 = DIRECTION('',(0.000000,1.000000,0.000000));
#1198 = VECTOR('',#1197,4.300000);
#1199 = LINE('',#1143,#1198);
#1200 = EDGE_CURVE('',#1151,#1154,#1199,.T.);
#1201 = ORIENTED_EDGE('',*,*,#1200,.F.);
#1202 = EDGE_LOOP('',(#1186,#1191,#1196,#1201));
#1203 = FACE_OUTER_BOUND('',#1202,.T.);
#1204 = DIRECTION('',(0.000000,0.000000,1.000000));
#1205 = DIRECTION('',(1.000000,0.000000,0.000000));
#1206 = AXIS2_PLACEMENT_3D('',#1143,#1204,#1205);
#1207 = PLANE('',#1206);
#1208 = ADVANCED_FACE('',(#1203),#1207,.T.);
#1209 = ORIENTED_EDGE('',*,*,#1173,.T.);
#1210 = DIRECTION('',(0.000000,0.000000,1.000000));
#1211 = VECTOR('',#1210,3.000000);
#1212 = LINE('',#1140,#1211);
#1213 = EDGE_CURVE('',#1148,#1152,#1212,.T.);
#1214 = ORIENTED_EDGE('',*,*,#1213,.T.);
#1215 = ORIENTED_EDGE('',*,*,#1185,.F.);
#1216 = DIRECTION('',(0.000000,0.000000,1.000000));
#1217 = VECTOR('',#1216,3.000000);
#1218 = LINE('',#1139,#1217);
#1219 = EDGE_CURVE('',#1147,#1151,#1218,.T.);
#1220 = ORIENTED_EDGE('',*,*,#1219,.F.);
#1221 = EDGE_LOOP('',(#1209,#1214,#1215,#1220));
#1222 = FACE_OUTER_BOUND('',#1221,.T.);
#1223 = DIRECTION('',(0.000000,-1.000000,0.000000));
#1224 = DIRECTION('',(1.000000,0.000000,0.000000));
#1225 = AXIS2_PLACEMENT_3D('',#1139,#1223,#1224);
#1226 = PLANE('',#1225);
#1227 = ADVANCED_FACE('',(#1222),#1226,.T.);
#1228 = ORIENTED_EDGE('',*,*,#1168,.T.);
#1229 = DIRECTION('',(0.000000,0.000000,1.000000));
#1230 = VECTOR('',#1229,3.000000);
#1231 = LINE('',#1141,#1230);
#1232 = EDGE_CURVE('',#1149,#1153,#1231,.T.);
#1233 = ORIENTED_EDGE('',*,*,#1232,.T.);
#1234 = ORIENTED_EDGE('',*,*,#1190,.F.);
#1235 = ORIENTED_EDGE('',*,*,#1213,.F.);
#1236 = EDGE_LOOP('',(#1228,#1233,#1234,#1235));
#1237 = FACE_OUTER_BOUND('',#1236,.T.);
#1238 = DIRECTION('',(1.000000,0.000000,0.000000));
#1239 = DIRECTION('',(0.000000,1.000000,0.000000));
#1240 = AXIS2_PLACEMENT_3D('',#1140,#1238,#1239);
#1241 = PLANE('',#1240);
#1242 = ADVANCED_FACE('',(#1237),#1241,.T.);
#1243 = ORIENTED_EDGE('',*,*,#1163,.T.);
#1244 = DIRECTION('',(0.000000,0.000000,1.000000));
#1245 = VECTOR('',#1244,3.000000);
#1246 = LINE('',#1142,#1245);
#1247 = EDGE_CURVE('',#1150,#1154,#1246,.T.);
#1248 = ORIENTED_EDGE('',*,*,#1247,.T.);
#1249 = ORIENTED_EDGE('',*,*,#1195,.F.);
#1250 = ORIENTED_EDGE('',*,*,#1232,.F.);
#1251 = EDGE_LOOP('',(#1243,#1248,#1249,#1250));
#1252 = FACE_OUTER_BOUND('',#1251,.T.);
#1253 = DIRECTION('',(0.000000,1.000000,0.000000));
#1254 = DIRECTION('',(-1.000000,0.000000,0.000000));
#1255 = AXIS2_PLACEMENT_3D('',#1141,#1253,#1254);
#1256 = PLANE('',#1255);
#1257 = ADVANCED_FACE('',(#1252),#1256,.T.);
#1258 = ORIENTED_EDGE('',*,*,#1158,.F.);
#1259 = ORIENTED_EDGE('',*,*,#1219,.T.);
#1260 = ORIENTED_EDGE('',*,*,#1200,.T.);
#1261 = ORIENTED_EDGE('',*,*,#1247,.F.);
#1262 = EDGE_LOOP('',(#1258,#1259,#1260,#1261));
#1263 = FACE_OUTER_BOUND('',#1262,.T.);
#1264 = DIRECTION('',(-1.000000,0.000000,0.000000));
#1265 = DIRECTION('',(0.000000,-1.000000,0.000000));
#1266 = AXIS2_PLACEMENT_3D('',#1142,#1264,#1265);
#1267 = PLANE('',#1266);
#1268 = ADVANCED_FACE('',(#1263),#1267,.T.);
#1269 = CLOSED_SHELL('',(#1181,#1208,#1227,#1242,#1257,#1268));
#1270 = MANIFOLD_SOLID_BREP('HS_LAM4K5012_assembly_8',#1269);
#1271 = COLOUR_RGB('',0.800000,0.820000,0.850000);
#1272 = FILL_AREA_STYLE_COLOUR('',#1271);
#1273 = FILL_AREA_STYLE('',(#1272));
#1274 = SURFACE_STYLE_FILL_AREA(#1273);
#1275 = SURFACE_SIDE_STYLE('',(#1274));
#1276 = SURFACE_STYLE_USAGE(.BOTH.,#1275);
#1277 = PRESENTATION_STYLE_ASSIGNMENT((#1276));
#1278 = STYLED_ITEM('color',(#1277),#1270);
#1279 = CARTESIAN_POINT('',(-20.000000,-25.000000,4.680000));
#1280 = CARTESIAN_POINT('',(20.000000,-25.000000,4.680000));
#1281 = CARTESIAN_POINT('',(20.000000,25.000000,4.680000));
#1282 = CARTESIAN_POINT('',(-20.000000,25.000000,4.680000));
#1283 = CARTESIAN_POINT('',(-20.000000,-25.000000,44.680000));
#1284 = CARTESIAN_POINT('',(20.000000,-25.000000,44.680000));
#1285 = CARTESIAN_POINT('',(20.000000,25.000000,44.680000));
#1286 = CARTESIAN_POINT('',(-20.000000,25.000000,44.680000));
#1287 = VERTEX_POINT('',#1279);
#1288 = VERTEX_POINT('',#1280);
#1289 = VERTEX_POINT('',#1281);
#1290 = VERTEX_POINT('',#1282);
#1291 = VERTEX_POINT('',#1283);
#1292 = VERTEX_POINT('',#1284);
#1293 = VERTEX_POINT('',#1285);
#1294 = VERTEX_POINT('',#1286);
#1295 = DIRECTION('',(0.000000,1.000000,0.000000));
#1296 = VECTOR('',#1295,50.000000);
#1297 = LINE('',#1279,#1296);
#1298 = EDGE_CURVE('',#1287,#1290,#1297,.T.);
#1299 = ORIENTED_EDGE('',*,*,#1298,.T.);
#1300 = DIRECTION('',(-1.000000,0.000000,0.000000));
#1301 = VECTOR('',#1300,40.000000);
#1302 = LINE('',#1281,#1301);
#1303 = EDGE_CURVE('',#1289,#1290,#1302,.T.);
#1304 = ORIENTED_EDGE('',*,*,#1303,.F.);
#1305 = DIRECTION('',(0.000000,1.000000,0.000000));
#1306 = VECTOR('',#1305,50.000000);
#1307 = LINE('',#1280,#1306);
#1308 = EDGE_CURVE('',#1288,#1289,#1307,.T.);
#1309 = ORIENTED_EDGE('',*,*,#1308,.F.);
#1310 = DIRECTION('',(1.000000,0.000000,0.000000));
#1311 = VECTOR('',#1310,40.000000);
#1312 = LINE('',#1279,#1311);
#1313 = EDGE_CURVE('',#1287,#1288,#1312,.T.);
#1314 = ORIENTED_EDGE('',*,*,#1313,.F.);
#1315 = EDGE_LOOP('',(#1299,#1304,#1309,#1314));
#1316 = FACE_OUTER_BOUND('',#1315,.T.);
#1317 = DIRECTION('',(0.000000,0.000000,-1.000000));
#1318 = DIRECTION('',(0.000000,1.000000,0.000000));
#1319 = AXIS2_PLACEMENT_3D('',#1279,#1317,#1318);
#1320 = PLANE('',#1319);
#1321 = ADVANCED_FACE('',(#1316),#1320,.T.);
#1322 = DIRECTION('',(1.000000,0.000000,0.000000));
#1323 = VECTOR('',#1322,40.000000);
#1324 = LINE('',#1283,#1323);
#1325 = EDGE_CURVE('',#1291,#1292,#1324,.T.);
#1326 = ORIENTED_EDGE('',*,*,#1325,.T.);
#1327 = DIRECTION('',(0.000000,1.000000,0.000000));
#1328 = VECTOR('',#1327,50.000000);
#1329 = LINE('',#1284,#1328);
#1330 = EDGE_CURVE('',#1292,#1293,#1329,.T.);
#1331 = ORIENTED_EDGE('',*,*,#1330,.T.);
#1332 = DIRECTION('',(-1.000000,0.000000,0.000000));
#1333 = VECTOR('',#1332,40.000000);
#1334 = LINE('',#1285,#1333);
#1335 = EDGE_CURVE('',#1293,#1294,#1334,.T.);
#1336 = ORIENTED_EDGE('',*,*,#1335,.T.);
#1337 = DIRECTION('',(0.000000,1.000000,0.000000));
#1338 = VECTOR('',#1337,50.000000);
#1339 = LINE('',#1283,#1338);
#1340 = EDGE_CURVE('',#1291,#1294,#1339,.T.);
#1341 = ORIENTED_EDGE('',*,*,#1340,.F.);
#1342 = EDGE_LOOP('',(#1326,#1331,#1336,#1341));
#1343 = FACE_OUTER_BOUND('',#1342,.T.);
#1344 = DIRECTION('',(0.000000,0.000000,1.000000));
#1345 = DIRECTION('',(1.000000,0.000000,0.000000));
#1346 = AXIS2_PLACEMENT_3D('',#1283,#1344,#1345);
#1347 = PLANE('',#1346);
#1348 = ADVANCED_FACE('',(#1343),#1347,.T.);
#1349 = ORIENTED_EDGE('',*,*,#1313,.T.);
#1350 = DIRECTION('',(0.000000,0.000000,1.000000));
#1351 = VECTOR('',#1350,40.000000);
#1352 = LINE('',#1280,#1351);
#1353 = EDGE_CURVE('',#1288,#1292,#1352,.T.);
#1354 = ORIENTED_EDGE('',*,*,#1353,.T.);
#1355 = ORIENTED_EDGE('',*,*,#1325,.F.);
#1356 = DIRECTION('',(0.000000,0.000000,1.000000));
#1357 = VECTOR('',#1356,40.000000);
#1358 = LINE('',#1279,#1357);
#1359 = EDGE_CURVE('',#1287,#1291,#1358,.T.);
#1360 = ORIENTED_EDGE('',*,*,#1359,.F.);
#1361 = EDGE_LOOP('',(#1349,#1354,#1355,#1360));
#1362 = FACE_OUTER_BOUND('',#1361,.T.);
#1363 = DIRECTION('',(0.000000,-1.000000,0.000000));
#1364 = DIRECTION('',(1.000000,0.000000,0.000000));
#1365 = AXIS2_PLACEMENT_3D('',#1279,#1363,#1364);
#1366 = PLANE('',#1365);
#1367 = ADVANCED_FACE('',(#1362),#1366,.T.);
#1368 = ORIENTED_EDGE('',*,*,#1308,.T.);
#1369 = DIRECTION('',(0.000000,0.000000,1.000000));
#1370 = VECTOR('',#1369,40.000000);
#1371 = LINE('',#1281,#1370);
#1372 = EDGE_CURVE('',#1289,#1293,#1371,.T.);
#1373 = ORIENTED_EDGE('',*,*,#1372,.T.);
#1374 = ORIENTED_EDGE('',*,*,#1330,.F.);
#1375 = ORIENTED_EDGE('',*,*,#1353,.F.);
#1376 = EDGE_LOOP('',(#1368,#1373,#1374,#1375));
#1377 = FACE_OUTER_BOUND('',#1376,.T.);
#1378 = DIRECTION('',(1.000000,0.000000,0.000000));
#1379 = DIRECTION('',(0.000000,1.000000,0.000000));
#1380 = AXIS2_PLACEMENT_3D('',#1280,#1378,#1379);
#1381 = PLANE('',#1380);
#1382 = ADVANCED_FACE('',(#1377),#1381,.T.);
#1383 = ORIENTED_EDGE('',*,*,#1303,.T.);
#1384 = DIRECTION('',(0.000000,0.000000,1.000000));
#1385 = VECTOR('',#1384,40.000000);
#1386 = LINE('',#1282,#1385);
#1387 = EDGE_CURVE('',#1290,#1294,#1386,.T.);
#1388 = ORIENTED_EDGE('',*,*,#1387,.T.);
#1389 = ORIENTED_EDGE('',*,*,#1335,.F.);
#1390 = ORIENTED_EDGE('',*,*,#1372,.F.);
#1391 = EDGE_LOOP('',(#1383,#1388,#1389,#1390));
#1392 = FACE_OUTER_BOUND('',#1391,.T.);
#1393 = DIRECTION('',(0.000000,1.000000,0.000000));
#1394 = DIRECTION('',(-1.000000,0.000000,0.000000));
#1395 = AXIS2_PLACEMENT_3D('',#1281,#1393,#1394);
#1396 = PLANE('',#1395);
#1397 = ADVANCED_FACE('',(#1392),#1396,.T.);
#1398 = ORIENTED_EDGE('',*,*,#1298,.F.);
#1399 = ORIENTED_EDGE('',*,*,#1359,.T.);
#1400 = ORIENTED_EDGE('',*,*,#1340,.T.);
#1401 = ORIENTED_EDGE('',*,*,#1387,.F.);
#1402 = EDGE_LOOP('',(#1398,#1399,#1400,#1401));
#1403 = FACE_OUTER_BOUND('',#1402,.T.);
#1404 = DIRECTION('',(-1.000000,0.000000,0.000000));
#1405 = DIRECTION('',(0.000000,-1.000000,0.000000));
#1406 = AXIS2_PLACEMENT_3D('',#1282,#1404,#1405);
#1407 = PLANE('',#1406);
#1408 = ADVANCED_FACE('',(#1403),#1407,.T.);
#1409 = CLOSED_SHELL('',(#1321,#1348,#1367,#1382,#1397,#1408));
#1410 = MANIFOLD_SOLID_BREP('HS_LAM4K5012_assembly_9',#1409);
#1411 = COLOUR_RGB('',0.800000,0.820000,0.850000);
#1412 = FILL_AREA_STYLE_COLOUR('',#1411);
#1413 = FILL_AREA_STYLE('',(#1412));
#1414 = SURFACE_STYLE_FILL_AREA(#1413);
#1415 = SURFACE_SIDE_STYLE('',(#1414));
#1416 = SURFACE_STYLE_USAGE(.BOTH.,#1415);
#1417 = PRESENTATION_STYLE_ASSIGNMENT((#1416));
#1418 = STYLED_ITEM('color',(#1417),#1410);
#1419 = CARTESIAN_POINT('',(-20.000000,-35.000000,4.680000));
#1420 = CARTESIAN_POINT('',(20.000000,-35.000000,4.680000));
#1421 = CARTESIAN_POINT('',(20.000000,-25.000000,4.680000));
#1422 = CARTESIAN_POINT('',(-20.000000,-25.000000,4.680000));
#1423 = CARTESIAN_POINT('',(-20.000000,-35.000000,44.680000));
#1424 = CARTESIAN_POINT('',(20.000000,-35.000000,44.680000));
#1425 = CARTESIAN_POINT('',(20.000000,-25.000000,44.680000));
#1426 = CARTESIAN_POINT('',(-20.000000,-25.000000,44.680000));
#1427 = VERTEX_POINT('',#1419);
#1428 = VERTEX_POINT('',#1420);
#1429 = VERTEX_POINT('',#1421);
#1430 = VERTEX_POINT('',#1422);
#1431 = VERTEX_POINT('',#1423);
#1432 = VERTEX_POINT('',#1424);
#1433 = VERTEX_POINT('',#1425);
#1434 = VERTEX_POINT('',#1426);
#1435 = DIRECTION('',(0.000000,1.000000,0.000000));
#1436 = VECTOR('',#1435,10.000000);
#1437 = LINE('',#1419,#1436);
#1438 = EDGE_CURVE('',#1427,#1430,#1437,.T.);
#1439 = ORIENTED_EDGE('',*,*,#1438,.T.);
#1440 = DIRECTION('',(-1.000000,0.000000,0.000000));
#1441 = VECTOR('',#1440,40.000000);
#1442 = LINE('',#1421,#1441);
#1443 = EDGE_CURVE('',#1429,#1430,#1442,.T.);
#1444 = ORIENTED_EDGE('',*,*,#1443,.F.);
#1445 = DIRECTION('',(0.000000,1.000000,0.000000));
#1446 = VECTOR('',#1445,10.000000);
#1447 = LINE('',#1420,#1446);
#1448 = EDGE_CURVE('',#1428,#1429,#1447,.T.);
#1449 = ORIENTED_EDGE('',*,*,#1448,.F.);
#1450 = DIRECTION('',(1.000000,0.000000,0.000000));
#1451 = VECTOR('',#1450,40.000000);
#1452 = LINE('',#1419,#1451);
#1453 = EDGE_CURVE('',#1427,#1428,#1452,.T.);
#1454 = ORIENTED_EDGE('',*,*,#1453,.F.);
#1455 = EDGE_LOOP('',(#1439,#1444,#1449,#1454));
#1456 = FACE_OUTER_BOUND('',#1455,.T.);
#1457 = DIRECTION('',(0.000000,0.000000,-1.000000));
#1458 = DIRECTION('',(0.000000,1.000000,0.000000));
#1459 = AXIS2_PLACEMENT_3D('',#1419,#1457,#1458);
#1460 = PLANE('',#1459);
#1461 = ADVANCED_FACE('',(#1456),#1460,.T.);
#1462 = DIRECTION('',(1.000000,0.000000,0.000000));
#1463 = VECTOR('',#1462,40.000000);
#1464 = LINE('',#1423,#1463);
#1465 = EDGE_CURVE('',#1431,#1432,#1464,.T.);
#1466 = ORIENTED_EDGE('',*,*,#1465,.T.);
#1467 = DIRECTION('',(0.000000,1.000000,0.000000));
#1468 = VECTOR('',#1467,10.000000);
#1469 = LINE('',#1424,#1468);
#1470 = EDGE_CURVE('',#1432,#1433,#1469,.T.);
#1471 = ORIENTED_EDGE('',*,*,#1470,.T.);
#1472 = DIRECTION('',(-1.000000,0.000000,0.000000));
#1473 = VECTOR('',#1472,40.000000);
#1474 = LINE('',#1425,#1473);
#1475 = EDGE_CURVE('',#1433,#1434,#1474,.T.);
#1476 = ORIENTED_EDGE('',*,*,#1475,.T.);
#1477 = DIRECTION('',(0.000000,1.000000,0.000000));
#1478 = VECTOR('',#1477,10.000000);
#1479 = LINE('',#1423,#1478);
#1480 = EDGE_CURVE('',#1431,#1434,#1479,.T.);
#1481 = ORIENTED_EDGE('',*,*,#1480,.F.);
#1482 = EDGE_LOOP('',(#1466,#1471,#1476,#1481));
#1483 = FACE_OUTER_BOUND('',#1482,.T.);
#1484 = DIRECTION('',(0.000000,0.000000,1.000000));
#1485 = DIRECTION('',(1.000000,0.000000,0.000000));
#1486 = AXIS2_PLACEMENT_3D('',#1423,#1484,#1485);
#1487 = PLANE('',#1486);
#1488 = ADVANCED_FACE('',(#1483),#1487,.T.);
#1489 = ORIENTED_EDGE('',*,*,#1453,.T.);
#1490 = DIRECTION('',(0.000000,0.000000,1.000000));
#1491 = VECTOR('',#1490,40.000000);
#1492 = LINE('',#1420,#1491);
#1493 = EDGE_CURVE('',#1428,#1432,#1492,.T.);
#1494 = ORIENTED_EDGE('',*,*,#1493,.T.);
#1495 = ORIENTED_EDGE('',*,*,#1465,.F.);
#1496 = DIRECTION('',(0.000000,0.000000,1.000000));
#1497 = VECTOR('',#1496,40.000000);
#1498 = LINE('',#1419,#1497);
#1499 = EDGE_CURVE('',#1427,#1431,#1498,.T.);
#1500 = ORIENTED_EDGE('',*,*,#1499,.F.);
#1501 = EDGE_LOOP('',(#1489,#1494,#1495,#1500));
#1502 = FACE_OUTER_BOUND('',#1501,.T.);
#1503 = DIRECTION('',(0.000000,-1.000000,0.000000));
#1504 = DIRECTION('',(1.000000,0.000000,0.000000));
#1505 = AXIS2_PLACEMENT_3D('',#1419,#1503,#1504);
#1506 = PLANE('',#1505);
#1507 = ADVANCED_FACE('',(#1502),#1506,.T.);
#1508 = ORIENTED_EDGE('',*,*,#1448,.T.);
#1509 = DIRECTION('',(0.000000,0.000000,1.000000));
#1510 = VECTOR('',#1509,40.000000);
#1511 = LINE('',#1421,#1510);
#1512 = EDGE_CURVE('',#1429,#1433,#1511,.T.);
#1513 = ORIENTED_EDGE('',*,*,#1512,.T.);
#1514 = ORIENTED_EDGE('',*,*,#1470,.F.);
#1515 = ORIENTED_EDGE('',*,*,#1493,.F.);
#1516 = EDGE_LOOP('',(#1508,#1513,#1514,#1515));
#1517 = FACE_OUTER_BOUND('',#1516,.T.);
#1518 = DIRECTION('',(1.000000,0.000000,0.000000));
#1519 = DIRECTION('',(0.000000,1.000000,0.000000));
#1520 = AXIS2_PLACEMENT_3D('',#1420,#1518,#1519);
#1521 = PLANE('',#1520);
#1522 = ADVANCED_FACE('',(#1517),#1521,.T.);
#1523 = ORIENTED_EDGE('',*,*,#1443,.T.);
#1524 = DIRECTION('',(0.000000,0.000000,1.000000));
#1525 = VECTOR('',#1524,40.000000);
#1526 = LINE('',#1422,#1525);
#1527 = EDGE_CURVE('',#1430,#1434,#1526,.T.);
#1528 = ORIENTED_EDGE('',*,*,#1527,.T.);
#1529 = ORIENTED_EDGE('',*,*,#1475,.F.);
#1530 = ORIENTED_EDGE('',*,*,#1512,.F.);
#1531 = EDGE_LOOP('',(#1523,#1528,#1529,#1530));
#1532 = FACE_OUTER_BOUND('',#1531,.T.);
#1533 = DIRECTION('',(0.000000,1.000000,0.000000));
#1534 = DIRECTION('',(-1.000000,0.000000,0.000000));
#1535 = AXIS2_PLACEMENT_3D('',#1421,#1533,#1534);
#1536 = PLANE('',#1535);
#1537 = ADVANCED_FACE('',(#1532),#1536,.T.);
#1538 = ORIENTED_EDGE('',*,*,#1438,.F.);
#1539 = ORIENTED_EDGE('',*,*,#1499,.T.);
#1540 = ORIENTED_EDGE('',*,*,#1480,.T.);
#1541 = ORIENTED_EDGE('',*,*,#1527,.F.);
#1542 = EDGE_LOOP('',(#1538,#1539,#1540,#1541));
#1543 = FACE_OUTER_BOUND('',#1542,.T.);
#1544 = DIRECTION('',(-1.000000,0.000000,0.000000));
#1545 = DIRECTION('',(0.000000,-1.000000,0.000000));
#1546 = AXIS2_PLACEMENT_3D('',#1422,#1544,#1545);
#1547 = PLANE('',#1546);
#1548 = ADVANCED_FACE('',(#1543),#1547,.T.);
#1549 = CLOSED_SHELL('',(#1461,#1488,#1507,#1522,#1537,#1548));
#1550 = MANIFOLD_SOLID_BREP('HS_LAM4K5012_assembly_10',#1549);
#1551 = COLOUR_RGB('',0.120000,0.120000,0.120000);
#1552 = FILL_AREA_STYLE_COLOUR('',#1551);
#1553 = FILL_AREA_STYLE('',(#1552));
#1554 = SURFACE_STYLE_FILL_AREA(#1553);
#1555 = SURFACE_SIDE_STYLE('',(#1554));
#1556 = SURFACE_STYLE_USAGE(.BOTH.,#1555);
#1557 = PRESENTATION_STYLE_ASSIGNMENT((#1556));
#1558 = STYLED_ITEM('color',(#1557),#1550);
#1559 = ADVANCED_BREP_SHAPE_REPRESENTATION('HS_LAM4K5012_assembly',(#18,#150,#290,#430,#570,#710,#850,#990,#1130,#1270,#1410,#1550),#14);
#1560 = SHAPE_DEFINITION_REPRESENTATION(#9,#1559);
#1561 = MECHANICAL_DESIGN_GEOMETRIC_PRESENTATION_REPRESENTATION('',(#158,#298,#438,#578,#718,#858,#998,#1138,#1278,#1418,#1558),#14);
ENDSEC;
END-ISO-10303-21;
