#VRML V2.0 utf8
Shape { appearance Appearance { material Material { diffuseColor 0.550 0.620 0.700 specularColor 0.2 0.2 0.2 shininess 0.3 } }
 geometry IndexedFaceSet { solid TRUE coord Coordinate { point [ -5.3150 -2.3622 0.2677, -2.1654 -2.3622 0.2677, -2.1654 1.5748 0.2677, -5.3150 1.5748 0.2677, -5.3150 -2.3622 0.4252, -2.1654 -2.3622 0.4252, -2.1654 1.5748 0.4252, -5.3150 1.5748 0.4252 ] } coordIndex [ 0,3,2,1,-1, 4,5,6,7,-1, 0,1,5,4,-1, 1,2,6,5,-1, 2,3,7,6,-1, 3,0,4,7,-1 ] } }
Shape { appearance Appearance { material Material { diffuseColor 0.550 0.620 0.700 specularColor 0.2 0.2 0.2 shininess 0.3 } }
 geometry IndexedFaceSet { solid TRUE coord Coordinate { point [ 2.1654 -2.3622 0.2677, 5.3150 -2.3622 0.2677, 5.3150 1.5748 0.2677, 2.1654 1.5748 0.2677, 2.1654 -2.3622 0.4252, 5.3150 -2.3622 0.4252, 5.3150 1.5748 0.4252, 2.1654 1.5748 0.4252 ] } coordIndex [ 0,3,2,1,-1, 4,5,6,7,-1, 0,1,5,4,-1, 1,2,6,5,-1, 2,3,7,6,-1, 3,0,4,7,-1 ] } }
Shape { appearance Appearance { material Material { diffuseColor 0.800 0.820 0.850 specularColor 0.2 0.2 0.2 shininess 0.3 } }
 geometry IndexedFaceSet { solid TRUE coord Coordinate { point [ -5.3150 -2.3622 0.4252, -2.1654 -2.3622 0.4252, -2.1654 1.5748 0.4252, -5.3150 1.5748 0.4252, -5.3150 -2.3622 0.6614, -2.1654 -2.3622 0.6614, -2.1654 1.5748 0.6614, -5.3150 1.5748 0.6614 ] } coordIndex [ 0,3,2,1,-1, 4,5,6,7,-1, 0,1,5,4,-1, 1,2,6,5,-1, 2,3,7,6,-1, 3,0,4,7,-1 ] } }
Shape { appearance Appearance { material Material { diffuseColor 0.800 0.820 0.850 specularColor 0.2 0.2 0.2 shininess 0.3 } }
 geometry IndexedFaceSet { solid TRUE coord Coordinate { point [ 2.1654 -2.3622 0.4252, 5.3150 -2.3622 0.4252, 5.3150 1.5748 0.4252, 2.1654 1.5748 0.4252, 2.1654 -2.3622 0.6614, 5.3150 -2.3622 0.6614, 5.3150 1.5748 0.6614, 2.1654 1.5748 0.6614 ] } coordIndex [ 0,3,2,1,-1, 4,5,6,7,-1, 0,1,5,4,-1, 1,2,6,5,-1, 2,3,7,6,-1, 3,0,4,7,-1 ] } }
Shape { appearance Appearance { material Material { diffuseColor 0.800 0.820 0.850 specularColor 0.2 0.2 0.2 shininess 0.3 } }
 geometry IndexedFaceSet { solid TRUE coord Coordinate { point [ -8.2677 -2.7362 0.6614, 8.2677 -2.7362 0.6614, 8.2677 2.7362 0.6614, -8.2677 2.7362 0.6614, -8.2677 -2.7362 1.8425, 8.2677 -2.7362 1.8425, 8.2677 2.7362 1.8425, -8.2677 2.7362 1.8425 ] } coordIndex [ 0,3,2,1,-1, 4,5,6,7,-1, 0,1,5,4,-1, 1,2,6,5,-1, 2,3,7,6,-1, 3,0,4,7,-1 ] } }
Shape { appearance Appearance { material Material { diffuseColor 0.800 0.820 0.850 specularColor 0.2 0.2 0.2 shininess 0.3 } }
 geometry IndexedFaceSet { solid TRUE coord Coordinate { point [ -8.2677 2.7362 0.6614, -6.4961 2.7362 0.6614, -6.4961 3.9961 0.6614, -8.2677 3.9961 0.6614, -8.2677 2.7362 1.8425, -6.4961 2.7362 1.8425, -6.4961 3.9961 1.8425, -8.2677 3.9961 1.8425 ] } coordIndex [ 0,3,2,1,-1, 4,5,6,7,-1, 0,1,5,4,-1, 1,2,6,5,-1, 2,3,7,6,-1, 3,0,4,7,-1 ] } }
Shape { appearance Appearance { material Material { diffuseColor 0.800 0.820 0.850 specularColor 0.2 0.2 0.2 shininess 0.3 } }
 geometry IndexedFaceSet { solid TRUE coord Coordinate { point [ 6.4961 2.7362 0.6614, 8.2677 2.7362 0.6614, 8.2677 3.9961 0.6614, 6.4961 3.9961 0.6614, 6.4961 2.7362 1.8425, 8.2677 2.7362 1.8425, 8.2677 3.9961 1.8425, 6.4961 3.9961 1.8425 ] } coordIndex [ 0,3,2,1,-1, 4,5,6,7,-1, 0,1,5,4,-1, 1,2,6,5,-1, 2,3,7,6,-1, 3,0,4,7,-1 ] } }
Shape { appearance Appearance { material Material { diffuseColor 0.800 0.820 0.850 specularColor 0.2 0.2 0.2 shininess 0.3 } }
 geometry IndexedFaceSet { solid TRUE coord Coordinate { point [ -8.2677 -4.4291 0.6614, -6.4961 -4.4291 0.6614, -6.4961 -2.7362 0.6614, -8.2677 -2.7362 0.6614, -8.2677 -4.4291 1.8425, -6.4961 -4.4291 1.8425, -6.4961 -2.7362 1.8425, -8.2677 -2.7362 1.8425 ] } coordIndex [ 0,3,2,1,-1, 4,5,6,7,-1, 0,1,5,4,-1, 1,2,6,5,-1, 2,3,7,6,-1, 3,0,4,7,-1 ] } }
Shape { appearance Appearance { material Material { diffuseColor 0.800 0.820 0.850 specularColor 0.2 0.2 0.2 shininess 0.3 } }
 geometry IndexedFaceSet { solid TRUE coord Coordinate { point [ 6.4961 -4.4291 0.6614, 8.2677 -4.4291 0.6614, 8.2677 -2.7362 0.6614, 6.4961 -2.7362 0.6614, 6.4961 -4.4291 1.8425, 8.2677 -4.4291 1.8425, 8.2677 -2.7362 1.8425, 6.4961 -2.7362 1.8425 ] } coordIndex [ 0,3,2,1,-1, 4,5,6,7,-1, 0,1,5,4,-1, 1,2,6,5,-1, 2,3,7,6,-1, 3,0,4,7,-1 ] } }
Shape { appearance Appearance { material Material { diffuseColor 0.800 0.820 0.850 specularColor 0.2 0.2 0.2 shininess 0.3 } }
 geometry IndexedFaceSet { solid TRUE coord Coordinate { point [ -7.8740 -9.8425 1.8425, 7.8740 -9.8425 1.8425, 7.8740 9.8425 1.8425, -7.8740 9.8425 1.8425, -7.8740 -9.8425 17.5906, 7.8740 -9.8425 17.5906, 7.8740 9.8425 17.5906, -7.8740 9.8425 17.5906 ] } coordIndex [ 0,3,2,1,-1, 4,5,6,7,-1, 0,1,5,4,-1, 1,2,6,5,-1, 2,3,7,6,-1, 3,0,4,7,-1 ] } }
Shape { appearance Appearance { material Material { diffuseColor 0.120 0.120 0.120 specularColor 0.2 0.2 0.2 shininess 0.3 } }
 geometry IndexedFaceSet { solid TRUE coord Coordinate { point [ -7.8740 -13.7795 1.8425, 7.8740 -13.7795 1.8425, 7.8740 -9.8425 1.8425, -7.8740 -9.8425 1.8425, -7.8740 -13.7795 17.5906, 7.8740 -13.7795 17.5906, 7.8740 -9.8425 17.5906, -7.8740 -9.8425 17.5906 ] } coordIndex [ 0,3,2,1,-1, 4,5,6,7,-1, 0,1,5,4,-1, 1,2,6,5,-1, 2,3,7,6,-1, 3,0,4,7,-1 ] } }
