G04*
G04 #@! TF.GenerationSoftware,Altium Limited,Altium Designer,22.9.1 (49)*
G04*
G04 Layer_Color=128*
%FSLAX25Y25*%
%MOIN*%
G70*
G04*
G04 #@! TF.SameCoordinates,3BA43B4F-DC3F-4A8D-A033-658DE37FB2C5*
G04*
G04*
G04 #@! TF.FilePolarity,Positive*
G04*
G01*
G75*
%ADD11C,0.01000*%
%ADD169C,0.00200*%
D11*
X233900Y195000D02*
X233900Y-195000D01*
X-296000Y-67815D02*
Y67815D01*
Y195000D02*
X233900D01*
X-296000Y-195000D02*
X-296000Y195000D01*
X-296000Y-195000D02*
X233900D01*
D169*
X-122153Y-183961D02*
X-116248D01*
X-119201Y-186913D02*
Y-181008D01*
X-112153Y-183961D02*
X-106248D01*
X-109201Y-186913D02*
Y-181008D01*
X-102154Y-183961D02*
X-96248D01*
X-99201Y-186913D02*
Y-181008D01*
X-92154Y-183961D02*
X-86248D01*
X-89201Y-186913D02*
Y-181008D01*
X-122153Y-173961D02*
X-116248D01*
X-119201Y-176913D02*
Y-171008D01*
X-112153Y-173961D02*
X-106248D01*
X-109201Y-176913D02*
Y-171008D01*
X-102154Y-173961D02*
X-96248D01*
X-99201Y-176913D02*
Y-171008D01*
X-92154Y-173961D02*
X-86248D01*
X-89201Y-176913D02*
Y-171008D01*
X-122153Y-163961D02*
X-116248D01*
X-119201Y-166913D02*
Y-161008D01*
X-112153Y-163961D02*
X-106248D01*
X-109201Y-166913D02*
Y-161008D01*
X-102154Y-163961D02*
X-96248D01*
X-99201Y-166913D02*
Y-161008D01*
X-92154Y-163961D02*
X-86248D01*
X-89201Y-166913D02*
Y-161008D01*
X-122153Y-153961D02*
X-116248D01*
X-119201Y-156913D02*
Y-151008D01*
X-112153Y-153961D02*
X-106248D01*
X-109201Y-156913D02*
Y-151008D01*
X-102154Y-153961D02*
X-96248D01*
X-99201Y-156913D02*
Y-151008D01*
X-92154Y-153961D02*
X-86248D01*
X-89201Y-156913D02*
Y-151008D01*
X-156354Y-153961D02*
X-150449D01*
X-153402Y-156913D02*
Y-151008D01*
X-166354Y-153961D02*
X-160449D01*
X-163402Y-156913D02*
Y-151008D01*
X-176354Y-153961D02*
X-170449D01*
X-173402Y-156913D02*
Y-151008D01*
X-186354Y-153961D02*
X-180449D01*
X-183402Y-156913D02*
Y-151008D01*
X-156354Y-163961D02*
X-150449D01*
X-153402Y-166913D02*
Y-161008D01*
X-166354Y-163961D02*
X-160449D01*
X-163402Y-166913D02*
Y-161008D01*
X-176354Y-163961D02*
X-170449D01*
X-173402Y-166913D02*
Y-161008D01*
X-186354Y-163961D02*
X-180449D01*
X-183402Y-166913D02*
Y-161008D01*
X-156354Y-173961D02*
X-150449D01*
X-153402Y-176913D02*
Y-171008D01*
X-166354Y-173961D02*
X-160449D01*
X-163402Y-176913D02*
Y-171008D01*
X-176354Y-173961D02*
X-170449D01*
X-173402Y-176913D02*
Y-171008D01*
X-186354Y-173961D02*
X-180449D01*
X-183402Y-176913D02*
Y-171008D01*
X-156354Y-183961D02*
X-150449D01*
X-153402Y-186913D02*
Y-181008D01*
X-166354Y-183961D02*
X-160449D01*
X-163402Y-186913D02*
Y-181008D01*
X-176354Y-183961D02*
X-170449D01*
X-173402Y-186913D02*
Y-181008D01*
X-186354Y-183961D02*
X-180449D01*
X-183402Y-186913D02*
Y-181008D01*
X-57605Y40400D02*
X-45794D01*
X-51700Y34495D02*
Y46306D01*
X114993Y-63400D02*
X126804D01*
X120898Y-69305D02*
Y-57494D01*
X-57605Y-156900D02*
X-45794D01*
X-51700Y-162805D02*
Y-150995D01*
X-57605Y-63800D02*
X-45794D01*
X-51700Y-69705D02*
Y-57894D01*
X114993Y-156900D02*
X126804D01*
X120898Y-162805D02*
Y-150995D01*
X-92153Y167701D02*
X-86247D01*
X-89200Y164748D02*
Y170653D01*
X-102153Y167701D02*
X-96247D01*
X-99200Y164748D02*
Y170653D01*
X-112153Y167701D02*
X-106247D01*
X-109200Y164748D02*
Y170653D01*
X-122153Y167701D02*
X-116247D01*
X-119200Y164748D02*
Y170653D01*
X-92153Y157701D02*
X-86247D01*
X-89200Y154748D02*
Y160653D01*
X-102153Y157701D02*
X-96247D01*
X-99200Y154748D02*
Y160653D01*
X-112153Y157701D02*
X-106247D01*
X-109200Y154748D02*
Y160653D01*
X-122153Y157701D02*
X-116247D01*
X-119200Y154748D02*
Y160653D01*
X-92153Y147701D02*
X-86247D01*
X-89200Y144748D02*
Y150654D01*
X-102153Y147701D02*
X-96247D01*
X-99200Y144748D02*
Y150654D01*
X-112153Y147701D02*
X-106247D01*
X-109200Y144748D02*
Y150654D01*
X-122153Y147701D02*
X-116247D01*
X-119200Y144748D02*
Y150654D01*
X-92153Y137701D02*
X-86247D01*
X-89200Y134748D02*
Y140654D01*
X-102153Y137701D02*
X-96247D01*
X-99200Y134748D02*
Y140654D01*
X-112153Y137701D02*
X-106247D01*
X-109200Y134748D02*
Y140654D01*
X-122153Y137701D02*
X-116247D01*
X-119200Y134748D02*
Y140654D01*
X182849Y77400D02*
X188754D01*
X185802Y74447D02*
Y80353D01*
X192849Y77400D02*
X198754D01*
X195802Y74447D02*
Y80353D01*
X202849Y77400D02*
X208754D01*
X205802Y74447D02*
Y80353D01*
X212849Y77400D02*
X218754D01*
X215802Y74447D02*
Y80353D01*
X182849Y87400D02*
X188754D01*
X185802Y84447D02*
Y90353D01*
X192849Y87400D02*
X198754D01*
X195802Y84447D02*
Y90353D01*
X202849Y87400D02*
X208754D01*
X205802Y84447D02*
Y90353D01*
X212849Y87400D02*
X218754D01*
X215802Y84447D02*
Y90353D01*
X182849Y97400D02*
X188754D01*
X185802Y94447D02*
Y100353D01*
X192849Y97400D02*
X198754D01*
X195802Y94447D02*
Y100353D01*
X202849Y97400D02*
X208754D01*
X205802Y94447D02*
Y100353D01*
X212849Y97400D02*
X218754D01*
X215802Y94447D02*
Y100353D01*
X182849Y107400D02*
X188754D01*
X185802Y104447D02*
Y110353D01*
X192849Y107400D02*
X198754D01*
X195802Y104447D02*
Y110353D01*
X202849Y107400D02*
X208754D01*
X205802Y104447D02*
Y110353D01*
X212849Y107400D02*
X218754D01*
X215802Y104447D02*
Y110353D01*
X182849Y-16400D02*
X188754D01*
X185802Y-19353D02*
Y-13447D01*
X192849Y-16400D02*
X198754D01*
X195802Y-19353D02*
Y-13447D01*
X202849Y-16400D02*
X208754D01*
X205802Y-19353D02*
Y-13447D01*
X212849Y-16400D02*
X218754D01*
X215802Y-19353D02*
Y-13447D01*
X182849Y-6400D02*
X188754D01*
X185802Y-9353D02*
Y-3447D01*
X192849Y-6400D02*
X198754D01*
X195802Y-9353D02*
Y-3447D01*
X202849Y-6400D02*
X208754D01*
X205802Y-9353D02*
Y-3447D01*
X212849Y-6400D02*
X218754D01*
X215802Y-9353D02*
Y-3447D01*
X182849Y3600D02*
X188754D01*
X185802Y647D02*
Y6553D01*
X192849Y3600D02*
X198754D01*
X195802Y647D02*
Y6553D01*
X202849Y3600D02*
X208754D01*
X205802Y647D02*
Y6553D01*
X212849Y3600D02*
X218754D01*
X215802Y647D02*
Y6553D01*
X182849Y13600D02*
X188754D01*
X185802Y10647D02*
Y16553D01*
X192849Y13600D02*
X198754D01*
X195802Y10647D02*
Y16553D01*
X202849Y13600D02*
X208754D01*
X205802Y10647D02*
Y16553D01*
X212849Y13600D02*
X218754D01*
X215802Y10647D02*
Y16553D01*
X182847Y-107900D02*
X188753D01*
X185800Y-110853D02*
Y-104947D01*
X192847Y-107900D02*
X198753D01*
X195800Y-110853D02*
Y-104947D01*
X202847Y-107900D02*
X208753D01*
X205800Y-110853D02*
Y-104947D01*
X212847Y-107900D02*
X218753D01*
X215800Y-110853D02*
Y-104947D01*
X182847Y-97900D02*
X188753D01*
X185800Y-100853D02*
Y-94947D01*
X192847Y-97900D02*
X198753D01*
X195800Y-100853D02*
Y-94947D01*
X202847Y-97900D02*
X208753D01*
X205800Y-100853D02*
Y-94947D01*
X212847Y-97900D02*
X218753D01*
X215800Y-100853D02*
Y-94947D01*
X182847Y-87900D02*
X188753D01*
X185800Y-90853D02*
Y-84947D01*
X192847Y-87900D02*
X198753D01*
X195800Y-90853D02*
Y-84947D01*
X202847Y-87900D02*
X208753D01*
X205800Y-90853D02*
Y-84947D01*
X212847Y-87900D02*
X218753D01*
X215800Y-90853D02*
Y-84947D01*
X182847Y-77900D02*
X188753D01*
X185800Y-80853D02*
Y-74947D01*
X192847Y-77900D02*
X198753D01*
X195800Y-80853D02*
Y-74947D01*
X202847Y-77900D02*
X208753D01*
X205800Y-80853D02*
Y-74947D01*
X212847Y-77900D02*
X218753D01*
X215800Y-80853D02*
Y-74947D01*
X-186353Y137700D02*
X-180447D01*
X-183400Y134747D02*
Y140653D01*
X-176353Y137700D02*
X-170447D01*
X-173400Y134747D02*
Y140653D01*
X-166353Y137700D02*
X-160447D01*
X-163400Y134747D02*
Y140653D01*
X-156353Y137700D02*
X-150447D01*
X-153400Y134747D02*
Y140653D01*
X-186353Y147700D02*
X-180447D01*
X-183400Y144747D02*
Y150653D01*
X-176353Y147700D02*
X-170447D01*
X-173400Y144747D02*
Y150653D01*
X-166353Y147700D02*
X-160447D01*
X-163400Y144747D02*
Y150653D01*
X-156353Y147700D02*
X-150447D01*
X-153400Y144747D02*
Y150653D01*
X-186353Y157700D02*
X-180447D01*
X-183400Y154747D02*
Y160653D01*
X-176353Y157700D02*
X-170447D01*
X-173400Y154747D02*
Y160653D01*
X-166353Y157700D02*
X-160447D01*
X-163400Y154747D02*
Y160653D01*
X-156353Y157700D02*
X-150447D01*
X-153400Y154747D02*
Y160653D01*
X-186353Y167700D02*
X-180447D01*
X-183400Y164747D02*
Y170653D01*
X-176353Y167700D02*
X-170447D01*
X-173400Y164747D02*
Y170653D01*
X-166353Y167700D02*
X-160447D01*
X-163400Y164747D02*
Y170653D01*
X-156353Y167700D02*
X-150447D01*
X-153400Y164747D02*
Y170653D01*
X-277800Y127400D02*
X-273800D01*
X-275800Y125400D02*
Y129400D01*
X-277800Y137400D02*
X-273800D01*
X-275800Y135400D02*
Y139400D01*
X202550Y175000D02*
X221250D01*
X211900Y165650D02*
Y184350D01*
X202550Y-175000D02*
X221250D01*
X211900Y-184350D02*
Y-165650D01*
X-285350Y-175000D02*
X-266650D01*
X-276000Y-184350D02*
Y-165650D01*
X-285350Y175000D02*
X-266650D01*
X-276000Y165650D02*
Y184350D01*
X-254750Y58750D02*
X-250750D01*
X-252750Y56750D02*
Y60750D01*
X-254750Y48750D02*
X-250750D01*
X-252750Y46750D02*
Y50750D01*
X114993Y40400D02*
X126804D01*
X120898Y34495D02*
Y46306D01*
X114995Y133900D02*
X126805D01*
X120900Y127995D02*
Y139805D01*
X-57605Y133500D02*
X-45794D01*
X-51700Y127594D02*
Y139406D01*
X68625Y-177000D02*
X69405D01*
X69015Y-177390D02*
Y-176610D01*
X68625Y-174100D02*
X69405D01*
X69015Y-174490D02*
Y-173710D01*
X72971Y-175600D02*
X73751D01*
X73361Y-175990D02*
Y-175210D01*
X72971Y-172700D02*
X73751D01*
X73361Y-173090D02*
Y-172310D01*
X81664Y-172700D02*
X82444D01*
X82054Y-173090D02*
Y-172310D01*
X81664Y-175600D02*
X82444D01*
X82054Y-175990D02*
Y-175210D01*
X51241Y-177000D02*
X52021D01*
X51631Y-177390D02*
Y-176610D01*
X51241Y-174100D02*
X52021D01*
X51631Y-174490D02*
Y-173710D01*
X59933Y-174000D02*
X60713D01*
X60323Y-174390D02*
Y-173610D01*
X59933Y-176900D02*
X60713D01*
X60323Y-177290D02*
Y-176510D01*
X55587Y-175600D02*
X56367D01*
X55977Y-175990D02*
Y-175210D01*
X55587Y-172700D02*
X56367D01*
X55977Y-173090D02*
Y-172310D01*
X64279Y-172800D02*
X65059D01*
X64669Y-173190D02*
Y-172410D01*
X64279Y-175700D02*
X65059D01*
X64669Y-176090D02*
Y-175310D01*
X33856Y-174100D02*
X34636D01*
X34246Y-174490D02*
Y-173710D01*
X33856Y-177000D02*
X34636D01*
X34246Y-177390D02*
Y-176610D01*
X42548Y-174000D02*
X43328D01*
X42938Y-174390D02*
Y-173610D01*
X42548Y-176900D02*
X43328D01*
X42938Y-177290D02*
Y-176510D01*
X38202Y-175600D02*
X38982D01*
X38592Y-175990D02*
Y-175210D01*
X38202Y-172700D02*
X38982D01*
X38592Y-173090D02*
Y-172310D01*
X46894Y-172800D02*
X47675D01*
X47285Y-173190D02*
Y-172410D01*
X46894Y-175700D02*
X47675D01*
X47285Y-176090D02*
Y-175310D01*
X7779Y-177000D02*
X8559D01*
X8169Y-177390D02*
Y-176610D01*
X7779Y-174100D02*
X8559D01*
X8169Y-174490D02*
Y-173710D01*
X16472Y-174100D02*
X17252D01*
X16861Y-174490D02*
Y-173710D01*
X16472Y-177000D02*
X17252D01*
X16861Y-177390D02*
Y-176610D01*
X25164Y-174000D02*
X25944D01*
X25554Y-174390D02*
Y-173610D01*
X25164Y-176900D02*
X25944D01*
X25554Y-177290D02*
Y-176510D01*
X12125Y-175600D02*
X12905D01*
X12515Y-175990D02*
Y-175210D01*
X12125Y-172700D02*
X12905D01*
X12515Y-173090D02*
Y-172310D01*
X20818Y-175600D02*
X21598D01*
X21208Y-175990D02*
Y-175210D01*
X20818Y-172700D02*
X21598D01*
X21208Y-173090D02*
Y-172310D01*
X29510Y-172800D02*
X30290D01*
X29900Y-173190D02*
Y-172410D01*
X29510Y-175700D02*
X30290D01*
X29900Y-176090D02*
Y-175310D01*
X-9605Y-177000D02*
X-8825D01*
X-9215Y-177390D02*
Y-176610D01*
X-9605Y-174100D02*
X-8825D01*
X-9215Y-174490D02*
Y-173710D01*
X-913Y-174100D02*
X-133D01*
X-523Y-174490D02*
Y-173710D01*
X-913Y-177000D02*
X-133D01*
X-523Y-177390D02*
Y-176610D01*
X-5259Y-175600D02*
X-4479D01*
X-4869Y-175990D02*
Y-175210D01*
X-5259Y-172700D02*
X-4479D01*
X-4869Y-173090D02*
Y-172310D01*
X3433Y-175600D02*
X4213D01*
X3823Y-175990D02*
Y-175210D01*
X3433Y-172700D02*
X4213D01*
X3823Y-173090D02*
Y-172310D01*
X-26990Y-177000D02*
X-26210D01*
X-26600Y-177390D02*
Y-176610D01*
X-26990Y-174100D02*
X-26210D01*
X-26600Y-174490D02*
Y-173710D01*
X-18298Y-174000D02*
X-17518D01*
X-17908Y-174390D02*
Y-173610D01*
X-18298Y-176900D02*
X-17518D01*
X-17908Y-177290D02*
Y-176510D01*
X-22644Y-175600D02*
X-21864D01*
X-22254Y-175990D02*
Y-175210D01*
X-22644Y-172700D02*
X-21864D01*
X-22254Y-173090D02*
Y-172310D01*
X-13952Y-172800D02*
X-13171D01*
X-13562Y-173190D02*
Y-172410D01*
X-13952Y-175700D02*
X-13171D01*
X-13562Y-176090D02*
Y-175310D01*
X77318Y-176900D02*
X78098D01*
X77708Y-177290D02*
Y-176510D01*
X77318Y-174000D02*
X78098D01*
X77708Y-174390D02*
Y-173610D01*
X86010Y-174000D02*
X86790D01*
X86400Y-174390D02*
Y-173610D01*
X86010Y-176900D02*
X86790D01*
X86400Y-177290D02*
Y-176510D01*
X64825Y153100D02*
X65605D01*
X65215Y152710D02*
Y153490D01*
X64825Y156000D02*
X65605D01*
X65215Y155610D02*
Y156390D01*
X69172Y154500D02*
X69951D01*
X69561Y154110D02*
Y154890D01*
X69172Y157400D02*
X69951D01*
X69561Y157010D02*
Y157790D01*
X77864Y157400D02*
X78644D01*
X78254Y157010D02*
Y157790D01*
X77864Y154500D02*
X78644D01*
X78254Y154110D02*
Y154890D01*
X47441Y153100D02*
X48221D01*
X47831Y152710D02*
Y153490D01*
X47441Y156000D02*
X48221D01*
X47831Y155610D02*
Y156390D01*
X56133Y156100D02*
X56913D01*
X56523Y155710D02*
Y156490D01*
X56133Y153200D02*
X56913D01*
X56523Y152810D02*
Y153590D01*
X51787Y154500D02*
X52567D01*
X52177Y154110D02*
Y154890D01*
X51787Y157400D02*
X52567D01*
X52177Y157010D02*
Y157790D01*
X60479Y157300D02*
X61259D01*
X60869Y156910D02*
Y157690D01*
X60479Y154400D02*
X61259D01*
X60869Y154010D02*
Y154790D01*
X30056Y156000D02*
X30836D01*
X30446Y155610D02*
Y156390D01*
X30056Y153100D02*
X30836D01*
X30446Y152710D02*
Y153490D01*
X38748Y156100D02*
X39528D01*
X39138Y155710D02*
Y156490D01*
X38748Y153200D02*
X39528D01*
X39138Y152810D02*
Y153590D01*
X34402Y154500D02*
X35182D01*
X34792Y154110D02*
Y154890D01*
X34402Y157400D02*
X35182D01*
X34792Y157010D02*
Y157790D01*
X43095Y157300D02*
X43874D01*
X43485Y156910D02*
Y157690D01*
X43095Y154400D02*
X43874D01*
X43485Y154010D02*
Y154790D01*
X3979Y153100D02*
X4759D01*
X4369Y152710D02*
Y153490D01*
X3979Y156000D02*
X4759D01*
X4369Y155610D02*
Y156390D01*
X12672Y156000D02*
X13452D01*
X13061Y155610D02*
Y156390D01*
X12672Y153100D02*
X13452D01*
X13061Y152710D02*
Y153490D01*
X21364Y156100D02*
X22144D01*
X21754Y155710D02*
Y156490D01*
X21364Y153200D02*
X22144D01*
X21754Y152810D02*
Y153590D01*
X8325Y154500D02*
X9105D01*
X8715Y154110D02*
Y154890D01*
X8325Y157400D02*
X9105D01*
X8715Y157010D02*
Y157790D01*
X17018Y154500D02*
X17798D01*
X17408Y154110D02*
Y154890D01*
X17018Y157400D02*
X17798D01*
X17408Y157010D02*
Y157790D01*
X25710Y157300D02*
X26490D01*
X26100Y156910D02*
Y157690D01*
X25710Y154400D02*
X26490D01*
X26100Y154010D02*
Y154790D01*
X-13405Y153100D02*
X-12625D01*
X-13015Y152710D02*
Y153490D01*
X-13405Y156000D02*
X-12625D01*
X-13015Y155610D02*
Y156390D01*
X-4713Y156000D02*
X-3933D01*
X-4323Y155610D02*
Y156390D01*
X-4713Y153100D02*
X-3933D01*
X-4323Y152710D02*
Y153490D01*
X-9059Y154500D02*
X-8279D01*
X-8669Y154110D02*
Y154890D01*
X-9059Y157400D02*
X-8279D01*
X-8669Y157010D02*
Y157790D01*
X-367Y154500D02*
X413D01*
X23Y154110D02*
Y154890D01*
X-367Y157400D02*
X413D01*
X23Y157010D02*
Y157790D01*
X-30790Y153100D02*
X-30010D01*
X-30400Y152710D02*
Y153490D01*
X-30790Y156000D02*
X-30010D01*
X-30400Y155610D02*
Y156390D01*
X-22098Y156100D02*
X-21318D01*
X-21708Y155710D02*
Y156490D01*
X-22098Y153200D02*
X-21318D01*
X-21708Y152810D02*
Y153590D01*
X-26444Y154500D02*
X-25664D01*
X-26054Y154110D02*
Y154890D01*
X-26444Y157400D02*
X-25664D01*
X-26054Y157010D02*
Y157790D01*
X-17752Y157300D02*
X-16972D01*
X-17361Y156910D02*
Y157690D01*
X-17752Y154400D02*
X-16972D01*
X-17361Y154010D02*
Y154790D01*
X73518Y153200D02*
X74298D01*
X73908Y152810D02*
Y153590D01*
X73518Y156100D02*
X74298D01*
X73908Y155710D02*
Y156490D01*
X82210Y156100D02*
X82990D01*
X82600Y155710D02*
Y156490D01*
X82210Y153200D02*
X82990D01*
X82600Y152810D02*
Y153590D01*
X64825Y144000D02*
X65605D01*
X65215Y143610D02*
Y144390D01*
X64825Y146900D02*
X65605D01*
X65215Y146510D02*
Y147290D01*
X69172Y145400D02*
X69951D01*
X69561Y145010D02*
Y145790D01*
X69172Y148300D02*
X69951D01*
X69561Y147910D02*
Y148690D01*
X77864Y148300D02*
X78644D01*
X78254Y147910D02*
Y148690D01*
X77864Y145400D02*
X78644D01*
X78254Y145010D02*
Y145790D01*
X47441Y144000D02*
X48221D01*
X47831Y143610D02*
Y144390D01*
X47441Y146900D02*
X48221D01*
X47831Y146510D02*
Y147290D01*
X56133Y147000D02*
X56913D01*
X56523Y146610D02*
Y147390D01*
X56133Y144100D02*
X56913D01*
X56523Y143710D02*
Y144490D01*
X51787Y145400D02*
X52567D01*
X52177Y145010D02*
Y145790D01*
X51787Y148300D02*
X52567D01*
X52177Y147910D02*
Y148690D01*
X60479Y148200D02*
X61259D01*
X60869Y147810D02*
Y148590D01*
X60479Y145300D02*
X61259D01*
X60869Y144910D02*
Y145690D01*
X30056Y146900D02*
X30836D01*
X30446Y146510D02*
Y147290D01*
X30056Y144000D02*
X30836D01*
X30446Y143610D02*
Y144390D01*
X38748Y147000D02*
X39528D01*
X39138Y146610D02*
Y147390D01*
X38748Y144100D02*
X39528D01*
X39138Y143710D02*
Y144490D01*
X34402Y145400D02*
X35182D01*
X34792Y145010D02*
Y145790D01*
X34402Y148300D02*
X35182D01*
X34792Y147910D02*
Y148690D01*
X43095Y148200D02*
X43874D01*
X43485Y147810D02*
Y148590D01*
X43095Y145300D02*
X43874D01*
X43485Y144910D02*
Y145690D01*
X3979Y144000D02*
X4759D01*
X4369Y143610D02*
Y144390D01*
X3979Y146900D02*
X4759D01*
X4369Y146510D02*
Y147290D01*
X12672Y146900D02*
X13452D01*
X13061Y146510D02*
Y147290D01*
X12672Y144000D02*
X13452D01*
X13061Y143610D02*
Y144390D01*
X21364Y147000D02*
X22144D01*
X21754Y146610D02*
Y147390D01*
X21364Y144100D02*
X22144D01*
X21754Y143710D02*
Y144490D01*
X8325Y145400D02*
X9105D01*
X8715Y145010D02*
Y145790D01*
X8325Y148300D02*
X9105D01*
X8715Y147910D02*
Y148690D01*
X17018Y145400D02*
X17798D01*
X17408Y145010D02*
Y145790D01*
X17018Y148300D02*
X17798D01*
X17408Y147910D02*
Y148690D01*
X25710Y148200D02*
X26490D01*
X26100Y147810D02*
Y148590D01*
X25710Y145300D02*
X26490D01*
X26100Y144910D02*
Y145690D01*
X-13405Y144000D02*
X-12625D01*
X-13015Y143610D02*
Y144390D01*
X-13405Y146900D02*
X-12625D01*
X-13015Y146510D02*
Y147290D01*
X-4713Y146900D02*
X-3933D01*
X-4323Y146510D02*
Y147290D01*
X-4713Y144000D02*
X-3933D01*
X-4323Y143610D02*
Y144390D01*
X-9059Y145400D02*
X-8279D01*
X-8669Y145010D02*
Y145790D01*
X-9059Y148300D02*
X-8279D01*
X-8669Y147910D02*
Y148690D01*
X-367Y145400D02*
X413D01*
X23Y145010D02*
Y145790D01*
X-367Y148300D02*
X413D01*
X23Y147910D02*
Y148690D01*
X-30790Y144000D02*
X-30010D01*
X-30400Y143610D02*
Y144390D01*
X-30790Y146900D02*
X-30010D01*
X-30400Y146510D02*
Y147290D01*
X-22098Y147000D02*
X-21318D01*
X-21708Y146610D02*
Y147390D01*
X-22098Y144100D02*
X-21318D01*
X-21708Y143710D02*
Y144490D01*
X-26444Y145400D02*
X-25664D01*
X-26054Y145010D02*
Y145790D01*
X-26444Y148300D02*
X-25664D01*
X-26054Y147910D02*
Y148690D01*
X-17752Y148200D02*
X-16972D01*
X-17361Y147810D02*
Y148590D01*
X-17752Y145300D02*
X-16972D01*
X-17361Y144910D02*
Y145690D01*
X73518Y144100D02*
X74298D01*
X73908Y143710D02*
Y144490D01*
X73518Y147000D02*
X74298D01*
X73908Y146610D02*
Y147390D01*
X82210Y147000D02*
X82990D01*
X82600Y146610D02*
Y147390D01*
X82210Y144100D02*
X82990D01*
X82600Y143710D02*
Y144490D01*
X68625Y-169100D02*
X69405D01*
X69015Y-169490D02*
Y-168710D01*
X68625Y-166200D02*
X69405D01*
X69015Y-166590D02*
Y-165810D01*
X72971Y-167700D02*
X73751D01*
X73361Y-168090D02*
Y-167310D01*
X72971Y-164800D02*
X73751D01*
X73361Y-165190D02*
Y-164410D01*
X81664Y-164800D02*
X82444D01*
X82054Y-165190D02*
Y-164410D01*
X81664Y-167700D02*
X82444D01*
X82054Y-168090D02*
Y-167310D01*
X51241Y-169100D02*
X52021D01*
X51631Y-169490D02*
Y-168710D01*
X51241Y-166200D02*
X52021D01*
X51631Y-166590D02*
Y-165810D01*
X59933Y-166100D02*
X60713D01*
X60323Y-166490D02*
Y-165710D01*
X59933Y-169000D02*
X60713D01*
X60323Y-169390D02*
Y-168610D01*
X55587Y-167700D02*
X56367D01*
X55977Y-168090D02*
Y-167310D01*
X55587Y-164800D02*
X56367D01*
X55977Y-165190D02*
Y-164410D01*
X64279Y-164900D02*
X65059D01*
X64669Y-165290D02*
Y-164510D01*
X64279Y-167800D02*
X65059D01*
X64669Y-168190D02*
Y-167410D01*
X33856Y-166200D02*
X34636D01*
X34246Y-166590D02*
Y-165810D01*
X33856Y-169100D02*
X34636D01*
X34246Y-169490D02*
Y-168710D01*
X42548Y-166100D02*
X43328D01*
X42938Y-166490D02*
Y-165710D01*
X42548Y-169000D02*
X43328D01*
X42938Y-169390D02*
Y-168610D01*
X38202Y-167700D02*
X38982D01*
X38592Y-168090D02*
Y-167310D01*
X38202Y-164800D02*
X38982D01*
X38592Y-165190D02*
Y-164410D01*
X46894Y-164900D02*
X47675D01*
X47285Y-165290D02*
Y-164510D01*
X46894Y-167800D02*
X47675D01*
X47285Y-168190D02*
Y-167410D01*
X7779Y-169100D02*
X8559D01*
X8169Y-169490D02*
Y-168710D01*
X7779Y-166200D02*
X8559D01*
X8169Y-166590D02*
Y-165810D01*
X16472Y-166200D02*
X17252D01*
X16861Y-166590D02*
Y-165810D01*
X16472Y-169100D02*
X17252D01*
X16861Y-169490D02*
Y-168710D01*
X25164Y-166100D02*
X25944D01*
X25554Y-166490D02*
Y-165710D01*
X25164Y-169000D02*
X25944D01*
X25554Y-169390D02*
Y-168610D01*
X12125Y-167700D02*
X12905D01*
X12515Y-168090D02*
Y-167310D01*
X12125Y-164800D02*
X12905D01*
X12515Y-165190D02*
Y-164410D01*
X20818Y-167700D02*
X21598D01*
X21208Y-168090D02*
Y-167310D01*
X20818Y-164800D02*
X21598D01*
X21208Y-165190D02*
Y-164410D01*
X29510Y-164900D02*
X30290D01*
X29900Y-165290D02*
Y-164510D01*
X29510Y-167800D02*
X30290D01*
X29900Y-168190D02*
Y-167410D01*
X-9605Y-169100D02*
X-8825D01*
X-9215Y-169490D02*
Y-168710D01*
X-9605Y-166200D02*
X-8825D01*
X-9215Y-166590D02*
Y-165810D01*
X-913Y-166200D02*
X-133D01*
X-523Y-166590D02*
Y-165810D01*
X-913Y-169100D02*
X-133D01*
X-523Y-169490D02*
Y-168710D01*
X-5259Y-167700D02*
X-4479D01*
X-4869Y-168090D02*
Y-167310D01*
X-5259Y-164800D02*
X-4479D01*
X-4869Y-165190D02*
Y-164410D01*
X3433Y-167700D02*
X4213D01*
X3823Y-168090D02*
Y-167310D01*
X3433Y-164800D02*
X4213D01*
X3823Y-165190D02*
Y-164410D01*
X-26990Y-169100D02*
X-26210D01*
X-26600Y-169490D02*
Y-168710D01*
X-26990Y-166200D02*
X-26210D01*
X-26600Y-166590D02*
Y-165810D01*
X-18298Y-166100D02*
X-17518D01*
X-17908Y-166490D02*
Y-165710D01*
X-18298Y-169000D02*
X-17518D01*
X-17908Y-169390D02*
Y-168610D01*
X-22644Y-167700D02*
X-21864D01*
X-22254Y-168090D02*
Y-167310D01*
X-22644Y-164800D02*
X-21864D01*
X-22254Y-165190D02*
Y-164410D01*
X-13952Y-164900D02*
X-13171D01*
X-13562Y-165290D02*
Y-164510D01*
X-13952Y-167800D02*
X-13171D01*
X-13562Y-168190D02*
Y-167410D01*
X77318Y-169000D02*
X78098D01*
X77708Y-169390D02*
Y-168610D01*
X77318Y-166100D02*
X78098D01*
X77708Y-166490D02*
Y-165710D01*
X86010Y-166100D02*
X86790D01*
X86400Y-166490D02*
Y-165710D01*
X86010Y-169000D02*
X86790D01*
X86400Y-169390D02*
Y-168610D01*
X64925Y135100D02*
X65705D01*
X65315Y134710D02*
Y135490D01*
X64925Y138000D02*
X65705D01*
X65315Y137610D02*
Y138390D01*
X69271Y136500D02*
X70051D01*
X69661Y136110D02*
Y136890D01*
X69271Y139400D02*
X70051D01*
X69661Y139010D02*
Y139790D01*
X77964Y139400D02*
X78744D01*
X78354Y139010D02*
Y139790D01*
X77964Y136500D02*
X78744D01*
X78354Y136110D02*
Y136890D01*
X47541Y135100D02*
X48321D01*
X47931Y134710D02*
Y135490D01*
X47541Y138000D02*
X48321D01*
X47931Y137610D02*
Y138390D01*
X56233Y138100D02*
X57013D01*
X56623Y137710D02*
Y138490D01*
X56233Y135200D02*
X57013D01*
X56623Y134810D02*
Y135590D01*
X51887Y136500D02*
X52667D01*
X52277Y136110D02*
Y136890D01*
X51887Y139400D02*
X52667D01*
X52277Y139010D02*
Y139790D01*
X60579Y139300D02*
X61359D01*
X60969Y138910D02*
Y139690D01*
X60579Y136400D02*
X61359D01*
X60969Y136010D02*
Y136790D01*
X30156Y138000D02*
X30936D01*
X30546Y137610D02*
Y138390D01*
X30156Y135100D02*
X30936D01*
X30546Y134710D02*
Y135490D01*
X38848Y138100D02*
X39628D01*
X39238Y137710D02*
Y138490D01*
X38848Y135200D02*
X39628D01*
X39238Y134810D02*
Y135590D01*
X34502Y136500D02*
X35282D01*
X34892Y136110D02*
Y136890D01*
X34502Y139400D02*
X35282D01*
X34892Y139010D02*
Y139790D01*
X43194Y139300D02*
X43975D01*
X43585Y138910D02*
Y139690D01*
X43194Y136400D02*
X43975D01*
X43585Y136010D02*
Y136790D01*
X4079Y135100D02*
X4859D01*
X4469Y134710D02*
Y135490D01*
X4079Y138000D02*
X4859D01*
X4469Y137610D02*
Y138390D01*
X12772Y138000D02*
X13552D01*
X13161Y137610D02*
Y138390D01*
X12772Y135100D02*
X13552D01*
X13161Y134710D02*
Y135490D01*
X21464Y138100D02*
X22244D01*
X21854Y137710D02*
Y138490D01*
X21464Y135200D02*
X22244D01*
X21854Y134810D02*
Y135590D01*
X8425Y136500D02*
X9205D01*
X8815Y136110D02*
Y136890D01*
X8425Y139400D02*
X9205D01*
X8815Y139010D02*
Y139790D01*
X17118Y136500D02*
X17898D01*
X17508Y136110D02*
Y136890D01*
X17118Y139400D02*
X17898D01*
X17508Y139010D02*
Y139790D01*
X25810Y139300D02*
X26590D01*
X26200Y138910D02*
Y139690D01*
X25810Y136400D02*
X26590D01*
X26200Y136010D02*
Y136790D01*
X-13305Y135100D02*
X-12525D01*
X-12915Y134710D02*
Y135490D01*
X-13305Y138000D02*
X-12525D01*
X-12915Y137610D02*
Y138390D01*
X-4613Y138000D02*
X-3833D01*
X-4223Y137610D02*
Y138390D01*
X-4613Y135100D02*
X-3833D01*
X-4223Y134710D02*
Y135490D01*
X-8959Y136500D02*
X-8179D01*
X-8569Y136110D02*
Y136890D01*
X-8959Y139400D02*
X-8179D01*
X-8569Y139010D02*
Y139790D01*
X-267Y136500D02*
X513D01*
X123Y136110D02*
Y136890D01*
X-267Y139400D02*
X513D01*
X123Y139010D02*
Y139790D01*
X-30690Y135100D02*
X-29910D01*
X-30300Y134710D02*
Y135490D01*
X-30690Y138000D02*
X-29910D01*
X-30300Y137610D02*
Y138390D01*
X-21998Y138100D02*
X-21218D01*
X-21608Y137710D02*
Y138490D01*
X-21998Y135200D02*
X-21218D01*
X-21608Y134810D02*
Y135590D01*
X-26344Y136500D02*
X-25564D01*
X-25954Y136110D02*
Y136890D01*
X-26344Y139400D02*
X-25564D01*
X-25954Y139010D02*
Y139790D01*
X-17652Y139300D02*
X-16872D01*
X-17262Y138910D02*
Y139690D01*
X-17652Y136400D02*
X-16872D01*
X-17262Y136010D02*
Y136790D01*
X73618Y135200D02*
X74398D01*
X74008Y134810D02*
Y135590D01*
X73618Y138100D02*
X74398D01*
X74008Y137710D02*
Y138490D01*
X82310Y138100D02*
X83090D01*
X82700Y137710D02*
Y138490D01*
X82310Y135200D02*
X83090D01*
X82700Y134810D02*
Y135590D01*
X163110Y71400D02*
X163890D01*
X163500Y71010D02*
Y71790D01*
X163110Y75300D02*
X163890D01*
X163500Y74910D02*
Y75690D01*
X165810Y73500D02*
X166590D01*
X166200Y73110D02*
Y73890D01*
X165810Y69700D02*
X166590D01*
X166200Y69310D02*
Y70090D01*
X165810Y93200D02*
X166590D01*
X166200Y92810D02*
Y93590D01*
X165910Y97155D02*
X166690D01*
X166300Y96765D02*
Y97545D01*
X165910Y104300D02*
X166690D01*
X166300Y103910D02*
Y104690D01*
X163210Y102200D02*
X163990D01*
X163600Y101810D02*
Y102590D01*
X163210Y106100D02*
X163990D01*
X163600Y105710D02*
Y106490D01*
X165910Y100500D02*
X166690D01*
X166300Y100110D02*
Y100890D01*
X165910Y89100D02*
X166690D01*
X166300Y88710D02*
Y89490D01*
X163210Y87000D02*
X163990D01*
X163600Y86610D02*
Y87390D01*
X163210Y90900D02*
X163990D01*
X163600Y90510D02*
Y91290D01*
X163210Y98800D02*
X163990D01*
X163600Y98410D02*
Y99190D01*
X165910Y85300D02*
X166690D01*
X166300Y84910D02*
Y85690D01*
X165810Y81400D02*
X166590D01*
X166200Y81010D02*
Y81790D01*
X163110Y83200D02*
X163890D01*
X163500Y82810D02*
Y83590D01*
X165710Y77600D02*
X166490D01*
X166100Y77210D02*
Y77990D01*
X163010Y79400D02*
X163790D01*
X163400Y79010D02*
Y79790D01*
X163186Y94915D02*
X163966D01*
X163576Y94525D02*
Y95305D01*
X168486Y94815D02*
X169266D01*
X168876Y94425D02*
Y95205D01*
X168310Y79300D02*
X169090D01*
X168700Y78910D02*
Y79690D01*
X171010Y77500D02*
X171790D01*
X171400Y77110D02*
Y77890D01*
X168410Y83100D02*
X169190D01*
X168800Y82710D02*
Y83490D01*
X171110Y81300D02*
X171890D01*
X171500Y80910D02*
Y81690D01*
X171210Y85200D02*
X171990D01*
X171600Y84810D02*
Y85590D01*
X168510Y98700D02*
X169290D01*
X168900Y98310D02*
Y99090D01*
X168510Y90800D02*
X169290D01*
X168900Y90410D02*
Y91190D01*
X168510Y86900D02*
X169290D01*
X168900Y86510D02*
Y87290D01*
X171210Y89000D02*
X171990D01*
X171600Y88610D02*
Y89390D01*
X171210Y100400D02*
X171990D01*
X171600Y100010D02*
Y100790D01*
X168510Y106000D02*
X169290D01*
X168900Y105610D02*
Y106390D01*
X168510Y102100D02*
X169290D01*
X168900Y101710D02*
Y102490D01*
X171210Y104200D02*
X171990D01*
X171600Y103810D02*
Y104590D01*
X171210Y97055D02*
X171990D01*
X171600Y96665D02*
Y97445D01*
X171110Y93100D02*
X171890D01*
X171500Y92710D02*
Y93490D01*
X171110Y69600D02*
X171890D01*
X171500Y69210D02*
Y69990D01*
X171110Y73400D02*
X171890D01*
X171500Y73010D02*
Y73790D01*
X168310Y67700D02*
X169090D01*
X168700Y67310D02*
Y68090D01*
X168410Y75200D02*
X169190D01*
X168800Y74810D02*
Y75590D01*
X168410Y71300D02*
X169190D01*
X168800Y70910D02*
Y71690D01*
X174186Y95015D02*
X174966D01*
X174576Y94625D02*
Y95405D01*
X174010Y79500D02*
X174790D01*
X174400Y79110D02*
Y79890D01*
X174110Y83300D02*
X174890D01*
X174500Y82910D02*
Y83690D01*
X174210Y98900D02*
X174990D01*
X174600Y98510D02*
Y99290D01*
X174210Y91000D02*
X174990D01*
X174600Y90610D02*
Y91390D01*
X174210Y87100D02*
X174990D01*
X174600Y86710D02*
Y87490D01*
X174210Y106200D02*
X174990D01*
X174600Y105810D02*
Y106590D01*
X174210Y102300D02*
X174990D01*
X174600Y101910D02*
Y102690D01*
X174010Y67900D02*
X174790D01*
X174400Y67510D02*
Y68290D01*
X174110Y75400D02*
X174890D01*
X174500Y75010D02*
Y75790D01*
X174110Y71500D02*
X174890D01*
X174500Y71110D02*
Y71890D01*
X160335Y77669D02*
X161115D01*
X160725Y77279D02*
Y78059D01*
X137991Y97560D02*
X138771D01*
X138381Y97170D02*
Y97950D01*
X132391Y97560D02*
X133171D01*
X132781Y97170D02*
Y97950D01*
X140691Y79805D02*
X141471D01*
X141081Y79415D02*
Y80195D01*
X143391Y78005D02*
X144171D01*
X143781Y77615D02*
Y78395D01*
X140791Y83605D02*
X141571D01*
X141181Y83215D02*
Y83995D01*
X143491Y81805D02*
X144271D01*
X143881Y81415D02*
Y82195D01*
X137891Y70205D02*
X138671D01*
X138281Y69815D02*
Y70595D01*
X143591Y85705D02*
X144371D01*
X143981Y85315D02*
Y86095D01*
X137991Y85805D02*
X138771D01*
X138381Y85415D02*
Y86195D01*
X137991Y89505D02*
X138771D01*
X138381Y89115D02*
Y89895D01*
X140891Y99205D02*
X141671D01*
X141281Y98815D02*
Y99595D01*
X140891Y91305D02*
X141671D01*
X141281Y90915D02*
Y91695D01*
X140891Y87405D02*
X141671D01*
X141281Y87015D02*
Y87795D01*
X143591Y89505D02*
X144371D01*
X143981Y89115D02*
Y89895D01*
X143591Y100905D02*
X144371D01*
X143981Y100515D02*
Y101295D01*
X137991Y101005D02*
X138771D01*
X138381Y100615D02*
Y101395D01*
X140891Y106505D02*
X141671D01*
X141281Y106115D02*
Y106895D01*
X140891Y102605D02*
X141671D01*
X141281Y102215D02*
Y102995D01*
X143591Y104705D02*
X144371D01*
X143981Y104315D02*
Y105095D01*
X137791Y78005D02*
X138571D01*
X138181Y77615D02*
Y78395D01*
X137891Y73905D02*
X138671D01*
X138281Y73515D02*
Y74295D01*
X143591Y97560D02*
X144371D01*
X143981Y97170D02*
Y97950D01*
X137891Y93128D02*
X138671D01*
X138281Y92738D02*
Y93518D01*
X143491Y93605D02*
X144271D01*
X143881Y93215D02*
Y93995D01*
X143491Y70105D02*
X144271D01*
X143881Y69715D02*
Y70495D01*
X143491Y73905D02*
X144271D01*
X143881Y73515D02*
Y74295D01*
X140691Y68205D02*
X141471D01*
X141081Y67815D02*
Y68595D01*
X140791Y75705D02*
X141571D01*
X141181Y75315D02*
Y76095D01*
X140791Y71805D02*
X141571D01*
X141181Y71415D02*
Y72195D01*
X137891Y81805D02*
X138671D01*
X138281Y81415D02*
Y82195D01*
X135191Y71905D02*
X135971D01*
X135581Y71515D02*
Y72295D01*
X135191Y75805D02*
X135971D01*
X135581Y75415D02*
Y76195D01*
X135091Y68305D02*
X135871D01*
X135481Y67915D02*
Y68695D01*
X132291Y93228D02*
X133071D01*
X132681Y92838D02*
Y93618D01*
X135291Y102705D02*
X136071D01*
X135681Y102315D02*
Y103095D01*
X132391Y101105D02*
X133171D01*
X132781Y100715D02*
Y101495D01*
X135291Y87505D02*
X136071D01*
X135681Y87115D02*
Y87895D01*
X135291Y91405D02*
X136071D01*
X135681Y91015D02*
Y91795D01*
X135291Y99305D02*
X136071D01*
X135681Y98915D02*
Y99695D01*
X132391Y89605D02*
X133171D01*
X132781Y89215D02*
Y89995D01*
X132391Y85905D02*
X133171D01*
X132781Y85515D02*
Y86295D01*
X135191Y83705D02*
X135971D01*
X135581Y83315D02*
Y84095D01*
X135091Y79905D02*
X135871D01*
X135481Y79515D02*
Y80295D01*
X146416Y75874D02*
X147196D01*
X146806Y75484D02*
Y76264D01*
X146316Y79774D02*
X147096D01*
X146706Y79384D02*
Y80164D01*
X128910Y81400D02*
X129690D01*
X129300Y81010D02*
Y81790D01*
X128867Y99731D02*
X129647D01*
X129257Y99341D02*
Y100121D01*
X126810Y91900D02*
X127590D01*
X127200Y91510D02*
Y92290D01*
X126710Y85100D02*
X127490D01*
X127100Y84710D02*
Y85490D01*
X150833Y84898D02*
X151613D01*
X151223Y84508D02*
Y85288D01*
X159635Y-17431D02*
X160415D01*
X160025Y-17821D02*
Y-17041D01*
X154535Y-19131D02*
X155315D01*
X154925Y-19521D02*
Y-18741D01*
X154435Y-15731D02*
X155215D01*
X154825Y-16121D02*
Y-15341D01*
X162082Y-23594D02*
X162862D01*
X162472Y-23984D02*
Y-23204D01*
X162082Y-19694D02*
X162862D01*
X162472Y-20084D02*
Y-19304D01*
X161982Y-27194D02*
X162762D01*
X162372Y-27584D02*
Y-26804D01*
X164782Y-21494D02*
X165562D01*
X165172Y-21884D02*
Y-21104D01*
X164782Y-25294D02*
X165562D01*
X165172Y-25684D02*
Y-24904D01*
X164782Y-1794D02*
X165562D01*
X165172Y-2184D02*
Y-1404D01*
X164882Y2161D02*
X165662D01*
X165272Y1771D02*
Y2551D01*
X162182Y7206D02*
X162962D01*
X162572Y6816D02*
Y7596D01*
X164882Y5506D02*
X165662D01*
X165272Y5116D02*
Y5896D01*
X164882Y-5894D02*
X165662D01*
X165272Y-6284D02*
Y-5504D01*
X162182Y-7994D02*
X162962D01*
X162572Y-8384D02*
Y-7604D01*
X162182Y-4094D02*
X162962D01*
X162572Y-4484D02*
Y-3704D01*
X162182Y3806D02*
X162962D01*
X162572Y3416D02*
Y4196D01*
X164882Y-9694D02*
X165662D01*
X165272Y-10084D02*
Y-9304D01*
X164782Y-13594D02*
X165562D01*
X165172Y-13984D02*
Y-13204D01*
X162082Y-11794D02*
X162862D01*
X162472Y-12184D02*
Y-11404D01*
X164682Y-17394D02*
X165462D01*
X165072Y-17784D02*
Y-17004D01*
X161982Y-15594D02*
X162762D01*
X162372Y-15984D02*
Y-15204D01*
X162158Y-79D02*
X162938D01*
X162548Y-469D02*
Y311D01*
X167458Y-179D02*
X168238D01*
X167848Y-569D02*
Y211D01*
X167282Y-15694D02*
X168062D01*
X167672Y-16084D02*
Y-15304D01*
X169982Y-17494D02*
X170762D01*
X170372Y-17884D02*
Y-17104D01*
X167382Y-11894D02*
X168162D01*
X167772Y-12284D02*
Y-11504D01*
X170082Y-13694D02*
X170862D01*
X170472Y-14084D02*
Y-13304D01*
X170182Y-9794D02*
X170962D01*
X170572Y-10184D02*
Y-9404D01*
X167482Y3706D02*
X168262D01*
X167872Y3316D02*
Y4096D01*
X167482Y-4194D02*
X168262D01*
X167872Y-4584D02*
Y-3804D01*
X167482Y-8094D02*
X168262D01*
X167872Y-8484D02*
Y-7704D01*
X170182Y-5994D02*
X170962D01*
X170572Y-6384D02*
Y-5604D01*
X170182Y5406D02*
X170962D01*
X170572Y5016D02*
Y5796D01*
X167482Y7106D02*
X168262D01*
X167872Y6716D02*
Y7496D01*
X170182Y2061D02*
X170962D01*
X170572Y1671D02*
Y2451D01*
X170082Y-1894D02*
X170862D01*
X170472Y-2284D02*
Y-1504D01*
X170082Y-25394D02*
X170862D01*
X170472Y-25784D02*
Y-25004D01*
X170082Y-21594D02*
X170862D01*
X170472Y-21984D02*
Y-21204D01*
X167282Y-27294D02*
X168062D01*
X167672Y-27684D02*
Y-26904D01*
X167382Y-19794D02*
X168162D01*
X167772Y-20184D02*
Y-19404D01*
X167382Y-23694D02*
X168162D01*
X167772Y-24084D02*
Y-23304D01*
X173158Y21D02*
X173938D01*
X173548Y-369D02*
Y411D01*
X172982Y-15494D02*
X173762D01*
X173372Y-15884D02*
Y-15104D01*
X173082Y-11694D02*
X173862D01*
X173472Y-12084D02*
Y-11304D01*
X173182Y3906D02*
X173962D01*
X173572Y3516D02*
Y4296D01*
X173182Y-3994D02*
X173962D01*
X173572Y-4384D02*
Y-3604D01*
X173182Y-7894D02*
X173962D01*
X173572Y-8284D02*
Y-7504D01*
X173182Y11206D02*
X173962D01*
X173572Y10816D02*
Y11596D01*
X173182Y7306D02*
X173962D01*
X173572Y6916D02*
Y7696D01*
X172982Y-27094D02*
X173762D01*
X173372Y-27484D02*
Y-26704D01*
X173082Y-19594D02*
X173862D01*
X173472Y-19984D02*
Y-19204D01*
X173082Y-23494D02*
X173862D01*
X173472Y-23884D02*
Y-23104D01*
X169710Y20000D02*
X170490D01*
X170100Y19610D02*
Y20390D01*
X140410Y-26900D02*
X141190D01*
X140800Y-27290D02*
Y-26510D01*
X143266Y9122D02*
X144046D01*
X143656Y8732D02*
Y9512D01*
X137714Y1870D02*
X138494D01*
X138104Y1480D02*
Y2260D01*
X140414Y-15730D02*
X141194D01*
X140804Y-16120D02*
Y-15340D01*
X143114Y-17530D02*
X143894D01*
X143504Y-17920D02*
Y-17140D01*
X140514Y-11930D02*
X141294D01*
X140904Y-12320D02*
Y-11540D01*
X143214Y-13730D02*
X143994D01*
X143604Y-14120D02*
Y-13340D01*
X137614Y-25330D02*
X138394D01*
X138004Y-25720D02*
Y-24940D01*
X143314Y-9830D02*
X144094D01*
X143704Y-10220D02*
Y-9440D01*
X137714Y-9730D02*
X138494D01*
X138104Y-10120D02*
Y-9340D01*
X137714Y-6030D02*
X138494D01*
X138104Y-6420D02*
Y-5640D01*
X140614Y3670D02*
X141394D01*
X141004Y3280D02*
Y4060D01*
X140614Y-4230D02*
X141394D01*
X141004Y-4620D02*
Y-3840D01*
X140614Y-8130D02*
X141394D01*
X141004Y-8520D02*
Y-7740D01*
X143314Y-6030D02*
X144094D01*
X143704Y-6420D02*
Y-5640D01*
X143314Y5370D02*
X144094D01*
X143704Y4980D02*
Y5760D01*
X137714Y5470D02*
X138494D01*
X138104Y5080D02*
Y5860D01*
X140614Y7070D02*
X141394D01*
X141004Y6680D02*
Y7460D01*
X137514Y-17530D02*
X138294D01*
X137904Y-17920D02*
Y-17140D01*
X137614Y-21630D02*
X138394D01*
X138004Y-22020D02*
Y-21240D01*
X143314Y2025D02*
X144094D01*
X143704Y1635D02*
Y2415D01*
X137614Y-2407D02*
X138394D01*
X138004Y-2797D02*
Y-2017D01*
X143214Y-1930D02*
X143994D01*
X143604Y-2320D02*
Y-1540D01*
X143214Y-25430D02*
X143994D01*
X143604Y-25820D02*
Y-25040D01*
X143214Y-21630D02*
X143994D01*
X143604Y-22020D02*
Y-21240D01*
X140514Y-19830D02*
X141294D01*
X140904Y-20220D02*
Y-19440D01*
X140514Y-23730D02*
X141294D01*
X140904Y-24120D02*
Y-23340D01*
X137614Y-13730D02*
X138394D01*
X138004Y-14120D02*
Y-13340D01*
X134914Y-23630D02*
X135694D01*
X135304Y-24020D02*
Y-23240D01*
X134914Y-19730D02*
X135694D01*
X135304Y-20120D02*
Y-19340D01*
X134814Y-27230D02*
X135594D01*
X135204Y-27620D02*
Y-26840D01*
X132014Y-2307D02*
X132794D01*
X132404Y-2697D02*
Y-1917D01*
X132114Y1970D02*
X132894D01*
X132504Y1580D02*
Y2360D01*
X135014Y7170D02*
X135794D01*
X135404Y6780D02*
Y7560D01*
X132114Y5570D02*
X132894D01*
X132504Y5180D02*
Y5960D01*
X135014Y-8030D02*
X135794D01*
X135404Y-8420D02*
Y-7640D01*
X135014Y-4130D02*
X135794D01*
X135404Y-4520D02*
Y-3740D01*
X135014Y3770D02*
X135794D01*
X135404Y3380D02*
Y4160D01*
X132114Y-5930D02*
X132894D01*
X132504Y-6320D02*
Y-5540D01*
X132114Y-9630D02*
X132894D01*
X132504Y-10020D02*
Y-9240D01*
X134914Y-11830D02*
X135694D01*
X135304Y-12220D02*
Y-11440D01*
X134814Y-15630D02*
X135594D01*
X135204Y-16020D02*
Y-15240D01*
X146139Y-19661D02*
X146919D01*
X146529Y-20051D02*
Y-19271D01*
X146039Y-15761D02*
X146819D01*
X146429Y-16151D02*
Y-15371D01*
X124930Y-5026D02*
X125710D01*
X125320Y-5416D02*
Y-4636D01*
X125135Y-8131D02*
X125915D01*
X125525Y-8521D02*
Y-7741D01*
X127335Y-15831D02*
X128115D01*
X127725Y-16221D02*
Y-15441D01*
X152835Y-109431D02*
X153615D01*
X153225Y-109821D02*
Y-109041D01*
X152935Y-112831D02*
X153715D01*
X153325Y-113221D02*
Y-112441D01*
X158035Y-111131D02*
X158815D01*
X158425Y-111521D02*
Y-110741D01*
X145335Y-109331D02*
X146115D01*
X145725Y-109721D02*
Y-108941D01*
X145435Y-113231D02*
X146215D01*
X145825Y-113621D02*
Y-112841D01*
X171810Y-117300D02*
X172590D01*
X172200Y-117690D02*
Y-116910D01*
X171810Y-113400D02*
X172590D01*
X172200Y-113790D02*
Y-113010D01*
X171710Y-120900D02*
X172490D01*
X172100Y-121290D02*
Y-120510D01*
X171910Y-86500D02*
X172690D01*
X172300Y-86890D02*
Y-86110D01*
X171910Y-82600D02*
X172690D01*
X172300Y-82990D02*
Y-82210D01*
X171910Y-101700D02*
X172690D01*
X172300Y-102090D02*
Y-101310D01*
X171910Y-97800D02*
X172690D01*
X172300Y-98190D02*
Y-97410D01*
X171910Y-89900D02*
X172690D01*
X172300Y-90290D02*
Y-89510D01*
X171810Y-105500D02*
X172590D01*
X172200Y-105890D02*
Y-105110D01*
X171710Y-109300D02*
X172490D01*
X172100Y-109690D02*
Y-108910D01*
X171886Y-93785D02*
X172666D01*
X172276Y-94175D02*
Y-93395D01*
X166110Y-117500D02*
X166890D01*
X166500Y-117890D02*
Y-117110D01*
X166110Y-113600D02*
X166890D01*
X166500Y-113990D02*
Y-113210D01*
X166010Y-121100D02*
X166790D01*
X166400Y-121490D02*
Y-120710D01*
X168810Y-115400D02*
X169590D01*
X169200Y-115790D02*
Y-115010D01*
X168810Y-119200D02*
X169590D01*
X169200Y-119590D02*
Y-118810D01*
X168810Y-95700D02*
X169590D01*
X169200Y-96090D02*
Y-95310D01*
X168910Y-91745D02*
X169690D01*
X169300Y-92135D02*
Y-91355D01*
X168910Y-84600D02*
X169690D01*
X169300Y-84990D02*
Y-84210D01*
X166210Y-86700D02*
X166990D01*
X166600Y-87090D02*
Y-86310D01*
X166210Y-82800D02*
X166990D01*
X166600Y-83190D02*
Y-82410D01*
X168910Y-88400D02*
X169690D01*
X169300Y-88790D02*
Y-88010D01*
X168910Y-99800D02*
X169690D01*
X169300Y-100190D02*
Y-99410D01*
X166210Y-101900D02*
X166990D01*
X166600Y-102290D02*
Y-101510D01*
X166210Y-98000D02*
X166990D01*
X166600Y-98390D02*
Y-97610D01*
X166210Y-90100D02*
X166990D01*
X166600Y-90490D02*
Y-89710D01*
X168910Y-103600D02*
X169690D01*
X169300Y-103990D02*
Y-103210D01*
X168810Y-107500D02*
X169590D01*
X169200Y-107890D02*
Y-107110D01*
X166110Y-105700D02*
X166890D01*
X166500Y-106090D02*
Y-105310D01*
X168710Y-111300D02*
X169490D01*
X169100Y-111690D02*
Y-110910D01*
X166010Y-109500D02*
X166790D01*
X166400Y-109890D02*
Y-109110D01*
X166186Y-93985D02*
X166966D01*
X166576Y-94375D02*
Y-93595D01*
X160886Y-93885D02*
X161666D01*
X161276Y-94275D02*
Y-93495D01*
X160710Y-109400D02*
X161490D01*
X161100Y-109790D02*
Y-109010D01*
X163410Y-111200D02*
X164190D01*
X163800Y-111590D02*
Y-110810D01*
X160810Y-105600D02*
X161590D01*
X161200Y-105990D02*
Y-105210D01*
X163510Y-107400D02*
X164290D01*
X163900Y-107790D02*
Y-107010D01*
X163610Y-103500D02*
X164390D01*
X164000Y-103890D02*
Y-103110D01*
X160910Y-90000D02*
X161690D01*
X161300Y-90390D02*
Y-89610D01*
X160910Y-97900D02*
X161690D01*
X161300Y-98290D02*
Y-97510D01*
X160910Y-101800D02*
X161690D01*
X161300Y-102190D02*
Y-101410D01*
X163610Y-99700D02*
X164390D01*
X164000Y-100090D02*
Y-99310D01*
X163610Y-88300D02*
X164390D01*
X164000Y-88690D02*
Y-87910D01*
X160910Y-82700D02*
X161690D01*
X161300Y-83090D02*
Y-82310D01*
X160910Y-86600D02*
X161690D01*
X161300Y-86990D02*
Y-86210D01*
X163610Y-84500D02*
X164390D01*
X164000Y-84890D02*
Y-84110D01*
X163610Y-91645D02*
X164390D01*
X164000Y-92035D02*
Y-91255D01*
X163510Y-95600D02*
X164290D01*
X163900Y-95990D02*
Y-95210D01*
X163510Y-119100D02*
X164290D01*
X163900Y-119490D02*
Y-118710D01*
X163510Y-115300D02*
X164290D01*
X163900Y-115690D02*
Y-114910D01*
X160710Y-121000D02*
X161490D01*
X161100Y-121390D02*
Y-120610D01*
X160810Y-113500D02*
X161590D01*
X161200Y-113890D02*
Y-113110D01*
X160810Y-117400D02*
X161590D01*
X161200Y-117790D02*
Y-117010D01*
X134110Y-109200D02*
X134890D01*
X134500Y-109590D02*
Y-108810D01*
X134210Y-105400D02*
X134990D01*
X134600Y-105790D02*
Y-105010D01*
X131410Y-103200D02*
X132190D01*
X131800Y-103590D02*
Y-102810D01*
X131410Y-99500D02*
X132190D01*
X131800Y-99890D02*
Y-99110D01*
X134310Y-89800D02*
X135090D01*
X134700Y-90190D02*
Y-89410D01*
X134310Y-97700D02*
X135090D01*
X134700Y-98090D02*
Y-97310D01*
X134310Y-101600D02*
X135090D01*
X134700Y-101990D02*
Y-101210D01*
X131410Y-88000D02*
X132190D01*
X131800Y-88390D02*
Y-87610D01*
X134310Y-86400D02*
X135090D01*
X134700Y-86790D02*
Y-86010D01*
X131410Y-91600D02*
X132190D01*
X131800Y-91990D02*
Y-91210D01*
X131310Y-95877D02*
X132090D01*
X131700Y-96267D02*
Y-95487D01*
X134110Y-120800D02*
X134890D01*
X134500Y-121190D02*
Y-120410D01*
X134210Y-113300D02*
X134990D01*
X134600Y-113690D02*
Y-112910D01*
X134210Y-117200D02*
X134990D01*
X134600Y-117590D02*
Y-116810D01*
X153071Y-98402D02*
X153851D01*
X153461Y-98792D02*
Y-98012D01*
X96010Y-128700D02*
X96790D01*
X96400Y-129090D02*
Y-128310D01*
X96010Y-134500D02*
X96790D01*
X96400Y-134890D02*
Y-134110D01*
X136910Y-107300D02*
X137690D01*
X137300Y-107690D02*
Y-106910D01*
X139810Y-117300D02*
X140590D01*
X140200Y-117690D02*
Y-116910D01*
X139810Y-113400D02*
X140590D01*
X140200Y-113790D02*
Y-113010D01*
X139710Y-120900D02*
X140490D01*
X140100Y-121290D02*
Y-120510D01*
X96110Y-86500D02*
X96890D01*
X96500Y-86890D02*
Y-86110D01*
X96210Y-91467D02*
X96990D01*
X96600Y-91857D02*
Y-91077D01*
X96210Y-96433D02*
X96990D01*
X96600Y-96823D02*
Y-96043D01*
X96210Y-101400D02*
X96990D01*
X96600Y-101790D02*
Y-101010D01*
X142510Y-115200D02*
X143290D01*
X142900Y-115590D02*
Y-114810D01*
X142510Y-119000D02*
X143290D01*
X142900Y-119390D02*
Y-118610D01*
X142510Y-95500D02*
X143290D01*
X142900Y-95890D02*
Y-95110D01*
X136910Y-95977D02*
X137690D01*
X137300Y-96367D02*
Y-95587D01*
X142610Y-91545D02*
X143390D01*
X143000Y-91935D02*
Y-91155D01*
X137010Y-91700D02*
X137790D01*
X137400Y-92090D02*
Y-91310D01*
X150349Y-103433D02*
X151129D01*
X150739Y-103823D02*
Y-103043D01*
X136910Y-115200D02*
X137690D01*
X137300Y-115590D02*
Y-114810D01*
X136810Y-111100D02*
X137590D01*
X137200Y-111490D02*
Y-110710D01*
X142610Y-84400D02*
X143390D01*
X143000Y-84790D02*
Y-84010D01*
X139910Y-86500D02*
X140690D01*
X140300Y-86890D02*
Y-86110D01*
X139910Y-82600D02*
X140690D01*
X140300Y-82990D02*
Y-82210D01*
X137010Y-88100D02*
X137790D01*
X137400Y-88490D02*
Y-87710D01*
X142610Y-88200D02*
X143390D01*
X143000Y-88590D02*
Y-87810D01*
X142610Y-99600D02*
X143390D01*
X143000Y-99990D02*
Y-99210D01*
X139910Y-101700D02*
X140690D01*
X140300Y-102090D02*
Y-101310D01*
X139910Y-97800D02*
X140690D01*
X140300Y-98190D02*
Y-97410D01*
X139910Y-89900D02*
X140690D01*
X140300Y-90290D02*
Y-89510D01*
X137010Y-99600D02*
X137790D01*
X137400Y-99990D02*
Y-99210D01*
X137010Y-103300D02*
X137790D01*
X137400Y-103690D02*
Y-102910D01*
X142610Y-103400D02*
X143390D01*
X143000Y-103790D02*
Y-103010D01*
X136910Y-118900D02*
X137690D01*
X137300Y-119290D02*
Y-118510D01*
X129082Y-104300D02*
X129862D01*
X129472Y-104690D02*
Y-103910D01*
X127210Y-114300D02*
X127990D01*
X127600Y-114690D02*
Y-113910D01*
X129110Y-110400D02*
X129890D01*
X129500Y-110790D02*
Y-110010D01*
X127110Y-96500D02*
X127890D01*
X127500Y-96890D02*
Y-96110D01*
X142510Y-107300D02*
X143290D01*
X142900Y-107690D02*
Y-106910D01*
X139810Y-105500D02*
X140590D01*
X140200Y-105890D02*
Y-105110D01*
X142410Y-111100D02*
X143190D01*
X142800Y-111490D02*
Y-110710D01*
X139710Y-109300D02*
X140490D01*
X140100Y-109690D02*
Y-108910D01*
X142852Y56362D02*
X143632D01*
X143242Y55972D02*
Y56752D01*
X141552Y-38968D02*
X142332D01*
X141942Y-39358D02*
Y-38578D01*
X140051Y-132523D02*
X140831D01*
X140441Y-132913D02*
Y-132133D01*
X171140Y143715D02*
X171920D01*
X171530Y143325D02*
Y144105D01*
X124033Y12600D02*
X124813D01*
X124423Y12210D02*
Y12990D01*
X127510Y2900D02*
X128290D01*
X127900Y2510D02*
Y3290D01*
X82516Y125260D02*
X83296D01*
X82906Y124870D02*
Y125650D01*
X82516Y128160D02*
X83296D01*
X82906Y127770D02*
Y128550D01*
X73823Y128160D02*
X74603D01*
X74213Y127770D02*
Y128550D01*
X73823Y125260D02*
X74603D01*
X74213Y124870D02*
Y125650D01*
X91157Y127560D02*
X91937D01*
X91547Y127170D02*
Y127950D01*
X91157Y121760D02*
X91937D01*
X91547Y121370D02*
Y122150D01*
X91157Y124660D02*
X91937D01*
X91547Y124270D02*
Y125050D01*
X91157Y118860D02*
X91937D01*
X91547Y118470D02*
Y119250D01*
X91157Y130660D02*
X91937D01*
X91547Y130270D02*
Y131050D01*
X95399Y116773D02*
X96179D01*
X95789Y116383D02*
Y117163D01*
X95399Y119673D02*
X96179D01*
X95789Y119283D02*
Y120063D01*
X95399Y125473D02*
X96179D01*
X95789Y125083D02*
Y125863D01*
X95399Y122573D02*
X96179D01*
X95789Y122183D02*
Y122963D01*
X95399Y128373D02*
X96179D01*
X95789Y127983D02*
Y128763D01*
X86916Y129060D02*
X87696D01*
X87306Y128670D02*
Y129450D01*
X86916Y123260D02*
X87696D01*
X87306Y122870D02*
Y123650D01*
X86916Y126160D02*
X87696D01*
X87306Y125770D02*
Y126550D01*
X86916Y120360D02*
X87696D01*
X87306Y119970D02*
Y120750D01*
X86916Y117460D02*
X87696D01*
X87306Y117070D02*
Y117850D01*
X103882Y127973D02*
X104662D01*
X104272Y127583D02*
Y128363D01*
X103882Y122173D02*
X104662D01*
X104272Y121783D02*
Y122563D01*
X103882Y125073D02*
X104662D01*
X104272Y124683D02*
Y125463D01*
X103882Y119273D02*
X104662D01*
X104272Y118883D02*
Y119663D01*
X103882Y116373D02*
X104662D01*
X104272Y115983D02*
Y116763D01*
X111916Y122260D02*
X112696D01*
X112306Y121870D02*
Y122650D01*
X111916Y119360D02*
X112696D01*
X112306Y118970D02*
Y119750D01*
X108124Y117773D02*
X108904D01*
X108514Y117383D02*
Y118163D01*
X108124Y123573D02*
X108904D01*
X108514Y123183D02*
Y123963D01*
X108124Y120673D02*
X108904D01*
X108514Y120283D02*
Y121063D01*
X108124Y126473D02*
X108904D01*
X108514Y126083D02*
Y126863D01*
X99641Y120873D02*
X100420D01*
X100031Y120483D02*
Y121263D01*
X99641Y126673D02*
X100420D01*
X100031Y126283D02*
Y127063D01*
X99641Y117973D02*
X100420D01*
X100031Y117583D02*
Y118363D01*
X99641Y123773D02*
X100420D01*
X100031Y123383D02*
Y124163D01*
X99641Y129773D02*
X100420D01*
X100031Y129383D02*
Y130163D01*
X91157Y115860D02*
X91937D01*
X91547Y115470D02*
Y116250D01*
X-17446Y126460D02*
X-16666D01*
X-17056Y126070D02*
Y126850D01*
X-17446Y129360D02*
X-16666D01*
X-17056Y128970D02*
Y129750D01*
X-26138Y129460D02*
X-25358D01*
X-25748Y129070D02*
Y129850D01*
X-26138Y126560D02*
X-25358D01*
X-25748Y126170D02*
Y126950D01*
X-21792Y125260D02*
X-21012D01*
X-21402Y124870D02*
Y125650D01*
X-21792Y128160D02*
X-21012D01*
X-21402Y127770D02*
Y128550D01*
X-30484Y128060D02*
X-29704D01*
X-30094Y127670D02*
Y128450D01*
X-30484Y125160D02*
X-29704D01*
X-30094Y124770D02*
Y125550D01*
X-61Y129460D02*
X719D01*
X329Y129070D02*
Y129850D01*
X-61Y126560D02*
X719D01*
X329Y126170D02*
Y126950D01*
X-8754Y129460D02*
X-7974D01*
X-8364Y129070D02*
Y129850D01*
X-8754Y126560D02*
X-7974D01*
X-8364Y126170D02*
Y126950D01*
X-4408Y125160D02*
X-3627D01*
X-4017Y124770D02*
Y125550D01*
X-4408Y128060D02*
X-3627D01*
X-4017Y127670D02*
Y128450D01*
X-13100Y128060D02*
X-12320D01*
X-12710Y127670D02*
Y128450D01*
X-13100Y125160D02*
X-12320D01*
X-12710Y124770D02*
Y125550D01*
X26016Y126460D02*
X26796D01*
X26406Y126070D02*
Y126850D01*
X26016Y129360D02*
X26796D01*
X26406Y128970D02*
Y129750D01*
X17323Y129460D02*
X18103D01*
X17713Y129070D02*
Y129850D01*
X17323Y126560D02*
X18103D01*
X17713Y126170D02*
Y126950D01*
X8631Y129460D02*
X9411D01*
X9021Y129070D02*
Y129850D01*
X8631Y126560D02*
X9411D01*
X9021Y126170D02*
Y126950D01*
X21669Y125260D02*
X22449D01*
X22059Y124870D02*
Y125650D01*
X21669Y128160D02*
X22449D01*
X22059Y127770D02*
Y128550D01*
X12977Y125160D02*
X13757D01*
X13367Y124770D02*
Y125550D01*
X12977Y128060D02*
X13757D01*
X13367Y127670D02*
Y128450D01*
X4285Y128060D02*
X5065D01*
X4675Y127670D02*
Y128450D01*
X4285Y125160D02*
X5065D01*
X4675Y124770D02*
Y125550D01*
X43400Y126460D02*
X44180D01*
X43790Y126070D02*
Y126850D01*
X43400Y129360D02*
X44180D01*
X43790Y128970D02*
Y129750D01*
X34708Y129460D02*
X35488D01*
X35098Y129070D02*
Y129850D01*
X34708Y126560D02*
X35488D01*
X35098Y126170D02*
Y126950D01*
X39054Y125260D02*
X39834D01*
X39444Y124870D02*
Y125650D01*
X39054Y128160D02*
X39834D01*
X39444Y127770D02*
Y128550D01*
X30362Y125160D02*
X31142D01*
X30752Y124770D02*
Y125550D01*
X30362Y128060D02*
X31142D01*
X30752Y127670D02*
Y128450D01*
X60785Y126460D02*
X61565D01*
X61175Y126070D02*
Y126850D01*
X60785Y129360D02*
X61565D01*
X61175Y128970D02*
Y129750D01*
X52092Y129460D02*
X52873D01*
X52482Y129070D02*
Y129850D01*
X52092Y126560D02*
X52873D01*
X52482Y126170D02*
Y126950D01*
X56439Y125260D02*
X57219D01*
X56829Y124870D02*
Y125650D01*
X56439Y128160D02*
X57219D01*
X56829Y127770D02*
Y128550D01*
X47746Y128060D02*
X48526D01*
X48136Y127670D02*
Y128450D01*
X47746Y125160D02*
X48526D01*
X48136Y124770D02*
Y125550D01*
X78169Y126560D02*
X78949D01*
X78559Y126170D02*
Y126950D01*
X78169Y129460D02*
X78949D01*
X78559Y129070D02*
Y129850D01*
X69477Y129460D02*
X70257D01*
X69867Y129070D02*
Y129850D01*
X69477Y126560D02*
X70257D01*
X69867Y126170D02*
Y126950D01*
X65131Y128060D02*
X65911D01*
X65521Y127670D02*
Y128450D01*
X65131Y125160D02*
X65911D01*
X65521Y124770D02*
Y125550D01*
X43937Y98800D02*
X44717D01*
X44327Y98410D02*
Y99190D01*
X5210Y99100D02*
X5990D01*
X5600Y98710D02*
Y99490D01*
X-36917Y99000D02*
X-36137D01*
X-36527Y98610D02*
Y99390D01*
X109110Y86100D02*
X109890D01*
X109500Y85710D02*
Y86490D01*
X76985Y89182D02*
X77765D01*
X77375Y88792D02*
Y89572D01*
X96410Y105033D02*
X97190D01*
X96800Y104643D02*
Y105423D01*
X96410Y100067D02*
X97190D01*
X96800Y99677D02*
Y100457D01*
X89610Y100000D02*
X90390D01*
X90000Y99610D02*
Y100390D01*
X89610Y105000D02*
X90390D01*
X90000Y104610D02*
Y105390D01*
X89610Y95000D02*
X90390D01*
X90000Y94610D02*
Y95390D01*
X96410Y95100D02*
X97190D01*
X96800Y94710D02*
Y95490D01*
X105910Y108100D02*
X106690D01*
X106300Y107710D02*
Y108490D01*
X105910Y103175D02*
X106690D01*
X106300Y102785D02*
Y103565D01*
X105910Y98250D02*
X106690D01*
X106300Y97860D02*
Y98640D01*
X112410Y108200D02*
X113190D01*
X112800Y107810D02*
Y108590D01*
X112410Y103175D02*
X113190D01*
X112800Y102785D02*
Y103565D01*
X112410Y98150D02*
X113190D01*
X112800Y97760D02*
Y98540D01*
X109210Y101475D02*
X109990D01*
X109600Y101085D02*
Y101865D01*
X109210Y106600D02*
X109990D01*
X109600Y106210D02*
Y106990D01*
X109210Y96350D02*
X109990D01*
X109600Y95960D02*
Y96740D01*
X109210Y91225D02*
X109990D01*
X109600Y90835D02*
Y91615D01*
X112410Y93125D02*
X113190D01*
X112800Y92735D02*
Y93515D01*
X106010Y93325D02*
X106790D01*
X106400Y92935D02*
Y93715D01*
X102810Y95100D02*
X103590D01*
X103200Y94710D02*
Y95490D01*
X102810Y90400D02*
X103590D01*
X103200Y90010D02*
Y90790D01*
X102810Y101000D02*
X103590D01*
X103200Y100610D02*
Y101390D01*
X102810Y106800D02*
X103590D01*
X103200Y106410D02*
Y107190D01*
X102710Y86300D02*
X103490D01*
X103100Y85910D02*
Y86690D01*
X106010Y88400D02*
X106790D01*
X106400Y88010D02*
Y88790D01*
X112410Y88100D02*
X113190D01*
X112800Y87710D02*
Y88490D01*
X96410Y86700D02*
X97190D01*
X96800Y86310D02*
Y87090D01*
X99710Y88700D02*
X100490D01*
X100100Y88310D02*
Y89090D01*
X93310Y88900D02*
X94090D01*
X93700Y88510D02*
Y89290D01*
X93210Y92800D02*
X93990D01*
X93600Y92410D02*
Y93190D01*
X99710Y92900D02*
X100490D01*
X100100Y92510D02*
Y93290D01*
X96410Y90600D02*
X97190D01*
X96800Y90210D02*
Y90990D01*
X89710Y90700D02*
X90490D01*
X90100Y90310D02*
Y91090D01*
X89810Y86700D02*
X90590D01*
X90200Y86310D02*
Y87090D01*
X83010Y91400D02*
X83790D01*
X83400Y91010D02*
Y91790D01*
X86410Y92400D02*
X87190D01*
X86800Y92010D02*
Y92790D01*
X79810Y93100D02*
X80590D01*
X80200Y92710D02*
Y93490D01*
X79710Y87200D02*
X80490D01*
X80100Y86810D02*
Y87590D01*
X86410Y89000D02*
X87190D01*
X86800Y88610D02*
Y89390D01*
X82910Y86600D02*
X83690D01*
X83300Y86210D02*
Y86990D01*
X77110Y98600D02*
X77890D01*
X77500Y98210D02*
Y98990D01*
X77110Y94100D02*
X77890D01*
X77500Y93710D02*
Y94490D01*
X82410Y103700D02*
X83190D01*
X82800Y103310D02*
Y104090D01*
X80910Y96500D02*
X81690D01*
X81300Y96110D02*
Y96890D01*
X86310Y96800D02*
X87090D01*
X86700Y96410D02*
Y97190D01*
X86310Y102600D02*
X87090D01*
X86700Y102210D02*
Y102990D01*
X86310Y108400D02*
X87090D01*
X86700Y108010D02*
Y108790D01*
X93110Y108400D02*
X93890D01*
X93500Y108010D02*
Y108790D01*
X93110Y102600D02*
X93890D01*
X93500Y102210D02*
Y102990D01*
X93110Y96800D02*
X93890D01*
X93500Y96410D02*
Y97190D01*
X99610Y108500D02*
X100390D01*
X100000Y108110D02*
Y108890D01*
X99610Y102700D02*
X100390D01*
X100000Y102310D02*
Y103090D01*
X99610Y96900D02*
X100390D01*
X100000Y96510D02*
Y97290D01*
X89610Y110000D02*
X90390D01*
X90000Y109610D02*
Y110390D01*
X96310Y110000D02*
X97090D01*
X96700Y109610D02*
Y110390D01*
X81010Y100700D02*
X81790D01*
X81400Y100310D02*
Y101090D01*
X83465Y98600D02*
X84245D01*
X83855Y98210D02*
Y98990D01*
X41510Y100900D02*
X42290D01*
X41900Y100510D02*
Y101290D01*
X56810Y110200D02*
X57590D01*
X57200Y109810D02*
Y110590D01*
X50110Y110200D02*
X50890D01*
X50500Y109810D02*
Y110590D01*
X60110Y97100D02*
X60890D01*
X60500Y96710D02*
Y97490D01*
X60110Y102900D02*
X60890D01*
X60500Y102510D02*
Y103290D01*
X60110Y108700D02*
X60890D01*
X60500Y108310D02*
Y109090D01*
X53610Y97000D02*
X54390D01*
X54000Y96610D02*
Y97390D01*
X53610Y102800D02*
X54390D01*
X54000Y102410D02*
Y103190D01*
X53610Y108600D02*
X54390D01*
X54000Y108210D02*
Y108990D01*
X46810Y108600D02*
X47590D01*
X47200Y108210D02*
Y108990D01*
X46810Y102800D02*
X47590D01*
X47200Y102410D02*
Y103190D01*
X46810Y97000D02*
X47590D01*
X47200Y96610D02*
Y97390D01*
X41410Y96700D02*
X42190D01*
X41800Y96310D02*
Y97090D01*
X42910Y103900D02*
X43690D01*
X43300Y103510D02*
Y104290D01*
X37610Y94300D02*
X38390D01*
X38000Y93910D02*
Y94690D01*
X37610Y98800D02*
X38390D01*
X38000Y98410D02*
Y99190D01*
X43410Y86800D02*
X44190D01*
X43800Y86410D02*
Y87190D01*
X46910Y89200D02*
X47690D01*
X47300Y88810D02*
Y89590D01*
X40210Y87400D02*
X40990D01*
X40600Y87010D02*
Y87790D01*
X40310Y93300D02*
X41090D01*
X40700Y92910D02*
Y93690D01*
X46910Y92600D02*
X47690D01*
X47300Y92210D02*
Y92990D01*
X43510Y91600D02*
X44290D01*
X43900Y91210D02*
Y91990D01*
X50310Y86900D02*
X51090D01*
X50700Y86510D02*
Y87290D01*
X50210Y90900D02*
X50990D01*
X50600Y90510D02*
Y91290D01*
X56910Y90800D02*
X57690D01*
X57300Y90410D02*
Y91190D01*
X60210Y93100D02*
X60990D01*
X60600Y92710D02*
Y93490D01*
X53710Y93000D02*
X54490D01*
X54100Y92610D02*
Y93390D01*
X53810Y89100D02*
X54590D01*
X54200Y88710D02*
Y89490D01*
X60210Y88900D02*
X60990D01*
X60600Y88510D02*
Y89290D01*
X56910Y86900D02*
X57690D01*
X57300Y86510D02*
Y87290D01*
X72910Y88300D02*
X73690D01*
X73300Y87910D02*
Y88690D01*
X66510Y88600D02*
X67290D01*
X66900Y88210D02*
Y88990D01*
X63210Y86500D02*
X63990D01*
X63600Y86110D02*
Y86890D01*
X63310Y107000D02*
X64090D01*
X63700Y106610D02*
Y107390D01*
X63310Y101200D02*
X64090D01*
X63700Y100810D02*
Y101590D01*
X63310Y90600D02*
X64090D01*
X63700Y90210D02*
Y90990D01*
X63310Y95300D02*
X64090D01*
X63700Y94910D02*
Y95690D01*
X66510Y93525D02*
X67290D01*
X66900Y93135D02*
Y93915D01*
X72910Y93325D02*
X73690D01*
X73300Y92935D02*
Y93715D01*
X69710Y91425D02*
X70490D01*
X70100Y91035D02*
Y91815D01*
X69710Y96550D02*
X70490D01*
X70100Y96160D02*
Y96940D01*
X69710Y106800D02*
X70490D01*
X70100Y106410D02*
Y107190D01*
X69710Y101675D02*
X70490D01*
X70100Y101285D02*
Y102065D01*
X72910Y98350D02*
X73690D01*
X73300Y97960D02*
Y98740D01*
X72910Y103375D02*
X73690D01*
X73300Y102985D02*
Y103765D01*
X72910Y108400D02*
X73690D01*
X73300Y108010D02*
Y108790D01*
X66410Y98450D02*
X67190D01*
X66800Y98060D02*
Y98840D01*
X66410Y103375D02*
X67190D01*
X66800Y102985D02*
Y103765D01*
X66410Y108300D02*
X67190D01*
X66800Y107910D02*
Y108690D01*
X56910Y95300D02*
X57690D01*
X57300Y94910D02*
Y95690D01*
X50110Y95200D02*
X50890D01*
X50500Y94810D02*
Y95590D01*
X50110Y105200D02*
X50890D01*
X50500Y104810D02*
Y105590D01*
X50110Y100200D02*
X50890D01*
X50500Y99810D02*
Y100590D01*
X56910Y100267D02*
X57690D01*
X57300Y99877D02*
Y100657D01*
X56910Y105233D02*
X57690D01*
X57300Y104843D02*
Y105623D01*
X37485Y89382D02*
X38265D01*
X37875Y88992D02*
Y89772D01*
X69610Y86300D02*
X70390D01*
X70000Y85910D02*
Y86690D01*
X30710Y86600D02*
X31490D01*
X31100Y86210D02*
Y86990D01*
X-1415Y89682D02*
X-635D01*
X-1025Y89292D02*
Y90072D01*
X-30890Y106600D02*
X-30110D01*
X-30500Y106210D02*
Y106990D01*
X-24090Y106600D02*
X-23310D01*
X-23700Y106210D02*
Y106990D01*
X-30890Y100700D02*
X-30110D01*
X-30500Y100310D02*
Y101090D01*
X-24090Y100700D02*
X-23310D01*
X-23700Y100310D02*
Y101090D01*
X18010Y105533D02*
X18790D01*
X18400Y105143D02*
Y105923D01*
X18010Y100567D02*
X18790D01*
X18400Y100177D02*
Y100957D01*
X11210Y100500D02*
X11990D01*
X11600Y100110D02*
Y100890D01*
X11210Y105500D02*
X11990D01*
X11600Y105110D02*
Y105890D01*
X-24090Y96200D02*
X-23310D01*
X-23700Y95810D02*
Y96590D01*
X-30890Y96100D02*
X-30110D01*
X-30500Y95710D02*
Y96490D01*
X11210Y95500D02*
X11990D01*
X11600Y95110D02*
Y95890D01*
X18010Y95600D02*
X18790D01*
X18400Y95210D02*
Y95990D01*
X-20890Y109300D02*
X-20110D01*
X-20500Y108910D02*
Y109690D01*
X-27390Y109200D02*
X-26610D01*
X-27000Y108810D02*
Y109590D01*
X27510Y108600D02*
X28290D01*
X27900Y108210D02*
Y108990D01*
X27510Y103675D02*
X28290D01*
X27900Y103285D02*
Y104065D01*
X27510Y98750D02*
X28290D01*
X27900Y98360D02*
Y99140D01*
X34010Y108700D02*
X34790D01*
X34400Y108310D02*
Y109090D01*
X34010Y103675D02*
X34790D01*
X34400Y103285D02*
Y104065D01*
X34010Y98650D02*
X34790D01*
X34400Y98260D02*
Y99040D01*
X30810Y101975D02*
X31590D01*
X31200Y101585D02*
Y102365D01*
X30810Y107100D02*
X31590D01*
X31200Y106710D02*
Y107490D01*
X30810Y96850D02*
X31590D01*
X31200Y96460D02*
Y97240D01*
X30810Y91725D02*
X31590D01*
X31200Y91335D02*
Y92115D01*
X34010Y93625D02*
X34790D01*
X34400Y93235D02*
Y94015D01*
X27610Y93825D02*
X28390D01*
X28000Y93435D02*
Y94215D01*
X24410Y95600D02*
X25190D01*
X24800Y95210D02*
Y95990D01*
X24410Y90900D02*
X25190D01*
X24800Y90510D02*
Y91290D01*
X24410Y101500D02*
X25190D01*
X24800Y101110D02*
Y101890D01*
X24410Y107300D02*
X25190D01*
X24800Y106910D02*
Y107690D01*
X24310Y86800D02*
X25090D01*
X24700Y86410D02*
Y87190D01*
X27610Y88900D02*
X28390D01*
X28000Y88510D02*
Y89290D01*
X34010Y88600D02*
X34790D01*
X34400Y88210D02*
Y88990D01*
X18010Y87200D02*
X18790D01*
X18400Y86810D02*
Y87590D01*
X21310Y89200D02*
X22090D01*
X21700Y88810D02*
Y89590D01*
X14910Y89400D02*
X15690D01*
X15300Y89010D02*
Y89790D01*
X14810Y93300D02*
X15590D01*
X15200Y92910D02*
Y93690D01*
X21310Y93400D02*
X22090D01*
X21700Y93010D02*
Y93790D01*
X18010Y91100D02*
X18790D01*
X18400Y90710D02*
Y91490D01*
X11310Y91200D02*
X12090D01*
X11700Y90810D02*
Y91590D01*
X11410Y87200D02*
X12190D01*
X11800Y86810D02*
Y87590D01*
X4610Y91900D02*
X5390D01*
X5000Y91510D02*
Y92290D01*
X8010Y92900D02*
X8790D01*
X8400Y92510D02*
Y93290D01*
X1410Y93600D02*
X2190D01*
X1800Y93210D02*
Y93990D01*
X1310Y87700D02*
X2090D01*
X1700Y87310D02*
Y88090D01*
X8010Y89500D02*
X8790D01*
X8400Y89110D02*
Y89890D01*
X4510Y87100D02*
X5290D01*
X4900Y86710D02*
Y87490D01*
X-1290Y99100D02*
X-510D01*
X-900Y98710D02*
Y99490D01*
X-1290Y94600D02*
X-510D01*
X-900Y94210D02*
Y94990D01*
X-37490Y86800D02*
X-36710D01*
X-37100Y86410D02*
Y87190D01*
X-33790Y89200D02*
X-33010D01*
X-33400Y88810D02*
Y89590D01*
X-40790Y88300D02*
X-40010D01*
X-40400Y87910D02*
Y88690D01*
X-40690Y94200D02*
X-39910D01*
X-40300Y93810D02*
Y94590D01*
X-33990Y93500D02*
X-33210D01*
X-33600Y93110D02*
Y93890D01*
X-37590Y91100D02*
X-36810D01*
X-37200Y90710D02*
Y91490D01*
X-30990Y87200D02*
X-30210D01*
X-30600Y86810D02*
Y87590D01*
X-30790Y91200D02*
X-30010D01*
X-30400Y90810D02*
Y91590D01*
X-24090Y91300D02*
X-23310D01*
X-23700Y90910D02*
Y91690D01*
X-20590Y93600D02*
X-19810D01*
X-20200Y93210D02*
Y93990D01*
X-27090Y93500D02*
X-26310D01*
X-26700Y93110D02*
Y93890D01*
X-27190Y89200D02*
X-26410D01*
X-26800Y88810D02*
Y89590D01*
X-20690Y89300D02*
X-19910D01*
X-20300Y88910D02*
Y89690D01*
X-24190Y87300D02*
X-23410D01*
X-23800Y86910D02*
Y87690D01*
X-4990Y87200D02*
X-4210D01*
X-4600Y86810D02*
Y87590D01*
X-11390Y87200D02*
X-10610D01*
X-11000Y86810D02*
Y87590D01*
X-7690Y89656D02*
X-6910D01*
X-7300Y89266D02*
Y90046D01*
X-14190Y89656D02*
X-13410D01*
X-13800Y89266D02*
Y90046D01*
X-17790Y87400D02*
X-17010D01*
X-17400Y87010D02*
Y87790D01*
X-17690Y107900D02*
X-16910D01*
X-17300Y107510D02*
Y108290D01*
X-17690Y102100D02*
X-16910D01*
X-17300Y101710D02*
Y102490D01*
X-17690Y91500D02*
X-16910D01*
X-17300Y91110D02*
Y91890D01*
X-17690Y96200D02*
X-16910D01*
X-17300Y95810D02*
Y96590D01*
X-14290Y94567D02*
X-13510D01*
X-13900Y94177D02*
Y94957D01*
X-7790Y94567D02*
X-7010D01*
X-7400Y94177D02*
Y94957D01*
X-11190Y92111D02*
X-10410D01*
X-10800Y91721D02*
Y92501D01*
X-11290Y97022D02*
X-10510D01*
X-10900Y96632D02*
Y97412D01*
X-4890Y97022D02*
X-4110D01*
X-4500Y96632D02*
Y97412D01*
X-4790Y92111D02*
X-4010D01*
X-4400Y91721D02*
Y92501D01*
X-4890Y101933D02*
X-4110D01*
X-4500Y101543D02*
Y102323D01*
X-4890Y106844D02*
X-4110D01*
X-4500Y106454D02*
Y107234D01*
X-11290Y106844D02*
X-10510D01*
X-10900Y106454D02*
Y107234D01*
X-11290Y101933D02*
X-10510D01*
X-10900Y101543D02*
Y102323D01*
X-7890Y99478D02*
X-7110D01*
X-7500Y99088D02*
Y99868D01*
X-8090Y104389D02*
X-7310D01*
X-7700Y103999D02*
Y104779D01*
X-8090Y109300D02*
X-7310D01*
X-7700Y108910D02*
Y109690D01*
X-14390Y99478D02*
X-13610D01*
X-14000Y99088D02*
Y99868D01*
X-14590Y104389D02*
X-13810D01*
X-14200Y103999D02*
Y104779D01*
X-14590Y109300D02*
X-13810D01*
X-14200Y108910D02*
Y109690D01*
X-37790Y104400D02*
X-37010D01*
X-37400Y104010D02*
Y104790D01*
X4010Y104200D02*
X4790D01*
X4400Y103810D02*
Y104590D01*
X-39790Y101400D02*
X-39010D01*
X-39400Y101010D02*
Y101790D01*
X-39790Y97000D02*
X-39010D01*
X-39400Y96610D02*
Y97390D01*
X2510Y97000D02*
X3290D01*
X2900Y96610D02*
Y97390D01*
X2510Y101200D02*
X3290D01*
X2900Y100810D02*
Y101590D01*
X7910Y97300D02*
X8690D01*
X8300Y96910D02*
Y97690D01*
X7910Y103100D02*
X8690D01*
X8300Y102710D02*
Y103490D01*
X7910Y108900D02*
X8690D01*
X8300Y108510D02*
Y109290D01*
X14710Y108900D02*
X15490D01*
X15100Y108510D02*
Y109290D01*
X14710Y103100D02*
X15490D01*
X15100Y102710D02*
Y103490D01*
X14710Y97300D02*
X15490D01*
X15100Y96910D02*
Y97690D01*
X21210Y109000D02*
X21990D01*
X21600Y108610D02*
Y109390D01*
X21210Y103200D02*
X21990D01*
X21600Y102810D02*
Y103590D01*
X21210Y97400D02*
X21990D01*
X21600Y97010D02*
Y97790D01*
X11210Y110500D02*
X11990D01*
X11600Y110110D02*
Y110890D01*
X17910Y110500D02*
X18690D01*
X18300Y110110D02*
Y110890D01*
X-34190Y97600D02*
X-33410D01*
X-33800Y97210D02*
Y97990D01*
X-34190Y103400D02*
X-33410D01*
X-33800Y103010D02*
Y103790D01*
X-34190Y109200D02*
X-33410D01*
X-33800Y108810D02*
Y109590D01*
X-27390Y103400D02*
X-26610D01*
X-27000Y103010D02*
Y103790D01*
X-27390Y97600D02*
X-26610D01*
X-27000Y97210D02*
Y97990D01*
X-20890Y103500D02*
X-20110D01*
X-20500Y103110D02*
Y103890D01*
X-20890Y97700D02*
X-20110D01*
X-20500Y97310D02*
Y98090D01*
X-30890Y110800D02*
X-30110D01*
X-30500Y110410D02*
Y111190D01*
X-24190Y110800D02*
X-23410D01*
X-23800Y110410D02*
Y111190D01*
X-1872Y72543D02*
X-1092D01*
X-1482Y72153D02*
Y72932D01*
X37628Y72543D02*
X38408D01*
X38018Y72153D02*
Y72932D01*
X77028Y72543D02*
X77808D01*
X77418Y72153D02*
Y72932D01*
X111910Y65200D02*
X112690D01*
X112300Y64810D02*
Y65590D01*
X108810Y61600D02*
X109590D01*
X109200Y61210D02*
Y61990D01*
X108910Y67600D02*
X109690D01*
X109300Y67210D02*
Y67990D01*
X115310Y67600D02*
X116090D01*
X115700Y67210D02*
Y67990D01*
X96310Y67800D02*
X97090D01*
X96700Y67410D02*
Y68190D01*
X102710Y61900D02*
X103490D01*
X103100Y61510D02*
Y62290D01*
X96310Y62000D02*
X97090D01*
X96700Y61610D02*
Y62390D01*
X89510Y67800D02*
X90290D01*
X89900Y67410D02*
Y68190D01*
X89510Y62000D02*
X90290D01*
X89900Y61610D02*
Y62390D01*
X102710Y67700D02*
X103490D01*
X103100Y67310D02*
Y68090D01*
X99310Y54800D02*
X100090D01*
X99700Y54410D02*
Y55190D01*
X92810Y54700D02*
X93590D01*
X93200Y54310D02*
Y55090D01*
X24010Y67800D02*
X24790D01*
X24400Y67410D02*
Y68190D01*
X30410Y67600D02*
X31190D01*
X30800Y67210D02*
Y67990D01*
X30410Y61800D02*
X31190D01*
X30800Y61410D02*
Y62190D01*
X24010Y62000D02*
X24790D01*
X24400Y61610D02*
Y62390D01*
X-1390Y54200D02*
X-610D01*
X-1000Y53810D02*
Y54590D01*
X-27190Y54400D02*
X-26410D01*
X-26800Y54010D02*
Y54790D01*
X-17690Y61700D02*
X-16910D01*
X-17300Y61310D02*
Y62090D01*
X-17690Y67700D02*
X-16910D01*
X-17300Y67310D02*
Y68090D01*
X-23890Y61900D02*
X-23110D01*
X-23500Y61510D02*
Y62290D01*
X-23890Y67800D02*
X-23110D01*
X-23500Y67410D02*
Y68190D01*
X-30590Y62000D02*
X-29810D01*
X-30200Y61610D02*
Y62390D01*
X-30690Y67900D02*
X-29910D01*
X-30300Y67510D02*
Y68290D01*
X115274Y62936D02*
X116054D01*
X115664Y62546D02*
Y63326D01*
X82810Y51400D02*
X83590D01*
X83200Y51010D02*
Y51790D01*
X80410Y58900D02*
X81190D01*
X80800Y58510D02*
Y59290D01*
X43610Y51700D02*
X44390D01*
X44000Y51310D02*
Y52090D01*
X2410Y59000D02*
X3190D01*
X2800Y58610D02*
Y59390D01*
X2110Y55800D02*
X2890D01*
X2500Y55410D02*
Y56190D01*
X4910Y51900D02*
X5690D01*
X5300Y51510D02*
Y52290D01*
X96110Y57300D02*
X96890D01*
X96500Y56910D02*
Y57690D01*
X96110Y51500D02*
X96890D01*
X96500Y51110D02*
Y51890D01*
X89310Y57300D02*
X90090D01*
X89700Y56910D02*
Y57690D01*
X89310Y51500D02*
X90090D01*
X89700Y51110D02*
Y51890D01*
X85910Y54800D02*
X86690D01*
X86300Y54410D02*
Y55190D01*
X57010Y57400D02*
X57790D01*
X57400Y57010D02*
Y57790D01*
X57010Y51600D02*
X57790D01*
X57400Y51210D02*
Y51990D01*
X50210Y57400D02*
X50990D01*
X50600Y57010D02*
Y57790D01*
X50210Y51600D02*
X50990D01*
X50600Y51210D02*
Y51990D01*
X60010Y54900D02*
X60790D01*
X60400Y54510D02*
Y55290D01*
X53510Y54800D02*
X54290D01*
X53900Y54410D02*
Y55190D01*
X46710Y54800D02*
X47490D01*
X47100Y54410D02*
Y55190D01*
X18110Y57600D02*
X18890D01*
X18500Y57210D02*
Y57990D01*
X18110Y51800D02*
X18890D01*
X18500Y51410D02*
Y52190D01*
X11310Y57600D02*
X12090D01*
X11700Y57210D02*
Y57990D01*
X11310Y51800D02*
X12090D01*
X11700Y51410D02*
Y52190D01*
X21310Y54700D02*
X22090D01*
X21700Y54310D02*
Y55090D01*
X14810Y54600D02*
X15590D01*
X15200Y54210D02*
Y54990D01*
X8010Y54600D02*
X8790D01*
X8400Y54210D02*
Y54990D01*
X102410Y72000D02*
X103190D01*
X102800Y71610D02*
Y72390D01*
X102510Y54300D02*
X103290D01*
X102900Y53910D02*
Y54690D01*
X102510Y57200D02*
X103290D01*
X102900Y56810D02*
Y57590D01*
X115210Y71800D02*
X115990D01*
X115600Y71410D02*
Y72190D01*
X108810Y71800D02*
X109590D01*
X109200Y71410D02*
Y72190D01*
X112110Y70300D02*
X112890D01*
X112500Y69910D02*
Y70690D01*
X105610Y58600D02*
X106390D01*
X106000Y58210D02*
Y58990D01*
X105610Y64400D02*
X106390D01*
X106000Y64010D02*
Y64790D01*
X105610Y70200D02*
X106390D01*
X106000Y69810D02*
Y70590D01*
X63210Y72400D02*
X63990D01*
X63600Y72010D02*
Y72790D01*
X63210Y67900D02*
X63990D01*
X63600Y67510D02*
Y68290D01*
X63210Y62100D02*
X63990D01*
X63600Y61710D02*
Y62490D01*
X63310Y51800D02*
X64090D01*
X63700Y51410D02*
Y52190D01*
X63310Y57600D02*
X64090D01*
X63700Y57210D02*
Y57990D01*
X66310Y54400D02*
X67090D01*
X66700Y54010D02*
Y54790D01*
X72810Y54500D02*
X73590D01*
X73200Y54110D02*
Y54890D01*
X69710Y51600D02*
X70490D01*
X70100Y51210D02*
Y51990D01*
X69610Y56400D02*
X70390D01*
X70000Y56010D02*
Y56790D01*
X76110Y51500D02*
X76890D01*
X76500Y51110D02*
Y51890D01*
X76110Y57400D02*
X76890D01*
X76500Y57010D02*
Y57790D01*
X69610Y67700D02*
X70390D01*
X70000Y67310D02*
Y68090D01*
X69610Y61900D02*
X70390D01*
X70000Y61510D02*
Y62290D01*
X69610Y72200D02*
X70390D01*
X70000Y71810D02*
Y72590D01*
X72910Y59100D02*
X73690D01*
X73300Y58710D02*
Y59490D01*
X72910Y64900D02*
X73690D01*
X73300Y64510D02*
Y65290D01*
X72910Y70700D02*
X73690D01*
X73300Y70310D02*
Y71090D01*
X66410Y59000D02*
X67190D01*
X66800Y58610D02*
Y59390D01*
X66410Y64800D02*
X67190D01*
X66800Y64410D02*
Y65190D01*
X66410Y70600D02*
X67190D01*
X66800Y70210D02*
Y70990D01*
X79310Y55700D02*
X80090D01*
X79700Y55310D02*
Y56090D01*
X24110Y72400D02*
X24890D01*
X24500Y72010D02*
Y72790D01*
X24210Y51800D02*
X24990D01*
X24600Y51410D02*
Y52190D01*
X24210Y57600D02*
X24990D01*
X24600Y57210D02*
Y57990D01*
X27510Y54100D02*
X28290D01*
X27900Y53710D02*
Y54490D01*
X33810Y54100D02*
X34590D01*
X34200Y53710D02*
Y54490D01*
X30610Y51600D02*
X31390D01*
X31000Y51210D02*
Y51990D01*
X30510Y56400D02*
X31290D01*
X30900Y56010D02*
Y56790D01*
X37010Y57400D02*
X37790D01*
X37400Y57010D02*
Y57790D01*
X37010Y51600D02*
X37790D01*
X37400Y51210D02*
Y51990D01*
X30510Y72200D02*
X31290D01*
X30900Y71810D02*
Y72590D01*
X33810Y59100D02*
X34590D01*
X34200Y58710D02*
Y59490D01*
X33810Y64900D02*
X34590D01*
X34200Y64510D02*
Y65290D01*
X33810Y70700D02*
X34590D01*
X34200Y70310D02*
Y71090D01*
X27310Y59000D02*
X28090D01*
X27700Y58610D02*
Y59390D01*
X27310Y64800D02*
X28090D01*
X27700Y64410D02*
Y65190D01*
X27310Y70600D02*
X28090D01*
X27700Y70210D02*
Y70990D01*
X40210Y55900D02*
X40990D01*
X40600Y55510D02*
Y56290D01*
X-1390Y58900D02*
X-610D01*
X-1000Y58510D02*
Y59290D01*
X-14290Y70600D02*
X-13510D01*
X-13900Y70210D02*
Y70990D01*
X-14290Y64800D02*
X-13510D01*
X-13900Y64410D02*
Y65190D01*
X-14490Y59700D02*
X-13710D01*
X-14100Y59310D02*
Y60090D01*
X-7790Y70700D02*
X-7010D01*
X-7400Y70310D02*
Y71090D01*
X-7790Y64900D02*
X-7010D01*
X-7400Y64510D02*
Y65290D01*
X-7790Y59100D02*
X-7010D01*
X-7400Y58710D02*
Y59490D01*
X-11090Y72200D02*
X-10310D01*
X-10700Y71810D02*
Y72590D01*
X-11190Y61900D02*
X-10410D01*
X-10800Y61510D02*
Y62290D01*
X-11190Y67700D02*
X-10410D01*
X-10800Y67310D02*
Y68090D01*
X-4690Y72200D02*
X-3910D01*
X-4300Y71810D02*
Y72590D01*
X-4690Y67500D02*
X-3910D01*
X-4300Y67110D02*
Y67890D01*
X-4690Y61700D02*
X-3910D01*
X-4300Y61310D02*
Y62090D01*
X-4790Y56000D02*
X-4010D01*
X-4400Y55610D02*
Y56390D01*
X-4590Y51600D02*
X-3810D01*
X-4200Y51210D02*
Y51990D01*
X-11190Y56000D02*
X-10410D01*
X-10800Y55610D02*
Y56390D01*
X-10990Y51600D02*
X-10210D01*
X-10600Y51210D02*
Y51990D01*
X-7690Y54400D02*
X-6910D01*
X-7300Y54010D02*
Y54790D01*
X-14490Y54400D02*
X-13710D01*
X-14100Y54010D02*
Y54790D01*
X-33990Y54400D02*
X-33210D01*
X-33600Y54010D02*
Y54790D01*
X-20590Y54400D02*
X-19810D01*
X-20200Y54010D02*
Y54790D01*
X-30590Y51600D02*
X-29810D01*
X-30200Y51210D02*
Y51990D01*
X-30590Y57600D02*
X-29810D01*
X-30200Y57210D02*
Y57990D01*
X-23790Y51600D02*
X-23010D01*
X-23400Y51210D02*
Y51990D01*
X-23790Y57600D02*
X-23010D01*
X-23400Y57210D02*
Y57990D01*
X-17390Y57600D02*
X-16610D01*
X-17000Y57210D02*
Y57990D01*
X-17390Y51600D02*
X-16610D01*
X-17000Y51210D02*
Y51990D01*
X-17490Y72400D02*
X-16710D01*
X-17100Y72010D02*
Y72790D01*
X82810Y60500D02*
X83590D01*
X83200Y60110D02*
Y60890D01*
X80310Y62600D02*
X81090D01*
X80700Y62210D02*
Y62990D01*
X41210Y58700D02*
X41990D01*
X41600Y58310D02*
Y59090D01*
X43710Y61200D02*
X44490D01*
X44100Y60810D02*
Y61590D01*
X41110Y62900D02*
X41890D01*
X41500Y62510D02*
Y63290D01*
X5110Y60800D02*
X5890D01*
X5500Y60410D02*
Y61190D01*
X2510Y63200D02*
X3290D01*
X2900Y62810D02*
Y63590D01*
X-39390Y62800D02*
X-38610D01*
X-39000Y62410D02*
Y63190D01*
X-36890Y60900D02*
X-36110D01*
X-36500Y60510D02*
Y61290D01*
X-39490Y58600D02*
X-38710D01*
X-39100Y58210D02*
Y58990D01*
X86010Y58900D02*
X86790D01*
X86400Y58510D02*
Y59290D01*
X86010Y64700D02*
X86790D01*
X86400Y64310D02*
Y65090D01*
X86010Y70500D02*
X86790D01*
X86400Y70110D02*
Y70890D01*
X92810Y70500D02*
X93590D01*
X93200Y70110D02*
Y70890D01*
X92810Y64700D02*
X93590D01*
X93200Y64310D02*
Y65090D01*
X92810Y58900D02*
X93590D01*
X93200Y58510D02*
Y59290D01*
X99310Y70600D02*
X100090D01*
X99700Y70210D02*
Y70990D01*
X99310Y64800D02*
X100090D01*
X99700Y64410D02*
Y65190D01*
X99310Y59000D02*
X100090D01*
X99700Y58610D02*
Y59390D01*
X89310Y72100D02*
X90090D01*
X89700Y71710D02*
Y72490D01*
X96010Y72100D02*
X96790D01*
X96400Y71710D02*
Y72490D01*
X46910Y59200D02*
X47690D01*
X47300Y58810D02*
Y59590D01*
X46910Y65000D02*
X47690D01*
X47300Y64610D02*
Y65390D01*
X46910Y70800D02*
X47690D01*
X47300Y70410D02*
Y71190D01*
X53710Y70800D02*
X54490D01*
X54100Y70410D02*
Y71190D01*
X53710Y65000D02*
X54490D01*
X54100Y64610D02*
Y65390D01*
X53710Y59200D02*
X54490D01*
X54100Y58810D02*
Y59590D01*
X60210Y70900D02*
X60990D01*
X60600Y70510D02*
Y71290D01*
X60210Y65100D02*
X60990D01*
X60600Y64710D02*
Y65490D01*
X60210Y59300D02*
X60990D01*
X60600Y58910D02*
Y59690D01*
X50210Y72400D02*
X50990D01*
X50600Y72010D02*
Y72790D01*
X56910Y72400D02*
X57690D01*
X57300Y72010D02*
Y72790D01*
X50110Y62100D02*
X50890D01*
X50500Y61710D02*
Y62490D01*
X50110Y67900D02*
X50890D01*
X50500Y67510D02*
Y68290D01*
X56910Y62100D02*
X57690D01*
X57300Y61710D02*
Y62490D01*
X56910Y67900D02*
X57690D01*
X57300Y67510D02*
Y68290D01*
X8010Y59200D02*
X8790D01*
X8400Y58810D02*
Y59590D01*
X8010Y65000D02*
X8790D01*
X8400Y64610D02*
Y65390D01*
X8010Y70800D02*
X8790D01*
X8400Y70410D02*
Y71190D01*
X14810Y70800D02*
X15590D01*
X15200Y70410D02*
Y71190D01*
X14810Y65000D02*
X15590D01*
X15200Y64610D02*
Y65390D01*
X14810Y59200D02*
X15590D01*
X15200Y58810D02*
Y59590D01*
X21310Y70900D02*
X22090D01*
X21700Y70510D02*
Y71290D01*
X21310Y65100D02*
X22090D01*
X21700Y64710D02*
Y65490D01*
X21310Y59300D02*
X22090D01*
X21700Y58910D02*
Y59690D01*
X11310Y72400D02*
X12090D01*
X11700Y72010D02*
Y72790D01*
X18010Y72400D02*
X18790D01*
X18400Y72010D02*
Y72790D01*
X11110Y62000D02*
X11890D01*
X11500Y61610D02*
Y62390D01*
X11110Y67800D02*
X11890D01*
X11500Y67410D02*
Y68190D01*
X17910Y62000D02*
X18690D01*
X18300Y61610D02*
Y62390D01*
X17910Y67800D02*
X18690D01*
X18300Y67410D02*
Y68190D01*
X-23890Y72400D02*
X-23110D01*
X-23500Y72010D02*
Y72790D01*
X-30590Y72400D02*
X-29810D01*
X-30200Y72010D02*
Y72790D01*
X-20590Y59300D02*
X-19810D01*
X-20200Y58910D02*
Y59690D01*
X-20590Y65100D02*
X-19810D01*
X-20200Y64710D02*
Y65490D01*
X-20590Y70900D02*
X-19810D01*
X-20200Y70510D02*
Y71290D01*
X-27090Y59200D02*
X-26310D01*
X-26700Y58810D02*
Y59590D01*
X-27090Y65000D02*
X-26310D01*
X-26700Y64610D02*
Y65390D01*
X-27090Y70800D02*
X-26310D01*
X-26700Y70410D02*
Y71190D01*
X-33890Y70800D02*
X-33110D01*
X-33500Y70410D02*
Y71190D01*
X-33890Y65000D02*
X-33110D01*
X-33500Y64610D02*
Y65390D01*
X-33890Y59200D02*
X-33110D01*
X-33500Y58810D02*
Y59590D01*
X91210Y44500D02*
X91990D01*
X91600Y44110D02*
Y44890D01*
X86971Y48500D02*
X87751D01*
X87361Y48110D02*
Y48890D01*
X91253Y47200D02*
X92033D01*
X91643Y46810D02*
Y47590D01*
X86989Y45600D02*
X87769D01*
X87379Y45210D02*
Y45990D01*
X-28629Y44500D02*
X-27849D01*
X-28239Y44110D02*
Y44890D01*
X65578Y44500D02*
X66358D01*
X65968Y44110D02*
Y44890D01*
X14192Y44500D02*
X14972D01*
X14582Y44110D02*
Y44890D01*
X22756Y44500D02*
X23536D01*
X23146Y44110D02*
Y44890D01*
X5628Y44500D02*
X6408D01*
X6018Y44110D02*
Y44890D01*
X48449Y44500D02*
X49229D01*
X48839Y44110D02*
Y44890D01*
X31321Y44500D02*
X32101D01*
X31711Y44110D02*
Y44890D01*
X-11501Y44500D02*
X-10721D01*
X-11111Y44110D02*
Y44890D01*
X93971Y46000D02*
X94751D01*
X94361Y45610D02*
Y46390D01*
X39885Y44600D02*
X40665D01*
X40275Y44210D02*
Y44990D01*
X74142Y44600D02*
X74922D01*
X74532Y44210D02*
Y44990D01*
X-2936Y44600D02*
X-2156D01*
X-2546Y44210D02*
Y44990D01*
X57013Y44600D02*
X57793D01*
X57403Y44210D02*
Y44990D01*
X82706Y44500D02*
X83486D01*
X83096Y44110D02*
Y44890D01*
X82706Y47400D02*
X83486D01*
X83096Y47010D02*
Y47790D01*
X96671Y48400D02*
X97451D01*
X97061Y48010D02*
Y48790D01*
X65578Y47400D02*
X66358D01*
X65968Y47010D02*
Y47790D01*
X74142Y47500D02*
X74922D01*
X74532Y47110D02*
Y47890D01*
X69860Y45900D02*
X70640D01*
X70250Y45510D02*
Y46290D01*
X69860Y48800D02*
X70640D01*
X70250Y48410D02*
Y49190D01*
X78424Y48700D02*
X79204D01*
X78814Y48310D02*
Y49090D01*
X78424Y45800D02*
X79204D01*
X78814Y45410D02*
Y46190D01*
X48449Y47400D02*
X49229D01*
X48839Y47010D02*
Y47790D01*
X57013Y47500D02*
X57793D01*
X57403Y47110D02*
Y47890D01*
X44167Y45900D02*
X44947D01*
X44557Y45510D02*
Y46290D01*
X44167Y48800D02*
X44947D01*
X44557Y48410D02*
Y49190D01*
X52731Y45900D02*
X53511D01*
X53121Y45510D02*
Y46290D01*
X52731Y48800D02*
X53511D01*
X53121Y48410D02*
Y49190D01*
X61296Y48700D02*
X62076D01*
X61686Y48310D02*
Y49090D01*
X61296Y45800D02*
X62076D01*
X61686Y45410D02*
Y46190D01*
X22756Y47400D02*
X23536D01*
X23146Y47010D02*
Y47790D01*
X31321Y47400D02*
X32101D01*
X31711Y47010D02*
Y47790D01*
X39885Y47500D02*
X40665D01*
X40275Y47110D02*
Y47890D01*
X27039Y45900D02*
X27819D01*
X27429Y45510D02*
Y46290D01*
X27039Y48800D02*
X27819D01*
X27429Y48410D02*
Y49190D01*
X35603Y45900D02*
X36383D01*
X35993Y45510D02*
Y46290D01*
X35603Y48800D02*
X36383D01*
X35993Y48410D02*
Y49190D01*
X5628Y47400D02*
X6408D01*
X6018Y47010D02*
Y47790D01*
X14192Y47400D02*
X14972D01*
X14582Y47010D02*
Y47790D01*
X9910Y45900D02*
X10690D01*
X10300Y45510D02*
Y46290D01*
X9910Y48800D02*
X10690D01*
X10300Y48410D02*
Y49190D01*
X18474Y48700D02*
X19254D01*
X18864Y48310D02*
Y49090D01*
X18474Y45800D02*
X19254D01*
X18864Y45410D02*
Y46190D01*
X-11501Y47400D02*
X-10721D01*
X-11111Y47010D02*
Y47790D01*
X-2936Y47500D02*
X-2156D01*
X-2546Y47110D02*
Y47890D01*
X-7219Y45900D02*
X-6439D01*
X-6829Y45510D02*
Y46290D01*
X-7219Y48800D02*
X-6439D01*
X-6829Y48410D02*
Y49190D01*
X1346Y48700D02*
X2126D01*
X1736Y48310D02*
Y49090D01*
X1346Y45800D02*
X2126D01*
X1736Y45410D02*
Y46190D01*
X-28629Y47400D02*
X-27849D01*
X-28239Y47010D02*
Y47790D01*
X-20065Y47500D02*
X-19285D01*
X-19675Y47110D02*
Y47890D01*
X-20065Y44600D02*
X-19285D01*
X-19675Y44210D02*
Y44990D01*
X-24347Y45900D02*
X-23567D01*
X-23957Y45510D02*
Y46290D01*
X-24347Y48800D02*
X-23567D01*
X-23957Y48410D02*
Y49190D01*
X-15783Y48700D02*
X-15003D01*
X-15393Y48310D02*
Y49090D01*
X-15783Y45800D02*
X-15003D01*
X-15393Y45410D02*
Y46190D01*
X65844Y26643D02*
X66624D01*
X66234Y26252D02*
Y27033D01*
X65844Y29542D02*
X66624D01*
X66234Y29153D02*
Y29932D01*
X70190Y28043D02*
X70970D01*
X70580Y27652D02*
Y28433D01*
X70190Y30942D02*
X70970D01*
X70580Y30553D02*
Y31332D01*
X78882Y30942D02*
X79662D01*
X79272Y30553D02*
Y31332D01*
X78882Y28043D02*
X79662D01*
X79272Y27652D02*
Y28433D01*
X48459Y26643D02*
X49239D01*
X48849Y26252D02*
Y27033D01*
X48459Y29542D02*
X49239D01*
X48849Y29153D02*
Y29932D01*
X57151Y29643D02*
X57931D01*
X57541Y29252D02*
Y30033D01*
X57151Y26743D02*
X57931D01*
X57541Y26353D02*
Y27132D01*
X52805Y28043D02*
X53585D01*
X53195Y27652D02*
Y28433D01*
X52805Y30942D02*
X53585D01*
X53195Y30553D02*
Y31332D01*
X61498Y30843D02*
X62278D01*
X61888Y30452D02*
Y31233D01*
X61498Y27942D02*
X62278D01*
X61888Y27553D02*
Y28332D01*
X31075Y29542D02*
X31855D01*
X31464Y29153D02*
Y29932D01*
X31075Y26643D02*
X31855D01*
X31464Y26252D02*
Y27033D01*
X39767Y29643D02*
X40547D01*
X40157Y29252D02*
Y30033D01*
X39767Y26743D02*
X40547D01*
X40157Y26353D02*
Y27132D01*
X35421Y28043D02*
X36201D01*
X35811Y27652D02*
Y28433D01*
X35421Y30942D02*
X36201D01*
X35811Y30553D02*
Y31332D01*
X44113Y30843D02*
X44893D01*
X44503Y30452D02*
Y31233D01*
X44113Y27942D02*
X44893D01*
X44503Y27553D02*
Y28332D01*
X4998Y26643D02*
X5778D01*
X5388Y26252D02*
Y27033D01*
X4998Y29542D02*
X5778D01*
X5388Y29153D02*
Y29932D01*
X13690Y29542D02*
X14470D01*
X14080Y29153D02*
Y29932D01*
X13690Y26643D02*
X14470D01*
X14080Y26252D02*
Y27033D01*
X22382Y29643D02*
X23162D01*
X22772Y29252D02*
Y30033D01*
X22382Y26743D02*
X23162D01*
X22772Y26353D02*
Y27132D01*
X9344Y28043D02*
X10124D01*
X9734Y27652D02*
Y28433D01*
X9344Y30942D02*
X10124D01*
X9734Y30553D02*
Y31332D01*
X18036Y28043D02*
X18816D01*
X18426Y27652D02*
Y28433D01*
X18036Y30942D02*
X18816D01*
X18426Y30553D02*
Y31332D01*
X26728Y30843D02*
X27508D01*
X27118Y30452D02*
Y31233D01*
X26728Y27942D02*
X27508D01*
X27118Y27553D02*
Y28332D01*
X-12387Y26643D02*
X-11607D01*
X-11997Y26252D02*
Y27033D01*
X-12387Y29542D02*
X-11607D01*
X-11997Y29153D02*
Y29932D01*
X-3695Y29542D02*
X-2915D01*
X-3305Y29153D02*
Y29932D01*
X-3695Y26643D02*
X-2915D01*
X-3305Y26252D02*
Y27033D01*
X-8041Y28043D02*
X-7261D01*
X-7651Y27652D02*
Y28433D01*
X-8041Y30942D02*
X-7261D01*
X-7651Y30553D02*
Y31332D01*
X652Y28043D02*
X1431D01*
X1041Y27652D02*
Y28433D01*
X652Y30942D02*
X1431D01*
X1041Y30553D02*
Y31332D01*
X-29772Y26643D02*
X-28992D01*
X-29382Y26252D02*
Y27033D01*
X-29772Y29542D02*
X-28992D01*
X-29382Y29153D02*
Y29932D01*
X-21079Y29643D02*
X-20299D01*
X-20689Y29252D02*
Y30033D01*
X-21079Y26743D02*
X-20299D01*
X-20689Y26353D02*
Y27132D01*
X-25425Y28043D02*
X-24645D01*
X-25035Y27652D02*
Y28433D01*
X-25425Y30942D02*
X-24645D01*
X-25035Y30553D02*
Y31332D01*
X-16733Y30843D02*
X-15953D01*
X-16343Y30452D02*
Y31233D01*
X-16733Y27942D02*
X-15953D01*
X-16343Y27553D02*
Y28332D01*
X91870Y17343D02*
X92650D01*
X92260Y16952D02*
Y17732D01*
X100353Y31256D02*
X101133D01*
X100743Y30866D02*
Y31646D01*
X100353Y25256D02*
X101133D01*
X100743Y24866D02*
Y25646D01*
X100353Y19456D02*
X101133D01*
X100743Y19066D02*
Y19846D01*
X100353Y28156D02*
X101133D01*
X100743Y27766D02*
Y28546D01*
X100353Y22356D02*
X101133D01*
X100743Y21966D02*
Y22746D01*
X108837Y27956D02*
X109617D01*
X109227Y27566D02*
Y28346D01*
X108837Y22156D02*
X109617D01*
X109227Y21766D02*
Y22546D01*
X108837Y25056D02*
X109617D01*
X109227Y24666D02*
Y25446D01*
X108837Y19256D02*
X109617D01*
X109227Y18866D02*
Y19646D01*
X112628Y20843D02*
X113408D01*
X113018Y20452D02*
Y21233D01*
X112628Y23742D02*
X113408D01*
X113018Y23352D02*
Y24133D01*
X104595Y17856D02*
X105375D01*
X104985Y17466D02*
Y18246D01*
X104595Y20756D02*
X105375D01*
X104985Y20366D02*
Y21146D01*
X104595Y26556D02*
X105375D01*
X104985Y26166D02*
Y26946D01*
X104595Y23656D02*
X105375D01*
X104985Y23266D02*
Y24046D01*
X104595Y29456D02*
X105375D01*
X104985Y29066D02*
Y29846D01*
X87628Y18943D02*
X88408D01*
X88018Y18553D02*
Y19332D01*
X87628Y21843D02*
X88408D01*
X88018Y21452D02*
Y22232D01*
X87628Y27643D02*
X88408D01*
X88018Y27253D02*
Y28032D01*
X87628Y24743D02*
X88408D01*
X88018Y24352D02*
Y25133D01*
X87628Y30542D02*
X88408D01*
X88018Y30152D02*
Y30933D01*
X96112Y29856D02*
X96892D01*
X96502Y29466D02*
Y30246D01*
X96112Y24056D02*
X96892D01*
X96502Y23666D02*
Y24446D01*
X96112Y26956D02*
X96892D01*
X96502Y26566D02*
Y27346D01*
X96112Y21156D02*
X96892D01*
X96502Y20766D02*
Y21546D01*
X96112Y18256D02*
X96892D01*
X96502Y17866D02*
Y18646D01*
X91870Y32142D02*
X92650D01*
X92260Y31752D02*
Y32533D01*
X91870Y20343D02*
X92650D01*
X92260Y19952D02*
Y20732D01*
X91870Y26142D02*
X92650D01*
X92260Y25752D02*
Y26533D01*
X91870Y23243D02*
X92650D01*
X92260Y22852D02*
Y23632D01*
X91870Y29043D02*
X92650D01*
X92260Y28653D02*
Y29432D01*
X74536Y26743D02*
X75316D01*
X74926Y26353D02*
Y27132D01*
X74536Y29643D02*
X75316D01*
X74926Y29252D02*
Y30033D01*
X83228Y29643D02*
X84008D01*
X83618Y29252D02*
Y30033D01*
X83228Y26743D02*
X84008D01*
X83618Y26353D02*
Y27132D01*
X-24390Y12200D02*
X-23610D01*
X-24000Y11810D02*
Y12590D01*
X-31090Y12200D02*
X-30310D01*
X-30700Y11810D02*
Y12590D01*
X-21090Y-900D02*
X-20310D01*
X-20700Y-1290D02*
Y-510D01*
X-21090Y4900D02*
X-20310D01*
X-20700Y4510D02*
Y5290D01*
X-27590Y-1000D02*
X-26810D01*
X-27200Y-1390D02*
Y-610D01*
X-27590Y4800D02*
X-26810D01*
X-27200Y4410D02*
Y5190D01*
X-34390Y10600D02*
X-33610D01*
X-34000Y10210D02*
Y10990D01*
X-34390Y4800D02*
X-33610D01*
X-34000Y4410D02*
Y5190D01*
X-34390Y-1000D02*
X-33610D01*
X-34000Y-1390D02*
Y-610D01*
X17710Y11900D02*
X18490D01*
X18100Y11510D02*
Y12290D01*
X11010Y11900D02*
X11790D01*
X11400Y11510D02*
Y12290D01*
X21010Y-1200D02*
X21790D01*
X21400Y-1590D02*
Y-810D01*
X21010Y4600D02*
X21790D01*
X21400Y4210D02*
Y4990D01*
X21010Y10400D02*
X21790D01*
X21400Y10010D02*
Y10790D01*
X14510Y-1300D02*
X15290D01*
X14900Y-1690D02*
Y-910D01*
X14510Y4500D02*
X15290D01*
X14900Y4110D02*
Y4890D01*
X14510Y10300D02*
X15290D01*
X14900Y9910D02*
Y10690D01*
X7710Y10300D02*
X8490D01*
X8100Y9910D02*
Y10690D01*
X7710Y4500D02*
X8490D01*
X8100Y4110D02*
Y4890D01*
X7710Y-1300D02*
X8490D01*
X8100Y-1690D02*
Y-910D01*
X5038Y500D02*
X5818D01*
X5428Y110D02*
Y890D01*
X2310Y2600D02*
X3090D01*
X2700Y2210D02*
Y2990D01*
X2310Y-1600D02*
X3090D01*
X2700Y-1990D02*
Y-1210D01*
X-39990Y-1600D02*
X-39210D01*
X-39600Y-1990D02*
Y-1210D01*
X-39990Y2800D02*
X-39210D01*
X-39600Y2410D02*
Y3190D01*
X3810Y5600D02*
X4590D01*
X4200Y5210D02*
Y5990D01*
X-37990Y5800D02*
X-37210D01*
X-37600Y5410D02*
Y6190D01*
X-14790Y10700D02*
X-14010D01*
X-14400Y10310D02*
Y11090D01*
X-14790Y5789D02*
X-14010D01*
X-14400Y5399D02*
Y6179D01*
X-14590Y878D02*
X-13810D01*
X-14200Y488D02*
Y1268D01*
X-8290Y10700D02*
X-7510D01*
X-7900Y10310D02*
Y11090D01*
X-8290Y5789D02*
X-7510D01*
X-7900Y5399D02*
Y6179D01*
X-8090Y878D02*
X-7310D01*
X-7700Y488D02*
Y1268D01*
X-11490Y3333D02*
X-10710D01*
X-11100Y2943D02*
Y3723D01*
X-11490Y8244D02*
X-10710D01*
X-11100Y7854D02*
Y8634D01*
X-5090Y8244D02*
X-4310D01*
X-4700Y7854D02*
Y8634D01*
X-5090Y3333D02*
X-4310D01*
X-4700Y2943D02*
Y3723D01*
X-4990Y-6489D02*
X-4210D01*
X-4600Y-6879D02*
Y-6099D01*
X-5090Y-1578D02*
X-4310D01*
X-4700Y-1968D02*
Y-1188D01*
X-11490Y-1578D02*
X-10710D01*
X-11100Y-1968D02*
Y-1188D01*
X-11390Y-6489D02*
X-10610D01*
X-11000Y-6879D02*
Y-6099D01*
X-7990Y-4033D02*
X-7210D01*
X-7600Y-4423D02*
Y-3643D01*
X-14490Y-4033D02*
X-13710D01*
X-14100Y-4423D02*
Y-3643D01*
X-17890Y-2400D02*
X-17110D01*
X-17500Y-2790D02*
Y-2010D01*
X-17890Y-7100D02*
X-17110D01*
X-17500Y-7490D02*
Y-6710D01*
X-17890Y3500D02*
X-17110D01*
X-17500Y3110D02*
Y3890D01*
X-17890Y9300D02*
X-17110D01*
X-17500Y8910D02*
Y9690D01*
X-17990Y-11200D02*
X-17210D01*
X-17600Y-11590D02*
Y-10810D01*
X-14390Y-8945D02*
X-13610D01*
X-14000Y-9334D02*
Y-8554D01*
X-7890Y-8945D02*
X-7110D01*
X-7500Y-9334D02*
Y-8554D01*
X-11590Y-11400D02*
X-10810D01*
X-11200Y-11790D02*
Y-11010D01*
X-5190Y-11400D02*
X-4410D01*
X-4800Y-11790D02*
Y-11010D01*
X-24390Y-11300D02*
X-23610D01*
X-24000Y-11690D02*
Y-10910D01*
X-20890Y-9300D02*
X-20110D01*
X-20500Y-9690D02*
Y-8910D01*
X-27390Y-9400D02*
X-26610D01*
X-27000Y-9790D02*
Y-9010D01*
X-27290Y-5100D02*
X-26510D01*
X-26900Y-5490D02*
Y-4710D01*
X-20790Y-5000D02*
X-20010D01*
X-20400Y-5390D02*
Y-4610D01*
X-24290Y-7300D02*
X-23510D01*
X-23900Y-7690D02*
Y-6910D01*
X-30990Y-7400D02*
X-30210D01*
X-30600Y-7790D02*
Y-7010D01*
X-31190Y-11400D02*
X-30410D01*
X-30800Y-11790D02*
Y-11010D01*
X-37790Y-7500D02*
X-37010D01*
X-37400Y-7890D02*
Y-7110D01*
X-34190Y-5100D02*
X-33410D01*
X-33800Y-5490D02*
Y-4710D01*
X-40890Y-4400D02*
X-40110D01*
X-40500Y-4790D02*
Y-4010D01*
X-40990Y-10300D02*
X-40210D01*
X-40600Y-10690D02*
Y-9910D01*
X-33990Y-9400D02*
X-33210D01*
X-33600Y-9790D02*
Y-9010D01*
X-37690Y-11800D02*
X-36910D01*
X-37300Y-12190D02*
Y-11410D01*
X-1490Y-4000D02*
X-710D01*
X-1100Y-4390D02*
Y-3610D01*
X-1490Y500D02*
X-710D01*
X-1100Y110D02*
Y890D01*
X4310Y-11500D02*
X5090D01*
X4700Y-11890D02*
Y-11110D01*
X7810Y-9100D02*
X8590D01*
X8200Y-9490D02*
Y-8710D01*
X1110Y-10900D02*
X1890D01*
X1500Y-11290D02*
Y-10510D01*
X1210Y-5000D02*
X1990D01*
X1600Y-5390D02*
Y-4610D01*
X7810Y-5700D02*
X8590D01*
X8200Y-6090D02*
Y-5310D01*
X4410Y-6700D02*
X5190D01*
X4800Y-7090D02*
Y-6310D01*
X11210Y-11400D02*
X11990D01*
X11600Y-11790D02*
Y-11010D01*
X11110Y-7400D02*
X11890D01*
X11500Y-7790D02*
Y-7010D01*
X17810Y-7500D02*
X18590D01*
X18200Y-7890D02*
Y-7110D01*
X21110Y-5200D02*
X21890D01*
X21500Y-5590D02*
Y-4810D01*
X14610Y-5300D02*
X15390D01*
X15000Y-5690D02*
Y-4910D01*
X14710Y-9200D02*
X15490D01*
X15100Y-9590D02*
Y-8810D01*
X21110Y-9400D02*
X21890D01*
X21500Y-9790D02*
Y-9010D01*
X17810Y-11400D02*
X18590D01*
X18200Y-11790D02*
Y-11010D01*
X33810Y-10000D02*
X34590D01*
X34200Y-10390D02*
Y-9610D01*
X27410Y-9700D02*
X28190D01*
X27800Y-10090D02*
Y-9310D01*
X24110Y-11800D02*
X24890D01*
X24500Y-12190D02*
Y-11410D01*
X24210Y8700D02*
X24990D01*
X24600Y8310D02*
Y9090D01*
X24210Y2900D02*
X24990D01*
X24600Y2510D02*
Y3290D01*
X24210Y-7700D02*
X24990D01*
X24600Y-8090D02*
Y-7310D01*
X24210Y-3000D02*
X24990D01*
X24600Y-3390D02*
Y-2610D01*
X27410Y-4775D02*
X28190D01*
X27800Y-5165D02*
Y-4385D01*
X33810Y-4975D02*
X34590D01*
X34200Y-5365D02*
Y-4585D01*
X30610Y-6875D02*
X31390D01*
X31000Y-7265D02*
Y-6485D01*
X30610Y-1750D02*
X31390D01*
X31000Y-2140D02*
Y-1360D01*
X30610Y8500D02*
X31390D01*
X31000Y8110D02*
Y8890D01*
X30610Y3375D02*
X31390D01*
X31000Y2985D02*
Y3765D01*
X33810Y50D02*
X34590D01*
X34200Y-340D02*
Y440D01*
X33810Y5075D02*
X34590D01*
X34200Y4685D02*
Y5465D01*
X33810Y10100D02*
X34590D01*
X34200Y9710D02*
Y10490D01*
X27310Y150D02*
X28090D01*
X27700Y-240D02*
Y540D01*
X27310Y5075D02*
X28090D01*
X27700Y4685D02*
Y5465D01*
X27310Y10000D02*
X28090D01*
X27700Y9610D02*
Y10390D01*
X-27590Y10600D02*
X-26810D01*
X-27200Y10210D02*
Y10990D01*
X-21090Y10700D02*
X-20310D01*
X-20700Y10310D02*
Y11090D01*
X-37090Y400D02*
X-36310D01*
X-36700Y10D02*
Y790D01*
X17810Y-3000D02*
X18590D01*
X18200Y-3390D02*
Y-2610D01*
X11010Y-3100D02*
X11790D01*
X11400Y-3490D02*
Y-2710D01*
X-31090Y-2500D02*
X-30310D01*
X-30700Y-2890D02*
Y-2110D01*
X-24290Y-2400D02*
X-23510D01*
X-23900Y-2790D02*
Y-2010D01*
X11010Y6900D02*
X11790D01*
X11400Y6510D02*
Y7290D01*
X11010Y1900D02*
X11790D01*
X11400Y1510D02*
Y2290D01*
X17810Y1967D02*
X18590D01*
X18200Y1577D02*
Y2357D01*
X17810Y6933D02*
X18590D01*
X18200Y6543D02*
Y7323D01*
X-24290Y2100D02*
X-23510D01*
X-23900Y1710D02*
Y2490D01*
X-31090Y2100D02*
X-30310D01*
X-30700Y1710D02*
Y2490D01*
X-24290Y8000D02*
X-23510D01*
X-23900Y7610D02*
Y8390D01*
X-31090Y8000D02*
X-30310D01*
X-30700Y7610D02*
Y8390D01*
X-1615Y-8918D02*
X-835D01*
X-1225Y-9308D02*
Y-8528D01*
X30510Y-12000D02*
X31290D01*
X30900Y-12390D02*
Y-11610D01*
X69410Y-12300D02*
X70190D01*
X69800Y-12690D02*
Y-11910D01*
X37285Y-9218D02*
X38065D01*
X37675Y-9608D02*
Y-8828D01*
X56710Y6633D02*
X57490D01*
X57100Y6243D02*
Y7023D01*
X56710Y1667D02*
X57490D01*
X57100Y1277D02*
Y2057D01*
X49910Y1600D02*
X50690D01*
X50300Y1210D02*
Y1990D01*
X49910Y6600D02*
X50690D01*
X50300Y6210D02*
Y6990D01*
X49910Y-3400D02*
X50690D01*
X50300Y-3790D02*
Y-3010D01*
X56710Y-3300D02*
X57490D01*
X57100Y-3690D02*
Y-2910D01*
X66210Y9700D02*
X66990D01*
X66600Y9310D02*
Y10090D01*
X66210Y4775D02*
X66990D01*
X66600Y4385D02*
Y5165D01*
X66210Y-150D02*
X66990D01*
X66600Y-540D02*
Y240D01*
X72710Y9800D02*
X73490D01*
X73100Y9410D02*
Y10190D01*
X72710Y4775D02*
X73490D01*
X73100Y4385D02*
Y5165D01*
X72710Y-250D02*
X73490D01*
X73100Y-640D02*
Y140D01*
X69510Y3075D02*
X70290D01*
X69900Y2685D02*
Y3465D01*
X69510Y8200D02*
X70290D01*
X69900Y7810D02*
Y8590D01*
X69510Y-2050D02*
X70290D01*
X69900Y-2440D02*
Y-1660D01*
X69510Y-7175D02*
X70290D01*
X69900Y-7565D02*
Y-6785D01*
X72710Y-5275D02*
X73490D01*
X73100Y-5665D02*
Y-4885D01*
X66310Y-5075D02*
X67090D01*
X66700Y-5465D02*
Y-4685D01*
X63110Y-3300D02*
X63890D01*
X63500Y-3690D02*
Y-2910D01*
X63110Y-8000D02*
X63890D01*
X63500Y-8390D02*
Y-7610D01*
X63110Y2600D02*
X63890D01*
X63500Y2210D02*
Y2990D01*
X63110Y8400D02*
X63890D01*
X63500Y8010D02*
Y8790D01*
X63010Y-12100D02*
X63790D01*
X63400Y-12490D02*
Y-11710D01*
X66310Y-10000D02*
X67090D01*
X66700Y-10390D02*
Y-9610D01*
X72710Y-10300D02*
X73490D01*
X73100Y-10690D02*
Y-9910D01*
X56710Y-11700D02*
X57490D01*
X57100Y-12090D02*
Y-11310D01*
X60010Y-9700D02*
X60790D01*
X60400Y-10090D02*
Y-9310D01*
X53610Y-9500D02*
X54390D01*
X54000Y-9890D02*
Y-9110D01*
X53510Y-5600D02*
X54290D01*
X53900Y-5990D02*
Y-5210D01*
X60010Y-5500D02*
X60790D01*
X60400Y-5890D02*
Y-5110D01*
X56710Y-7800D02*
X57490D01*
X57100Y-8190D02*
Y-7410D01*
X50010Y-7700D02*
X50790D01*
X50400Y-8090D02*
Y-7310D01*
X50110Y-11700D02*
X50890D01*
X50500Y-12090D02*
Y-11310D01*
X43310Y-7000D02*
X44090D01*
X43700Y-7390D02*
Y-6610D01*
X46710Y-6000D02*
X47490D01*
X47100Y-6390D02*
Y-5610D01*
X40110Y-5300D02*
X40890D01*
X40500Y-5690D02*
Y-4910D01*
X40010Y-11200D02*
X40790D01*
X40400Y-11590D02*
Y-10810D01*
X46710Y-9400D02*
X47490D01*
X47100Y-9790D02*
Y-9010D01*
X43210Y-11800D02*
X43990D01*
X43600Y-12190D02*
Y-11410D01*
X37410Y200D02*
X38190D01*
X37800Y-190D02*
Y590D01*
X37410Y-4300D02*
X38190D01*
X37800Y-4690D02*
Y-3910D01*
X42710Y5300D02*
X43490D01*
X43100Y4910D02*
Y5690D01*
X41210Y-1900D02*
X41990D01*
X41600Y-2290D02*
Y-1510D01*
X46610Y-1600D02*
X47390D01*
X47000Y-1990D02*
Y-1210D01*
X46610Y4200D02*
X47390D01*
X47000Y3810D02*
Y4590D01*
X46610Y10000D02*
X47390D01*
X47000Y9610D02*
Y10390D01*
X53410Y10000D02*
X54190D01*
X53800Y9610D02*
Y10390D01*
X53410Y4200D02*
X54190D01*
X53800Y3810D02*
Y4590D01*
X53410Y-1600D02*
X54190D01*
X53800Y-1990D02*
Y-1210D01*
X59910Y10100D02*
X60690D01*
X60300Y9710D02*
Y10490D01*
X59910Y4300D02*
X60690D01*
X60300Y3910D02*
Y4690D01*
X59910Y-1500D02*
X60690D01*
X60300Y-1890D02*
Y-1110D01*
X49910Y11600D02*
X50690D01*
X50300Y11210D02*
Y11990D01*
X56610Y11600D02*
X57390D01*
X57000Y11210D02*
Y11990D01*
X41310Y2300D02*
X42090D01*
X41700Y1910D02*
Y2690D01*
X43765Y200D02*
X44545D01*
X44155Y-190D02*
Y590D01*
X83265Y0D02*
X84045D01*
X83655Y-390D02*
Y390D01*
X80810Y2100D02*
X81590D01*
X81200Y1710D02*
Y2490D01*
X96110Y11400D02*
X96890D01*
X96500Y11010D02*
Y11790D01*
X89410Y11400D02*
X90190D01*
X89800Y11010D02*
Y11790D01*
X99410Y-1700D02*
X100190D01*
X99800Y-2090D02*
Y-1310D01*
X99410Y4100D02*
X100190D01*
X99800Y3710D02*
Y4490D01*
X99410Y9900D02*
X100190D01*
X99800Y9510D02*
Y10290D01*
X92910Y-1800D02*
X93690D01*
X93300Y-2190D02*
Y-1410D01*
X92910Y4000D02*
X93690D01*
X93300Y3610D02*
Y4390D01*
X92910Y9800D02*
X93690D01*
X93300Y9410D02*
Y10190D01*
X86110Y9800D02*
X86890D01*
X86500Y9410D02*
Y10190D01*
X86110Y4000D02*
X86890D01*
X86500Y3610D02*
Y4390D01*
X86110Y-1800D02*
X86890D01*
X86500Y-2190D02*
Y-1410D01*
X80710Y-2100D02*
X81490D01*
X81100Y-2490D02*
Y-1710D01*
X82210Y5100D02*
X82990D01*
X82600Y4710D02*
Y5490D01*
X76910Y-4500D02*
X77690D01*
X77300Y-4890D02*
Y-4110D01*
X76910Y0D02*
X77690D01*
X77300Y-390D02*
Y390D01*
X82710Y-12000D02*
X83490D01*
X83100Y-12390D02*
Y-11610D01*
X86210Y-9600D02*
X86990D01*
X86600Y-9990D02*
Y-9210D01*
X79510Y-11400D02*
X80290D01*
X79900Y-11790D02*
Y-11010D01*
X79610Y-5500D02*
X80390D01*
X80000Y-5890D02*
Y-5110D01*
X86210Y-6200D02*
X86990D01*
X86600Y-6590D02*
Y-5810D01*
X82810Y-7200D02*
X83590D01*
X83200Y-7590D02*
Y-6810D01*
X89610Y-11900D02*
X90390D01*
X90000Y-12290D02*
Y-11510D01*
X89510Y-7900D02*
X90290D01*
X89900Y-8290D02*
Y-7510D01*
X96210Y-8000D02*
X96990D01*
X96600Y-8390D02*
Y-7610D01*
X99510Y-5700D02*
X100290D01*
X99900Y-6090D02*
Y-5310D01*
X93010Y-5800D02*
X93790D01*
X93400Y-6190D02*
Y-5410D01*
X93110Y-9700D02*
X93890D01*
X93500Y-10090D02*
Y-9310D01*
X99510Y-9900D02*
X100290D01*
X99900Y-10290D02*
Y-9510D01*
X96210Y-11900D02*
X96990D01*
X96600Y-12290D02*
Y-11510D01*
X112210Y-10500D02*
X112990D01*
X112600Y-10890D02*
Y-10110D01*
X105810Y-10200D02*
X106590D01*
X106200Y-10590D02*
Y-9810D01*
X102510Y-12300D02*
X103290D01*
X102900Y-12690D02*
Y-11910D01*
X102610Y8200D02*
X103390D01*
X103000Y7810D02*
Y8590D01*
X102610Y2400D02*
X103390D01*
X103000Y2010D02*
Y2790D01*
X102610Y-8200D02*
X103390D01*
X103000Y-8590D02*
Y-7810D01*
X102610Y-3500D02*
X103390D01*
X103000Y-3890D02*
Y-3110D01*
X105810Y-5275D02*
X106590D01*
X106200Y-5665D02*
Y-4885D01*
X112210Y-5475D02*
X112990D01*
X112600Y-5865D02*
Y-5085D01*
X109010Y-7375D02*
X109790D01*
X109400Y-7765D02*
Y-6985D01*
X109010Y-2250D02*
X109790D01*
X109400Y-2640D02*
Y-1860D01*
X109010Y8000D02*
X109790D01*
X109400Y7610D02*
Y8390D01*
X109010Y2875D02*
X109790D01*
X109400Y2485D02*
Y3265D01*
X112210Y-450D02*
X112990D01*
X112600Y-840D02*
Y-60D01*
X112210Y4575D02*
X112990D01*
X112600Y4185D02*
Y4965D01*
X112210Y9600D02*
X112990D01*
X112600Y9210D02*
Y9990D01*
X105710Y-350D02*
X106490D01*
X106100Y-740D02*
Y40D01*
X105710Y4575D02*
X106490D01*
X106100Y4185D02*
Y4965D01*
X105710Y9500D02*
X106490D01*
X106100Y9110D02*
Y9890D01*
X96210Y-3500D02*
X96990D01*
X96600Y-3890D02*
Y-3110D01*
X89410Y-3600D02*
X90190D01*
X89800Y-3990D02*
Y-3210D01*
X89410Y6400D02*
X90190D01*
X89800Y6010D02*
Y6790D01*
X89410Y1400D02*
X90190D01*
X89800Y1010D02*
Y1790D01*
X96210Y1467D02*
X96990D01*
X96600Y1077D02*
Y1857D01*
X96210Y6433D02*
X96990D01*
X96600Y6043D02*
Y6823D01*
X76785Y-9418D02*
X77565D01*
X77175Y-9808D02*
Y-9028D01*
X108910Y-12500D02*
X109690D01*
X109300Y-12890D02*
Y-12110D01*
X-37768Y-32798D02*
X-36988D01*
X-37378Y-33189D02*
Y-32408D01*
X4310Y-33000D02*
X5090D01*
X4700Y-33390D02*
Y-32610D01*
X43410Y-32900D02*
X44190D01*
X43800Y-33290D02*
Y-32510D01*
X82710Y-33300D02*
X83490D01*
X83100Y-33690D02*
Y-32910D01*
X-33990Y-39400D02*
X-33210D01*
X-33600Y-39790D02*
Y-39010D01*
X-33990Y-33600D02*
X-33210D01*
X-33600Y-33990D02*
Y-33210D01*
X-33990Y-27800D02*
X-33210D01*
X-33600Y-28190D02*
Y-27410D01*
X-27190Y-27800D02*
X-26410D01*
X-26800Y-28190D02*
Y-27410D01*
X-27190Y-33600D02*
X-26410D01*
X-26800Y-33990D02*
Y-33210D01*
X-27190Y-39400D02*
X-26410D01*
X-26800Y-39790D02*
Y-39010D01*
X-20690Y-27700D02*
X-19910D01*
X-20300Y-28090D02*
Y-27310D01*
X-20690Y-33500D02*
X-19910D01*
X-20300Y-33890D02*
Y-33110D01*
X-20690Y-39300D02*
X-19910D01*
X-20300Y-39690D02*
Y-38910D01*
X-30690Y-26200D02*
X-29910D01*
X-30300Y-26590D02*
Y-25810D01*
X-23990Y-26200D02*
X-23210D01*
X-23600Y-26590D02*
Y-25810D01*
X17810Y-30800D02*
X18590D01*
X18200Y-31190D02*
Y-30410D01*
X17810Y-36600D02*
X18590D01*
X18200Y-36990D02*
Y-36210D01*
X11010Y-30800D02*
X11790D01*
X11400Y-31190D02*
Y-30410D01*
X11010Y-36600D02*
X11790D01*
X11400Y-36990D02*
Y-36210D01*
X17910Y-26200D02*
X18690D01*
X18300Y-26590D02*
Y-25810D01*
X11210Y-26200D02*
X11990D01*
X11600Y-26590D02*
Y-25810D01*
X21210Y-39300D02*
X21990D01*
X21600Y-39690D02*
Y-38910D01*
X21210Y-33500D02*
X21990D01*
X21600Y-33890D02*
Y-33110D01*
X21210Y-27700D02*
X21990D01*
X21600Y-28090D02*
Y-27310D01*
X14710Y-39400D02*
X15490D01*
X15100Y-39790D02*
Y-39010D01*
X14710Y-33600D02*
X15490D01*
X15100Y-33990D02*
Y-33210D01*
X14710Y-27800D02*
X15490D01*
X15100Y-28190D02*
Y-27410D01*
X7910Y-27800D02*
X8690D01*
X8300Y-28190D02*
Y-27410D01*
X7910Y-33600D02*
X8690D01*
X8300Y-33990D02*
Y-33210D01*
X7910Y-39400D02*
X8690D01*
X8300Y-39790D02*
Y-39010D01*
X56810Y-30700D02*
X57590D01*
X57200Y-31090D02*
Y-30310D01*
X56810Y-36500D02*
X57590D01*
X57200Y-36890D02*
Y-36110D01*
X50010Y-30700D02*
X50790D01*
X50400Y-31090D02*
Y-30310D01*
X50010Y-36500D02*
X50790D01*
X50400Y-36890D02*
Y-36110D01*
X56810Y-26200D02*
X57590D01*
X57200Y-26590D02*
Y-25810D01*
X50110Y-26200D02*
X50890D01*
X50500Y-26590D02*
Y-25810D01*
X60110Y-39300D02*
X60890D01*
X60500Y-39690D02*
Y-38910D01*
X60110Y-33500D02*
X60890D01*
X60500Y-33890D02*
Y-33110D01*
X60110Y-27700D02*
X60890D01*
X60500Y-28090D02*
Y-27310D01*
X53610Y-39400D02*
X54390D01*
X54000Y-39790D02*
Y-39010D01*
X53610Y-33600D02*
X54390D01*
X54000Y-33990D02*
Y-33210D01*
X53610Y-27800D02*
X54390D01*
X54000Y-28190D02*
Y-27410D01*
X46810Y-27800D02*
X47590D01*
X47200Y-28190D02*
Y-27410D01*
X46810Y-33600D02*
X47590D01*
X47200Y-33990D02*
Y-33210D01*
X46810Y-39400D02*
X47590D01*
X47200Y-39790D02*
Y-39010D01*
X95910Y-26500D02*
X96690D01*
X96300Y-26890D02*
Y-26110D01*
X89210Y-26500D02*
X89990D01*
X89600Y-26890D02*
Y-26110D01*
X99210Y-39600D02*
X99990D01*
X99600Y-39990D02*
Y-39210D01*
X99210Y-33800D02*
X99990D01*
X99600Y-34190D02*
Y-33410D01*
X99210Y-28000D02*
X99990D01*
X99600Y-28390D02*
Y-27610D01*
X92710Y-39700D02*
X93490D01*
X93100Y-40090D02*
Y-39310D01*
X92710Y-33900D02*
X93490D01*
X93100Y-34290D02*
Y-33510D01*
X92710Y-28100D02*
X93490D01*
X93100Y-28490D02*
Y-27710D01*
X85910Y-28100D02*
X86690D01*
X86300Y-28490D02*
Y-27710D01*
X85910Y-33900D02*
X86690D01*
X86300Y-34290D02*
Y-33510D01*
X85910Y-39700D02*
X86690D01*
X86300Y-40090D02*
Y-39310D01*
X-39590Y-40000D02*
X-38810D01*
X-39200Y-40390D02*
Y-39610D01*
X-36990Y-37700D02*
X-36210D01*
X-36600Y-38090D02*
Y-37310D01*
X-39490Y-35800D02*
X-38710D01*
X-39100Y-36190D02*
Y-35410D01*
X2410Y-35400D02*
X3190D01*
X2800Y-35790D02*
Y-35010D01*
X5010Y-37800D02*
X5790D01*
X5400Y-38190D02*
Y-37410D01*
X41010Y-35700D02*
X41790D01*
X41400Y-36090D02*
Y-35310D01*
X43610Y-37400D02*
X44390D01*
X44000Y-37790D02*
Y-37010D01*
X41110Y-39900D02*
X41890D01*
X41500Y-40290D02*
Y-39510D01*
X80210Y-36000D02*
X80990D01*
X80600Y-36390D02*
Y-35610D01*
X82710Y-38100D02*
X83490D01*
X83100Y-38490D02*
Y-37710D01*
X-15744Y-53200D02*
X-14964D01*
X-15354Y-53590D02*
Y-52810D01*
X-15744Y-50300D02*
X-14964D01*
X-15354Y-50690D02*
Y-49910D01*
X-24308Y-50200D02*
X-23528D01*
X-23918Y-50590D02*
Y-49810D01*
X-24308Y-53100D02*
X-23528D01*
X-23918Y-53490D02*
Y-52710D01*
X-20026Y-54400D02*
X-19246D01*
X-19636Y-54790D02*
Y-54010D01*
X-20026Y-51500D02*
X-19246D01*
X-19636Y-51890D02*
Y-51110D01*
X-28590Y-51600D02*
X-27810D01*
X-28200Y-51990D02*
Y-51210D01*
X1385Y-53200D02*
X2165D01*
X1775Y-53590D02*
Y-52810D01*
X1385Y-50300D02*
X2165D01*
X1775Y-50690D02*
Y-49910D01*
X-7179Y-50200D02*
X-6399D01*
X-6789Y-50590D02*
Y-49810D01*
X-7179Y-53100D02*
X-6399D01*
X-6789Y-53490D02*
Y-52710D01*
X-2897Y-51500D02*
X-2117D01*
X-2507Y-51890D02*
Y-51110D01*
X-11461Y-51600D02*
X-10681D01*
X-11071Y-51990D02*
Y-51210D01*
X18514Y-53200D02*
X19294D01*
X18903Y-53590D02*
Y-52810D01*
X18514Y-50300D02*
X19294D01*
X18903Y-50690D02*
Y-49910D01*
X9949Y-50200D02*
X10729D01*
X10339Y-50590D02*
Y-49810D01*
X9949Y-53100D02*
X10729D01*
X10339Y-53490D02*
Y-52710D01*
X14231Y-51600D02*
X15011D01*
X14621Y-51990D02*
Y-51210D01*
X5667Y-51600D02*
X6447D01*
X6057Y-51990D02*
Y-51210D01*
X35642Y-50200D02*
X36422D01*
X36032Y-50590D02*
Y-49810D01*
X35642Y-53100D02*
X36422D01*
X36032Y-53490D02*
Y-52710D01*
X27078Y-50200D02*
X27858D01*
X27468Y-50590D02*
Y-49810D01*
X27078Y-53100D02*
X27858D01*
X27468Y-53490D02*
Y-52710D01*
X39924Y-51500D02*
X40704D01*
X40314Y-51890D02*
Y-51110D01*
X31360Y-51600D02*
X32140D01*
X31750Y-51990D02*
Y-51210D01*
X22796Y-51600D02*
X23576D01*
X23186Y-51990D02*
Y-51210D01*
X61335Y-53200D02*
X62115D01*
X61725Y-53590D02*
Y-52810D01*
X61335Y-50300D02*
X62115D01*
X61725Y-50690D02*
Y-49910D01*
X52771Y-50200D02*
X53551D01*
X53161Y-50590D02*
Y-49810D01*
X52771Y-53100D02*
X53551D01*
X53161Y-53490D02*
Y-52710D01*
X44206Y-50200D02*
X44986D01*
X44596Y-50590D02*
Y-49810D01*
X44206Y-53100D02*
X44986D01*
X44596Y-53490D02*
Y-52710D01*
X57053Y-51500D02*
X57833D01*
X57443Y-51890D02*
Y-51110D01*
X48489Y-51600D02*
X49268D01*
X48878Y-51990D02*
Y-51210D01*
X78464Y-53200D02*
X79243D01*
X78853Y-53590D02*
Y-52810D01*
X78464Y-50300D02*
X79243D01*
X78853Y-50690D02*
Y-49910D01*
X69899Y-50200D02*
X70679D01*
X70289Y-50590D02*
Y-49810D01*
X69899Y-53100D02*
X70679D01*
X70289Y-53490D02*
Y-52710D01*
X74181Y-51500D02*
X74961D01*
X74571Y-51890D02*
Y-51110D01*
X65617Y-51600D02*
X66397D01*
X66007Y-51990D02*
Y-51210D01*
X96710Y-50600D02*
X97490D01*
X97100Y-50990D02*
Y-50210D01*
X82746Y-51600D02*
X83526D01*
X83136Y-51990D02*
Y-51210D01*
X82746Y-54500D02*
X83526D01*
X83136Y-54890D02*
Y-54110D01*
X-17590Y-26200D02*
X-16810D01*
X-17200Y-26590D02*
Y-25810D01*
X-17490Y-47000D02*
X-16710D01*
X-17100Y-47390D02*
Y-46610D01*
X-17490Y-41000D02*
X-16710D01*
X-17100Y-41390D02*
Y-40610D01*
X-23890Y-41000D02*
X-23110D01*
X-23500Y-41390D02*
Y-40610D01*
X-23890Y-47000D02*
X-23110D01*
X-23500Y-47390D02*
Y-46610D01*
X-30690Y-41000D02*
X-29910D01*
X-30300Y-41390D02*
Y-40610D01*
X-30690Y-47000D02*
X-29910D01*
X-30300Y-47390D02*
Y-46610D01*
X-20690Y-44200D02*
X-19910D01*
X-20300Y-44590D02*
Y-43810D01*
X-34090Y-44200D02*
X-33310D01*
X-33700Y-44590D02*
Y-43810D01*
X-14590Y-44200D02*
X-13810D01*
X-14200Y-44590D02*
Y-43810D01*
X-7790Y-44200D02*
X-7010D01*
X-7400Y-44590D02*
Y-43810D01*
X-11090Y-47000D02*
X-10310D01*
X-10700Y-47390D02*
Y-46610D01*
X-11290Y-42600D02*
X-10510D01*
X-10900Y-42990D02*
Y-42210D01*
X-4690Y-47000D02*
X-3910D01*
X-4300Y-47390D02*
Y-46610D01*
X-4890Y-42600D02*
X-4110D01*
X-4500Y-42990D02*
Y-42210D01*
X-4790Y-36900D02*
X-4010D01*
X-4400Y-37290D02*
Y-36510D01*
X-4790Y-31100D02*
X-4010D01*
X-4400Y-31490D02*
Y-30710D01*
X-4790Y-26400D02*
X-4010D01*
X-4400Y-26790D02*
Y-26010D01*
X-11290Y-30900D02*
X-10510D01*
X-10900Y-31290D02*
Y-30510D01*
X-11290Y-36700D02*
X-10510D01*
X-10900Y-37090D02*
Y-36310D01*
X-11190Y-26400D02*
X-10410D01*
X-10800Y-26790D02*
Y-26010D01*
X-7890Y-39500D02*
X-7110D01*
X-7500Y-39890D02*
Y-39110D01*
X-7890Y-33700D02*
X-7110D01*
X-7500Y-34090D02*
Y-33310D01*
X-7890Y-27900D02*
X-7110D01*
X-7500Y-28290D02*
Y-27510D01*
X-14590Y-38900D02*
X-13810D01*
X-14200Y-39290D02*
Y-38510D01*
X-14390Y-33800D02*
X-13610D01*
X-14000Y-34190D02*
Y-33410D01*
X-14390Y-28000D02*
X-13610D01*
X-14000Y-28390D02*
Y-27610D01*
X-1490Y-39700D02*
X-710D01*
X-1100Y-40090D02*
Y-39310D01*
X40110Y-42700D02*
X40890D01*
X40500Y-43090D02*
Y-42310D01*
X27210Y-28000D02*
X27990D01*
X27600Y-28390D02*
Y-27610D01*
X27210Y-33800D02*
X27990D01*
X27600Y-34190D02*
Y-33410D01*
X27210Y-39600D02*
X27990D01*
X27600Y-39990D02*
Y-39210D01*
X33710Y-27900D02*
X34490D01*
X34100Y-28290D02*
Y-27510D01*
X33710Y-33700D02*
X34490D01*
X34100Y-34090D02*
Y-33310D01*
X33710Y-39500D02*
X34490D01*
X34100Y-39890D02*
Y-39110D01*
X30410Y-26400D02*
X31190D01*
X30800Y-26790D02*
Y-26010D01*
X36910Y-47000D02*
X37690D01*
X37300Y-47390D02*
Y-46610D01*
X36910Y-41200D02*
X37690D01*
X37300Y-41590D02*
Y-40810D01*
X30410Y-42200D02*
X31190D01*
X30800Y-42590D02*
Y-41810D01*
X30510Y-47000D02*
X31290D01*
X30900Y-47390D02*
Y-46610D01*
X33710Y-44500D02*
X34490D01*
X34100Y-44890D02*
Y-44110D01*
X27410Y-44500D02*
X28190D01*
X27800Y-44890D02*
Y-44110D01*
X24110Y-41000D02*
X24890D01*
X24500Y-41390D02*
Y-40610D01*
X24110Y-46800D02*
X24890D01*
X24500Y-47190D02*
Y-46410D01*
X24010Y-26200D02*
X24790D01*
X24400Y-26590D02*
Y-25810D01*
X79210Y-42900D02*
X79990D01*
X79600Y-43290D02*
Y-42510D01*
X66310Y-28000D02*
X67090D01*
X66700Y-28390D02*
Y-27610D01*
X66310Y-33800D02*
X67090D01*
X66700Y-34190D02*
Y-33410D01*
X66310Y-39600D02*
X67090D01*
X66700Y-39990D02*
Y-39210D01*
X72810Y-27900D02*
X73590D01*
X73200Y-28290D02*
Y-27510D01*
X72810Y-33700D02*
X73590D01*
X73200Y-34090D02*
Y-33310D01*
X72810Y-39500D02*
X73590D01*
X73200Y-39890D02*
Y-39110D01*
X69510Y-26400D02*
X70290D01*
X69900Y-26790D02*
Y-26010D01*
X69510Y-36700D02*
X70290D01*
X69900Y-37090D02*
Y-36310D01*
X69510Y-30900D02*
X70290D01*
X69900Y-31290D02*
Y-30510D01*
X76010Y-41200D02*
X76790D01*
X76400Y-41590D02*
Y-40810D01*
X76010Y-47100D02*
X76790D01*
X76400Y-47490D02*
Y-46710D01*
X69510Y-42200D02*
X70290D01*
X69900Y-42590D02*
Y-41810D01*
X69610Y-47000D02*
X70390D01*
X70000Y-47390D02*
Y-46610D01*
X72710Y-44100D02*
X73490D01*
X73100Y-44490D02*
Y-43710D01*
X66210Y-44200D02*
X66990D01*
X66600Y-44590D02*
Y-43810D01*
X63210Y-41000D02*
X63990D01*
X63600Y-41390D02*
Y-40610D01*
X63210Y-46800D02*
X63990D01*
X63600Y-47190D02*
Y-46410D01*
X63110Y-36500D02*
X63890D01*
X63500Y-36890D02*
Y-36110D01*
X63110Y-30700D02*
X63890D01*
X63500Y-31090D02*
Y-30310D01*
X63110Y-26200D02*
X63890D01*
X63500Y-26590D02*
Y-25810D01*
X105510Y-28400D02*
X106290D01*
X105900Y-28790D02*
Y-28010D01*
X105510Y-34200D02*
X106290D01*
X105900Y-34590D02*
Y-33810D01*
X105510Y-40000D02*
X106290D01*
X105900Y-40390D02*
Y-39610D01*
X112010Y-28300D02*
X112790D01*
X112400Y-28690D02*
Y-27910D01*
X108710Y-26800D02*
X109490D01*
X109100Y-27190D02*
Y-26410D01*
X115110Y-26800D02*
X115890D01*
X115500Y-27190D02*
Y-26410D01*
X102410Y-41400D02*
X103190D01*
X102800Y-41790D02*
Y-41010D01*
X102410Y-44300D02*
X103190D01*
X102800Y-44690D02*
Y-43910D01*
X102310Y-26600D02*
X103090D01*
X102700Y-26990D02*
Y-26210D01*
X7910Y-44000D02*
X8690D01*
X8300Y-44390D02*
Y-43610D01*
X14710Y-44000D02*
X15490D01*
X15100Y-44390D02*
Y-43610D01*
X21210Y-43900D02*
X21990D01*
X21600Y-44290D02*
Y-43510D01*
X11210Y-46800D02*
X11990D01*
X11600Y-47190D02*
Y-46410D01*
X11210Y-41000D02*
X11990D01*
X11600Y-41390D02*
Y-40610D01*
X18010Y-46800D02*
X18790D01*
X18400Y-47190D02*
Y-46410D01*
X18010Y-41000D02*
X18790D01*
X18400Y-41390D02*
Y-40610D01*
X46610Y-43800D02*
X47390D01*
X47000Y-44190D02*
Y-43410D01*
X53410Y-43800D02*
X54190D01*
X53800Y-44190D02*
Y-43410D01*
X59910Y-43700D02*
X60690D01*
X60300Y-44090D02*
Y-43310D01*
X50110Y-47000D02*
X50890D01*
X50500Y-47390D02*
Y-46610D01*
X50110Y-41200D02*
X50890D01*
X50500Y-41590D02*
Y-40810D01*
X56910Y-47000D02*
X57690D01*
X57300Y-47390D02*
Y-46610D01*
X56910Y-41200D02*
X57690D01*
X57300Y-41590D02*
Y-40810D01*
X85810Y-43800D02*
X86590D01*
X86200Y-44190D02*
Y-43410D01*
X89210Y-47100D02*
X89990D01*
X89600Y-47490D02*
Y-46710D01*
X89210Y-41300D02*
X89990D01*
X89600Y-41690D02*
Y-40910D01*
X96010Y-47100D02*
X96790D01*
X96400Y-47490D02*
Y-46710D01*
X96010Y-41300D02*
X96790D01*
X96400Y-41690D02*
Y-40910D01*
X4810Y-46700D02*
X5590D01*
X5200Y-47090D02*
Y-46310D01*
X2010Y-42800D02*
X2790D01*
X2400Y-43190D02*
Y-42410D01*
X2310Y-39600D02*
X3090D01*
X2700Y-39990D02*
Y-39210D01*
X43510Y-46900D02*
X44290D01*
X43900Y-47290D02*
Y-46510D01*
X80310Y-39700D02*
X81090D01*
X80700Y-40090D02*
Y-39310D01*
X82710Y-47200D02*
X83490D01*
X83100Y-47590D02*
Y-46810D01*
X57053Y-54400D02*
X57833D01*
X57443Y-54790D02*
Y-54010D01*
X-2897Y-54400D02*
X-2117D01*
X-2507Y-54790D02*
Y-54010D01*
X74181Y-54400D02*
X74961D01*
X74571Y-54790D02*
Y-54010D01*
X39924Y-54400D02*
X40704D01*
X40314Y-54790D02*
Y-54010D01*
X94010Y-53000D02*
X94790D01*
X94400Y-53390D02*
Y-52610D01*
X115174Y-35664D02*
X115954D01*
X115564Y-36054D02*
Y-35274D01*
X-11461Y-54500D02*
X-10681D01*
X-11071Y-54890D02*
Y-54110D01*
X31360Y-54500D02*
X32140D01*
X31750Y-54890D02*
Y-54110D01*
X48489Y-54500D02*
X49268D01*
X48878Y-54890D02*
Y-54110D01*
X5667Y-54500D02*
X6447D01*
X6057Y-54890D02*
Y-54110D01*
X22796Y-54500D02*
X23576D01*
X23186Y-54890D02*
Y-54110D01*
X14231Y-54500D02*
X15011D01*
X14621Y-54890D02*
Y-54110D01*
X65617Y-54500D02*
X66397D01*
X66007Y-54890D02*
Y-54110D01*
X-28590Y-54500D02*
X-27810D01*
X-28200Y-54890D02*
Y-54110D01*
X-30790Y-30700D02*
X-30010D01*
X-30400Y-31090D02*
Y-30310D01*
X-30690Y-36600D02*
X-29910D01*
X-30300Y-36990D02*
Y-36210D01*
X-23990Y-30800D02*
X-23210D01*
X-23600Y-31190D02*
Y-30410D01*
X-23990Y-36700D02*
X-23210D01*
X-23600Y-37090D02*
Y-36310D01*
X-17790Y-30900D02*
X-17010D01*
X-17400Y-31290D02*
Y-30510D01*
X-17790Y-36900D02*
X-17010D01*
X-17400Y-37290D02*
Y-36510D01*
X-27290Y-44200D02*
X-26510D01*
X-26900Y-44590D02*
Y-43810D01*
X-1490Y-44400D02*
X-710D01*
X-1100Y-44790D02*
Y-44010D01*
X23910Y-36600D02*
X24690D01*
X24300Y-36990D02*
Y-36210D01*
X30310Y-36800D02*
X31090D01*
X30700Y-37190D02*
Y-36410D01*
X30310Y-31000D02*
X31090D01*
X30700Y-31390D02*
Y-30610D01*
X23910Y-30800D02*
X24690D01*
X24300Y-31190D02*
Y-30410D01*
X92710Y-43900D02*
X93490D01*
X93100Y-44290D02*
Y-43510D01*
X99210Y-43800D02*
X99990D01*
X99600Y-44190D02*
Y-43410D01*
X102610Y-30900D02*
X103390D01*
X103000Y-31290D02*
Y-30510D01*
X89410Y-36600D02*
X90190D01*
X89800Y-36990D02*
Y-36210D01*
X89410Y-30800D02*
X90190D01*
X89800Y-31190D02*
Y-30410D01*
X96210Y-36600D02*
X96990D01*
X96600Y-36990D02*
Y-36210D01*
X102610Y-36700D02*
X103390D01*
X103000Y-37090D02*
Y-36310D01*
X96210Y-30800D02*
X96990D01*
X96600Y-31190D02*
Y-30410D01*
X115210Y-31000D02*
X115990D01*
X115600Y-31390D02*
Y-30610D01*
X108810Y-31000D02*
X109590D01*
X109200Y-31390D02*
Y-30610D01*
X108710Y-37000D02*
X109490D01*
X109100Y-37390D02*
Y-36610D01*
X111810Y-33400D02*
X112590D01*
X112200Y-33790D02*
Y-33010D01*
X87028Y-53400D02*
X87808D01*
X87418Y-53790D02*
Y-53010D01*
X91292Y-54700D02*
X92072D01*
X91682Y-55090D02*
Y-54310D01*
X91292Y-51800D02*
X92072D01*
X91682Y-52190D02*
Y-51410D01*
X87010Y-50500D02*
X87790D01*
X87400Y-50890D02*
Y-50110D01*
X108910Y-110400D02*
X109690D01*
X109300Y-110790D02*
Y-110010D01*
X76785Y-107318D02*
X77565D01*
X77175Y-107708D02*
Y-106928D01*
X89410Y-96500D02*
X90190D01*
X89800Y-96890D02*
Y-96110D01*
X89410Y-91500D02*
X90190D01*
X89800Y-91890D02*
Y-91110D01*
X89410Y-101500D02*
X90190D01*
X89800Y-101890D02*
Y-101110D01*
X105710Y-88400D02*
X106490D01*
X106100Y-88790D02*
Y-88010D01*
X105710Y-93325D02*
X106490D01*
X106100Y-93715D02*
Y-92935D01*
X105710Y-98250D02*
X106490D01*
X106100Y-98640D02*
Y-97860D01*
X112210Y-88300D02*
X112990D01*
X112600Y-88690D02*
Y-87910D01*
X112210Y-93325D02*
X112990D01*
X112600Y-93715D02*
Y-92935D01*
X112210Y-98350D02*
X112990D01*
X112600Y-98740D02*
Y-97960D01*
X109010Y-95025D02*
X109790D01*
X109400Y-95415D02*
Y-94635D01*
X109010Y-89900D02*
X109790D01*
X109400Y-90290D02*
Y-89510D01*
X109010Y-100150D02*
X109790D01*
X109400Y-100540D02*
Y-99760D01*
X109010Y-105275D02*
X109790D01*
X109400Y-105665D02*
Y-104885D01*
X112210Y-103375D02*
X112990D01*
X112600Y-103765D02*
Y-102985D01*
X105810Y-103175D02*
X106590D01*
X106200Y-103565D02*
Y-102785D01*
X102610Y-101400D02*
X103390D01*
X103000Y-101790D02*
Y-101010D01*
X102610Y-106100D02*
X103390D01*
X103000Y-106490D02*
Y-105710D01*
X102610Y-95500D02*
X103390D01*
X103000Y-95890D02*
Y-95110D01*
X102610Y-89700D02*
X103390D01*
X103000Y-90090D02*
Y-89310D01*
X102510Y-110200D02*
X103290D01*
X102900Y-110590D02*
Y-109810D01*
X105810Y-108100D02*
X106590D01*
X106200Y-108490D02*
Y-107710D01*
X112210Y-108400D02*
X112990D01*
X112600Y-108790D02*
Y-108010D01*
X96210Y-109800D02*
X96990D01*
X96600Y-110190D02*
Y-109410D01*
X99510Y-107800D02*
X100290D01*
X99900Y-108190D02*
Y-107410D01*
X93110Y-107600D02*
X93890D01*
X93500Y-107990D02*
Y-107210D01*
X93010Y-103700D02*
X93790D01*
X93400Y-104090D02*
Y-103310D01*
X99510Y-103600D02*
X100290D01*
X99900Y-103990D02*
Y-103210D01*
X96210Y-105900D02*
X96990D01*
X96600Y-106290D02*
Y-105510D01*
X89510Y-105800D02*
X90290D01*
X89900Y-106190D02*
Y-105410D01*
X89610Y-109800D02*
X90390D01*
X90000Y-110190D02*
Y-109410D01*
X82810Y-105100D02*
X83590D01*
X83200Y-105490D02*
Y-104710D01*
X86210Y-104100D02*
X86990D01*
X86600Y-104490D02*
Y-103710D01*
X79610Y-103400D02*
X80390D01*
X80000Y-103790D02*
Y-103010D01*
X79510Y-109300D02*
X80290D01*
X79900Y-109690D02*
Y-108910D01*
X86210Y-107500D02*
X86990D01*
X86600Y-107890D02*
Y-107110D01*
X82710Y-109900D02*
X83490D01*
X83100Y-110290D02*
Y-109510D01*
X76910Y-97900D02*
X77690D01*
X77300Y-98290D02*
Y-97510D01*
X76910Y-102400D02*
X77690D01*
X77300Y-102790D02*
Y-102010D01*
X82210Y-92800D02*
X82990D01*
X82600Y-93190D02*
Y-92410D01*
X80710Y-100000D02*
X81490D01*
X81100Y-100390D02*
Y-99610D01*
X86110Y-99700D02*
X86890D01*
X86500Y-100090D02*
Y-99310D01*
X86110Y-93900D02*
X86890D01*
X86500Y-94290D02*
Y-93510D01*
X86110Y-88100D02*
X86890D01*
X86500Y-88490D02*
Y-87710D01*
X92910Y-88100D02*
X93690D01*
X93300Y-88490D02*
Y-87710D01*
X92910Y-93900D02*
X93690D01*
X93300Y-94290D02*
Y-93510D01*
X92910Y-99700D02*
X93690D01*
X93300Y-100090D02*
Y-99310D01*
X99410Y-88000D02*
X100190D01*
X99800Y-88390D02*
Y-87610D01*
X99410Y-93800D02*
X100190D01*
X99800Y-94190D02*
Y-93410D01*
X99410Y-99600D02*
X100190D01*
X99800Y-99990D02*
Y-99210D01*
X89410Y-86500D02*
X90190D01*
X89800Y-86890D02*
Y-86110D01*
X80810Y-95800D02*
X81590D01*
X81200Y-96190D02*
Y-95410D01*
X83265Y-97900D02*
X84045D01*
X83655Y-98290D02*
Y-97510D01*
X43765Y-97700D02*
X44545D01*
X44155Y-98090D02*
Y-97310D01*
X41310Y-95600D02*
X42090D01*
X41700Y-95990D02*
Y-95210D01*
X56610Y-86300D02*
X57390D01*
X57000Y-86690D02*
Y-85910D01*
X49910Y-86300D02*
X50690D01*
X50300Y-86690D02*
Y-85910D01*
X59910Y-99400D02*
X60690D01*
X60300Y-99790D02*
Y-99010D01*
X59910Y-93600D02*
X60690D01*
X60300Y-93990D02*
Y-93210D01*
X59910Y-87800D02*
X60690D01*
X60300Y-88190D02*
Y-87410D01*
X53410Y-99500D02*
X54190D01*
X53800Y-99890D02*
Y-99110D01*
X53410Y-93700D02*
X54190D01*
X53800Y-94090D02*
Y-93310D01*
X53410Y-87900D02*
X54190D01*
X53800Y-88290D02*
Y-87510D01*
X46610Y-87900D02*
X47390D01*
X47000Y-88290D02*
Y-87510D01*
X46610Y-93700D02*
X47390D01*
X47000Y-94090D02*
Y-93310D01*
X46610Y-99500D02*
X47390D01*
X47000Y-99890D02*
Y-99110D01*
X41210Y-99800D02*
X41990D01*
X41600Y-100190D02*
Y-99410D01*
X42710Y-92600D02*
X43490D01*
X43100Y-92990D02*
Y-92210D01*
X37410Y-102200D02*
X38190D01*
X37800Y-102590D02*
Y-101810D01*
X37410Y-97700D02*
X38190D01*
X37800Y-98090D02*
Y-97310D01*
X43210Y-109700D02*
X43990D01*
X43600Y-110090D02*
Y-109310D01*
X46710Y-107300D02*
X47490D01*
X47100Y-107690D02*
Y-106910D01*
X40010Y-109100D02*
X40790D01*
X40400Y-109490D02*
Y-108710D01*
X40110Y-103200D02*
X40890D01*
X40500Y-103590D02*
Y-102810D01*
X46710Y-103900D02*
X47490D01*
X47100Y-104290D02*
Y-103510D01*
X43310Y-104900D02*
X44090D01*
X43700Y-105290D02*
Y-104510D01*
X50110Y-109600D02*
X50890D01*
X50500Y-109990D02*
Y-109210D01*
X50010Y-105600D02*
X50790D01*
X50400Y-105990D02*
Y-105210D01*
X56710Y-105700D02*
X57490D01*
X57100Y-106090D02*
Y-105310D01*
X60010Y-103400D02*
X60790D01*
X60400Y-103790D02*
Y-103010D01*
X53510Y-103500D02*
X54290D01*
X53900Y-103890D02*
Y-103110D01*
X53610Y-107400D02*
X54390D01*
X54000Y-107790D02*
Y-107010D01*
X60010Y-107600D02*
X60790D01*
X60400Y-107990D02*
Y-107210D01*
X56710Y-109600D02*
X57490D01*
X57100Y-109990D02*
Y-109210D01*
X72710Y-108200D02*
X73490D01*
X73100Y-108590D02*
Y-107810D01*
X66310Y-107900D02*
X67090D01*
X66700Y-108290D02*
Y-107510D01*
X63010Y-110000D02*
X63790D01*
X63400Y-110390D02*
Y-109610D01*
X63110Y-89500D02*
X63890D01*
X63500Y-89890D02*
Y-89110D01*
X63110Y-95300D02*
X63890D01*
X63500Y-95690D02*
Y-94910D01*
X63110Y-105900D02*
X63890D01*
X63500Y-106290D02*
Y-105510D01*
X63110Y-101200D02*
X63890D01*
X63500Y-101590D02*
Y-100810D01*
X66310Y-102975D02*
X67090D01*
X66700Y-103365D02*
Y-102585D01*
X72710Y-103175D02*
X73490D01*
X73100Y-103565D02*
Y-102785D01*
X69510Y-105075D02*
X70290D01*
X69900Y-105465D02*
Y-104685D01*
X69510Y-99950D02*
X70290D01*
X69900Y-100340D02*
Y-99560D01*
X69510Y-89700D02*
X70290D01*
X69900Y-90090D02*
Y-89310D01*
X69510Y-94825D02*
X70290D01*
X69900Y-95215D02*
Y-94435D01*
X72710Y-98150D02*
X73490D01*
X73100Y-98540D02*
Y-97760D01*
X72710Y-93125D02*
X73490D01*
X73100Y-93515D02*
Y-92735D01*
X72710Y-88100D02*
X73490D01*
X73100Y-88490D02*
Y-87710D01*
X66210Y-98050D02*
X66990D01*
X66600Y-98440D02*
Y-97660D01*
X66210Y-93125D02*
X66990D01*
X66600Y-93515D02*
Y-92735D01*
X66210Y-88200D02*
X66990D01*
X66600Y-88590D02*
Y-87810D01*
X56710Y-101200D02*
X57490D01*
X57100Y-101590D02*
Y-100810D01*
X49910Y-101300D02*
X50690D01*
X50300Y-101690D02*
Y-100910D01*
X49910Y-91300D02*
X50690D01*
X50300Y-91690D02*
Y-90910D01*
X49910Y-96300D02*
X50690D01*
X50300Y-96690D02*
Y-95910D01*
X56710Y-96233D02*
X57490D01*
X57100Y-96623D02*
Y-95843D01*
X56710Y-91267D02*
X57490D01*
X57100Y-91657D02*
Y-90877D01*
X37285Y-107118D02*
X38065D01*
X37675Y-107508D02*
Y-106728D01*
X69410Y-110200D02*
X70190D01*
X69800Y-110590D02*
Y-109810D01*
X30510Y-109900D02*
X31290D01*
X30900Y-110290D02*
Y-109510D01*
X-1615Y-106818D02*
X-835D01*
X-1225Y-107208D02*
Y-106428D01*
X86810Y-148400D02*
X87590D01*
X87200Y-148790D02*
Y-148010D01*
X91092Y-149700D02*
X91872D01*
X91482Y-150090D02*
Y-149310D01*
X91092Y-152600D02*
X91872D01*
X91482Y-152990D02*
Y-152210D01*
X-31090Y-89900D02*
X-30310D01*
X-30700Y-90290D02*
Y-89510D01*
X-24290Y-89900D02*
X-23510D01*
X-23900Y-90290D02*
Y-89510D01*
X-31090Y-95800D02*
X-30310D01*
X-30700Y-96190D02*
Y-95410D01*
X-24290Y-95800D02*
X-23510D01*
X-23900Y-96190D02*
Y-95410D01*
X83210Y-71100D02*
X83990D01*
X83600Y-71490D02*
Y-70710D01*
X83210Y-68200D02*
X83990D01*
X83600Y-68590D02*
Y-67810D01*
X74518Y-68200D02*
X75298D01*
X74908Y-68590D02*
Y-67810D01*
X74518Y-71100D02*
X75298D01*
X74908Y-71490D02*
Y-70710D01*
X86828Y-151300D02*
X87608D01*
X87218Y-151690D02*
Y-150910D01*
X111610Y-131300D02*
X112390D01*
X112000Y-131690D02*
Y-130910D01*
X108510Y-134900D02*
X109290D01*
X108900Y-135290D02*
Y-134510D01*
X108610Y-128900D02*
X109390D01*
X109000Y-129290D02*
Y-128510D01*
X115010Y-128900D02*
X115790D01*
X115400Y-129290D02*
Y-128510D01*
X102410Y-134600D02*
X103190D01*
X102800Y-134990D02*
Y-134210D01*
X89210Y-128700D02*
X89990D01*
X89600Y-129090D02*
Y-128310D01*
X89210Y-134500D02*
X89990D01*
X89600Y-134890D02*
Y-134110D01*
X102410Y-128800D02*
X103190D01*
X102800Y-129190D02*
Y-128410D01*
X99010Y-141700D02*
X99790D01*
X99400Y-142090D02*
Y-141310D01*
X92510Y-141800D02*
X93290D01*
X92900Y-142190D02*
Y-141410D01*
X23710Y-128700D02*
X24490D01*
X24100Y-129090D02*
Y-128310D01*
X30110Y-128900D02*
X30890D01*
X30500Y-129290D02*
Y-128510D01*
X30110Y-134700D02*
X30890D01*
X30500Y-135090D02*
Y-134310D01*
X23710Y-134500D02*
X24490D01*
X24100Y-134890D02*
Y-134110D01*
X-1690Y-142300D02*
X-910D01*
X-1300Y-142690D02*
Y-141910D01*
X-27490Y-142100D02*
X-26710D01*
X-27100Y-142490D02*
Y-141710D01*
X-17990Y-134800D02*
X-17210D01*
X-17600Y-135190D02*
Y-134410D01*
X-17990Y-128800D02*
X-17210D01*
X-17600Y-129190D02*
Y-128410D01*
X-24190Y-134600D02*
X-23410D01*
X-23800Y-134990D02*
Y-134210D01*
X-24190Y-128700D02*
X-23410D01*
X-23800Y-129090D02*
Y-128310D01*
X-30890Y-134500D02*
X-30110D01*
X-30500Y-134890D02*
Y-134110D01*
X-30990Y-128600D02*
X-30210D01*
X-30600Y-128990D02*
Y-128210D01*
X-42590Y84500D02*
X-41810D01*
X-42200Y84110D02*
Y84890D01*
X159863Y93677D02*
X160643D01*
X160253Y93287D02*
Y94067D01*
X158452Y-2168D02*
X159232D01*
X158842Y-2558D02*
Y-1778D01*
X151749Y-9702D02*
X152529D01*
X152139Y-10092D02*
Y-9312D01*
X-158328Y-115362D02*
X-157548D01*
X-157938Y-115752D02*
Y-114972D01*
X-158890Y-24100D02*
X-158110D01*
X-158500Y-24490D02*
Y-23710D01*
X-132390Y-38800D02*
X-131610D01*
X-132000Y-39190D02*
Y-38410D01*
X-123690Y-43100D02*
X-122910D01*
X-123300Y-43490D02*
Y-42710D01*
X-132590Y-43200D02*
X-131810D01*
X-132200Y-43590D02*
Y-42810D01*
X-123690Y-38900D02*
X-122910D01*
X-123300Y-39290D02*
Y-38510D01*
X-110690Y-39000D02*
X-109910D01*
X-110300Y-39390D02*
Y-38610D01*
X-119590Y-43300D02*
X-118810D01*
X-119200Y-43690D02*
Y-42910D01*
X-110690Y-43200D02*
X-109910D01*
X-110300Y-43590D02*
Y-42810D01*
X-119390Y-38900D02*
X-118610D01*
X-119000Y-39290D02*
Y-38510D01*
X-114990Y-41300D02*
X-114210D01*
X-114600Y-41690D02*
Y-40910D01*
X-128190Y-41200D02*
X-127410D01*
X-127800Y-41590D02*
Y-40810D01*
X-154490Y-41100D02*
X-153710D01*
X-154100Y-41490D02*
Y-40710D01*
X-141290Y-41200D02*
X-140510D01*
X-140900Y-41590D02*
Y-40810D01*
X-145690Y-38800D02*
X-144910D01*
X-145300Y-39190D02*
Y-38410D01*
X-136990Y-43100D02*
X-136210D01*
X-136600Y-43490D02*
Y-42710D01*
X-145890Y-43200D02*
X-145110D01*
X-145500Y-43590D02*
Y-42810D01*
X-136990Y-38900D02*
X-136210D01*
X-136600Y-39290D02*
Y-38510D01*
X-149990Y-38800D02*
X-149210D01*
X-149600Y-39190D02*
Y-38410D01*
X-158890Y-43100D02*
X-158110D01*
X-158500Y-43490D02*
Y-42710D01*
X-149990Y-43000D02*
X-149210D01*
X-149600Y-43390D02*
Y-42610D01*
X-158690Y-38700D02*
X-157910D01*
X-158300Y-39090D02*
Y-38310D01*
X-132590Y-24000D02*
X-131810D01*
X-132200Y-24390D02*
Y-23610D01*
X-123890Y-28300D02*
X-123110D01*
X-123500Y-28690D02*
Y-27910D01*
X-132790Y-28400D02*
X-132010D01*
X-132400Y-28790D02*
Y-28010D01*
X-123890Y-24100D02*
X-123110D01*
X-123500Y-24490D02*
Y-23710D01*
X-110890Y-24200D02*
X-110110D01*
X-110500Y-24590D02*
Y-23810D01*
X-119790Y-28500D02*
X-119010D01*
X-119400Y-28890D02*
Y-28110D01*
X-110890Y-28400D02*
X-110110D01*
X-110500Y-28790D02*
Y-28010D01*
X-119590Y-24100D02*
X-118810D01*
X-119200Y-24490D02*
Y-23710D01*
X-115190Y-26500D02*
X-114410D01*
X-114800Y-26890D02*
Y-26110D01*
X-128390Y-26400D02*
X-127610D01*
X-128000Y-26790D02*
Y-26010D01*
X-154690Y-26300D02*
X-153910D01*
X-154300Y-26690D02*
Y-25910D01*
X-141490Y-26400D02*
X-140710D01*
X-141100Y-26790D02*
Y-26010D01*
X-145890Y-24000D02*
X-145110D01*
X-145500Y-24390D02*
Y-23610D01*
X-137190Y-28300D02*
X-136410D01*
X-136800Y-28690D02*
Y-27910D01*
X-146090Y-28400D02*
X-145310D01*
X-145700Y-28790D02*
Y-28010D01*
X-137190Y-24100D02*
X-136410D01*
X-136800Y-24490D02*
Y-23710D01*
X-150190Y-24000D02*
X-149410D01*
X-149800Y-24390D02*
Y-23610D01*
X-159090Y-28300D02*
X-158310D01*
X-158700Y-28690D02*
Y-27910D01*
X-150190Y-28200D02*
X-149410D01*
X-149800Y-28590D02*
Y-27810D01*
X-158647Y-104266D02*
X-157867D01*
X-158256Y-104656D02*
Y-103876D01*
X-149946Y-108566D02*
X-149167D01*
X-149557Y-108956D02*
Y-108176D01*
X-158846Y-108666D02*
X-158066D01*
X-158457Y-109056D02*
Y-108276D01*
X-149946Y-104366D02*
X-149167D01*
X-149557Y-104756D02*
Y-103976D01*
X-136946Y-104466D02*
X-136167D01*
X-136556Y-104856D02*
Y-104076D01*
X-145846Y-108766D02*
X-145066D01*
X-145457Y-109156D02*
Y-108376D01*
X-136946Y-108666D02*
X-136167D01*
X-136556Y-109056D02*
Y-108276D01*
X-145647Y-104366D02*
X-144867D01*
X-145256Y-104756D02*
Y-103976D01*
X-141246Y-106766D02*
X-140466D01*
X-140857Y-107156D02*
Y-106376D01*
X-154446Y-106666D02*
X-153666D01*
X-154057Y-107056D02*
Y-106276D01*
X-128147Y-106766D02*
X-127366D01*
X-127757Y-107156D02*
Y-106376D01*
X-114946Y-106866D02*
X-114166D01*
X-114557Y-107256D02*
Y-106476D01*
X-119346Y-104466D02*
X-118567D01*
X-118956Y-104856D02*
Y-104076D01*
X-110646Y-108766D02*
X-109866D01*
X-110257Y-109156D02*
Y-108376D01*
X-119546Y-108866D02*
X-118766D01*
X-119157Y-109256D02*
Y-108476D01*
X-110646Y-104566D02*
X-109866D01*
X-110257Y-104956D02*
Y-104176D01*
X-123646Y-104466D02*
X-122866D01*
X-123257Y-104856D02*
Y-104076D01*
X-132546Y-108766D02*
X-131766D01*
X-132157Y-109156D02*
Y-108376D01*
X-123646Y-108666D02*
X-122866D01*
X-123257Y-109056D02*
Y-108276D01*
X-132346Y-104366D02*
X-131567D01*
X-131957Y-104756D02*
Y-103976D01*
X-132346Y-115266D02*
X-131567D01*
X-131957Y-115656D02*
Y-114876D01*
X-123646Y-119566D02*
X-122866D01*
X-123257Y-119956D02*
Y-119176D01*
X-132546Y-119666D02*
X-131766D01*
X-132157Y-120056D02*
Y-119276D01*
X-123646Y-115366D02*
X-122866D01*
X-123257Y-115756D02*
Y-114976D01*
X-110646Y-115466D02*
X-109866D01*
X-110257Y-115856D02*
Y-115076D01*
X-119546Y-119766D02*
X-118766D01*
X-119157Y-120156D02*
Y-119376D01*
X-110646Y-119666D02*
X-109866D01*
X-110257Y-120056D02*
Y-119276D01*
X-119346Y-115366D02*
X-118567D01*
X-118956Y-115756D02*
Y-114976D01*
X-114946Y-117766D02*
X-114166D01*
X-114557Y-118156D02*
Y-117376D01*
X-128147Y-117666D02*
X-127366D01*
X-127757Y-118056D02*
Y-117276D01*
X-154446Y-117566D02*
X-153666D01*
X-154057Y-117956D02*
Y-117176D01*
X-141246Y-117666D02*
X-140466D01*
X-140857Y-118056D02*
Y-117276D01*
X-145647Y-115266D02*
X-144867D01*
X-145256Y-115656D02*
Y-114876D01*
X-136946Y-119566D02*
X-136167D01*
X-136556Y-119956D02*
Y-119176D01*
X-145846Y-119666D02*
X-145066D01*
X-145457Y-120056D02*
Y-119276D01*
X-136946Y-115366D02*
X-136167D01*
X-136556Y-115756D02*
Y-114976D01*
X-149946Y-115266D02*
X-149167D01*
X-149557Y-115656D02*
Y-114876D01*
X-158846Y-119566D02*
X-158066D01*
X-158457Y-119956D02*
Y-119176D01*
X-149946Y-119466D02*
X-149167D01*
X-149557Y-119856D02*
Y-119076D01*
X-158590Y-78500D02*
X-157810D01*
X-158200Y-78890D02*
Y-78110D01*
X-149890Y-82800D02*
X-149110D01*
X-149500Y-83190D02*
Y-82410D01*
X-158790Y-82900D02*
X-158010D01*
X-158400Y-83290D02*
Y-82510D01*
X-149890Y-78600D02*
X-149110D01*
X-149500Y-78990D02*
Y-78210D01*
X-136890Y-78700D02*
X-136110D01*
X-136500Y-79090D02*
Y-78310D01*
X-145790Y-83000D02*
X-145010D01*
X-145400Y-83390D02*
Y-82610D01*
X-136890Y-82900D02*
X-136110D01*
X-136500Y-83290D02*
Y-82510D01*
X-145590Y-78600D02*
X-144810D01*
X-145200Y-78990D02*
Y-78210D01*
X-141190Y-81000D02*
X-140410D01*
X-140800Y-81390D02*
Y-80610D01*
X-154390Y-80900D02*
X-153610D01*
X-154000Y-81290D02*
Y-80510D01*
X-128090Y-81000D02*
X-127310D01*
X-127700Y-81390D02*
Y-80610D01*
X-114890Y-81100D02*
X-114110D01*
X-114500Y-81490D02*
Y-80710D01*
X-119290Y-78700D02*
X-118510D01*
X-118900Y-79090D02*
Y-78310D01*
X-110590Y-83000D02*
X-109810D01*
X-110200Y-83390D02*
Y-82610D01*
X-119490Y-83100D02*
X-118710D01*
X-119100Y-83490D02*
Y-82710D01*
X-110590Y-78800D02*
X-109810D01*
X-110200Y-79190D02*
Y-78410D01*
X-123590Y-78700D02*
X-122810D01*
X-123200Y-79090D02*
Y-78310D01*
X-132490Y-83000D02*
X-131710D01*
X-132100Y-83390D02*
Y-82610D01*
X-123590Y-82900D02*
X-122810D01*
X-123200Y-83290D02*
Y-82510D01*
X-132290Y-78600D02*
X-131510D01*
X-131900Y-78990D02*
Y-78210D01*
X-132290Y-89500D02*
X-131510D01*
X-131900Y-89890D02*
Y-89110D01*
X-123590Y-93800D02*
X-122810D01*
X-123200Y-94190D02*
Y-93410D01*
X-132490Y-93900D02*
X-131710D01*
X-132100Y-94290D02*
Y-93510D01*
X-123590Y-89600D02*
X-122810D01*
X-123200Y-89990D02*
Y-89210D01*
X-110590Y-89700D02*
X-109810D01*
X-110200Y-90090D02*
Y-89310D01*
X-119490Y-94000D02*
X-118710D01*
X-119100Y-94390D02*
Y-93610D01*
X-110590Y-93900D02*
X-109810D01*
X-110200Y-94290D02*
Y-93510D01*
X-119290Y-89600D02*
X-118510D01*
X-118900Y-89990D02*
Y-89210D01*
X-114890Y-92000D02*
X-114110D01*
X-114500Y-92390D02*
Y-91610D01*
X-128090Y-91900D02*
X-127310D01*
X-127700Y-92290D02*
Y-91510D01*
X-154390Y-91800D02*
X-153610D01*
X-154000Y-92190D02*
Y-91410D01*
X-141190Y-91900D02*
X-140410D01*
X-140800Y-92290D02*
Y-91510D01*
X-145590Y-89500D02*
X-144810D01*
X-145200Y-89890D02*
Y-89110D01*
X-136890Y-93800D02*
X-136110D01*
X-136500Y-94190D02*
Y-93410D01*
X-145790Y-93900D02*
X-145010D01*
X-145400Y-94290D02*
Y-93510D01*
X-136890Y-89600D02*
X-136110D01*
X-136500Y-89990D02*
Y-89210D01*
X-149890Y-89500D02*
X-149110D01*
X-149500Y-89890D02*
Y-89110D01*
X-158790Y-93800D02*
X-158010D01*
X-158400Y-94190D02*
Y-93410D01*
X-149890Y-93700D02*
X-149110D01*
X-149500Y-94090D02*
Y-93310D01*
X-158590Y-89400D02*
X-157810D01*
X-158200Y-89790D02*
Y-89010D01*
X-158590Y-52700D02*
X-157810D01*
X-158200Y-53090D02*
Y-52310D01*
X-149890Y-57000D02*
X-149110D01*
X-149500Y-57390D02*
Y-56610D01*
X-158790Y-57100D02*
X-158010D01*
X-158400Y-57490D02*
Y-56710D01*
X-149890Y-52800D02*
X-149110D01*
X-149500Y-53190D02*
Y-52410D01*
X-136890Y-52900D02*
X-136110D01*
X-136500Y-53290D02*
Y-52510D01*
X-145790Y-57200D02*
X-145010D01*
X-145400Y-57590D02*
Y-56810D01*
X-136890Y-57100D02*
X-136110D01*
X-136500Y-57490D02*
Y-56710D01*
X-145590Y-52800D02*
X-144810D01*
X-145200Y-53190D02*
Y-52410D01*
X-141190Y-55200D02*
X-140410D01*
X-140800Y-55590D02*
Y-54810D01*
X-154390Y-55100D02*
X-153610D01*
X-154000Y-55490D02*
Y-54710D01*
X-128090Y-55200D02*
X-127310D01*
X-127700Y-55590D02*
Y-54810D01*
X-114890Y-55300D02*
X-114110D01*
X-114500Y-55690D02*
Y-54910D01*
X-119290Y-52900D02*
X-118510D01*
X-118900Y-53290D02*
Y-52510D01*
X-110590Y-57200D02*
X-109810D01*
X-110200Y-57590D02*
Y-56810D01*
X-119490Y-57300D02*
X-118710D01*
X-119100Y-57690D02*
Y-56910D01*
X-110590Y-53000D02*
X-109810D01*
X-110200Y-53390D02*
Y-52610D01*
X-123590Y-52900D02*
X-122810D01*
X-123200Y-53290D02*
Y-52510D01*
X-132490Y-57200D02*
X-131710D01*
X-132100Y-57590D02*
Y-56810D01*
X-123590Y-57100D02*
X-122810D01*
X-123200Y-57490D02*
Y-56710D01*
X-132290Y-52800D02*
X-131510D01*
X-131900Y-53190D02*
Y-52410D01*
X-132290Y-63700D02*
X-131510D01*
X-131900Y-64090D02*
Y-63310D01*
X-123590Y-68000D02*
X-122810D01*
X-123200Y-68390D02*
Y-67610D01*
X-132490Y-68100D02*
X-131710D01*
X-132100Y-68490D02*
Y-67710D01*
X-123590Y-63800D02*
X-122810D01*
X-123200Y-64190D02*
Y-63410D01*
X-110590Y-63900D02*
X-109810D01*
X-110200Y-64290D02*
Y-63510D01*
X-119490Y-68200D02*
X-118710D01*
X-119100Y-68590D02*
Y-67810D01*
X-110590Y-68100D02*
X-109810D01*
X-110200Y-68490D02*
Y-67710D01*
X-119290Y-63800D02*
X-118510D01*
X-118900Y-64190D02*
Y-63410D01*
X-114890Y-66200D02*
X-114110D01*
X-114500Y-66590D02*
Y-65810D01*
X-128090Y-66100D02*
X-127310D01*
X-127700Y-66490D02*
Y-65710D01*
X-154390Y-66000D02*
X-153610D01*
X-154000Y-66390D02*
Y-65610D01*
X-141190Y-66100D02*
X-140410D01*
X-140800Y-66490D02*
Y-65710D01*
X-145590Y-63700D02*
X-144810D01*
X-145200Y-64090D02*
Y-63310D01*
X-136890Y-68000D02*
X-136110D01*
X-136500Y-68390D02*
Y-67610D01*
X-145790Y-68100D02*
X-145010D01*
X-145400Y-68490D02*
Y-67710D01*
X-136890Y-63800D02*
X-136110D01*
X-136500Y-64190D02*
Y-63410D01*
X-149890Y-63700D02*
X-149110D01*
X-149500Y-64090D02*
Y-63310D01*
X-158790Y-68000D02*
X-158010D01*
X-158400Y-68390D02*
Y-67610D01*
X-149890Y-67900D02*
X-149110D01*
X-149500Y-68290D02*
Y-67510D01*
X-158590Y-63600D02*
X-157810D01*
X-158200Y-63990D02*
Y-63210D01*
X-158490Y-800D02*
X-157710D01*
X-158100Y-1190D02*
Y-410D01*
X-149790Y-5100D02*
X-149010D01*
X-149400Y-5490D02*
Y-4710D01*
X-158690Y-5200D02*
X-157910D01*
X-158300Y-5590D02*
Y-4810D01*
X-149790Y-900D02*
X-149010D01*
X-149400Y-1290D02*
Y-510D01*
X-136790Y-1000D02*
X-136010D01*
X-136400Y-1390D02*
Y-610D01*
X-145690Y-5300D02*
X-144910D01*
X-145300Y-5690D02*
Y-4910D01*
X-136790Y-5200D02*
X-136010D01*
X-136400Y-5590D02*
Y-4810D01*
X-145490Y-900D02*
X-144710D01*
X-145100Y-1290D02*
Y-510D01*
X-141090Y-3300D02*
X-140310D01*
X-140700Y-3690D02*
Y-2910D01*
X-154290Y-3200D02*
X-153510D01*
X-153900Y-3590D02*
Y-2810D01*
X-127990Y-3300D02*
X-127210D01*
X-127600Y-3690D02*
Y-2910D01*
X-114790Y-3400D02*
X-114010D01*
X-114400Y-3790D02*
Y-3010D01*
X-119190Y-1000D02*
X-118410D01*
X-118800Y-1390D02*
Y-610D01*
X-110490Y-5300D02*
X-109710D01*
X-110100Y-5690D02*
Y-4910D01*
X-119390Y-5400D02*
X-118610D01*
X-119000Y-5790D02*
Y-5010D01*
X-110490Y-1100D02*
X-109710D01*
X-110100Y-1490D02*
Y-710D01*
X-123490Y-1000D02*
X-122710D01*
X-123100Y-1390D02*
Y-610D01*
X-132390Y-5300D02*
X-131610D01*
X-132000Y-5690D02*
Y-4910D01*
X-123490Y-5200D02*
X-122710D01*
X-123100Y-5590D02*
Y-4810D01*
X-132190Y-900D02*
X-131410D01*
X-131800Y-1290D02*
Y-510D01*
X-132190Y-11800D02*
X-131410D01*
X-131800Y-12190D02*
Y-11410D01*
X-123490Y-16100D02*
X-122710D01*
X-123100Y-16490D02*
Y-15710D01*
X-132390Y-16200D02*
X-131610D01*
X-132000Y-16590D02*
Y-15810D01*
X-123490Y-11900D02*
X-122710D01*
X-123100Y-12290D02*
Y-11510D01*
X-110490Y-12000D02*
X-109710D01*
X-110100Y-12390D02*
Y-11610D01*
X-119390Y-16300D02*
X-118610D01*
X-119000Y-16690D02*
Y-15910D01*
X-110490Y-16200D02*
X-109710D01*
X-110100Y-16590D02*
Y-15810D01*
X-119190Y-11900D02*
X-118410D01*
X-118800Y-12290D02*
Y-11510D01*
X-114790Y-14300D02*
X-114010D01*
X-114400Y-14690D02*
Y-13910D01*
X-127990Y-14200D02*
X-127210D01*
X-127600Y-14590D02*
Y-13810D01*
X-154290Y-14100D02*
X-153510D01*
X-153900Y-14490D02*
Y-13710D01*
X-141090Y-14200D02*
X-140310D01*
X-140700Y-14590D02*
Y-13810D01*
X-145490Y-11800D02*
X-144710D01*
X-145100Y-12190D02*
Y-11410D01*
X-136790Y-16100D02*
X-136010D01*
X-136400Y-16490D02*
Y-15710D01*
X-145690Y-16200D02*
X-144910D01*
X-145300Y-16590D02*
Y-15810D01*
X-136790Y-11900D02*
X-136010D01*
X-136400Y-12290D02*
Y-11510D01*
X-149790Y-11800D02*
X-149010D01*
X-149400Y-12190D02*
Y-11410D01*
X-158690Y-16100D02*
X-157910D01*
X-158300Y-16490D02*
Y-15710D01*
X-149790Y-16000D02*
X-149010D01*
X-149400Y-16390D02*
Y-15610D01*
X-158490Y-11700D02*
X-157710D01*
X-158100Y-12090D02*
Y-11310D01*
X-158690Y24023D02*
X-157910D01*
X-158300Y23633D02*
Y24413D01*
X-136990Y24023D02*
X-136210D01*
X-136600Y23633D02*
Y24413D01*
X-149990Y24023D02*
X-149210D01*
X-149600Y23633D02*
Y24413D01*
X-119390Y24023D02*
X-118610D01*
X-119000Y23633D02*
Y24413D01*
X-110690Y24023D02*
X-109910D01*
X-110300Y23633D02*
Y24413D01*
X-132390Y24023D02*
X-131610D01*
X-132000Y23633D02*
Y24413D01*
X-123690Y24023D02*
X-122910D01*
X-123300Y23633D02*
Y24413D01*
X-145690Y24023D02*
X-144910D01*
X-145300Y23633D02*
Y24413D01*
X-150090Y20700D02*
X-149310D01*
X-149700Y20310D02*
Y21090D01*
X-158990Y20600D02*
X-158210D01*
X-158600Y20210D02*
Y20990D01*
X-145990Y20500D02*
X-145210D01*
X-145600Y20110D02*
Y20890D01*
X-137090Y20600D02*
X-136310D01*
X-136700Y20210D02*
Y20990D01*
X-141390Y22500D02*
X-140610D01*
X-141000Y22110D02*
Y22890D01*
X-154590Y22600D02*
X-153810D01*
X-154200Y22210D02*
Y22990D01*
X-128290Y22500D02*
X-127510D01*
X-127900Y22110D02*
Y22890D01*
X-115090Y22400D02*
X-114310D01*
X-114700Y22010D02*
Y22790D01*
X-110790Y20500D02*
X-110010D01*
X-110400Y20110D02*
Y20890D01*
X-119690Y20400D02*
X-118910D01*
X-119300Y20010D02*
Y20790D01*
X-132690Y20500D02*
X-131910D01*
X-132300Y20110D02*
Y20890D01*
X-123790Y20600D02*
X-123010D01*
X-123400Y20210D02*
Y20990D01*
X-132490Y14000D02*
X-131710D01*
X-132100Y13610D02*
Y14390D01*
X-123790Y9700D02*
X-123010D01*
X-123400Y9310D02*
Y10090D01*
X-132690Y9600D02*
X-131910D01*
X-132300Y9210D02*
Y9990D01*
X-123790Y13900D02*
X-123010D01*
X-123400Y13510D02*
Y14290D01*
X-110790Y13800D02*
X-110010D01*
X-110400Y13410D02*
Y14190D01*
X-119690Y9500D02*
X-118910D01*
X-119300Y9110D02*
Y9890D01*
X-110790Y9600D02*
X-110010D01*
X-110400Y9210D02*
Y9990D01*
X-119490Y13900D02*
X-118710D01*
X-119100Y13510D02*
Y14290D01*
X-115090Y11500D02*
X-114310D01*
X-114700Y11110D02*
Y11890D01*
X-128290Y11600D02*
X-127510D01*
X-127900Y11210D02*
Y11990D01*
X-154590Y11700D02*
X-153810D01*
X-154200Y11310D02*
Y12090D01*
X-141390Y11600D02*
X-140610D01*
X-141000Y11210D02*
Y11990D01*
X-145790Y14000D02*
X-145010D01*
X-145400Y13610D02*
Y14390D01*
X-137090Y9700D02*
X-136310D01*
X-136700Y9310D02*
Y10090D01*
X-145990Y9600D02*
X-145210D01*
X-145600Y9210D02*
Y9990D01*
X-137090Y13900D02*
X-136310D01*
X-136700Y13510D02*
Y14290D01*
X-150090Y14000D02*
X-149310D01*
X-149700Y13610D02*
Y14390D01*
X-158990Y9700D02*
X-158210D01*
X-158600Y9310D02*
Y10090D01*
X-150090Y9800D02*
X-149310D01*
X-149700Y9410D02*
Y10190D01*
X-158790Y14100D02*
X-158010D01*
X-158400Y13710D02*
Y14490D01*
X-110690Y40100D02*
X-109910D01*
X-110300Y39710D02*
Y40490D01*
X-145890Y35900D02*
X-145110D01*
X-145500Y35510D02*
Y36290D01*
X-132390Y40300D02*
X-131610D01*
X-132000Y39910D02*
Y40690D01*
X-119390Y40200D02*
X-118610D01*
X-119000Y39810D02*
Y40590D01*
X-123690Y40200D02*
X-122910D01*
X-123300Y39810D02*
Y40590D01*
X-149990Y36100D02*
X-149210D01*
X-149600Y35710D02*
Y36490D01*
X-158890Y36000D02*
X-158110D01*
X-158500Y35610D02*
Y36390D01*
X-136990Y36000D02*
X-136210D01*
X-136600Y35610D02*
Y36390D01*
X-154490Y38000D02*
X-153710D01*
X-154100Y37610D02*
Y38390D01*
X-128190Y37900D02*
X-127410D01*
X-127800Y37510D02*
Y38290D01*
X-132590Y35900D02*
X-131810D01*
X-132200Y35510D02*
Y36290D01*
X-110690Y35900D02*
X-109910D01*
X-110300Y35510D02*
Y36290D01*
X-145690Y40300D02*
X-144910D01*
X-145300Y39910D02*
Y40690D01*
X-149990Y40300D02*
X-149210D01*
X-149600Y39910D02*
Y40690D01*
X-123690Y36000D02*
X-122910D01*
X-123300Y35610D02*
Y36390D01*
X-114990Y37800D02*
X-114210D01*
X-114600Y37410D02*
Y38190D01*
X-141290Y37900D02*
X-140510D01*
X-140900Y37510D02*
Y38290D01*
X-119590Y35800D02*
X-118810D01*
X-119200Y35410D02*
Y36190D01*
X-136990Y40200D02*
X-136210D01*
X-136600Y39810D02*
Y40590D01*
X-158690Y40400D02*
X-157910D01*
X-158300Y40010D02*
Y40790D01*
X-158690Y50900D02*
X-157910D01*
X-158300Y50510D02*
Y51290D01*
X-149990Y46600D02*
X-149210D01*
X-149600Y46210D02*
Y46990D01*
X-158890Y46500D02*
X-158110D01*
X-158500Y46110D02*
Y46890D01*
X-149990Y50800D02*
X-149210D01*
X-149600Y50410D02*
Y51190D01*
X-136990Y50700D02*
X-136210D01*
X-136600Y50310D02*
Y51090D01*
X-145890Y46400D02*
X-145110D01*
X-145500Y46010D02*
Y46790D01*
X-136990Y46500D02*
X-136210D01*
X-136600Y46110D02*
Y46890D01*
X-145690Y50800D02*
X-144910D01*
X-145300Y50410D02*
Y51190D01*
X-141290Y48400D02*
X-140510D01*
X-140900Y48010D02*
Y48790D01*
X-154490Y48500D02*
X-153710D01*
X-154100Y48110D02*
Y48890D01*
X-128190Y48400D02*
X-127410D01*
X-127800Y48010D02*
Y48790D01*
X-114990Y48300D02*
X-114210D01*
X-114600Y47910D02*
Y48690D01*
X-119390Y50700D02*
X-118610D01*
X-119000Y50310D02*
Y51090D01*
X-110690Y46400D02*
X-109910D01*
X-110300Y46010D02*
Y46790D01*
X-119590Y46300D02*
X-118810D01*
X-119200Y45910D02*
Y46690D01*
X-110690Y50600D02*
X-109910D01*
X-110300Y50210D02*
Y50990D01*
X-123690Y50700D02*
X-122910D01*
X-123300Y50310D02*
Y51090D01*
X-132590Y46400D02*
X-131810D01*
X-132200Y46010D02*
Y46790D01*
X-123690Y46500D02*
X-122910D01*
X-123300Y46110D02*
Y46890D01*
X-132390Y50800D02*
X-131610D01*
X-132000Y50410D02*
Y51190D01*
X-158590Y76800D02*
X-157810D01*
X-158200Y76410D02*
Y77190D01*
X-149890Y72500D02*
X-149110D01*
X-149500Y72110D02*
Y72890D01*
X-158790Y72400D02*
X-158010D01*
X-158400Y72010D02*
Y72790D01*
X-149890Y76700D02*
X-149110D01*
X-149500Y76310D02*
Y77090D01*
X-136890Y76600D02*
X-136110D01*
X-136500Y76210D02*
Y76990D01*
X-145790Y72300D02*
X-145010D01*
X-145400Y71910D02*
Y72690D01*
X-136890Y72400D02*
X-136110D01*
X-136500Y72010D02*
Y72790D01*
X-145590Y76700D02*
X-144810D01*
X-145200Y76310D02*
Y77090D01*
X-141190Y74300D02*
X-140410D01*
X-140800Y73910D02*
Y74690D01*
X-154390Y74400D02*
X-153610D01*
X-154000Y74010D02*
Y74790D01*
X-128090Y74300D02*
X-127310D01*
X-127700Y73910D02*
Y74690D01*
X-114890Y74200D02*
X-114110D01*
X-114500Y73810D02*
Y74590D01*
X-119290Y76600D02*
X-118510D01*
X-118900Y76210D02*
Y76990D01*
X-110590Y72300D02*
X-109810D01*
X-110200Y71910D02*
Y72690D01*
X-119490Y72200D02*
X-118710D01*
X-119100Y71810D02*
Y72590D01*
X-110590Y76500D02*
X-109810D01*
X-110200Y76110D02*
Y76890D01*
X-123590Y76600D02*
X-122810D01*
X-123200Y76210D02*
Y76990D01*
X-132490Y72300D02*
X-131710D01*
X-132100Y71910D02*
Y72690D01*
X-123590Y72400D02*
X-122810D01*
X-123200Y72010D02*
Y72790D01*
X-132290Y76700D02*
X-131510D01*
X-131900Y76310D02*
Y77090D01*
X-132290Y65800D02*
X-131510D01*
X-131900Y65410D02*
Y66190D01*
X-123590Y61500D02*
X-122810D01*
X-123200Y61110D02*
Y61890D01*
X-132490Y61400D02*
X-131710D01*
X-132100Y61010D02*
Y61790D01*
X-123590Y65700D02*
X-122810D01*
X-123200Y65310D02*
Y66090D01*
X-110590Y65600D02*
X-109810D01*
X-110200Y65210D02*
Y65990D01*
X-119490Y61300D02*
X-118710D01*
X-119100Y60910D02*
Y61690D01*
X-110590Y61400D02*
X-109810D01*
X-110200Y61010D02*
Y61790D01*
X-119290Y65700D02*
X-118510D01*
X-118900Y65310D02*
Y66090D01*
X-114890Y63300D02*
X-114110D01*
X-114500Y62910D02*
Y63690D01*
X-128090Y63400D02*
X-127310D01*
X-127700Y63010D02*
Y63790D01*
X-154390Y63500D02*
X-153610D01*
X-154000Y63110D02*
Y63890D01*
X-141190Y63400D02*
X-140410D01*
X-140800Y63010D02*
Y63790D01*
X-145590Y65800D02*
X-144810D01*
X-145200Y65410D02*
Y66190D01*
X-136890Y61500D02*
X-136110D01*
X-136500Y61110D02*
Y61890D01*
X-145790Y61400D02*
X-145010D01*
X-145400Y61010D02*
Y61790D01*
X-136890Y65700D02*
X-136110D01*
X-136500Y65310D02*
Y66090D01*
X-149890Y65800D02*
X-149110D01*
X-149500Y65410D02*
Y66190D01*
X-158790Y61500D02*
X-158010D01*
X-158400Y61110D02*
Y61890D01*
X-149890Y61600D02*
X-149110D01*
X-149500Y61210D02*
Y61990D01*
X-158590Y65900D02*
X-157810D01*
X-158200Y65510D02*
Y66290D01*
X-210550Y-127258D02*
X-209770D01*
X-210160Y-127648D02*
Y-126868D01*
X-218057Y-123777D02*
X-217277D01*
X-217667Y-124167D02*
Y-123387D01*
X-220640Y-120800D02*
X-219860D01*
X-220250Y-121190D02*
Y-120410D01*
X-228640Y-120050D02*
X-227860D01*
X-228250Y-120440D02*
Y-119660D01*
X-228640Y-118300D02*
X-227860D01*
X-228250Y-118690D02*
Y-117910D01*
X-230390Y-118300D02*
X-229610D01*
X-230000Y-118690D02*
Y-117910D01*
X-230390Y-120050D02*
X-229610D01*
X-230000Y-120440D02*
Y-119660D01*
X-219640Y-115550D02*
X-218860D01*
X-219250Y-115940D02*
Y-115160D01*
X-232140Y-118300D02*
X-231360D01*
X-231750Y-118690D02*
Y-117910D01*
X-232140Y-120050D02*
X-231360D01*
X-231750Y-120440D02*
Y-119660D01*
X-228390Y-106550D02*
X-227610D01*
X-228000Y-106940D02*
Y-106160D01*
X-228640Y-121800D02*
X-227860D01*
X-228250Y-122190D02*
Y-121410D01*
X-188667Y-132430D02*
X-187887D01*
X-188277Y-132820D02*
Y-132040D01*
X-188667Y-129870D02*
X-187887D01*
X-188277Y-130260D02*
Y-129480D01*
X-158590Y91800D02*
X-157810D01*
X-158200Y91410D02*
Y92190D01*
X-149890Y87500D02*
X-149110D01*
X-149500Y87110D02*
Y87890D01*
X-158790Y87400D02*
X-158010D01*
X-158400Y87010D02*
Y87790D01*
X-149890Y91700D02*
X-149110D01*
X-149500Y91310D02*
Y92090D01*
X-136890Y91600D02*
X-136110D01*
X-136500Y91210D02*
Y91990D01*
X-145790Y87300D02*
X-145010D01*
X-145400Y86910D02*
Y87690D01*
X-136890Y87400D02*
X-136110D01*
X-136500Y87010D02*
Y87790D01*
X-145590Y91700D02*
X-144810D01*
X-145200Y91310D02*
Y92090D01*
X-141190Y89300D02*
X-140410D01*
X-140800Y88910D02*
Y89690D01*
X-154390Y89400D02*
X-153610D01*
X-154000Y89010D02*
Y89790D01*
X-128090Y89300D02*
X-127310D01*
X-127700Y88910D02*
Y89690D01*
X-114890Y89200D02*
X-114110D01*
X-114500Y88810D02*
Y89590D01*
X-119290Y91600D02*
X-118510D01*
X-118900Y91210D02*
Y91990D01*
X-110590Y87300D02*
X-109810D01*
X-110200Y86910D02*
Y87690D01*
X-119490Y87200D02*
X-118710D01*
X-119100Y86810D02*
Y87590D01*
X-110590Y91500D02*
X-109810D01*
X-110200Y91110D02*
Y91890D01*
X-123590Y91600D02*
X-122810D01*
X-123200Y91210D02*
Y91990D01*
X-132490Y87300D02*
X-131710D01*
X-132100Y86910D02*
Y87690D01*
X-123590Y87400D02*
X-122810D01*
X-123200Y87010D02*
Y87790D01*
X-132290Y91700D02*
X-131510D01*
X-131900Y91310D02*
Y92090D01*
X-132290Y102600D02*
X-131510D01*
X-131900Y102210D02*
Y102990D01*
X-123590Y98300D02*
X-122810D01*
X-123200Y97910D02*
Y98690D01*
X-132490Y98200D02*
X-131710D01*
X-132100Y97810D02*
Y98590D01*
X-123590Y102500D02*
X-122810D01*
X-123200Y102110D02*
Y102890D01*
X-110590Y102400D02*
X-109810D01*
X-110200Y102010D02*
Y102790D01*
X-119490Y98100D02*
X-118710D01*
X-119100Y97710D02*
Y98490D01*
X-110590Y98200D02*
X-109810D01*
X-110200Y97810D02*
Y98590D01*
X-119290Y102500D02*
X-118510D01*
X-118900Y102110D02*
Y102890D01*
X-114890Y100100D02*
X-114110D01*
X-114500Y99710D02*
Y100490D01*
X-128090Y100200D02*
X-127310D01*
X-127700Y99810D02*
Y100590D01*
X-154390Y100300D02*
X-153610D01*
X-154000Y99910D02*
Y100690D01*
X-141190Y100200D02*
X-140410D01*
X-140800Y99810D02*
Y100590D01*
X-145590Y102600D02*
X-144810D01*
X-145200Y102210D02*
Y102990D01*
X-136890Y98300D02*
X-136110D01*
X-136500Y97910D02*
Y98690D01*
X-145790Y98200D02*
X-145010D01*
X-145400Y97810D02*
Y98590D01*
X-136890Y102500D02*
X-136110D01*
X-136500Y102110D02*
Y102890D01*
X-149890Y102600D02*
X-149110D01*
X-149500Y102210D02*
Y102990D01*
X-158790Y98300D02*
X-158010D01*
X-158400Y97910D02*
Y98690D01*
X-224319Y132829D02*
X-223539D01*
X-223929Y132439D02*
Y133219D01*
X-177090Y-134616D02*
X-176310D01*
X-176700Y-135006D02*
Y-134226D01*
X-92490Y59800D02*
X-91710D01*
X-92100Y59410D02*
Y60190D01*
X-92890Y57900D02*
X-92110D01*
X-92500Y57510D02*
Y58290D01*
X-95035Y55052D02*
X-94255D01*
X-94645Y54662D02*
Y55442D01*
X131210Y163600D02*
X131990D01*
X131600Y163210D02*
Y163990D01*
X131210Y161400D02*
X131990D01*
X131600Y161010D02*
Y161790D01*
X-246267Y148332D02*
X-245487D01*
X-245877Y147942D02*
Y148722D01*
X-220608Y128118D02*
X-219828D01*
X-220218Y127728D02*
Y128508D01*
X-187767Y-51500D02*
X-186987D01*
X-187377Y-51890D02*
Y-51110D01*
X-187767Y-48900D02*
X-186987D01*
X-187377Y-49290D02*
Y-48510D01*
X-235222Y120568D02*
X-234442D01*
X-234832Y120178D02*
Y120958D01*
X-269890Y80000D02*
X-269110D01*
X-269500Y79610D02*
Y80390D01*
X-263640Y96500D02*
X-262860D01*
X-263250Y96110D02*
Y96890D01*
X-279494Y85396D02*
X-278714D01*
X-279104Y85006D02*
Y85786D01*
X-267890Y80000D02*
X-267110D01*
X-267500Y79610D02*
Y80390D01*
X-44295Y-81795D02*
X-43515D01*
X-43905Y-82185D02*
Y-81405D01*
X-46290Y-119300D02*
X-45510D01*
X-45900Y-119690D02*
Y-118910D01*
X-42685Y-111995D02*
X-41905D01*
X-42295Y-112385D02*
Y-111605D01*
X-28790Y-152400D02*
X-28010D01*
X-28400Y-152790D02*
Y-152010D01*
X-46290Y-21400D02*
X-45510D01*
X-45900Y-21790D02*
Y-21010D01*
X77310Y-14400D02*
X78090D01*
X77700Y-14790D02*
Y-14010D01*
X77310Y83900D02*
X78090D01*
X77700Y83510D02*
Y84290D01*
X37610Y84300D02*
X38390D01*
X38000Y83910D02*
Y84690D01*
X-1956Y84247D02*
X-1176D01*
X-1566Y83857D02*
Y84637D01*
X-46163Y77127D02*
X-45382D01*
X-45773Y76737D02*
Y77517D01*
X77521Y111385D02*
X78300D01*
X77911Y110995D02*
Y111775D01*
X78312Y122290D02*
X79092D01*
X78702Y121900D02*
Y122680D01*
X37910Y111400D02*
X38690D01*
X38300Y111010D02*
Y111790D01*
X38857Y122298D02*
X39637D01*
X39247Y121908D02*
Y122688D01*
X-1090Y111600D02*
X-310D01*
X-700Y111210D02*
Y111990D01*
X-99Y122434D02*
X681D01*
X291Y122044D02*
Y122824D01*
X-44055Y114573D02*
X-43275D01*
X-43665Y114183D02*
Y114963D01*
X65417Y-152400D02*
X66197D01*
X65807Y-152790D02*
Y-152010D01*
X14031Y-152400D02*
X14811D01*
X14421Y-152790D02*
Y-152010D01*
X22596Y-152400D02*
X23376D01*
X22986Y-152790D02*
Y-152010D01*
X5467Y-152400D02*
X6247D01*
X5857Y-152790D02*
Y-152010D01*
X48289Y-152400D02*
X49068D01*
X48678Y-152790D02*
Y-152010D01*
X31160Y-152400D02*
X31940D01*
X31550Y-152790D02*
Y-152010D01*
X-11661Y-152400D02*
X-10881D01*
X-11271Y-152790D02*
Y-152010D01*
X-75190Y-135900D02*
X-74410D01*
X-74800Y-136290D02*
Y-135510D01*
X-185031Y43325D02*
X-184251D01*
X-184641Y42935D02*
Y43715D01*
X-185290Y46100D02*
X-184510D01*
X-184900Y45710D02*
Y46490D01*
X-69612Y79326D02*
X-68832D01*
X-69222Y78936D02*
Y79716D01*
X-75512Y81326D02*
X-74732D01*
X-75122Y80936D02*
Y81716D01*
X-77008Y-17407D02*
X-76228D01*
X-76618Y-17797D02*
Y-17017D01*
X-75790Y-114900D02*
X-75010D01*
X-75400Y-115290D02*
Y-114510D01*
X-232140Y90750D02*
X-231360D01*
X-231750Y90360D02*
Y91140D01*
X-90990Y-124400D02*
X-90210D01*
X-90600Y-124790D02*
Y-124010D01*
X-251890Y-21654D02*
X-251110D01*
X-251500Y-22044D02*
Y-21264D01*
X-274640Y-40500D02*
X-273860D01*
X-274250Y-40890D02*
Y-40110D01*
X-257490Y40800D02*
X-256710D01*
X-257100Y40410D02*
Y41190D01*
X-260490Y140400D02*
X-259710D01*
X-260100Y140010D02*
Y140790D01*
X-259990Y133700D02*
X-259210D01*
X-259600Y133310D02*
Y134090D01*
X-232390Y145800D02*
X-231610D01*
X-232000Y145410D02*
Y146190D01*
X-213690Y121660D02*
X-212910D01*
X-213300Y121270D02*
Y122050D01*
X-216190Y125260D02*
X-215410D01*
X-215800Y124870D02*
Y125650D01*
X-208690Y113600D02*
X-207910D01*
X-208300Y113210D02*
Y113990D01*
X-149890Y98400D02*
X-149110D01*
X-149500Y98010D02*
Y98790D01*
X-158590Y102700D02*
X-157810D01*
X-158200Y102310D02*
Y103090D01*
X-220140Y55000D02*
X-219360D01*
X-219750Y54610D02*
Y55390D01*
X-214368Y60272D02*
X-213588D01*
X-213978Y59882D02*
Y60662D01*
X-168640Y46450D02*
X-167860D01*
X-168250Y46060D02*
Y46840D01*
X-206048Y38895D02*
X-205268D01*
X-205658Y38505D02*
Y39285D01*
X-176690Y41300D02*
X-175910D01*
X-176300Y40910D02*
Y41690D01*
X-169790Y42000D02*
X-169010D01*
X-169400Y41610D02*
Y42390D01*
X-210140Y48589D02*
X-209360D01*
X-209750Y48199D02*
Y48979D01*
X-176690Y48306D02*
X-175910D01*
X-176300Y47916D02*
Y48696D01*
X-93708Y-23977D02*
X-92928D01*
X-93318Y-24367D02*
Y-23587D01*
X-92108Y-20023D02*
X-91328D01*
X-91718Y-20413D02*
Y-19633D01*
X-92208Y-26907D02*
X-91428D01*
X-91818Y-27297D02*
Y-26517D01*
X-103842Y5770D02*
X-103062D01*
X-103452Y5380D02*
Y6160D01*
X-99508Y-907D02*
X-98728D01*
X-99118Y-1297D02*
Y-517D01*
X-98808Y3793D02*
X-98028D01*
X-98418Y3403D02*
Y4183D01*
X-99020Y-96195D02*
X-98240D01*
X-98630Y-96585D02*
Y-95805D01*
X-90990Y-112672D02*
X-90210D01*
X-90600Y-113062D02*
Y-112282D01*
X-234716Y140732D02*
X-233936D01*
X-234326Y140342D02*
Y141122D01*
X-237413Y127500D02*
X-236633D01*
X-237023Y127110D02*
Y127890D01*
X-218090Y170200D02*
X-217310D01*
X-217700Y169810D02*
Y170590D01*
X-216490Y171900D02*
X-215710D01*
X-216100Y171510D02*
Y172290D01*
X-214990Y173500D02*
X-214210D01*
X-214600Y173110D02*
Y173890D01*
X-189490Y92100D02*
X-188710D01*
X-189100Y91710D02*
Y92490D01*
X-183790Y-143600D02*
X-183010D01*
X-183400Y-143990D02*
Y-143210D01*
X-186190Y-143500D02*
X-185410D01*
X-185800Y-143890D02*
Y-143110D01*
X-183790Y-141600D02*
X-183010D01*
X-183400Y-141990D02*
Y-141210D01*
X-186090Y-141600D02*
X-185310D01*
X-185700Y-141990D02*
Y-141210D01*
X-183690Y-67900D02*
X-182910D01*
X-183300Y-68290D02*
Y-67510D01*
X-186290Y-68000D02*
X-185510D01*
X-185900Y-68390D02*
Y-67610D01*
X-183590Y-65400D02*
X-182810D01*
X-183200Y-65790D02*
Y-65010D01*
X-186090Y-65400D02*
X-185310D01*
X-185700Y-65790D02*
Y-65010D01*
X-183790Y26400D02*
X-183010D01*
X-183400Y26010D02*
Y26790D01*
X-186290Y26400D02*
X-185510D01*
X-185900Y26010D02*
Y26790D01*
X-183590Y28800D02*
X-182810D01*
X-183200Y28410D02*
Y29190D01*
X-186190Y28700D02*
X-185410D01*
X-185800Y28310D02*
Y29090D01*
X-221293Y87589D02*
X-220514D01*
X-220903Y87199D02*
Y87979D01*
X-189390Y-3000D02*
X-188610D01*
X-189000Y-3390D02*
Y-2610D01*
X-189890Y-83800D02*
X-189110D01*
X-189500Y-84190D02*
Y-83410D01*
X-212765Y72923D02*
X-211985D01*
X-212375Y72533D02*
Y73313D01*
X-220640Y82500D02*
X-219860D01*
X-220250Y82110D02*
Y82890D01*
X-194890Y77750D02*
X-194110D01*
X-194500Y77360D02*
Y78140D01*
X-203390Y85750D02*
X-202610D01*
X-203000Y85360D02*
Y86140D01*
X-210890Y88750D02*
X-210110D01*
X-210500Y88360D02*
Y89140D01*
X-220640Y77250D02*
X-219860D01*
X-220250Y76860D02*
Y77640D01*
X-219244Y41604D02*
X-218464D01*
X-218854Y41214D02*
Y41994D01*
X-219216Y111132D02*
X-218436D01*
X-218826Y110742D02*
Y111522D01*
X-219516Y109032D02*
X-218736D01*
X-219126Y108642D02*
Y109422D01*
X-217416Y107832D02*
X-216636D01*
X-217026Y107442D02*
Y108222D01*
X-217316Y109932D02*
X-216536D01*
X-216926Y109542D02*
Y110322D01*
X-237016Y140732D02*
X-236236D01*
X-236626Y140342D02*
Y141122D01*
X-232216Y140732D02*
X-231436D01*
X-231826Y140342D02*
Y141122D01*
X-200016Y117832D02*
X-199236D01*
X-199626Y117442D02*
Y118222D01*
X-203416Y114532D02*
X-202636D01*
X-203026Y114142D02*
Y114922D01*
X-259016Y155432D02*
X-258236D01*
X-258626Y155042D02*
Y155822D01*
X-255716Y149732D02*
X-254936D01*
X-255326Y149342D02*
Y150122D01*
X-255790Y151500D02*
X-255010D01*
X-255400Y151110D02*
Y151890D01*
X-248216Y152332D02*
X-247436D01*
X-247826Y151942D02*
Y152722D01*
X-194890Y-17250D02*
X-194110D01*
X-194500Y-17640D02*
Y-16860D01*
X-75612Y60723D02*
X-74832D01*
X-75222Y60333D02*
Y61113D01*
X-97013Y59477D02*
X-96233D01*
X-96623Y59087D02*
Y59867D01*
X-210140Y43470D02*
X-209360D01*
X-209750Y43080D02*
Y43860D01*
X-236983Y62119D02*
X-236203D01*
X-236593Y61729D02*
Y62509D01*
X-227890Y69250D02*
X-227110D01*
X-227500Y68860D02*
Y69640D01*
X-198140Y72923D02*
X-197360D01*
X-197750Y72533D02*
Y73313D01*
X-169890Y-47300D02*
X-169110D01*
X-169500Y-47690D02*
Y-46910D01*
X-176690Y-46694D02*
X-175910D01*
X-176300Y-47084D02*
Y-46304D01*
X-176690Y-53700D02*
X-175910D01*
X-176300Y-54090D02*
Y-53310D01*
X-169790Y-53000D02*
X-169010D01*
X-169400Y-53390D02*
Y-52610D01*
X-78512Y56626D02*
X-77732D01*
X-78122Y56236D02*
Y57016D01*
X-213890Y-77500D02*
X-213110D01*
X-213500Y-77890D02*
Y-77110D01*
X-219244Y-53396D02*
X-218464D01*
X-218854Y-53786D02*
Y-53006D01*
X-60390Y183200D02*
X-59610D01*
X-60000Y182810D02*
Y183590D01*
X-198640Y-102800D02*
X-197860D01*
X-198250Y-103190D02*
Y-102410D01*
X-215990Y-32000D02*
X-215210D01*
X-215600Y-32390D02*
Y-31610D01*
X153472Y135662D02*
X154252D01*
X153862Y135272D02*
Y136052D01*
X144904Y144230D02*
X145684D01*
X145294Y143840D02*
Y144620D01*
X-236663Y16500D02*
X-235883D01*
X-236273Y16110D02*
Y16890D01*
X-238640Y19750D02*
X-237860D01*
X-238250Y19360D02*
Y20140D01*
X-91629Y75526D02*
X-90849D01*
X-91239Y75136D02*
Y75916D01*
X-90612Y78656D02*
X-89832D01*
X-90222Y78266D02*
Y79046D01*
X-90712Y83718D02*
X-89932D01*
X-90322Y83328D02*
Y84108D01*
X-227890Y-25750D02*
X-227110D01*
X-227500Y-26140D02*
Y-25360D01*
X-97590Y-93300D02*
X-96810D01*
X-97200Y-93690D02*
Y-92910D01*
X-72912Y101026D02*
X-72132D01*
X-72522Y100636D02*
Y101416D01*
X-93012Y103926D02*
X-92232D01*
X-92622Y103536D02*
Y104316D01*
X-98012Y97826D02*
X-97232D01*
X-97622Y97436D02*
Y98216D01*
X-90712Y71826D02*
X-89932D01*
X-90322Y71436D02*
Y72216D01*
X-74408Y2293D02*
X-73628D01*
X-74018Y1903D02*
Y2683D01*
X-71108Y-19407D02*
X-70328D01*
X-70718Y-19797D02*
Y-19017D01*
X-77108Y-38007D02*
X-76328D01*
X-76718Y-38397D02*
Y-37617D01*
X-80008Y-42107D02*
X-79228D01*
X-79618Y-42497D02*
Y-41717D01*
X-94508Y5193D02*
X-93728D01*
X-94118Y4803D02*
Y5583D01*
X-92208Y-15015D02*
X-91428D01*
X-91818Y-15405D02*
Y-14625D01*
X-94408Y-39907D02*
X-93628D01*
X-94018Y-40297D02*
Y-39517D01*
X-93808Y-42507D02*
X-93028D01*
X-93418Y-42897D02*
Y-42117D01*
X-92590Y-140000D02*
X-91810D01*
X-92200Y-140390D02*
Y-139610D01*
X-93190Y-137400D02*
X-92410D01*
X-92800Y-137790D02*
Y-137010D01*
X-53090Y109100D02*
X-52310D01*
X-52700Y108710D02*
Y109490D01*
X-53090Y10400D02*
X-52310D01*
X-52700Y10010D02*
Y10790D01*
X-53190Y-87700D02*
X-52410D01*
X-52800Y-88090D02*
Y-87310D01*
X-92490Y-120700D02*
X-91710D01*
X-92100Y-121090D02*
Y-120310D01*
X-90890Y-117569D02*
X-90110D01*
X-90500Y-117959D02*
Y-117179D01*
X-98290Y-98400D02*
X-97510D01*
X-97900Y-98790D02*
Y-98010D01*
X-93290Y-92300D02*
X-92510D01*
X-92900Y-92690D02*
Y-91910D01*
X-78790Y-139600D02*
X-78010D01*
X-78400Y-139990D02*
Y-139210D01*
X-69890Y-116900D02*
X-69110D01*
X-69500Y-117290D02*
Y-116510D01*
X-73190Y-95200D02*
X-72410D01*
X-72800Y-95590D02*
Y-94810D01*
X166210Y147311D02*
X166990D01*
X166600Y146921D02*
Y147701D01*
X126210Y162200D02*
X126990D01*
X126600Y161810D02*
Y162590D01*
X126210Y166564D02*
X126990D01*
X126600Y166174D02*
Y166954D01*
X126210Y164300D02*
X126990D01*
X126600Y163910D02*
Y164690D01*
X151129Y147231D02*
X151909D01*
X151519Y146841D02*
Y147621D01*
X141210Y158900D02*
X141990D01*
X141600Y158510D02*
Y159290D01*
X161210Y143150D02*
X161990D01*
X161600Y142760D02*
Y143540D01*
X127310Y20600D02*
X128090D01*
X127700Y20210D02*
Y20990D01*
X174096Y57688D02*
X174876D01*
X174486Y57298D02*
Y58078D01*
X166210Y133400D02*
X166990D01*
X166600Y133010D02*
Y133790D01*
X153852Y56432D02*
X154632D01*
X154242Y56042D02*
Y56822D01*
X173610Y37535D02*
X174390D01*
X174000Y37145D02*
Y37925D01*
X144543Y47486D02*
X145323D01*
X144933Y47096D02*
Y47877D01*
X142007Y45709D02*
X142787D01*
X142397Y45318D02*
Y46099D01*
X140707Y-48891D02*
X141487D01*
X141097Y-49281D02*
Y-48502D01*
X143243Y-47113D02*
X144023D01*
X143633Y-47504D02*
Y-46723D01*
X172310Y-57065D02*
X173090D01*
X172700Y-57455D02*
Y-56675D01*
X152552Y-38168D02*
X153332D01*
X152942Y-38558D02*
Y-37778D01*
X172796Y-36912D02*
X173576D01*
X173186Y-37302D02*
Y-36522D01*
X114974Y-133564D02*
X115754D01*
X115364Y-133954D02*
Y-133174D01*
X93810Y-150900D02*
X94590D01*
X94200Y-151290D02*
Y-150510D01*
X39724Y-152300D02*
X40504D01*
X40114Y-152690D02*
Y-151910D01*
X73981Y-152300D02*
X74761D01*
X74371Y-152690D02*
Y-151910D01*
X-3097Y-152300D02*
X-2317D01*
X-2707Y-152690D02*
Y-151910D01*
X56853Y-152300D02*
X57633D01*
X57243Y-152690D02*
Y-151910D01*
X171353Y-130643D02*
X172133D01*
X171743Y-131033D02*
Y-130253D01*
X138891Y-140975D02*
X139671D01*
X139281Y-141365D02*
Y-140585D01*
X140610Y-139655D02*
X141390D01*
X141000Y-140045D02*
Y-139265D01*
X151110Y-131900D02*
X151890D01*
X151500Y-132290D02*
Y-131510D01*
X-52218Y100300D02*
X-51438D01*
X-51828Y99910D02*
Y100690D01*
X-52618Y104400D02*
X-51838D01*
X-52228Y104010D02*
Y104790D01*
X-50918Y101600D02*
X-50138D01*
X-50528Y101210D02*
Y101990D01*
X-52918Y110900D02*
X-52138D01*
X-52528Y110510D02*
Y111290D01*
X-43118Y117600D02*
X-42338D01*
X-42728Y117210D02*
Y117990D01*
X-53788Y89346D02*
X-53008D01*
X-53398Y88956D02*
Y89736D01*
X-52518Y84400D02*
X-51738D01*
X-52128Y84010D02*
Y84790D01*
X-37796Y65802D02*
X-37016D01*
X-37406Y65412D02*
Y66192D01*
X4282Y65600D02*
X5062D01*
X4672Y65210D02*
Y65990D01*
X43382Y65700D02*
X44162D01*
X43772Y65310D02*
Y66090D01*
X82682Y65300D02*
X83462D01*
X83072Y64910D02*
Y65690D01*
X-52345Y79346D02*
X-51565D01*
X-51955Y78956D02*
Y79736D01*
X-42898Y-13788D02*
X-42118D01*
X-42508Y-14178D02*
Y-13398D01*
X17810Y-90967D02*
X18590D01*
X18200Y-91357D02*
Y-90577D01*
X17810Y-95933D02*
X18590D01*
X18200Y-96323D02*
Y-95543D01*
X11010Y-96000D02*
X11790D01*
X11400Y-96390D02*
Y-95610D01*
X11010Y-91000D02*
X11790D01*
X11400Y-91390D02*
Y-90610D01*
X-52372Y1643D02*
X-51592D01*
X-51982Y1252D02*
Y2032D01*
X-52772Y5742D02*
X-51992D01*
X-52382Y5353D02*
Y6132D01*
X-51072Y2943D02*
X-50292D01*
X-50682Y2552D02*
Y3333D01*
X-53072Y12242D02*
X-52292D01*
X-52682Y11852D02*
Y12632D01*
X-44172Y15943D02*
X-43392D01*
X-43782Y15552D02*
Y16332D01*
X-43272Y18943D02*
X-42492D01*
X-42882Y18553D02*
Y19332D01*
X-1172Y12843D02*
X-392D01*
X-782Y12453D02*
Y13232D01*
X37828Y12743D02*
X38608D01*
X38218Y12353D02*
Y13133D01*
X77328Y12642D02*
X78108D01*
X77718Y12252D02*
Y13033D01*
X78151Y23672D02*
X78931D01*
X78541Y23281D02*
Y24061D01*
X-249Y23772D02*
X531D01*
X141Y23381D02*
Y24161D01*
X-53941Y-9312D02*
X-53161D01*
X-53551Y-9702D02*
Y-8922D01*
X-52672Y-14257D02*
X-51892D01*
X-52282Y-14648D02*
Y-13868D01*
X-52499Y-19312D02*
X-51718D01*
X-52109Y-19702D02*
Y-18922D01*
X38751Y23672D02*
X39531D01*
X39141Y23281D02*
Y24061D01*
X76928Y-26057D02*
X77708D01*
X77318Y-26447D02*
Y-25668D01*
X37528Y-26057D02*
X38308D01*
X37918Y-26447D02*
Y-25668D01*
X37528Y-14357D02*
X38308D01*
X37918Y-14748D02*
Y-13968D01*
X-1972Y-26057D02*
X-1192D01*
X-1582Y-26447D02*
Y-25668D01*
X-2072Y-14457D02*
X-1292D01*
X-1682Y-14848D02*
Y-14067D01*
X-24290Y-100300D02*
X-23510D01*
X-23900Y-100690D02*
Y-99910D01*
X-31090Y-100400D02*
X-30310D01*
X-30700Y-100790D02*
Y-100010D01*
X11010Y-101000D02*
X11790D01*
X11400Y-101390D02*
Y-100610D01*
X17810Y-100900D02*
X18590D01*
X18200Y-101290D02*
Y-100510D01*
X-37090Y-97500D02*
X-36310D01*
X-36700Y-97890D02*
Y-97110D01*
X-21090Y-87200D02*
X-20310D01*
X-20700Y-87590D02*
Y-86810D01*
X-27590Y-87300D02*
X-26810D01*
X-27200Y-87690D02*
Y-86910D01*
X91852Y-68800D02*
X92632D01*
X92242Y-69190D02*
Y-68410D01*
X91852Y-74600D02*
X92632D01*
X92242Y-74990D02*
Y-74210D01*
X91852Y-71700D02*
X92632D01*
X92242Y-72090D02*
Y-71310D01*
X91852Y-77500D02*
X92632D01*
X92242Y-77890D02*
Y-77110D01*
X91852Y-65700D02*
X92632D01*
X92242Y-66090D02*
Y-65310D01*
X96093Y-79587D02*
X96873D01*
X96483Y-79977D02*
Y-79197D01*
X96093Y-76687D02*
X96873D01*
X96483Y-77077D02*
Y-76297D01*
X96093Y-70887D02*
X96873D01*
X96483Y-71277D02*
Y-70497D01*
X96093Y-73787D02*
X96873D01*
X96483Y-74177D02*
Y-73397D01*
X96093Y-67987D02*
X96873D01*
X96483Y-68377D02*
Y-67597D01*
X87610Y-67300D02*
X88390D01*
X88000Y-67690D02*
Y-66910D01*
X87610Y-73100D02*
X88390D01*
X88000Y-73490D02*
Y-72710D01*
X87610Y-70200D02*
X88390D01*
X88000Y-70590D02*
Y-69810D01*
X87610Y-76000D02*
X88390D01*
X88000Y-76390D02*
Y-75610D01*
X87610Y-78900D02*
X88390D01*
X88000Y-79290D02*
Y-78510D01*
X104577Y-68387D02*
X105357D01*
X104966Y-68777D02*
Y-67997D01*
X104577Y-74187D02*
X105357D01*
X104966Y-74577D02*
Y-73797D01*
X104577Y-71287D02*
X105357D01*
X104966Y-71677D02*
Y-70897D01*
X104577Y-77087D02*
X105357D01*
X104966Y-77477D02*
Y-76697D01*
X104577Y-79987D02*
X105357D01*
X104966Y-80377D02*
Y-79597D01*
X112610Y-74100D02*
X113390D01*
X113000Y-74490D02*
Y-73710D01*
X112610Y-71200D02*
X113390D01*
X113000Y-71590D02*
Y-70810D01*
X112610Y-77000D02*
X113390D01*
X113000Y-77390D02*
Y-76610D01*
X108818Y-66787D02*
X109598D01*
X109208Y-67177D02*
Y-66397D01*
X108818Y-78587D02*
X109598D01*
X109208Y-78977D02*
Y-78197D01*
X108818Y-72787D02*
X109598D01*
X109208Y-73177D02*
Y-72397D01*
X108818Y-75687D02*
X109598D01*
X109208Y-76077D02*
Y-75297D01*
X108818Y-69887D02*
X109598D01*
X109208Y-70277D02*
Y-69497D01*
X100335Y-75487D02*
X101115D01*
X100725Y-75877D02*
Y-75097D01*
X100335Y-69687D02*
X101115D01*
X100725Y-70077D02*
Y-69297D01*
X100335Y-78387D02*
X101115D01*
X100725Y-78777D02*
Y-77997D01*
X100335Y-72587D02*
X101115D01*
X100725Y-72977D02*
Y-72197D01*
X100335Y-66587D02*
X101115D01*
X100725Y-66977D02*
Y-66197D01*
X91852Y-80500D02*
X92632D01*
X92242Y-80890D02*
Y-80110D01*
X-16752Y-69900D02*
X-15971D01*
X-16362Y-70290D02*
Y-69510D01*
X-16752Y-67000D02*
X-15971D01*
X-16362Y-67390D02*
Y-66610D01*
X-25444Y-66900D02*
X-24664D01*
X-25054Y-67290D02*
Y-66510D01*
X-25444Y-69800D02*
X-24664D01*
X-25054Y-70190D02*
Y-69410D01*
X-21098Y-71100D02*
X-20318D01*
X-20708Y-71490D02*
Y-70710D01*
X-21098Y-68200D02*
X-20318D01*
X-20708Y-68590D02*
Y-67810D01*
X-29790Y-68300D02*
X-29010D01*
X-29400Y-68690D02*
Y-67910D01*
X-29790Y-71200D02*
X-29010D01*
X-29400Y-71590D02*
Y-70810D01*
X633Y-66900D02*
X1413D01*
X1023Y-67290D02*
Y-66510D01*
X633Y-69800D02*
X1413D01*
X1023Y-70190D02*
Y-69410D01*
X-8059Y-66900D02*
X-7279D01*
X-7669Y-67290D02*
Y-66510D01*
X-8059Y-69800D02*
X-7279D01*
X-7669Y-70190D02*
Y-69410D01*
X-3713Y-71200D02*
X-2933D01*
X-3323Y-71590D02*
Y-70810D01*
X-3713Y-68300D02*
X-2933D01*
X-3323Y-68690D02*
Y-67910D01*
X-12405Y-68300D02*
X-11625D01*
X-12015Y-68690D02*
Y-67910D01*
X-12405Y-71200D02*
X-11625D01*
X-12015Y-71590D02*
Y-70810D01*
X26710Y-69900D02*
X27490D01*
X27100Y-70290D02*
Y-69510D01*
X26710Y-67000D02*
X27490D01*
X27100Y-67390D02*
Y-66610D01*
X18018Y-66900D02*
X18798D01*
X18408Y-67290D02*
Y-66510D01*
X18018Y-69800D02*
X18798D01*
X18408Y-70190D02*
Y-69410D01*
X9325Y-66900D02*
X10105D01*
X9715Y-67290D02*
Y-66510D01*
X9325Y-69800D02*
X10105D01*
X9715Y-70190D02*
Y-69410D01*
X22364Y-71100D02*
X23144D01*
X22754Y-71490D02*
Y-70710D01*
X22364Y-68200D02*
X23144D01*
X22754Y-68590D02*
Y-67810D01*
X13671Y-71200D02*
X14451D01*
X14062Y-71590D02*
Y-70810D01*
X13671Y-68300D02*
X14451D01*
X14062Y-68690D02*
Y-67910D01*
X4979Y-68300D02*
X5759D01*
X5369Y-68690D02*
Y-67910D01*
X4979Y-71200D02*
X5759D01*
X5369Y-71590D02*
Y-70810D01*
X44094Y-69900D02*
X44875D01*
X44485Y-70290D02*
Y-69510D01*
X44094Y-67000D02*
X44875D01*
X44485Y-67390D02*
Y-66610D01*
X35402Y-66900D02*
X36182D01*
X35792Y-67290D02*
Y-66510D01*
X35402Y-69800D02*
X36182D01*
X35792Y-70190D02*
Y-69410D01*
X39748Y-71100D02*
X40528D01*
X40138Y-71490D02*
Y-70710D01*
X39748Y-68200D02*
X40528D01*
X40138Y-68590D02*
Y-67810D01*
X31056Y-71200D02*
X31836D01*
X31446Y-71590D02*
Y-70810D01*
X31056Y-68300D02*
X31836D01*
X31446Y-68690D02*
Y-67910D01*
X61479Y-69900D02*
X62259D01*
X61869Y-70290D02*
Y-69510D01*
X61479Y-67000D02*
X62259D01*
X61869Y-67390D02*
Y-66610D01*
X52787Y-66900D02*
X53567D01*
X53177Y-67290D02*
Y-66510D01*
X52787Y-69800D02*
X53567D01*
X53177Y-70190D02*
Y-69410D01*
X57133Y-71100D02*
X57913D01*
X57523Y-71490D02*
Y-70710D01*
X57133Y-68200D02*
X57913D01*
X57523Y-68590D02*
Y-67810D01*
X48441Y-68300D02*
X49221D01*
X48831Y-68690D02*
Y-67910D01*
X48441Y-71200D02*
X49221D01*
X48831Y-71590D02*
Y-70810D01*
X78864Y-69800D02*
X79644D01*
X79254Y-70190D02*
Y-69410D01*
X78864Y-66900D02*
X79644D01*
X79254Y-67290D02*
Y-66510D01*
X70171Y-66900D02*
X70951D01*
X70561Y-67290D02*
Y-66510D01*
X70171Y-69800D02*
X70951D01*
X70561Y-70190D02*
Y-69410D01*
X65825Y-68300D02*
X66605D01*
X66215Y-68690D02*
Y-67910D01*
X65825Y-71200D02*
X66605D01*
X66215Y-71590D02*
Y-70810D01*
X27310Y-87900D02*
X28090D01*
X27700Y-88290D02*
Y-87510D01*
X27310Y-92825D02*
X28090D01*
X27700Y-93215D02*
Y-92435D01*
X27310Y-97750D02*
X28090D01*
X27700Y-98140D02*
Y-97360D01*
X33810Y-87800D02*
X34590D01*
X34200Y-88190D02*
Y-87410D01*
X33810Y-92825D02*
X34590D01*
X34200Y-93215D02*
Y-92435D01*
X33810Y-97850D02*
X34590D01*
X34200Y-98240D02*
Y-97460D01*
X30610Y-94525D02*
X31390D01*
X31000Y-94915D02*
Y-94135D01*
X30610Y-89400D02*
X31390D01*
X31000Y-89790D02*
Y-89010D01*
X30610Y-99650D02*
X31390D01*
X31000Y-100040D02*
Y-99260D01*
X30610Y-104775D02*
X31390D01*
X31000Y-105165D02*
Y-104385D01*
X33810Y-102875D02*
X34590D01*
X34200Y-103265D02*
Y-102485D01*
X27410Y-102675D02*
X28190D01*
X27800Y-103065D02*
Y-102285D01*
X24210Y-100900D02*
X24990D01*
X24600Y-101290D02*
Y-100510D01*
X24210Y-105600D02*
X24990D01*
X24600Y-105990D02*
Y-105210D01*
X24210Y-95000D02*
X24990D01*
X24600Y-95390D02*
Y-94610D01*
X24210Y-89200D02*
X24990D01*
X24600Y-89590D02*
Y-88810D01*
X24110Y-109700D02*
X24890D01*
X24500Y-110090D02*
Y-109310D01*
X27410Y-107600D02*
X28190D01*
X27800Y-107990D02*
Y-107210D01*
X33810Y-107900D02*
X34590D01*
X34200Y-108290D02*
Y-107510D01*
X17810Y-109300D02*
X18590D01*
X18200Y-109690D02*
Y-108910D01*
X21110Y-107300D02*
X21890D01*
X21500Y-107690D02*
Y-106910D01*
X14710Y-107100D02*
X15490D01*
X15100Y-107490D02*
Y-106710D01*
X14610Y-103200D02*
X15390D01*
X15000Y-103590D02*
Y-102810D01*
X21110Y-103100D02*
X21890D01*
X21500Y-103490D02*
Y-102710D01*
X17810Y-105400D02*
X18590D01*
X18200Y-105790D02*
Y-105010D01*
X11110Y-105300D02*
X11890D01*
X11500Y-105690D02*
Y-104910D01*
X11210Y-109300D02*
X11990D01*
X11600Y-109690D02*
Y-108910D01*
X4410Y-104600D02*
X5190D01*
X4800Y-104990D02*
Y-104210D01*
X7810Y-103600D02*
X8590D01*
X8200Y-103990D02*
Y-103210D01*
X1210Y-102900D02*
X1990D01*
X1600Y-103290D02*
Y-102510D01*
X1110Y-108800D02*
X1890D01*
X1500Y-109190D02*
Y-108410D01*
X7810Y-107000D02*
X8590D01*
X8200Y-107390D02*
Y-106610D01*
X4310Y-109400D02*
X5090D01*
X4700Y-109790D02*
Y-109010D01*
X-1490Y-97400D02*
X-710D01*
X-1100Y-97790D02*
Y-97010D01*
X-1490Y-101900D02*
X-710D01*
X-1100Y-102290D02*
Y-101510D01*
X-37690Y-109700D02*
X-36910D01*
X-37300Y-110090D02*
Y-109310D01*
X-33990Y-107300D02*
X-33210D01*
X-33600Y-107690D02*
Y-106910D01*
X-40990Y-108200D02*
X-40210D01*
X-40600Y-108590D02*
Y-107810D01*
X-40890Y-102300D02*
X-40110D01*
X-40500Y-102690D02*
Y-101910D01*
X-34190Y-103000D02*
X-33410D01*
X-33800Y-103390D02*
Y-102610D01*
X-37790Y-105400D02*
X-37010D01*
X-37400Y-105790D02*
Y-105010D01*
X-31190Y-109300D02*
X-30410D01*
X-30800Y-109690D02*
Y-108910D01*
X-30990Y-105300D02*
X-30210D01*
X-30600Y-105690D02*
Y-104910D01*
X-24290Y-105200D02*
X-23510D01*
X-23900Y-105590D02*
Y-104810D01*
X-20790Y-102900D02*
X-20010D01*
X-20400Y-103290D02*
Y-102510D01*
X-27290Y-103000D02*
X-26510D01*
X-26900Y-103390D02*
Y-102610D01*
X-27390Y-107300D02*
X-26610D01*
X-27000Y-107690D02*
Y-106910D01*
X-20890Y-107200D02*
X-20110D01*
X-20500Y-107590D02*
Y-106810D01*
X-24390Y-109200D02*
X-23610D01*
X-24000Y-109590D02*
Y-108810D01*
X-5190Y-109300D02*
X-4410D01*
X-4800Y-109690D02*
Y-108910D01*
X-11590Y-109300D02*
X-10810D01*
X-11200Y-109690D02*
Y-108910D01*
X-7890Y-106844D02*
X-7110D01*
X-7500Y-107234D02*
Y-106454D01*
X-14390Y-106844D02*
X-13610D01*
X-14000Y-107234D02*
Y-106454D01*
X-17990Y-109100D02*
X-17210D01*
X-17600Y-109490D02*
Y-108710D01*
X-17890Y-88600D02*
X-17110D01*
X-17500Y-88990D02*
Y-88210D01*
X-17890Y-94400D02*
X-17110D01*
X-17500Y-94790D02*
Y-94010D01*
X-17890Y-105000D02*
X-17110D01*
X-17500Y-105390D02*
Y-104610D01*
X-17890Y-100300D02*
X-17110D01*
X-17500Y-100690D02*
Y-99910D01*
X-14490Y-101933D02*
X-13710D01*
X-14100Y-102323D02*
Y-101543D01*
X-7990Y-101933D02*
X-7210D01*
X-7600Y-102323D02*
Y-101543D01*
X-11390Y-104389D02*
X-10610D01*
X-11000Y-104779D02*
Y-103999D01*
X-11490Y-99478D02*
X-10710D01*
X-11100Y-99868D02*
Y-99088D01*
X-5090Y-99478D02*
X-4310D01*
X-4700Y-99868D02*
Y-99088D01*
X-4990Y-104389D02*
X-4210D01*
X-4600Y-104779D02*
Y-103999D01*
X-5090Y-94567D02*
X-4310D01*
X-4700Y-94957D02*
Y-94177D01*
X-5090Y-89656D02*
X-4310D01*
X-4700Y-90046D02*
Y-89266D01*
X-11490Y-89656D02*
X-10710D01*
X-11100Y-90046D02*
Y-89266D01*
X-11490Y-94567D02*
X-10710D01*
X-11100Y-94957D02*
Y-94177D01*
X-8090Y-97022D02*
X-7310D01*
X-7700Y-97412D02*
Y-96632D01*
X-8290Y-92111D02*
X-7510D01*
X-7900Y-92501D02*
Y-91721D01*
X-8290Y-87200D02*
X-7510D01*
X-7900Y-87590D02*
Y-86810D01*
X-14590Y-97022D02*
X-13810D01*
X-14200Y-97412D02*
Y-96632D01*
X-14790Y-92111D02*
X-14010D01*
X-14400Y-92501D02*
Y-91721D01*
X-14790Y-87200D02*
X-14010D01*
X-14400Y-87590D02*
Y-86810D01*
X-37990Y-92100D02*
X-37210D01*
X-37600Y-92490D02*
Y-91710D01*
X3810Y-92300D02*
X4590D01*
X4200Y-92690D02*
Y-91910D01*
X82510Y-145100D02*
X83290D01*
X82900Y-145490D02*
Y-144710D01*
X80110Y-137600D02*
X80890D01*
X80500Y-137990D02*
Y-137210D01*
X43310Y-144800D02*
X44090D01*
X43700Y-145190D02*
Y-144410D01*
X2110Y-137500D02*
X2890D01*
X2500Y-137890D02*
Y-137110D01*
X1810Y-140700D02*
X2590D01*
X2200Y-141090D02*
Y-140310D01*
X4610Y-144600D02*
X5390D01*
X5000Y-144990D02*
Y-144210D01*
X95810Y-139200D02*
X96590D01*
X96200Y-139590D02*
Y-138810D01*
X95810Y-145000D02*
X96590D01*
X96200Y-145390D02*
Y-144610D01*
X89010Y-139200D02*
X89790D01*
X89400Y-139590D02*
Y-138810D01*
X89010Y-145000D02*
X89790D01*
X89400Y-145390D02*
Y-144610D01*
X85610Y-141700D02*
X86390D01*
X86000Y-142090D02*
Y-141310D01*
X56710Y-139100D02*
X57490D01*
X57100Y-139490D02*
Y-138710D01*
X56710Y-144900D02*
X57490D01*
X57100Y-145290D02*
Y-144510D01*
X49910Y-139100D02*
X50690D01*
X50300Y-139490D02*
Y-138710D01*
X49910Y-144900D02*
X50690D01*
X50300Y-145290D02*
Y-144510D01*
X59710Y-141600D02*
X60490D01*
X60100Y-141990D02*
Y-141210D01*
X53210Y-141700D02*
X53990D01*
X53600Y-142090D02*
Y-141310D01*
X46410Y-141700D02*
X47190D01*
X46800Y-142090D02*
Y-141310D01*
X17810Y-138900D02*
X18590D01*
X18200Y-139290D02*
Y-138510D01*
X17810Y-144700D02*
X18590D01*
X18200Y-145090D02*
Y-144310D01*
X11010Y-138900D02*
X11790D01*
X11400Y-139290D02*
Y-138510D01*
X11010Y-144700D02*
X11790D01*
X11400Y-145090D02*
Y-144310D01*
X21010Y-141800D02*
X21790D01*
X21400Y-142190D02*
Y-141410D01*
X14510Y-141900D02*
X15290D01*
X14900Y-142290D02*
Y-141510D01*
X7710Y-141900D02*
X8490D01*
X8100Y-142290D02*
Y-141510D01*
X102110Y-124500D02*
X102890D01*
X102500Y-124890D02*
Y-124110D01*
X102210Y-142200D02*
X102990D01*
X102600Y-142590D02*
Y-141810D01*
X102210Y-139300D02*
X102990D01*
X102600Y-139690D02*
Y-138910D01*
X114910Y-124700D02*
X115690D01*
X115300Y-125090D02*
Y-124310D01*
X108510Y-124700D02*
X109290D01*
X108900Y-125090D02*
Y-124310D01*
X111810Y-126200D02*
X112590D01*
X112200Y-126590D02*
Y-125810D01*
X105310Y-137900D02*
X106090D01*
X105700Y-138290D02*
Y-137510D01*
X105310Y-132100D02*
X106090D01*
X105700Y-132490D02*
Y-131710D01*
X105310Y-126300D02*
X106090D01*
X105700Y-126690D02*
Y-125910D01*
X62910Y-124100D02*
X63690D01*
X63300Y-124490D02*
Y-123710D01*
X62910Y-128600D02*
X63690D01*
X63300Y-128990D02*
Y-128210D01*
X62910Y-134400D02*
X63690D01*
X63300Y-134790D02*
Y-134010D01*
X63010Y-144700D02*
X63790D01*
X63400Y-145090D02*
Y-144310D01*
X63010Y-138900D02*
X63790D01*
X63400Y-139290D02*
Y-138510D01*
X66010Y-142100D02*
X66790D01*
X66400Y-142490D02*
Y-141710D01*
X72510Y-142000D02*
X73290D01*
X72900Y-142390D02*
Y-141610D01*
X69410Y-144900D02*
X70190D01*
X69800Y-145290D02*
Y-144510D01*
X69310Y-140100D02*
X70090D01*
X69700Y-140490D02*
Y-139710D01*
X75810Y-145000D02*
X76590D01*
X76200Y-145390D02*
Y-144610D01*
X75810Y-139100D02*
X76590D01*
X76200Y-139490D02*
Y-138710D01*
X69310Y-128800D02*
X70090D01*
X69700Y-129190D02*
Y-128410D01*
X69310Y-134600D02*
X70090D01*
X69700Y-134990D02*
Y-134210D01*
X69310Y-124300D02*
X70090D01*
X69700Y-124690D02*
Y-123910D01*
X72610Y-137400D02*
X73390D01*
X73000Y-137790D02*
Y-137010D01*
X72610Y-131600D02*
X73390D01*
X73000Y-131990D02*
Y-131210D01*
X72610Y-125800D02*
X73390D01*
X73000Y-126190D02*
Y-125410D01*
X66110Y-137500D02*
X66890D01*
X66500Y-137890D02*
Y-137110D01*
X66110Y-131700D02*
X66890D01*
X66500Y-132090D02*
Y-131310D01*
X66110Y-125900D02*
X66890D01*
X66500Y-126290D02*
Y-125510D01*
X79010Y-140800D02*
X79790D01*
X79400Y-141190D02*
Y-140410D01*
X23810Y-124100D02*
X24590D01*
X24200Y-124490D02*
Y-123710D01*
X23910Y-144700D02*
X24690D01*
X24300Y-145090D02*
Y-144310D01*
X23910Y-138900D02*
X24690D01*
X24300Y-139290D02*
Y-138510D01*
X27210Y-142400D02*
X27990D01*
X27600Y-142790D02*
Y-142010D01*
X33510Y-142400D02*
X34290D01*
X33900Y-142790D02*
Y-142010D01*
X30310Y-144900D02*
X31090D01*
X30700Y-145290D02*
Y-144510D01*
X30210Y-140100D02*
X30990D01*
X30600Y-140490D02*
Y-139710D01*
X36710Y-139100D02*
X37490D01*
X37100Y-139490D02*
Y-138710D01*
X36710Y-144900D02*
X37490D01*
X37100Y-145290D02*
Y-144510D01*
X30210Y-124300D02*
X30990D01*
X30600Y-124690D02*
Y-123910D01*
X33510Y-137400D02*
X34290D01*
X33900Y-137790D02*
Y-137010D01*
X33510Y-131600D02*
X34290D01*
X33900Y-131990D02*
Y-131210D01*
X33510Y-125800D02*
X34290D01*
X33900Y-126190D02*
Y-125410D01*
X27010Y-137500D02*
X27790D01*
X27400Y-137890D02*
Y-137110D01*
X27010Y-131700D02*
X27790D01*
X27400Y-132090D02*
Y-131310D01*
X27010Y-125900D02*
X27790D01*
X27400Y-126290D02*
Y-125510D01*
X39910Y-140600D02*
X40690D01*
X40300Y-140990D02*
Y-140210D01*
X-1690Y-137600D02*
X-910D01*
X-1300Y-137990D02*
Y-137210D01*
X-14590Y-125900D02*
X-13810D01*
X-14200Y-126290D02*
Y-125510D01*
X-14590Y-131700D02*
X-13810D01*
X-14200Y-132090D02*
Y-131310D01*
X-14790Y-136800D02*
X-14010D01*
X-14400Y-137190D02*
Y-136410D01*
X-8090Y-125800D02*
X-7310D01*
X-7700Y-126190D02*
Y-125410D01*
X-8090Y-131600D02*
X-7310D01*
X-7700Y-131990D02*
Y-131210D01*
X-8090Y-137400D02*
X-7310D01*
X-7700Y-137790D02*
Y-137010D01*
X-11390Y-124300D02*
X-10610D01*
X-11000Y-124690D02*
Y-123910D01*
X-11490Y-134600D02*
X-10710D01*
X-11100Y-134990D02*
Y-134210D01*
X-11490Y-128800D02*
X-10710D01*
X-11100Y-129190D02*
Y-128410D01*
X-4990Y-124300D02*
X-4210D01*
X-4600Y-124690D02*
Y-123910D01*
X-4990Y-129000D02*
X-4210D01*
X-4600Y-129390D02*
Y-128610D01*
X-4990Y-134800D02*
X-4210D01*
X-4600Y-135190D02*
Y-134410D01*
X-5090Y-140500D02*
X-4310D01*
X-4700Y-140890D02*
Y-140110D01*
X-4890Y-144900D02*
X-4110D01*
X-4500Y-145290D02*
Y-144510D01*
X-11490Y-140500D02*
X-10710D01*
X-11100Y-140890D02*
Y-140110D01*
X-11290Y-144900D02*
X-10510D01*
X-10900Y-145290D02*
Y-144510D01*
X-7990Y-142100D02*
X-7210D01*
X-7600Y-142490D02*
Y-141710D01*
X-14790Y-142100D02*
X-14010D01*
X-14400Y-142490D02*
Y-141710D01*
X-34290Y-142100D02*
X-33510D01*
X-33900Y-142490D02*
Y-141710D01*
X-20890Y-142100D02*
X-20110D01*
X-20500Y-142490D02*
Y-141710D01*
X-30890Y-144900D02*
X-30110D01*
X-30500Y-145290D02*
Y-144510D01*
X-30890Y-138900D02*
X-30110D01*
X-30500Y-139290D02*
Y-138510D01*
X-24090Y-144900D02*
X-23310D01*
X-23700Y-145290D02*
Y-144510D01*
X-24090Y-138900D02*
X-23310D01*
X-23700Y-139290D02*
Y-138510D01*
X-17690Y-138900D02*
X-16910D01*
X-17300Y-139290D02*
Y-138510D01*
X-17690Y-144900D02*
X-16910D01*
X-17300Y-145290D02*
Y-144510D01*
X-17790Y-124100D02*
X-17010D01*
X-17400Y-124490D02*
Y-123710D01*
X82546Y-152400D02*
X83326D01*
X82936Y-152790D02*
Y-152010D01*
X82546Y-149500D02*
X83326D01*
X82936Y-149890D02*
Y-149110D01*
X96510Y-148500D02*
X97290D01*
X96900Y-148890D02*
Y-148110D01*
X65417Y-149500D02*
X66197D01*
X65807Y-149890D02*
Y-149110D01*
X73981Y-149400D02*
X74761D01*
X74371Y-149790D02*
Y-149010D01*
X69699Y-151000D02*
X70479D01*
X70089Y-151390D02*
Y-150610D01*
X69699Y-148100D02*
X70479D01*
X70089Y-148490D02*
Y-147710D01*
X78263Y-148200D02*
X79044D01*
X78654Y-148590D02*
Y-147810D01*
X78263Y-151100D02*
X79044D01*
X78654Y-151490D02*
Y-150710D01*
X48289Y-149500D02*
X49068D01*
X48678Y-149890D02*
Y-149110D01*
X56853Y-149400D02*
X57633D01*
X57243Y-149790D02*
Y-149010D01*
X44006Y-151000D02*
X44786D01*
X44396Y-151390D02*
Y-150610D01*
X44006Y-148100D02*
X44786D01*
X44396Y-148490D02*
Y-147710D01*
X52571Y-151000D02*
X53351D01*
X52961Y-151390D02*
Y-150610D01*
X52571Y-148100D02*
X53351D01*
X52961Y-148490D02*
Y-147710D01*
X61135Y-148200D02*
X61915D01*
X61525Y-148590D02*
Y-147810D01*
X61135Y-151100D02*
X61915D01*
X61525Y-151490D02*
Y-150710D01*
X22596Y-149500D02*
X23376D01*
X22986Y-149890D02*
Y-149110D01*
X31160Y-149500D02*
X31940D01*
X31550Y-149890D02*
Y-149110D01*
X39724Y-149400D02*
X40504D01*
X40114Y-149790D02*
Y-149010D01*
X26878Y-151000D02*
X27658D01*
X27268Y-151390D02*
Y-150610D01*
X26878Y-148100D02*
X27658D01*
X27268Y-148490D02*
Y-147710D01*
X35442Y-151000D02*
X36222D01*
X35832Y-151390D02*
Y-150610D01*
X35442Y-148100D02*
X36222D01*
X35832Y-148490D02*
Y-147710D01*
X5467Y-149500D02*
X6247D01*
X5857Y-149890D02*
Y-149110D01*
X14031Y-149500D02*
X14811D01*
X14421Y-149890D02*
Y-149110D01*
X9749Y-151000D02*
X10529D01*
X10139Y-151390D02*
Y-150610D01*
X9749Y-148100D02*
X10529D01*
X10139Y-148490D02*
Y-147710D01*
X18314Y-148200D02*
X19094D01*
X18703Y-148590D02*
Y-147810D01*
X18314Y-151100D02*
X19094D01*
X18703Y-151490D02*
Y-150710D01*
X-11661Y-149500D02*
X-10881D01*
X-11271Y-149890D02*
Y-149110D01*
X-3097Y-149400D02*
X-2317D01*
X-2707Y-149790D02*
Y-149010D01*
X-7379Y-151000D02*
X-6599D01*
X-6989Y-151390D02*
Y-150610D01*
X-7379Y-148100D02*
X-6599D01*
X-6989Y-148490D02*
Y-147710D01*
X1185Y-148200D02*
X1965D01*
X1575Y-148590D02*
Y-147810D01*
X1185Y-151100D02*
X1965D01*
X1575Y-151490D02*
Y-150710D01*
X-28790Y-149500D02*
X-28010D01*
X-28400Y-149890D02*
Y-149110D01*
X-20226Y-149400D02*
X-19446D01*
X-19836Y-149790D02*
Y-149010D01*
X-20226Y-152300D02*
X-19446D01*
X-19836Y-152690D02*
Y-151910D01*
X-24508Y-151000D02*
X-23728D01*
X-24118Y-151390D02*
Y-150610D01*
X-24508Y-148100D02*
X-23728D01*
X-24118Y-148490D02*
Y-147710D01*
X-15944Y-148200D02*
X-15164D01*
X-15554Y-148590D02*
Y-147810D01*
X-15944Y-151100D02*
X-15164D01*
X-15554Y-151490D02*
Y-150710D01*
X83038Y-136200D02*
X83818D01*
X83428Y-136590D02*
Y-135810D01*
X80010Y-133900D02*
X80790D01*
X80400Y-134290D02*
Y-133510D01*
X40910Y-137800D02*
X41690D01*
X41300Y-138190D02*
Y-137410D01*
X43838Y-135400D02*
X44618D01*
X44228Y-135790D02*
Y-135010D01*
X40810Y-133600D02*
X41590D01*
X41200Y-133990D02*
Y-133210D01*
X4810Y-135700D02*
X5590D01*
X5200Y-136090D02*
Y-135310D01*
X2210Y-133300D02*
X2990D01*
X2600Y-133690D02*
Y-132910D01*
X-39690Y-133700D02*
X-38910D01*
X-39300Y-134090D02*
Y-133310D01*
X-36889Y-135600D02*
X-36109D01*
X-36499Y-135990D02*
Y-135210D01*
X-39790Y-137900D02*
X-39010D01*
X-39400Y-138290D02*
Y-137510D01*
X-39990Y-95100D02*
X-39210D01*
X-39600Y-95490D02*
Y-94710D01*
X-39990Y-99500D02*
X-39210D01*
X-39600Y-99890D02*
Y-99110D01*
X2310Y-99500D02*
X3090D01*
X2700Y-99890D02*
Y-99110D01*
X2310Y-95300D02*
X3090D01*
X2700Y-95690D02*
Y-94910D01*
X5038Y-97400D02*
X5818D01*
X5428Y-97790D02*
Y-97010D01*
X-2090Y-112300D02*
X-1310D01*
X-1700Y-112690D02*
Y-111910D01*
X-1990Y-123900D02*
X-1210D01*
X-1600Y-124290D02*
Y-123510D01*
X37510Y-112200D02*
X38290D01*
X37900Y-112590D02*
Y-111810D01*
X37510Y-123900D02*
X38290D01*
X37900Y-124290D02*
Y-123510D01*
X76910Y-123900D02*
X77690D01*
X77300Y-124290D02*
Y-123510D01*
X77110Y-112600D02*
X77890D01*
X77500Y-112990D02*
Y-112210D01*
X38732Y-74171D02*
X39512D01*
X39122Y-74561D02*
Y-73781D01*
X7710Y-99200D02*
X8490D01*
X8100Y-99590D02*
Y-98810D01*
X7710Y-93400D02*
X8490D01*
X8100Y-93790D02*
Y-93010D01*
X7710Y-87600D02*
X8490D01*
X8100Y-87990D02*
Y-87210D01*
X14510Y-87600D02*
X15290D01*
X14900Y-87990D02*
Y-87210D01*
X14510Y-93400D02*
X15290D01*
X14900Y-93790D02*
Y-93010D01*
X14510Y-99200D02*
X15290D01*
X14900Y-99590D02*
Y-98810D01*
X21010Y-87500D02*
X21790D01*
X21400Y-87890D02*
Y-87110D01*
X21010Y-93300D02*
X21790D01*
X21400Y-93690D02*
Y-92910D01*
X21010Y-99100D02*
X21790D01*
X21400Y-99490D02*
Y-98710D01*
X11010Y-86000D02*
X11790D01*
X11400Y-86390D02*
Y-85610D01*
X17710Y-86000D02*
X18490D01*
X18100Y-86390D02*
Y-85610D01*
X-34390Y-98900D02*
X-33610D01*
X-34000Y-99290D02*
Y-98510D01*
X-34390Y-93100D02*
X-33610D01*
X-34000Y-93490D02*
Y-92710D01*
X-34390Y-87300D02*
X-33610D01*
X-34000Y-87690D02*
Y-86910D01*
X-27590Y-93100D02*
X-26810D01*
X-27200Y-93490D02*
Y-92710D01*
X-27590Y-98900D02*
X-26810D01*
X-27200Y-99290D02*
Y-98510D01*
X-21090Y-93000D02*
X-20310D01*
X-20700Y-93390D02*
Y-92610D01*
X-21090Y-98800D02*
X-20310D01*
X-20700Y-99190D02*
Y-98410D01*
X-31090Y-85700D02*
X-30310D01*
X-30700Y-86090D02*
Y-85310D01*
X-24390Y-85700D02*
X-23610D01*
X-24000Y-86090D02*
Y-85310D01*
X85710Y-137600D02*
X86490D01*
X86100Y-137990D02*
Y-137210D01*
X85710Y-131800D02*
X86490D01*
X86100Y-132190D02*
Y-131410D01*
X85710Y-126000D02*
X86490D01*
X86100Y-126390D02*
Y-125610D01*
X92510Y-126000D02*
X93290D01*
X92900Y-126390D02*
Y-125610D01*
X92510Y-131800D02*
X93290D01*
X92900Y-132190D02*
Y-131410D01*
X92510Y-137600D02*
X93290D01*
X92900Y-137990D02*
Y-137210D01*
X99010Y-125900D02*
X99790D01*
X99400Y-126290D02*
Y-125510D01*
X99010Y-131700D02*
X99790D01*
X99400Y-132090D02*
Y-131310D01*
X99010Y-137500D02*
X99790D01*
X99400Y-137890D02*
Y-137110D01*
X89010Y-124400D02*
X89790D01*
X89400Y-124790D02*
Y-124010D01*
X95710Y-124400D02*
X96490D01*
X96100Y-124790D02*
Y-124010D01*
X46610Y-137300D02*
X47390D01*
X47000Y-137690D02*
Y-136910D01*
X46610Y-131500D02*
X47390D01*
X47000Y-131890D02*
Y-131110D01*
X46610Y-125700D02*
X47390D01*
X47000Y-126090D02*
Y-125310D01*
X53410Y-125700D02*
X54190D01*
X53800Y-126090D02*
Y-125310D01*
X53410Y-131500D02*
X54190D01*
X53800Y-131890D02*
Y-131110D01*
X53410Y-137300D02*
X54190D01*
X53800Y-137690D02*
Y-136910D01*
X59910Y-125600D02*
X60690D01*
X60300Y-125990D02*
Y-125210D01*
X59910Y-131400D02*
X60690D01*
X60300Y-131790D02*
Y-131010D01*
X59910Y-137200D02*
X60690D01*
X60300Y-137590D02*
Y-136810D01*
X49910Y-124100D02*
X50690D01*
X50300Y-124490D02*
Y-123710D01*
X56610Y-124100D02*
X57390D01*
X57000Y-124490D02*
Y-123710D01*
X49810Y-134400D02*
X50590D01*
X50200Y-134790D02*
Y-134010D01*
X49810Y-128600D02*
X50590D01*
X50200Y-128990D02*
Y-128210D01*
X56610Y-134400D02*
X57390D01*
X57000Y-134790D02*
Y-134010D01*
X56610Y-128600D02*
X57390D01*
X57000Y-128990D02*
Y-128210D01*
X7710Y-137300D02*
X8490D01*
X8100Y-137690D02*
Y-136910D01*
X7710Y-131500D02*
X8490D01*
X8100Y-131890D02*
Y-131110D01*
X7710Y-125700D02*
X8490D01*
X8100Y-126090D02*
Y-125310D01*
X14510Y-125700D02*
X15290D01*
X14900Y-126090D02*
Y-125310D01*
X14510Y-131500D02*
X15290D01*
X14900Y-131890D02*
Y-131110D01*
X14510Y-137300D02*
X15290D01*
X14900Y-137690D02*
Y-136910D01*
X21010Y-125600D02*
X21790D01*
X21400Y-125990D02*
Y-125210D01*
X21010Y-131400D02*
X21790D01*
X21400Y-131790D02*
Y-131010D01*
X21010Y-137200D02*
X21790D01*
X21400Y-137590D02*
Y-136810D01*
X11010Y-124100D02*
X11790D01*
X11400Y-124490D02*
Y-123710D01*
X17710Y-124100D02*
X18490D01*
X18100Y-124490D02*
Y-123710D01*
X10810Y-134500D02*
X11590D01*
X11200Y-134890D02*
Y-134110D01*
X10810Y-128700D02*
X11590D01*
X11200Y-129090D02*
Y-128310D01*
X17610Y-134500D02*
X18390D01*
X18000Y-134890D02*
Y-134110D01*
X17610Y-128700D02*
X18390D01*
X18000Y-129090D02*
Y-128310D01*
X-24190Y-124100D02*
X-23410D01*
X-23800Y-124490D02*
Y-123710D01*
X-30890Y-124100D02*
X-30110D01*
X-30500Y-124490D02*
Y-123710D01*
X-20890Y-137200D02*
X-20110D01*
X-20500Y-137590D02*
Y-136810D01*
X-20890Y-131400D02*
X-20110D01*
X-20500Y-131790D02*
Y-131010D01*
X-20890Y-125600D02*
X-20110D01*
X-20500Y-125990D02*
Y-125210D01*
X-27390Y-137300D02*
X-26610D01*
X-27000Y-137690D02*
Y-136910D01*
X-27390Y-131500D02*
X-26610D01*
X-27000Y-131890D02*
Y-131110D01*
X-27390Y-125700D02*
X-26610D01*
X-27000Y-126090D02*
Y-125310D01*
X-34190Y-125700D02*
X-33410D01*
X-33800Y-126090D02*
Y-125310D01*
X-34190Y-131500D02*
X-33410D01*
X-33800Y-131890D02*
Y-131110D01*
X-34190Y-137300D02*
X-33410D01*
X-33800Y-137690D02*
Y-136910D01*
X-169990Y-133900D02*
X-169210D01*
X-169600Y-134290D02*
Y-133510D01*
X-176890Y-127594D02*
X-176110D01*
X-176500Y-127984D02*
Y-127204D01*
X-52517Y-117154D02*
X-51737D01*
X-52127Y-117544D02*
Y-116764D01*
X82510Y-131200D02*
X83290D01*
X82900Y-131590D02*
Y-130810D01*
X43210Y-130800D02*
X43990D01*
X43600Y-131190D02*
Y-130410D01*
X4110Y-130900D02*
X4890D01*
X4500Y-131290D02*
Y-130510D01*
X-37968Y-130699D02*
X-37188D01*
X-37578Y-131088D02*
Y-130308D01*
X-52690Y-112100D02*
X-51910D01*
X-52300Y-112490D02*
Y-111710D01*
X-53959Y-107154D02*
X-53179D01*
X-53569Y-107544D02*
Y-106764D01*
X-268Y-74071D02*
X512D01*
X122Y-74461D02*
Y-73681D01*
X78132Y-74171D02*
X78912D01*
X78522Y-74561D02*
Y-73781D01*
X77310Y-85200D02*
X78090D01*
X77700Y-85590D02*
Y-84810D01*
X37810Y-85100D02*
X38590D01*
X38200Y-85490D02*
Y-84710D01*
X-1190Y-85000D02*
X-410D01*
X-800Y-85390D02*
Y-84610D01*
X-43290Y-78900D02*
X-42510D01*
X-42900Y-79290D02*
Y-78510D01*
X-53090Y-85600D02*
X-52310D01*
X-52700Y-85990D02*
Y-85210D01*
X-51090Y-94900D02*
X-50310D01*
X-50700Y-95290D02*
Y-94510D01*
X-52790Y-92100D02*
X-52010D01*
X-52400Y-92490D02*
Y-91710D01*
X-52390Y-96200D02*
X-51610D01*
X-52000Y-96590D02*
Y-95810D01*
X114545Y159400D02*
X115325D01*
X114935Y159010D02*
Y159790D01*
X114545Y161150D02*
X115325D01*
X114935Y160760D02*
Y161540D01*
X114545Y162900D02*
X115325D01*
X114935Y162510D02*
Y163290D01*
X131210Y159400D02*
X131990D01*
X131600Y159010D02*
Y159790D01*
X161210Y158900D02*
X161990D01*
X161600Y158510D02*
Y159290D01*
X171210Y158900D02*
X171990D01*
X171600Y158510D02*
Y159290D01*
X-203890Y-90050D02*
X-203110D01*
X-203500Y-90440D02*
Y-89660D01*
X-211390Y-87050D02*
X-210610D01*
X-211000Y-87440D02*
Y-86660D01*
X-232140Y-129300D02*
X-231360D01*
X-231750Y-129690D02*
Y-128910D01*
X-230390Y-129300D02*
X-229610D01*
X-230000Y-129690D02*
Y-128910D01*
X-228640Y-129300D02*
X-227860D01*
X-228250Y-129690D02*
Y-128910D01*
X-232140Y-127550D02*
X-231360D01*
X-231750Y-127940D02*
Y-127160D01*
X-230390Y-127550D02*
X-229610D01*
X-230000Y-127940D02*
Y-127160D01*
X-228640Y-127550D02*
X-227860D01*
X-228250Y-127940D02*
Y-127160D01*
X-228640Y-125800D02*
X-227860D01*
X-228250Y-126190D02*
Y-125410D01*
X-232140Y-125800D02*
X-231360D01*
X-231750Y-126190D02*
Y-125410D01*
X-230390Y-125800D02*
X-229610D01*
X-230000Y-126190D02*
Y-125410D01*
X-213265Y-102800D02*
X-212485D01*
X-212875Y-103190D02*
Y-102410D01*
X-221140Y-98550D02*
X-220360D01*
X-220750Y-98940D02*
Y-98160D01*
X-221140Y-93300D02*
X-220360D01*
X-220750Y-93690D02*
Y-92910D01*
X-221051Y-88211D02*
X-220271D01*
X-220661Y-88601D02*
Y-87821D01*
X-232640Y-85050D02*
X-231860D01*
X-232250Y-85440D02*
Y-84660D01*
X-206548Y-136905D02*
X-205768D01*
X-206158Y-137295D02*
Y-136515D01*
X-210640Y-132330D02*
X-209860D01*
X-210250Y-132720D02*
Y-131940D01*
X-178340Y-131071D02*
X-177560D01*
X-177950Y-131461D02*
Y-130681D01*
X-170090Y-128200D02*
X-169310D01*
X-169700Y-128590D02*
Y-127810D01*
X-195390Y-98050D02*
X-194610D01*
X-195000Y-98440D02*
Y-97660D01*
X-232140Y-121800D02*
X-231360D01*
X-231750Y-122190D02*
Y-121410D01*
X-230390Y-121800D02*
X-229610D01*
X-230000Y-122190D02*
Y-121410D01*
X-219140Y-34750D02*
X-218360D01*
X-218750Y-35140D02*
Y-34360D01*
X-220140Y-40000D02*
X-219360D01*
X-219750Y-40390D02*
Y-39610D01*
X-271483Y42219D02*
X-270703D01*
X-271093Y41829D02*
Y42609D01*
X-272140Y29500D02*
X-271360D01*
X-271750Y29110D02*
Y29890D01*
X-212765Y-22000D02*
X-211985D01*
X-212375Y-22390D02*
Y-21610D01*
X-251890Y-37402D02*
X-251110D01*
X-251500Y-37792D02*
Y-37012D01*
X-251890Y-33465D02*
X-251110D01*
X-251500Y-33855D02*
Y-33075D01*
X-251890Y-29528D02*
X-251110D01*
X-251500Y-29918D02*
Y-29138D01*
X-251890Y-25591D02*
X-251110D01*
X-251500Y-25981D02*
Y-25201D01*
X-251890Y-17717D02*
X-251110D01*
X-251500Y-18106D02*
Y-17327D01*
X-271051Y14839D02*
X-270271D01*
X-270661Y14449D02*
Y15229D01*
X-269274Y14839D02*
X-268494D01*
X-268884Y14449D02*
Y15229D01*
X-253390Y4000D02*
X-252610D01*
X-253000Y3610D02*
Y4390D01*
X-250390Y4000D02*
X-249610D01*
X-250000Y3610D02*
Y4390D01*
X-247390Y4000D02*
X-246610D01*
X-247000Y3610D02*
Y4390D01*
X-60390Y179927D02*
X-59610D01*
X-60000Y179537D02*
Y180317D01*
X-246051Y26634D02*
X-245271D01*
X-245661Y26244D02*
Y27024D01*
X-246051Y28411D02*
X-245271D01*
X-245661Y28021D02*
Y28801D01*
X-271640Y-8500D02*
X-270860D01*
X-271250Y-8890D02*
Y-8110D01*
X-269640Y-10500D02*
X-268860D01*
X-269250Y-10890D02*
Y-10110D01*
X-267640Y-12500D02*
X-266860D01*
X-267250Y-12890D02*
Y-12110D01*
X-221890Y32000D02*
X-221110D01*
X-221500Y31610D02*
Y32390D01*
X-194890Y36000D02*
X-194110D01*
X-194500Y35610D02*
Y36390D01*
X-194890Y32000D02*
X-194110D01*
X-194500Y31610D02*
Y32390D01*
X-237140Y36000D02*
X-236360D01*
X-236750Y35610D02*
Y36390D01*
X-237140Y32000D02*
X-236360D01*
X-236750Y31610D02*
Y32390D01*
X-244640Y34000D02*
X-243860D01*
X-244250Y33610D02*
Y34390D01*
X-276140Y-1000D02*
X-275360D01*
X-275750Y-1390D02*
Y-610D01*
X-276140Y5250D02*
X-275360D01*
X-275750Y4860D02*
Y5640D01*
X-278640Y16750D02*
X-277860D01*
X-278250Y16360D02*
Y17140D01*
X-278640Y19250D02*
X-277860D01*
X-278250Y18860D02*
Y19640D01*
X-276140Y14250D02*
X-275360D01*
X-275750Y13860D02*
Y14640D01*
X-276140Y16750D02*
X-275360D01*
X-275750Y16360D02*
Y17140D01*
X-276140Y19250D02*
X-275360D01*
X-275750Y18860D02*
Y19640D01*
X-276140Y29000D02*
X-275360D01*
X-275750Y28610D02*
Y29390D01*
X-244640Y11500D02*
X-243860D01*
X-244250Y11110D02*
Y11890D01*
X-244640Y5000D02*
X-243860D01*
X-244250Y4610D02*
Y5390D01*
X-250140Y10250D02*
X-249360D01*
X-249750Y9860D02*
Y10640D01*
X-245140Y15250D02*
X-244360D01*
X-244750Y14860D02*
Y15640D01*
X-178140Y44829D02*
X-177360D01*
X-177750Y44439D02*
Y45219D01*
X-178140Y-50171D02*
X-177360D01*
X-177750Y-50561D02*
Y-49781D01*
X-250805Y73207D02*
X-250025D01*
X-250415Y72817D02*
Y73597D01*
X-261390Y96500D02*
X-260610D01*
X-261000Y96110D02*
Y96890D01*
X-262640Y110000D02*
X-261860D01*
X-262250Y109610D02*
Y110390D01*
X-282390Y106000D02*
X-281610D01*
X-282000Y105610D02*
Y106390D01*
X-282390Y104000D02*
X-281610D01*
X-282000Y103610D02*
Y104390D01*
X-281937Y93000D02*
X-281157D01*
X-281547Y92610D02*
Y93390D01*
X-198140Y-22000D02*
X-197360D01*
X-197750Y-22390D02*
Y-21610D01*
X-248683Y73207D02*
X-247903D01*
X-248293Y72817D02*
Y73597D01*
X-271969Y1969D02*
X-271189D01*
X-271579Y1578D02*
Y2358D01*
X-269977Y1966D02*
X-269197D01*
X-269587Y1576D02*
Y2356D01*
X-246990Y100600D02*
X-246210D01*
X-246600Y100210D02*
Y100990D01*
X-220640Y-12500D02*
X-219860D01*
X-220250Y-12890D02*
Y-12110D01*
X-232140Y-4250D02*
X-231360D01*
X-231750Y-4640D02*
Y-3860D01*
X-69890Y169500D02*
X-69110D01*
X-69500Y169110D02*
Y169890D01*
X-73890Y169500D02*
X-73110D01*
X-73500Y169110D02*
Y169890D01*
X-210890Y-6250D02*
X-210110D01*
X-210500Y-6640D02*
Y-5860D01*
X-220551Y-7411D02*
X-219771D01*
X-220161Y-7801D02*
Y-7021D01*
X-220640Y-17750D02*
X-219860D01*
X-220250Y-18140D02*
Y-17360D01*
X-203390Y-9250D02*
X-202610D01*
X-203000Y-9640D02*
Y-8860D01*
X-210140Y-46411D02*
X-209360D01*
X-209750Y-46801D02*
Y-46021D01*
X-206048Y-56105D02*
X-205268D01*
X-205658Y-56495D02*
Y-55715D01*
X-210140Y-51530D02*
X-209360D01*
X-209750Y-51920D02*
Y-51140D01*
M02*
