G04*
G04 #@! TF.GenerationSoftware,Altium Limited,Altium Designer,22.9.1 (49)*
G04*
G04 Layer_Color=8421504*
%FSLAX25Y25*%
%MOIN*%
G70*
G04*
G04 #@! TF.SameCoordinates,3BA43B4F-DC3F-4A8D-A033-658DE37FB2C5*
G04*
G04*
G04 #@! TF.FilePolarity,Positive*
G04*
G01*
G75*
%ADD11C,0.01000*%
G04:AMPARAMS|DCode=20|XSize=21.26mil|YSize=55.12mil|CornerRadius=5.32mil|HoleSize=0mil|Usage=FLASHONLY|Rotation=0.000|XOffset=0mil|YOffset=0mil|HoleType=Round|Shape=RoundedRectangle|*
%AMROUNDEDRECTD20*
21,1,0.02126,0.04449,0,0,0.0*
21,1,0.01063,0.05512,0,0,0.0*
1,1,0.01063,0.00532,-0.02224*
1,1,0.01063,-0.00532,-0.02224*
1,1,0.01063,-0.00532,0.02224*
1,1,0.01063,0.00532,0.02224*
%
%ADD20ROUNDEDRECTD20*%
G04:AMPARAMS|DCode=21|XSize=10.24mil|YSize=55.12mil|CornerRadius=2.56mil|HoleSize=0mil|Usage=FLASHONLY|Rotation=180.000|XOffset=0mil|YOffset=0mil|HoleType=Round|Shape=RoundedRectangle|*
%AMROUNDEDRECTD21*
21,1,0.01024,0.05000,0,0,180.0*
21,1,0.00512,0.05512,0,0,180.0*
1,1,0.00512,-0.00256,0.02500*
1,1,0.00512,0.00256,0.02500*
1,1,0.00512,0.00256,-0.02500*
1,1,0.00512,-0.00256,-0.02500*
%
%ADD21ROUNDEDRECTD21*%
G04:AMPARAMS|DCode=22|XSize=23.62mil|YSize=28.35mil|CornerRadius=5.91mil|HoleSize=0mil|Usage=FLASHONLY|Rotation=0.000|XOffset=0mil|YOffset=0mil|HoleType=Round|Shape=RoundedRectangle|*
%AMROUNDEDRECTD22*
21,1,0.02362,0.01654,0,0,0.0*
21,1,0.01181,0.02835,0,0,0.0*
1,1,0.01181,0.00591,-0.00827*
1,1,0.01181,-0.00591,-0.00827*
1,1,0.01181,-0.00591,0.00827*
1,1,0.01181,0.00591,0.00827*
%
%ADD22ROUNDEDRECTD22*%
G04:AMPARAMS|DCode=23|XSize=21.26mil|YSize=70.08mil|CornerRadius=5.32mil|HoleSize=0mil|Usage=FLASHONLY|Rotation=0.000|XOffset=0mil|YOffset=0mil|HoleType=Round|Shape=RoundedRectangle|*
%AMROUNDEDRECTD23*
21,1,0.02126,0.05945,0,0,0.0*
21,1,0.01063,0.07008,0,0,0.0*
1,1,0.01063,0.00532,-0.02972*
1,1,0.01063,-0.00532,-0.02972*
1,1,0.01063,-0.00532,0.02972*
1,1,0.01063,0.00532,0.02972*
%
%ADD23ROUNDEDRECTD23*%
%ADD24R,0.10433X0.24213*%
%ADD25R,0.05000X0.03740*%
G04:AMPARAMS|DCode=26|XSize=59.06mil|YSize=17.72mil|CornerRadius=4.43mil|HoleSize=0mil|Usage=FLASHONLY|Rotation=180.000|XOffset=0mil|YOffset=0mil|HoleType=Round|Shape=RoundedRectangle|*
%AMROUNDEDRECTD26*
21,1,0.05906,0.00886,0,0,180.0*
21,1,0.05020,0.01772,0,0,180.0*
1,1,0.00886,-0.02510,0.00443*
1,1,0.00886,0.02510,0.00443*
1,1,0.00886,0.02510,-0.00443*
1,1,0.00886,-0.02510,-0.00443*
%
%ADD26ROUNDEDRECTD26*%
%ADD27R,0.03740X0.03543*%
%ADD28R,0.02165X0.01378*%
%ADD29R,0.06299X0.14291*%
%ADD30R,0.01378X0.02165*%
%ADD31R,0.09803X0.05803*%
%ADD32R,0.03740X0.05000*%
G04:AMPARAMS|DCode=33|XSize=46.06mil|YSize=131.06mil|CornerRadius=10.53mil|HoleSize=0mil|Usage=FLASHONLY|Rotation=180.000|XOffset=0mil|YOffset=0mil|HoleType=Round|Shape=RoundedRectangle|*
%AMROUNDEDRECTD33*
21,1,0.04606,0.11000,0,0,180.0*
21,1,0.02500,0.13106,0,0,180.0*
1,1,0.02106,-0.01250,0.05500*
1,1,0.02106,0.01250,0.05500*
1,1,0.02106,0.01250,-0.05500*
1,1,0.02106,-0.01250,-0.05500*
%
%ADD33ROUNDEDRECTD33*%
%ADD34R,0.04606X0.13106*%
%ADD35C,0.06000*%
%ADD36R,0.07000X0.13500*%
%ADD37R,0.05315X0.01575*%
%ADD38R,0.05197X0.03937*%
%ADD39R,0.03937X0.05197*%
%ADD40R,0.02953X0.03740*%
%ADD41R,0.02953X0.05315*%
%ADD42R,0.03937X0.03740*%
%ADD43R,0.10500X0.01799*%
%ADD44R,0.05315X0.02953*%
%ADD45R,0.03740X0.02953*%
G04:AMPARAMS|DCode=46|XSize=17.72mil|YSize=11.81mil|CornerRadius=2.95mil|HoleSize=0mil|Usage=FLASHONLY|Rotation=270.000|XOffset=0mil|YOffset=0mil|HoleType=Round|Shape=RoundedRectangle|*
%AMROUNDEDRECTD46*
21,1,0.01772,0.00591,0,0,270.0*
21,1,0.01181,0.01181,0,0,270.0*
1,1,0.00591,-0.00295,-0.00591*
1,1,0.00591,-0.00295,0.00591*
1,1,0.00591,0.00295,0.00591*
1,1,0.00591,0.00295,-0.00591*
%
%ADD46ROUNDEDRECTD46*%
G04:AMPARAMS|DCode=47|XSize=39.37mil|YSize=62.99mil|CornerRadius=9.84mil|HoleSize=0mil|Usage=FLASHONLY|Rotation=90.000|XOffset=0mil|YOffset=0mil|HoleType=Round|Shape=RoundedRectangle|*
%AMROUNDEDRECTD47*
21,1,0.03937,0.04331,0,0,90.0*
21,1,0.01968,0.06299,0,0,90.0*
1,1,0.01968,0.02165,0.00984*
1,1,0.01968,0.02165,-0.00984*
1,1,0.01968,-0.02165,-0.00984*
1,1,0.01968,-0.02165,0.00984*
%
%ADD47ROUNDEDRECTD47*%
%ADD48R,0.05118X0.01378*%
D11*
X233900Y195000D02*
X233900Y-195000D01*
X-296000Y-67815D02*
Y67815D01*
Y195000D02*
X233900D01*
X-296000Y-195000D02*
X-296000Y195000D01*
X-296000Y-195000D02*
X233900D01*
D20*
X100589Y-96246D02*
D03*
Y-89553D02*
D03*
X100216Y-134747D02*
D03*
Y-128053D02*
D03*
X60943Y-96246D02*
D03*
Y-89553D02*
D03*
X61016Y-134747D02*
D03*
Y-128053D02*
D03*
X22142Y-134747D02*
D03*
Y-128053D02*
D03*
X-19711Y-134747D02*
D03*
Y-128053D02*
D03*
X100661Y1654D02*
D03*
Y8347D02*
D03*
X100287Y-36847D02*
D03*
Y-30154D02*
D03*
X61014Y1142D02*
D03*
Y7835D02*
D03*
X61087Y-36847D02*
D03*
Y-30154D02*
D03*
X22214Y-36847D02*
D03*
Y-30154D02*
D03*
X-19639Y-36847D02*
D03*
Y-30154D02*
D03*
X100761Y100253D02*
D03*
Y106947D02*
D03*
X100387Y61753D02*
D03*
Y68446D02*
D03*
X61114Y100253D02*
D03*
Y106947D02*
D03*
X61187Y61753D02*
D03*
Y68446D02*
D03*
X22314Y61753D02*
D03*
Y68446D02*
D03*
X-19539Y61753D02*
D03*
Y68446D02*
D03*
X22216Y-96246D02*
D03*
Y-89553D02*
D03*
X22287Y1242D02*
D03*
Y7935D02*
D03*
X22387Y99842D02*
D03*
Y106535D02*
D03*
X-19839Y1642D02*
D03*
Y8335D02*
D03*
X-19739Y100242D02*
D03*
Y106934D02*
D03*
X-19911Y-96246D02*
D03*
Y-89553D02*
D03*
D21*
X93247Y-96246D02*
D03*
Y-89553D02*
D03*
X89900D02*
D03*
Y-96246D02*
D03*
X96593Y-89553D02*
D03*
Y-96246D02*
D03*
X86554D02*
D03*
Y-89553D02*
D03*
X92873Y-134747D02*
D03*
Y-128053D02*
D03*
X89527D02*
D03*
Y-134747D02*
D03*
X96220Y-128053D02*
D03*
Y-134747D02*
D03*
X86180D02*
D03*
Y-128053D02*
D03*
X53600Y-96246D02*
D03*
Y-89553D02*
D03*
X50253D02*
D03*
Y-96246D02*
D03*
X56946Y-89553D02*
D03*
Y-96246D02*
D03*
X46907D02*
D03*
Y-89553D02*
D03*
X53673Y-134747D02*
D03*
Y-128053D02*
D03*
X50327D02*
D03*
Y-134747D02*
D03*
X57020Y-128053D02*
D03*
Y-134747D02*
D03*
X46980D02*
D03*
Y-128053D02*
D03*
X14800Y-134747D02*
D03*
Y-128053D02*
D03*
X11453D02*
D03*
Y-134747D02*
D03*
X18146Y-128053D02*
D03*
Y-134747D02*
D03*
X8107D02*
D03*
Y-128053D02*
D03*
X-27054Y-134747D02*
D03*
Y-128053D02*
D03*
X-30400D02*
D03*
Y-134747D02*
D03*
X-23707Y-128053D02*
D03*
Y-134747D02*
D03*
X-33746D02*
D03*
Y-128053D02*
D03*
X93318Y1654D02*
D03*
Y8347D02*
D03*
X89972D02*
D03*
Y1654D02*
D03*
X96665Y8347D02*
D03*
Y1654D02*
D03*
X86625D02*
D03*
Y8347D02*
D03*
X92945Y-36847D02*
D03*
Y-30154D02*
D03*
X89598D02*
D03*
Y-36847D02*
D03*
X96291Y-30154D02*
D03*
Y-36847D02*
D03*
X86252D02*
D03*
Y-30154D02*
D03*
X53672Y1142D02*
D03*
Y7835D02*
D03*
X50325D02*
D03*
Y1142D02*
D03*
X57018Y7835D02*
D03*
Y1142D02*
D03*
X46979D02*
D03*
Y7835D02*
D03*
X53745Y-36847D02*
D03*
Y-30154D02*
D03*
X50398D02*
D03*
Y-36847D02*
D03*
X57091Y-30154D02*
D03*
Y-36847D02*
D03*
X47052D02*
D03*
Y-30154D02*
D03*
X14872Y-36847D02*
D03*
Y-30154D02*
D03*
X11525D02*
D03*
Y-36847D02*
D03*
X18218Y-30154D02*
D03*
Y-36847D02*
D03*
X8179D02*
D03*
Y-30154D02*
D03*
X-26982Y-36847D02*
D03*
Y-30154D02*
D03*
X-30328D02*
D03*
Y-36847D02*
D03*
X-23635Y-30154D02*
D03*
Y-36847D02*
D03*
X-33675D02*
D03*
Y-30154D02*
D03*
X93418Y100253D02*
D03*
Y106947D02*
D03*
X90072D02*
D03*
Y100253D02*
D03*
X96765Y106947D02*
D03*
Y100253D02*
D03*
X86725D02*
D03*
Y106947D02*
D03*
X93045Y61753D02*
D03*
Y68446D02*
D03*
X89698D02*
D03*
Y61753D02*
D03*
X96391Y68446D02*
D03*
Y61753D02*
D03*
X86352D02*
D03*
Y68446D02*
D03*
X53772Y100253D02*
D03*
Y106947D02*
D03*
X50425D02*
D03*
Y100253D02*
D03*
X57118Y106947D02*
D03*
Y100253D02*
D03*
X47079D02*
D03*
Y106947D02*
D03*
X53845Y61753D02*
D03*
Y68446D02*
D03*
X50498D02*
D03*
Y61753D02*
D03*
X57191Y68446D02*
D03*
Y61753D02*
D03*
X47152D02*
D03*
Y68446D02*
D03*
X14972Y61753D02*
D03*
Y68446D02*
D03*
X11625D02*
D03*
Y61753D02*
D03*
X18318Y68446D02*
D03*
Y61753D02*
D03*
X8279D02*
D03*
Y68446D02*
D03*
X-26882Y61753D02*
D03*
Y68446D02*
D03*
X-30228D02*
D03*
Y61753D02*
D03*
X-23535Y68446D02*
D03*
Y61753D02*
D03*
X-33575D02*
D03*
Y68446D02*
D03*
X14873Y-96246D02*
D03*
Y-89553D02*
D03*
X11527D02*
D03*
Y-96246D02*
D03*
X18220Y-89553D02*
D03*
Y-96246D02*
D03*
X8180D02*
D03*
Y-89553D02*
D03*
X14945Y1242D02*
D03*
Y7935D02*
D03*
X11598D02*
D03*
Y1242D02*
D03*
X18291Y7935D02*
D03*
Y1242D02*
D03*
X8252D02*
D03*
Y7935D02*
D03*
X15045Y99842D02*
D03*
Y106535D02*
D03*
X11698D02*
D03*
Y99842D02*
D03*
X18391Y106535D02*
D03*
Y99842D02*
D03*
X8352D02*
D03*
Y106535D02*
D03*
X-27182Y1642D02*
D03*
Y8335D02*
D03*
X-30528D02*
D03*
Y1642D02*
D03*
X-23835Y8335D02*
D03*
Y1642D02*
D03*
X-33875D02*
D03*
Y8335D02*
D03*
X-27082Y100242D02*
D03*
Y106934D02*
D03*
X-30428D02*
D03*
Y100242D02*
D03*
X-23735Y106934D02*
D03*
Y100242D02*
D03*
X-33775D02*
D03*
Y106934D02*
D03*
X-27254Y-96246D02*
D03*
Y-89553D02*
D03*
X-30600D02*
D03*
Y-96246D02*
D03*
X-23907Y-89553D02*
D03*
Y-96246D02*
D03*
X-33946D02*
D03*
Y-89553D02*
D03*
D22*
X82617Y-88176D02*
D03*
X82243Y-126676D02*
D03*
X42970Y-88176D02*
D03*
X43043Y-126676D02*
D03*
X4170D02*
D03*
X-37683D02*
D03*
X82688Y9724D02*
D03*
X82315Y-28776D02*
D03*
X43042Y9212D02*
D03*
X43115Y-28776D02*
D03*
X4242D02*
D03*
X-37612D02*
D03*
X82788Y108324D02*
D03*
X82415Y69824D02*
D03*
X43142Y108324D02*
D03*
X43215Y69824D02*
D03*
X4342D02*
D03*
X-37512D02*
D03*
X4243Y-88176D02*
D03*
X4315Y9312D02*
D03*
X4415Y107912D02*
D03*
X-37812Y9712D02*
D03*
X-37712Y108312D02*
D03*
X-37883Y-88176D02*
D03*
D23*
X82617Y-95262D02*
D03*
X82243Y-133762D02*
D03*
X42970Y-95262D02*
D03*
X43043Y-133762D02*
D03*
X4170D02*
D03*
X-37683D02*
D03*
X82688Y2638D02*
D03*
X82315Y-35862D02*
D03*
X43042Y2126D02*
D03*
X43115Y-35862D02*
D03*
X4242D02*
D03*
X-37612D02*
D03*
X82788Y101238D02*
D03*
X82415Y62738D02*
D03*
X43142Y101238D02*
D03*
X43215Y62738D02*
D03*
X4342D02*
D03*
X-37512D02*
D03*
X4243Y-95262D02*
D03*
X4315Y2226D02*
D03*
X4415Y100826D02*
D03*
X-37812Y2626D02*
D03*
X-37712Y101226D02*
D03*
X-37883Y-95262D02*
D03*
D24*
X136831Y-3446D02*
D03*
X169508D02*
D03*
X136161Y-97100D02*
D03*
X168839D02*
D03*
X137131Y91954D02*
D03*
X169808D02*
D03*
D25*
X138300Y-131939D02*
D03*
Y-124261D02*
D03*
X139600Y-30561D02*
D03*
Y-38239D02*
D03*
X138200Y63639D02*
D03*
Y55961D02*
D03*
X121600Y166561D02*
D03*
Y174239D02*
D03*
X114935Y166561D02*
D03*
Y174239D02*
D03*
X141600Y154989D02*
D03*
Y147311D02*
D03*
X161600Y154989D02*
D03*
Y147311D02*
D03*
X171600Y154989D02*
D03*
Y147311D02*
D03*
X148800Y63750D02*
D03*
Y56072D02*
D03*
X158700Y63450D02*
D03*
Y55773D02*
D03*
X-71572Y63787D02*
D03*
Y71464D02*
D03*
X-85572D02*
D03*
Y63787D02*
D03*
X-78572D02*
D03*
Y71464D02*
D03*
X-73068Y-34946D02*
D03*
Y-27268D02*
D03*
X-87068Y-34946D02*
D03*
Y-27268D02*
D03*
X-80068Y-34946D02*
D03*
Y-27268D02*
D03*
X147900Y-30761D02*
D03*
Y-38439D02*
D03*
X158100Y-30661D02*
D03*
Y-38339D02*
D03*
X-225500Y-88211D02*
D03*
Y-95889D02*
D03*
X-189500Y-86961D02*
D03*
Y-94639D02*
D03*
X-182750Y-86961D02*
D03*
Y-94639D02*
D03*
X146700Y-124257D02*
D03*
Y-131934D02*
D03*
X156600Y-124461D02*
D03*
Y-132139D02*
D03*
X-71850Y-124761D02*
D03*
Y-132439D02*
D03*
X-78850Y-124761D02*
D03*
Y-132439D02*
D03*
X-85850D02*
D03*
Y-124761D02*
D03*
X-268300Y59761D02*
D03*
Y67439D02*
D03*
X-71722Y91137D02*
D03*
Y98814D02*
D03*
X-78472Y85314D02*
D03*
Y77637D02*
D03*
X-85222Y85314D02*
D03*
Y77637D02*
D03*
X-78472Y98814D02*
D03*
Y91137D02*
D03*
X-85222D02*
D03*
Y98814D02*
D03*
X-71722Y77637D02*
D03*
Y85314D02*
D03*
X-72000Y-97411D02*
D03*
Y-105089D02*
D03*
X-78750Y-110911D02*
D03*
Y-118589D02*
D03*
X-85500Y-110911D02*
D03*
Y-118589D02*
D03*
X-78750Y-97411D02*
D03*
Y-105089D02*
D03*
X-85500D02*
D03*
Y-97411D02*
D03*
X-72000Y-118589D02*
D03*
Y-110911D02*
D03*
X-224500Y149839D02*
D03*
Y142161D02*
D03*
X-73218Y-13419D02*
D03*
Y-21096D02*
D03*
X-86718D02*
D03*
Y-13419D02*
D03*
X-79968Y-7596D02*
D03*
Y81D02*
D03*
X-182250Y-13839D02*
D03*
Y-6161D02*
D03*
X-231750Y-15089D02*
D03*
Y-7411D02*
D03*
X-225000Y-15089D02*
D03*
Y-7411D02*
D03*
X-189000Y-13839D02*
D03*
Y-6161D02*
D03*
X-73218Y-7596D02*
D03*
Y81D02*
D03*
X-79968Y-13419D02*
D03*
Y-21096D02*
D03*
X-86718Y-7596D02*
D03*
Y81D02*
D03*
X-182250Y88839D02*
D03*
Y81161D02*
D03*
X-231750Y87589D02*
D03*
Y79911D02*
D03*
X-225000Y87589D02*
D03*
Y79911D02*
D03*
X-189000Y88839D02*
D03*
Y81161D02*
D03*
D26*
X-183183Y-127161D02*
D03*
Y-129720D02*
D03*
Y-134839D02*
D03*
Y-132280D02*
D03*
X-206017D02*
D03*
Y-134839D02*
D03*
Y-129720D02*
D03*
Y-127161D02*
D03*
X-205256Y-46361D02*
D03*
Y-48921D02*
D03*
Y-54039D02*
D03*
Y-51480D02*
D03*
X-182421D02*
D03*
Y-54039D02*
D03*
Y-48921D02*
D03*
Y-46361D02*
D03*
X-182721Y48639D02*
D03*
Y46079D02*
D03*
Y40961D02*
D03*
Y43521D02*
D03*
X-205556D02*
D03*
Y40961D02*
D03*
Y46079D02*
D03*
Y48639D02*
D03*
D27*
X-201300Y116250D02*
D03*
Y122550D02*
D03*
D28*
X-208000Y118428D02*
D03*
Y121972D02*
D03*
X-43028Y65728D02*
D03*
Y69272D02*
D03*
X-43628Y103628D02*
D03*
Y107172D02*
D03*
X-1628Y65628D02*
D03*
Y69172D02*
D03*
Y103828D02*
D03*
Y107372D02*
D03*
X37372Y65728D02*
D03*
Y69272D02*
D03*
X37672Y103028D02*
D03*
Y106572D02*
D03*
X76472Y65428D02*
D03*
Y68972D02*
D03*
X77672Y103628D02*
D03*
Y107172D02*
D03*
X-43128Y-29328D02*
D03*
Y-32872D02*
D03*
X-43728Y8572D02*
D03*
Y5028D02*
D03*
X-1728Y-29428D02*
D03*
Y-32972D02*
D03*
Y8772D02*
D03*
Y5228D02*
D03*
X37272Y-29328D02*
D03*
Y-32872D02*
D03*
X37572Y7972D02*
D03*
Y4428D02*
D03*
X76372Y-29628D02*
D03*
Y-33172D02*
D03*
X77572Y8572D02*
D03*
Y5028D02*
D03*
X76300Y-131072D02*
D03*
Y-127528D02*
D03*
X37200Y-130772D02*
D03*
Y-127228D02*
D03*
X-1800Y-130872D02*
D03*
Y-127328D02*
D03*
X-43200Y-130772D02*
D03*
Y-127228D02*
D03*
X77500Y-92872D02*
D03*
Y-89328D02*
D03*
X37500Y-93472D02*
D03*
Y-89928D02*
D03*
X-1800Y-92672D02*
D03*
Y-89128D02*
D03*
X-43800Y-92872D02*
D03*
Y-89328D02*
D03*
D29*
X165600Y99900D02*
D03*
X143120D02*
D03*
X164680Y4900D02*
D03*
X142200D02*
D03*
X140860Y-88900D02*
D03*
X163340D02*
D03*
Y-105436D02*
D03*
X140860D02*
D03*
X142200Y-11636D02*
D03*
X164680D02*
D03*
X143120Y83364D02*
D03*
X165600D02*
D03*
D30*
X82172Y-83100D02*
D03*
X78628D02*
D03*
X82172Y-79500D02*
D03*
X78628D02*
D03*
X-38757Y76644D02*
D03*
X-42300D02*
D03*
X-38728Y80700D02*
D03*
X-42272D02*
D03*
X-37757Y113544D02*
D03*
X-41300D02*
D03*
X-37828Y117600D02*
D03*
X-41372D02*
D03*
X2143Y76800D02*
D03*
X-1400D02*
D03*
X2143Y80500D02*
D03*
X-1400D02*
D03*
X3943Y113144D02*
D03*
X400D02*
D03*
X3972Y117200D02*
D03*
X428D02*
D03*
X41743Y76000D02*
D03*
X38200D02*
D03*
X41572Y80300D02*
D03*
X38028D02*
D03*
X42943Y113400D02*
D03*
X39400D02*
D03*
X42943Y117000D02*
D03*
X39400D02*
D03*
X81043Y75600D02*
D03*
X77500D02*
D03*
X81272Y79700D02*
D03*
X77728D02*
D03*
X82343Y113400D02*
D03*
X78800D02*
D03*
X82343Y117000D02*
D03*
X78800D02*
D03*
X-1572Y-119700D02*
D03*
X1972D02*
D03*
X-42400Y-21800D02*
D03*
X-38857D02*
D03*
X-42400Y-17900D02*
D03*
X-38857D02*
D03*
X-41400Y14944D02*
D03*
X-37857D02*
D03*
X-41472Y19000D02*
D03*
X-37928D02*
D03*
X-1500Y-21800D02*
D03*
X2043D02*
D03*
X-1500Y-18100D02*
D03*
X2043D02*
D03*
X300Y14544D02*
D03*
X3843D02*
D03*
X328Y18600D02*
D03*
X3872D02*
D03*
X38100Y-22600D02*
D03*
X41643D02*
D03*
X38000Y-18300D02*
D03*
X41543D02*
D03*
X39300Y14444D02*
D03*
X42843D02*
D03*
X39228Y18500D02*
D03*
X42772D02*
D03*
X77400Y-23000D02*
D03*
X80943D02*
D03*
X77600Y-19000D02*
D03*
X81143D02*
D03*
X78700Y14800D02*
D03*
X82243D02*
D03*
X78700Y18400D02*
D03*
X82243D02*
D03*
X80872Y-120900D02*
D03*
X77328D02*
D03*
X81072Y-116900D02*
D03*
X77528D02*
D03*
X41572Y-120500D02*
D03*
X38028D02*
D03*
X41472Y-116200D02*
D03*
X37928D02*
D03*
X1972Y-116000D02*
D03*
X-1572D02*
D03*
X-38928Y-119700D02*
D03*
X-42472D02*
D03*
X-38928Y-115800D02*
D03*
X-42472D02*
D03*
X39228Y-79500D02*
D03*
X42772D02*
D03*
X39228Y-83100D02*
D03*
X42772D02*
D03*
X228Y-79300D02*
D03*
X3772D02*
D03*
X228Y-83000D02*
D03*
X3772D02*
D03*
X-41572Y-78900D02*
D03*
X-38028D02*
D03*
X-41472Y-82600D02*
D03*
X-37928D02*
D03*
D31*
X-154100Y-106487D02*
D03*
Y-117313D02*
D03*
Y-91463D02*
D03*
Y-80637D02*
D03*
Y-54787D02*
D03*
Y-65613D02*
D03*
Y-39763D02*
D03*
Y-28937D02*
D03*
Y-3087D02*
D03*
Y-13913D02*
D03*
Y11937D02*
D03*
Y22763D02*
D03*
Y48613D02*
D03*
Y37787D02*
D03*
Y63637D02*
D03*
Y74463D02*
D03*
Y100313D02*
D03*
Y89487D02*
D03*
X-140568Y-106287D02*
D03*
Y-117113D02*
D03*
X-141000Y-91301D02*
D03*
Y-80474D02*
D03*
Y-54662D02*
D03*
Y-65488D02*
D03*
Y-39676D02*
D03*
Y-28849D02*
D03*
Y-3037D02*
D03*
Y-13863D02*
D03*
Y11949D02*
D03*
Y22776D02*
D03*
Y48588D02*
D03*
Y37762D02*
D03*
Y63574D02*
D03*
Y74401D02*
D03*
Y100213D02*
D03*
Y89387D02*
D03*
X-114835Y100613D02*
D03*
Y89787D02*
D03*
X-114900Y63924D02*
D03*
Y74751D02*
D03*
Y48888D02*
D03*
Y38062D02*
D03*
Y12199D02*
D03*
Y23026D02*
D03*
Y-2837D02*
D03*
Y-13663D02*
D03*
Y-39526D02*
D03*
Y-28699D02*
D03*
Y-54562D02*
D03*
Y-65388D02*
D03*
Y-91251D02*
D03*
Y-80424D02*
D03*
X-127968Y22926D02*
D03*
Y12099D02*
D03*
Y-13763D02*
D03*
Y-2937D02*
D03*
Y74651D02*
D03*
Y63824D02*
D03*
X-127867Y89687D02*
D03*
Y100513D02*
D03*
X-127968Y37962D02*
D03*
Y48788D02*
D03*
X-114503Y-117113D02*
D03*
Y-106287D02*
D03*
X-127968Y-65488D02*
D03*
Y-54662D02*
D03*
Y-28799D02*
D03*
Y-39626D02*
D03*
Y-80524D02*
D03*
Y-91351D02*
D03*
X-127535Y-117213D02*
D03*
Y-106387D02*
D03*
D32*
X-214661Y122900D02*
D03*
X-214561Y130460D02*
D03*
X-230561Y132200D02*
D03*
X-222239Y130460D02*
D03*
X-222539Y115180D02*
D03*
X-228861Y124900D02*
D03*
X-245861Y150800D02*
D03*
X-222339Y122900D02*
D03*
X-209361Y107620D02*
D03*
X-214861Y115180D02*
D03*
X-238239Y132200D02*
D03*
X-253539Y150800D02*
D03*
X148261Y-117327D02*
D03*
X155939D02*
D03*
X157339Y-23527D02*
D03*
X149661D02*
D03*
X150861Y71473D02*
D03*
X158539D02*
D03*
X114511Y180400D02*
D03*
X122189D02*
D03*
X-183161Y-102800D02*
D03*
X-190839D02*
D03*
X-201911D02*
D03*
X-209589D02*
D03*
X-209089Y-22000D02*
D03*
Y73000D02*
D03*
X-77784Y56326D02*
D03*
X-85461D02*
D03*
X-78061Y-139900D02*
D03*
X-85739D02*
D03*
X-217039Y107620D02*
D03*
X-201411Y-22000D02*
D03*
X-190339D02*
D03*
X-182661D02*
D03*
X-232589Y0D02*
D03*
X-224911D02*
D03*
X-79280Y-42407D02*
D03*
X-86957D02*
D03*
X-201411Y73000D02*
D03*
X-182661D02*
D03*
X-190339D02*
D03*
X-224911Y95000D02*
D03*
X-232589D02*
D03*
X-236539Y124900D02*
D03*
D33*
X141600Y167650D02*
D03*
X161600D02*
D03*
X151600Y179150D02*
D03*
X131600D02*
D03*
D34*
X171600D02*
D03*
D35*
X141539Y138850D02*
D03*
X171550Y138461D02*
D03*
X161539Y138600D02*
D03*
X-263800Y48811D02*
D03*
X-255800Y93061D02*
D03*
X-217600Y99849D02*
D03*
D36*
X185800Y-138100D02*
D03*
X-202800Y178965D02*
D03*
X163100Y-170800D02*
D03*
X-71500Y179365D02*
D03*
X185400Y-40700D02*
D03*
X185802Y55700D02*
D03*
D37*
X-215840Y-88211D02*
D03*
Y-90770D02*
D03*
Y-93330D02*
D03*
Y-95889D02*
D03*
X-198911Y-88211D02*
D03*
Y-90770D02*
D03*
Y-93330D02*
D03*
Y-95889D02*
D03*
D38*
X-232250Y-95889D02*
D03*
Y-88211D02*
D03*
X-255500Y107089D02*
D03*
Y99411D02*
D03*
X-262250Y107089D02*
D03*
Y99411D02*
D03*
X-285250Y85161D02*
D03*
Y92839D02*
D03*
D39*
X-225287Y-80676D02*
D03*
X-232964D02*
D03*
D40*
X-219454Y-126300D02*
D03*
X-213746D02*
D03*
X-219454Y-131500D02*
D03*
X-213746D02*
D03*
X-218693Y-50700D02*
D03*
X-212984D02*
D03*
X-218693Y-45500D02*
D03*
X-212984D02*
D03*
X-218993Y49500D02*
D03*
X-213284D02*
D03*
X-218993Y44300D02*
D03*
X-213284D02*
D03*
X-273396Y88500D02*
D03*
X-279104D02*
D03*
X-273396Y105000D02*
D03*
X-279104D02*
D03*
D41*
X-220957Y-102800D02*
D03*
X-228043D02*
D03*
X-227543Y-22000D02*
D03*
X-220457D02*
D03*
Y73000D02*
D03*
X-227543D02*
D03*
D42*
X-249500Y100600D02*
D03*
Y106900D02*
D03*
D43*
X-285947Y-37402D02*
D03*
Y-33465D02*
D03*
Y-25591D02*
D03*
Y-29528D02*
D03*
Y-17717D02*
D03*
Y-21654D02*
D03*
Y37402D02*
D03*
Y-13780D02*
D03*
Y-1969D02*
D03*
Y-5906D02*
D03*
Y5906D02*
D03*
Y9843D02*
D03*
Y1969D02*
D03*
Y17717D02*
D03*
Y21654D02*
D03*
Y13780D02*
D03*
Y29528D02*
D03*
Y33465D02*
D03*
Y25591D02*
D03*
D44*
X-255750Y80293D02*
D03*
Y73207D02*
D03*
D45*
X-268500Y82896D02*
D03*
Y88604D02*
D03*
X-268250Y105104D02*
D03*
Y99396D02*
D03*
D46*
X-279000Y100677D02*
D03*
X-276382D02*
D03*
X-273823D02*
D03*
Y93000D02*
D03*
X-276382D02*
D03*
X-279000D02*
D03*
D47*
X-276382Y96839D02*
D03*
D48*
X-215465Y-7411D02*
D03*
Y-9970D02*
D03*
Y-12530D02*
D03*
Y-15089D02*
D03*
X-198535Y-7411D02*
D03*
Y-9970D02*
D03*
Y-12530D02*
D03*
Y-15089D02*
D03*
Y79911D02*
D03*
Y82470D02*
D03*
Y85030D02*
D03*
Y87589D02*
D03*
X-215465Y79911D02*
D03*
Y82470D02*
D03*
Y85030D02*
D03*
Y87589D02*
D03*
M02*
