G04*
G04 #@! TF.GenerationSoftware,Altium Limited,Altium Designer,22.9.1 (49)*
G04*
G04 Layer_Color=128*
%FSLAX25Y25*%
%MOIN*%
G70*
G04*
G04 #@! TF.SameCoordinates,3BA43B4F-DC3F-4A8D-A033-658DE37FB2C5*
G04*
G04*
G04 #@! TF.FilePolarity,Positive*
G04*
G01*
G75*
%ADD11C,0.01000*%
%ADD25R,0.05000X0.03740*%
%ADD31R,0.09803X0.05803*%
%ADD32R,0.03740X0.05000*%
%ADD38R,0.05197X0.03937*%
%ADD39R,0.03937X0.05197*%
%ADD40R,0.02953X0.03740*%
%ADD41R,0.02953X0.05315*%
%ADD43R,0.10500X0.01799*%
%ADD45R,0.03740X0.02953*%
%ADD129R,0.18898X0.18583*%
%ADD130R,0.05512X0.05000*%
%ADD131R,0.03543X0.02362*%
%ADD132R,0.07087X0.06693*%
%ADD133R,0.01968X0.06299*%
%ADD136R,0.07480X0.07284*%
%ADD138C,0.01000*%
%ADD139C,0.01378*%
%ADD143R,0.01378X0.01673*%
%ADD144R,0.01378X0.01673*%
%ADD159R,0.02165X0.02953*%
%ADD160R,0.10118X0.13622*%
%ADD161O,0.07803X0.02203*%
%ADD162R,0.02953X0.02165*%
G36*
X153548Y11553D02*
X152276D01*
X152231Y11779D01*
X151912Y12099D01*
X151460D01*
X151140Y11779D01*
X151095Y11553D01*
X147052D01*
Y18247D01*
X153548D01*
Y11553D01*
D02*
G37*
D11*
X233900Y195000D02*
X233900Y-195000D01*
X-296000Y-67815D02*
Y67815D01*
Y195000D02*
X233900D01*
X-296000Y-195000D02*
X-296000Y195000D01*
X-296000Y-195000D02*
X233900D01*
D25*
X127500Y-102239D02*
D03*
Y-94561D02*
D03*
X127600Y-116239D02*
D03*
Y-108561D02*
D03*
X91000Y-151324D02*
D03*
Y-143647D02*
D03*
X-90940Y-107789D02*
D03*
Y-100111D02*
D03*
X-98600Y-100261D02*
D03*
Y-107939D02*
D03*
X91172Y45176D02*
D03*
Y52853D02*
D03*
X67352Y45176D02*
D03*
Y52853D02*
D03*
X43532Y45176D02*
D03*
Y52853D02*
D03*
X19712Y45176D02*
D03*
Y52853D02*
D03*
X-4108D02*
D03*
Y45176D02*
D03*
X-27928D02*
D03*
Y52853D02*
D03*
X67180Y-143647D02*
D03*
Y-151324D02*
D03*
X-208400Y123139D02*
D03*
Y115461D02*
D03*
X127100Y-3439D02*
D03*
Y4239D02*
D03*
Y-17539D02*
D03*
Y-9861D02*
D03*
X127200Y101539D02*
D03*
Y93861D02*
D03*
X127100Y87039D02*
D03*
Y79361D02*
D03*
X161600Y163061D02*
D03*
Y170739D02*
D03*
X171600Y163061D02*
D03*
Y170739D02*
D03*
Y154989D02*
D03*
Y147311D02*
D03*
X161600Y154989D02*
D03*
Y147311D02*
D03*
X141600Y154989D02*
D03*
Y147311D02*
D03*
Y163061D02*
D03*
Y170739D02*
D03*
X-49044Y73064D02*
D03*
Y65387D02*
D03*
X-50540Y-25668D02*
D03*
Y-33346D02*
D03*
X-28028Y-45747D02*
D03*
Y-53424D02*
D03*
X-4208D02*
D03*
Y-45747D02*
D03*
X19612D02*
D03*
Y-53424D02*
D03*
X43432Y-45747D02*
D03*
Y-53424D02*
D03*
X67252Y-45747D02*
D03*
Y-53424D02*
D03*
X91072Y-45747D02*
D03*
Y-53424D02*
D03*
X-200660Y-140139D02*
D03*
Y-132461D02*
D03*
X-193100Y-127161D02*
D03*
Y-134839D02*
D03*
X-90300Y-93161D02*
D03*
Y-85484D02*
D03*
X-49321Y-123161D02*
D03*
Y-130839D02*
D03*
X-191540Y-46561D02*
D03*
Y-54239D02*
D03*
X-199100Y-59539D02*
D03*
Y-51861D02*
D03*
X-199900Y35761D02*
D03*
Y43439D02*
D03*
X-192139Y48439D02*
D03*
Y40761D02*
D03*
X-90022Y103065D02*
D03*
Y110742D02*
D03*
X-90662Y88437D02*
D03*
Y96114D02*
D03*
X-98322Y88287D02*
D03*
Y95964D02*
D03*
X-28100Y-143647D02*
D03*
Y-151324D02*
D03*
X-4280Y-143647D02*
D03*
Y-151324D02*
D03*
X19540Y-143647D02*
D03*
Y-151324D02*
D03*
X43360Y-143647D02*
D03*
Y-151324D02*
D03*
X168100Y18539D02*
D03*
Y10861D02*
D03*
X-266400Y145039D02*
D03*
Y137361D02*
D03*
X-91518Y12009D02*
D03*
Y4332D02*
D03*
X-92158Y-2619D02*
D03*
Y-10296D02*
D03*
X-265000Y-17911D02*
D03*
Y-25589D02*
D03*
X-224250Y-6161D02*
D03*
Y-13839D02*
D03*
X-215500D02*
D03*
Y-6161D02*
D03*
X-194750D02*
D03*
Y-13839D02*
D03*
X-202250D02*
D03*
Y-6161D02*
D03*
X-99818Y-2768D02*
D03*
Y-10446D02*
D03*
X127350Y18739D02*
D03*
Y11061D02*
D03*
X134100Y18739D02*
D03*
Y11061D02*
D03*
X160650Y18439D02*
D03*
Y10761D02*
D03*
X-265000Y-38089D02*
D03*
Y-30411D02*
D03*
X-258000Y-5589D02*
D03*
Y2089D02*
D03*
X-202250Y88839D02*
D03*
Y81161D02*
D03*
X-194750D02*
D03*
Y88839D02*
D03*
X-215500D02*
D03*
Y81161D02*
D03*
X-224250D02*
D03*
Y88839D02*
D03*
X-265000Y-5589D02*
D03*
Y2089D02*
D03*
Y7161D02*
D03*
Y14839D02*
D03*
D31*
X-127768Y-80674D02*
D03*
Y-91501D02*
D03*
Y-65588D02*
D03*
Y-54762D02*
D03*
X-114735Y89687D02*
D03*
Y100513D02*
D03*
Y37962D02*
D03*
Y48788D02*
D03*
Y74651D02*
D03*
Y63824D02*
D03*
Y22926D02*
D03*
Y12099D02*
D03*
X-127768Y89687D02*
D03*
Y100513D02*
D03*
X-114735Y-65588D02*
D03*
Y-54762D02*
D03*
X-140800Y12099D02*
D03*
Y22926D02*
D03*
X-153900Y-54762D02*
D03*
Y-65588D02*
D03*
Y12099D02*
D03*
Y22926D02*
D03*
Y100513D02*
D03*
Y89687D02*
D03*
X-140800Y-54762D02*
D03*
Y-65588D02*
D03*
Y100513D02*
D03*
Y89687D02*
D03*
X-127768Y22926D02*
D03*
Y12099D02*
D03*
X-153900Y-91501D02*
D03*
Y-80674D02*
D03*
Y-106387D02*
D03*
Y-117213D02*
D03*
Y-39676D02*
D03*
Y-28849D02*
D03*
Y-2937D02*
D03*
Y-13763D02*
D03*
Y48788D02*
D03*
Y37962D02*
D03*
Y63824D02*
D03*
Y74651D02*
D03*
X-140800Y-106387D02*
D03*
Y-117213D02*
D03*
Y-91501D02*
D03*
Y-80674D02*
D03*
Y-2937D02*
D03*
Y-13763D02*
D03*
Y-39676D02*
D03*
Y-28849D02*
D03*
Y48788D02*
D03*
Y37962D02*
D03*
Y63824D02*
D03*
Y74651D02*
D03*
X-127768Y-28849D02*
D03*
Y-39676D02*
D03*
Y-13763D02*
D03*
Y-2937D02*
D03*
X-114735Y-117213D02*
D03*
Y-106387D02*
D03*
Y-80674D02*
D03*
Y-91501D02*
D03*
Y-2937D02*
D03*
Y-13763D02*
D03*
Y-39676D02*
D03*
Y-28849D02*
D03*
X-127768Y48788D02*
D03*
Y37962D02*
D03*
Y63824D02*
D03*
Y74651D02*
D03*
Y-106387D02*
D03*
Y-117213D02*
D03*
D32*
X149561Y-101000D02*
D03*
X157239D02*
D03*
X144639Y-155200D02*
D03*
X136961D02*
D03*
X144839Y-148200D02*
D03*
X137161D02*
D03*
X138561Y-54565D02*
D03*
X146239D02*
D03*
X138361Y-61565D02*
D03*
X146039D02*
D03*
X147439Y40135D02*
D03*
X139761D02*
D03*
X147239Y33135D02*
D03*
X139561D02*
D03*
X-231361Y132900D02*
D03*
X-239039D02*
D03*
X-239139Y125000D02*
D03*
X-231461D02*
D03*
X-214561Y123500D02*
D03*
X157639Y-7300D02*
D03*
X149961D02*
D03*
X158939Y86800D02*
D03*
X151261D02*
D03*
X-178161Y59500D02*
D03*
X-185839D02*
D03*
X-59684Y66126D02*
D03*
X-67361D02*
D03*
X-65884Y116926D02*
D03*
X-73561D02*
D03*
X-68857Y-32607D02*
D03*
X-61180D02*
D03*
X-67380Y18193D02*
D03*
X-75057D02*
D03*
X-177561Y-34800D02*
D03*
X-185239D02*
D03*
X-215267Y-141100D02*
D03*
X-207590D02*
D03*
X-186170Y-125700D02*
D03*
X-178493D02*
D03*
X-186170Y-136600D02*
D03*
X-178493D02*
D03*
X-186039Y-115800D02*
D03*
X-178361D02*
D03*
X-66161Y-79300D02*
D03*
X-73839D02*
D03*
X-67639Y-130100D02*
D03*
X-59961D02*
D03*
X-213977Y-60300D02*
D03*
X-206300D02*
D03*
X-184610Y-55800D02*
D03*
X-176933D02*
D03*
X-184610Y-44900D02*
D03*
X-176933D02*
D03*
X-185977Y50100D02*
D03*
X-178300D02*
D03*
X-185777Y39200D02*
D03*
X-178100D02*
D03*
X-214507Y34700D02*
D03*
X-206830D02*
D03*
X-222239Y123500D02*
D03*
X-209089Y-22000D02*
D03*
X-215661D02*
D03*
Y73000D02*
D03*
X-209089D02*
D03*
X-233239Y163900D02*
D03*
X-225561D02*
D03*
X-224839Y8000D02*
D03*
X-217161D02*
D03*
X-223339Y-22000D02*
D03*
X-201411D02*
D03*
X-217223Y915D02*
D03*
X-224900D02*
D03*
Y95915D02*
D03*
X-217223D02*
D03*
X-201411Y73000D02*
D03*
X-223339D02*
D03*
X-224839Y103000D02*
D03*
X-217161D02*
D03*
X-258661Y38500D02*
D03*
X-266339D02*
D03*
X-253339Y22750D02*
D03*
X-245661D02*
D03*
X-257539Y132300D02*
D03*
X-249861D02*
D03*
X-266339Y22750D02*
D03*
X-258661D02*
D03*
X-266339Y29500D02*
D03*
X-258661D02*
D03*
D38*
X-224626Y-94514D02*
D03*
Y-86837D02*
D03*
X-215876D02*
D03*
Y-94514D02*
D03*
X-202626Y-86837D02*
D03*
Y-94514D02*
D03*
X-195126D02*
D03*
Y-86837D02*
D03*
D39*
X-225214Y-72676D02*
D03*
X-217537D02*
D03*
X-225276Y-79761D02*
D03*
X-217599D02*
D03*
X-223714Y-102676D02*
D03*
X-216037D02*
D03*
X-201787D02*
D03*
X-209464D02*
D03*
D40*
X157154Y-153400D02*
D03*
X151446D02*
D03*
X157254Y-147700D02*
D03*
X151546D02*
D03*
X152946Y-54065D02*
D03*
X158654D02*
D03*
X152846Y-59765D02*
D03*
X158554D02*
D03*
X154146Y40635D02*
D03*
X159854D02*
D03*
X154046Y34935D02*
D03*
X159754D02*
D03*
D41*
X171743Y-149000D02*
D03*
X164657D02*
D03*
X173143Y-55365D02*
D03*
X166057D02*
D03*
X167257Y39335D02*
D03*
X174343D02*
D03*
X-213557Y-127000D02*
D03*
X-220643D02*
D03*
X-212795Y-46200D02*
D03*
X-219882D02*
D03*
X-213095Y48800D02*
D03*
X-220182D02*
D03*
D43*
X-285947Y33465D02*
D03*
Y-5906D02*
D03*
Y-1969D02*
D03*
Y-13780D02*
D03*
Y1969D02*
D03*
Y-21654D02*
D03*
Y-17717D02*
D03*
Y-29528D02*
D03*
Y-25591D02*
D03*
Y-33465D02*
D03*
Y-37402D02*
D03*
Y5906D02*
D03*
Y13780D02*
D03*
Y9843D02*
D03*
Y17717D02*
D03*
Y25591D02*
D03*
Y21654D02*
D03*
Y29528D02*
D03*
Y37402D02*
D03*
D45*
X-207590Y-132760D02*
D03*
Y-127051D02*
D03*
X-206030Y-51960D02*
D03*
Y-46251D02*
D03*
X-206830Y43040D02*
D03*
Y48748D02*
D03*
D129*
X108446Y-91780D02*
D03*
X108954Y-129794D02*
D03*
X108677Y104720D02*
D03*
X109125Y67620D02*
D03*
X108577Y6120D02*
D03*
X109025Y-30980D02*
D03*
D130*
X104352Y-76800D02*
D03*
X112541D02*
D03*
X113048Y-114814D02*
D03*
X104859D02*
D03*
X104583Y119700D02*
D03*
X112772D02*
D03*
X105031Y82600D02*
D03*
X113220D02*
D03*
X104483Y21100D02*
D03*
X112672D02*
D03*
X113120Y-16000D02*
D03*
X104931D02*
D03*
D131*
X162524Y-126803D02*
D03*
X140476D02*
D03*
X163924Y-33168D02*
D03*
X141876D02*
D03*
X165124Y61532D02*
D03*
X143076D02*
D03*
D132*
X157405Y-117551D02*
D03*
X145595D02*
D03*
X158806Y-23916D02*
D03*
X146994D02*
D03*
X160005Y70784D02*
D03*
X148195D02*
D03*
D133*
X145201Y-136646D02*
D03*
X151500D02*
D03*
X157799D02*
D03*
X146601Y-43010D02*
D03*
X152900D02*
D03*
X159199D02*
D03*
X147801Y51690D02*
D03*
X154100D02*
D03*
X160399D02*
D03*
D136*
X-213400Y133037D02*
D03*
Y150163D02*
D03*
D138*
X150300Y14900D02*
D03*
D139*
X151875Y9880D02*
D03*
X148725D02*
D03*
X151875Y19920D02*
D03*
X148725D02*
D03*
D143*
X148726Y9044D02*
D03*
X151876D02*
D03*
X148726Y20756D02*
D03*
D144*
X151876Y20756D02*
D03*
D159*
X156846Y-94000D02*
D03*
X150154D02*
D03*
X150554Y-300D02*
D03*
X157246D02*
D03*
X151854Y93800D02*
D03*
X158546D02*
D03*
X-81800Y-130200D02*
D03*
X-75107D02*
D03*
X-81522Y66026D02*
D03*
X-74829D02*
D03*
X-83018Y-32707D02*
D03*
X-76325D02*
D03*
D160*
X-245500Y148300D02*
D03*
D161*
X-256500Y140800D02*
D03*
Y145800D02*
D03*
Y150800D02*
D03*
Y155800D02*
D03*
X-234500D02*
D03*
Y150800D02*
D03*
Y145800D02*
D03*
Y140800D02*
D03*
X-80749Y-117154D02*
D03*
Y-122154D02*
D03*
Y-112154D02*
D03*
Y-102154D02*
D03*
Y-107154D02*
D03*
Y-92154D02*
D03*
Y-97154D02*
D03*
Y-87154D02*
D03*
X-58749Y-117154D02*
D03*
Y-122154D02*
D03*
Y-92154D02*
D03*
Y-87154D02*
D03*
Y-107154D02*
D03*
Y-112154D02*
D03*
Y-97154D02*
D03*
Y-102154D02*
D03*
X-58472Y74072D02*
D03*
Y79072D02*
D03*
Y84072D02*
D03*
Y89072D02*
D03*
X-80472D02*
D03*
Y84072D02*
D03*
Y79072D02*
D03*
Y74072D02*
D03*
Y94072D02*
D03*
Y99072D02*
D03*
Y104072D02*
D03*
Y109072D02*
D03*
X-58472D02*
D03*
Y104072D02*
D03*
Y99072D02*
D03*
Y94072D02*
D03*
X-59968Y-24661D02*
D03*
Y-19661D02*
D03*
Y-14661D02*
D03*
Y-9661D02*
D03*
X-81968D02*
D03*
Y-14661D02*
D03*
Y-19661D02*
D03*
Y-24661D02*
D03*
Y-4661D02*
D03*
Y339D02*
D03*
Y5339D02*
D03*
Y10339D02*
D03*
X-59968D02*
D03*
Y5339D02*
D03*
Y339D02*
D03*
Y-4661D02*
D03*
D162*
X171600Y140093D02*
D03*
Y133400D02*
D03*
X161600Y140093D02*
D03*
Y133400D02*
D03*
X141600Y140093D02*
D03*
Y133400D02*
D03*
X-43100Y-132147D02*
D03*
Y-125453D02*
D03*
X-44318Y-27961D02*
D03*
Y-34653D02*
D03*
X-42822Y70772D02*
D03*
Y64079D02*
D03*
X-258000Y13693D02*
D03*
Y7000D02*
D03*
M02*
