G04*
G04 #@! TF.GenerationSoftware,Altium Limited,Altium Designer,22.9.1 (49)*
G04*
G04 Layer_Color=2752767*
%FSLAX25Y25*%
%MOIN*%
G70*
G04*
G04 #@! TF.SameCoordinates,3BA43B4F-DC3F-4A8D-A033-658DE37FB2C5*
G04*
G04*
G04 #@! TF.FilePolarity,Positive*
G04*
G01*
G75*
%ADD11C,0.01000*%
%ADD169C,0.00200*%
%ADD170C,0.00267*%
D11*
X233900Y195000D02*
X233900Y-195000D01*
X-296000Y-67815D02*
Y67815D01*
Y195000D02*
X233900D01*
X-296000Y-195000D02*
X-296000Y195000D01*
X-296000Y-195000D02*
X233900D01*
D169*
X-119201Y-184761D02*
X-120001Y-183161D01*
X-118401D01*
X-119201Y-184761D01*
X-109201D02*
X-110001Y-183161D01*
X-108401D01*
X-109201Y-184761D01*
X-99201D02*
X-100001Y-183161D01*
X-98401D01*
X-99201Y-184761D01*
X-89201D02*
X-90001Y-183161D01*
X-88401D01*
X-89201Y-184761D01*
X-119201Y-174761D02*
X-120001Y-173161D01*
X-118401D01*
X-119201Y-174761D01*
X-109201D02*
X-110001Y-173161D01*
X-108401D01*
X-109201Y-174761D01*
X-99201D02*
X-100001Y-173161D01*
X-98401D01*
X-99201Y-174761D01*
X-89201D02*
X-90001Y-173161D01*
X-88401D01*
X-89201Y-174761D01*
X-119201Y-164761D02*
X-120001Y-163161D01*
X-118401D01*
X-119201Y-164761D01*
X-109201D02*
X-110001Y-163161D01*
X-108401D01*
X-109201Y-164761D01*
X-99201D02*
X-100001Y-163161D01*
X-98401D01*
X-99201Y-164761D01*
X-89201D02*
X-90001Y-163161D01*
X-88401D01*
X-89201Y-164761D01*
X-119201Y-154761D02*
X-120001Y-153161D01*
X-118401D01*
X-119201Y-154761D01*
X-109201D02*
X-110001Y-153161D01*
X-108401D01*
X-109201Y-154761D01*
X-99201D02*
X-100001Y-153161D01*
X-98401D01*
X-99201Y-154761D01*
X-89201D02*
X-90001Y-153161D01*
X-88401D01*
X-89201Y-154761D01*
X-153402D02*
X-154202Y-153161D01*
X-152602D01*
X-153402Y-154761D01*
X-163402D02*
X-164202Y-153161D01*
X-162602D01*
X-163402Y-154761D01*
X-173402D02*
X-174202Y-153161D01*
X-172602D01*
X-173402Y-154761D01*
X-183402D02*
X-184202Y-153161D01*
X-182602D01*
X-183402Y-154761D01*
X-153402Y-164761D02*
X-154202Y-163161D01*
X-152602D01*
X-153402Y-164761D01*
X-163402D02*
X-164202Y-163161D01*
X-162602D01*
X-163402Y-164761D01*
X-173402D02*
X-174202Y-163161D01*
X-172602D01*
X-173402Y-164761D01*
X-183402D02*
X-184202Y-163161D01*
X-182602D01*
X-183402Y-164761D01*
X-153402Y-174761D02*
X-154202Y-173161D01*
X-152602D01*
X-153402Y-174761D01*
X-163402D02*
X-164202Y-173161D01*
X-162602D01*
X-163402Y-174761D01*
X-173402D02*
X-174202Y-173161D01*
X-172602D01*
X-173402Y-174761D01*
X-183402D02*
X-184202Y-173161D01*
X-182602D01*
X-183402Y-174761D01*
X-153402Y-184761D02*
X-154202Y-183161D01*
X-152602D01*
X-153402Y-184761D01*
X-163402D02*
X-164202Y-183161D01*
X-162602D01*
X-163402Y-184761D01*
X-173402D02*
X-174202Y-183161D01*
X-172602D01*
X-173402Y-184761D01*
X-183402D02*
X-184202Y-183161D01*
X-182602D01*
X-183402Y-184761D01*
X-52500Y39600D02*
Y41200D01*
X-50900D01*
Y39600D01*
X-52500D01*
X120098Y-64200D02*
Y-62600D01*
X121698D01*
Y-64200D01*
X120098D01*
X-52500Y-157700D02*
Y-156100D01*
X-50900D01*
Y-157700D01*
X-52500D01*
Y-64600D02*
Y-63000D01*
X-50900D01*
Y-64600D01*
X-52500D01*
X120098Y-157700D02*
Y-156100D01*
X121698D01*
Y-157700D01*
X120098D01*
X-89200Y166901D02*
X-90000Y168501D01*
X-88400D01*
X-89200Y166901D01*
X-99200D02*
X-100000Y168501D01*
X-98400D01*
X-99200Y166901D01*
X-109200D02*
X-110000Y168501D01*
X-108400D01*
X-109200Y166901D01*
X-119200D02*
X-120000Y168501D01*
X-118400D01*
X-119200Y166901D01*
X-89200Y156901D02*
X-90000Y158501D01*
X-88400D01*
X-89200Y156901D01*
X-99200D02*
X-100000Y158501D01*
X-98400D01*
X-99200Y156901D01*
X-109200D02*
X-110000Y158501D01*
X-108400D01*
X-109200Y156901D01*
X-119200D02*
X-120000Y158501D01*
X-118400D01*
X-119200Y156901D01*
X-89200Y146901D02*
X-90000Y148501D01*
X-88400D01*
X-89200Y146901D01*
X-99200D02*
X-100000Y148501D01*
X-98400D01*
X-99200Y146901D01*
X-109200D02*
X-110000Y148501D01*
X-108400D01*
X-109200Y146901D01*
X-119200D02*
X-120000Y148501D01*
X-118400D01*
X-119200Y146901D01*
X-89200Y136901D02*
X-90000Y138501D01*
X-88400D01*
X-89200Y136901D01*
X-99200D02*
X-100000Y138501D01*
X-98400D01*
X-99200Y136901D01*
X-109200D02*
X-110000Y138501D01*
X-108400D01*
X-109200Y136901D01*
X-119200D02*
X-120000Y138501D01*
X-118400D01*
X-119200Y136901D01*
X185802Y76600D02*
X185002Y78200D01*
X186602D01*
X185802Y76600D01*
X195802D02*
X195002Y78200D01*
X196602D01*
X195802Y76600D01*
X205802D02*
X205002Y78200D01*
X206602D01*
X205802Y76600D01*
X215802D02*
X215002Y78200D01*
X216602D01*
X215802Y76600D01*
X185802Y86600D02*
X185002Y88200D01*
X186602D01*
X185802Y86600D01*
X195802D02*
X195002Y88200D01*
X196602D01*
X195802Y86600D01*
X205802D02*
X205002Y88200D01*
X206602D01*
X205802Y86600D01*
X215802D02*
X215002Y88200D01*
X216602D01*
X215802Y86600D01*
X185802Y96600D02*
X185002Y98200D01*
X186602D01*
X185802Y96600D01*
X195802D02*
X195002Y98200D01*
X196602D01*
X195802Y96600D01*
X205802D02*
X205002Y98200D01*
X206602D01*
X205802Y96600D01*
X215802D02*
X215002Y98200D01*
X216602D01*
X215802Y96600D01*
X185802Y106600D02*
X185002Y108200D01*
X186602D01*
X185802Y106600D01*
X195802D02*
X195002Y108200D01*
X196602D01*
X195802Y106600D01*
X205802D02*
X205002Y108200D01*
X206602D01*
X205802Y106600D01*
X215802D02*
X215002Y108200D01*
X216602D01*
X215802Y106600D01*
X185802Y-17200D02*
X185002Y-15600D01*
X186602D01*
X185802Y-17200D01*
X195802D02*
X195002Y-15600D01*
X196602D01*
X195802Y-17200D01*
X205802D02*
X205002Y-15600D01*
X206602D01*
X205802Y-17200D01*
X215802D02*
X215002Y-15600D01*
X216602D01*
X215802Y-17200D01*
X185802Y-7200D02*
X185002Y-5600D01*
X186602D01*
X185802Y-7200D01*
X195802D02*
X195002Y-5600D01*
X196602D01*
X195802Y-7200D01*
X205802D02*
X205002Y-5600D01*
X206602D01*
X205802Y-7200D01*
X215802D02*
X215002Y-5600D01*
X216602D01*
X215802Y-7200D01*
X185802Y2800D02*
X185002Y4400D01*
X186602D01*
X185802Y2800D01*
X195802D02*
X195002Y4400D01*
X196602D01*
X195802Y2800D01*
X205802D02*
X205002Y4400D01*
X206602D01*
X205802Y2800D01*
X215802D02*
X215002Y4400D01*
X216602D01*
X215802Y2800D01*
X185802Y12800D02*
X185002Y14400D01*
X186602D01*
X185802Y12800D01*
X195802D02*
X195002Y14400D01*
X196602D01*
X195802Y12800D01*
X205802D02*
X205002Y14400D01*
X206602D01*
X205802Y12800D01*
X215802D02*
X215002Y14400D01*
X216602D01*
X215802Y12800D01*
X185800Y-108700D02*
X185000Y-107100D01*
X186600D01*
X185800Y-108700D01*
X195800D02*
X195000Y-107100D01*
X196600D01*
X195800Y-108700D01*
X205800D02*
X205000Y-107100D01*
X206600D01*
X205800Y-108700D01*
X215800D02*
X215000Y-107100D01*
X216600D01*
X215800Y-108700D01*
X185800Y-98700D02*
X185000Y-97100D01*
X186600D01*
X185800Y-98700D01*
X195800D02*
X195000Y-97100D01*
X196600D01*
X195800Y-98700D01*
X205800D02*
X205000Y-97100D01*
X206600D01*
X205800Y-98700D01*
X215800D02*
X215000Y-97100D01*
X216600D01*
X215800Y-98700D01*
X185800Y-88700D02*
X185000Y-87100D01*
X186600D01*
X185800Y-88700D01*
X195800D02*
X195000Y-87100D01*
X196600D01*
X195800Y-88700D01*
X205800D02*
X205000Y-87100D01*
X206600D01*
X205800Y-88700D01*
X215800D02*
X215000Y-87100D01*
X216600D01*
X215800Y-88700D01*
X185800Y-78700D02*
X185000Y-77100D01*
X186600D01*
X185800Y-78700D01*
X195800D02*
X195000Y-77100D01*
X196600D01*
X195800Y-78700D01*
X205800D02*
X205000Y-77100D01*
X206600D01*
X205800Y-78700D01*
X215800D02*
X215000Y-77100D01*
X216600D01*
X215800Y-78700D01*
X-183400Y136900D02*
X-184200Y138500D01*
X-182600D01*
X-183400Y136900D01*
X-173400D02*
X-174200Y138500D01*
X-172600D01*
X-173400Y136900D01*
X-163400D02*
X-164200Y138500D01*
X-162600D01*
X-163400Y136900D01*
X-153400D02*
X-154200Y138500D01*
X-152600D01*
X-153400Y136900D01*
X-183400Y146900D02*
X-184200Y148500D01*
X-182600D01*
X-183400Y146900D01*
X-173400D02*
X-174200Y148500D01*
X-172600D01*
X-173400Y146900D01*
X-163400D02*
X-164200Y148500D01*
X-162600D01*
X-163400Y146900D01*
X-153400D02*
X-154200Y148500D01*
X-152600D01*
X-153400Y146900D01*
X-183400Y156900D02*
X-184200Y158500D01*
X-182600D01*
X-183400Y156900D01*
X-173400D02*
X-174200Y158500D01*
X-172600D01*
X-173400Y156900D01*
X-163400D02*
X-164200Y158500D01*
X-162600D01*
X-163400Y156900D01*
X-153400D02*
X-154200Y158500D01*
X-152600D01*
X-153400Y156900D01*
X-183400Y166900D02*
X-184200Y168500D01*
X-182600D01*
X-183400Y166900D01*
X-173400D02*
X-174200Y168500D01*
X-172600D01*
X-173400Y166900D01*
X-163400D02*
X-164200Y168500D01*
X-162600D01*
X-163400Y166900D01*
X-153400D02*
X-154200Y168500D01*
X-152600D01*
X-153400Y166900D01*
X-275800Y126600D02*
X-275400Y127000D01*
X-275000D01*
X-275400Y127400D01*
X-275000Y127800D01*
X-275400D01*
X-275800Y128200D01*
X-276200Y127800D01*
X-276600D01*
X-276200Y127400D01*
X-276600Y127000D01*
X-276200D01*
X-275800Y126600D01*
Y136600D02*
X-275400Y137000D01*
X-275000D01*
X-275400Y137400D01*
X-275000Y137800D01*
X-275400D01*
X-275800Y138200D01*
X-276200Y137800D01*
X-276600D01*
X-276200Y137400D01*
X-276600Y137000D01*
X-276200D01*
X-275800Y136600D01*
X211100Y174200D02*
X211500Y175000D01*
X211100Y175800D01*
X211900Y175400D01*
X212700Y175800D01*
X212300Y175000D01*
X212700Y174200D01*
X211900Y174600D01*
X211100Y174200D01*
Y-175800D02*
X211500Y-175000D01*
X211100Y-174200D01*
X211900Y-174600D01*
X212700Y-174200D01*
X212300Y-175000D01*
X212700Y-175800D01*
X211900Y-175400D01*
X211100Y-175800D01*
X-276800D02*
X-276400Y-175000D01*
X-276800Y-174200D01*
X-276000Y-174600D01*
X-275200Y-174200D01*
X-275600Y-175000D01*
X-275200Y-175800D01*
X-276000Y-175400D01*
X-276800Y-175800D01*
Y174200D02*
X-276400Y175000D01*
X-276800Y175800D01*
X-276000Y175400D01*
X-275200Y175800D01*
X-275600Y175000D01*
X-275200Y174200D01*
X-276000Y174600D01*
X-276800Y174200D01*
X-252750Y57950D02*
X-252350Y58350D01*
X-251950D01*
X-252350Y58750D01*
X-251950Y59150D01*
X-252350D01*
X-252750Y59550D01*
X-253150Y59150D01*
X-253550D01*
X-253150Y58750D01*
X-253550Y58350D01*
X-253150D01*
X-252750Y57950D01*
Y47950D02*
X-252350Y48350D01*
X-251950D01*
X-252350Y48750D01*
X-251950Y49150D01*
X-252350D01*
X-252750Y49550D01*
X-253150Y49150D01*
X-253550D01*
X-253150Y48750D01*
X-253550Y48350D01*
X-253150D01*
X-252750Y47950D01*
X120098Y39600D02*
Y41200D01*
X121698D01*
Y39600D01*
X120098D01*
X120100Y133100D02*
Y134700D01*
X121700D01*
Y133100D01*
X120100D01*
X-52500Y132700D02*
Y134300D01*
X-50900D01*
Y132700D01*
X-52500D01*
D170*
X69815Y-177000D02*
G03*
X69815Y-177000I-800J0D01*
G01*
Y-174100D02*
G03*
X69815Y-174100I-800J0D01*
G01*
X74161Y-175600D02*
G03*
X74161Y-175600I-800J0D01*
G01*
Y-172700D02*
G03*
X74161Y-172700I-800J0D01*
G01*
X82854D02*
G03*
X82854Y-172700I-800J0D01*
G01*
Y-175600D02*
G03*
X82854Y-175600I-800J0D01*
G01*
X52431Y-177000D02*
G03*
X52431Y-177000I-800J0D01*
G01*
Y-174100D02*
G03*
X52431Y-174100I-800J0D01*
G01*
X61123Y-174000D02*
G03*
X61123Y-174000I-800J0D01*
G01*
Y-176900D02*
G03*
X61123Y-176900I-800J0D01*
G01*
X56777Y-175600D02*
G03*
X56777Y-175600I-800J0D01*
G01*
Y-172700D02*
G03*
X56777Y-172700I-800J0D01*
G01*
X65469Y-172800D02*
G03*
X65469Y-172800I-800J0D01*
G01*
Y-175700D02*
G03*
X65469Y-175700I-800J0D01*
G01*
X35046Y-174100D02*
G03*
X35046Y-174100I-800J0D01*
G01*
Y-177000D02*
G03*
X35046Y-177000I-800J0D01*
G01*
X43738Y-174000D02*
G03*
X43738Y-174000I-800J0D01*
G01*
Y-176900D02*
G03*
X43738Y-176900I-800J0D01*
G01*
X39392Y-175600D02*
G03*
X39392Y-175600I-800J0D01*
G01*
Y-172700D02*
G03*
X39392Y-172700I-800J0D01*
G01*
X48085Y-172800D02*
G03*
X48085Y-172800I-800J0D01*
G01*
Y-175700D02*
G03*
X48085Y-175700I-800J0D01*
G01*
X8969Y-177000D02*
G03*
X8969Y-177000I-800J0D01*
G01*
Y-174100D02*
G03*
X8969Y-174100I-800J0D01*
G01*
X17661D02*
G03*
X17661Y-174100I-800J0D01*
G01*
Y-177000D02*
G03*
X17661Y-177000I-800J0D01*
G01*
X26354Y-174000D02*
G03*
X26354Y-174000I-800J0D01*
G01*
Y-176900D02*
G03*
X26354Y-176900I-800J0D01*
G01*
X13315Y-175600D02*
G03*
X13315Y-175600I-800J0D01*
G01*
Y-172700D02*
G03*
X13315Y-172700I-800J0D01*
G01*
X22008Y-175600D02*
G03*
X22008Y-175600I-800J0D01*
G01*
Y-172700D02*
G03*
X22008Y-172700I-800J0D01*
G01*
X30700Y-172800D02*
G03*
X30700Y-172800I-800J0D01*
G01*
Y-175700D02*
G03*
X30700Y-175700I-800J0D01*
G01*
X-8415Y-177000D02*
G03*
X-8415Y-177000I-800J0D01*
G01*
Y-174100D02*
G03*
X-8415Y-174100I-800J0D01*
G01*
X277D02*
G03*
X277Y-174100I-800J0D01*
G01*
Y-177000D02*
G03*
X277Y-177000I-800J0D01*
G01*
X-4069Y-175600D02*
G03*
X-4069Y-175600I-800J0D01*
G01*
Y-172700D02*
G03*
X-4069Y-172700I-800J0D01*
G01*
X4623Y-175600D02*
G03*
X4623Y-175600I-800J0D01*
G01*
Y-172700D02*
G03*
X4623Y-172700I-800J0D01*
G01*
X-25800Y-177000D02*
G03*
X-25800Y-177000I-800J0D01*
G01*
Y-174100D02*
G03*
X-25800Y-174100I-800J0D01*
G01*
X-17108Y-174000D02*
G03*
X-17108Y-174000I-800J0D01*
G01*
Y-176900D02*
G03*
X-17108Y-176900I-800J0D01*
G01*
X-21454Y-175600D02*
G03*
X-21454Y-175600I-800J0D01*
G01*
Y-172700D02*
G03*
X-21454Y-172700I-800J0D01*
G01*
X-12762Y-172800D02*
G03*
X-12762Y-172800I-800J0D01*
G01*
Y-175700D02*
G03*
X-12762Y-175700I-800J0D01*
G01*
X78508Y-176900D02*
G03*
X78508Y-176900I-800J0D01*
G01*
Y-174000D02*
G03*
X78508Y-174000I-800J0D01*
G01*
X87200D02*
G03*
X87200Y-174000I-800J0D01*
G01*
Y-176900D02*
G03*
X87200Y-176900I-800J0D01*
G01*
X66015Y153100D02*
G03*
X66015Y153100I-800J0D01*
G01*
Y156000D02*
G03*
X66015Y156000I-800J0D01*
G01*
X70362Y154500D02*
G03*
X70362Y154500I-800J0D01*
G01*
Y157400D02*
G03*
X70362Y157400I-800J0D01*
G01*
X79054D02*
G03*
X79054Y157400I-800J0D01*
G01*
Y154500D02*
G03*
X79054Y154500I-800J0D01*
G01*
X48631Y153100D02*
G03*
X48631Y153100I-800J0D01*
G01*
Y156000D02*
G03*
X48631Y156000I-800J0D01*
G01*
X57323Y156100D02*
G03*
X57323Y156100I-800J0D01*
G01*
Y153200D02*
G03*
X57323Y153200I-800J0D01*
G01*
X52977Y154500D02*
G03*
X52977Y154500I-800J0D01*
G01*
Y157400D02*
G03*
X52977Y157400I-800J0D01*
G01*
X61669Y157300D02*
G03*
X61669Y157300I-800J0D01*
G01*
Y154400D02*
G03*
X61669Y154400I-800J0D01*
G01*
X31246Y156000D02*
G03*
X31246Y156000I-800J0D01*
G01*
Y153100D02*
G03*
X31246Y153100I-800J0D01*
G01*
X39938Y156100D02*
G03*
X39938Y156100I-800J0D01*
G01*
Y153200D02*
G03*
X39938Y153200I-800J0D01*
G01*
X35592Y154500D02*
G03*
X35592Y154500I-800J0D01*
G01*
Y157400D02*
G03*
X35592Y157400I-800J0D01*
G01*
X44285Y157300D02*
G03*
X44285Y157300I-800J0D01*
G01*
Y154400D02*
G03*
X44285Y154400I-800J0D01*
G01*
X5169Y153100D02*
G03*
X5169Y153100I-800J0D01*
G01*
Y156000D02*
G03*
X5169Y156000I-800J0D01*
G01*
X13861D02*
G03*
X13861Y156000I-800J0D01*
G01*
Y153100D02*
G03*
X13861Y153100I-800J0D01*
G01*
X22554Y156100D02*
G03*
X22554Y156100I-800J0D01*
G01*
Y153200D02*
G03*
X22554Y153200I-800J0D01*
G01*
X9515Y154500D02*
G03*
X9515Y154500I-800J0D01*
G01*
Y157400D02*
G03*
X9515Y157400I-800J0D01*
G01*
X18208Y154500D02*
G03*
X18208Y154500I-800J0D01*
G01*
Y157400D02*
G03*
X18208Y157400I-800J0D01*
G01*
X26900Y157300D02*
G03*
X26900Y157300I-800J0D01*
G01*
Y154400D02*
G03*
X26900Y154400I-800J0D01*
G01*
X-12215Y153100D02*
G03*
X-12215Y153100I-800J0D01*
G01*
Y156000D02*
G03*
X-12215Y156000I-800J0D01*
G01*
X-3523D02*
G03*
X-3523Y156000I-800J0D01*
G01*
Y153100D02*
G03*
X-3523Y153100I-800J0D01*
G01*
X-7869Y154500D02*
G03*
X-7869Y154500I-800J0D01*
G01*
Y157400D02*
G03*
X-7869Y157400I-800J0D01*
G01*
X823Y154500D02*
G03*
X823Y154500I-800J0D01*
G01*
Y157400D02*
G03*
X823Y157400I-800J0D01*
G01*
X-29600Y153100D02*
G03*
X-29600Y153100I-800J0D01*
G01*
Y156000D02*
G03*
X-29600Y156000I-800J0D01*
G01*
X-20908Y156100D02*
G03*
X-20908Y156100I-800J0D01*
G01*
Y153200D02*
G03*
X-20908Y153200I-800J0D01*
G01*
X-25254Y154500D02*
G03*
X-25254Y154500I-800J0D01*
G01*
Y157400D02*
G03*
X-25254Y157400I-800J0D01*
G01*
X-16562Y157300D02*
G03*
X-16562Y157300I-800J0D01*
G01*
Y154400D02*
G03*
X-16562Y154400I-800J0D01*
G01*
X74708Y153200D02*
G03*
X74708Y153200I-800J0D01*
G01*
Y156100D02*
G03*
X74708Y156100I-800J0D01*
G01*
X83400D02*
G03*
X83400Y156100I-800J0D01*
G01*
Y153200D02*
G03*
X83400Y153200I-800J0D01*
G01*
X66015Y144000D02*
G03*
X66015Y144000I-800J0D01*
G01*
Y146900D02*
G03*
X66015Y146900I-800J0D01*
G01*
X70362Y145400D02*
G03*
X70362Y145400I-800J0D01*
G01*
Y148300D02*
G03*
X70362Y148300I-800J0D01*
G01*
X79054D02*
G03*
X79054Y148300I-800J0D01*
G01*
Y145400D02*
G03*
X79054Y145400I-800J0D01*
G01*
X48631Y144000D02*
G03*
X48631Y144000I-800J0D01*
G01*
Y146900D02*
G03*
X48631Y146900I-800J0D01*
G01*
X57323Y147000D02*
G03*
X57323Y147000I-800J0D01*
G01*
Y144100D02*
G03*
X57323Y144100I-800J0D01*
G01*
X52977Y145400D02*
G03*
X52977Y145400I-800J0D01*
G01*
Y148300D02*
G03*
X52977Y148300I-800J0D01*
G01*
X61669Y148200D02*
G03*
X61669Y148200I-800J0D01*
G01*
Y145300D02*
G03*
X61669Y145300I-800J0D01*
G01*
X31246Y146900D02*
G03*
X31246Y146900I-800J0D01*
G01*
Y144000D02*
G03*
X31246Y144000I-800J0D01*
G01*
X39938Y147000D02*
G03*
X39938Y147000I-800J0D01*
G01*
Y144100D02*
G03*
X39938Y144100I-800J0D01*
G01*
X35592Y145400D02*
G03*
X35592Y145400I-800J0D01*
G01*
Y148300D02*
G03*
X35592Y148300I-800J0D01*
G01*
X44285Y148200D02*
G03*
X44285Y148200I-800J0D01*
G01*
Y145300D02*
G03*
X44285Y145300I-800J0D01*
G01*
X5169Y144000D02*
G03*
X5169Y144000I-800J0D01*
G01*
Y146900D02*
G03*
X5169Y146900I-800J0D01*
G01*
X13861D02*
G03*
X13861Y146900I-800J0D01*
G01*
Y144000D02*
G03*
X13861Y144000I-800J0D01*
G01*
X22554Y147000D02*
G03*
X22554Y147000I-800J0D01*
G01*
Y144100D02*
G03*
X22554Y144100I-800J0D01*
G01*
X9515Y145400D02*
G03*
X9515Y145400I-800J0D01*
G01*
Y148300D02*
G03*
X9515Y148300I-800J0D01*
G01*
X18208Y145400D02*
G03*
X18208Y145400I-800J0D01*
G01*
Y148300D02*
G03*
X18208Y148300I-800J0D01*
G01*
X26900Y148200D02*
G03*
X26900Y148200I-800J0D01*
G01*
Y145300D02*
G03*
X26900Y145300I-800J0D01*
G01*
X-12215Y144000D02*
G03*
X-12215Y144000I-800J0D01*
G01*
Y146900D02*
G03*
X-12215Y146900I-800J0D01*
G01*
X-3523D02*
G03*
X-3523Y146900I-800J0D01*
G01*
Y144000D02*
G03*
X-3523Y144000I-800J0D01*
G01*
X-7869Y145400D02*
G03*
X-7869Y145400I-800J0D01*
G01*
Y148300D02*
G03*
X-7869Y148300I-800J0D01*
G01*
X823Y145400D02*
G03*
X823Y145400I-800J0D01*
G01*
Y148300D02*
G03*
X823Y148300I-800J0D01*
G01*
X-29600Y144000D02*
G03*
X-29600Y144000I-800J0D01*
G01*
Y146900D02*
G03*
X-29600Y146900I-800J0D01*
G01*
X-20908Y147000D02*
G03*
X-20908Y147000I-800J0D01*
G01*
Y144100D02*
G03*
X-20908Y144100I-800J0D01*
G01*
X-25254Y145400D02*
G03*
X-25254Y145400I-800J0D01*
G01*
Y148300D02*
G03*
X-25254Y148300I-800J0D01*
G01*
X-16562Y148200D02*
G03*
X-16562Y148200I-800J0D01*
G01*
Y145300D02*
G03*
X-16562Y145300I-800J0D01*
G01*
X74708Y144100D02*
G03*
X74708Y144100I-800J0D01*
G01*
Y147000D02*
G03*
X74708Y147000I-800J0D01*
G01*
X83400D02*
G03*
X83400Y147000I-800J0D01*
G01*
Y144100D02*
G03*
X83400Y144100I-800J0D01*
G01*
X69815Y-169100D02*
G03*
X69815Y-169100I-800J0D01*
G01*
Y-166200D02*
G03*
X69815Y-166200I-800J0D01*
G01*
X74161Y-167700D02*
G03*
X74161Y-167700I-800J0D01*
G01*
Y-164800D02*
G03*
X74161Y-164800I-800J0D01*
G01*
X82854D02*
G03*
X82854Y-164800I-800J0D01*
G01*
Y-167700D02*
G03*
X82854Y-167700I-800J0D01*
G01*
X52431Y-169100D02*
G03*
X52431Y-169100I-800J0D01*
G01*
Y-166200D02*
G03*
X52431Y-166200I-800J0D01*
G01*
X61123Y-166100D02*
G03*
X61123Y-166100I-800J0D01*
G01*
Y-169000D02*
G03*
X61123Y-169000I-800J0D01*
G01*
X56777Y-167700D02*
G03*
X56777Y-167700I-800J0D01*
G01*
Y-164800D02*
G03*
X56777Y-164800I-800J0D01*
G01*
X65469Y-164900D02*
G03*
X65469Y-164900I-800J0D01*
G01*
Y-167800D02*
G03*
X65469Y-167800I-800J0D01*
G01*
X35046Y-166200D02*
G03*
X35046Y-166200I-800J0D01*
G01*
Y-169100D02*
G03*
X35046Y-169100I-800J0D01*
G01*
X43738Y-166100D02*
G03*
X43738Y-166100I-800J0D01*
G01*
Y-169000D02*
G03*
X43738Y-169000I-800J0D01*
G01*
X39392Y-167700D02*
G03*
X39392Y-167700I-800J0D01*
G01*
Y-164800D02*
G03*
X39392Y-164800I-800J0D01*
G01*
X48085Y-164900D02*
G03*
X48085Y-164900I-800J0D01*
G01*
Y-167800D02*
G03*
X48085Y-167800I-800J0D01*
G01*
X8969Y-169100D02*
G03*
X8969Y-169100I-800J0D01*
G01*
Y-166200D02*
G03*
X8969Y-166200I-800J0D01*
G01*
X17661D02*
G03*
X17661Y-166200I-800J0D01*
G01*
Y-169100D02*
G03*
X17661Y-169100I-800J0D01*
G01*
X26354Y-166100D02*
G03*
X26354Y-166100I-800J0D01*
G01*
Y-169000D02*
G03*
X26354Y-169000I-800J0D01*
G01*
X13315Y-167700D02*
G03*
X13315Y-167700I-800J0D01*
G01*
Y-164800D02*
G03*
X13315Y-164800I-800J0D01*
G01*
X22008Y-167700D02*
G03*
X22008Y-167700I-800J0D01*
G01*
Y-164800D02*
G03*
X22008Y-164800I-800J0D01*
G01*
X30700Y-164900D02*
G03*
X30700Y-164900I-800J0D01*
G01*
Y-167800D02*
G03*
X30700Y-167800I-800J0D01*
G01*
X-8415Y-169100D02*
G03*
X-8415Y-169100I-800J0D01*
G01*
Y-166200D02*
G03*
X-8415Y-166200I-800J0D01*
G01*
X277D02*
G03*
X277Y-166200I-800J0D01*
G01*
Y-169100D02*
G03*
X277Y-169100I-800J0D01*
G01*
X-4069Y-167700D02*
G03*
X-4069Y-167700I-800J0D01*
G01*
Y-164800D02*
G03*
X-4069Y-164800I-800J0D01*
G01*
X4623Y-167700D02*
G03*
X4623Y-167700I-800J0D01*
G01*
Y-164800D02*
G03*
X4623Y-164800I-800J0D01*
G01*
X-25800Y-169100D02*
G03*
X-25800Y-169100I-800J0D01*
G01*
Y-166200D02*
G03*
X-25800Y-166200I-800J0D01*
G01*
X-17108Y-166100D02*
G03*
X-17108Y-166100I-800J0D01*
G01*
Y-169000D02*
G03*
X-17108Y-169000I-800J0D01*
G01*
X-21454Y-167700D02*
G03*
X-21454Y-167700I-800J0D01*
G01*
Y-164800D02*
G03*
X-21454Y-164800I-800J0D01*
G01*
X-12762Y-164900D02*
G03*
X-12762Y-164900I-800J0D01*
G01*
Y-167800D02*
G03*
X-12762Y-167800I-800J0D01*
G01*
X78508Y-169000D02*
G03*
X78508Y-169000I-800J0D01*
G01*
Y-166100D02*
G03*
X78508Y-166100I-800J0D01*
G01*
X87200D02*
G03*
X87200Y-166100I-800J0D01*
G01*
Y-169000D02*
G03*
X87200Y-169000I-800J0D01*
G01*
X66115Y135100D02*
G03*
X66115Y135100I-800J0D01*
G01*
Y138000D02*
G03*
X66115Y138000I-800J0D01*
G01*
X70461Y136500D02*
G03*
X70461Y136500I-800J0D01*
G01*
Y139400D02*
G03*
X70461Y139400I-800J0D01*
G01*
X79154D02*
G03*
X79154Y139400I-800J0D01*
G01*
Y136500D02*
G03*
X79154Y136500I-800J0D01*
G01*
X48731Y135100D02*
G03*
X48731Y135100I-800J0D01*
G01*
Y138000D02*
G03*
X48731Y138000I-800J0D01*
G01*
X57423Y138100D02*
G03*
X57423Y138100I-800J0D01*
G01*
Y135200D02*
G03*
X57423Y135200I-800J0D01*
G01*
X53077Y136500D02*
G03*
X53077Y136500I-800J0D01*
G01*
Y139400D02*
G03*
X53077Y139400I-800J0D01*
G01*
X61769Y139300D02*
G03*
X61769Y139300I-800J0D01*
G01*
Y136400D02*
G03*
X61769Y136400I-800J0D01*
G01*
X31346Y138000D02*
G03*
X31346Y138000I-800J0D01*
G01*
Y135100D02*
G03*
X31346Y135100I-800J0D01*
G01*
X40038Y138100D02*
G03*
X40038Y138100I-800J0D01*
G01*
Y135200D02*
G03*
X40038Y135200I-800J0D01*
G01*
X35692Y136500D02*
G03*
X35692Y136500I-800J0D01*
G01*
Y139400D02*
G03*
X35692Y139400I-800J0D01*
G01*
X44385Y139300D02*
G03*
X44385Y139300I-800J0D01*
G01*
Y136400D02*
G03*
X44385Y136400I-800J0D01*
G01*
X5269Y135100D02*
G03*
X5269Y135100I-800J0D01*
G01*
Y138000D02*
G03*
X5269Y138000I-800J0D01*
G01*
X13961D02*
G03*
X13961Y138000I-800J0D01*
G01*
Y135100D02*
G03*
X13961Y135100I-800J0D01*
G01*
X22654Y138100D02*
G03*
X22654Y138100I-800J0D01*
G01*
Y135200D02*
G03*
X22654Y135200I-800J0D01*
G01*
X9615Y136500D02*
G03*
X9615Y136500I-800J0D01*
G01*
Y139400D02*
G03*
X9615Y139400I-800J0D01*
G01*
X18308Y136500D02*
G03*
X18308Y136500I-800J0D01*
G01*
Y139400D02*
G03*
X18308Y139400I-800J0D01*
G01*
X27000Y139300D02*
G03*
X27000Y139300I-800J0D01*
G01*
Y136400D02*
G03*
X27000Y136400I-800J0D01*
G01*
X-12115Y135100D02*
G03*
X-12115Y135100I-800J0D01*
G01*
Y138000D02*
G03*
X-12115Y138000I-800J0D01*
G01*
X-3423D02*
G03*
X-3423Y138000I-800J0D01*
G01*
Y135100D02*
G03*
X-3423Y135100I-800J0D01*
G01*
X-7769Y136500D02*
G03*
X-7769Y136500I-800J0D01*
G01*
Y139400D02*
G03*
X-7769Y139400I-800J0D01*
G01*
X923Y136500D02*
G03*
X923Y136500I-800J0D01*
G01*
Y139400D02*
G03*
X923Y139400I-800J0D01*
G01*
X-29500Y135100D02*
G03*
X-29500Y135100I-800J0D01*
G01*
Y138000D02*
G03*
X-29500Y138000I-800J0D01*
G01*
X-20808Y138100D02*
G03*
X-20808Y138100I-800J0D01*
G01*
Y135200D02*
G03*
X-20808Y135200I-800J0D01*
G01*
X-25154Y136500D02*
G03*
X-25154Y136500I-800J0D01*
G01*
Y139400D02*
G03*
X-25154Y139400I-800J0D01*
G01*
X-16462Y139300D02*
G03*
X-16462Y139300I-800J0D01*
G01*
Y136400D02*
G03*
X-16462Y136400I-800J0D01*
G01*
X74808Y135200D02*
G03*
X74808Y135200I-800J0D01*
G01*
Y138100D02*
G03*
X74808Y138100I-800J0D01*
G01*
X83500D02*
G03*
X83500Y138100I-800J0D01*
G01*
Y135200D02*
G03*
X83500Y135200I-800J0D01*
G01*
X164300Y71400D02*
G03*
X164300Y71400I-800J0D01*
G01*
Y75300D02*
G03*
X164300Y75300I-800J0D01*
G01*
X167000Y73500D02*
G03*
X167000Y73500I-800J0D01*
G01*
Y69700D02*
G03*
X167000Y69700I-800J0D01*
G01*
Y93200D02*
G03*
X167000Y93200I-800J0D01*
G01*
X167100Y97155D02*
G03*
X167100Y97155I-800J0D01*
G01*
Y104300D02*
G03*
X167100Y104300I-800J0D01*
G01*
X164400Y102200D02*
G03*
X164400Y102200I-800J0D01*
G01*
Y106100D02*
G03*
X164400Y106100I-800J0D01*
G01*
X167100Y100500D02*
G03*
X167100Y100500I-800J0D01*
G01*
Y89100D02*
G03*
X167100Y89100I-800J0D01*
G01*
X164400Y87000D02*
G03*
X164400Y87000I-800J0D01*
G01*
Y90900D02*
G03*
X164400Y90900I-800J0D01*
G01*
Y98800D02*
G03*
X164400Y98800I-800J0D01*
G01*
X167100Y85300D02*
G03*
X167100Y85300I-800J0D01*
G01*
X167000Y81400D02*
G03*
X167000Y81400I-800J0D01*
G01*
X164300Y83200D02*
G03*
X164300Y83200I-800J0D01*
G01*
X166900Y77600D02*
G03*
X166900Y77600I-800J0D01*
G01*
X164200Y79400D02*
G03*
X164200Y79400I-800J0D01*
G01*
X164376Y94915D02*
G03*
X164376Y94915I-800J0D01*
G01*
X169676Y94815D02*
G03*
X169676Y94815I-800J0D01*
G01*
X169500Y79300D02*
G03*
X169500Y79300I-800J0D01*
G01*
X172200Y77500D02*
G03*
X172200Y77500I-800J0D01*
G01*
X169600Y83100D02*
G03*
X169600Y83100I-800J0D01*
G01*
X172300Y81300D02*
G03*
X172300Y81300I-800J0D01*
G01*
X172400Y85200D02*
G03*
X172400Y85200I-800J0D01*
G01*
X169700Y98700D02*
G03*
X169700Y98700I-800J0D01*
G01*
Y90800D02*
G03*
X169700Y90800I-800J0D01*
G01*
Y86900D02*
G03*
X169700Y86900I-800J0D01*
G01*
X172400Y89000D02*
G03*
X172400Y89000I-800J0D01*
G01*
Y100400D02*
G03*
X172400Y100400I-800J0D01*
G01*
X169700Y106000D02*
G03*
X169700Y106000I-800J0D01*
G01*
Y102100D02*
G03*
X169700Y102100I-800J0D01*
G01*
X172400Y104200D02*
G03*
X172400Y104200I-800J0D01*
G01*
Y97055D02*
G03*
X172400Y97055I-800J0D01*
G01*
X172300Y93100D02*
G03*
X172300Y93100I-800J0D01*
G01*
Y69600D02*
G03*
X172300Y69600I-800J0D01*
G01*
Y73400D02*
G03*
X172300Y73400I-800J0D01*
G01*
X169500Y67700D02*
G03*
X169500Y67700I-800J0D01*
G01*
X169600Y75200D02*
G03*
X169600Y75200I-800J0D01*
G01*
Y71300D02*
G03*
X169600Y71300I-800J0D01*
G01*
X175376Y95015D02*
G03*
X175376Y95015I-800J0D01*
G01*
X175200Y79500D02*
G03*
X175200Y79500I-800J0D01*
G01*
X175300Y83300D02*
G03*
X175300Y83300I-800J0D01*
G01*
X175400Y98900D02*
G03*
X175400Y98900I-800J0D01*
G01*
Y91000D02*
G03*
X175400Y91000I-800J0D01*
G01*
Y87100D02*
G03*
X175400Y87100I-800J0D01*
G01*
Y106200D02*
G03*
X175400Y106200I-800J0D01*
G01*
Y102300D02*
G03*
X175400Y102300I-800J0D01*
G01*
X175200Y67900D02*
G03*
X175200Y67900I-800J0D01*
G01*
X175300Y75400D02*
G03*
X175300Y75400I-800J0D01*
G01*
Y71500D02*
G03*
X175300Y71500I-800J0D01*
G01*
X161525Y77669D02*
G03*
X161525Y77669I-800J0D01*
G01*
X139181Y97560D02*
G03*
X139181Y97560I-800J0D01*
G01*
X133581D02*
G03*
X133581Y97560I-800J0D01*
G01*
X141881Y79805D02*
G03*
X141881Y79805I-800J0D01*
G01*
X144581Y78005D02*
G03*
X144581Y78005I-800J0D01*
G01*
X141981Y83605D02*
G03*
X141981Y83605I-800J0D01*
G01*
X144681Y81805D02*
G03*
X144681Y81805I-800J0D01*
G01*
X139081Y70205D02*
G03*
X139081Y70205I-800J0D01*
G01*
X144781Y85705D02*
G03*
X144781Y85705I-800J0D01*
G01*
X139181Y85805D02*
G03*
X139181Y85805I-800J0D01*
G01*
Y89505D02*
G03*
X139181Y89505I-800J0D01*
G01*
X142081Y99205D02*
G03*
X142081Y99205I-800J0D01*
G01*
Y91305D02*
G03*
X142081Y91305I-800J0D01*
G01*
Y87405D02*
G03*
X142081Y87405I-800J0D01*
G01*
X144781Y89505D02*
G03*
X144781Y89505I-800J0D01*
G01*
Y100905D02*
G03*
X144781Y100905I-800J0D01*
G01*
X139181Y101005D02*
G03*
X139181Y101005I-800J0D01*
G01*
X142081Y106505D02*
G03*
X142081Y106505I-800J0D01*
G01*
Y102605D02*
G03*
X142081Y102605I-800J0D01*
G01*
X144781Y104705D02*
G03*
X144781Y104705I-800J0D01*
G01*
X138981Y78005D02*
G03*
X138981Y78005I-800J0D01*
G01*
X139081Y73905D02*
G03*
X139081Y73905I-800J0D01*
G01*
X144781Y97560D02*
G03*
X144781Y97560I-800J0D01*
G01*
X139081Y93128D02*
G03*
X139081Y93128I-800J0D01*
G01*
X144681Y93605D02*
G03*
X144681Y93605I-800J0D01*
G01*
Y70105D02*
G03*
X144681Y70105I-800J0D01*
G01*
Y73905D02*
G03*
X144681Y73905I-800J0D01*
G01*
X141881Y68205D02*
G03*
X141881Y68205I-800J0D01*
G01*
X141981Y75705D02*
G03*
X141981Y75705I-800J0D01*
G01*
Y71805D02*
G03*
X141981Y71805I-800J0D01*
G01*
X139081Y81805D02*
G03*
X139081Y81805I-800J0D01*
G01*
X136381Y71905D02*
G03*
X136381Y71905I-800J0D01*
G01*
Y75805D02*
G03*
X136381Y75805I-800J0D01*
G01*
X136281Y68305D02*
G03*
X136281Y68305I-800J0D01*
G01*
X133481Y93228D02*
G03*
X133481Y93228I-800J0D01*
G01*
X136481Y102705D02*
G03*
X136481Y102705I-800J0D01*
G01*
X133581Y101105D02*
G03*
X133581Y101105I-800J0D01*
G01*
X136481Y87505D02*
G03*
X136481Y87505I-800J0D01*
G01*
Y91405D02*
G03*
X136481Y91405I-800J0D01*
G01*
Y99305D02*
G03*
X136481Y99305I-800J0D01*
G01*
X133581Y89605D02*
G03*
X133581Y89605I-800J0D01*
G01*
Y85905D02*
G03*
X133581Y85905I-800J0D01*
G01*
X136381Y83705D02*
G03*
X136381Y83705I-800J0D01*
G01*
X136281Y79905D02*
G03*
X136281Y79905I-800J0D01*
G01*
X147606Y75874D02*
G03*
X147606Y75874I-800J0D01*
G01*
X147506Y79774D02*
G03*
X147506Y79774I-800J0D01*
G01*
X130100Y81400D02*
G03*
X130100Y81400I-800J0D01*
G01*
X130057Y99731D02*
G03*
X130057Y99731I-800J0D01*
G01*
X128000Y91900D02*
G03*
X128000Y91900I-800J0D01*
G01*
X127900Y85100D02*
G03*
X127900Y85100I-800J0D01*
G01*
X152023Y84898D02*
G03*
X152023Y84898I-800J0D01*
G01*
X160825Y-17431D02*
G03*
X160825Y-17431I-800J0D01*
G01*
X155725Y-19131D02*
G03*
X155725Y-19131I-800J0D01*
G01*
X155625Y-15731D02*
G03*
X155625Y-15731I-800J0D01*
G01*
X163272Y-23594D02*
G03*
X163272Y-23594I-800J0D01*
G01*
Y-19694D02*
G03*
X163272Y-19694I-800J0D01*
G01*
X163172Y-27194D02*
G03*
X163172Y-27194I-800J0D01*
G01*
X165972Y-21494D02*
G03*
X165972Y-21494I-800J0D01*
G01*
Y-25294D02*
G03*
X165972Y-25294I-800J0D01*
G01*
Y-1794D02*
G03*
X165972Y-1794I-800J0D01*
G01*
X166072Y2161D02*
G03*
X166072Y2161I-800J0D01*
G01*
X163372Y7206D02*
G03*
X163372Y7206I-800J0D01*
G01*
X166072Y5506D02*
G03*
X166072Y5506I-800J0D01*
G01*
Y-5894D02*
G03*
X166072Y-5894I-800J0D01*
G01*
X163372Y-7994D02*
G03*
X163372Y-7994I-800J0D01*
G01*
Y-4094D02*
G03*
X163372Y-4094I-800J0D01*
G01*
Y3806D02*
G03*
X163372Y3806I-800J0D01*
G01*
X166072Y-9694D02*
G03*
X166072Y-9694I-800J0D01*
G01*
X165972Y-13594D02*
G03*
X165972Y-13594I-800J0D01*
G01*
X163272Y-11794D02*
G03*
X163272Y-11794I-800J0D01*
G01*
X165872Y-17394D02*
G03*
X165872Y-17394I-800J0D01*
G01*
X163172Y-15594D02*
G03*
X163172Y-15594I-800J0D01*
G01*
X163348Y-79D02*
G03*
X163348Y-79I-800J0D01*
G01*
X168648Y-179D02*
G03*
X168648Y-179I-800J0D01*
G01*
X168472Y-15694D02*
G03*
X168472Y-15694I-800J0D01*
G01*
X171172Y-17494D02*
G03*
X171172Y-17494I-800J0D01*
G01*
X168572Y-11894D02*
G03*
X168572Y-11894I-800J0D01*
G01*
X171272Y-13694D02*
G03*
X171272Y-13694I-800J0D01*
G01*
X171372Y-9794D02*
G03*
X171372Y-9794I-800J0D01*
G01*
X168672Y3706D02*
G03*
X168672Y3706I-800J0D01*
G01*
Y-4194D02*
G03*
X168672Y-4194I-800J0D01*
G01*
Y-8094D02*
G03*
X168672Y-8094I-800J0D01*
G01*
X171372Y-5994D02*
G03*
X171372Y-5994I-800J0D01*
G01*
Y5406D02*
G03*
X171372Y5406I-800J0D01*
G01*
X168672Y7106D02*
G03*
X168672Y7106I-800J0D01*
G01*
X171372Y2061D02*
G03*
X171372Y2061I-800J0D01*
G01*
X171272Y-1894D02*
G03*
X171272Y-1894I-800J0D01*
G01*
Y-25394D02*
G03*
X171272Y-25394I-800J0D01*
G01*
Y-21594D02*
G03*
X171272Y-21594I-800J0D01*
G01*
X168472Y-27294D02*
G03*
X168472Y-27294I-800J0D01*
G01*
X168572Y-19794D02*
G03*
X168572Y-19794I-800J0D01*
G01*
Y-23694D02*
G03*
X168572Y-23694I-800J0D01*
G01*
X174348Y21D02*
G03*
X174348Y21I-800J0D01*
G01*
X174172Y-15494D02*
G03*
X174172Y-15494I-800J0D01*
G01*
X174272Y-11694D02*
G03*
X174272Y-11694I-800J0D01*
G01*
X174372Y3906D02*
G03*
X174372Y3906I-800J0D01*
G01*
Y-3994D02*
G03*
X174372Y-3994I-800J0D01*
G01*
Y-7894D02*
G03*
X174372Y-7894I-800J0D01*
G01*
Y11206D02*
G03*
X174372Y11206I-800J0D01*
G01*
Y7306D02*
G03*
X174372Y7306I-800J0D01*
G01*
X174172Y-27094D02*
G03*
X174172Y-27094I-800J0D01*
G01*
X174272Y-19594D02*
G03*
X174272Y-19594I-800J0D01*
G01*
Y-23494D02*
G03*
X174272Y-23494I-800J0D01*
G01*
X170900Y20000D02*
G03*
X170900Y20000I-800J0D01*
G01*
X141600Y-26900D02*
G03*
X141600Y-26900I-800J0D01*
G01*
X144456Y9122D02*
G03*
X144456Y9122I-800J0D01*
G01*
X138904Y1870D02*
G03*
X138904Y1870I-800J0D01*
G01*
X141604Y-15730D02*
G03*
X141604Y-15730I-800J0D01*
G01*
X144304Y-17530D02*
G03*
X144304Y-17530I-800J0D01*
G01*
X141704Y-11930D02*
G03*
X141704Y-11930I-800J0D01*
G01*
X144404Y-13730D02*
G03*
X144404Y-13730I-800J0D01*
G01*
X138804Y-25330D02*
G03*
X138804Y-25330I-800J0D01*
G01*
X144504Y-9830D02*
G03*
X144504Y-9830I-800J0D01*
G01*
X138904Y-9730D02*
G03*
X138904Y-9730I-800J0D01*
G01*
Y-6030D02*
G03*
X138904Y-6030I-800J0D01*
G01*
X141804Y3670D02*
G03*
X141804Y3670I-800J0D01*
G01*
Y-4230D02*
G03*
X141804Y-4230I-800J0D01*
G01*
Y-8130D02*
G03*
X141804Y-8130I-800J0D01*
G01*
X144504Y-6030D02*
G03*
X144504Y-6030I-800J0D01*
G01*
Y5370D02*
G03*
X144504Y5370I-800J0D01*
G01*
X138904Y5470D02*
G03*
X138904Y5470I-800J0D01*
G01*
X141804Y7070D02*
G03*
X141804Y7070I-800J0D01*
G01*
X138704Y-17530D02*
G03*
X138704Y-17530I-800J0D01*
G01*
X138804Y-21630D02*
G03*
X138804Y-21630I-800J0D01*
G01*
X144504Y2025D02*
G03*
X144504Y2025I-800J0D01*
G01*
X138804Y-2407D02*
G03*
X138804Y-2407I-800J0D01*
G01*
X144404Y-1930D02*
G03*
X144404Y-1930I-800J0D01*
G01*
Y-25430D02*
G03*
X144404Y-25430I-800J0D01*
G01*
Y-21630D02*
G03*
X144404Y-21630I-800J0D01*
G01*
X141704Y-19830D02*
G03*
X141704Y-19830I-800J0D01*
G01*
Y-23730D02*
G03*
X141704Y-23730I-800J0D01*
G01*
X138804Y-13730D02*
G03*
X138804Y-13730I-800J0D01*
G01*
X136104Y-23630D02*
G03*
X136104Y-23630I-800J0D01*
G01*
Y-19730D02*
G03*
X136104Y-19730I-800J0D01*
G01*
X136004Y-27230D02*
G03*
X136004Y-27230I-800J0D01*
G01*
X133204Y-2307D02*
G03*
X133204Y-2307I-800J0D01*
G01*
X133304Y1970D02*
G03*
X133304Y1970I-800J0D01*
G01*
X136204Y7170D02*
G03*
X136204Y7170I-800J0D01*
G01*
X133304Y5570D02*
G03*
X133304Y5570I-800J0D01*
G01*
X136204Y-8030D02*
G03*
X136204Y-8030I-800J0D01*
G01*
Y-4130D02*
G03*
X136204Y-4130I-800J0D01*
G01*
Y3770D02*
G03*
X136204Y3770I-800J0D01*
G01*
X133304Y-5930D02*
G03*
X133304Y-5930I-800J0D01*
G01*
Y-9630D02*
G03*
X133304Y-9630I-800J0D01*
G01*
X136104Y-11830D02*
G03*
X136104Y-11830I-800J0D01*
G01*
X136004Y-15630D02*
G03*
X136004Y-15630I-800J0D01*
G01*
X147329Y-19661D02*
G03*
X147329Y-19661I-800J0D01*
G01*
X147229Y-15761D02*
G03*
X147229Y-15761I-800J0D01*
G01*
X126120Y-5026D02*
G03*
X126120Y-5026I-800J0D01*
G01*
X126325Y-8131D02*
G03*
X126325Y-8131I-800J0D01*
G01*
X128525Y-15831D02*
G03*
X128525Y-15831I-800J0D01*
G01*
X154025Y-109431D02*
G03*
X154025Y-109431I-800J0D01*
G01*
X154125Y-112831D02*
G03*
X154125Y-112831I-800J0D01*
G01*
X159225Y-111131D02*
G03*
X159225Y-111131I-800J0D01*
G01*
X146525Y-109331D02*
G03*
X146525Y-109331I-800J0D01*
G01*
X146625Y-113231D02*
G03*
X146625Y-113231I-800J0D01*
G01*
X173000Y-117300D02*
G03*
X173000Y-117300I-800J0D01*
G01*
Y-113400D02*
G03*
X173000Y-113400I-800J0D01*
G01*
X172900Y-120900D02*
G03*
X172900Y-120900I-800J0D01*
G01*
X173100Y-86500D02*
G03*
X173100Y-86500I-800J0D01*
G01*
Y-82600D02*
G03*
X173100Y-82600I-800J0D01*
G01*
Y-101700D02*
G03*
X173100Y-101700I-800J0D01*
G01*
Y-97800D02*
G03*
X173100Y-97800I-800J0D01*
G01*
Y-89900D02*
G03*
X173100Y-89900I-800J0D01*
G01*
X173000Y-105500D02*
G03*
X173000Y-105500I-800J0D01*
G01*
X172900Y-109300D02*
G03*
X172900Y-109300I-800J0D01*
G01*
X173076Y-93785D02*
G03*
X173076Y-93785I-800J0D01*
G01*
X167300Y-117500D02*
G03*
X167300Y-117500I-800J0D01*
G01*
Y-113600D02*
G03*
X167300Y-113600I-800J0D01*
G01*
X167200Y-121100D02*
G03*
X167200Y-121100I-800J0D01*
G01*
X170000Y-115400D02*
G03*
X170000Y-115400I-800J0D01*
G01*
Y-119200D02*
G03*
X170000Y-119200I-800J0D01*
G01*
Y-95700D02*
G03*
X170000Y-95700I-800J0D01*
G01*
X170100Y-91745D02*
G03*
X170100Y-91745I-800J0D01*
G01*
Y-84600D02*
G03*
X170100Y-84600I-800J0D01*
G01*
X167400Y-86700D02*
G03*
X167400Y-86700I-800J0D01*
G01*
Y-82800D02*
G03*
X167400Y-82800I-800J0D01*
G01*
X170100Y-88400D02*
G03*
X170100Y-88400I-800J0D01*
G01*
Y-99800D02*
G03*
X170100Y-99800I-800J0D01*
G01*
X167400Y-101900D02*
G03*
X167400Y-101900I-800J0D01*
G01*
Y-98000D02*
G03*
X167400Y-98000I-800J0D01*
G01*
Y-90100D02*
G03*
X167400Y-90100I-800J0D01*
G01*
X170100Y-103600D02*
G03*
X170100Y-103600I-800J0D01*
G01*
X170000Y-107500D02*
G03*
X170000Y-107500I-800J0D01*
G01*
X167300Y-105700D02*
G03*
X167300Y-105700I-800J0D01*
G01*
X169900Y-111300D02*
G03*
X169900Y-111300I-800J0D01*
G01*
X167200Y-109500D02*
G03*
X167200Y-109500I-800J0D01*
G01*
X167376Y-93985D02*
G03*
X167376Y-93985I-800J0D01*
G01*
X162076Y-93885D02*
G03*
X162076Y-93885I-800J0D01*
G01*
X161900Y-109400D02*
G03*
X161900Y-109400I-800J0D01*
G01*
X164600Y-111200D02*
G03*
X164600Y-111200I-800J0D01*
G01*
X162000Y-105600D02*
G03*
X162000Y-105600I-800J0D01*
G01*
X164700Y-107400D02*
G03*
X164700Y-107400I-800J0D01*
G01*
X164800Y-103500D02*
G03*
X164800Y-103500I-800J0D01*
G01*
X162100Y-90000D02*
G03*
X162100Y-90000I-800J0D01*
G01*
Y-97900D02*
G03*
X162100Y-97900I-800J0D01*
G01*
Y-101800D02*
G03*
X162100Y-101800I-800J0D01*
G01*
X164800Y-99700D02*
G03*
X164800Y-99700I-800J0D01*
G01*
Y-88300D02*
G03*
X164800Y-88300I-800J0D01*
G01*
X162100Y-82700D02*
G03*
X162100Y-82700I-800J0D01*
G01*
Y-86600D02*
G03*
X162100Y-86600I-800J0D01*
G01*
X164800Y-84500D02*
G03*
X164800Y-84500I-800J0D01*
G01*
Y-91645D02*
G03*
X164800Y-91645I-800J0D01*
G01*
X164700Y-95600D02*
G03*
X164700Y-95600I-800J0D01*
G01*
Y-119100D02*
G03*
X164700Y-119100I-800J0D01*
G01*
Y-115300D02*
G03*
X164700Y-115300I-800J0D01*
G01*
X161900Y-121000D02*
G03*
X161900Y-121000I-800J0D01*
G01*
X162000Y-113500D02*
G03*
X162000Y-113500I-800J0D01*
G01*
Y-117400D02*
G03*
X162000Y-117400I-800J0D01*
G01*
X135300Y-109200D02*
G03*
X135300Y-109200I-800J0D01*
G01*
X135400Y-105400D02*
G03*
X135400Y-105400I-800J0D01*
G01*
X132600Y-103200D02*
G03*
X132600Y-103200I-800J0D01*
G01*
Y-99500D02*
G03*
X132600Y-99500I-800J0D01*
G01*
X135500Y-89800D02*
G03*
X135500Y-89800I-800J0D01*
G01*
Y-97700D02*
G03*
X135500Y-97700I-800J0D01*
G01*
Y-101600D02*
G03*
X135500Y-101600I-800J0D01*
G01*
X132600Y-88000D02*
G03*
X132600Y-88000I-800J0D01*
G01*
X135500Y-86400D02*
G03*
X135500Y-86400I-800J0D01*
G01*
X132600Y-91600D02*
G03*
X132600Y-91600I-800J0D01*
G01*
X132500Y-95877D02*
G03*
X132500Y-95877I-800J0D01*
G01*
X135300Y-120800D02*
G03*
X135300Y-120800I-800J0D01*
G01*
X135400Y-113300D02*
G03*
X135400Y-113300I-800J0D01*
G01*
Y-117200D02*
G03*
X135400Y-117200I-800J0D01*
G01*
X154261Y-98402D02*
G03*
X154261Y-98402I-800J0D01*
G01*
X97200Y-128700D02*
G03*
X97200Y-128700I-800J0D01*
G01*
Y-134500D02*
G03*
X97200Y-134500I-800J0D01*
G01*
X138100Y-107300D02*
G03*
X138100Y-107300I-800J0D01*
G01*
X141000Y-117300D02*
G03*
X141000Y-117300I-800J0D01*
G01*
Y-113400D02*
G03*
X141000Y-113400I-800J0D01*
G01*
X140900Y-120900D02*
G03*
X140900Y-120900I-800J0D01*
G01*
X97300Y-86500D02*
G03*
X97300Y-86500I-800J0D01*
G01*
X97400Y-91467D02*
G03*
X97400Y-91467I-800J0D01*
G01*
Y-96433D02*
G03*
X97400Y-96433I-800J0D01*
G01*
Y-101400D02*
G03*
X97400Y-101400I-800J0D01*
G01*
X143700Y-115200D02*
G03*
X143700Y-115200I-800J0D01*
G01*
Y-119000D02*
G03*
X143700Y-119000I-800J0D01*
G01*
Y-95500D02*
G03*
X143700Y-95500I-800J0D01*
G01*
X138100Y-95977D02*
G03*
X138100Y-95977I-800J0D01*
G01*
X143800Y-91545D02*
G03*
X143800Y-91545I-800J0D01*
G01*
X138200Y-91700D02*
G03*
X138200Y-91700I-800J0D01*
G01*
X151539Y-103433D02*
G03*
X151539Y-103433I-800J0D01*
G01*
X138100Y-115200D02*
G03*
X138100Y-115200I-800J0D01*
G01*
X138000Y-111100D02*
G03*
X138000Y-111100I-800J0D01*
G01*
X143800Y-84400D02*
G03*
X143800Y-84400I-800J0D01*
G01*
X141100Y-86500D02*
G03*
X141100Y-86500I-800J0D01*
G01*
Y-82600D02*
G03*
X141100Y-82600I-800J0D01*
G01*
X138200Y-88100D02*
G03*
X138200Y-88100I-800J0D01*
G01*
X143800Y-88200D02*
G03*
X143800Y-88200I-800J0D01*
G01*
Y-99600D02*
G03*
X143800Y-99600I-800J0D01*
G01*
X141100Y-101700D02*
G03*
X141100Y-101700I-800J0D01*
G01*
Y-97800D02*
G03*
X141100Y-97800I-800J0D01*
G01*
Y-89900D02*
G03*
X141100Y-89900I-800J0D01*
G01*
X138200Y-99600D02*
G03*
X138200Y-99600I-800J0D01*
G01*
Y-103300D02*
G03*
X138200Y-103300I-800J0D01*
G01*
X143800Y-103400D02*
G03*
X143800Y-103400I-800J0D01*
G01*
X138100Y-118900D02*
G03*
X138100Y-118900I-800J0D01*
G01*
X130272Y-104300D02*
G03*
X130272Y-104300I-800J0D01*
G01*
X128400Y-114300D02*
G03*
X128400Y-114300I-800J0D01*
G01*
X130300Y-110400D02*
G03*
X130300Y-110400I-800J0D01*
G01*
X128300Y-96500D02*
G03*
X128300Y-96500I-800J0D01*
G01*
X143700Y-107300D02*
G03*
X143700Y-107300I-800J0D01*
G01*
X141000Y-105500D02*
G03*
X141000Y-105500I-800J0D01*
G01*
X143600Y-111100D02*
G03*
X143600Y-111100I-800J0D01*
G01*
X140900Y-109300D02*
G03*
X140900Y-109300I-800J0D01*
G01*
X144042Y56362D02*
G03*
X144042Y56362I-800J0D01*
G01*
X142742Y-38968D02*
G03*
X142742Y-38968I-800J0D01*
G01*
X141241Y-132523D02*
G03*
X141241Y-132523I-800J0D01*
G01*
X172330Y143715D02*
G03*
X172330Y143715I-800J0D01*
G01*
X125223Y12600D02*
G03*
X125223Y12600I-800J0D01*
G01*
X128700Y2900D02*
G03*
X128700Y2900I-800J0D01*
G01*
X83706Y125260D02*
G03*
X83706Y125260I-800J0D01*
G01*
Y128160D02*
G03*
X83706Y128160I-800J0D01*
G01*
X75013D02*
G03*
X75013Y128160I-800J0D01*
G01*
Y125260D02*
G03*
X75013Y125260I-800J0D01*
G01*
X92347Y127560D02*
G03*
X92347Y127560I-800J0D01*
G01*
Y121760D02*
G03*
X92347Y121760I-800J0D01*
G01*
Y124660D02*
G03*
X92347Y124660I-800J0D01*
G01*
Y118860D02*
G03*
X92347Y118860I-800J0D01*
G01*
Y130660D02*
G03*
X92347Y130660I-800J0D01*
G01*
X96589Y116773D02*
G03*
X96589Y116773I-800J0D01*
G01*
Y119673D02*
G03*
X96589Y119673I-800J0D01*
G01*
Y125473D02*
G03*
X96589Y125473I-800J0D01*
G01*
Y122573D02*
G03*
X96589Y122573I-800J0D01*
G01*
Y128373D02*
G03*
X96589Y128373I-800J0D01*
G01*
X88106Y129060D02*
G03*
X88106Y129060I-800J0D01*
G01*
Y123260D02*
G03*
X88106Y123260I-800J0D01*
G01*
Y126160D02*
G03*
X88106Y126160I-800J0D01*
G01*
Y120360D02*
G03*
X88106Y120360I-800J0D01*
G01*
Y117460D02*
G03*
X88106Y117460I-800J0D01*
G01*
X105072Y127973D02*
G03*
X105072Y127973I-800J0D01*
G01*
Y122173D02*
G03*
X105072Y122173I-800J0D01*
G01*
Y125073D02*
G03*
X105072Y125073I-800J0D01*
G01*
Y119273D02*
G03*
X105072Y119273I-800J0D01*
G01*
Y116373D02*
G03*
X105072Y116373I-800J0D01*
G01*
X113106Y122260D02*
G03*
X113106Y122260I-800J0D01*
G01*
Y119360D02*
G03*
X113106Y119360I-800J0D01*
G01*
X109314Y117773D02*
G03*
X109314Y117773I-800J0D01*
G01*
Y123573D02*
G03*
X109314Y123573I-800J0D01*
G01*
Y120673D02*
G03*
X109314Y120673I-800J0D01*
G01*
Y126473D02*
G03*
X109314Y126473I-800J0D01*
G01*
X100830Y120873D02*
G03*
X100830Y120873I-800J0D01*
G01*
Y126673D02*
G03*
X100830Y126673I-800J0D01*
G01*
Y117973D02*
G03*
X100830Y117973I-800J0D01*
G01*
Y123773D02*
G03*
X100830Y123773I-800J0D01*
G01*
Y129773D02*
G03*
X100830Y129773I-800J0D01*
G01*
X92347Y115860D02*
G03*
X92347Y115860I-800J0D01*
G01*
X-16256Y126460D02*
G03*
X-16256Y126460I-800J0D01*
G01*
Y129360D02*
G03*
X-16256Y129360I-800J0D01*
G01*
X-24948Y129460D02*
G03*
X-24948Y129460I-800J0D01*
G01*
Y126560D02*
G03*
X-24948Y126560I-800J0D01*
G01*
X-20602Y125260D02*
G03*
X-20602Y125260I-800J0D01*
G01*
Y128160D02*
G03*
X-20602Y128160I-800J0D01*
G01*
X-29294Y128060D02*
G03*
X-29294Y128060I-800J0D01*
G01*
Y125160D02*
G03*
X-29294Y125160I-800J0D01*
G01*
X1129Y129460D02*
G03*
X1129Y129460I-800J0D01*
G01*
Y126560D02*
G03*
X1129Y126560I-800J0D01*
G01*
X-7564Y129460D02*
G03*
X-7564Y129460I-800J0D01*
G01*
Y126560D02*
G03*
X-7564Y126560I-800J0D01*
G01*
X-3218Y125160D02*
G03*
X-3218Y125160I-800J0D01*
G01*
Y128060D02*
G03*
X-3218Y128060I-800J0D01*
G01*
X-11910D02*
G03*
X-11910Y128060I-800J0D01*
G01*
Y125160D02*
G03*
X-11910Y125160I-800J0D01*
G01*
X27206Y126460D02*
G03*
X27206Y126460I-800J0D01*
G01*
Y129360D02*
G03*
X27206Y129360I-800J0D01*
G01*
X18513Y129460D02*
G03*
X18513Y129460I-800J0D01*
G01*
Y126560D02*
G03*
X18513Y126560I-800J0D01*
G01*
X9821Y129460D02*
G03*
X9821Y129460I-800J0D01*
G01*
Y126560D02*
G03*
X9821Y126560I-800J0D01*
G01*
X22859Y125260D02*
G03*
X22859Y125260I-800J0D01*
G01*
Y128160D02*
G03*
X22859Y128160I-800J0D01*
G01*
X14167Y125160D02*
G03*
X14167Y125160I-800J0D01*
G01*
Y128060D02*
G03*
X14167Y128060I-800J0D01*
G01*
X5475D02*
G03*
X5475Y128060I-800J0D01*
G01*
Y125160D02*
G03*
X5475Y125160I-800J0D01*
G01*
X44590Y126460D02*
G03*
X44590Y126460I-800J0D01*
G01*
Y129360D02*
G03*
X44590Y129360I-800J0D01*
G01*
X35898Y129460D02*
G03*
X35898Y129460I-800J0D01*
G01*
Y126560D02*
G03*
X35898Y126560I-800J0D01*
G01*
X40244Y125260D02*
G03*
X40244Y125260I-800J0D01*
G01*
Y128160D02*
G03*
X40244Y128160I-800J0D01*
G01*
X31552Y125160D02*
G03*
X31552Y125160I-800J0D01*
G01*
Y128060D02*
G03*
X31552Y128060I-800J0D01*
G01*
X61975Y126460D02*
G03*
X61975Y126460I-800J0D01*
G01*
Y129360D02*
G03*
X61975Y129360I-800J0D01*
G01*
X53282Y129460D02*
G03*
X53282Y129460I-800J0D01*
G01*
Y126560D02*
G03*
X53282Y126560I-800J0D01*
G01*
X57629Y125260D02*
G03*
X57629Y125260I-800J0D01*
G01*
Y128160D02*
G03*
X57629Y128160I-800J0D01*
G01*
X48936Y128060D02*
G03*
X48936Y128060I-800J0D01*
G01*
Y125160D02*
G03*
X48936Y125160I-800J0D01*
G01*
X79359Y126560D02*
G03*
X79359Y126560I-800J0D01*
G01*
Y129460D02*
G03*
X79359Y129460I-800J0D01*
G01*
X70667D02*
G03*
X70667Y129460I-800J0D01*
G01*
Y126560D02*
G03*
X70667Y126560I-800J0D01*
G01*
X66321Y128060D02*
G03*
X66321Y128060I-800J0D01*
G01*
Y125160D02*
G03*
X66321Y125160I-800J0D01*
G01*
X45127Y98800D02*
G03*
X45127Y98800I-800J0D01*
G01*
X6400Y99100D02*
G03*
X6400Y99100I-800J0D01*
G01*
X-35727Y99000D02*
G03*
X-35727Y99000I-800J0D01*
G01*
X110300Y86100D02*
G03*
X110300Y86100I-800J0D01*
G01*
X78175Y89182D02*
G03*
X78175Y89182I-800J0D01*
G01*
X97600Y105033D02*
G03*
X97600Y105033I-800J0D01*
G01*
Y100067D02*
G03*
X97600Y100067I-800J0D01*
G01*
X90800Y100000D02*
G03*
X90800Y100000I-800J0D01*
G01*
Y105000D02*
G03*
X90800Y105000I-800J0D01*
G01*
Y95000D02*
G03*
X90800Y95000I-800J0D01*
G01*
X97600Y95100D02*
G03*
X97600Y95100I-800J0D01*
G01*
X107100Y108100D02*
G03*
X107100Y108100I-800J0D01*
G01*
Y103175D02*
G03*
X107100Y103175I-800J0D01*
G01*
Y98250D02*
G03*
X107100Y98250I-800J0D01*
G01*
X113600Y108200D02*
G03*
X113600Y108200I-800J0D01*
G01*
Y103175D02*
G03*
X113600Y103175I-800J0D01*
G01*
Y98150D02*
G03*
X113600Y98150I-800J0D01*
G01*
X110400Y101475D02*
G03*
X110400Y101475I-800J0D01*
G01*
Y106600D02*
G03*
X110400Y106600I-800J0D01*
G01*
Y96350D02*
G03*
X110400Y96350I-800J0D01*
G01*
Y91225D02*
G03*
X110400Y91225I-800J0D01*
G01*
X113600Y93125D02*
G03*
X113600Y93125I-800J0D01*
G01*
X107200Y93325D02*
G03*
X107200Y93325I-800J0D01*
G01*
X104000Y95100D02*
G03*
X104000Y95100I-800J0D01*
G01*
Y90400D02*
G03*
X104000Y90400I-800J0D01*
G01*
Y101000D02*
G03*
X104000Y101000I-800J0D01*
G01*
Y106800D02*
G03*
X104000Y106800I-800J0D01*
G01*
X103900Y86300D02*
G03*
X103900Y86300I-800J0D01*
G01*
X107200Y88400D02*
G03*
X107200Y88400I-800J0D01*
G01*
X113600Y88100D02*
G03*
X113600Y88100I-800J0D01*
G01*
X97600Y86700D02*
G03*
X97600Y86700I-800J0D01*
G01*
X100900Y88700D02*
G03*
X100900Y88700I-800J0D01*
G01*
X94500Y88900D02*
G03*
X94500Y88900I-800J0D01*
G01*
X94400Y92800D02*
G03*
X94400Y92800I-800J0D01*
G01*
X100900Y92900D02*
G03*
X100900Y92900I-800J0D01*
G01*
X97600Y90600D02*
G03*
X97600Y90600I-800J0D01*
G01*
X90900Y90700D02*
G03*
X90900Y90700I-800J0D01*
G01*
X91000Y86700D02*
G03*
X91000Y86700I-800J0D01*
G01*
X84200Y91400D02*
G03*
X84200Y91400I-800J0D01*
G01*
X87600Y92400D02*
G03*
X87600Y92400I-800J0D01*
G01*
X81000Y93100D02*
G03*
X81000Y93100I-800J0D01*
G01*
X80900Y87200D02*
G03*
X80900Y87200I-800J0D01*
G01*
X87600Y89000D02*
G03*
X87600Y89000I-800J0D01*
G01*
X84100Y86600D02*
G03*
X84100Y86600I-800J0D01*
G01*
X78300Y98600D02*
G03*
X78300Y98600I-800J0D01*
G01*
Y94100D02*
G03*
X78300Y94100I-800J0D01*
G01*
X83600Y103700D02*
G03*
X83600Y103700I-800J0D01*
G01*
X82100Y96500D02*
G03*
X82100Y96500I-800J0D01*
G01*
X87500Y96800D02*
G03*
X87500Y96800I-800J0D01*
G01*
Y102600D02*
G03*
X87500Y102600I-800J0D01*
G01*
Y108400D02*
G03*
X87500Y108400I-800J0D01*
G01*
X94300D02*
G03*
X94300Y108400I-800J0D01*
G01*
Y102600D02*
G03*
X94300Y102600I-800J0D01*
G01*
Y96800D02*
G03*
X94300Y96800I-800J0D01*
G01*
X100800Y108500D02*
G03*
X100800Y108500I-800J0D01*
G01*
Y102700D02*
G03*
X100800Y102700I-800J0D01*
G01*
Y96900D02*
G03*
X100800Y96900I-800J0D01*
G01*
X90800Y110000D02*
G03*
X90800Y110000I-800J0D01*
G01*
X97500Y110000D02*
G03*
X97500Y110000I-800J0D01*
G01*
X82200Y100700D02*
G03*
X82200Y100700I-800J0D01*
G01*
X84655Y98600D02*
G03*
X84655Y98600I-800J0D01*
G01*
X42700Y100900D02*
G03*
X42700Y100900I-800J0D01*
G01*
X58000Y110200D02*
G03*
X58000Y110200I-800J0D01*
G01*
X51300Y110200D02*
G03*
X51300Y110200I-800J0D01*
G01*
X61300Y97100D02*
G03*
X61300Y97100I-800J0D01*
G01*
Y102900D02*
G03*
X61300Y102900I-800J0D01*
G01*
Y108700D02*
G03*
X61300Y108700I-800J0D01*
G01*
X54800Y97000D02*
G03*
X54800Y97000I-800J0D01*
G01*
Y102800D02*
G03*
X54800Y102800I-800J0D01*
G01*
Y108600D02*
G03*
X54800Y108600I-800J0D01*
G01*
X48000D02*
G03*
X48000Y108600I-800J0D01*
G01*
Y102800D02*
G03*
X48000Y102800I-800J0D01*
G01*
Y97000D02*
G03*
X48000Y97000I-800J0D01*
G01*
X42600Y96700D02*
G03*
X42600Y96700I-800J0D01*
G01*
X44100Y103900D02*
G03*
X44100Y103900I-800J0D01*
G01*
X38800Y94300D02*
G03*
X38800Y94300I-800J0D01*
G01*
Y98800D02*
G03*
X38800Y98800I-800J0D01*
G01*
X44600Y86800D02*
G03*
X44600Y86800I-800J0D01*
G01*
X48100Y89200D02*
G03*
X48100Y89200I-800J0D01*
G01*
X41400Y87400D02*
G03*
X41400Y87400I-800J0D01*
G01*
X41500Y93300D02*
G03*
X41500Y93300I-800J0D01*
G01*
X48100Y92600D02*
G03*
X48100Y92600I-800J0D01*
G01*
X44700Y91600D02*
G03*
X44700Y91600I-800J0D01*
G01*
X51500Y86900D02*
G03*
X51500Y86900I-800J0D01*
G01*
X51400Y90900D02*
G03*
X51400Y90900I-800J0D01*
G01*
X58100Y90800D02*
G03*
X58100Y90800I-800J0D01*
G01*
X61400Y93100D02*
G03*
X61400Y93100I-800J0D01*
G01*
X54900Y93000D02*
G03*
X54900Y93000I-800J0D01*
G01*
X55000Y89100D02*
G03*
X55000Y89100I-800J0D01*
G01*
X61400Y88900D02*
G03*
X61400Y88900I-800J0D01*
G01*
X58100Y86900D02*
G03*
X58100Y86900I-800J0D01*
G01*
X74100Y88300D02*
G03*
X74100Y88300I-800J0D01*
G01*
X67700Y88600D02*
G03*
X67700Y88600I-800J0D01*
G01*
X64400Y86500D02*
G03*
X64400Y86500I-800J0D01*
G01*
X64500Y107000D02*
G03*
X64500Y107000I-800J0D01*
G01*
Y101200D02*
G03*
X64500Y101200I-800J0D01*
G01*
Y90600D02*
G03*
X64500Y90600I-800J0D01*
G01*
Y95300D02*
G03*
X64500Y95300I-800J0D01*
G01*
X67700Y93525D02*
G03*
X67700Y93525I-800J0D01*
G01*
X74100Y93325D02*
G03*
X74100Y93325I-800J0D01*
G01*
X70900Y91425D02*
G03*
X70900Y91425I-800J0D01*
G01*
Y96550D02*
G03*
X70900Y96550I-800J0D01*
G01*
Y106800D02*
G03*
X70900Y106800I-800J0D01*
G01*
Y101675D02*
G03*
X70900Y101675I-800J0D01*
G01*
X74100Y98350D02*
G03*
X74100Y98350I-800J0D01*
G01*
Y103375D02*
G03*
X74100Y103375I-800J0D01*
G01*
Y108400D02*
G03*
X74100Y108400I-800J0D01*
G01*
X67600Y98450D02*
G03*
X67600Y98450I-800J0D01*
G01*
Y103375D02*
G03*
X67600Y103375I-800J0D01*
G01*
Y108300D02*
G03*
X67600Y108300I-800J0D01*
G01*
X58100Y95300D02*
G03*
X58100Y95300I-800J0D01*
G01*
X51300Y95200D02*
G03*
X51300Y95200I-800J0D01*
G01*
Y105200D02*
G03*
X51300Y105200I-800J0D01*
G01*
Y100200D02*
G03*
X51300Y100200I-800J0D01*
G01*
X58100Y100267D02*
G03*
X58100Y100267I-800J0D01*
G01*
Y105233D02*
G03*
X58100Y105233I-800J0D01*
G01*
X38675Y89382D02*
G03*
X38675Y89382I-800J0D01*
G01*
X70800Y86300D02*
G03*
X70800Y86300I-800J0D01*
G01*
X31900Y86600D02*
G03*
X31900Y86600I-800J0D01*
G01*
X-225Y89682D02*
G03*
X-225Y89682I-800J0D01*
G01*
X-29700Y106600D02*
G03*
X-29700Y106600I-800J0D01*
G01*
X-22900D02*
G03*
X-22900Y106600I-800J0D01*
G01*
X-29700Y100700D02*
G03*
X-29700Y100700I-800J0D01*
G01*
X-22900D02*
G03*
X-22900Y100700I-800J0D01*
G01*
X19200Y105533D02*
G03*
X19200Y105533I-800J0D01*
G01*
Y100567D02*
G03*
X19200Y100567I-800J0D01*
G01*
X12400Y100500D02*
G03*
X12400Y100500I-800J0D01*
G01*
Y105500D02*
G03*
X12400Y105500I-800J0D01*
G01*
X-22900Y96200D02*
G03*
X-22900Y96200I-800J0D01*
G01*
X-29700Y96100D02*
G03*
X-29700Y96100I-800J0D01*
G01*
X12400Y95500D02*
G03*
X12400Y95500I-800J0D01*
G01*
X19200Y95600D02*
G03*
X19200Y95600I-800J0D01*
G01*
X-19700Y109300D02*
G03*
X-19700Y109300I-800J0D01*
G01*
X-26200Y109200D02*
G03*
X-26200Y109200I-800J0D01*
G01*
X28700Y108600D02*
G03*
X28700Y108600I-800J0D01*
G01*
Y103675D02*
G03*
X28700Y103675I-800J0D01*
G01*
Y98750D02*
G03*
X28700Y98750I-800J0D01*
G01*
X35200Y108700D02*
G03*
X35200Y108700I-800J0D01*
G01*
Y103675D02*
G03*
X35200Y103675I-800J0D01*
G01*
Y98650D02*
G03*
X35200Y98650I-800J0D01*
G01*
X32000Y101975D02*
G03*
X32000Y101975I-800J0D01*
G01*
Y107100D02*
G03*
X32000Y107100I-800J0D01*
G01*
Y96850D02*
G03*
X32000Y96850I-800J0D01*
G01*
Y91725D02*
G03*
X32000Y91725I-800J0D01*
G01*
X35200Y93625D02*
G03*
X35200Y93625I-800J0D01*
G01*
X28800Y93825D02*
G03*
X28800Y93825I-800J0D01*
G01*
X25600Y95600D02*
G03*
X25600Y95600I-800J0D01*
G01*
Y90900D02*
G03*
X25600Y90900I-800J0D01*
G01*
Y101500D02*
G03*
X25600Y101500I-800J0D01*
G01*
Y107300D02*
G03*
X25600Y107300I-800J0D01*
G01*
X25500Y86800D02*
G03*
X25500Y86800I-800J0D01*
G01*
X28800Y88900D02*
G03*
X28800Y88900I-800J0D01*
G01*
X35200Y88600D02*
G03*
X35200Y88600I-800J0D01*
G01*
X19200Y87200D02*
G03*
X19200Y87200I-800J0D01*
G01*
X22500Y89200D02*
G03*
X22500Y89200I-800J0D01*
G01*
X16100Y89400D02*
G03*
X16100Y89400I-800J0D01*
G01*
X16000Y93300D02*
G03*
X16000Y93300I-800J0D01*
G01*
X22500Y93400D02*
G03*
X22500Y93400I-800J0D01*
G01*
X19200Y91100D02*
G03*
X19200Y91100I-800J0D01*
G01*
X12500Y91200D02*
G03*
X12500Y91200I-800J0D01*
G01*
X12600Y87200D02*
G03*
X12600Y87200I-800J0D01*
G01*
X5800Y91900D02*
G03*
X5800Y91900I-800J0D01*
G01*
X9200Y92900D02*
G03*
X9200Y92900I-800J0D01*
G01*
X2600Y93600D02*
G03*
X2600Y93600I-800J0D01*
G01*
X2500Y87700D02*
G03*
X2500Y87700I-800J0D01*
G01*
X9200Y89500D02*
G03*
X9200Y89500I-800J0D01*
G01*
X5700Y87100D02*
G03*
X5700Y87100I-800J0D01*
G01*
X-100Y99100D02*
G03*
X-100Y99100I-800J0D01*
G01*
Y94600D02*
G03*
X-100Y94600I-800J0D01*
G01*
X-36300Y86800D02*
G03*
X-36300Y86800I-800J0D01*
G01*
X-32600Y89200D02*
G03*
X-32600Y89200I-800J0D01*
G01*
X-39600Y88300D02*
G03*
X-39600Y88300I-800J0D01*
G01*
X-39500Y94200D02*
G03*
X-39500Y94200I-800J0D01*
G01*
X-32800Y93500D02*
G03*
X-32800Y93500I-800J0D01*
G01*
X-36400Y91100D02*
G03*
X-36400Y91100I-800J0D01*
G01*
X-29800Y87200D02*
G03*
X-29800Y87200I-800J0D01*
G01*
X-29600Y91200D02*
G03*
X-29600Y91200I-800J0D01*
G01*
X-22900Y91300D02*
G03*
X-22900Y91300I-800J0D01*
G01*
X-19400Y93600D02*
G03*
X-19400Y93600I-800J0D01*
G01*
X-25900Y93500D02*
G03*
X-25900Y93500I-800J0D01*
G01*
X-26000Y89200D02*
G03*
X-26000Y89200I-800J0D01*
G01*
X-19500Y89300D02*
G03*
X-19500Y89300I-800J0D01*
G01*
X-23000Y87300D02*
G03*
X-23000Y87300I-800J0D01*
G01*
X-3800Y87200D02*
G03*
X-3800Y87200I-800J0D01*
G01*
X-10200D02*
G03*
X-10200Y87200I-800J0D01*
G01*
X-6500Y89656D02*
G03*
X-6500Y89656I-800J0D01*
G01*
X-13000D02*
G03*
X-13000Y89656I-800J0D01*
G01*
X-16600Y87400D02*
G03*
X-16600Y87400I-800J0D01*
G01*
X-16500Y107900D02*
G03*
X-16500Y107900I-800J0D01*
G01*
Y102100D02*
G03*
X-16500Y102100I-800J0D01*
G01*
Y91500D02*
G03*
X-16500Y91500I-800J0D01*
G01*
Y96200D02*
G03*
X-16500Y96200I-800J0D01*
G01*
X-13100Y94567D02*
G03*
X-13100Y94567I-800J0D01*
G01*
X-6600D02*
G03*
X-6600Y94567I-800J0D01*
G01*
X-10000Y92111D02*
G03*
X-10000Y92111I-800J0D01*
G01*
X-10100Y97022D02*
G03*
X-10100Y97022I-800J0D01*
G01*
X-3700D02*
G03*
X-3700Y97022I-800J0D01*
G01*
X-3600Y92111D02*
G03*
X-3600Y92111I-800J0D01*
G01*
X-3700Y101933D02*
G03*
X-3700Y101933I-800J0D01*
G01*
Y106844D02*
G03*
X-3700Y106844I-800J0D01*
G01*
X-10100D02*
G03*
X-10100Y106844I-800J0D01*
G01*
Y101933D02*
G03*
X-10100Y101933I-800J0D01*
G01*
X-6700Y99478D02*
G03*
X-6700Y99478I-800J0D01*
G01*
X-6900Y104389D02*
G03*
X-6900Y104389I-800J0D01*
G01*
Y109300D02*
G03*
X-6900Y109300I-800J0D01*
G01*
X-13200Y99478D02*
G03*
X-13200Y99478I-800J0D01*
G01*
X-13400Y104389D02*
G03*
X-13400Y104389I-800J0D01*
G01*
Y109300D02*
G03*
X-13400Y109300I-800J0D01*
G01*
X-36600Y104400D02*
G03*
X-36600Y104400I-800J0D01*
G01*
X5200Y104200D02*
G03*
X5200Y104200I-800J0D01*
G01*
X-38600Y101400D02*
G03*
X-38600Y101400I-800J0D01*
G01*
Y97000D02*
G03*
X-38600Y97000I-800J0D01*
G01*
X3700D02*
G03*
X3700Y97000I-800J0D01*
G01*
Y101200D02*
G03*
X3700Y101200I-800J0D01*
G01*
X9100Y97300D02*
G03*
X9100Y97300I-800J0D01*
G01*
Y103100D02*
G03*
X9100Y103100I-800J0D01*
G01*
Y108900D02*
G03*
X9100Y108900I-800J0D01*
G01*
X15900D02*
G03*
X15900Y108900I-800J0D01*
G01*
Y103100D02*
G03*
X15900Y103100I-800J0D01*
G01*
Y97300D02*
G03*
X15900Y97300I-800J0D01*
G01*
X22400Y109000D02*
G03*
X22400Y109000I-800J0D01*
G01*
Y103200D02*
G03*
X22400Y103200I-800J0D01*
G01*
Y97400D02*
G03*
X22400Y97400I-800J0D01*
G01*
X12400Y110500D02*
G03*
X12400Y110500I-800J0D01*
G01*
X19100Y110500D02*
G03*
X19100Y110500I-800J0D01*
G01*
X-33000Y97600D02*
G03*
X-33000Y97600I-800J0D01*
G01*
Y103400D02*
G03*
X-33000Y103400I-800J0D01*
G01*
Y109200D02*
G03*
X-33000Y109200I-800J0D01*
G01*
X-26200Y103400D02*
G03*
X-26200Y103400I-800J0D01*
G01*
Y97600D02*
G03*
X-26200Y97600I-800J0D01*
G01*
X-19700Y103500D02*
G03*
X-19700Y103500I-800J0D01*
G01*
Y97700D02*
G03*
X-19700Y97700I-800J0D01*
G01*
X-29700Y110800D02*
G03*
X-29700Y110800I-800J0D01*
G01*
X-23000D02*
G03*
X-23000Y110800I-800J0D01*
G01*
X-682Y72543D02*
G03*
X-682Y72543I-800J0D01*
G01*
X38818D02*
G03*
X38818Y72543I-800J0D01*
G01*
X78218D02*
G03*
X78218Y72543I-800J0D01*
G01*
X113100Y65200D02*
G03*
X113100Y65200I-800J0D01*
G01*
X110000Y61600D02*
G03*
X110000Y61600I-800J0D01*
G01*
X110100Y67600D02*
G03*
X110100Y67600I-800J0D01*
G01*
X116500D02*
G03*
X116500Y67600I-800J0D01*
G01*
X97500Y67800D02*
G03*
X97500Y67800I-800J0D01*
G01*
X103900Y61900D02*
G03*
X103900Y61900I-800J0D01*
G01*
X97500Y62000D02*
G03*
X97500Y62000I-800J0D01*
G01*
X90700Y67800D02*
G03*
X90700Y67800I-800J0D01*
G01*
Y62000D02*
G03*
X90700Y62000I-800J0D01*
G01*
X103900Y67700D02*
G03*
X103900Y67700I-800J0D01*
G01*
X100500Y54800D02*
G03*
X100500Y54800I-800J0D01*
G01*
X94000Y54700D02*
G03*
X94000Y54700I-800J0D01*
G01*
X25200Y67800D02*
G03*
X25200Y67800I-800J0D01*
G01*
X31600Y67600D02*
G03*
X31600Y67600I-800J0D01*
G01*
Y61800D02*
G03*
X31600Y61800I-800J0D01*
G01*
X25200Y62000D02*
G03*
X25200Y62000I-800J0D01*
G01*
X-200Y54200D02*
G03*
X-200Y54200I-800J0D01*
G01*
X-26000Y54400D02*
G03*
X-26000Y54400I-800J0D01*
G01*
X-16500Y61700D02*
G03*
X-16500Y61700I-800J0D01*
G01*
Y67700D02*
G03*
X-16500Y67700I-800J0D01*
G01*
X-22700Y61900D02*
G03*
X-22700Y61900I-800J0D01*
G01*
Y67800D02*
G03*
X-22700Y67800I-800J0D01*
G01*
X-29400Y62000D02*
G03*
X-29400Y62000I-800J0D01*
G01*
X-29500Y67900D02*
G03*
X-29500Y67900I-800J0D01*
G01*
X116464Y62936D02*
G03*
X116464Y62936I-800J0D01*
G01*
X84000Y51400D02*
G03*
X84000Y51400I-800J0D01*
G01*
X81600Y58900D02*
G03*
X81600Y58900I-800J0D01*
G01*
X44800Y51700D02*
G03*
X44800Y51700I-800J0D01*
G01*
X3600Y59000D02*
G03*
X3600Y59000I-800J0D01*
G01*
X3300Y55800D02*
G03*
X3300Y55800I-800J0D01*
G01*
X6100Y51900D02*
G03*
X6100Y51900I-800J0D01*
G01*
X97300Y57300D02*
G03*
X97300Y57300I-800J0D01*
G01*
Y51500D02*
G03*
X97300Y51500I-800J0D01*
G01*
X90500Y57300D02*
G03*
X90500Y57300I-800J0D01*
G01*
Y51500D02*
G03*
X90500Y51500I-800J0D01*
G01*
X87100Y54800D02*
G03*
X87100Y54800I-800J0D01*
G01*
X58200Y57400D02*
G03*
X58200Y57400I-800J0D01*
G01*
Y51600D02*
G03*
X58200Y51600I-800J0D01*
G01*
X51400Y57400D02*
G03*
X51400Y57400I-800J0D01*
G01*
Y51600D02*
G03*
X51400Y51600I-800J0D01*
G01*
X61200Y54900D02*
G03*
X61200Y54900I-800J0D01*
G01*
X54700Y54800D02*
G03*
X54700Y54800I-800J0D01*
G01*
X47900D02*
G03*
X47900Y54800I-800J0D01*
G01*
X19300Y57600D02*
G03*
X19300Y57600I-800J0D01*
G01*
Y51800D02*
G03*
X19300Y51800I-800J0D01*
G01*
X12500Y57600D02*
G03*
X12500Y57600I-800J0D01*
G01*
Y51800D02*
G03*
X12500Y51800I-800J0D01*
G01*
X22500Y54700D02*
G03*
X22500Y54700I-800J0D01*
G01*
X16000Y54600D02*
G03*
X16000Y54600I-800J0D01*
G01*
X9200D02*
G03*
X9200Y54600I-800J0D01*
G01*
X103600Y72000D02*
G03*
X103600Y72000I-800J0D01*
G01*
X103700Y54300D02*
G03*
X103700Y54300I-800J0D01*
G01*
Y57200D02*
G03*
X103700Y57200I-800J0D01*
G01*
X116400Y71800D02*
G03*
X116400Y71800I-800J0D01*
G01*
X110000D02*
G03*
X110000Y71800I-800J0D01*
G01*
X113300Y70300D02*
G03*
X113300Y70300I-800J0D01*
G01*
X106800Y58600D02*
G03*
X106800Y58600I-800J0D01*
G01*
Y64400D02*
G03*
X106800Y64400I-800J0D01*
G01*
Y70200D02*
G03*
X106800Y70200I-800J0D01*
G01*
X64400Y72400D02*
G03*
X64400Y72400I-800J0D01*
G01*
Y67900D02*
G03*
X64400Y67900I-800J0D01*
G01*
Y62100D02*
G03*
X64400Y62100I-800J0D01*
G01*
X64500Y51800D02*
G03*
X64500Y51800I-800J0D01*
G01*
Y57600D02*
G03*
X64500Y57600I-800J0D01*
G01*
X67500Y54400D02*
G03*
X67500Y54400I-800J0D01*
G01*
X74000Y54500D02*
G03*
X74000Y54500I-800J0D01*
G01*
X70900Y51600D02*
G03*
X70900Y51600I-800J0D01*
G01*
X70800Y56400D02*
G03*
X70800Y56400I-800J0D01*
G01*
X77300Y51500D02*
G03*
X77300Y51500I-800J0D01*
G01*
Y57400D02*
G03*
X77300Y57400I-800J0D01*
G01*
X70800Y67700D02*
G03*
X70800Y67700I-800J0D01*
G01*
Y61900D02*
G03*
X70800Y61900I-800J0D01*
G01*
Y72200D02*
G03*
X70800Y72200I-800J0D01*
G01*
X74100Y59100D02*
G03*
X74100Y59100I-800J0D01*
G01*
Y64900D02*
G03*
X74100Y64900I-800J0D01*
G01*
Y70700D02*
G03*
X74100Y70700I-800J0D01*
G01*
X67600Y59000D02*
G03*
X67600Y59000I-800J0D01*
G01*
Y64800D02*
G03*
X67600Y64800I-800J0D01*
G01*
Y70600D02*
G03*
X67600Y70600I-800J0D01*
G01*
X80500Y55700D02*
G03*
X80500Y55700I-800J0D01*
G01*
X25300Y72400D02*
G03*
X25300Y72400I-800J0D01*
G01*
X25400Y51800D02*
G03*
X25400Y51800I-800J0D01*
G01*
Y57600D02*
G03*
X25400Y57600I-800J0D01*
G01*
X28700Y54100D02*
G03*
X28700Y54100I-800J0D01*
G01*
X35000D02*
G03*
X35000Y54100I-800J0D01*
G01*
X31800Y51600D02*
G03*
X31800Y51600I-800J0D01*
G01*
X31700Y56400D02*
G03*
X31700Y56400I-800J0D01*
G01*
X38200Y57400D02*
G03*
X38200Y57400I-800J0D01*
G01*
Y51600D02*
G03*
X38200Y51600I-800J0D01*
G01*
X31700Y72200D02*
G03*
X31700Y72200I-800J0D01*
G01*
X35000Y59100D02*
G03*
X35000Y59100I-800J0D01*
G01*
Y64900D02*
G03*
X35000Y64900I-800J0D01*
G01*
Y70700D02*
G03*
X35000Y70700I-800J0D01*
G01*
X28500Y59000D02*
G03*
X28500Y59000I-800J0D01*
G01*
Y64800D02*
G03*
X28500Y64800I-800J0D01*
G01*
Y70600D02*
G03*
X28500Y70600I-800J0D01*
G01*
X41400Y55900D02*
G03*
X41400Y55900I-800J0D01*
G01*
X-200Y58900D02*
G03*
X-200Y58900I-800J0D01*
G01*
X-13100Y70600D02*
G03*
X-13100Y70600I-800J0D01*
G01*
Y64800D02*
G03*
X-13100Y64800I-800J0D01*
G01*
X-13300Y59700D02*
G03*
X-13300Y59700I-800J0D01*
G01*
X-6600Y70700D02*
G03*
X-6600Y70700I-800J0D01*
G01*
Y64900D02*
G03*
X-6600Y64900I-800J0D01*
G01*
Y59100D02*
G03*
X-6600Y59100I-800J0D01*
G01*
X-9900Y72200D02*
G03*
X-9900Y72200I-800J0D01*
G01*
X-10000Y61900D02*
G03*
X-10000Y61900I-800J0D01*
G01*
Y67700D02*
G03*
X-10000Y67700I-800J0D01*
G01*
X-3500Y72200D02*
G03*
X-3500Y72200I-800J0D01*
G01*
Y67500D02*
G03*
X-3500Y67500I-800J0D01*
G01*
Y61700D02*
G03*
X-3500Y61700I-800J0D01*
G01*
X-3600Y56000D02*
G03*
X-3600Y56000I-800J0D01*
G01*
X-3400Y51600D02*
G03*
X-3400Y51600I-800J0D01*
G01*
X-10000Y56000D02*
G03*
X-10000Y56000I-800J0D01*
G01*
X-9800Y51600D02*
G03*
X-9800Y51600I-800J0D01*
G01*
X-6500Y54400D02*
G03*
X-6500Y54400I-800J0D01*
G01*
X-13300D02*
G03*
X-13300Y54400I-800J0D01*
G01*
X-32800D02*
G03*
X-32800Y54400I-800J0D01*
G01*
X-19400D02*
G03*
X-19400Y54400I-800J0D01*
G01*
X-29400Y51600D02*
G03*
X-29400Y51600I-800J0D01*
G01*
Y57600D02*
G03*
X-29400Y57600I-800J0D01*
G01*
X-22600Y51600D02*
G03*
X-22600Y51600I-800J0D01*
G01*
Y57600D02*
G03*
X-22600Y57600I-800J0D01*
G01*
X-16200D02*
G03*
X-16200Y57600I-800J0D01*
G01*
Y51600D02*
G03*
X-16200Y51600I-800J0D01*
G01*
X-16300Y72400D02*
G03*
X-16300Y72400I-800J0D01*
G01*
X84000Y60500D02*
G03*
X84000Y60500I-800J0D01*
G01*
X81500Y62600D02*
G03*
X81500Y62600I-800J0D01*
G01*
X42400Y58700D02*
G03*
X42400Y58700I-800J0D01*
G01*
X44900Y61200D02*
G03*
X44900Y61200I-800J0D01*
G01*
X42300Y62900D02*
G03*
X42300Y62900I-800J0D01*
G01*
X6300Y60800D02*
G03*
X6300Y60800I-800J0D01*
G01*
X3700Y63200D02*
G03*
X3700Y63200I-800J0D01*
G01*
X-38200Y62800D02*
G03*
X-38200Y62800I-800J0D01*
G01*
X-35700Y60900D02*
G03*
X-35700Y60900I-800J0D01*
G01*
X-38300Y58600D02*
G03*
X-38300Y58600I-800J0D01*
G01*
X87200Y58900D02*
G03*
X87200Y58900I-800J0D01*
G01*
Y64700D02*
G03*
X87200Y64700I-800J0D01*
G01*
Y70500D02*
G03*
X87200Y70500I-800J0D01*
G01*
X94000D02*
G03*
X94000Y70500I-800J0D01*
G01*
Y64700D02*
G03*
X94000Y64700I-800J0D01*
G01*
Y58900D02*
G03*
X94000Y58900I-800J0D01*
G01*
X100500Y70600D02*
G03*
X100500Y70600I-800J0D01*
G01*
Y64800D02*
G03*
X100500Y64800I-800J0D01*
G01*
Y59000D02*
G03*
X100500Y59000I-800J0D01*
G01*
X90500Y72100D02*
G03*
X90500Y72100I-800J0D01*
G01*
X97200D02*
G03*
X97200Y72100I-800J0D01*
G01*
X48100Y59200D02*
G03*
X48100Y59200I-800J0D01*
G01*
Y65000D02*
G03*
X48100Y65000I-800J0D01*
G01*
Y70800D02*
G03*
X48100Y70800I-800J0D01*
G01*
X54900D02*
G03*
X54900Y70800I-800J0D01*
G01*
Y65000D02*
G03*
X54900Y65000I-800J0D01*
G01*
Y59200D02*
G03*
X54900Y59200I-800J0D01*
G01*
X61400Y70900D02*
G03*
X61400Y70900I-800J0D01*
G01*
Y65100D02*
G03*
X61400Y65100I-800J0D01*
G01*
Y59300D02*
G03*
X61400Y59300I-800J0D01*
G01*
X51400Y72400D02*
G03*
X51400Y72400I-800J0D01*
G01*
X58100D02*
G03*
X58100Y72400I-800J0D01*
G01*
X51300Y62100D02*
G03*
X51300Y62100I-800J0D01*
G01*
Y67900D02*
G03*
X51300Y67900I-800J0D01*
G01*
X58100Y62100D02*
G03*
X58100Y62100I-800J0D01*
G01*
Y67900D02*
G03*
X58100Y67900I-800J0D01*
G01*
X9200Y59200D02*
G03*
X9200Y59200I-800J0D01*
G01*
Y65000D02*
G03*
X9200Y65000I-800J0D01*
G01*
Y70800D02*
G03*
X9200Y70800I-800J0D01*
G01*
X16000D02*
G03*
X16000Y70800I-800J0D01*
G01*
Y65000D02*
G03*
X16000Y65000I-800J0D01*
G01*
Y59200D02*
G03*
X16000Y59200I-800J0D01*
G01*
X22500Y70900D02*
G03*
X22500Y70900I-800J0D01*
G01*
Y65100D02*
G03*
X22500Y65100I-800J0D01*
G01*
Y59300D02*
G03*
X22500Y59300I-800J0D01*
G01*
X12500Y72400D02*
G03*
X12500Y72400I-800J0D01*
G01*
X19200D02*
G03*
X19200Y72400I-800J0D01*
G01*
X12300Y62000D02*
G03*
X12300Y62000I-800J0D01*
G01*
Y67800D02*
G03*
X12300Y67800I-800J0D01*
G01*
X19100Y62000D02*
G03*
X19100Y62000I-800J0D01*
G01*
Y67800D02*
G03*
X19100Y67800I-800J0D01*
G01*
X-22700Y72400D02*
G03*
X-22700Y72400I-800J0D01*
G01*
X-29400D02*
G03*
X-29400Y72400I-800J0D01*
G01*
X-19400Y59300D02*
G03*
X-19400Y59300I-800J0D01*
G01*
Y65100D02*
G03*
X-19400Y65100I-800J0D01*
G01*
Y70900D02*
G03*
X-19400Y70900I-800J0D01*
G01*
X-25900Y59200D02*
G03*
X-25900Y59200I-800J0D01*
G01*
Y65000D02*
G03*
X-25900Y65000I-800J0D01*
G01*
Y70800D02*
G03*
X-25900Y70800I-800J0D01*
G01*
X-32700D02*
G03*
X-32700Y70800I-800J0D01*
G01*
Y65000D02*
G03*
X-32700Y65000I-800J0D01*
G01*
Y59200D02*
G03*
X-32700Y59200I-800J0D01*
G01*
X92400Y44500D02*
G03*
X92400Y44500I-800J0D01*
G01*
X88161Y48500D02*
G03*
X88161Y48500I-800J0D01*
G01*
X92443Y47200D02*
G03*
X92443Y47200I-800J0D01*
G01*
X88178Y45600D02*
G03*
X88178Y45600I-800J0D01*
G01*
X-27439Y44500D02*
G03*
X-27439Y44500I-800J0D01*
G01*
X66768D02*
G03*
X66768Y44500I-800J0D01*
G01*
X15382D02*
G03*
X15382Y44500I-800J0D01*
G01*
X23946D02*
G03*
X23946Y44500I-800J0D01*
G01*
X6818D02*
G03*
X6818Y44500I-800J0D01*
G01*
X49639D02*
G03*
X49639Y44500I-800J0D01*
G01*
X32511D02*
G03*
X32511Y44500I-800J0D01*
G01*
X-10311D02*
G03*
X-10311Y44500I-800J0D01*
G01*
X95161Y46000D02*
G03*
X95161Y46000I-800J0D01*
G01*
X41075Y44600D02*
G03*
X41075Y44600I-800J0D01*
G01*
X75332D02*
G03*
X75332Y44600I-800J0D01*
G01*
X-1746D02*
G03*
X-1746Y44600I-800J0D01*
G01*
X58204D02*
G03*
X58204Y44600I-800J0D01*
G01*
X83896Y44500D02*
G03*
X83896Y44500I-800J0D01*
G01*
Y47400D02*
G03*
X83896Y47400I-800J0D01*
G01*
X97861Y48400D02*
G03*
X97861Y48400I-800J0D01*
G01*
X66768Y47400D02*
G03*
X66768Y47400I-800J0D01*
G01*
X75332Y47500D02*
G03*
X75332Y47500I-800J0D01*
G01*
X71050Y45900D02*
G03*
X71050Y45900I-800J0D01*
G01*
Y48800D02*
G03*
X71050Y48800I-800J0D01*
G01*
X79614Y48700D02*
G03*
X79614Y48700I-800J0D01*
G01*
Y45800D02*
G03*
X79614Y45800I-800J0D01*
G01*
X49639Y47400D02*
G03*
X49639Y47400I-800J0D01*
G01*
X58204Y47500D02*
G03*
X58204Y47500I-800J0D01*
G01*
X45357Y45900D02*
G03*
X45357Y45900I-800J0D01*
G01*
Y48800D02*
G03*
X45357Y48800I-800J0D01*
G01*
X53921Y45900D02*
G03*
X53921Y45900I-800J0D01*
G01*
Y48800D02*
G03*
X53921Y48800I-800J0D01*
G01*
X62486Y48700D02*
G03*
X62486Y48700I-800J0D01*
G01*
Y45800D02*
G03*
X62486Y45800I-800J0D01*
G01*
X23946Y47400D02*
G03*
X23946Y47400I-800J0D01*
G01*
X32511D02*
G03*
X32511Y47400I-800J0D01*
G01*
X41075Y47500D02*
G03*
X41075Y47500I-800J0D01*
G01*
X28229Y45900D02*
G03*
X28229Y45900I-800J0D01*
G01*
Y48800D02*
G03*
X28229Y48800I-800J0D01*
G01*
X36793Y45900D02*
G03*
X36793Y45900I-800J0D01*
G01*
Y48800D02*
G03*
X36793Y48800I-800J0D01*
G01*
X6818Y47400D02*
G03*
X6818Y47400I-800J0D01*
G01*
X15382D02*
G03*
X15382Y47400I-800J0D01*
G01*
X11100Y45900D02*
G03*
X11100Y45900I-800J0D01*
G01*
Y48800D02*
G03*
X11100Y48800I-800J0D01*
G01*
X19664Y48700D02*
G03*
X19664Y48700I-800J0D01*
G01*
Y45800D02*
G03*
X19664Y45800I-800J0D01*
G01*
X-10311Y47400D02*
G03*
X-10311Y47400I-800J0D01*
G01*
X-1746Y47500D02*
G03*
X-1746Y47500I-800J0D01*
G01*
X-6029Y45900D02*
G03*
X-6029Y45900I-800J0D01*
G01*
Y48800D02*
G03*
X-6029Y48800I-800J0D01*
G01*
X2536Y48700D02*
G03*
X2536Y48700I-800J0D01*
G01*
Y45800D02*
G03*
X2536Y45800I-800J0D01*
G01*
X-27439Y47400D02*
G03*
X-27439Y47400I-800J0D01*
G01*
X-18875Y47500D02*
G03*
X-18875Y47500I-800J0D01*
G01*
Y44600D02*
G03*
X-18875Y44600I-800J0D01*
G01*
X-23157Y45900D02*
G03*
X-23157Y45900I-800J0D01*
G01*
Y48800D02*
G03*
X-23157Y48800I-800J0D01*
G01*
X-14593Y48700D02*
G03*
X-14593Y48700I-800J0D01*
G01*
Y45800D02*
G03*
X-14593Y45800I-800J0D01*
G01*
X67034Y26643D02*
G03*
X67034Y26643I-800J0D01*
G01*
Y29542D02*
G03*
X67034Y29542I-800J0D01*
G01*
X71380Y28043D02*
G03*
X71380Y28043I-800J0D01*
G01*
Y30942D02*
G03*
X71380Y30942I-800J0D01*
G01*
X80072D02*
G03*
X80072Y30942I-800J0D01*
G01*
Y28043D02*
G03*
X80072Y28043I-800J0D01*
G01*
X49649Y26643D02*
G03*
X49649Y26643I-800J0D01*
G01*
Y29542D02*
G03*
X49649Y29542I-800J0D01*
G01*
X58341Y29643D02*
G03*
X58341Y29643I-800J0D01*
G01*
Y26743D02*
G03*
X58341Y26743I-800J0D01*
G01*
X53995Y28043D02*
G03*
X53995Y28043I-800J0D01*
G01*
Y30942D02*
G03*
X53995Y30942I-800J0D01*
G01*
X62688Y30843D02*
G03*
X62688Y30843I-800J0D01*
G01*
Y27942D02*
G03*
X62688Y27942I-800J0D01*
G01*
X32265Y29542D02*
G03*
X32265Y29542I-800J0D01*
G01*
Y26643D02*
G03*
X32265Y26643I-800J0D01*
G01*
X40957Y29643D02*
G03*
X40957Y29643I-800J0D01*
G01*
Y26743D02*
G03*
X40957Y26743I-800J0D01*
G01*
X36611Y28043D02*
G03*
X36611Y28043I-800J0D01*
G01*
Y30942D02*
G03*
X36611Y30942I-800J0D01*
G01*
X45303Y30843D02*
G03*
X45303Y30843I-800J0D01*
G01*
Y27942D02*
G03*
X45303Y27942I-800J0D01*
G01*
X6188Y26643D02*
G03*
X6188Y26643I-800J0D01*
G01*
Y29542D02*
G03*
X6188Y29542I-800J0D01*
G01*
X14880D02*
G03*
X14880Y29542I-800J0D01*
G01*
Y26643D02*
G03*
X14880Y26643I-800J0D01*
G01*
X23572Y29643D02*
G03*
X23572Y29643I-800J0D01*
G01*
Y26743D02*
G03*
X23572Y26743I-800J0D01*
G01*
X10534Y28043D02*
G03*
X10534Y28043I-800J0D01*
G01*
Y30942D02*
G03*
X10534Y30942I-800J0D01*
G01*
X19226Y28043D02*
G03*
X19226Y28043I-800J0D01*
G01*
Y30942D02*
G03*
X19226Y30942I-800J0D01*
G01*
X27918Y30843D02*
G03*
X27918Y30843I-800J0D01*
G01*
Y27942D02*
G03*
X27918Y27942I-800J0D01*
G01*
X-11197Y26643D02*
G03*
X-11197Y26643I-800J0D01*
G01*
Y29542D02*
G03*
X-11197Y29542I-800J0D01*
G01*
X-2505D02*
G03*
X-2505Y29542I-800J0D01*
G01*
Y26643D02*
G03*
X-2505Y26643I-800J0D01*
G01*
X-6851Y28043D02*
G03*
X-6851Y28043I-800J0D01*
G01*
Y30942D02*
G03*
X-6851Y30942I-800J0D01*
G01*
X1842Y28043D02*
G03*
X1842Y28043I-800J0D01*
G01*
Y30942D02*
G03*
X1842Y30942I-800J0D01*
G01*
X-28582Y26643D02*
G03*
X-28582Y26643I-800J0D01*
G01*
Y29542D02*
G03*
X-28582Y29542I-800J0D01*
G01*
X-19889Y29643D02*
G03*
X-19889Y29643I-800J0D01*
G01*
Y26743D02*
G03*
X-19889Y26743I-800J0D01*
G01*
X-24235Y28043D02*
G03*
X-24235Y28043I-800J0D01*
G01*
Y30942D02*
G03*
X-24235Y30942I-800J0D01*
G01*
X-15543Y30843D02*
G03*
X-15543Y30843I-800J0D01*
G01*
Y27942D02*
G03*
X-15543Y27942I-800J0D01*
G01*
X93060Y17343D02*
G03*
X93060Y17343I-800J0D01*
G01*
X101543Y31256D02*
G03*
X101543Y31256I-800J0D01*
G01*
Y25256D02*
G03*
X101543Y25256I-800J0D01*
G01*
Y19456D02*
G03*
X101543Y19456I-800J0D01*
G01*
Y28156D02*
G03*
X101543Y28156I-800J0D01*
G01*
Y22356D02*
G03*
X101543Y22356I-800J0D01*
G01*
X110027Y27956D02*
G03*
X110027Y27956I-800J0D01*
G01*
Y22156D02*
G03*
X110027Y22156I-800J0D01*
G01*
Y25056D02*
G03*
X110027Y25056I-800J0D01*
G01*
Y19256D02*
G03*
X110027Y19256I-800J0D01*
G01*
X113818Y20843D02*
G03*
X113818Y20843I-800J0D01*
G01*
Y23742D02*
G03*
X113818Y23742I-800J0D01*
G01*
X105785Y17856D02*
G03*
X105785Y17856I-800J0D01*
G01*
Y20756D02*
G03*
X105785Y20756I-800J0D01*
G01*
Y26556D02*
G03*
X105785Y26556I-800J0D01*
G01*
Y23656D02*
G03*
X105785Y23656I-800J0D01*
G01*
Y29456D02*
G03*
X105785Y29456I-800J0D01*
G01*
X88818Y18943D02*
G03*
X88818Y18943I-800J0D01*
G01*
Y21843D02*
G03*
X88818Y21843I-800J0D01*
G01*
Y27643D02*
G03*
X88818Y27643I-800J0D01*
G01*
Y24743D02*
G03*
X88818Y24743I-800J0D01*
G01*
Y30542D02*
G03*
X88818Y30542I-800J0D01*
G01*
X97302Y29856D02*
G03*
X97302Y29856I-800J0D01*
G01*
Y24056D02*
G03*
X97302Y24056I-800J0D01*
G01*
Y26956D02*
G03*
X97302Y26956I-800J0D01*
G01*
Y21156D02*
G03*
X97302Y21156I-800J0D01*
G01*
Y18256D02*
G03*
X97302Y18256I-800J0D01*
G01*
X93060Y32142D02*
G03*
X93060Y32142I-800J0D01*
G01*
Y20343D02*
G03*
X93060Y20343I-800J0D01*
G01*
Y26142D02*
G03*
X93060Y26142I-800J0D01*
G01*
Y23243D02*
G03*
X93060Y23243I-800J0D01*
G01*
Y29043D02*
G03*
X93060Y29043I-800J0D01*
G01*
X75726Y26743D02*
G03*
X75726Y26743I-800J0D01*
G01*
Y29643D02*
G03*
X75726Y29643I-800J0D01*
G01*
X84418D02*
G03*
X84418Y29643I-800J0D01*
G01*
Y26743D02*
G03*
X84418Y26743I-800J0D01*
G01*
X-23200Y12200D02*
G03*
X-23200Y12200I-800J0D01*
G01*
X-29900D02*
G03*
X-29900Y12200I-800J0D01*
G01*
X-19900Y-900D02*
G03*
X-19900Y-900I-800J0D01*
G01*
Y4900D02*
G03*
X-19900Y4900I-800J0D01*
G01*
X-26400Y-1000D02*
G03*
X-26400Y-1000I-800J0D01*
G01*
Y4800D02*
G03*
X-26400Y4800I-800J0D01*
G01*
X-33200Y10600D02*
G03*
X-33200Y10600I-800J0D01*
G01*
Y4800D02*
G03*
X-33200Y4800I-800J0D01*
G01*
Y-1000D02*
G03*
X-33200Y-1000I-800J0D01*
G01*
X18900Y11900D02*
G03*
X18900Y11900I-800J0D01*
G01*
X12200Y11900D02*
G03*
X12200Y11900I-800J0D01*
G01*
X22200Y-1200D02*
G03*
X22200Y-1200I-800J0D01*
G01*
Y4600D02*
G03*
X22200Y4600I-800J0D01*
G01*
Y10400D02*
G03*
X22200Y10400I-800J0D01*
G01*
X15700Y-1300D02*
G03*
X15700Y-1300I-800J0D01*
G01*
Y4500D02*
G03*
X15700Y4500I-800J0D01*
G01*
Y10300D02*
G03*
X15700Y10300I-800J0D01*
G01*
X8900D02*
G03*
X8900Y10300I-800J0D01*
G01*
Y4500D02*
G03*
X8900Y4500I-800J0D01*
G01*
Y-1300D02*
G03*
X8900Y-1300I-800J0D01*
G01*
X6228Y500D02*
G03*
X6228Y500I-800J0D01*
G01*
X3500Y2600D02*
G03*
X3500Y2600I-800J0D01*
G01*
Y-1600D02*
G03*
X3500Y-1600I-800J0D01*
G01*
X-38800D02*
G03*
X-38800Y-1600I-800J0D01*
G01*
Y2800D02*
G03*
X-38800Y2800I-800J0D01*
G01*
X5000Y5600D02*
G03*
X5000Y5600I-800J0D01*
G01*
X-36800Y5800D02*
G03*
X-36800Y5800I-800J0D01*
G01*
X-13600Y10700D02*
G03*
X-13600Y10700I-800J0D01*
G01*
Y5789D02*
G03*
X-13600Y5789I-800J0D01*
G01*
X-13400Y878D02*
G03*
X-13400Y878I-800J0D01*
G01*
X-7100Y10700D02*
G03*
X-7100Y10700I-800J0D01*
G01*
Y5789D02*
G03*
X-7100Y5789I-800J0D01*
G01*
X-6900Y878D02*
G03*
X-6900Y878I-800J0D01*
G01*
X-10300Y3333D02*
G03*
X-10300Y3333I-800J0D01*
G01*
Y8244D02*
G03*
X-10300Y8244I-800J0D01*
G01*
X-3900D02*
G03*
X-3900Y8244I-800J0D01*
G01*
Y3333D02*
G03*
X-3900Y3333I-800J0D01*
G01*
X-3800Y-6489D02*
G03*
X-3800Y-6489I-800J0D01*
G01*
X-3900Y-1578D02*
G03*
X-3900Y-1578I-800J0D01*
G01*
X-10300D02*
G03*
X-10300Y-1578I-800J0D01*
G01*
X-10200Y-6489D02*
G03*
X-10200Y-6489I-800J0D01*
G01*
X-6800Y-4033D02*
G03*
X-6800Y-4033I-800J0D01*
G01*
X-13300D02*
G03*
X-13300Y-4033I-800J0D01*
G01*
X-16700Y-2400D02*
G03*
X-16700Y-2400I-800J0D01*
G01*
Y-7100D02*
G03*
X-16700Y-7100I-800J0D01*
G01*
Y3500D02*
G03*
X-16700Y3500I-800J0D01*
G01*
Y9300D02*
G03*
X-16700Y9300I-800J0D01*
G01*
X-16800Y-11200D02*
G03*
X-16800Y-11200I-800J0D01*
G01*
X-13200Y-8945D02*
G03*
X-13200Y-8945I-800J0D01*
G01*
X-6700D02*
G03*
X-6700Y-8945I-800J0D01*
G01*
X-10400Y-11400D02*
G03*
X-10400Y-11400I-800J0D01*
G01*
X-4000D02*
G03*
X-4000Y-11400I-800J0D01*
G01*
X-23200Y-11300D02*
G03*
X-23200Y-11300I-800J0D01*
G01*
X-19700Y-9300D02*
G03*
X-19700Y-9300I-800J0D01*
G01*
X-26200Y-9400D02*
G03*
X-26200Y-9400I-800J0D01*
G01*
X-26100Y-5100D02*
G03*
X-26100Y-5100I-800J0D01*
G01*
X-19600Y-5000D02*
G03*
X-19600Y-5000I-800J0D01*
G01*
X-23100Y-7300D02*
G03*
X-23100Y-7300I-800J0D01*
G01*
X-29800Y-7400D02*
G03*
X-29800Y-7400I-800J0D01*
G01*
X-30000Y-11400D02*
G03*
X-30000Y-11400I-800J0D01*
G01*
X-36600Y-7500D02*
G03*
X-36600Y-7500I-800J0D01*
G01*
X-33000Y-5100D02*
G03*
X-33000Y-5100I-800J0D01*
G01*
X-39700Y-4400D02*
G03*
X-39700Y-4400I-800J0D01*
G01*
X-39800Y-10300D02*
G03*
X-39800Y-10300I-800J0D01*
G01*
X-32800Y-9400D02*
G03*
X-32800Y-9400I-800J0D01*
G01*
X-36500Y-11800D02*
G03*
X-36500Y-11800I-800J0D01*
G01*
X-300Y-4000D02*
G03*
X-300Y-4000I-800J0D01*
G01*
Y500D02*
G03*
X-300Y500I-800J0D01*
G01*
X5500Y-11500D02*
G03*
X5500Y-11500I-800J0D01*
G01*
X9000Y-9100D02*
G03*
X9000Y-9100I-800J0D01*
G01*
X2300Y-10900D02*
G03*
X2300Y-10900I-800J0D01*
G01*
X2400Y-5000D02*
G03*
X2400Y-5000I-800J0D01*
G01*
X9000Y-5700D02*
G03*
X9000Y-5700I-800J0D01*
G01*
X5600Y-6700D02*
G03*
X5600Y-6700I-800J0D01*
G01*
X12400Y-11400D02*
G03*
X12400Y-11400I-800J0D01*
G01*
X12300Y-7400D02*
G03*
X12300Y-7400I-800J0D01*
G01*
X19000Y-7500D02*
G03*
X19000Y-7500I-800J0D01*
G01*
X22300Y-5200D02*
G03*
X22300Y-5200I-800J0D01*
G01*
X15800Y-5300D02*
G03*
X15800Y-5300I-800J0D01*
G01*
X15900Y-9200D02*
G03*
X15900Y-9200I-800J0D01*
G01*
X22300Y-9400D02*
G03*
X22300Y-9400I-800J0D01*
G01*
X19000Y-11400D02*
G03*
X19000Y-11400I-800J0D01*
G01*
X35000Y-10000D02*
G03*
X35000Y-10000I-800J0D01*
G01*
X28600Y-9700D02*
G03*
X28600Y-9700I-800J0D01*
G01*
X25300Y-11800D02*
G03*
X25300Y-11800I-800J0D01*
G01*
X25400Y8700D02*
G03*
X25400Y8700I-800J0D01*
G01*
Y2900D02*
G03*
X25400Y2900I-800J0D01*
G01*
Y-7700D02*
G03*
X25400Y-7700I-800J0D01*
G01*
Y-3000D02*
G03*
X25400Y-3000I-800J0D01*
G01*
X28600Y-4775D02*
G03*
X28600Y-4775I-800J0D01*
G01*
X35000Y-4975D02*
G03*
X35000Y-4975I-800J0D01*
G01*
X31800Y-6875D02*
G03*
X31800Y-6875I-800J0D01*
G01*
Y-1750D02*
G03*
X31800Y-1750I-800J0D01*
G01*
Y8500D02*
G03*
X31800Y8500I-800J0D01*
G01*
Y3375D02*
G03*
X31800Y3375I-800J0D01*
G01*
X35000Y50D02*
G03*
X35000Y50I-800J0D01*
G01*
Y5075D02*
G03*
X35000Y5075I-800J0D01*
G01*
Y10100D02*
G03*
X35000Y10100I-800J0D01*
G01*
X28500Y150D02*
G03*
X28500Y150I-800J0D01*
G01*
Y5075D02*
G03*
X28500Y5075I-800J0D01*
G01*
Y10000D02*
G03*
X28500Y10000I-800J0D01*
G01*
X-26400Y10600D02*
G03*
X-26400Y10600I-800J0D01*
G01*
X-19900Y10700D02*
G03*
X-19900Y10700I-800J0D01*
G01*
X-35900Y400D02*
G03*
X-35900Y400I-800J0D01*
G01*
X19000Y-3000D02*
G03*
X19000Y-3000I-800J0D01*
G01*
X12200Y-3100D02*
G03*
X12200Y-3100I-800J0D01*
G01*
X-29900Y-2500D02*
G03*
X-29900Y-2500I-800J0D01*
G01*
X-23100Y-2400D02*
G03*
X-23100Y-2400I-800J0D01*
G01*
X12200Y6900D02*
G03*
X12200Y6900I-800J0D01*
G01*
Y1900D02*
G03*
X12200Y1900I-800J0D01*
G01*
X19000Y1967D02*
G03*
X19000Y1967I-800J0D01*
G01*
Y6933D02*
G03*
X19000Y6933I-800J0D01*
G01*
X-23100Y2100D02*
G03*
X-23100Y2100I-800J0D01*
G01*
X-29900D02*
G03*
X-29900Y2100I-800J0D01*
G01*
X-23100Y8000D02*
G03*
X-23100Y8000I-800J0D01*
G01*
X-29900D02*
G03*
X-29900Y8000I-800J0D01*
G01*
X-425Y-8918D02*
G03*
X-425Y-8918I-800J0D01*
G01*
X31700Y-12000D02*
G03*
X31700Y-12000I-800J0D01*
G01*
X70600Y-12300D02*
G03*
X70600Y-12300I-800J0D01*
G01*
X38475Y-9218D02*
G03*
X38475Y-9218I-800J0D01*
G01*
X57900Y6633D02*
G03*
X57900Y6633I-800J0D01*
G01*
Y1667D02*
G03*
X57900Y1667I-800J0D01*
G01*
X51100Y1600D02*
G03*
X51100Y1600I-800J0D01*
G01*
Y6600D02*
G03*
X51100Y6600I-800J0D01*
G01*
Y-3400D02*
G03*
X51100Y-3400I-800J0D01*
G01*
X57900Y-3300D02*
G03*
X57900Y-3300I-800J0D01*
G01*
X67400Y9700D02*
G03*
X67400Y9700I-800J0D01*
G01*
Y4775D02*
G03*
X67400Y4775I-800J0D01*
G01*
Y-150D02*
G03*
X67400Y-150I-800J0D01*
G01*
X73900Y9800D02*
G03*
X73900Y9800I-800J0D01*
G01*
Y4775D02*
G03*
X73900Y4775I-800J0D01*
G01*
Y-250D02*
G03*
X73900Y-250I-800J0D01*
G01*
X70700Y3075D02*
G03*
X70700Y3075I-800J0D01*
G01*
Y8200D02*
G03*
X70700Y8200I-800J0D01*
G01*
Y-2050D02*
G03*
X70700Y-2050I-800J0D01*
G01*
Y-7175D02*
G03*
X70700Y-7175I-800J0D01*
G01*
X73900Y-5275D02*
G03*
X73900Y-5275I-800J0D01*
G01*
X67500Y-5075D02*
G03*
X67500Y-5075I-800J0D01*
G01*
X64300Y-3300D02*
G03*
X64300Y-3300I-800J0D01*
G01*
Y-8000D02*
G03*
X64300Y-8000I-800J0D01*
G01*
Y2600D02*
G03*
X64300Y2600I-800J0D01*
G01*
Y8400D02*
G03*
X64300Y8400I-800J0D01*
G01*
X64200Y-12100D02*
G03*
X64200Y-12100I-800J0D01*
G01*
X67500Y-10000D02*
G03*
X67500Y-10000I-800J0D01*
G01*
X73900Y-10300D02*
G03*
X73900Y-10300I-800J0D01*
G01*
X57900Y-11700D02*
G03*
X57900Y-11700I-800J0D01*
G01*
X61200Y-9700D02*
G03*
X61200Y-9700I-800J0D01*
G01*
X54800Y-9500D02*
G03*
X54800Y-9500I-800J0D01*
G01*
X54700Y-5600D02*
G03*
X54700Y-5600I-800J0D01*
G01*
X61200Y-5500D02*
G03*
X61200Y-5500I-800J0D01*
G01*
X57900Y-7800D02*
G03*
X57900Y-7800I-800J0D01*
G01*
X51200Y-7700D02*
G03*
X51200Y-7700I-800J0D01*
G01*
X51300Y-11700D02*
G03*
X51300Y-11700I-800J0D01*
G01*
X44500Y-7000D02*
G03*
X44500Y-7000I-800J0D01*
G01*
X47900Y-6000D02*
G03*
X47900Y-6000I-800J0D01*
G01*
X41300Y-5300D02*
G03*
X41300Y-5300I-800J0D01*
G01*
X41200Y-11200D02*
G03*
X41200Y-11200I-800J0D01*
G01*
X47900Y-9400D02*
G03*
X47900Y-9400I-800J0D01*
G01*
X44400Y-11800D02*
G03*
X44400Y-11800I-800J0D01*
G01*
X38600Y200D02*
G03*
X38600Y200I-800J0D01*
G01*
Y-4300D02*
G03*
X38600Y-4300I-800J0D01*
G01*
X43900Y5300D02*
G03*
X43900Y5300I-800J0D01*
G01*
X42400Y-1900D02*
G03*
X42400Y-1900I-800J0D01*
G01*
X47800Y-1600D02*
G03*
X47800Y-1600I-800J0D01*
G01*
Y4200D02*
G03*
X47800Y4200I-800J0D01*
G01*
Y10000D02*
G03*
X47800Y10000I-800J0D01*
G01*
X54600D02*
G03*
X54600Y10000I-800J0D01*
G01*
Y4200D02*
G03*
X54600Y4200I-800J0D01*
G01*
Y-1600D02*
G03*
X54600Y-1600I-800J0D01*
G01*
X61100Y10100D02*
G03*
X61100Y10100I-800J0D01*
G01*
Y4300D02*
G03*
X61100Y4300I-800J0D01*
G01*
Y-1500D02*
G03*
X61100Y-1500I-800J0D01*
G01*
X51100Y11600D02*
G03*
X51100Y11600I-800J0D01*
G01*
X57800Y11600D02*
G03*
X57800Y11600I-800J0D01*
G01*
X42500Y2300D02*
G03*
X42500Y2300I-800J0D01*
G01*
X44955Y200D02*
G03*
X44955Y200I-800J0D01*
G01*
X84455Y0D02*
G03*
X84455Y0I-800J0D01*
G01*
X82000Y2100D02*
G03*
X82000Y2100I-800J0D01*
G01*
X97300Y11400D02*
G03*
X97300Y11400I-800J0D01*
G01*
X90600Y11400D02*
G03*
X90600Y11400I-800J0D01*
G01*
X100600Y-1700D02*
G03*
X100600Y-1700I-800J0D01*
G01*
Y4100D02*
G03*
X100600Y4100I-800J0D01*
G01*
Y9900D02*
G03*
X100600Y9900I-800J0D01*
G01*
X94100Y-1800D02*
G03*
X94100Y-1800I-800J0D01*
G01*
Y4000D02*
G03*
X94100Y4000I-800J0D01*
G01*
Y9800D02*
G03*
X94100Y9800I-800J0D01*
G01*
X87300D02*
G03*
X87300Y9800I-800J0D01*
G01*
Y4000D02*
G03*
X87300Y4000I-800J0D01*
G01*
Y-1800D02*
G03*
X87300Y-1800I-800J0D01*
G01*
X81900Y-2100D02*
G03*
X81900Y-2100I-800J0D01*
G01*
X83400Y5100D02*
G03*
X83400Y5100I-800J0D01*
G01*
X78100Y-4500D02*
G03*
X78100Y-4500I-800J0D01*
G01*
Y0D02*
G03*
X78100Y0I-800J0D01*
G01*
X83900Y-12000D02*
G03*
X83900Y-12000I-800J0D01*
G01*
X87400Y-9600D02*
G03*
X87400Y-9600I-800J0D01*
G01*
X80700Y-11400D02*
G03*
X80700Y-11400I-800J0D01*
G01*
X80800Y-5500D02*
G03*
X80800Y-5500I-800J0D01*
G01*
X87400Y-6200D02*
G03*
X87400Y-6200I-800J0D01*
G01*
X84000Y-7200D02*
G03*
X84000Y-7200I-800J0D01*
G01*
X90800Y-11900D02*
G03*
X90800Y-11900I-800J0D01*
G01*
X90700Y-7900D02*
G03*
X90700Y-7900I-800J0D01*
G01*
X97400Y-8000D02*
G03*
X97400Y-8000I-800J0D01*
G01*
X100700Y-5700D02*
G03*
X100700Y-5700I-800J0D01*
G01*
X94200Y-5800D02*
G03*
X94200Y-5800I-800J0D01*
G01*
X94300Y-9700D02*
G03*
X94300Y-9700I-800J0D01*
G01*
X100700Y-9900D02*
G03*
X100700Y-9900I-800J0D01*
G01*
X97400Y-11900D02*
G03*
X97400Y-11900I-800J0D01*
G01*
X113400Y-10500D02*
G03*
X113400Y-10500I-800J0D01*
G01*
X107000Y-10200D02*
G03*
X107000Y-10200I-800J0D01*
G01*
X103700Y-12300D02*
G03*
X103700Y-12300I-800J0D01*
G01*
X103800Y8200D02*
G03*
X103800Y8200I-800J0D01*
G01*
Y2400D02*
G03*
X103800Y2400I-800J0D01*
G01*
Y-8200D02*
G03*
X103800Y-8200I-800J0D01*
G01*
Y-3500D02*
G03*
X103800Y-3500I-800J0D01*
G01*
X107000Y-5275D02*
G03*
X107000Y-5275I-800J0D01*
G01*
X113400Y-5475D02*
G03*
X113400Y-5475I-800J0D01*
G01*
X110200Y-7375D02*
G03*
X110200Y-7375I-800J0D01*
G01*
Y-2250D02*
G03*
X110200Y-2250I-800J0D01*
G01*
Y8000D02*
G03*
X110200Y8000I-800J0D01*
G01*
Y2875D02*
G03*
X110200Y2875I-800J0D01*
G01*
X113400Y-450D02*
G03*
X113400Y-450I-800J0D01*
G01*
Y4575D02*
G03*
X113400Y4575I-800J0D01*
G01*
Y9600D02*
G03*
X113400Y9600I-800J0D01*
G01*
X106900Y-350D02*
G03*
X106900Y-350I-800J0D01*
G01*
Y4575D02*
G03*
X106900Y4575I-800J0D01*
G01*
Y9500D02*
G03*
X106900Y9500I-800J0D01*
G01*
X97400Y-3500D02*
G03*
X97400Y-3500I-800J0D01*
G01*
X90600Y-3600D02*
G03*
X90600Y-3600I-800J0D01*
G01*
Y6400D02*
G03*
X90600Y6400I-800J0D01*
G01*
Y1400D02*
G03*
X90600Y1400I-800J0D01*
G01*
X97400Y1467D02*
G03*
X97400Y1467I-800J0D01*
G01*
Y6433D02*
G03*
X97400Y6433I-800J0D01*
G01*
X77975Y-9418D02*
G03*
X77975Y-9418I-800J0D01*
G01*
X110100Y-12500D02*
G03*
X110100Y-12500I-800J0D01*
G01*
X-36578Y-32798D02*
G03*
X-36578Y-32798I-800J0D01*
G01*
X5500Y-33000D02*
G03*
X5500Y-33000I-800J0D01*
G01*
X44600Y-32900D02*
G03*
X44600Y-32900I-800J0D01*
G01*
X83900Y-33300D02*
G03*
X83900Y-33300I-800J0D01*
G01*
X-32800Y-39400D02*
G03*
X-32800Y-39400I-800J0D01*
G01*
Y-33600D02*
G03*
X-32800Y-33600I-800J0D01*
G01*
Y-27800D02*
G03*
X-32800Y-27800I-800J0D01*
G01*
X-26000D02*
G03*
X-26000Y-27800I-800J0D01*
G01*
Y-33600D02*
G03*
X-26000Y-33600I-800J0D01*
G01*
Y-39400D02*
G03*
X-26000Y-39400I-800J0D01*
G01*
X-19500Y-27700D02*
G03*
X-19500Y-27700I-800J0D01*
G01*
Y-33500D02*
G03*
X-19500Y-33500I-800J0D01*
G01*
Y-39300D02*
G03*
X-19500Y-39300I-800J0D01*
G01*
X-29500Y-26200D02*
G03*
X-29500Y-26200I-800J0D01*
G01*
X-22800D02*
G03*
X-22800Y-26200I-800J0D01*
G01*
X19000Y-30800D02*
G03*
X19000Y-30800I-800J0D01*
G01*
Y-36600D02*
G03*
X19000Y-36600I-800J0D01*
G01*
X12200Y-30800D02*
G03*
X12200Y-30800I-800J0D01*
G01*
Y-36600D02*
G03*
X12200Y-36600I-800J0D01*
G01*
X19100Y-26200D02*
G03*
X19100Y-26200I-800J0D01*
G01*
X12400D02*
G03*
X12400Y-26200I-800J0D01*
G01*
X22400Y-39300D02*
G03*
X22400Y-39300I-800J0D01*
G01*
Y-33500D02*
G03*
X22400Y-33500I-800J0D01*
G01*
Y-27700D02*
G03*
X22400Y-27700I-800J0D01*
G01*
X15900Y-39400D02*
G03*
X15900Y-39400I-800J0D01*
G01*
Y-33600D02*
G03*
X15900Y-33600I-800J0D01*
G01*
Y-27800D02*
G03*
X15900Y-27800I-800J0D01*
G01*
X9100D02*
G03*
X9100Y-27800I-800J0D01*
G01*
Y-33600D02*
G03*
X9100Y-33600I-800J0D01*
G01*
Y-39400D02*
G03*
X9100Y-39400I-800J0D01*
G01*
X58000Y-30700D02*
G03*
X58000Y-30700I-800J0D01*
G01*
Y-36500D02*
G03*
X58000Y-36500I-800J0D01*
G01*
X51200Y-30700D02*
G03*
X51200Y-30700I-800J0D01*
G01*
Y-36500D02*
G03*
X51200Y-36500I-800J0D01*
G01*
X58000Y-26200D02*
G03*
X58000Y-26200I-800J0D01*
G01*
X51300D02*
G03*
X51300Y-26200I-800J0D01*
G01*
X61300Y-39300D02*
G03*
X61300Y-39300I-800J0D01*
G01*
Y-33500D02*
G03*
X61300Y-33500I-800J0D01*
G01*
Y-27700D02*
G03*
X61300Y-27700I-800J0D01*
G01*
X54800Y-39400D02*
G03*
X54800Y-39400I-800J0D01*
G01*
Y-33600D02*
G03*
X54800Y-33600I-800J0D01*
G01*
Y-27800D02*
G03*
X54800Y-27800I-800J0D01*
G01*
X48000D02*
G03*
X48000Y-27800I-800J0D01*
G01*
Y-33600D02*
G03*
X48000Y-33600I-800J0D01*
G01*
Y-39400D02*
G03*
X48000Y-39400I-800J0D01*
G01*
X97100Y-26500D02*
G03*
X97100Y-26500I-800J0D01*
G01*
X90400D02*
G03*
X90400Y-26500I-800J0D01*
G01*
X100400Y-39600D02*
G03*
X100400Y-39600I-800J0D01*
G01*
Y-33800D02*
G03*
X100400Y-33800I-800J0D01*
G01*
Y-28000D02*
G03*
X100400Y-28000I-800J0D01*
G01*
X93900Y-39700D02*
G03*
X93900Y-39700I-800J0D01*
G01*
Y-33900D02*
G03*
X93900Y-33900I-800J0D01*
G01*
Y-28100D02*
G03*
X93900Y-28100I-800J0D01*
G01*
X87100D02*
G03*
X87100Y-28100I-800J0D01*
G01*
Y-33900D02*
G03*
X87100Y-33900I-800J0D01*
G01*
Y-39700D02*
G03*
X87100Y-39700I-800J0D01*
G01*
X-38400Y-40000D02*
G03*
X-38400Y-40000I-800J0D01*
G01*
X-35800Y-37700D02*
G03*
X-35800Y-37700I-800J0D01*
G01*
X-38300Y-35800D02*
G03*
X-38300Y-35800I-800J0D01*
G01*
X3600Y-35400D02*
G03*
X3600Y-35400I-800J0D01*
G01*
X6200Y-37800D02*
G03*
X6200Y-37800I-800J0D01*
G01*
X42200Y-35700D02*
G03*
X42200Y-35700I-800J0D01*
G01*
X44800Y-37400D02*
G03*
X44800Y-37400I-800J0D01*
G01*
X42300Y-39900D02*
G03*
X42300Y-39900I-800J0D01*
G01*
X81400Y-36000D02*
G03*
X81400Y-36000I-800J0D01*
G01*
X83900Y-38100D02*
G03*
X83900Y-38100I-800J0D01*
G01*
X-14554Y-53200D02*
G03*
X-14554Y-53200I-800J0D01*
G01*
Y-50300D02*
G03*
X-14554Y-50300I-800J0D01*
G01*
X-23118Y-50200D02*
G03*
X-23118Y-50200I-800J0D01*
G01*
Y-53100D02*
G03*
X-23118Y-53100I-800J0D01*
G01*
X-18836Y-54400D02*
G03*
X-18836Y-54400I-800J0D01*
G01*
Y-51500D02*
G03*
X-18836Y-51500I-800J0D01*
G01*
X-27400Y-51600D02*
G03*
X-27400Y-51600I-800J0D01*
G01*
X2575Y-53200D02*
G03*
X2575Y-53200I-800J0D01*
G01*
Y-50300D02*
G03*
X2575Y-50300I-800J0D01*
G01*
X-5989Y-50200D02*
G03*
X-5989Y-50200I-800J0D01*
G01*
Y-53100D02*
G03*
X-5989Y-53100I-800J0D01*
G01*
X-1707Y-51500D02*
G03*
X-1707Y-51500I-800J0D01*
G01*
X-10271Y-51600D02*
G03*
X-10271Y-51600I-800J0D01*
G01*
X19703Y-53200D02*
G03*
X19703Y-53200I-800J0D01*
G01*
Y-50300D02*
G03*
X19703Y-50300I-800J0D01*
G01*
X11139Y-50200D02*
G03*
X11139Y-50200I-800J0D01*
G01*
Y-53100D02*
G03*
X11139Y-53100I-800J0D01*
G01*
X15421Y-51600D02*
G03*
X15421Y-51600I-800J0D01*
G01*
X6857D02*
G03*
X6857Y-51600I-800J0D01*
G01*
X36832Y-50200D02*
G03*
X36832Y-50200I-800J0D01*
G01*
Y-53100D02*
G03*
X36832Y-53100I-800J0D01*
G01*
X28268Y-50200D02*
G03*
X28268Y-50200I-800J0D01*
G01*
Y-53100D02*
G03*
X28268Y-53100I-800J0D01*
G01*
X41114Y-51500D02*
G03*
X41114Y-51500I-800J0D01*
G01*
X32550Y-51600D02*
G03*
X32550Y-51600I-800J0D01*
G01*
X23986D02*
G03*
X23986Y-51600I-800J0D01*
G01*
X62525Y-53200D02*
G03*
X62525Y-53200I-800J0D01*
G01*
Y-50300D02*
G03*
X62525Y-50300I-800J0D01*
G01*
X53961Y-50200D02*
G03*
X53961Y-50200I-800J0D01*
G01*
Y-53100D02*
G03*
X53961Y-53100I-800J0D01*
G01*
X45396Y-50200D02*
G03*
X45396Y-50200I-800J0D01*
G01*
Y-53100D02*
G03*
X45396Y-53100I-800J0D01*
G01*
X58243Y-51500D02*
G03*
X58243Y-51500I-800J0D01*
G01*
X49679Y-51600D02*
G03*
X49679Y-51600I-800J0D01*
G01*
X79654Y-53200D02*
G03*
X79654Y-53200I-800J0D01*
G01*
Y-50300D02*
G03*
X79654Y-50300I-800J0D01*
G01*
X71089Y-50200D02*
G03*
X71089Y-50200I-800J0D01*
G01*
Y-53100D02*
G03*
X71089Y-53100I-800J0D01*
G01*
X75371Y-51500D02*
G03*
X75371Y-51500I-800J0D01*
G01*
X66807Y-51600D02*
G03*
X66807Y-51600I-800J0D01*
G01*
X97900Y-50600D02*
G03*
X97900Y-50600I-800J0D01*
G01*
X83936Y-51600D02*
G03*
X83936Y-51600I-800J0D01*
G01*
Y-54500D02*
G03*
X83936Y-54500I-800J0D01*
G01*
X-16400Y-26200D02*
G03*
X-16400Y-26200I-800J0D01*
G01*
X-16300Y-47000D02*
G03*
X-16300Y-47000I-800J0D01*
G01*
Y-41000D02*
G03*
X-16300Y-41000I-800J0D01*
G01*
X-22700D02*
G03*
X-22700Y-41000I-800J0D01*
G01*
Y-47000D02*
G03*
X-22700Y-47000I-800J0D01*
G01*
X-29500Y-41000D02*
G03*
X-29500Y-41000I-800J0D01*
G01*
Y-47000D02*
G03*
X-29500Y-47000I-800J0D01*
G01*
X-19500Y-44200D02*
G03*
X-19500Y-44200I-800J0D01*
G01*
X-32900D02*
G03*
X-32900Y-44200I-800J0D01*
G01*
X-13400D02*
G03*
X-13400Y-44200I-800J0D01*
G01*
X-6600D02*
G03*
X-6600Y-44200I-800J0D01*
G01*
X-9900Y-47000D02*
G03*
X-9900Y-47000I-800J0D01*
G01*
X-10100Y-42600D02*
G03*
X-10100Y-42600I-800J0D01*
G01*
X-3500Y-47000D02*
G03*
X-3500Y-47000I-800J0D01*
G01*
X-3700Y-42600D02*
G03*
X-3700Y-42600I-800J0D01*
G01*
X-3600Y-36900D02*
G03*
X-3600Y-36900I-800J0D01*
G01*
Y-31100D02*
G03*
X-3600Y-31100I-800J0D01*
G01*
Y-26400D02*
G03*
X-3600Y-26400I-800J0D01*
G01*
X-10100Y-30900D02*
G03*
X-10100Y-30900I-800J0D01*
G01*
Y-36700D02*
G03*
X-10100Y-36700I-800J0D01*
G01*
X-10000Y-26400D02*
G03*
X-10000Y-26400I-800J0D01*
G01*
X-6700Y-39500D02*
G03*
X-6700Y-39500I-800J0D01*
G01*
Y-33700D02*
G03*
X-6700Y-33700I-800J0D01*
G01*
Y-27900D02*
G03*
X-6700Y-27900I-800J0D01*
G01*
X-13400Y-38900D02*
G03*
X-13400Y-38900I-800J0D01*
G01*
X-13200Y-33800D02*
G03*
X-13200Y-33800I-800J0D01*
G01*
Y-28000D02*
G03*
X-13200Y-28000I-800J0D01*
G01*
X-300Y-39700D02*
G03*
X-300Y-39700I-800J0D01*
G01*
X41300Y-42700D02*
G03*
X41300Y-42700I-800J0D01*
G01*
X28400Y-28000D02*
G03*
X28400Y-28000I-800J0D01*
G01*
Y-33800D02*
G03*
X28400Y-33800I-800J0D01*
G01*
Y-39600D02*
G03*
X28400Y-39600I-800J0D01*
G01*
X34900Y-27900D02*
G03*
X34900Y-27900I-800J0D01*
G01*
Y-33700D02*
G03*
X34900Y-33700I-800J0D01*
G01*
Y-39500D02*
G03*
X34900Y-39500I-800J0D01*
G01*
X31600Y-26400D02*
G03*
X31600Y-26400I-800J0D01*
G01*
X38100Y-47000D02*
G03*
X38100Y-47000I-800J0D01*
G01*
Y-41200D02*
G03*
X38100Y-41200I-800J0D01*
G01*
X31600Y-42200D02*
G03*
X31600Y-42200I-800J0D01*
G01*
X31700Y-47000D02*
G03*
X31700Y-47000I-800J0D01*
G01*
X34900Y-44500D02*
G03*
X34900Y-44500I-800J0D01*
G01*
X28600D02*
G03*
X28600Y-44500I-800J0D01*
G01*
X25300Y-41000D02*
G03*
X25300Y-41000I-800J0D01*
G01*
Y-46800D02*
G03*
X25300Y-46800I-800J0D01*
G01*
X25200Y-26200D02*
G03*
X25200Y-26200I-800J0D01*
G01*
X80400Y-42900D02*
G03*
X80400Y-42900I-800J0D01*
G01*
X67500Y-28000D02*
G03*
X67500Y-28000I-800J0D01*
G01*
Y-33800D02*
G03*
X67500Y-33800I-800J0D01*
G01*
Y-39600D02*
G03*
X67500Y-39600I-800J0D01*
G01*
X74000Y-27900D02*
G03*
X74000Y-27900I-800J0D01*
G01*
Y-33700D02*
G03*
X74000Y-33700I-800J0D01*
G01*
Y-39500D02*
G03*
X74000Y-39500I-800J0D01*
G01*
X70700Y-26400D02*
G03*
X70700Y-26400I-800J0D01*
G01*
Y-36700D02*
G03*
X70700Y-36700I-800J0D01*
G01*
Y-30900D02*
G03*
X70700Y-30900I-800J0D01*
G01*
X77200Y-41200D02*
G03*
X77200Y-41200I-800J0D01*
G01*
Y-47100D02*
G03*
X77200Y-47100I-800J0D01*
G01*
X70700Y-42200D02*
G03*
X70700Y-42200I-800J0D01*
G01*
X70800Y-47000D02*
G03*
X70800Y-47000I-800J0D01*
G01*
X73900Y-44100D02*
G03*
X73900Y-44100I-800J0D01*
G01*
X67400Y-44200D02*
G03*
X67400Y-44200I-800J0D01*
G01*
X64400Y-41000D02*
G03*
X64400Y-41000I-800J0D01*
G01*
Y-46800D02*
G03*
X64400Y-46800I-800J0D01*
G01*
X64300Y-36500D02*
G03*
X64300Y-36500I-800J0D01*
G01*
Y-30700D02*
G03*
X64300Y-30700I-800J0D01*
G01*
Y-26200D02*
G03*
X64300Y-26200I-800J0D01*
G01*
X106700Y-28400D02*
G03*
X106700Y-28400I-800J0D01*
G01*
Y-34200D02*
G03*
X106700Y-34200I-800J0D01*
G01*
Y-40000D02*
G03*
X106700Y-40000I-800J0D01*
G01*
X113200Y-28300D02*
G03*
X113200Y-28300I-800J0D01*
G01*
X109900Y-26800D02*
G03*
X109900Y-26800I-800J0D01*
G01*
X116300D02*
G03*
X116300Y-26800I-800J0D01*
G01*
X103600Y-41400D02*
G03*
X103600Y-41400I-800J0D01*
G01*
Y-44300D02*
G03*
X103600Y-44300I-800J0D01*
G01*
X103500Y-26600D02*
G03*
X103500Y-26600I-800J0D01*
G01*
X9100Y-44000D02*
G03*
X9100Y-44000I-800J0D01*
G01*
X15900D02*
G03*
X15900Y-44000I-800J0D01*
G01*
X22400Y-43900D02*
G03*
X22400Y-43900I-800J0D01*
G01*
X12400Y-46800D02*
G03*
X12400Y-46800I-800J0D01*
G01*
Y-41000D02*
G03*
X12400Y-41000I-800J0D01*
G01*
X19200Y-46800D02*
G03*
X19200Y-46800I-800J0D01*
G01*
Y-41000D02*
G03*
X19200Y-41000I-800J0D01*
G01*
X47800Y-43800D02*
G03*
X47800Y-43800I-800J0D01*
G01*
X54600D02*
G03*
X54600Y-43800I-800J0D01*
G01*
X61100Y-43700D02*
G03*
X61100Y-43700I-800J0D01*
G01*
X51300Y-47000D02*
G03*
X51300Y-47000I-800J0D01*
G01*
Y-41200D02*
G03*
X51300Y-41200I-800J0D01*
G01*
X58100Y-47000D02*
G03*
X58100Y-47000I-800J0D01*
G01*
Y-41200D02*
G03*
X58100Y-41200I-800J0D01*
G01*
X87000Y-43800D02*
G03*
X87000Y-43800I-800J0D01*
G01*
X90400Y-47100D02*
G03*
X90400Y-47100I-800J0D01*
G01*
Y-41300D02*
G03*
X90400Y-41300I-800J0D01*
G01*
X97200Y-47100D02*
G03*
X97200Y-47100I-800J0D01*
G01*
Y-41300D02*
G03*
X97200Y-41300I-800J0D01*
G01*
X6000Y-46700D02*
G03*
X6000Y-46700I-800J0D01*
G01*
X3200Y-42800D02*
G03*
X3200Y-42800I-800J0D01*
G01*
X3500Y-39600D02*
G03*
X3500Y-39600I-800J0D01*
G01*
X44700Y-46900D02*
G03*
X44700Y-46900I-800J0D01*
G01*
X81500Y-39700D02*
G03*
X81500Y-39700I-800J0D01*
G01*
X83900Y-47200D02*
G03*
X83900Y-47200I-800J0D01*
G01*
X58243Y-54400D02*
G03*
X58243Y-54400I-800J0D01*
G01*
X-1707D02*
G03*
X-1707Y-54400I-800J0D01*
G01*
X75371D02*
G03*
X75371Y-54400I-800J0D01*
G01*
X41114D02*
G03*
X41114Y-54400I-800J0D01*
G01*
X95200Y-53000D02*
G03*
X95200Y-53000I-800J0D01*
G01*
X116364Y-35664D02*
G03*
X116364Y-35664I-800J0D01*
G01*
X-10271Y-54500D02*
G03*
X-10271Y-54500I-800J0D01*
G01*
X32550D02*
G03*
X32550Y-54500I-800J0D01*
G01*
X49679D02*
G03*
X49679Y-54500I-800J0D01*
G01*
X6857D02*
G03*
X6857Y-54500I-800J0D01*
G01*
X23986D02*
G03*
X23986Y-54500I-800J0D01*
G01*
X15421D02*
G03*
X15421Y-54500I-800J0D01*
G01*
X66807D02*
G03*
X66807Y-54500I-800J0D01*
G01*
X-27400D02*
G03*
X-27400Y-54500I-800J0D01*
G01*
X-29600Y-30700D02*
G03*
X-29600Y-30700I-800J0D01*
G01*
X-29500Y-36600D02*
G03*
X-29500Y-36600I-800J0D01*
G01*
X-22800Y-30800D02*
G03*
X-22800Y-30800I-800J0D01*
G01*
Y-36700D02*
G03*
X-22800Y-36700I-800J0D01*
G01*
X-16600Y-30900D02*
G03*
X-16600Y-30900I-800J0D01*
G01*
Y-36900D02*
G03*
X-16600Y-36900I-800J0D01*
G01*
X-26100Y-44200D02*
G03*
X-26100Y-44200I-800J0D01*
G01*
X-300Y-44400D02*
G03*
X-300Y-44400I-800J0D01*
G01*
X25100Y-36600D02*
G03*
X25100Y-36600I-800J0D01*
G01*
X31500Y-36800D02*
G03*
X31500Y-36800I-800J0D01*
G01*
Y-31000D02*
G03*
X31500Y-31000I-800J0D01*
G01*
X25100Y-30800D02*
G03*
X25100Y-30800I-800J0D01*
G01*
X93900Y-43900D02*
G03*
X93900Y-43900I-800J0D01*
G01*
X100400Y-43800D02*
G03*
X100400Y-43800I-800J0D01*
G01*
X103800Y-30900D02*
G03*
X103800Y-30900I-800J0D01*
G01*
X90600Y-36600D02*
G03*
X90600Y-36600I-800J0D01*
G01*
Y-30800D02*
G03*
X90600Y-30800I-800J0D01*
G01*
X97400Y-36600D02*
G03*
X97400Y-36600I-800J0D01*
G01*
X103800Y-36700D02*
G03*
X103800Y-36700I-800J0D01*
G01*
X97400Y-30800D02*
G03*
X97400Y-30800I-800J0D01*
G01*
X116400Y-31000D02*
G03*
X116400Y-31000I-800J0D01*
G01*
X110000D02*
G03*
X110000Y-31000I-800J0D01*
G01*
X109900Y-37000D02*
G03*
X109900Y-37000I-800J0D01*
G01*
X113000Y-33400D02*
G03*
X113000Y-33400I-800J0D01*
G01*
X88218Y-53400D02*
G03*
X88218Y-53400I-800J0D01*
G01*
X92482Y-54700D02*
G03*
X92482Y-54700I-800J0D01*
G01*
Y-51800D02*
G03*
X92482Y-51800I-800J0D01*
G01*
X88200Y-50500D02*
G03*
X88200Y-50500I-800J0D01*
G01*
X110100Y-110400D02*
G03*
X110100Y-110400I-800J0D01*
G01*
X77975Y-107318D02*
G03*
X77975Y-107318I-800J0D01*
G01*
X90600Y-96500D02*
G03*
X90600Y-96500I-800J0D01*
G01*
Y-91500D02*
G03*
X90600Y-91500I-800J0D01*
G01*
Y-101500D02*
G03*
X90600Y-101500I-800J0D01*
G01*
X106900Y-88400D02*
G03*
X106900Y-88400I-800J0D01*
G01*
Y-93325D02*
G03*
X106900Y-93325I-800J0D01*
G01*
Y-98250D02*
G03*
X106900Y-98250I-800J0D01*
G01*
X113400Y-88300D02*
G03*
X113400Y-88300I-800J0D01*
G01*
Y-93325D02*
G03*
X113400Y-93325I-800J0D01*
G01*
Y-98350D02*
G03*
X113400Y-98350I-800J0D01*
G01*
X110200Y-95025D02*
G03*
X110200Y-95025I-800J0D01*
G01*
Y-89900D02*
G03*
X110200Y-89900I-800J0D01*
G01*
Y-100150D02*
G03*
X110200Y-100150I-800J0D01*
G01*
Y-105275D02*
G03*
X110200Y-105275I-800J0D01*
G01*
X113400Y-103375D02*
G03*
X113400Y-103375I-800J0D01*
G01*
X107000Y-103175D02*
G03*
X107000Y-103175I-800J0D01*
G01*
X103800Y-101400D02*
G03*
X103800Y-101400I-800J0D01*
G01*
Y-106100D02*
G03*
X103800Y-106100I-800J0D01*
G01*
Y-95500D02*
G03*
X103800Y-95500I-800J0D01*
G01*
Y-89700D02*
G03*
X103800Y-89700I-800J0D01*
G01*
X103700Y-110200D02*
G03*
X103700Y-110200I-800J0D01*
G01*
X107000Y-108100D02*
G03*
X107000Y-108100I-800J0D01*
G01*
X113400Y-108400D02*
G03*
X113400Y-108400I-800J0D01*
G01*
X97400Y-109800D02*
G03*
X97400Y-109800I-800J0D01*
G01*
X100700Y-107800D02*
G03*
X100700Y-107800I-800J0D01*
G01*
X94300Y-107600D02*
G03*
X94300Y-107600I-800J0D01*
G01*
X94200Y-103700D02*
G03*
X94200Y-103700I-800J0D01*
G01*
X100700Y-103600D02*
G03*
X100700Y-103600I-800J0D01*
G01*
X97400Y-105900D02*
G03*
X97400Y-105900I-800J0D01*
G01*
X90700Y-105800D02*
G03*
X90700Y-105800I-800J0D01*
G01*
X90800Y-109800D02*
G03*
X90800Y-109800I-800J0D01*
G01*
X84000Y-105100D02*
G03*
X84000Y-105100I-800J0D01*
G01*
X87400Y-104100D02*
G03*
X87400Y-104100I-800J0D01*
G01*
X80800Y-103400D02*
G03*
X80800Y-103400I-800J0D01*
G01*
X80700Y-109300D02*
G03*
X80700Y-109300I-800J0D01*
G01*
X87400Y-107500D02*
G03*
X87400Y-107500I-800J0D01*
G01*
X83900Y-109900D02*
G03*
X83900Y-109900I-800J0D01*
G01*
X78100Y-97900D02*
G03*
X78100Y-97900I-800J0D01*
G01*
Y-102400D02*
G03*
X78100Y-102400I-800J0D01*
G01*
X83400Y-92800D02*
G03*
X83400Y-92800I-800J0D01*
G01*
X81900Y-100000D02*
G03*
X81900Y-100000I-800J0D01*
G01*
X87300Y-99700D02*
G03*
X87300Y-99700I-800J0D01*
G01*
Y-93900D02*
G03*
X87300Y-93900I-800J0D01*
G01*
Y-88100D02*
G03*
X87300Y-88100I-800J0D01*
G01*
X94100D02*
G03*
X94100Y-88100I-800J0D01*
G01*
Y-93900D02*
G03*
X94100Y-93900I-800J0D01*
G01*
Y-99700D02*
G03*
X94100Y-99700I-800J0D01*
G01*
X100600Y-88000D02*
G03*
X100600Y-88000I-800J0D01*
G01*
Y-93800D02*
G03*
X100600Y-93800I-800J0D01*
G01*
Y-99600D02*
G03*
X100600Y-99600I-800J0D01*
G01*
X90600Y-86500D02*
G03*
X90600Y-86500I-800J0D01*
G01*
X82000Y-95800D02*
G03*
X82000Y-95800I-800J0D01*
G01*
X84455Y-97900D02*
G03*
X84455Y-97900I-800J0D01*
G01*
X44955Y-97700D02*
G03*
X44955Y-97700I-800J0D01*
G01*
X42500Y-95600D02*
G03*
X42500Y-95600I-800J0D01*
G01*
X57800Y-86300D02*
G03*
X57800Y-86300I-800J0D01*
G01*
X51100Y-86300D02*
G03*
X51100Y-86300I-800J0D01*
G01*
X61100Y-99400D02*
G03*
X61100Y-99400I-800J0D01*
G01*
Y-93600D02*
G03*
X61100Y-93600I-800J0D01*
G01*
Y-87800D02*
G03*
X61100Y-87800I-800J0D01*
G01*
X54600Y-99500D02*
G03*
X54600Y-99500I-800J0D01*
G01*
Y-93700D02*
G03*
X54600Y-93700I-800J0D01*
G01*
Y-87900D02*
G03*
X54600Y-87900I-800J0D01*
G01*
X47800D02*
G03*
X47800Y-87900I-800J0D01*
G01*
Y-93700D02*
G03*
X47800Y-93700I-800J0D01*
G01*
Y-99500D02*
G03*
X47800Y-99500I-800J0D01*
G01*
X42400Y-99800D02*
G03*
X42400Y-99800I-800J0D01*
G01*
X43900Y-92600D02*
G03*
X43900Y-92600I-800J0D01*
G01*
X38600Y-102200D02*
G03*
X38600Y-102200I-800J0D01*
G01*
Y-97700D02*
G03*
X38600Y-97700I-800J0D01*
G01*
X44400Y-109700D02*
G03*
X44400Y-109700I-800J0D01*
G01*
X47900Y-107300D02*
G03*
X47900Y-107300I-800J0D01*
G01*
X41200Y-109100D02*
G03*
X41200Y-109100I-800J0D01*
G01*
X41300Y-103200D02*
G03*
X41300Y-103200I-800J0D01*
G01*
X47900Y-103900D02*
G03*
X47900Y-103900I-800J0D01*
G01*
X44500Y-104900D02*
G03*
X44500Y-104900I-800J0D01*
G01*
X51300Y-109600D02*
G03*
X51300Y-109600I-800J0D01*
G01*
X51200Y-105600D02*
G03*
X51200Y-105600I-800J0D01*
G01*
X57900Y-105700D02*
G03*
X57900Y-105700I-800J0D01*
G01*
X61200Y-103400D02*
G03*
X61200Y-103400I-800J0D01*
G01*
X54700Y-103500D02*
G03*
X54700Y-103500I-800J0D01*
G01*
X54800Y-107400D02*
G03*
X54800Y-107400I-800J0D01*
G01*
X61200Y-107600D02*
G03*
X61200Y-107600I-800J0D01*
G01*
X57900Y-109600D02*
G03*
X57900Y-109600I-800J0D01*
G01*
X73900Y-108200D02*
G03*
X73900Y-108200I-800J0D01*
G01*
X67500Y-107900D02*
G03*
X67500Y-107900I-800J0D01*
G01*
X64200Y-110000D02*
G03*
X64200Y-110000I-800J0D01*
G01*
X64300Y-89500D02*
G03*
X64300Y-89500I-800J0D01*
G01*
Y-95300D02*
G03*
X64300Y-95300I-800J0D01*
G01*
Y-105900D02*
G03*
X64300Y-105900I-800J0D01*
G01*
Y-101200D02*
G03*
X64300Y-101200I-800J0D01*
G01*
X67500Y-102975D02*
G03*
X67500Y-102975I-800J0D01*
G01*
X73900Y-103175D02*
G03*
X73900Y-103175I-800J0D01*
G01*
X70700Y-105075D02*
G03*
X70700Y-105075I-800J0D01*
G01*
Y-99950D02*
G03*
X70700Y-99950I-800J0D01*
G01*
Y-89700D02*
G03*
X70700Y-89700I-800J0D01*
G01*
Y-94825D02*
G03*
X70700Y-94825I-800J0D01*
G01*
X73900Y-98150D02*
G03*
X73900Y-98150I-800J0D01*
G01*
Y-93125D02*
G03*
X73900Y-93125I-800J0D01*
G01*
Y-88100D02*
G03*
X73900Y-88100I-800J0D01*
G01*
X67400Y-98050D02*
G03*
X67400Y-98050I-800J0D01*
G01*
Y-93125D02*
G03*
X67400Y-93125I-800J0D01*
G01*
Y-88200D02*
G03*
X67400Y-88200I-800J0D01*
G01*
X57900Y-101200D02*
G03*
X57900Y-101200I-800J0D01*
G01*
X51100Y-101300D02*
G03*
X51100Y-101300I-800J0D01*
G01*
Y-91300D02*
G03*
X51100Y-91300I-800J0D01*
G01*
Y-96300D02*
G03*
X51100Y-96300I-800J0D01*
G01*
X57900Y-96233D02*
G03*
X57900Y-96233I-800J0D01*
G01*
Y-91267D02*
G03*
X57900Y-91267I-800J0D01*
G01*
X38475Y-107118D02*
G03*
X38475Y-107118I-800J0D01*
G01*
X70600Y-110200D02*
G03*
X70600Y-110200I-800J0D01*
G01*
X31700Y-109900D02*
G03*
X31700Y-109900I-800J0D01*
G01*
X-425Y-106818D02*
G03*
X-425Y-106818I-800J0D01*
G01*
X88000Y-148400D02*
G03*
X88000Y-148400I-800J0D01*
G01*
X92282Y-149700D02*
G03*
X92282Y-149700I-800J0D01*
G01*
Y-152600D02*
G03*
X92282Y-152600I-800J0D01*
G01*
X-29900Y-89900D02*
G03*
X-29900Y-89900I-800J0D01*
G01*
X-23100D02*
G03*
X-23100Y-89900I-800J0D01*
G01*
X-29900Y-95800D02*
G03*
X-29900Y-95800I-800J0D01*
G01*
X-23100D02*
G03*
X-23100Y-95800I-800J0D01*
G01*
X84400Y-71100D02*
G03*
X84400Y-71100I-800J0D01*
G01*
Y-68200D02*
G03*
X84400Y-68200I-800J0D01*
G01*
X75708D02*
G03*
X75708Y-68200I-800J0D01*
G01*
Y-71100D02*
G03*
X75708Y-71100I-800J0D01*
G01*
X88018Y-151300D02*
G03*
X88018Y-151300I-800J0D01*
G01*
X112800Y-131300D02*
G03*
X112800Y-131300I-800J0D01*
G01*
X109700Y-134900D02*
G03*
X109700Y-134900I-800J0D01*
G01*
X109800Y-128900D02*
G03*
X109800Y-128900I-800J0D01*
G01*
X116200D02*
G03*
X116200Y-128900I-800J0D01*
G01*
X103600Y-134600D02*
G03*
X103600Y-134600I-800J0D01*
G01*
X90400Y-128700D02*
G03*
X90400Y-128700I-800J0D01*
G01*
Y-134500D02*
G03*
X90400Y-134500I-800J0D01*
G01*
X103600Y-128800D02*
G03*
X103600Y-128800I-800J0D01*
G01*
X100200Y-141700D02*
G03*
X100200Y-141700I-800J0D01*
G01*
X93700Y-141800D02*
G03*
X93700Y-141800I-800J0D01*
G01*
X24900Y-128700D02*
G03*
X24900Y-128700I-800J0D01*
G01*
X31300Y-128900D02*
G03*
X31300Y-128900I-800J0D01*
G01*
Y-134700D02*
G03*
X31300Y-134700I-800J0D01*
G01*
X24900Y-134500D02*
G03*
X24900Y-134500I-800J0D01*
G01*
X-500Y-142300D02*
G03*
X-500Y-142300I-800J0D01*
G01*
X-26300Y-142100D02*
G03*
X-26300Y-142100I-800J0D01*
G01*
X-16800Y-134800D02*
G03*
X-16800Y-134800I-800J0D01*
G01*
Y-128800D02*
G03*
X-16800Y-128800I-800J0D01*
G01*
X-23000Y-134600D02*
G03*
X-23000Y-134600I-800J0D01*
G01*
Y-128700D02*
G03*
X-23000Y-128700I-800J0D01*
G01*
X-29700Y-134500D02*
G03*
X-29700Y-134500I-800J0D01*
G01*
X-29800Y-128600D02*
G03*
X-29800Y-128600I-800J0D01*
G01*
X-41400Y84500D02*
G03*
X-41400Y84500I-800J0D01*
G01*
X161053Y93677D02*
G03*
X161053Y93677I-800J0D01*
G01*
X159642Y-2168D02*
G03*
X159642Y-2168I-800J0D01*
G01*
X152939Y-9702D02*
G03*
X152939Y-9702I-800J0D01*
G01*
X-157138Y-115362D02*
G03*
X-157138Y-115362I-800J0D01*
G01*
X-157700Y-24100D02*
G03*
X-157700Y-24100I-800J0D01*
G01*
X-131200Y-38800D02*
G03*
X-131200Y-38800I-800J0D01*
G01*
X-122500Y-43100D02*
G03*
X-122500Y-43100I-800J0D01*
G01*
X-131400Y-43200D02*
G03*
X-131400Y-43200I-800J0D01*
G01*
X-122500Y-38900D02*
G03*
X-122500Y-38900I-800J0D01*
G01*
X-109500Y-39000D02*
G03*
X-109500Y-39000I-800J0D01*
G01*
X-118400Y-43300D02*
G03*
X-118400Y-43300I-800J0D01*
G01*
X-109500Y-43200D02*
G03*
X-109500Y-43200I-800J0D01*
G01*
X-118200Y-38900D02*
G03*
X-118200Y-38900I-800J0D01*
G01*
X-113800Y-41300D02*
G03*
X-113800Y-41300I-800J0D01*
G01*
X-127000Y-41200D02*
G03*
X-127000Y-41200I-800J0D01*
G01*
X-153300Y-41100D02*
G03*
X-153300Y-41100I-800J0D01*
G01*
X-140100Y-41200D02*
G03*
X-140100Y-41200I-800J0D01*
G01*
X-144500Y-38800D02*
G03*
X-144500Y-38800I-800J0D01*
G01*
X-135800Y-43100D02*
G03*
X-135800Y-43100I-800J0D01*
G01*
X-144700Y-43200D02*
G03*
X-144700Y-43200I-800J0D01*
G01*
X-135800Y-38900D02*
G03*
X-135800Y-38900I-800J0D01*
G01*
X-148800Y-38800D02*
G03*
X-148800Y-38800I-800J0D01*
G01*
X-157700Y-43100D02*
G03*
X-157700Y-43100I-800J0D01*
G01*
X-148800Y-43000D02*
G03*
X-148800Y-43000I-800J0D01*
G01*
X-157500Y-38700D02*
G03*
X-157500Y-38700I-800J0D01*
G01*
X-131400Y-24000D02*
G03*
X-131400Y-24000I-800J0D01*
G01*
X-122700Y-28300D02*
G03*
X-122700Y-28300I-800J0D01*
G01*
X-131600Y-28400D02*
G03*
X-131600Y-28400I-800J0D01*
G01*
X-122700Y-24100D02*
G03*
X-122700Y-24100I-800J0D01*
G01*
X-109700Y-24200D02*
G03*
X-109700Y-24200I-800J0D01*
G01*
X-118600Y-28500D02*
G03*
X-118600Y-28500I-800J0D01*
G01*
X-109700Y-28400D02*
G03*
X-109700Y-28400I-800J0D01*
G01*
X-118400Y-24100D02*
G03*
X-118400Y-24100I-800J0D01*
G01*
X-114000Y-26500D02*
G03*
X-114000Y-26500I-800J0D01*
G01*
X-127200Y-26400D02*
G03*
X-127200Y-26400I-800J0D01*
G01*
X-153500Y-26300D02*
G03*
X-153500Y-26300I-800J0D01*
G01*
X-140300Y-26400D02*
G03*
X-140300Y-26400I-800J0D01*
G01*
X-144700Y-24000D02*
G03*
X-144700Y-24000I-800J0D01*
G01*
X-136000Y-28300D02*
G03*
X-136000Y-28300I-800J0D01*
G01*
X-144900Y-28400D02*
G03*
X-144900Y-28400I-800J0D01*
G01*
X-136000Y-24100D02*
G03*
X-136000Y-24100I-800J0D01*
G01*
X-149000Y-24000D02*
G03*
X-149000Y-24000I-800J0D01*
G01*
X-157900Y-28300D02*
G03*
X-157900Y-28300I-800J0D01*
G01*
X-149000Y-28200D02*
G03*
X-149000Y-28200I-800J0D01*
G01*
X-157457Y-104266D02*
G03*
X-157457Y-104266I-800J0D01*
G01*
X-148757Y-108566D02*
G03*
X-148757Y-108566I-800J0D01*
G01*
X-157657Y-108666D02*
G03*
X-157657Y-108666I-800J0D01*
G01*
X-148757Y-104366D02*
G03*
X-148757Y-104366I-800J0D01*
G01*
X-135757Y-104466D02*
G03*
X-135757Y-104466I-800J0D01*
G01*
X-144657Y-108766D02*
G03*
X-144657Y-108766I-800J0D01*
G01*
X-135757Y-108666D02*
G03*
X-135757Y-108666I-800J0D01*
G01*
X-144457Y-104366D02*
G03*
X-144457Y-104366I-800J0D01*
G01*
X-140057Y-106766D02*
G03*
X-140057Y-106766I-800J0D01*
G01*
X-153256Y-106666D02*
G03*
X-153256Y-106666I-800J0D01*
G01*
X-126956Y-106766D02*
G03*
X-126956Y-106766I-800J0D01*
G01*
X-113757Y-106866D02*
G03*
X-113757Y-106866I-800J0D01*
G01*
X-118157Y-104466D02*
G03*
X-118157Y-104466I-800J0D01*
G01*
X-109457Y-108766D02*
G03*
X-109457Y-108766I-800J0D01*
G01*
X-118357Y-108866D02*
G03*
X-118357Y-108866I-800J0D01*
G01*
X-109457Y-104566D02*
G03*
X-109457Y-104566I-800J0D01*
G01*
X-122457Y-104466D02*
G03*
X-122457Y-104466I-800J0D01*
G01*
X-131357Y-108766D02*
G03*
X-131357Y-108766I-800J0D01*
G01*
X-122457Y-108666D02*
G03*
X-122457Y-108666I-800J0D01*
G01*
X-131157Y-104366D02*
G03*
X-131157Y-104366I-800J0D01*
G01*
Y-115266D02*
G03*
X-131157Y-115266I-800J0D01*
G01*
X-122457Y-119566D02*
G03*
X-122457Y-119566I-800J0D01*
G01*
X-131357Y-119666D02*
G03*
X-131357Y-119666I-800J0D01*
G01*
X-122457Y-115366D02*
G03*
X-122457Y-115366I-800J0D01*
G01*
X-109457Y-115466D02*
G03*
X-109457Y-115466I-800J0D01*
G01*
X-118357Y-119766D02*
G03*
X-118357Y-119766I-800J0D01*
G01*
X-109457Y-119666D02*
G03*
X-109457Y-119666I-800J0D01*
G01*
X-118157Y-115366D02*
G03*
X-118157Y-115366I-800J0D01*
G01*
X-113757Y-117766D02*
G03*
X-113757Y-117766I-800J0D01*
G01*
X-126956Y-117666D02*
G03*
X-126956Y-117666I-800J0D01*
G01*
X-153256Y-117566D02*
G03*
X-153256Y-117566I-800J0D01*
G01*
X-140057Y-117666D02*
G03*
X-140057Y-117666I-800J0D01*
G01*
X-144457Y-115266D02*
G03*
X-144457Y-115266I-800J0D01*
G01*
X-135757Y-119566D02*
G03*
X-135757Y-119566I-800J0D01*
G01*
X-144657Y-119666D02*
G03*
X-144657Y-119666I-800J0D01*
G01*
X-135757Y-115366D02*
G03*
X-135757Y-115366I-800J0D01*
G01*
X-148757Y-115266D02*
G03*
X-148757Y-115266I-800J0D01*
G01*
X-157657Y-119566D02*
G03*
X-157657Y-119566I-800J0D01*
G01*
X-148757Y-119466D02*
G03*
X-148757Y-119466I-800J0D01*
G01*
X-157400Y-78500D02*
G03*
X-157400Y-78500I-800J0D01*
G01*
X-148700Y-82800D02*
G03*
X-148700Y-82800I-800J0D01*
G01*
X-157600Y-82900D02*
G03*
X-157600Y-82900I-800J0D01*
G01*
X-148700Y-78600D02*
G03*
X-148700Y-78600I-800J0D01*
G01*
X-135700Y-78700D02*
G03*
X-135700Y-78700I-800J0D01*
G01*
X-144600Y-83000D02*
G03*
X-144600Y-83000I-800J0D01*
G01*
X-135700Y-82900D02*
G03*
X-135700Y-82900I-800J0D01*
G01*
X-144400Y-78600D02*
G03*
X-144400Y-78600I-800J0D01*
G01*
X-140000Y-81000D02*
G03*
X-140000Y-81000I-800J0D01*
G01*
X-153200Y-80900D02*
G03*
X-153200Y-80900I-800J0D01*
G01*
X-126900Y-81000D02*
G03*
X-126900Y-81000I-800J0D01*
G01*
X-113700Y-81100D02*
G03*
X-113700Y-81100I-800J0D01*
G01*
X-118100Y-78700D02*
G03*
X-118100Y-78700I-800J0D01*
G01*
X-109400Y-83000D02*
G03*
X-109400Y-83000I-800J0D01*
G01*
X-118300Y-83100D02*
G03*
X-118300Y-83100I-800J0D01*
G01*
X-109400Y-78800D02*
G03*
X-109400Y-78800I-800J0D01*
G01*
X-122400Y-78700D02*
G03*
X-122400Y-78700I-800J0D01*
G01*
X-131300Y-83000D02*
G03*
X-131300Y-83000I-800J0D01*
G01*
X-122400Y-82900D02*
G03*
X-122400Y-82900I-800J0D01*
G01*
X-131100Y-78600D02*
G03*
X-131100Y-78600I-800J0D01*
G01*
Y-89500D02*
G03*
X-131100Y-89500I-800J0D01*
G01*
X-122400Y-93800D02*
G03*
X-122400Y-93800I-800J0D01*
G01*
X-131300Y-93900D02*
G03*
X-131300Y-93900I-800J0D01*
G01*
X-122400Y-89600D02*
G03*
X-122400Y-89600I-800J0D01*
G01*
X-109400Y-89700D02*
G03*
X-109400Y-89700I-800J0D01*
G01*
X-118300Y-94000D02*
G03*
X-118300Y-94000I-800J0D01*
G01*
X-109400Y-93900D02*
G03*
X-109400Y-93900I-800J0D01*
G01*
X-118100Y-89600D02*
G03*
X-118100Y-89600I-800J0D01*
G01*
X-113700Y-92000D02*
G03*
X-113700Y-92000I-800J0D01*
G01*
X-126900Y-91900D02*
G03*
X-126900Y-91900I-800J0D01*
G01*
X-153200Y-91800D02*
G03*
X-153200Y-91800I-800J0D01*
G01*
X-140000Y-91900D02*
G03*
X-140000Y-91900I-800J0D01*
G01*
X-144400Y-89500D02*
G03*
X-144400Y-89500I-800J0D01*
G01*
X-135700Y-93800D02*
G03*
X-135700Y-93800I-800J0D01*
G01*
X-144600Y-93900D02*
G03*
X-144600Y-93900I-800J0D01*
G01*
X-135700Y-89600D02*
G03*
X-135700Y-89600I-800J0D01*
G01*
X-148700Y-89500D02*
G03*
X-148700Y-89500I-800J0D01*
G01*
X-157600Y-93800D02*
G03*
X-157600Y-93800I-800J0D01*
G01*
X-148700Y-93700D02*
G03*
X-148700Y-93700I-800J0D01*
G01*
X-157400Y-89400D02*
G03*
X-157400Y-89400I-800J0D01*
G01*
Y-52700D02*
G03*
X-157400Y-52700I-800J0D01*
G01*
X-148700Y-57000D02*
G03*
X-148700Y-57000I-800J0D01*
G01*
X-157600Y-57100D02*
G03*
X-157600Y-57100I-800J0D01*
G01*
X-148700Y-52800D02*
G03*
X-148700Y-52800I-800J0D01*
G01*
X-135700Y-52900D02*
G03*
X-135700Y-52900I-800J0D01*
G01*
X-144600Y-57200D02*
G03*
X-144600Y-57200I-800J0D01*
G01*
X-135700Y-57100D02*
G03*
X-135700Y-57100I-800J0D01*
G01*
X-144400Y-52800D02*
G03*
X-144400Y-52800I-800J0D01*
G01*
X-140000Y-55200D02*
G03*
X-140000Y-55200I-800J0D01*
G01*
X-153200Y-55100D02*
G03*
X-153200Y-55100I-800J0D01*
G01*
X-126900Y-55200D02*
G03*
X-126900Y-55200I-800J0D01*
G01*
X-113700Y-55300D02*
G03*
X-113700Y-55300I-800J0D01*
G01*
X-118100Y-52900D02*
G03*
X-118100Y-52900I-800J0D01*
G01*
X-109400Y-57200D02*
G03*
X-109400Y-57200I-800J0D01*
G01*
X-118300Y-57300D02*
G03*
X-118300Y-57300I-800J0D01*
G01*
X-109400Y-53000D02*
G03*
X-109400Y-53000I-800J0D01*
G01*
X-122400Y-52900D02*
G03*
X-122400Y-52900I-800J0D01*
G01*
X-131300Y-57200D02*
G03*
X-131300Y-57200I-800J0D01*
G01*
X-122400Y-57100D02*
G03*
X-122400Y-57100I-800J0D01*
G01*
X-131100Y-52800D02*
G03*
X-131100Y-52800I-800J0D01*
G01*
Y-63700D02*
G03*
X-131100Y-63700I-800J0D01*
G01*
X-122400Y-68000D02*
G03*
X-122400Y-68000I-800J0D01*
G01*
X-131300Y-68100D02*
G03*
X-131300Y-68100I-800J0D01*
G01*
X-122400Y-63800D02*
G03*
X-122400Y-63800I-800J0D01*
G01*
X-109400Y-63900D02*
G03*
X-109400Y-63900I-800J0D01*
G01*
X-118300Y-68200D02*
G03*
X-118300Y-68200I-800J0D01*
G01*
X-109400Y-68100D02*
G03*
X-109400Y-68100I-800J0D01*
G01*
X-118100Y-63800D02*
G03*
X-118100Y-63800I-800J0D01*
G01*
X-113700Y-66200D02*
G03*
X-113700Y-66200I-800J0D01*
G01*
X-126900Y-66100D02*
G03*
X-126900Y-66100I-800J0D01*
G01*
X-153200Y-66000D02*
G03*
X-153200Y-66000I-800J0D01*
G01*
X-140000Y-66100D02*
G03*
X-140000Y-66100I-800J0D01*
G01*
X-144400Y-63700D02*
G03*
X-144400Y-63700I-800J0D01*
G01*
X-135700Y-68000D02*
G03*
X-135700Y-68000I-800J0D01*
G01*
X-144600Y-68100D02*
G03*
X-144600Y-68100I-800J0D01*
G01*
X-135700Y-63800D02*
G03*
X-135700Y-63800I-800J0D01*
G01*
X-148700Y-63700D02*
G03*
X-148700Y-63700I-800J0D01*
G01*
X-157600Y-68000D02*
G03*
X-157600Y-68000I-800J0D01*
G01*
X-148700Y-67900D02*
G03*
X-148700Y-67900I-800J0D01*
G01*
X-157400Y-63600D02*
G03*
X-157400Y-63600I-800J0D01*
G01*
X-157300Y-800D02*
G03*
X-157300Y-800I-800J0D01*
G01*
X-148600Y-5100D02*
G03*
X-148600Y-5100I-800J0D01*
G01*
X-157500Y-5200D02*
G03*
X-157500Y-5200I-800J0D01*
G01*
X-148600Y-900D02*
G03*
X-148600Y-900I-800J0D01*
G01*
X-135600Y-1000D02*
G03*
X-135600Y-1000I-800J0D01*
G01*
X-144500Y-5300D02*
G03*
X-144500Y-5300I-800J0D01*
G01*
X-135600Y-5200D02*
G03*
X-135600Y-5200I-800J0D01*
G01*
X-144300Y-900D02*
G03*
X-144300Y-900I-800J0D01*
G01*
X-139900Y-3300D02*
G03*
X-139900Y-3300I-800J0D01*
G01*
X-153100Y-3200D02*
G03*
X-153100Y-3200I-800J0D01*
G01*
X-126800Y-3300D02*
G03*
X-126800Y-3300I-800J0D01*
G01*
X-113600Y-3400D02*
G03*
X-113600Y-3400I-800J0D01*
G01*
X-118000Y-1000D02*
G03*
X-118000Y-1000I-800J0D01*
G01*
X-109300Y-5300D02*
G03*
X-109300Y-5300I-800J0D01*
G01*
X-118200Y-5400D02*
G03*
X-118200Y-5400I-800J0D01*
G01*
X-109300Y-1100D02*
G03*
X-109300Y-1100I-800J0D01*
G01*
X-122300Y-1000D02*
G03*
X-122300Y-1000I-800J0D01*
G01*
X-131200Y-5300D02*
G03*
X-131200Y-5300I-800J0D01*
G01*
X-122300Y-5200D02*
G03*
X-122300Y-5200I-800J0D01*
G01*
X-131000Y-900D02*
G03*
X-131000Y-900I-800J0D01*
G01*
Y-11800D02*
G03*
X-131000Y-11800I-800J0D01*
G01*
X-122300Y-16100D02*
G03*
X-122300Y-16100I-800J0D01*
G01*
X-131200Y-16200D02*
G03*
X-131200Y-16200I-800J0D01*
G01*
X-122300Y-11900D02*
G03*
X-122300Y-11900I-800J0D01*
G01*
X-109300Y-12000D02*
G03*
X-109300Y-12000I-800J0D01*
G01*
X-118200Y-16300D02*
G03*
X-118200Y-16300I-800J0D01*
G01*
X-109300Y-16200D02*
G03*
X-109300Y-16200I-800J0D01*
G01*
X-118000Y-11900D02*
G03*
X-118000Y-11900I-800J0D01*
G01*
X-113600Y-14300D02*
G03*
X-113600Y-14300I-800J0D01*
G01*
X-126800Y-14200D02*
G03*
X-126800Y-14200I-800J0D01*
G01*
X-153100Y-14100D02*
G03*
X-153100Y-14100I-800J0D01*
G01*
X-139900Y-14200D02*
G03*
X-139900Y-14200I-800J0D01*
G01*
X-144300Y-11800D02*
G03*
X-144300Y-11800I-800J0D01*
G01*
X-135600Y-16100D02*
G03*
X-135600Y-16100I-800J0D01*
G01*
X-144500Y-16200D02*
G03*
X-144500Y-16200I-800J0D01*
G01*
X-135600Y-11900D02*
G03*
X-135600Y-11900I-800J0D01*
G01*
X-148600Y-11800D02*
G03*
X-148600Y-11800I-800J0D01*
G01*
X-157500Y-16100D02*
G03*
X-157500Y-16100I-800J0D01*
G01*
X-148600Y-16000D02*
G03*
X-148600Y-16000I-800J0D01*
G01*
X-157300Y-11700D02*
G03*
X-157300Y-11700I-800J0D01*
G01*
X-157500Y24023D02*
G03*
X-157500Y24023I-800J0D01*
G01*
X-135800D02*
G03*
X-135800Y24023I-800J0D01*
G01*
X-148800D02*
G03*
X-148800Y24023I-800J0D01*
G01*
X-118200D02*
G03*
X-118200Y24023I-800J0D01*
G01*
X-109500D02*
G03*
X-109500Y24023I-800J0D01*
G01*
X-131200D02*
G03*
X-131200Y24023I-800J0D01*
G01*
X-122500D02*
G03*
X-122500Y24023I-800J0D01*
G01*
X-144500D02*
G03*
X-144500Y24023I-800J0D01*
G01*
X-148900Y20700D02*
G03*
X-148900Y20700I-800J0D01*
G01*
X-157800Y20600D02*
G03*
X-157800Y20600I-800J0D01*
G01*
X-144800Y20500D02*
G03*
X-144800Y20500I-800J0D01*
G01*
X-135900Y20600D02*
G03*
X-135900Y20600I-800J0D01*
G01*
X-140200Y22500D02*
G03*
X-140200Y22500I-800J0D01*
G01*
X-153400Y22600D02*
G03*
X-153400Y22600I-800J0D01*
G01*
X-127100Y22500D02*
G03*
X-127100Y22500I-800J0D01*
G01*
X-113900Y22400D02*
G03*
X-113900Y22400I-800J0D01*
G01*
X-109600Y20500D02*
G03*
X-109600Y20500I-800J0D01*
G01*
X-118500Y20400D02*
G03*
X-118500Y20400I-800J0D01*
G01*
X-131500Y20500D02*
G03*
X-131500Y20500I-800J0D01*
G01*
X-122600Y20600D02*
G03*
X-122600Y20600I-800J0D01*
G01*
X-131300Y14000D02*
G03*
X-131300Y14000I-800J0D01*
G01*
X-122600Y9700D02*
G03*
X-122600Y9700I-800J0D01*
G01*
X-131500Y9600D02*
G03*
X-131500Y9600I-800J0D01*
G01*
X-122600Y13900D02*
G03*
X-122600Y13900I-800J0D01*
G01*
X-109600Y13800D02*
G03*
X-109600Y13800I-800J0D01*
G01*
X-118500Y9500D02*
G03*
X-118500Y9500I-800J0D01*
G01*
X-109600Y9600D02*
G03*
X-109600Y9600I-800J0D01*
G01*
X-118300Y13900D02*
G03*
X-118300Y13900I-800J0D01*
G01*
X-113900Y11500D02*
G03*
X-113900Y11500I-800J0D01*
G01*
X-127100Y11600D02*
G03*
X-127100Y11600I-800J0D01*
G01*
X-153400Y11700D02*
G03*
X-153400Y11700I-800J0D01*
G01*
X-140200Y11600D02*
G03*
X-140200Y11600I-800J0D01*
G01*
X-144600Y14000D02*
G03*
X-144600Y14000I-800J0D01*
G01*
X-135900Y9700D02*
G03*
X-135900Y9700I-800J0D01*
G01*
X-144800Y9600D02*
G03*
X-144800Y9600I-800J0D01*
G01*
X-135900Y13900D02*
G03*
X-135900Y13900I-800J0D01*
G01*
X-148900Y14000D02*
G03*
X-148900Y14000I-800J0D01*
G01*
X-157800Y9700D02*
G03*
X-157800Y9700I-800J0D01*
G01*
X-148900Y9800D02*
G03*
X-148900Y9800I-800J0D01*
G01*
X-157600Y14100D02*
G03*
X-157600Y14100I-800J0D01*
G01*
X-109500Y40100D02*
G03*
X-109500Y40100I-800J0D01*
G01*
X-144700Y35900D02*
G03*
X-144700Y35900I-800J0D01*
G01*
X-131200Y40300D02*
G03*
X-131200Y40300I-800J0D01*
G01*
X-118200Y40200D02*
G03*
X-118200Y40200I-800J0D01*
G01*
X-122500D02*
G03*
X-122500Y40200I-800J0D01*
G01*
X-148800Y36100D02*
G03*
X-148800Y36100I-800J0D01*
G01*
X-157700Y36000D02*
G03*
X-157700Y36000I-800J0D01*
G01*
X-135800D02*
G03*
X-135800Y36000I-800J0D01*
G01*
X-153300Y38000D02*
G03*
X-153300Y38000I-800J0D01*
G01*
X-127000Y37900D02*
G03*
X-127000Y37900I-800J0D01*
G01*
X-131400Y35900D02*
G03*
X-131400Y35900I-800J0D01*
G01*
X-109500D02*
G03*
X-109500Y35900I-800J0D01*
G01*
X-144500Y40300D02*
G03*
X-144500Y40300I-800J0D01*
G01*
X-148800D02*
G03*
X-148800Y40300I-800J0D01*
G01*
X-122500Y36000D02*
G03*
X-122500Y36000I-800J0D01*
G01*
X-113800Y37800D02*
G03*
X-113800Y37800I-800J0D01*
G01*
X-140100Y37900D02*
G03*
X-140100Y37900I-800J0D01*
G01*
X-118400Y35800D02*
G03*
X-118400Y35800I-800J0D01*
G01*
X-135800Y40200D02*
G03*
X-135800Y40200I-800J0D01*
G01*
X-157500Y40400D02*
G03*
X-157500Y40400I-800J0D01*
G01*
Y50900D02*
G03*
X-157500Y50900I-800J0D01*
G01*
X-148800Y46600D02*
G03*
X-148800Y46600I-800J0D01*
G01*
X-157700Y46500D02*
G03*
X-157700Y46500I-800J0D01*
G01*
X-148800Y50800D02*
G03*
X-148800Y50800I-800J0D01*
G01*
X-135800Y50700D02*
G03*
X-135800Y50700I-800J0D01*
G01*
X-144700Y46400D02*
G03*
X-144700Y46400I-800J0D01*
G01*
X-135800Y46500D02*
G03*
X-135800Y46500I-800J0D01*
G01*
X-144500Y50800D02*
G03*
X-144500Y50800I-800J0D01*
G01*
X-140100Y48400D02*
G03*
X-140100Y48400I-800J0D01*
G01*
X-153300Y48500D02*
G03*
X-153300Y48500I-800J0D01*
G01*
X-127000Y48400D02*
G03*
X-127000Y48400I-800J0D01*
G01*
X-113800Y48300D02*
G03*
X-113800Y48300I-800J0D01*
G01*
X-118200Y50700D02*
G03*
X-118200Y50700I-800J0D01*
G01*
X-109500Y46400D02*
G03*
X-109500Y46400I-800J0D01*
G01*
X-118400Y46300D02*
G03*
X-118400Y46300I-800J0D01*
G01*
X-109500Y50600D02*
G03*
X-109500Y50600I-800J0D01*
G01*
X-122500Y50700D02*
G03*
X-122500Y50700I-800J0D01*
G01*
X-131400Y46400D02*
G03*
X-131400Y46400I-800J0D01*
G01*
X-122500Y46500D02*
G03*
X-122500Y46500I-800J0D01*
G01*
X-131200Y50800D02*
G03*
X-131200Y50800I-800J0D01*
G01*
X-157400Y76800D02*
G03*
X-157400Y76800I-800J0D01*
G01*
X-148700Y72500D02*
G03*
X-148700Y72500I-800J0D01*
G01*
X-157600Y72400D02*
G03*
X-157600Y72400I-800J0D01*
G01*
X-148700Y76700D02*
G03*
X-148700Y76700I-800J0D01*
G01*
X-135700Y76600D02*
G03*
X-135700Y76600I-800J0D01*
G01*
X-144600Y72300D02*
G03*
X-144600Y72300I-800J0D01*
G01*
X-135700Y72400D02*
G03*
X-135700Y72400I-800J0D01*
G01*
X-144400Y76700D02*
G03*
X-144400Y76700I-800J0D01*
G01*
X-140000Y74300D02*
G03*
X-140000Y74300I-800J0D01*
G01*
X-153200Y74400D02*
G03*
X-153200Y74400I-800J0D01*
G01*
X-126900Y74300D02*
G03*
X-126900Y74300I-800J0D01*
G01*
X-113700Y74200D02*
G03*
X-113700Y74200I-800J0D01*
G01*
X-118100Y76600D02*
G03*
X-118100Y76600I-800J0D01*
G01*
X-109400Y72300D02*
G03*
X-109400Y72300I-800J0D01*
G01*
X-118300Y72200D02*
G03*
X-118300Y72200I-800J0D01*
G01*
X-109400Y76500D02*
G03*
X-109400Y76500I-800J0D01*
G01*
X-122400Y76600D02*
G03*
X-122400Y76600I-800J0D01*
G01*
X-131300Y72300D02*
G03*
X-131300Y72300I-800J0D01*
G01*
X-122400Y72400D02*
G03*
X-122400Y72400I-800J0D01*
G01*
X-131100Y76700D02*
G03*
X-131100Y76700I-800J0D01*
G01*
Y65800D02*
G03*
X-131100Y65800I-800J0D01*
G01*
X-122400Y61500D02*
G03*
X-122400Y61500I-800J0D01*
G01*
X-131300Y61400D02*
G03*
X-131300Y61400I-800J0D01*
G01*
X-122400Y65700D02*
G03*
X-122400Y65700I-800J0D01*
G01*
X-109400Y65600D02*
G03*
X-109400Y65600I-800J0D01*
G01*
X-118300Y61300D02*
G03*
X-118300Y61300I-800J0D01*
G01*
X-109400Y61400D02*
G03*
X-109400Y61400I-800J0D01*
G01*
X-118100Y65700D02*
G03*
X-118100Y65700I-800J0D01*
G01*
X-113700Y63300D02*
G03*
X-113700Y63300I-800J0D01*
G01*
X-126900Y63400D02*
G03*
X-126900Y63400I-800J0D01*
G01*
X-153200Y63500D02*
G03*
X-153200Y63500I-800J0D01*
G01*
X-140000Y63400D02*
G03*
X-140000Y63400I-800J0D01*
G01*
X-144400Y65800D02*
G03*
X-144400Y65800I-800J0D01*
G01*
X-135700Y61500D02*
G03*
X-135700Y61500I-800J0D01*
G01*
X-144600Y61400D02*
G03*
X-144600Y61400I-800J0D01*
G01*
X-135700Y65700D02*
G03*
X-135700Y65700I-800J0D01*
G01*
X-148700Y65800D02*
G03*
X-148700Y65800I-800J0D01*
G01*
X-157600Y61500D02*
G03*
X-157600Y61500I-800J0D01*
G01*
X-148700Y61600D02*
G03*
X-148700Y61600I-800J0D01*
G01*
X-157400Y65900D02*
G03*
X-157400Y65900I-800J0D01*
G01*
X-209360Y-127258D02*
G03*
X-209360Y-127258I-800J0D01*
G01*
X-216867Y-123777D02*
G03*
X-216867Y-123777I-800J0D01*
G01*
X-219450Y-120800D02*
G03*
X-219450Y-120800I-800J0D01*
G01*
X-227450Y-120050D02*
G03*
X-227450Y-120050I-800J0D01*
G01*
Y-118300D02*
G03*
X-227450Y-118300I-800J0D01*
G01*
X-229200D02*
G03*
X-229200Y-118300I-800J0D01*
G01*
Y-120050D02*
G03*
X-229200Y-120050I-800J0D01*
G01*
X-218450Y-115550D02*
G03*
X-218450Y-115550I-800J0D01*
G01*
X-230950Y-118300D02*
G03*
X-230950Y-118300I-800J0D01*
G01*
Y-120050D02*
G03*
X-230950Y-120050I-800J0D01*
G01*
X-227200Y-106550D02*
G03*
X-227200Y-106550I-800J0D01*
G01*
X-227450Y-121800D02*
G03*
X-227450Y-121800I-800J0D01*
G01*
X-187477Y-132430D02*
G03*
X-187477Y-132430I-800J0D01*
G01*
Y-129870D02*
G03*
X-187477Y-129870I-800J0D01*
G01*
X-157400Y91800D02*
G03*
X-157400Y91800I-800J0D01*
G01*
X-148700Y87500D02*
G03*
X-148700Y87500I-800J0D01*
G01*
X-157600Y87400D02*
G03*
X-157600Y87400I-800J0D01*
G01*
X-148700Y91700D02*
G03*
X-148700Y91700I-800J0D01*
G01*
X-135700Y91600D02*
G03*
X-135700Y91600I-800J0D01*
G01*
X-144600Y87300D02*
G03*
X-144600Y87300I-800J0D01*
G01*
X-135700Y87400D02*
G03*
X-135700Y87400I-800J0D01*
G01*
X-144400Y91700D02*
G03*
X-144400Y91700I-800J0D01*
G01*
X-140000Y89300D02*
G03*
X-140000Y89300I-800J0D01*
G01*
X-153200Y89400D02*
G03*
X-153200Y89400I-800J0D01*
G01*
X-126900Y89300D02*
G03*
X-126900Y89300I-800J0D01*
G01*
X-113700Y89200D02*
G03*
X-113700Y89200I-800J0D01*
G01*
X-118100Y91600D02*
G03*
X-118100Y91600I-800J0D01*
G01*
X-109400Y87300D02*
G03*
X-109400Y87300I-800J0D01*
G01*
X-118300Y87200D02*
G03*
X-118300Y87200I-800J0D01*
G01*
X-109400Y91500D02*
G03*
X-109400Y91500I-800J0D01*
G01*
X-122400Y91600D02*
G03*
X-122400Y91600I-800J0D01*
G01*
X-131300Y87300D02*
G03*
X-131300Y87300I-800J0D01*
G01*
X-122400Y87400D02*
G03*
X-122400Y87400I-800J0D01*
G01*
X-131100Y91700D02*
G03*
X-131100Y91700I-800J0D01*
G01*
Y102600D02*
G03*
X-131100Y102600I-800J0D01*
G01*
X-122400Y98300D02*
G03*
X-122400Y98300I-800J0D01*
G01*
X-131300Y98200D02*
G03*
X-131300Y98200I-800J0D01*
G01*
X-122400Y102500D02*
G03*
X-122400Y102500I-800J0D01*
G01*
X-109400Y102400D02*
G03*
X-109400Y102400I-800J0D01*
G01*
X-118300Y98100D02*
G03*
X-118300Y98100I-800J0D01*
G01*
X-109400Y98200D02*
G03*
X-109400Y98200I-800J0D01*
G01*
X-118100Y102500D02*
G03*
X-118100Y102500I-800J0D01*
G01*
X-113700Y100100D02*
G03*
X-113700Y100100I-800J0D01*
G01*
X-126900Y100200D02*
G03*
X-126900Y100200I-800J0D01*
G01*
X-153200Y100300D02*
G03*
X-153200Y100300I-800J0D01*
G01*
X-140000Y100200D02*
G03*
X-140000Y100200I-800J0D01*
G01*
X-144400Y102600D02*
G03*
X-144400Y102600I-800J0D01*
G01*
X-135700Y98300D02*
G03*
X-135700Y98300I-800J0D01*
G01*
X-144600Y98200D02*
G03*
X-144600Y98200I-800J0D01*
G01*
X-135700Y102500D02*
G03*
X-135700Y102500I-800J0D01*
G01*
X-148700Y102600D02*
G03*
X-148700Y102600I-800J0D01*
G01*
X-157600Y98300D02*
G03*
X-157600Y98300I-800J0D01*
G01*
X-223129Y132829D02*
G03*
X-223129Y132829I-800J0D01*
G01*
X-175900Y-134616D02*
G03*
X-175900Y-134616I-800J0D01*
G01*
X-91300Y59800D02*
G03*
X-91300Y59800I-800J0D01*
G01*
X-91700Y57900D02*
G03*
X-91700Y57900I-800J0D01*
G01*
X-93845Y55052D02*
G03*
X-93845Y55052I-800J0D01*
G01*
X132400Y163600D02*
G03*
X132400Y163600I-800J0D01*
G01*
Y161400D02*
G03*
X132400Y161400I-800J0D01*
G01*
X-245077Y148332D02*
G03*
X-245077Y148332I-800J0D01*
G01*
X-219418Y128118D02*
G03*
X-219418Y128118I-800J0D01*
G01*
X-186577Y-51500D02*
G03*
X-186577Y-51500I-800J0D01*
G01*
Y-48900D02*
G03*
X-186577Y-48900I-800J0D01*
G01*
X-234032Y120568D02*
G03*
X-234032Y120568I-800J0D01*
G01*
X-268700Y80000D02*
G03*
X-268700Y80000I-800J0D01*
G01*
X-262450Y96500D02*
G03*
X-262450Y96500I-800J0D01*
G01*
X-278304Y85396D02*
G03*
X-278304Y85396I-800J0D01*
G01*
X-266700Y80000D02*
G03*
X-266700Y80000I-800J0D01*
G01*
X-43105Y-81795D02*
G03*
X-43105Y-81795I-800J0D01*
G01*
X-45100Y-119300D02*
G03*
X-45100Y-119300I-800J0D01*
G01*
X-41495Y-111995D02*
G03*
X-41495Y-111995I-800J0D01*
G01*
X-27600Y-152400D02*
G03*
X-27600Y-152400I-800J0D01*
G01*
X-45100Y-21400D02*
G03*
X-45100Y-21400I-800J0D01*
G01*
X78500Y-14400D02*
G03*
X78500Y-14400I-800J0D01*
G01*
Y83900D02*
G03*
X78500Y83900I-800J0D01*
G01*
X38800Y84300D02*
G03*
X38800Y84300I-800J0D01*
G01*
X-766Y84247D02*
G03*
X-766Y84247I-800J0D01*
G01*
X-44973Y77127D02*
G03*
X-44973Y77127I-800J0D01*
G01*
X78711Y111385D02*
G03*
X78711Y111385I-800J0D01*
G01*
X79502Y122290D02*
G03*
X79502Y122290I-800J0D01*
G01*
X39100Y111400D02*
G03*
X39100Y111400I-800J0D01*
G01*
X40047Y122298D02*
G03*
X40047Y122298I-800J0D01*
G01*
X100Y111600D02*
G03*
X100Y111600I-800J0D01*
G01*
X1091Y122434D02*
G03*
X1091Y122434I-800J0D01*
G01*
X-42865Y114573D02*
G03*
X-42865Y114573I-800J0D01*
G01*
X66607Y-152400D02*
G03*
X66607Y-152400I-800J0D01*
G01*
X15221D02*
G03*
X15221Y-152400I-800J0D01*
G01*
X23786D02*
G03*
X23786Y-152400I-800J0D01*
G01*
X6657D02*
G03*
X6657Y-152400I-800J0D01*
G01*
X49479D02*
G03*
X49479Y-152400I-800J0D01*
G01*
X32350D02*
G03*
X32350Y-152400I-800J0D01*
G01*
X-10471D02*
G03*
X-10471Y-152400I-800J0D01*
G01*
X-74000Y-135900D02*
G03*
X-74000Y-135900I-800J0D01*
G01*
X-183841Y43325D02*
G03*
X-183841Y43325I-800J0D01*
G01*
X-184100Y46100D02*
G03*
X-184100Y46100I-800J0D01*
G01*
X-68422Y79326D02*
G03*
X-68422Y79326I-800J0D01*
G01*
X-74322Y81326D02*
G03*
X-74322Y81326I-800J0D01*
G01*
X-75818Y-17407D02*
G03*
X-75818Y-17407I-800J0D01*
G01*
X-74600Y-114900D02*
G03*
X-74600Y-114900I-800J0D01*
G01*
X-230950Y90750D02*
G03*
X-230950Y90750I-800J0D01*
G01*
X-89800Y-124400D02*
G03*
X-89800Y-124400I-800J0D01*
G01*
X-250700Y-21654D02*
G03*
X-250700Y-21654I-800J0D01*
G01*
X-273450Y-40500D02*
G03*
X-273450Y-40500I-800J0D01*
G01*
X-256300Y40800D02*
G03*
X-256300Y40800I-800J0D01*
G01*
X-259300Y140400D02*
G03*
X-259300Y140400I-800J0D01*
G01*
X-258800Y133700D02*
G03*
X-258800Y133700I-800J0D01*
G01*
X-231200Y145800D02*
G03*
X-231200Y145800I-800J0D01*
G01*
X-212500Y121660D02*
G03*
X-212500Y121660I-800J0D01*
G01*
X-215000Y125260D02*
G03*
X-215000Y125260I-800J0D01*
G01*
X-207500Y113600D02*
G03*
X-207500Y113600I-800J0D01*
G01*
X-148700Y98400D02*
G03*
X-148700Y98400I-800J0D01*
G01*
X-157400Y102700D02*
G03*
X-157400Y102700I-800J0D01*
G01*
X-218950Y55000D02*
G03*
X-218950Y55000I-800J0D01*
G01*
X-213178Y60272D02*
G03*
X-213178Y60272I-800J0D01*
G01*
X-167450Y46450D02*
G03*
X-167450Y46450I-800J0D01*
G01*
X-204858Y38895D02*
G03*
X-204858Y38895I-800J0D01*
G01*
X-175500Y41300D02*
G03*
X-175500Y41300I-800J0D01*
G01*
X-168600Y42000D02*
G03*
X-168600Y42000I-800J0D01*
G01*
X-208950Y48589D02*
G03*
X-208950Y48589I-800J0D01*
G01*
X-175500Y48306D02*
G03*
X-175500Y48306I-800J0D01*
G01*
X-92518Y-23977D02*
G03*
X-92518Y-23977I-800J0D01*
G01*
X-90918Y-20023D02*
G03*
X-90918Y-20023I-800J0D01*
G01*
X-91018Y-26907D02*
G03*
X-91018Y-26907I-800J0D01*
G01*
X-102652Y5770D02*
G03*
X-102652Y5770I-800J0D01*
G01*
X-98318Y-907D02*
G03*
X-98318Y-907I-800J0D01*
G01*
X-97618Y3793D02*
G03*
X-97618Y3793I-800J0D01*
G01*
X-97830Y-96195D02*
G03*
X-97830Y-96195I-800J0D01*
G01*
X-89800Y-112672D02*
G03*
X-89800Y-112672I-800J0D01*
G01*
X-233526Y140732D02*
G03*
X-233526Y140732I-800J0D01*
G01*
X-236223Y127500D02*
G03*
X-236223Y127500I-800J0D01*
G01*
X-216900Y170200D02*
G03*
X-216900Y170200I-800J0D01*
G01*
X-215300Y171900D02*
G03*
X-215300Y171900I-800J0D01*
G01*
X-213800Y173500D02*
G03*
X-213800Y173500I-800J0D01*
G01*
X-188300Y92100D02*
G03*
X-188300Y92100I-800J0D01*
G01*
X-182600Y-143600D02*
G03*
X-182600Y-143600I-800J0D01*
G01*
X-185000Y-143500D02*
G03*
X-185000Y-143500I-800J0D01*
G01*
X-182600Y-141600D02*
G03*
X-182600Y-141600I-800J0D01*
G01*
X-184900D02*
G03*
X-184900Y-141600I-800J0D01*
G01*
X-182500Y-67900D02*
G03*
X-182500Y-67900I-800J0D01*
G01*
X-185100Y-68000D02*
G03*
X-185100Y-68000I-800J0D01*
G01*
X-182400Y-65400D02*
G03*
X-182400Y-65400I-800J0D01*
G01*
X-184900D02*
G03*
X-184900Y-65400I-800J0D01*
G01*
X-182600Y26400D02*
G03*
X-182600Y26400I-800J0D01*
G01*
X-185100D02*
G03*
X-185100Y26400I-800J0D01*
G01*
X-182400Y28800D02*
G03*
X-182400Y28800I-800J0D01*
G01*
X-185000Y28700D02*
G03*
X-185000Y28700I-800J0D01*
G01*
X-220104Y87589D02*
G03*
X-220104Y87589I-800J0D01*
G01*
X-188200Y-3000D02*
G03*
X-188200Y-3000I-800J0D01*
G01*
X-188700Y-83800D02*
G03*
X-188700Y-83800I-800J0D01*
G01*
X-211575Y72923D02*
G03*
X-211575Y72923I-800J0D01*
G01*
X-219450Y82500D02*
G03*
X-219450Y82500I-800J0D01*
G01*
X-193700Y77750D02*
G03*
X-193700Y77750I-800J0D01*
G01*
X-202200Y85750D02*
G03*
X-202200Y85750I-800J0D01*
G01*
X-209700Y88750D02*
G03*
X-209700Y88750I-800J0D01*
G01*
X-219450Y77250D02*
G03*
X-219450Y77250I-800J0D01*
G01*
X-218054Y41604D02*
G03*
X-218054Y41604I-800J0D01*
G01*
X-218026Y111132D02*
G03*
X-218026Y111132I-800J0D01*
G01*
X-218326Y109032D02*
G03*
X-218326Y109032I-800J0D01*
G01*
X-216226Y107832D02*
G03*
X-216226Y107832I-800J0D01*
G01*
X-216126Y109932D02*
G03*
X-216126Y109932I-800J0D01*
G01*
X-235826Y140732D02*
G03*
X-235826Y140732I-800J0D01*
G01*
X-231026D02*
G03*
X-231026Y140732I-800J0D01*
G01*
X-198826Y117832D02*
G03*
X-198826Y117832I-800J0D01*
G01*
X-202226Y114532D02*
G03*
X-202226Y114532I-800J0D01*
G01*
X-257826Y155432D02*
G03*
X-257826Y155432I-800J0D01*
G01*
X-254526Y149732D02*
G03*
X-254526Y149732I-800J0D01*
G01*
X-254600Y151500D02*
G03*
X-254600Y151500I-800J0D01*
G01*
X-247026Y152332D02*
G03*
X-247026Y152332I-800J0D01*
G01*
X-193700Y-17250D02*
G03*
X-193700Y-17250I-800J0D01*
G01*
X-74422Y60723D02*
G03*
X-74422Y60723I-800J0D01*
G01*
X-95823Y59477D02*
G03*
X-95823Y59477I-800J0D01*
G01*
X-208950Y43470D02*
G03*
X-208950Y43470I-800J0D01*
G01*
X-235793Y62119D02*
G03*
X-235793Y62119I-800J0D01*
G01*
X-226700Y69250D02*
G03*
X-226700Y69250I-800J0D01*
G01*
X-196950Y72923D02*
G03*
X-196950Y72923I-800J0D01*
G01*
X-168700Y-47300D02*
G03*
X-168700Y-47300I-800J0D01*
G01*
X-175500Y-46694D02*
G03*
X-175500Y-46694I-800J0D01*
G01*
Y-53700D02*
G03*
X-175500Y-53700I-800J0D01*
G01*
X-168600Y-53000D02*
G03*
X-168600Y-53000I-800J0D01*
G01*
X-77322Y56626D02*
G03*
X-77322Y56626I-800J0D01*
G01*
X-212700Y-77500D02*
G03*
X-212700Y-77500I-800J0D01*
G01*
X-218054Y-53396D02*
G03*
X-218054Y-53396I-800J0D01*
G01*
X-59200Y183200D02*
G03*
X-59200Y183200I-800J0D01*
G01*
X-197450Y-102800D02*
G03*
X-197450Y-102800I-800J0D01*
G01*
X-214800Y-32000D02*
G03*
X-214800Y-32000I-800J0D01*
G01*
X154662Y135662D02*
G03*
X154662Y135662I-800J0D01*
G01*
X146094Y144230D02*
G03*
X146094Y144230I-800J0D01*
G01*
X-235473Y16500D02*
G03*
X-235473Y16500I-800J0D01*
G01*
X-237450Y19750D02*
G03*
X-237450Y19750I-800J0D01*
G01*
X-90439Y75526D02*
G03*
X-90439Y75526I-800J0D01*
G01*
X-89422Y78656D02*
G03*
X-89422Y78656I-800J0D01*
G01*
X-89522Y83718D02*
G03*
X-89522Y83718I-800J0D01*
G01*
X-226700Y-25750D02*
G03*
X-226700Y-25750I-800J0D01*
G01*
X-96400Y-93300D02*
G03*
X-96400Y-93300I-800J0D01*
G01*
X-71722Y101026D02*
G03*
X-71722Y101026I-800J0D01*
G01*
X-91822Y103926D02*
G03*
X-91822Y103926I-800J0D01*
G01*
X-96822Y97826D02*
G03*
X-96822Y97826I-800J0D01*
G01*
X-89522Y71826D02*
G03*
X-89522Y71826I-800J0D01*
G01*
X-73218Y2293D02*
G03*
X-73218Y2293I-800J0D01*
G01*
X-69918Y-19407D02*
G03*
X-69918Y-19407I-800J0D01*
G01*
X-75918Y-38007D02*
G03*
X-75918Y-38007I-800J0D01*
G01*
X-78818Y-42107D02*
G03*
X-78818Y-42107I-800J0D01*
G01*
X-93318Y5193D02*
G03*
X-93318Y5193I-800J0D01*
G01*
X-91018Y-15015D02*
G03*
X-91018Y-15015I-800J0D01*
G01*
X-93218Y-39907D02*
G03*
X-93218Y-39907I-800J0D01*
G01*
X-92618Y-42507D02*
G03*
X-92618Y-42507I-800J0D01*
G01*
X-91400Y-140000D02*
G03*
X-91400Y-140000I-800J0D01*
G01*
X-92000Y-137400D02*
G03*
X-92000Y-137400I-800J0D01*
G01*
X-51900Y109100D02*
G03*
X-51900Y109100I-800J0D01*
G01*
Y10400D02*
G03*
X-51900Y10400I-800J0D01*
G01*
X-52000Y-87700D02*
G03*
X-52000Y-87700I-800J0D01*
G01*
X-91300Y-120700D02*
G03*
X-91300Y-120700I-800J0D01*
G01*
X-89700Y-117569D02*
G03*
X-89700Y-117569I-800J0D01*
G01*
X-97100Y-98400D02*
G03*
X-97100Y-98400I-800J0D01*
G01*
X-92100Y-92300D02*
G03*
X-92100Y-92300I-800J0D01*
G01*
X-77600Y-139600D02*
G03*
X-77600Y-139600I-800J0D01*
G01*
X-68700Y-116900D02*
G03*
X-68700Y-116900I-800J0D01*
G01*
X-72000Y-95200D02*
G03*
X-72000Y-95200I-800J0D01*
G01*
X167400Y147311D02*
G03*
X167400Y147311I-800J0D01*
G01*
X127400Y162200D02*
G03*
X127400Y162200I-800J0D01*
G01*
Y166564D02*
G03*
X127400Y166564I-800J0D01*
G01*
Y164300D02*
G03*
X127400Y164300I-800J0D01*
G01*
X152319Y147231D02*
G03*
X152319Y147231I-800J0D01*
G01*
X142400Y158900D02*
G03*
X142400Y158900I-800J0D01*
G01*
X162400Y143150D02*
G03*
X162400Y143150I-800J0D01*
G01*
X128500Y20600D02*
G03*
X128500Y20600I-800J0D01*
G01*
X175286Y57688D02*
G03*
X175286Y57688I-800J0D01*
G01*
X167400Y133400D02*
G03*
X167400Y133400I-800J0D01*
G01*
X155042Y56432D02*
G03*
X155042Y56432I-800J0D01*
G01*
X174800Y37535D02*
G03*
X174800Y37535I-800J0D01*
G01*
X145733Y47486D02*
G03*
X145733Y47486I-800J0D01*
G01*
X143197Y45709D02*
G03*
X143197Y45709I-800J0D01*
G01*
X141897Y-48891D02*
G03*
X141897Y-48891I-800J0D01*
G01*
X144433Y-47113D02*
G03*
X144433Y-47113I-800J0D01*
G01*
X173500Y-57065D02*
G03*
X173500Y-57065I-800J0D01*
G01*
X153742Y-38168D02*
G03*
X153742Y-38168I-800J0D01*
G01*
X173986Y-36912D02*
G03*
X173986Y-36912I-800J0D01*
G01*
X116164Y-133564D02*
G03*
X116164Y-133564I-800J0D01*
G01*
X95000Y-150900D02*
G03*
X95000Y-150900I-800J0D01*
G01*
X40914Y-152300D02*
G03*
X40914Y-152300I-800J0D01*
G01*
X75171D02*
G03*
X75171Y-152300I-800J0D01*
G01*
X-1907D02*
G03*
X-1907Y-152300I-800J0D01*
G01*
X58043D02*
G03*
X58043Y-152300I-800J0D01*
G01*
X172543Y-130643D02*
G03*
X172543Y-130643I-800J0D01*
G01*
X140081Y-140975D02*
G03*
X140081Y-140975I-800J0D01*
G01*
X141800Y-139655D02*
G03*
X141800Y-139655I-800J0D01*
G01*
X152300Y-131900D02*
G03*
X152300Y-131900I-800J0D01*
G01*
X-51028Y100300D02*
G03*
X-51028Y100300I-800J0D01*
G01*
X-51428Y104400D02*
G03*
X-51428Y104400I-800J0D01*
G01*
X-49728Y101600D02*
G03*
X-49728Y101600I-800J0D01*
G01*
X-51728Y110900D02*
G03*
X-51728Y110900I-800J0D01*
G01*
X-41928Y117600D02*
G03*
X-41928Y117600I-800J0D01*
G01*
X-52598Y89346D02*
G03*
X-52598Y89346I-800J0D01*
G01*
X-51328Y84400D02*
G03*
X-51328Y84400I-800J0D01*
G01*
X-36606Y65802D02*
G03*
X-36606Y65802I-800J0D01*
G01*
X5472Y65600D02*
G03*
X5472Y65600I-800J0D01*
G01*
X44572Y65700D02*
G03*
X44572Y65700I-800J0D01*
G01*
X83872Y65300D02*
G03*
X83872Y65300I-800J0D01*
G01*
X-51155Y79346D02*
G03*
X-51155Y79346I-800J0D01*
G01*
X-41708Y-13788D02*
G03*
X-41708Y-13788I-800J0D01*
G01*
X19000Y-90967D02*
G03*
X19000Y-90967I-800J0D01*
G01*
Y-95933D02*
G03*
X19000Y-95933I-800J0D01*
G01*
X12200Y-96000D02*
G03*
X12200Y-96000I-800J0D01*
G01*
Y-91000D02*
G03*
X12200Y-91000I-800J0D01*
G01*
X-51182Y1643D02*
G03*
X-51182Y1643I-800J0D01*
G01*
X-51582Y5742D02*
G03*
X-51582Y5742I-800J0D01*
G01*
X-49882Y2943D02*
G03*
X-49882Y2943I-800J0D01*
G01*
X-51882Y12242D02*
G03*
X-51882Y12242I-800J0D01*
G01*
X-42982Y15943D02*
G03*
X-42982Y15943I-800J0D01*
G01*
X-42082Y18943D02*
G03*
X-42082Y18943I-800J0D01*
G01*
X18Y12843D02*
G03*
X18Y12843I-800J0D01*
G01*
X39018Y12743D02*
G03*
X39018Y12743I-800J0D01*
G01*
X78518Y12642D02*
G03*
X78518Y12642I-800J0D01*
G01*
X79341Y23672D02*
G03*
X79341Y23672I-800J0D01*
G01*
X941Y23772D02*
G03*
X941Y23772I-800J0D01*
G01*
X-52751Y-9312D02*
G03*
X-52751Y-9312I-800J0D01*
G01*
X-51482Y-14257D02*
G03*
X-51482Y-14257I-800J0D01*
G01*
X-51309Y-19312D02*
G03*
X-51309Y-19312I-800J0D01*
G01*
X39941Y23672D02*
G03*
X39941Y23672I-800J0D01*
G01*
X78118Y-26057D02*
G03*
X78118Y-26057I-800J0D01*
G01*
X38718D02*
G03*
X38718Y-26057I-800J0D01*
G01*
Y-14357D02*
G03*
X38718Y-14357I-800J0D01*
G01*
X-782Y-26057D02*
G03*
X-782Y-26057I-800J0D01*
G01*
X-882Y-14457D02*
G03*
X-882Y-14457I-800J0D01*
G01*
X-23100Y-100300D02*
G03*
X-23100Y-100300I-800J0D01*
G01*
X-29900Y-100400D02*
G03*
X-29900Y-100400I-800J0D01*
G01*
X12200Y-101000D02*
G03*
X12200Y-101000I-800J0D01*
G01*
X19000Y-100900D02*
G03*
X19000Y-100900I-800J0D01*
G01*
X-35900Y-97500D02*
G03*
X-35900Y-97500I-800J0D01*
G01*
X-19900Y-87200D02*
G03*
X-19900Y-87200I-800J0D01*
G01*
X-26400Y-87300D02*
G03*
X-26400Y-87300I-800J0D01*
G01*
X93042Y-68800D02*
G03*
X93042Y-68800I-800J0D01*
G01*
Y-74600D02*
G03*
X93042Y-74600I-800J0D01*
G01*
Y-71700D02*
G03*
X93042Y-71700I-800J0D01*
G01*
Y-77500D02*
G03*
X93042Y-77500I-800J0D01*
G01*
Y-65700D02*
G03*
X93042Y-65700I-800J0D01*
G01*
X97283Y-79587D02*
G03*
X97283Y-79587I-800J0D01*
G01*
Y-76687D02*
G03*
X97283Y-76687I-800J0D01*
G01*
Y-70887D02*
G03*
X97283Y-70887I-800J0D01*
G01*
Y-73787D02*
G03*
X97283Y-73787I-800J0D01*
G01*
Y-67987D02*
G03*
X97283Y-67987I-800J0D01*
G01*
X88800Y-67300D02*
G03*
X88800Y-67300I-800J0D01*
G01*
Y-73100D02*
G03*
X88800Y-73100I-800J0D01*
G01*
Y-70200D02*
G03*
X88800Y-70200I-800J0D01*
G01*
Y-76000D02*
G03*
X88800Y-76000I-800J0D01*
G01*
Y-78900D02*
G03*
X88800Y-78900I-800J0D01*
G01*
X105766Y-68387D02*
G03*
X105766Y-68387I-800J0D01*
G01*
Y-74187D02*
G03*
X105766Y-74187I-800J0D01*
G01*
Y-71287D02*
G03*
X105766Y-71287I-800J0D01*
G01*
Y-77087D02*
G03*
X105766Y-77087I-800J0D01*
G01*
Y-79987D02*
G03*
X105766Y-79987I-800J0D01*
G01*
X113800Y-74100D02*
G03*
X113800Y-74100I-800J0D01*
G01*
Y-71200D02*
G03*
X113800Y-71200I-800J0D01*
G01*
Y-77000D02*
G03*
X113800Y-77000I-800J0D01*
G01*
X110008Y-66787D02*
G03*
X110008Y-66787I-800J0D01*
G01*
Y-78587D02*
G03*
X110008Y-78587I-800J0D01*
G01*
Y-72787D02*
G03*
X110008Y-72787I-800J0D01*
G01*
Y-75687D02*
G03*
X110008Y-75687I-800J0D01*
G01*
Y-69887D02*
G03*
X110008Y-69887I-800J0D01*
G01*
X101525Y-75487D02*
G03*
X101525Y-75487I-800J0D01*
G01*
Y-69687D02*
G03*
X101525Y-69687I-800J0D01*
G01*
Y-78387D02*
G03*
X101525Y-78387I-800J0D01*
G01*
Y-72587D02*
G03*
X101525Y-72587I-800J0D01*
G01*
Y-66587D02*
G03*
X101525Y-66587I-800J0D01*
G01*
X93042Y-80500D02*
G03*
X93042Y-80500I-800J0D01*
G01*
X-15562Y-69900D02*
G03*
X-15562Y-69900I-800J0D01*
G01*
Y-67000D02*
G03*
X-15562Y-67000I-800J0D01*
G01*
X-24254Y-66900D02*
G03*
X-24254Y-66900I-800J0D01*
G01*
Y-69800D02*
G03*
X-24254Y-69800I-800J0D01*
G01*
X-19908Y-71100D02*
G03*
X-19908Y-71100I-800J0D01*
G01*
Y-68200D02*
G03*
X-19908Y-68200I-800J0D01*
G01*
X-28600Y-68300D02*
G03*
X-28600Y-68300I-800J0D01*
G01*
Y-71200D02*
G03*
X-28600Y-71200I-800J0D01*
G01*
X1823Y-66900D02*
G03*
X1823Y-66900I-800J0D01*
G01*
Y-69800D02*
G03*
X1823Y-69800I-800J0D01*
G01*
X-6869Y-66900D02*
G03*
X-6869Y-66900I-800J0D01*
G01*
Y-69800D02*
G03*
X-6869Y-69800I-800J0D01*
G01*
X-2523Y-71200D02*
G03*
X-2523Y-71200I-800J0D01*
G01*
Y-68300D02*
G03*
X-2523Y-68300I-800J0D01*
G01*
X-11215D02*
G03*
X-11215Y-68300I-800J0D01*
G01*
Y-71200D02*
G03*
X-11215Y-71200I-800J0D01*
G01*
X27900Y-69900D02*
G03*
X27900Y-69900I-800J0D01*
G01*
Y-67000D02*
G03*
X27900Y-67000I-800J0D01*
G01*
X19208Y-66900D02*
G03*
X19208Y-66900I-800J0D01*
G01*
Y-69800D02*
G03*
X19208Y-69800I-800J0D01*
G01*
X10515Y-66900D02*
G03*
X10515Y-66900I-800J0D01*
G01*
Y-69800D02*
G03*
X10515Y-69800I-800J0D01*
G01*
X23554Y-71100D02*
G03*
X23554Y-71100I-800J0D01*
G01*
Y-68200D02*
G03*
X23554Y-68200I-800J0D01*
G01*
X14862Y-71200D02*
G03*
X14862Y-71200I-800J0D01*
G01*
Y-68300D02*
G03*
X14862Y-68300I-800J0D01*
G01*
X6169D02*
G03*
X6169Y-68300I-800J0D01*
G01*
Y-71200D02*
G03*
X6169Y-71200I-800J0D01*
G01*
X45285Y-69900D02*
G03*
X45285Y-69900I-800J0D01*
G01*
Y-67000D02*
G03*
X45285Y-67000I-800J0D01*
G01*
X36592Y-66900D02*
G03*
X36592Y-66900I-800J0D01*
G01*
Y-69800D02*
G03*
X36592Y-69800I-800J0D01*
G01*
X40938Y-71100D02*
G03*
X40938Y-71100I-800J0D01*
G01*
Y-68200D02*
G03*
X40938Y-68200I-800J0D01*
G01*
X32246Y-71200D02*
G03*
X32246Y-71200I-800J0D01*
G01*
Y-68300D02*
G03*
X32246Y-68300I-800J0D01*
G01*
X62669Y-69900D02*
G03*
X62669Y-69900I-800J0D01*
G01*
Y-67000D02*
G03*
X62669Y-67000I-800J0D01*
G01*
X53977Y-66900D02*
G03*
X53977Y-66900I-800J0D01*
G01*
Y-69800D02*
G03*
X53977Y-69800I-800J0D01*
G01*
X58323Y-71100D02*
G03*
X58323Y-71100I-800J0D01*
G01*
Y-68200D02*
G03*
X58323Y-68200I-800J0D01*
G01*
X49631Y-68300D02*
G03*
X49631Y-68300I-800J0D01*
G01*
Y-71200D02*
G03*
X49631Y-71200I-800J0D01*
G01*
X80054Y-69800D02*
G03*
X80054Y-69800I-800J0D01*
G01*
Y-66900D02*
G03*
X80054Y-66900I-800J0D01*
G01*
X71362D02*
G03*
X71362Y-66900I-800J0D01*
G01*
Y-69800D02*
G03*
X71362Y-69800I-800J0D01*
G01*
X67015Y-68300D02*
G03*
X67015Y-68300I-800J0D01*
G01*
Y-71200D02*
G03*
X67015Y-71200I-800J0D01*
G01*
X28500Y-87900D02*
G03*
X28500Y-87900I-800J0D01*
G01*
Y-92825D02*
G03*
X28500Y-92825I-800J0D01*
G01*
Y-97750D02*
G03*
X28500Y-97750I-800J0D01*
G01*
X35000Y-87800D02*
G03*
X35000Y-87800I-800J0D01*
G01*
Y-92825D02*
G03*
X35000Y-92825I-800J0D01*
G01*
Y-97850D02*
G03*
X35000Y-97850I-800J0D01*
G01*
X31800Y-94525D02*
G03*
X31800Y-94525I-800J0D01*
G01*
Y-89400D02*
G03*
X31800Y-89400I-800J0D01*
G01*
Y-99650D02*
G03*
X31800Y-99650I-800J0D01*
G01*
Y-104775D02*
G03*
X31800Y-104775I-800J0D01*
G01*
X35000Y-102875D02*
G03*
X35000Y-102875I-800J0D01*
G01*
X28600Y-102675D02*
G03*
X28600Y-102675I-800J0D01*
G01*
X25400Y-100900D02*
G03*
X25400Y-100900I-800J0D01*
G01*
Y-105600D02*
G03*
X25400Y-105600I-800J0D01*
G01*
Y-95000D02*
G03*
X25400Y-95000I-800J0D01*
G01*
Y-89200D02*
G03*
X25400Y-89200I-800J0D01*
G01*
X25300Y-109700D02*
G03*
X25300Y-109700I-800J0D01*
G01*
X28600Y-107600D02*
G03*
X28600Y-107600I-800J0D01*
G01*
X35000Y-107900D02*
G03*
X35000Y-107900I-800J0D01*
G01*
X19000Y-109300D02*
G03*
X19000Y-109300I-800J0D01*
G01*
X22300Y-107300D02*
G03*
X22300Y-107300I-800J0D01*
G01*
X15900Y-107100D02*
G03*
X15900Y-107100I-800J0D01*
G01*
X15800Y-103200D02*
G03*
X15800Y-103200I-800J0D01*
G01*
X22300Y-103100D02*
G03*
X22300Y-103100I-800J0D01*
G01*
X19000Y-105400D02*
G03*
X19000Y-105400I-800J0D01*
G01*
X12300Y-105300D02*
G03*
X12300Y-105300I-800J0D01*
G01*
X12400Y-109300D02*
G03*
X12400Y-109300I-800J0D01*
G01*
X5600Y-104600D02*
G03*
X5600Y-104600I-800J0D01*
G01*
X9000Y-103600D02*
G03*
X9000Y-103600I-800J0D01*
G01*
X2400Y-102900D02*
G03*
X2400Y-102900I-800J0D01*
G01*
X2300Y-108800D02*
G03*
X2300Y-108800I-800J0D01*
G01*
X9000Y-107000D02*
G03*
X9000Y-107000I-800J0D01*
G01*
X5500Y-109400D02*
G03*
X5500Y-109400I-800J0D01*
G01*
X-300Y-97400D02*
G03*
X-300Y-97400I-800J0D01*
G01*
Y-101900D02*
G03*
X-300Y-101900I-800J0D01*
G01*
X-36500Y-109700D02*
G03*
X-36500Y-109700I-800J0D01*
G01*
X-32800Y-107300D02*
G03*
X-32800Y-107300I-800J0D01*
G01*
X-39800Y-108200D02*
G03*
X-39800Y-108200I-800J0D01*
G01*
X-39700Y-102300D02*
G03*
X-39700Y-102300I-800J0D01*
G01*
X-33000Y-103000D02*
G03*
X-33000Y-103000I-800J0D01*
G01*
X-36600Y-105400D02*
G03*
X-36600Y-105400I-800J0D01*
G01*
X-30000Y-109300D02*
G03*
X-30000Y-109300I-800J0D01*
G01*
X-29800Y-105300D02*
G03*
X-29800Y-105300I-800J0D01*
G01*
X-23100Y-105200D02*
G03*
X-23100Y-105200I-800J0D01*
G01*
X-19600Y-102900D02*
G03*
X-19600Y-102900I-800J0D01*
G01*
X-26100Y-103000D02*
G03*
X-26100Y-103000I-800J0D01*
G01*
X-26200Y-107300D02*
G03*
X-26200Y-107300I-800J0D01*
G01*
X-19700Y-107200D02*
G03*
X-19700Y-107200I-800J0D01*
G01*
X-23200Y-109200D02*
G03*
X-23200Y-109200I-800J0D01*
G01*
X-4000Y-109300D02*
G03*
X-4000Y-109300I-800J0D01*
G01*
X-10400D02*
G03*
X-10400Y-109300I-800J0D01*
G01*
X-6700Y-106844D02*
G03*
X-6700Y-106844I-800J0D01*
G01*
X-13200D02*
G03*
X-13200Y-106844I-800J0D01*
G01*
X-16800Y-109100D02*
G03*
X-16800Y-109100I-800J0D01*
G01*
X-16700Y-88600D02*
G03*
X-16700Y-88600I-800J0D01*
G01*
Y-94400D02*
G03*
X-16700Y-94400I-800J0D01*
G01*
Y-105000D02*
G03*
X-16700Y-105000I-800J0D01*
G01*
Y-100300D02*
G03*
X-16700Y-100300I-800J0D01*
G01*
X-13300Y-101933D02*
G03*
X-13300Y-101933I-800J0D01*
G01*
X-6800D02*
G03*
X-6800Y-101933I-800J0D01*
G01*
X-10200Y-104389D02*
G03*
X-10200Y-104389I-800J0D01*
G01*
X-10300Y-99478D02*
G03*
X-10300Y-99478I-800J0D01*
G01*
X-3900D02*
G03*
X-3900Y-99478I-800J0D01*
G01*
X-3800Y-104389D02*
G03*
X-3800Y-104389I-800J0D01*
G01*
X-3900Y-94567D02*
G03*
X-3900Y-94567I-800J0D01*
G01*
Y-89656D02*
G03*
X-3900Y-89656I-800J0D01*
G01*
X-10300D02*
G03*
X-10300Y-89656I-800J0D01*
G01*
Y-94567D02*
G03*
X-10300Y-94567I-800J0D01*
G01*
X-6900Y-97022D02*
G03*
X-6900Y-97022I-800J0D01*
G01*
X-7100Y-92111D02*
G03*
X-7100Y-92111I-800J0D01*
G01*
Y-87200D02*
G03*
X-7100Y-87200I-800J0D01*
G01*
X-13400Y-97022D02*
G03*
X-13400Y-97022I-800J0D01*
G01*
X-13600Y-92111D02*
G03*
X-13600Y-92111I-800J0D01*
G01*
Y-87200D02*
G03*
X-13600Y-87200I-800J0D01*
G01*
X-36800Y-92100D02*
G03*
X-36800Y-92100I-800J0D01*
G01*
X5000Y-92300D02*
G03*
X5000Y-92300I-800J0D01*
G01*
X83700Y-145100D02*
G03*
X83700Y-145100I-800J0D01*
G01*
X81300Y-137600D02*
G03*
X81300Y-137600I-800J0D01*
G01*
X44500Y-144800D02*
G03*
X44500Y-144800I-800J0D01*
G01*
X3300Y-137500D02*
G03*
X3300Y-137500I-800J0D01*
G01*
X3000Y-140700D02*
G03*
X3000Y-140700I-800J0D01*
G01*
X5800Y-144600D02*
G03*
X5800Y-144600I-800J0D01*
G01*
X97000Y-139200D02*
G03*
X97000Y-139200I-800J0D01*
G01*
Y-145000D02*
G03*
X97000Y-145000I-800J0D01*
G01*
X90200Y-139200D02*
G03*
X90200Y-139200I-800J0D01*
G01*
Y-145000D02*
G03*
X90200Y-145000I-800J0D01*
G01*
X86800Y-141700D02*
G03*
X86800Y-141700I-800J0D01*
G01*
X57900Y-139100D02*
G03*
X57900Y-139100I-800J0D01*
G01*
Y-144900D02*
G03*
X57900Y-144900I-800J0D01*
G01*
X51100Y-139100D02*
G03*
X51100Y-139100I-800J0D01*
G01*
Y-144900D02*
G03*
X51100Y-144900I-800J0D01*
G01*
X60900Y-141600D02*
G03*
X60900Y-141600I-800J0D01*
G01*
X54400Y-141700D02*
G03*
X54400Y-141700I-800J0D01*
G01*
X47600D02*
G03*
X47600Y-141700I-800J0D01*
G01*
X19000Y-138900D02*
G03*
X19000Y-138900I-800J0D01*
G01*
Y-144700D02*
G03*
X19000Y-144700I-800J0D01*
G01*
X12200Y-138900D02*
G03*
X12200Y-138900I-800J0D01*
G01*
Y-144700D02*
G03*
X12200Y-144700I-800J0D01*
G01*
X22200Y-141800D02*
G03*
X22200Y-141800I-800J0D01*
G01*
X15700Y-141900D02*
G03*
X15700Y-141900I-800J0D01*
G01*
X8900D02*
G03*
X8900Y-141900I-800J0D01*
G01*
X103300Y-124500D02*
G03*
X103300Y-124500I-800J0D01*
G01*
X103400Y-142200D02*
G03*
X103400Y-142200I-800J0D01*
G01*
Y-139300D02*
G03*
X103400Y-139300I-800J0D01*
G01*
X116100Y-124700D02*
G03*
X116100Y-124700I-800J0D01*
G01*
X109700D02*
G03*
X109700Y-124700I-800J0D01*
G01*
X113000Y-126200D02*
G03*
X113000Y-126200I-800J0D01*
G01*
X106500Y-137900D02*
G03*
X106500Y-137900I-800J0D01*
G01*
Y-132100D02*
G03*
X106500Y-132100I-800J0D01*
G01*
Y-126300D02*
G03*
X106500Y-126300I-800J0D01*
G01*
X64100Y-124100D02*
G03*
X64100Y-124100I-800J0D01*
G01*
Y-128600D02*
G03*
X64100Y-128600I-800J0D01*
G01*
Y-134400D02*
G03*
X64100Y-134400I-800J0D01*
G01*
X64200Y-144700D02*
G03*
X64200Y-144700I-800J0D01*
G01*
Y-138900D02*
G03*
X64200Y-138900I-800J0D01*
G01*
X67200Y-142100D02*
G03*
X67200Y-142100I-800J0D01*
G01*
X73700Y-142000D02*
G03*
X73700Y-142000I-800J0D01*
G01*
X70600Y-144900D02*
G03*
X70600Y-144900I-800J0D01*
G01*
X70500Y-140100D02*
G03*
X70500Y-140100I-800J0D01*
G01*
X77000Y-145000D02*
G03*
X77000Y-145000I-800J0D01*
G01*
Y-139100D02*
G03*
X77000Y-139100I-800J0D01*
G01*
X70500Y-128800D02*
G03*
X70500Y-128800I-800J0D01*
G01*
Y-134600D02*
G03*
X70500Y-134600I-800J0D01*
G01*
Y-124300D02*
G03*
X70500Y-124300I-800J0D01*
G01*
X73800Y-137400D02*
G03*
X73800Y-137400I-800J0D01*
G01*
Y-131600D02*
G03*
X73800Y-131600I-800J0D01*
G01*
Y-125800D02*
G03*
X73800Y-125800I-800J0D01*
G01*
X67300Y-137500D02*
G03*
X67300Y-137500I-800J0D01*
G01*
Y-131700D02*
G03*
X67300Y-131700I-800J0D01*
G01*
Y-125900D02*
G03*
X67300Y-125900I-800J0D01*
G01*
X80200Y-140800D02*
G03*
X80200Y-140800I-800J0D01*
G01*
X25000Y-124100D02*
G03*
X25000Y-124100I-800J0D01*
G01*
X25100Y-144700D02*
G03*
X25100Y-144700I-800J0D01*
G01*
Y-138900D02*
G03*
X25100Y-138900I-800J0D01*
G01*
X28400Y-142400D02*
G03*
X28400Y-142400I-800J0D01*
G01*
X34700D02*
G03*
X34700Y-142400I-800J0D01*
G01*
X31500Y-144900D02*
G03*
X31500Y-144900I-800J0D01*
G01*
X31400Y-140100D02*
G03*
X31400Y-140100I-800J0D01*
G01*
X37900Y-139100D02*
G03*
X37900Y-139100I-800J0D01*
G01*
Y-144900D02*
G03*
X37900Y-144900I-800J0D01*
G01*
X31400Y-124300D02*
G03*
X31400Y-124300I-800J0D01*
G01*
X34700Y-137400D02*
G03*
X34700Y-137400I-800J0D01*
G01*
Y-131600D02*
G03*
X34700Y-131600I-800J0D01*
G01*
Y-125800D02*
G03*
X34700Y-125800I-800J0D01*
G01*
X28200Y-137500D02*
G03*
X28200Y-137500I-800J0D01*
G01*
Y-131700D02*
G03*
X28200Y-131700I-800J0D01*
G01*
Y-125900D02*
G03*
X28200Y-125900I-800J0D01*
G01*
X41100Y-140600D02*
G03*
X41100Y-140600I-800J0D01*
G01*
X-500Y-137600D02*
G03*
X-500Y-137600I-800J0D01*
G01*
X-13400Y-125900D02*
G03*
X-13400Y-125900I-800J0D01*
G01*
Y-131700D02*
G03*
X-13400Y-131700I-800J0D01*
G01*
X-13600Y-136800D02*
G03*
X-13600Y-136800I-800J0D01*
G01*
X-6900Y-125800D02*
G03*
X-6900Y-125800I-800J0D01*
G01*
Y-131600D02*
G03*
X-6900Y-131600I-800J0D01*
G01*
Y-137400D02*
G03*
X-6900Y-137400I-800J0D01*
G01*
X-10200Y-124300D02*
G03*
X-10200Y-124300I-800J0D01*
G01*
X-10300Y-134600D02*
G03*
X-10300Y-134600I-800J0D01*
G01*
Y-128800D02*
G03*
X-10300Y-128800I-800J0D01*
G01*
X-3800Y-124300D02*
G03*
X-3800Y-124300I-800J0D01*
G01*
Y-129000D02*
G03*
X-3800Y-129000I-800J0D01*
G01*
Y-134800D02*
G03*
X-3800Y-134800I-800J0D01*
G01*
X-3900Y-140500D02*
G03*
X-3900Y-140500I-800J0D01*
G01*
X-3700Y-144900D02*
G03*
X-3700Y-144900I-800J0D01*
G01*
X-10300Y-140500D02*
G03*
X-10300Y-140500I-800J0D01*
G01*
X-10100Y-144900D02*
G03*
X-10100Y-144900I-800J0D01*
G01*
X-6800Y-142100D02*
G03*
X-6800Y-142100I-800J0D01*
G01*
X-13600D02*
G03*
X-13600Y-142100I-800J0D01*
G01*
X-33100D02*
G03*
X-33100Y-142100I-800J0D01*
G01*
X-19700D02*
G03*
X-19700Y-142100I-800J0D01*
G01*
X-29700Y-144900D02*
G03*
X-29700Y-144900I-800J0D01*
G01*
Y-138900D02*
G03*
X-29700Y-138900I-800J0D01*
G01*
X-22900Y-144900D02*
G03*
X-22900Y-144900I-800J0D01*
G01*
Y-138900D02*
G03*
X-22900Y-138900I-800J0D01*
G01*
X-16500D02*
G03*
X-16500Y-138900I-800J0D01*
G01*
Y-144900D02*
G03*
X-16500Y-144900I-800J0D01*
G01*
X-16600Y-124100D02*
G03*
X-16600Y-124100I-800J0D01*
G01*
X83736Y-152400D02*
G03*
X83736Y-152400I-800J0D01*
G01*
Y-149500D02*
G03*
X83736Y-149500I-800J0D01*
G01*
X97700Y-148500D02*
G03*
X97700Y-148500I-800J0D01*
G01*
X66607Y-149500D02*
G03*
X66607Y-149500I-800J0D01*
G01*
X75171Y-149400D02*
G03*
X75171Y-149400I-800J0D01*
G01*
X70889Y-151000D02*
G03*
X70889Y-151000I-800J0D01*
G01*
Y-148100D02*
G03*
X70889Y-148100I-800J0D01*
G01*
X79453Y-148200D02*
G03*
X79453Y-148200I-800J0D01*
G01*
Y-151100D02*
G03*
X79453Y-151100I-800J0D01*
G01*
X49479Y-149500D02*
G03*
X49479Y-149500I-800J0D01*
G01*
X58043Y-149400D02*
G03*
X58043Y-149400I-800J0D01*
G01*
X45196Y-151000D02*
G03*
X45196Y-151000I-800J0D01*
G01*
Y-148100D02*
G03*
X45196Y-148100I-800J0D01*
G01*
X53761Y-151000D02*
G03*
X53761Y-151000I-800J0D01*
G01*
Y-148100D02*
G03*
X53761Y-148100I-800J0D01*
G01*
X62325Y-148200D02*
G03*
X62325Y-148200I-800J0D01*
G01*
Y-151100D02*
G03*
X62325Y-151100I-800J0D01*
G01*
X23786Y-149500D02*
G03*
X23786Y-149500I-800J0D01*
G01*
X32350D02*
G03*
X32350Y-149500I-800J0D01*
G01*
X40914Y-149400D02*
G03*
X40914Y-149400I-800J0D01*
G01*
X28068Y-151000D02*
G03*
X28068Y-151000I-800J0D01*
G01*
Y-148100D02*
G03*
X28068Y-148100I-800J0D01*
G01*
X36632Y-151000D02*
G03*
X36632Y-151000I-800J0D01*
G01*
Y-148100D02*
G03*
X36632Y-148100I-800J0D01*
G01*
X6657Y-149500D02*
G03*
X6657Y-149500I-800J0D01*
G01*
X15221D02*
G03*
X15221Y-149500I-800J0D01*
G01*
X10939Y-151000D02*
G03*
X10939Y-151000I-800J0D01*
G01*
Y-148100D02*
G03*
X10939Y-148100I-800J0D01*
G01*
X19503Y-148200D02*
G03*
X19503Y-148200I-800J0D01*
G01*
Y-151100D02*
G03*
X19503Y-151100I-800J0D01*
G01*
X-10471Y-149500D02*
G03*
X-10471Y-149500I-800J0D01*
G01*
X-1907Y-149400D02*
G03*
X-1907Y-149400I-800J0D01*
G01*
X-6189Y-151000D02*
G03*
X-6189Y-151000I-800J0D01*
G01*
Y-148100D02*
G03*
X-6189Y-148100I-800J0D01*
G01*
X2375Y-148200D02*
G03*
X2375Y-148200I-800J0D01*
G01*
Y-151100D02*
G03*
X2375Y-151100I-800J0D01*
G01*
X-27600Y-149500D02*
G03*
X-27600Y-149500I-800J0D01*
G01*
X-19036Y-149400D02*
G03*
X-19036Y-149400I-800J0D01*
G01*
Y-152300D02*
G03*
X-19036Y-152300I-800J0D01*
G01*
X-23318Y-151000D02*
G03*
X-23318Y-151000I-800J0D01*
G01*
Y-148100D02*
G03*
X-23318Y-148100I-800J0D01*
G01*
X-14754Y-148200D02*
G03*
X-14754Y-148200I-800J0D01*
G01*
Y-151100D02*
G03*
X-14754Y-151100I-800J0D01*
G01*
X84228Y-136200D02*
G03*
X84228Y-136200I-800J0D01*
G01*
X81200Y-133900D02*
G03*
X81200Y-133900I-800J0D01*
G01*
X42100Y-137800D02*
G03*
X42100Y-137800I-800J0D01*
G01*
X45028Y-135400D02*
G03*
X45028Y-135400I-800J0D01*
G01*
X42000Y-133600D02*
G03*
X42000Y-133600I-800J0D01*
G01*
X6000Y-135700D02*
G03*
X6000Y-135700I-800J0D01*
G01*
X3400Y-133300D02*
G03*
X3400Y-133300I-800J0D01*
G01*
X-38500Y-133700D02*
G03*
X-38500Y-133700I-800J0D01*
G01*
X-35699Y-135600D02*
G03*
X-35699Y-135600I-800J0D01*
G01*
X-38600Y-137900D02*
G03*
X-38600Y-137900I-800J0D01*
G01*
X-38800Y-95100D02*
G03*
X-38800Y-95100I-800J0D01*
G01*
Y-99500D02*
G03*
X-38800Y-99500I-800J0D01*
G01*
X3500D02*
G03*
X3500Y-99500I-800J0D01*
G01*
Y-95300D02*
G03*
X3500Y-95300I-800J0D01*
G01*
X6228Y-97400D02*
G03*
X6228Y-97400I-800J0D01*
G01*
X-900Y-112300D02*
G03*
X-900Y-112300I-800J0D01*
G01*
X-800Y-123900D02*
G03*
X-800Y-123900I-800J0D01*
G01*
X38700Y-112200D02*
G03*
X38700Y-112200I-800J0D01*
G01*
Y-123900D02*
G03*
X38700Y-123900I-800J0D01*
G01*
X78100D02*
G03*
X78100Y-123900I-800J0D01*
G01*
X78300Y-112600D02*
G03*
X78300Y-112600I-800J0D01*
G01*
X39922Y-74171D02*
G03*
X39922Y-74171I-800J0D01*
G01*
X8900Y-99200D02*
G03*
X8900Y-99200I-800J0D01*
G01*
Y-93400D02*
G03*
X8900Y-93400I-800J0D01*
G01*
Y-87600D02*
G03*
X8900Y-87600I-800J0D01*
G01*
X15700D02*
G03*
X15700Y-87600I-800J0D01*
G01*
Y-93400D02*
G03*
X15700Y-93400I-800J0D01*
G01*
Y-99200D02*
G03*
X15700Y-99200I-800J0D01*
G01*
X22200Y-87500D02*
G03*
X22200Y-87500I-800J0D01*
G01*
Y-93300D02*
G03*
X22200Y-93300I-800J0D01*
G01*
Y-99100D02*
G03*
X22200Y-99100I-800J0D01*
G01*
X12200Y-86000D02*
G03*
X12200Y-86000I-800J0D01*
G01*
X18900Y-86000D02*
G03*
X18900Y-86000I-800J0D01*
G01*
X-33200Y-98900D02*
G03*
X-33200Y-98900I-800J0D01*
G01*
Y-93100D02*
G03*
X-33200Y-93100I-800J0D01*
G01*
Y-87300D02*
G03*
X-33200Y-87300I-800J0D01*
G01*
X-26400Y-93100D02*
G03*
X-26400Y-93100I-800J0D01*
G01*
Y-98900D02*
G03*
X-26400Y-98900I-800J0D01*
G01*
X-19900Y-93000D02*
G03*
X-19900Y-93000I-800J0D01*
G01*
Y-98800D02*
G03*
X-19900Y-98800I-800J0D01*
G01*
X-29900Y-85700D02*
G03*
X-29900Y-85700I-800J0D01*
G01*
X-23200D02*
G03*
X-23200Y-85700I-800J0D01*
G01*
X86900Y-137600D02*
G03*
X86900Y-137600I-800J0D01*
G01*
Y-131800D02*
G03*
X86900Y-131800I-800J0D01*
G01*
Y-126000D02*
G03*
X86900Y-126000I-800J0D01*
G01*
X93700D02*
G03*
X93700Y-126000I-800J0D01*
G01*
Y-131800D02*
G03*
X93700Y-131800I-800J0D01*
G01*
Y-137600D02*
G03*
X93700Y-137600I-800J0D01*
G01*
X100200Y-125900D02*
G03*
X100200Y-125900I-800J0D01*
G01*
Y-131700D02*
G03*
X100200Y-131700I-800J0D01*
G01*
Y-137500D02*
G03*
X100200Y-137500I-800J0D01*
G01*
X90200Y-124400D02*
G03*
X90200Y-124400I-800J0D01*
G01*
X96900D02*
G03*
X96900Y-124400I-800J0D01*
G01*
X47800Y-137300D02*
G03*
X47800Y-137300I-800J0D01*
G01*
Y-131500D02*
G03*
X47800Y-131500I-800J0D01*
G01*
Y-125700D02*
G03*
X47800Y-125700I-800J0D01*
G01*
X54600D02*
G03*
X54600Y-125700I-800J0D01*
G01*
Y-131500D02*
G03*
X54600Y-131500I-800J0D01*
G01*
Y-137300D02*
G03*
X54600Y-137300I-800J0D01*
G01*
X61100Y-125600D02*
G03*
X61100Y-125600I-800J0D01*
G01*
Y-131400D02*
G03*
X61100Y-131400I-800J0D01*
G01*
Y-137200D02*
G03*
X61100Y-137200I-800J0D01*
G01*
X51100Y-124100D02*
G03*
X51100Y-124100I-800J0D01*
G01*
X57800D02*
G03*
X57800Y-124100I-800J0D01*
G01*
X51000Y-134400D02*
G03*
X51000Y-134400I-800J0D01*
G01*
Y-128600D02*
G03*
X51000Y-128600I-800J0D01*
G01*
X57800Y-134400D02*
G03*
X57800Y-134400I-800J0D01*
G01*
Y-128600D02*
G03*
X57800Y-128600I-800J0D01*
G01*
X8900Y-137300D02*
G03*
X8900Y-137300I-800J0D01*
G01*
Y-131500D02*
G03*
X8900Y-131500I-800J0D01*
G01*
Y-125700D02*
G03*
X8900Y-125700I-800J0D01*
G01*
X15700D02*
G03*
X15700Y-125700I-800J0D01*
G01*
Y-131500D02*
G03*
X15700Y-131500I-800J0D01*
G01*
Y-137300D02*
G03*
X15700Y-137300I-800J0D01*
G01*
X22200Y-125600D02*
G03*
X22200Y-125600I-800J0D01*
G01*
Y-131400D02*
G03*
X22200Y-131400I-800J0D01*
G01*
Y-137200D02*
G03*
X22200Y-137200I-800J0D01*
G01*
X12200Y-124100D02*
G03*
X12200Y-124100I-800J0D01*
G01*
X18900D02*
G03*
X18900Y-124100I-800J0D01*
G01*
X12000Y-134500D02*
G03*
X12000Y-134500I-800J0D01*
G01*
Y-128700D02*
G03*
X12000Y-128700I-800J0D01*
G01*
X18800Y-134500D02*
G03*
X18800Y-134500I-800J0D01*
G01*
Y-128700D02*
G03*
X18800Y-128700I-800J0D01*
G01*
X-23000Y-124100D02*
G03*
X-23000Y-124100I-800J0D01*
G01*
X-29700D02*
G03*
X-29700Y-124100I-800J0D01*
G01*
X-19700Y-137200D02*
G03*
X-19700Y-137200I-800J0D01*
G01*
Y-131400D02*
G03*
X-19700Y-131400I-800J0D01*
G01*
Y-125600D02*
G03*
X-19700Y-125600I-800J0D01*
G01*
X-26200Y-137300D02*
G03*
X-26200Y-137300I-800J0D01*
G01*
Y-131500D02*
G03*
X-26200Y-131500I-800J0D01*
G01*
Y-125700D02*
G03*
X-26200Y-125700I-800J0D01*
G01*
X-33000D02*
G03*
X-33000Y-125700I-800J0D01*
G01*
Y-131500D02*
G03*
X-33000Y-131500I-800J0D01*
G01*
Y-137300D02*
G03*
X-33000Y-137300I-800J0D01*
G01*
X-168800Y-133900D02*
G03*
X-168800Y-133900I-800J0D01*
G01*
X-175700Y-127594D02*
G03*
X-175700Y-127594I-800J0D01*
G01*
X-51327Y-117154D02*
G03*
X-51327Y-117154I-800J0D01*
G01*
X83700Y-131200D02*
G03*
X83700Y-131200I-800J0D01*
G01*
X44400Y-130800D02*
G03*
X44400Y-130800I-800J0D01*
G01*
X5300Y-130900D02*
G03*
X5300Y-130900I-800J0D01*
G01*
X-36778Y-130699D02*
G03*
X-36778Y-130699I-800J0D01*
G01*
X-51500Y-112100D02*
G03*
X-51500Y-112100I-800J0D01*
G01*
X-52769Y-107154D02*
G03*
X-52769Y-107154I-800J0D01*
G01*
X922Y-74071D02*
G03*
X922Y-74071I-800J0D01*
G01*
X79322Y-74171D02*
G03*
X79322Y-74171I-800J0D01*
G01*
X78500Y-85200D02*
G03*
X78500Y-85200I-800J0D01*
G01*
X39000Y-85100D02*
G03*
X39000Y-85100I-800J0D01*
G01*
X0Y-85000D02*
G03*
X0Y-85000I-800J0D01*
G01*
X-42100Y-78900D02*
G03*
X-42100Y-78900I-800J0D01*
G01*
X-51900Y-85600D02*
G03*
X-51900Y-85600I-800J0D01*
G01*
X-49900Y-94900D02*
G03*
X-49900Y-94900I-800J0D01*
G01*
X-51600Y-92100D02*
G03*
X-51600Y-92100I-800J0D01*
G01*
X-51200Y-96200D02*
G03*
X-51200Y-96200I-800J0D01*
G01*
X115735Y159400D02*
G03*
X115735Y159400I-800J0D01*
G01*
Y161150D02*
G03*
X115735Y161150I-800J0D01*
G01*
Y162900D02*
G03*
X115735Y162900I-800J0D01*
G01*
X132400Y159400D02*
G03*
X132400Y159400I-800J0D01*
G01*
X162400Y158900D02*
G03*
X162400Y158900I-800J0D01*
G01*
X172400D02*
G03*
X172400Y158900I-800J0D01*
G01*
X-202700Y-90050D02*
G03*
X-202700Y-90050I-800J0D01*
G01*
X-210200Y-87050D02*
G03*
X-210200Y-87050I-800J0D01*
G01*
X-230950Y-129300D02*
G03*
X-230950Y-129300I-800J0D01*
G01*
X-229200D02*
G03*
X-229200Y-129300I-800J0D01*
G01*
X-227450D02*
G03*
X-227450Y-129300I-800J0D01*
G01*
X-230950Y-127550D02*
G03*
X-230950Y-127550I-800J0D01*
G01*
X-229200D02*
G03*
X-229200Y-127550I-800J0D01*
G01*
X-227450D02*
G03*
X-227450Y-127550I-800J0D01*
G01*
Y-125800D02*
G03*
X-227450Y-125800I-800J0D01*
G01*
X-230950D02*
G03*
X-230950Y-125800I-800J0D01*
G01*
X-229200D02*
G03*
X-229200Y-125800I-800J0D01*
G01*
X-212075Y-102800D02*
G03*
X-212075Y-102800I-800J0D01*
G01*
X-219950Y-98550D02*
G03*
X-219950Y-98550I-800J0D01*
G01*
Y-93300D02*
G03*
X-219950Y-93300I-800J0D01*
G01*
X-219861Y-88211D02*
G03*
X-219861Y-88211I-800J0D01*
G01*
X-231450Y-85050D02*
G03*
X-231450Y-85050I-800J0D01*
G01*
X-205358Y-136905D02*
G03*
X-205358Y-136905I-800J0D01*
G01*
X-209450Y-132330D02*
G03*
X-209450Y-132330I-800J0D01*
G01*
X-177150Y-131071D02*
G03*
X-177150Y-131071I-800J0D01*
G01*
X-168900Y-128200D02*
G03*
X-168900Y-128200I-800J0D01*
G01*
X-194200Y-98050D02*
G03*
X-194200Y-98050I-800J0D01*
G01*
X-230950Y-121800D02*
G03*
X-230950Y-121800I-800J0D01*
G01*
X-229200D02*
G03*
X-229200Y-121800I-800J0D01*
G01*
X-217950Y-34750D02*
G03*
X-217950Y-34750I-800J0D01*
G01*
X-218950Y-40000D02*
G03*
X-218950Y-40000I-800J0D01*
G01*
X-270293Y42219D02*
G03*
X-270293Y42219I-800J0D01*
G01*
X-270950Y29500D02*
G03*
X-270950Y29500I-800J0D01*
G01*
X-211575Y-22000D02*
G03*
X-211575Y-22000I-800J0D01*
G01*
X-250700Y-37402D02*
G03*
X-250700Y-37402I-800J0D01*
G01*
Y-33465D02*
G03*
X-250700Y-33465I-800J0D01*
G01*
Y-29528D02*
G03*
X-250700Y-29528I-800J0D01*
G01*
Y-25591D02*
G03*
X-250700Y-25591I-800J0D01*
G01*
Y-17717D02*
G03*
X-250700Y-17717I-800J0D01*
G01*
X-269861Y14839D02*
G03*
X-269861Y14839I-800J0D01*
G01*
X-268084D02*
G03*
X-268084Y14839I-800J0D01*
G01*
X-252200Y4000D02*
G03*
X-252200Y4000I-800J0D01*
G01*
X-249200D02*
G03*
X-249200Y4000I-800J0D01*
G01*
X-246200D02*
G03*
X-246200Y4000I-800J0D01*
G01*
X-59200Y179927D02*
G03*
X-59200Y179927I-800J0D01*
G01*
X-244861Y26634D02*
G03*
X-244861Y26634I-800J0D01*
G01*
Y28411D02*
G03*
X-244861Y28411I-800J0D01*
G01*
X-270450Y-8500D02*
G03*
X-270450Y-8500I-800J0D01*
G01*
X-268450Y-10500D02*
G03*
X-268450Y-10500I-800J0D01*
G01*
X-266450Y-12500D02*
G03*
X-266450Y-12500I-800J0D01*
G01*
X-220700Y32000D02*
G03*
X-220700Y32000I-800J0D01*
G01*
X-193700Y36000D02*
G03*
X-193700Y36000I-800J0D01*
G01*
X-193700Y32000D02*
G03*
X-193700Y32000I-800J0D01*
G01*
X-235950Y36000D02*
G03*
X-235950Y36000I-800J0D01*
G01*
X-235950Y32000D02*
G03*
X-235950Y32000I-800J0D01*
G01*
X-243450Y34000D02*
G03*
X-243450Y34000I-800J0D01*
G01*
X-274950Y-1000D02*
G03*
X-274950Y-1000I-800J0D01*
G01*
Y5250D02*
G03*
X-274950Y5250I-800J0D01*
G01*
X-277450Y16750D02*
G03*
X-277450Y16750I-800J0D01*
G01*
Y19250D02*
G03*
X-277450Y19250I-800J0D01*
G01*
X-274950Y14250D02*
G03*
X-274950Y14250I-800J0D01*
G01*
Y16750D02*
G03*
X-274950Y16750I-800J0D01*
G01*
Y19250D02*
G03*
X-274950Y19250I-800J0D01*
G01*
Y29000D02*
G03*
X-274950Y29000I-800J0D01*
G01*
X-243450Y11500D02*
G03*
X-243450Y11500I-800J0D01*
G01*
Y5000D02*
G03*
X-243450Y5000I-800J0D01*
G01*
X-248950Y10250D02*
G03*
X-248950Y10250I-800J0D01*
G01*
X-243950Y15250D02*
G03*
X-243950Y15250I-800J0D01*
G01*
X-176950Y44829D02*
G03*
X-176950Y44829I-800J0D01*
G01*
Y-50171D02*
G03*
X-176950Y-50171I-800J0D01*
G01*
X-249615Y73207D02*
G03*
X-249615Y73207I-800J0D01*
G01*
X-260200Y96500D02*
G03*
X-260200Y96500I-800J0D01*
G01*
X-261450Y110000D02*
G03*
X-261450Y110000I-800J0D01*
G01*
X-281200Y106000D02*
G03*
X-281200Y106000I-800J0D01*
G01*
Y104000D02*
G03*
X-281200Y104000I-800J0D01*
G01*
X-280747Y93000D02*
G03*
X-280747Y93000I-800J0D01*
G01*
X-196950Y-22000D02*
G03*
X-196950Y-22000I-800J0D01*
G01*
X-247493Y73207D02*
G03*
X-247493Y73207I-800J0D01*
G01*
X-270779Y1969D02*
G03*
X-270779Y1969I-800J0D01*
G01*
X-268787Y1966D02*
G03*
X-268787Y1966I-800J0D01*
G01*
X-245800Y100600D02*
G03*
X-245800Y100600I-800J0D01*
G01*
X-219450Y-12500D02*
G03*
X-219450Y-12500I-800J0D01*
G01*
X-230950Y-4250D02*
G03*
X-230950Y-4250I-800J0D01*
G01*
X-68700Y169500D02*
G03*
X-68700Y169500I-800J0D01*
G01*
X-72700D02*
G03*
X-72700Y169500I-800J0D01*
G01*
X-209700Y-6250D02*
G03*
X-209700Y-6250I-800J0D01*
G01*
X-219361Y-7411D02*
G03*
X-219361Y-7411I-800J0D01*
G01*
X-219450Y-17750D02*
G03*
X-219450Y-17750I-800J0D01*
G01*
X-202200Y-9250D02*
G03*
X-202200Y-9250I-800J0D01*
G01*
X-208950Y-46411D02*
G03*
X-208950Y-46411I-800J0D01*
G01*
X-204858Y-56105D02*
G03*
X-204858Y-56105I-800J0D01*
G01*
X-208950Y-51530D02*
G03*
X-208950Y-51530I-800J0D01*
G01*
M02*
