%TF.GenerationSoftware,KiCad,Pcbnew,7.0.10*%
%TF.CreationDate,2026-09-22T21:53:27+02:00*%
%TF.ProjectId,epc2361-prototype-p6,65706332-3336-4312-9d70-726f746f7479,rev?*%
%TF.SameCoordinates,Original*%
%TF.FileFunction,Copper,L1,Top*%
%TF.FilePolarity,Positive*%
%FSLAX46Y46*%
G04 Gerber Fmt 4.6, Leading zero omitted, Abs format (unit mm)*
G04 Created by KiCad (PCBNEW 7.0.10) date 2026-09-22 21:53:27*
%MOMM*%
%LPD*%
G01*
G04 APERTURE LIST*
G04 Aperture macros list*
%AMRoundRect*
0 Rectangle with rounded corners*
0 $1 Rounding radius*
0 $2 $3 $4 $5 $6 $7 $8 $9 X,Y pos of 4 corners*
0 Add a 4 corners polygon primitive as box body*
4,1,4,$2,$3,$4,$5,$6,$7,$8,$9,$2,$3,0*
0 Add four circle primitives for the rounded corners*
1,1,$1+$1,$2,$3*
1,1,$1+$1,$4,$5*
1,1,$1+$1,$6,$7*
1,1,$1+$1,$8,$9*
0 Add four rect primitives between the rounded corners*
20,1,$1+$1,$2,$3,$4,$5,0*
20,1,$1+$1,$4,$5,$6,$7,0*
20,1,$1+$1,$6,$7,$8,$9,0*
20,1,$1+$1,$8,$9,$2,$3,0*%
G04 Aperture macros list end*
%TA.AperFunction,SMDPad,CuDef*%
%ADD10RoundRect,0.050000X-0.300000X-0.300000X0.300000X-0.300000X0.300000X0.300000X-0.300000X0.300000X0*%
%TD*%
%TA.AperFunction,SMDPad,CuDef*%
%ADD11RoundRect,0.250000X0.475000X-0.250000X0.475000X0.250000X-0.475000X0.250000X-0.475000X-0.250000X0*%
%TD*%
%TA.AperFunction,SMDPad,CuDef*%
%ADD12RoundRect,0.110001X-0.440999X-0.459999X0.440999X-0.459999X0.440999X0.459999X-0.440999X0.459999X0*%
%TD*%
%TA.AperFunction,SMDPad,CuDef*%
%ADD13RoundRect,0.110001X-0.440999X-1.019999X0.440999X-1.019999X0.440999X1.019999X-0.440999X1.019999X0*%
%TD*%
%TA.AperFunction,SMDPad,CuDef*%
%ADD14RoundRect,0.065000X-0.260000X-1.735000X0.260000X-1.735000X0.260000X1.735000X-0.260000X1.735000X0*%
%TD*%
%TA.AperFunction,SMDPad,CuDef*%
%ADD15RoundRect,0.110001X-0.440999X-1.689999X0.440999X-1.689999X0.440999X1.689999X-0.440999X1.689999X0*%
%TD*%
%TA.AperFunction,SMDPad,CuDef*%
%ADD16RoundRect,0.250000X-0.300000X-0.300000X0.300000X-0.300000X0.300000X0.300000X-0.300000X0.300000X0*%
%TD*%
%TA.AperFunction,ComponentPad*%
%ADD17R,1.700000X1.700000*%
%TD*%
%TA.AperFunction,ComponentPad*%
%ADD18O,1.700000X1.700000*%
%TD*%
%TA.AperFunction,SMDPad,CuDef*%
%ADD19RoundRect,0.050000X-0.250000X-0.075000X0.250000X-0.075000X0.250000X0.075000X-0.250000X0.075000X0*%
%TD*%
%TA.AperFunction,SMDPad,CuDef*%
%ADD20RoundRect,0.050000X-0.075000X-0.250000X0.075000X-0.250000X0.075000X0.250000X-0.075000X0.250000X0*%
%TD*%
%TA.AperFunction,SMDPad,CuDef*%
%ADD21RoundRect,0.050000X-0.550000X-0.800000X0.550000X-0.800000X0.550000X0.800000X-0.550000X0.800000X0*%
%TD*%
%TA.AperFunction,SMDPad,CuDef*%
%ADD22RoundRect,0.050000X-0.325000X-0.800000X0.325000X-0.800000X0.325000X0.800000X-0.325000X0.800000X0*%
%TD*%
%TA.AperFunction,ComponentPad*%
%ADD23R,1.000000X1.000000*%
%TD*%
%TA.AperFunction,ComponentPad*%
%ADD24O,1.000000X1.000000*%
%TD*%
%TA.AperFunction,SMDPad,CuDef*%
%ADD25RoundRect,0.200000X0.275000X-0.200000X0.275000X0.200000X-0.275000X0.200000X-0.275000X-0.200000X0*%
%TD*%
%TA.AperFunction,SMDPad,CuDef*%
%ADD26RoundRect,0.135000X-0.135000X-0.185000X0.135000X-0.185000X0.135000X0.185000X-0.135000X0.185000X0*%
%TD*%
%TA.AperFunction,SMDPad,CuDef*%
%ADD27RoundRect,0.225000X0.250000X-0.225000X0.250000X0.225000X-0.250000X0.225000X-0.250000X-0.225000X0*%
%TD*%
%TA.AperFunction,SMDPad,CuDef*%
%ADD28R,2.200000X2.200000*%
%TD*%
%TA.AperFunction,SMDPad,CuDef*%
%ADD29RoundRect,0.135000X0.185000X-0.135000X0.185000X0.135000X-0.185000X0.135000X-0.185000X-0.135000X0*%
%TD*%
%TA.AperFunction,SMDPad,CuDef*%
%ADD30RoundRect,0.225000X-0.225000X-0.250000X0.225000X-0.250000X0.225000X0.250000X-0.225000X0.250000X0*%
%TD*%
%TA.AperFunction,ViaPad*%
%ADD31C,0.600000*%
%TD*%
%TA.AperFunction,Conductor*%
%ADD32C,1.000000*%
%TD*%
%TA.AperFunction,Conductor*%
%ADD33C,0.600000*%
%TD*%
%TA.AperFunction,Conductor*%
%ADD34C,0.150000*%
%TD*%
%TA.AperFunction,Conductor*%
%ADD35C,0.500000*%
%TD*%
%TA.AperFunction,Conductor*%
%ADD36C,0.800000*%
%TD*%
%TA.AperFunction,Conductor*%
%ADD37C,0.250000*%
%TD*%
%TA.AperFunction,Conductor*%
%ADD38C,0.200000*%
%TD*%
%TA.AperFunction,Conductor*%
%ADD39C,1.500000*%
%TD*%
%TA.AperFunction,Conductor*%
%ADD40C,0.850000*%
%TD*%
%TA.AperFunction,Conductor*%
%ADD41C,0.550000*%
%TD*%
%TA.AperFunction,Conductor*%
%ADD42C,0.300000*%
%TD*%
G04 APERTURE END LIST*
D10*
%TO.P,TP6,1*%
%TO.N,DC+*%
X52000000Y-30500000D03*
%TD*%
D11*
%TO.P,C14,1*%
%TO.N,VDD*%
X35000000Y-45450000D03*
%TO.P,C14,2*%
%TO.N,DC-*%
X35000000Y-43550000D03*
%TD*%
D12*
%TO.P,QL1,1*%
%TO.N,GL1*%
X45648000Y-36770000D03*
D13*
%TO.P,QL1,2*%
%TO.N,DC-*%
X45648000Y-38670000D03*
D14*
%TO.P,QL1,3*%
%TO.N,D_QL1*%
X46725000Y-38000000D03*
%TO.P,QL1,4*%
%TO.N,DC-*%
X47575000Y-38000000D03*
%TO.P,QL1,5*%
%TO.N,D_QL1*%
X48425000Y-38000000D03*
%TO.P,QL1,6*%
%TO.N,DC-*%
X49275000Y-38000000D03*
D15*
%TO.P,QL1,7*%
%TO.N,D_QL1*%
X50352000Y-38000000D03*
%TD*%
D16*
%TO.P,D1,1*%
%TO.N,HB*%
X36600000Y-24000000D03*
%TO.P,D1,2*%
%TO.N,BST_A*%
X39400000Y-24000000D03*
%TD*%
D11*
%TO.P,C21,1*%
%TO.N,DC+*%
X46950000Y-26950000D03*
%TO.P,C21,2*%
%TO.N,DC-*%
X46950000Y-25050000D03*
%TD*%
D17*
%TO.P,JDC1,1*%
%TO.N,DC+*%
X8000000Y-10000000D03*
D18*
%TO.P,JDC1,2*%
X8000000Y-7460000D03*
%TO.P,JDC1,3*%
X10540000Y-10000000D03*
%TO.P,JDC1,4*%
X10540000Y-7460000D03*
%TO.P,JDC1,5*%
X13080000Y-10000000D03*
%TO.P,JDC1,6*%
X13080000Y-7460000D03*
%TO.P,JDC1,7*%
X15620000Y-10000000D03*
%TO.P,JDC1,8*%
X15620000Y-7460000D03*
%TO.P,JDC1,9*%
X18160000Y-10000000D03*
%TO.P,JDC1,10*%
X18160000Y-7460000D03*
%TO.P,JDC1,11*%
X20700000Y-10000000D03*
%TO.P,JDC1,12*%
X20700000Y-7460000D03*
%TO.P,JDC1,13*%
X23240000Y-10000000D03*
%TO.P,JDC1,14*%
X23240000Y-7460000D03*
%TO.P,JDC1,15*%
X25780000Y-10000000D03*
%TO.P,JDC1,16*%
X25780000Y-7460000D03*
%TO.P,JDC1,17*%
X28320000Y-10000000D03*
%TO.P,JDC1,18*%
X28320000Y-7460000D03*
%TO.P,JDC1,19*%
X30860000Y-10000000D03*
%TO.P,JDC1,20*%
X30860000Y-7460000D03*
%TO.P,JDC1,21*%
X33400000Y-10000000D03*
%TO.P,JDC1,22*%
X33400000Y-7460000D03*
%TO.P,JDC1,23*%
X35940000Y-10000000D03*
%TO.P,JDC1,24*%
X35940000Y-7460000D03*
%TD*%
D19*
%TO.P,U1,1*%
%TO.N,NC1*%
X34100000Y-34000000D03*
%TO.P,U1,2*%
%TO.N,VIN*%
X34100000Y-34500000D03*
%TO.P,U1,3*%
%TO.N,DC-*%
X34100000Y-35000000D03*
%TO.P,U1,4*%
%TO.N,VDD*%
X34100000Y-35500000D03*
%TO.P,U1,5*%
%TO.N,DC-*%
X34100000Y-36000000D03*
D20*
%TO.P,U1,6*%
%TO.N,VDD*%
X34750000Y-36400000D03*
%TO.P,U1,7*%
%TO.N,DC-*%
X35250000Y-36400000D03*
%TO.P,U1,8*%
%TO.N,LO*%
X35750000Y-36400000D03*
%TO.P,U1,9*%
%TO.N,AC*%
X36750000Y-36400000D03*
%TO.P,U1,10*%
%TO.N,HO*%
X37250000Y-36400000D03*
D19*
%TO.P,U1,11*%
%TO.N,NC11*%
X37900000Y-36000000D03*
%TO.P,U1,12*%
%TO.N,HB*%
X37900000Y-35500000D03*
%TO.P,U1,13*%
%TO.N,AC*%
X37900000Y-35000000D03*
%TO.P,U1,14*%
X37900000Y-34500000D03*
%TO.P,U1,15*%
%TO.N,NC15*%
X37900000Y-34000000D03*
D20*
%TO.P,U1,16*%
%TO.N,AC*%
X37250000Y-33600000D03*
%TO.P,U1,17*%
%TO.N,BST*%
X35750000Y-33600000D03*
%TO.P,U1,18*%
%TO.N,HI*%
X35250000Y-33600000D03*
%TO.P,U1,19*%
%TO.N,LI*%
X34750000Y-33600000D03*
D21*
%TO.P,U1,20*%
%TO.N,DC-*%
X35250000Y-35000000D03*
D22*
%TO.P,U1,21*%
%TO.N,AC*%
X36975000Y-35000000D03*
%TD*%
D11*
%TO.P,C24,1*%
%TO.N,DC+*%
X53250000Y-26950000D03*
%TO.P,C24,2*%
%TO.N,DC-*%
X53250000Y-25050000D03*
%TD*%
D23*
%TO.P,JGL1,1*%
%TO.N,GL1*%
X41050000Y-36770000D03*
D24*
%TO.P,JGL1,2*%
%TO.N,DC-*%
X41050000Y-38040000D03*
%TD*%
D11*
%TO.P,C22,1*%
%TO.N,DC+*%
X49050000Y-26950000D03*
%TO.P,C22,2*%
%TO.N,DC-*%
X49050000Y-25050000D03*
%TD*%
D17*
%TO.P,JAC1,1*%
%TO.N,AC*%
X78000000Y-22000000D03*
D18*
%TO.P,JAC1,2*%
X80540000Y-22000000D03*
%TO.P,JAC1,3*%
X78000000Y-24540000D03*
%TO.P,JAC1,4*%
X80540000Y-24540000D03*
%TO.P,JAC1,5*%
X78000000Y-27080000D03*
%TO.P,JAC1,6*%
X80540000Y-27080000D03*
%TO.P,JAC1,7*%
X78000000Y-29620000D03*
%TO.P,JAC1,8*%
X80540000Y-29620000D03*
%TO.P,JAC1,9*%
X78000000Y-32160000D03*
%TO.P,JAC1,10*%
X80540000Y-32160000D03*
%TO.P,JAC1,11*%
X78000000Y-34700000D03*
%TO.P,JAC1,12*%
X80540000Y-34700000D03*
%TO.P,JAC1,13*%
X78000000Y-37240000D03*
%TO.P,JAC1,14*%
X80540000Y-37240000D03*
%TO.P,JAC1,15*%
X78000000Y-39780000D03*
%TO.P,JAC1,16*%
X80540000Y-39780000D03*
%TO.P,JAC1,17*%
X78000000Y-42320000D03*
%TO.P,JAC1,18*%
X80540000Y-42320000D03*
%TO.P,JAC1,19*%
X78000000Y-44860000D03*
%TO.P,JAC1,20*%
X80540000Y-44860000D03*
%TO.P,JAC1,21*%
X78000000Y-47400000D03*
%TO.P,JAC1,22*%
X80540000Y-47400000D03*
%TO.P,JAC1,23*%
X78000000Y-49940000D03*
%TO.P,JAC1,24*%
X80540000Y-49940000D03*
%TD*%
D11*
%TO.P,C11,1*%
%TO.N,DC+*%
X44850000Y-44950000D03*
%TO.P,C11,2*%
%TO.N,DC-*%
X44850000Y-43050000D03*
%TD*%
D25*
%TO.P,RB1,1*%
%TO.N,BST*%
X35000000Y-28325000D03*
%TO.P,RB1,2*%
%TO.N,BST_A*%
X35000000Y-26675000D03*
%TD*%
D26*
%TO.P,RGH2,1*%
%TO.N,HO*%
X61190000Y-30770000D03*
%TO.P,RGH2,2*%
%TO.N,GH2*%
X62210000Y-30770000D03*
%TD*%
D10*
%TO.P,TP7,1*%
%TO.N,AC*%
X52000000Y-32000000D03*
%TD*%
%TO.P,TP5,1*%
%TO.N,VDD*%
X39000000Y-49000000D03*
%TD*%
D26*
%TO.P,RGH1,1*%
%TO.N,HO*%
X43190000Y-30770000D03*
%TO.P,RGH1,2*%
%TO.N,GH1*%
X44210000Y-30770000D03*
%TD*%
D11*
%TO.P,C2,1*%
%TO.N,DC+*%
X62850000Y-26950000D03*
%TO.P,C2,2*%
%TO.N,DC-*%
X62850000Y-25050000D03*
%TD*%
D27*
%TO.P,C16,1*%
%TO.N,VDD*%
X35000000Y-40275000D03*
%TO.P,C16,2*%
%TO.N,DC-*%
X35000000Y-38725000D03*
%TD*%
D17*
%TO.P,JCTRL1,1*%
%TO.N,VIN*%
X12000000Y-30000000D03*
D18*
%TO.P,JCTRL1,2*%
%TO.N,DC-*%
X12000000Y-32540000D03*
%TO.P,JCTRL1,3*%
%TO.N,HI*%
X12000000Y-35080000D03*
%TO.P,JCTRL1,4*%
%TO.N,DC-*%
X12000000Y-37620000D03*
%TO.P,JCTRL1,5*%
%TO.N,LI*%
X12000000Y-40160000D03*
%TO.P,JCTRL1,6*%
%TO.N,DC-*%
X12000000Y-42700000D03*
%TD*%
D11*
%TO.P,C5,1*%
%TO.N,DC+*%
X69150000Y-26950000D03*
%TO.P,C5,2*%
%TO.N,DC-*%
X69150000Y-25050000D03*
%TD*%
%TO.P,C20,1*%
%TO.N,DC+*%
X44850000Y-26950000D03*
%TO.P,C20,2*%
%TO.N,DC-*%
X44850000Y-25050000D03*
%TD*%
D26*
%TO.P,RGL2,1*%
%TO.N,LO*%
X61190000Y-36770000D03*
%TO.P,RGL2,2*%
%TO.N,GL2*%
X62210000Y-36770000D03*
%TD*%
D28*
%TO.P,LK1,1*%
%TO.N,AC*%
X55000000Y-32000000D03*
%TO.P,LK1,2*%
%TO.N,D_QL1*%
X55000000Y-38000000D03*
%TD*%
D29*
%TO.P,RH1,1*%
%TO.N,HI*%
X27000000Y-21510000D03*
%TO.P,RH1,2*%
%TO.N,DC-*%
X27000000Y-20490000D03*
%TD*%
D11*
%TO.P,C23,1*%
%TO.N,DC+*%
X51150000Y-26950000D03*
%TO.P,C23,2*%
%TO.N,DC-*%
X51150000Y-25050000D03*
%TD*%
D10*
%TO.P,TP10,1*%
%TO.N,DC+*%
X70000000Y-30500000D03*
%TD*%
D11*
%TO.P,C30,1*%
%TO.N,DC+*%
X60750000Y-44950000D03*
%TO.P,C30,2*%
%TO.N,DC-*%
X60750000Y-43050000D03*
%TD*%
D12*
%TO.P,QL2,1*%
%TO.N,GL2*%
X63648000Y-36770000D03*
D13*
%TO.P,QL2,2*%
%TO.N,DC-*%
X63648000Y-38670000D03*
D14*
%TO.P,QL2,3*%
%TO.N,AC*%
X64725000Y-38000000D03*
%TO.P,QL2,4*%
%TO.N,DC-*%
X65575000Y-38000000D03*
%TO.P,QL2,5*%
%TO.N,AC*%
X66425000Y-38000000D03*
%TO.P,QL2,6*%
%TO.N,DC-*%
X67275000Y-38000000D03*
D15*
%TO.P,QL2,7*%
%TO.N,AC*%
X68352000Y-38000000D03*
%TD*%
D11*
%TO.P,C3,1*%
%TO.N,DC+*%
X64950000Y-26950000D03*
%TO.P,C3,2*%
%TO.N,DC-*%
X64950000Y-25050000D03*
%TD*%
%TO.P,C4,1*%
%TO.N,DC+*%
X67050000Y-26950000D03*
%TO.P,C4,2*%
%TO.N,DC-*%
X67050000Y-25050000D03*
%TD*%
%TO.P,C10,1*%
%TO.N,DC+*%
X46950000Y-44950000D03*
%TO.P,C10,2*%
%TO.N,DC-*%
X46950000Y-43050000D03*
%TD*%
D10*
%TO.P,TP9,1*%
%TO.N,DC-*%
X52000000Y-38000000D03*
%TD*%
D11*
%TO.P,C19,1*%
%TO.N,DC+*%
X42750000Y-26950000D03*
%TO.P,C19,2*%
%TO.N,DC-*%
X42750000Y-25050000D03*
%TD*%
%TO.P,C26,1*%
%TO.N,DC+*%
X69150000Y-44950000D03*
%TO.P,C26,2*%
%TO.N,DC-*%
X69150000Y-43050000D03*
%TD*%
D30*
%TO.P,C18,1*%
%TO.N,HB*%
X35225000Y-31300000D03*
%TO.P,C18,2*%
%TO.N,AC*%
X36775000Y-31300000D03*
%TD*%
D11*
%TO.P,C15,1*%
%TO.N,VDD*%
X38000000Y-45450000D03*
%TO.P,C15,2*%
%TO.N,DC-*%
X38000000Y-43550000D03*
%TD*%
D29*
%TO.P,RL1,1*%
%TO.N,LI*%
X30000000Y-21510000D03*
%TO.P,RL1,2*%
%TO.N,DC-*%
X30000000Y-20490000D03*
%TD*%
D26*
%TO.P,RGL1,1*%
%TO.N,LO*%
X43190000Y-36770000D03*
%TO.P,RGL1,2*%
%TO.N,GL1*%
X44210000Y-36770000D03*
%TD*%
D30*
%TO.P,C13,1*%
%TO.N,VIN*%
X29225000Y-24000000D03*
%TO.P,C13,2*%
%TO.N,DC-*%
X30775000Y-24000000D03*
%TD*%
D17*
%TO.P,JDC2,1*%
%TO.N,DC-*%
X8000000Y-17000000D03*
D18*
%TO.P,JDC2,2*%
X8000000Y-14460000D03*
%TO.P,JDC2,3*%
X10540000Y-17000000D03*
%TO.P,JDC2,4*%
X10540000Y-14460000D03*
%TO.P,JDC2,5*%
X13080000Y-17000000D03*
%TO.P,JDC2,6*%
X13080000Y-14460000D03*
%TO.P,JDC2,7*%
X15620000Y-17000000D03*
%TO.P,JDC2,8*%
X15620000Y-14460000D03*
%TO.P,JDC2,9*%
X18160000Y-17000000D03*
%TO.P,JDC2,10*%
X18160000Y-14460000D03*
%TO.P,JDC2,11*%
X20700000Y-17000000D03*
%TO.P,JDC2,12*%
X20700000Y-14460000D03*
%TO.P,JDC2,13*%
X23240000Y-17000000D03*
%TO.P,JDC2,14*%
X23240000Y-14460000D03*
%TO.P,JDC2,15*%
X25780000Y-17000000D03*
%TO.P,JDC2,16*%
X25780000Y-14460000D03*
%TO.P,JDC2,17*%
X28320000Y-17000000D03*
%TO.P,JDC2,18*%
X28320000Y-14460000D03*
%TO.P,JDC2,19*%
X30860000Y-17000000D03*
%TO.P,JDC2,20*%
X30860000Y-14460000D03*
%TO.P,JDC2,21*%
X33400000Y-17000000D03*
%TO.P,JDC2,22*%
X33400000Y-14460000D03*
%TO.P,JDC2,23*%
X35940000Y-17000000D03*
%TO.P,JDC2,24*%
X35940000Y-14460000D03*
%TD*%
D10*
%TO.P,TP1,1*%
%TO.N,DC+*%
X72000000Y-29000000D03*
%TD*%
%TO.P,TP2,1*%
%TO.N,DC-*%
X44000000Y-20000000D03*
%TD*%
D12*
%TO.P,QH2,1*%
%TO.N,GH2*%
X63648000Y-30770000D03*
D13*
%TO.P,QH2,2*%
%TO.N,AC*%
X63648000Y-32670000D03*
D14*
%TO.P,QH2,3*%
%TO.N,DC+*%
X64725000Y-32000000D03*
%TO.P,QH2,4*%
%TO.N,AC*%
X65575000Y-32000000D03*
%TO.P,QH2,5*%
%TO.N,DC+*%
X66425000Y-32000000D03*
%TO.P,QH2,6*%
%TO.N,AC*%
X67275000Y-32000000D03*
D15*
%TO.P,QH2,7*%
%TO.N,DC+*%
X68352000Y-32000000D03*
%TD*%
D11*
%TO.P,C1,1*%
%TO.N,DC+*%
X60750000Y-26950000D03*
%TO.P,C1,2*%
%TO.N,DC-*%
X60750000Y-25050000D03*
%TD*%
%TO.P,C28,1*%
%TO.N,DC+*%
X64950000Y-44950000D03*
%TO.P,C28,2*%
%TO.N,DC-*%
X64950000Y-43050000D03*
%TD*%
%TO.P,C8,1*%
%TO.N,DC+*%
X51150000Y-44950000D03*
%TO.P,C8,2*%
%TO.N,DC-*%
X51150000Y-43050000D03*
%TD*%
%TO.P,C9,1*%
%TO.N,DC+*%
X49050000Y-44950000D03*
%TO.P,C9,2*%
%TO.N,DC-*%
X49050000Y-43050000D03*
%TD*%
%TO.P,C25,1*%
%TO.N,DC+*%
X71250000Y-44950000D03*
%TO.P,C25,2*%
%TO.N,DC-*%
X71250000Y-43050000D03*
%TD*%
D12*
%TO.P,QH1,1*%
%TO.N,GH1*%
X45648000Y-30770000D03*
D13*
%TO.P,QH1,2*%
%TO.N,AC*%
X45648000Y-32670000D03*
D14*
%TO.P,QH1,3*%
%TO.N,DC+*%
X46725000Y-32000000D03*
%TO.P,QH1,4*%
%TO.N,AC*%
X47575000Y-32000000D03*
%TO.P,QH1,5*%
%TO.N,DC+*%
X48425000Y-32000000D03*
%TO.P,QH1,6*%
%TO.N,AC*%
X49275000Y-32000000D03*
D15*
%TO.P,QH1,7*%
%TO.N,DC+*%
X50352000Y-32000000D03*
%TD*%
D11*
%TO.P,C29,1*%
%TO.N,DC+*%
X62850000Y-44950000D03*
%TO.P,C29,2*%
%TO.N,DC-*%
X62850000Y-43050000D03*
%TD*%
D23*
%TO.P,JGL2,1*%
%TO.N,GL2*%
X59050000Y-36770000D03*
D24*
%TO.P,JGL2,2*%
%TO.N,DC-*%
X59050000Y-38040000D03*
%TD*%
D10*
%TO.P,TP3,1*%
%TO.N,AC*%
X73000000Y-47000000D03*
%TD*%
D11*
%TO.P,C27,1*%
%TO.N,DC+*%
X67050000Y-44950000D03*
%TO.P,C27,2*%
%TO.N,DC-*%
X67050000Y-43050000D03*
%TD*%
%TO.P,C12,1*%
%TO.N,DC+*%
X42750000Y-44950000D03*
%TO.P,C12,2*%
%TO.N,DC-*%
X42750000Y-43050000D03*
%TD*%
D23*
%TO.P,JGH1,1*%
%TO.N,GH1*%
X41050000Y-30770000D03*
D24*
%TO.P,JGH1,2*%
%TO.N,AC*%
X41050000Y-32040000D03*
%TD*%
D10*
%TO.P,TP11,1*%
%TO.N,AC*%
X70000000Y-32000000D03*
%TD*%
%TO.P,TP13,1*%
%TO.N,DC-*%
X70000000Y-38000000D03*
%TD*%
D11*
%TO.P,C6,1*%
%TO.N,DC+*%
X71250000Y-26950000D03*
%TO.P,C6,2*%
%TO.N,DC-*%
X71250000Y-25050000D03*
%TD*%
D10*
%TO.P,TP4,1*%
%TO.N,HB*%
X38000000Y-22000000D03*
%TD*%
%TO.P,TP12,1*%
%TO.N,AC*%
X70000000Y-36500000D03*
%TD*%
D27*
%TO.P,C17,1*%
%TO.N,HB*%
X38000000Y-28575000D03*
%TO.P,C17,2*%
%TO.N,AC*%
X38000000Y-27025000D03*
%TD*%
D10*
%TO.P,TP8,1*%
%TO.N,D_QL1*%
X52000000Y-36500000D03*
%TD*%
D23*
%TO.P,JGH2,1*%
%TO.N,GH2*%
X59050000Y-30770000D03*
D24*
%TO.P,JGH2,2*%
%TO.N,AC*%
X59050000Y-32040000D03*
%TD*%
D11*
%TO.P,C7,1*%
%TO.N,DC+*%
X53250000Y-44950000D03*
%TO.P,C7,2*%
%TO.N,DC-*%
X53250000Y-43050000D03*
%TD*%
D31*
%TO.N,AC*%
X72600000Y-35600000D03*
X54400000Y-32600000D03*
X43190000Y-32700000D03*
X55000000Y-31400000D03*
X72000000Y-34400000D03*
X55000000Y-32600000D03*
X61190000Y-32700000D03*
X54400000Y-31400000D03*
X40200000Y-34500000D03*
X55600000Y-32000000D03*
X55600000Y-31400000D03*
X54400000Y-32000000D03*
X71400000Y-35000000D03*
X55600000Y-32600000D03*
X71400000Y-34400000D03*
X72000000Y-35000000D03*
X72600000Y-35000000D03*
X72600000Y-34400000D03*
X72000000Y-35600000D03*
X71400000Y-35600000D03*
X73800000Y-47000000D03*
X55000000Y-32000000D03*
%TO.N,BST*%
X33800000Y-28325000D03*
X35750000Y-32299999D03*
%TO.N,BST_A*%
X33800000Y-26675000D03*
X40000000Y-22500000D03*
%TO.N,DC+*%
X67050000Y-46100000D03*
X46950000Y-46100000D03*
X62850000Y-28100000D03*
X44850000Y-28100000D03*
X69150000Y-28100000D03*
X69150000Y-46100000D03*
X72800000Y-29000000D03*
X64950000Y-46100000D03*
X51150000Y-28100000D03*
X53250000Y-28100000D03*
X46950000Y-28100000D03*
X53250000Y-46100000D03*
X44850000Y-46100000D03*
X67050000Y-28100000D03*
X71250000Y-46100000D03*
X51150000Y-46100000D03*
X60750000Y-28100000D03*
X49050000Y-46100000D03*
X42750000Y-28100000D03*
X60750000Y-46100000D03*
X71250000Y-28100000D03*
X64950000Y-28100000D03*
X49050000Y-28100000D03*
X62850000Y-46100000D03*
X42750000Y-46100000D03*
%TO.N,DC-*%
X53250000Y-23800000D03*
X47225000Y-41800000D03*
X33600000Y-43550000D03*
X53250000Y-42500000D03*
X53250000Y-23100000D03*
X32799999Y-36800000D03*
X63298000Y-41800000D03*
X51150000Y-23100000D03*
X67050000Y-42500000D03*
X66925000Y-41800000D03*
X69150000Y-23800000D03*
X69150000Y-23100000D03*
X46950000Y-42500000D03*
X44850000Y-23800000D03*
X67050000Y-23800000D03*
X61190000Y-38670000D03*
X71250000Y-23800000D03*
X32799999Y-35000000D03*
X42750000Y-42500000D03*
X31000000Y-20490000D03*
X63998000Y-41800000D03*
X49050000Y-23100000D03*
X62850000Y-23100000D03*
X67050000Y-23100000D03*
X71250000Y-42500000D03*
X42750000Y-23100000D03*
X30775000Y-22700000D03*
X42750000Y-23800000D03*
X64950000Y-23800000D03*
X48925000Y-41800000D03*
X49050000Y-42500000D03*
X64950000Y-23100000D03*
X46950000Y-23800000D03*
X33800000Y-38725000D03*
X71250000Y-23100000D03*
X44850000Y-23100000D03*
X44850000Y-42500000D03*
X67625000Y-41800000D03*
X60750000Y-42500000D03*
X39400000Y-43550000D03*
X49050000Y-23800000D03*
X51150000Y-23800000D03*
X65925000Y-41800000D03*
X49625000Y-41800000D03*
X62850000Y-42500000D03*
X51150000Y-42500000D03*
X45998000Y-41800000D03*
X60750000Y-23800000D03*
X46950000Y-23100000D03*
X65224999Y-41800000D03*
X43190000Y-38670000D03*
X69150000Y-42500000D03*
X47925000Y-41800000D03*
X44800000Y-20000000D03*
X64950000Y-42500000D03*
X26000000Y-20490000D03*
X62850000Y-23800000D03*
X45298000Y-41800000D03*
X60750000Y-23100000D03*
%TO.N,GH1*%
X45148000Y-30770000D03*
%TO.N,GH2*%
X63148000Y-30770000D03*
%TO.N,GL1*%
X45148000Y-36770000D03*
%TO.N,GL2*%
X63148000Y-36770000D03*
%TO.N,HB*%
X39100000Y-35500000D03*
X39200000Y-28775000D03*
X35225000Y-30100000D03*
X38800000Y-22000000D03*
X36600000Y-22500000D03*
%TO.N,HI*%
X26000000Y-21510000D03*
X33800000Y-32299999D03*
%TO.N,HO*%
X43190000Y-31500000D03*
X61190000Y-31500000D03*
X37250000Y-37600000D03*
%TO.N,LI*%
X31000000Y-21510000D03*
X33000000Y-33100000D03*
%TO.N,LO*%
X61190000Y-35700000D03*
X43190000Y-35700000D03*
X35750000Y-37600000D03*
%TO.N,VDD*%
X33800000Y-40275000D03*
X33600000Y-45450000D03*
X39800000Y-49000000D03*
X39400000Y-45450000D03*
X32000000Y-35800000D03*
X34750000Y-37600000D03*
%TO.N,VIN*%
X29225000Y-22700000D03*
X33100000Y-34000000D03*
%TD*%
D32*
%TO.N,AC*%
X45647999Y-34500000D02*
X50352000Y-34500000D01*
D33*
X72000000Y-35000000D02*
X72600000Y-35000000D01*
D34*
X37900000Y-35000000D02*
X38400000Y-35000000D01*
D35*
X45647999Y-32670000D02*
X45647999Y-34500000D01*
D36*
X50352000Y-34500000D02*
X53800000Y-34500000D01*
D37*
X63648000Y-32670000D02*
X59050000Y-32040000D01*
D38*
X52000000Y-34250000D02*
X52000000Y-32000000D01*
D34*
X38400000Y-35000000D02*
X38400000Y-34500000D01*
D38*
X45648000Y-32670000D02*
X43190000Y-32700000D01*
D37*
X73000000Y-47000000D02*
X73800000Y-47000000D01*
D34*
X36500000Y-27225000D02*
X36500000Y-29500000D01*
X37900000Y-34500000D02*
X40200000Y-34500000D01*
D35*
X68352000Y-36500000D02*
X68352000Y-35000000D01*
D32*
X64724999Y-35000000D02*
X68352000Y-35000000D01*
D38*
X67275000Y-32000000D02*
X67275000Y-34250000D01*
D35*
X47575000Y-32000000D02*
X47575000Y-34500000D01*
X65575000Y-32000000D02*
X65575000Y-35000000D01*
D33*
X72000000Y-35000000D02*
X71400000Y-34400000D01*
D38*
X68352000Y-36500000D02*
X70000000Y-36500000D01*
D37*
X45648000Y-32670000D02*
X41050000Y-32040000D01*
D38*
X36975000Y-35000000D02*
X37900000Y-35000000D01*
D34*
X36500000Y-29500000D02*
X36775000Y-31300000D01*
D38*
X49275000Y-34250000D02*
X52000000Y-34250000D01*
X36975000Y-35000000D02*
X37900000Y-34500000D01*
X67275000Y-34250000D02*
X70000000Y-34250000D01*
D39*
X68352000Y-35000000D02*
X72000000Y-35000000D01*
D35*
X63647999Y-32670000D02*
X63647999Y-35000000D01*
D34*
X36775000Y-31300000D02*
X37250000Y-32299999D01*
D33*
X72000000Y-35000000D02*
X71400000Y-35600000D01*
X72000000Y-35000000D02*
X71400000Y-35000000D01*
D35*
X49275000Y-32000000D02*
X49275000Y-34500000D01*
D32*
X53800000Y-34500000D02*
X55000000Y-32000000D01*
D38*
X70000000Y-34250000D02*
X70000000Y-32000000D01*
D34*
X37250000Y-32299999D02*
X37250000Y-33600000D01*
D38*
X36975000Y-35000000D02*
X36750000Y-36400000D01*
D33*
X72000000Y-35000000D02*
X72600000Y-34400000D01*
D35*
X66425000Y-36500000D02*
X66425000Y-35000000D01*
D34*
X38000000Y-27025000D02*
X36500000Y-27225000D01*
D35*
X64724999Y-36500000D02*
X64724999Y-35000000D01*
D32*
X63647999Y-35000000D02*
X68352000Y-35000000D01*
D33*
X72000000Y-35000000D02*
X72600000Y-35600000D01*
D38*
X63648000Y-32670000D02*
X61190000Y-32700000D01*
D33*
X72000000Y-35000000D02*
X72000000Y-34400000D01*
D38*
X36975000Y-35000000D02*
X37250000Y-33600000D01*
D35*
X67275000Y-32000000D02*
X67275000Y-35000000D01*
D33*
X72000000Y-35000000D02*
X72000000Y-35600000D01*
D38*
X49275000Y-32000000D02*
X49275000Y-34250000D01*
D34*
%TO.N,BST*%
X35000000Y-28325000D02*
X33800000Y-28325000D01*
X35750000Y-33600000D02*
X35750000Y-32299999D01*
%TO.N,BST_A*%
X35000000Y-26675000D02*
X33800000Y-26675000D01*
X39400000Y-24000000D02*
X40000000Y-22500000D01*
D32*
%TO.N,DC+*%
X64724999Y-29200000D02*
X68352000Y-29200000D01*
D40*
X46950000Y-44950000D02*
X46950000Y-46100000D01*
X46950000Y-26950000D02*
X46950000Y-28100000D01*
D35*
X48425000Y-30500000D02*
X48425000Y-29200000D01*
X64724999Y-30500000D02*
X64724999Y-29200000D01*
D40*
X53250000Y-44950000D02*
X53250000Y-46100000D01*
X62850000Y-26950000D02*
X62850000Y-28100000D01*
X67050000Y-44950000D02*
X67050000Y-46100000D01*
X67050000Y-26950000D02*
X67050000Y-28100000D01*
D32*
X46725000Y-29200000D02*
X50352000Y-29200000D01*
D35*
X50352000Y-30500000D02*
X50352000Y-29200000D01*
D40*
X42750000Y-44950000D02*
X42750000Y-46100000D01*
D37*
X72000000Y-29000000D02*
X71250000Y-28100000D01*
D40*
X62850000Y-44950000D02*
X62850000Y-46100000D01*
X49050000Y-26950000D02*
X49050000Y-28100000D01*
X64950000Y-44950000D02*
X64950000Y-46100000D01*
D35*
X68352000Y-30500000D02*
X68352000Y-29200000D01*
X66425000Y-30500000D02*
X66425000Y-29200000D01*
D40*
X71250000Y-26950000D02*
X71250000Y-28100000D01*
D37*
X72000000Y-29000000D02*
X72800000Y-29000000D01*
D40*
X60750000Y-44950000D02*
X60750000Y-46100000D01*
X42750000Y-26950000D02*
X42750000Y-28100000D01*
X51150000Y-26950000D02*
X51150000Y-28100000D01*
D35*
X46725000Y-30500000D02*
X46725000Y-29200000D01*
D40*
X69150000Y-44950000D02*
X69150000Y-46100000D01*
X51150000Y-44950000D02*
X51150000Y-46100000D01*
D38*
X50352000Y-30500000D02*
X52000000Y-30500000D01*
X68352000Y-30500000D02*
X70000000Y-30500000D01*
D40*
X49050000Y-44950000D02*
X49050000Y-46100000D01*
X64950000Y-26950000D02*
X64950000Y-28100000D01*
X53250000Y-26950000D02*
X53250000Y-28100000D01*
X44850000Y-44950000D02*
X44850000Y-46100000D01*
X44850000Y-26950000D02*
X44850000Y-28100000D01*
X60750000Y-26950000D02*
X60750000Y-28100000D01*
X69150000Y-26950000D02*
X69150000Y-28100000D01*
X71250000Y-44950000D02*
X71250000Y-46100000D01*
D34*
%TO.N,DC-*%
X34100000Y-35000000D02*
X32799999Y-35000000D01*
D41*
X49275000Y-41000000D02*
X48925000Y-41800000D01*
D38*
X45648000Y-38670000D02*
X43190000Y-38670000D01*
D40*
X51150000Y-25050000D02*
X51150000Y-23800000D01*
X67050000Y-25050000D02*
X67050000Y-23800000D01*
D34*
X35000000Y-38725000D02*
X33800000Y-38725000D01*
D33*
X67050000Y-23800000D02*
X67050000Y-23100000D01*
D38*
X52000000Y-40250000D02*
X52000000Y-38000000D01*
D34*
X34100000Y-36000000D02*
X33500000Y-36000000D01*
D40*
X71250000Y-25050000D02*
X71250000Y-23800000D01*
X46950000Y-25050000D02*
X46950000Y-23800000D01*
X67050000Y-43050000D02*
X67050000Y-42500000D01*
X64950000Y-25050000D02*
X64950000Y-23800000D01*
X49050000Y-43050000D02*
X49050000Y-42500000D01*
X46950000Y-43050000D02*
X46950000Y-42500000D01*
D33*
X60750000Y-23800000D02*
X60750000Y-23100000D01*
D40*
X69150000Y-43050000D02*
X69150000Y-42500000D01*
D35*
X63647999Y-38670000D02*
X63647999Y-41000000D01*
D38*
X35250000Y-35000000D02*
X35250000Y-36400000D01*
X67275000Y-38000000D02*
X67275000Y-40250000D01*
X63648000Y-38670000D02*
X61190000Y-38670000D01*
D33*
X46950000Y-23800000D02*
X46950000Y-23100000D01*
D41*
X65575000Y-41000000D02*
X65925000Y-41800000D01*
D40*
X53250000Y-25050000D02*
X53250000Y-23800000D01*
D33*
X42750000Y-23800000D02*
X42750000Y-23100000D01*
D41*
X63647999Y-41000000D02*
X63998000Y-41800000D01*
D33*
X69150000Y-23800000D02*
X69150000Y-23100000D01*
D40*
X53250000Y-43050000D02*
X53250000Y-42500000D01*
D37*
X45648000Y-38670000D02*
X41050000Y-38040000D01*
D34*
X30775000Y-24000000D02*
X30775000Y-22700000D01*
X33500000Y-36000000D02*
X32799999Y-36800000D01*
D38*
X49275000Y-38000000D02*
X49275000Y-40250000D01*
D32*
X63647999Y-41000000D02*
X67275000Y-41000000D01*
D40*
X42750000Y-25050000D02*
X42750000Y-23800000D01*
D41*
X67275000Y-41000000D02*
X67625000Y-41800000D01*
D33*
X71250000Y-23800000D02*
X71250000Y-23100000D01*
D40*
X69150000Y-25050000D02*
X69150000Y-23800000D01*
D37*
X63648000Y-38670000D02*
X59050000Y-38040000D01*
D33*
X44850000Y-23800000D02*
X44850000Y-23100000D01*
D40*
X62850000Y-43050000D02*
X62850000Y-42500000D01*
D34*
X35000000Y-43550000D02*
X33600000Y-43550000D01*
D40*
X71250000Y-43050000D02*
X71250000Y-42500000D01*
D38*
X70000000Y-40250000D02*
X70000000Y-38000000D01*
D40*
X44850000Y-43050000D02*
X44850000Y-42500000D01*
D33*
X49050000Y-23800000D02*
X49050000Y-23100000D01*
D37*
X44000000Y-20000000D02*
X44800000Y-20000000D01*
D40*
X60750000Y-43050000D02*
X60750000Y-42500000D01*
D35*
X67275000Y-38000000D02*
X67275000Y-41000000D01*
D40*
X42750000Y-43050000D02*
X42750000Y-42500000D01*
X51150000Y-43050000D02*
X51150000Y-42500000D01*
X49050000Y-25050000D02*
X49050000Y-23800000D01*
D33*
X62850000Y-23800000D02*
X62850000Y-23100000D01*
D41*
X65575000Y-41000000D02*
X65224999Y-41800000D01*
D40*
X64950000Y-43050000D02*
X64950000Y-42500000D01*
D34*
X30000000Y-20490000D02*
X31000000Y-20490000D01*
D38*
X67275000Y-40250000D02*
X70000000Y-40250000D01*
D35*
X65575000Y-38000000D02*
X65575000Y-41000000D01*
D34*
X38000000Y-43550000D02*
X39400000Y-43550000D01*
D41*
X47575000Y-41000000D02*
X47925000Y-41800000D01*
X45647999Y-41000000D02*
X45998000Y-41800000D01*
D40*
X62850000Y-25050000D02*
X62850000Y-23800000D01*
D42*
X35250000Y-35000000D02*
X34100000Y-35000000D01*
D35*
X45647999Y-38670000D02*
X45647999Y-41000000D01*
D41*
X45647999Y-41000000D02*
X45298000Y-41800000D01*
D32*
X45647999Y-41000000D02*
X49275000Y-41000000D01*
D33*
X64950000Y-23800000D02*
X64950000Y-23100000D01*
X51150000Y-23800000D02*
X51150000Y-23100000D01*
X53250000Y-23800000D02*
X53250000Y-23100000D01*
D41*
X47575000Y-41000000D02*
X47225000Y-41800000D01*
D35*
X47575000Y-38000000D02*
X47575000Y-41000000D01*
D34*
X27000000Y-20490000D02*
X26000000Y-20490000D01*
D41*
X63647999Y-41000000D02*
X63298000Y-41800000D01*
D40*
X44850000Y-25050000D02*
X44850000Y-23800000D01*
D38*
X49275000Y-40250000D02*
X52000000Y-40250000D01*
D40*
X60750000Y-25050000D02*
X60750000Y-23800000D01*
D35*
X49275000Y-38000000D02*
X49275000Y-41000000D01*
D41*
X67275000Y-41000000D02*
X66925000Y-41800000D01*
X49275000Y-41000000D02*
X49625000Y-41800000D01*
D35*
%TO.N,D_QL1*%
X50352000Y-36500000D02*
X50352000Y-35550000D01*
X46725000Y-36500000D02*
X46725000Y-35550000D01*
X48425000Y-36500000D02*
X48425000Y-35550000D01*
X50352000Y-35550000D02*
X53200000Y-35550000D01*
X46725000Y-35550000D02*
X50352000Y-35550000D01*
D36*
X53200000Y-38000000D02*
X55000000Y-38000000D01*
X53200000Y-35550000D02*
X53200000Y-38000000D01*
D38*
X50352000Y-36500000D02*
X52000000Y-36500000D01*
%TO.N,GH1*%
X44210000Y-30770000D02*
X45648000Y-30770000D01*
X45648000Y-30770000D02*
X45148000Y-30770000D01*
%TO.N,GH2*%
X63648000Y-30770000D02*
X63148000Y-30770000D01*
X62210000Y-30770000D02*
X63648000Y-30770000D01*
%TO.N,GL1*%
X44210000Y-36770000D02*
X45648000Y-36770000D01*
X45648000Y-36770000D02*
X45148000Y-36770000D01*
%TO.N,GL2*%
X62210000Y-36770000D02*
X63648000Y-36770000D01*
X63648000Y-36770000D02*
X63148000Y-36770000D01*
D34*
%TO.N,HB*%
X35225000Y-31300000D02*
X35225000Y-30100000D01*
D37*
X38000000Y-22000000D02*
X38800000Y-22000000D01*
D34*
X37900000Y-35500000D02*
X39100000Y-35500000D01*
X36600000Y-24000000D02*
X36600000Y-22500000D01*
X38000000Y-28575000D02*
X39200000Y-28775000D01*
%TO.N,HI*%
X35250000Y-33600000D02*
X35250000Y-32600000D01*
X27000000Y-21510000D02*
X26000000Y-21510000D01*
X35250000Y-32600000D02*
X33800000Y-32600000D01*
X33800000Y-32600000D02*
X33800000Y-32299999D01*
%TO.N,HO*%
X43190000Y-30770000D02*
X43190000Y-31500000D01*
X37250000Y-36400000D02*
X37250000Y-37600000D01*
X61190000Y-30770000D02*
X61190000Y-31500000D01*
%TO.N,LI*%
X34750000Y-33100000D02*
X33000000Y-33100000D01*
X34750000Y-33600000D02*
X34750000Y-33100000D01*
X30000000Y-21510000D02*
X31000000Y-21510000D01*
%TO.N,LO*%
X35750000Y-36400000D02*
X35750000Y-37600000D01*
X43190000Y-36770000D02*
X43190000Y-35700000D01*
X61190000Y-36770000D02*
X61190000Y-35700000D01*
%TO.N,VDD*%
X34100000Y-35500000D02*
X33500000Y-35500000D01*
D37*
X39000000Y-49000000D02*
X39800000Y-49000000D01*
D34*
X34750000Y-36400000D02*
X34750000Y-37600000D01*
X35000000Y-45450000D02*
X33600000Y-45450000D01*
X35000000Y-40275000D02*
X33800000Y-40275000D01*
X33100000Y-35800000D02*
X32000000Y-35800000D01*
X38000000Y-45450000D02*
X39400000Y-45450000D01*
X33500000Y-35500000D02*
X33100000Y-35800000D01*
%TO.N,VIN*%
X33500000Y-34500000D02*
X33100000Y-34000000D01*
X29225000Y-24000000D02*
X29225000Y-22700000D01*
X34100000Y-34500000D02*
X33500000Y-34500000D01*
%TD*%
%TA.AperFunction,Conductor*%
%TO.N,DC-*%
G36*
X37163566Y-13227313D02*
G01*
X37188876Y-13271150D01*
X37190000Y-13284000D01*
X37190000Y-18176000D01*
X37172687Y-18223566D01*
X37128850Y-18248876D01*
X37116000Y-18250000D01*
X6824000Y-18250000D01*
X6776434Y-18232687D01*
X6751124Y-18188850D01*
X6750000Y-18176000D01*
X6750000Y-13284000D01*
X6767313Y-13236434D01*
X6811150Y-13211124D01*
X6824000Y-13210000D01*
X37116000Y-13210000D01*
X37163566Y-13227313D01*
G37*
%TD.AperFunction*%
%TD*%
%TA.AperFunction,Conductor*%
%TO.N,DC+*%
G36*
X37163566Y-6227313D02*
G01*
X37188876Y-6271150D01*
X37190000Y-6284000D01*
X37190000Y-11176000D01*
X37172687Y-11223566D01*
X37128850Y-11248876D01*
X37116000Y-11250000D01*
X6824000Y-11250000D01*
X6776434Y-11232687D01*
X6751124Y-11188850D01*
X6750000Y-11176000D01*
X6750000Y-6284000D01*
X6767313Y-6236434D01*
X6811150Y-6211124D01*
X6824000Y-6210000D01*
X37116000Y-6210000D01*
X37163566Y-6227313D01*
G37*
%TD.AperFunction*%
%TD*%
%TA.AperFunction,Conductor*%
%TO.N,DC+*%
G36*
X53973566Y-45717313D02*
G01*
X53998876Y-45761150D01*
X54000000Y-45774000D01*
X54000000Y-46926000D01*
X53982687Y-46973566D01*
X53938850Y-46998876D01*
X53926000Y-47000000D01*
X42174000Y-47000000D01*
X42126434Y-46982687D01*
X42101124Y-46938850D01*
X42100000Y-46926000D01*
X42100000Y-45774000D01*
X42117313Y-45726434D01*
X42161150Y-45701124D01*
X42174000Y-45700000D01*
X53926000Y-45700000D01*
X53973566Y-45717313D01*
G37*
%TD.AperFunction*%
%TD*%
%TA.AperFunction,Conductor*%
%TO.N,DC+*%
G36*
X71973566Y-45717313D02*
G01*
X71998876Y-45761150D01*
X72000000Y-45774000D01*
X72000000Y-46926000D01*
X71982687Y-46973566D01*
X71938850Y-46998876D01*
X71926000Y-47000000D01*
X60174000Y-47000000D01*
X60126434Y-46982687D01*
X60101124Y-46938850D01*
X60100000Y-46926000D01*
X60100000Y-45774000D01*
X60117313Y-45726434D01*
X60161150Y-45701124D01*
X60174000Y-45700000D01*
X71926000Y-45700000D01*
X71973566Y-45717313D01*
G37*
%TD.AperFunction*%
%TD*%
%TA.AperFunction,Conductor*%
%TO.N,AC*%
G36*
X81763566Y-20767313D02*
G01*
X81788876Y-20811150D01*
X81790000Y-20824000D01*
X81790000Y-51116000D01*
X81772687Y-51163566D01*
X81728850Y-51188876D01*
X81716000Y-51190000D01*
X76824000Y-51190000D01*
X76776434Y-51172687D01*
X76751124Y-51128850D01*
X76750000Y-51116000D01*
X76750000Y-43613828D01*
X76753963Y-43589938D01*
X76795118Y-43469305D01*
X76844319Y-43202933D01*
X76854212Y-42932235D01*
X76824586Y-42662982D01*
X76756072Y-42400912D01*
X76756070Y-42400907D01*
X76756070Y-42400905D01*
X76755893Y-42400489D01*
X76755841Y-42400234D01*
X76755198Y-42398349D01*
X76755440Y-42398266D01*
X76750000Y-42371551D01*
X76750000Y-27613828D01*
X76753963Y-27589938D01*
X76795118Y-27469305D01*
X76844319Y-27202933D01*
X76854212Y-26932235D01*
X76824586Y-26662982D01*
X76756072Y-26400912D01*
X76756070Y-26400907D01*
X76756070Y-26400905D01*
X76755893Y-26400489D01*
X76755841Y-26400234D01*
X76755198Y-26398349D01*
X76755440Y-26398266D01*
X76750000Y-26371551D01*
X76750000Y-20824000D01*
X76767313Y-20776434D01*
X76811150Y-20751124D01*
X76824000Y-20750000D01*
X81716000Y-20750000D01*
X81763566Y-20767313D01*
G37*
%TD.AperFunction*%
%TD*%
%TA.AperFunction,Conductor*%
%TO.N,DC+*%
G36*
X71973566Y-27717313D02*
G01*
X71998876Y-27761150D01*
X72000000Y-27774000D01*
X72000000Y-28926000D01*
X71982687Y-28973566D01*
X71938850Y-28998876D01*
X71926000Y-29000000D01*
X64300000Y-29000000D01*
X64300000Y-29526000D01*
X64282687Y-29573566D01*
X64238850Y-29598876D01*
X64226000Y-29600000D01*
X60174000Y-29600000D01*
X60126434Y-29582687D01*
X60101124Y-29538850D01*
X60100000Y-29526000D01*
X60100000Y-27774000D01*
X60117313Y-27726434D01*
X60161150Y-27701124D01*
X60174000Y-27700000D01*
X71926000Y-27700000D01*
X71973566Y-27717313D01*
G37*
%TD.AperFunction*%
%TD*%
%TA.AperFunction,Conductor*%
%TO.N,DC+*%
G36*
X53973566Y-27717313D02*
G01*
X53998876Y-27761150D01*
X54000000Y-27774000D01*
X54000000Y-28926000D01*
X53982687Y-28973566D01*
X53938850Y-28998876D01*
X53926000Y-29000000D01*
X46300000Y-29000000D01*
X46300000Y-29526000D01*
X46282687Y-29573566D01*
X46238850Y-29598876D01*
X46226000Y-29600000D01*
X42174000Y-29600000D01*
X42126434Y-29582687D01*
X42101124Y-29538850D01*
X42100000Y-29526000D01*
X42100000Y-27774000D01*
X42117313Y-27726434D01*
X42161150Y-27701124D01*
X42174000Y-27700000D01*
X53926000Y-27700000D01*
X53973566Y-27717313D01*
G37*
%TD.AperFunction*%
%TD*%
M02*
