%TF.GenerationSoftware,KiCad,Pcbnew,7.0.10*%
%TF.CreationDate,2026-09-22T21:53:27+02:00*%
%TF.ProjectId,epc2361-prototype-p6,65706332-3336-4312-9d70-726f746f7479,rev?*%
%TF.SameCoordinates,Original*%
%TF.FileFunction,Copper,L2,Inr*%
%TF.FilePolarity,Positive*%
%FSLAX46Y46*%
G04 Gerber Fmt 4.6, Leading zero omitted, Abs format (unit mm)*
G04 Created by KiCad (PCBNEW 7.0.10) date 2026-09-22 21:53:27*
%MOMM*%
%LPD*%
G01*
G04 APERTURE LIST*
%TA.AperFunction,ComponentPad*%
%ADD10R,1.700000X1.700000*%
%TD*%
%TA.AperFunction,ComponentPad*%
%ADD11O,1.700000X1.700000*%
%TD*%
%TA.AperFunction,ComponentPad*%
%ADD12R,1.000000X1.000000*%
%TD*%
%TA.AperFunction,ComponentPad*%
%ADD13O,1.000000X1.000000*%
%TD*%
%TA.AperFunction,ViaPad*%
%ADD14C,0.600000*%
%TD*%
G04 APERTURE END LIST*
D10*
%TO.N,DC+*%
%TO.C,JDC1*%
X8000000Y-10000000D03*
D11*
X8000000Y-7460000D03*
X10540000Y-10000000D03*
X10540000Y-7460000D03*
X13080000Y-10000000D03*
X13080000Y-7460000D03*
X15620000Y-10000000D03*
X15620000Y-7460000D03*
X18160000Y-10000000D03*
X18160000Y-7460000D03*
X20700000Y-10000000D03*
X20700000Y-7460000D03*
X23240000Y-10000000D03*
X23240000Y-7460000D03*
X25780000Y-10000000D03*
X25780000Y-7460000D03*
X28320000Y-10000000D03*
X28320000Y-7460000D03*
X30860000Y-10000000D03*
X30860000Y-7460000D03*
X33400000Y-10000000D03*
X33400000Y-7460000D03*
X35940000Y-10000000D03*
X35940000Y-7460000D03*
%TD*%
D12*
%TO.N,GL1*%
%TO.C,JGL1*%
X41050000Y-36770000D03*
D13*
%TO.N,DC-*%
X41050000Y-38040000D03*
%TD*%
D10*
%TO.N,AC*%
%TO.C,JAC1*%
X78000000Y-22000000D03*
D11*
X80540000Y-22000000D03*
X78000000Y-24540000D03*
X80540000Y-24540000D03*
X78000000Y-27080000D03*
X80540000Y-27080000D03*
X78000000Y-29620000D03*
X80540000Y-29620000D03*
X78000000Y-32160000D03*
X80540000Y-32160000D03*
X78000000Y-34700000D03*
X80540000Y-34700000D03*
X78000000Y-37240000D03*
X80540000Y-37240000D03*
X78000000Y-39780000D03*
X80540000Y-39780000D03*
X78000000Y-42320000D03*
X80540000Y-42320000D03*
X78000000Y-44860000D03*
X80540000Y-44860000D03*
X78000000Y-47400000D03*
X80540000Y-47400000D03*
X78000000Y-49940000D03*
X80540000Y-49940000D03*
%TD*%
D10*
%TO.N,VIN*%
%TO.C,JCTRL1*%
X12000000Y-30000000D03*
D11*
%TO.N,DC-*%
X12000000Y-32540000D03*
%TO.N,HI*%
X12000000Y-35080000D03*
%TO.N,DC-*%
X12000000Y-37620000D03*
%TO.N,LI*%
X12000000Y-40160000D03*
%TO.N,DC-*%
X12000000Y-42700000D03*
%TD*%
D10*
%TO.N,DC-*%
%TO.C,JDC2*%
X8000000Y-17000000D03*
D11*
X8000000Y-14460000D03*
X10540000Y-17000000D03*
X10540000Y-14460000D03*
X13080000Y-17000000D03*
X13080000Y-14460000D03*
X15620000Y-17000000D03*
X15620000Y-14460000D03*
X18160000Y-17000000D03*
X18160000Y-14460000D03*
X20700000Y-17000000D03*
X20700000Y-14460000D03*
X23240000Y-17000000D03*
X23240000Y-14460000D03*
X25780000Y-17000000D03*
X25780000Y-14460000D03*
X28320000Y-17000000D03*
X28320000Y-14460000D03*
X30860000Y-17000000D03*
X30860000Y-14460000D03*
X33400000Y-17000000D03*
X33400000Y-14460000D03*
X35940000Y-17000000D03*
X35940000Y-14460000D03*
%TD*%
D12*
%TO.N,GL2*%
%TO.C,JGL2*%
X59050000Y-36770000D03*
D13*
%TO.N,DC-*%
X59050000Y-38040000D03*
%TD*%
D12*
%TO.N,GH1*%
%TO.C,JGH1*%
X41050000Y-30770000D03*
D13*
%TO.N,AC*%
X41050000Y-32040000D03*
%TD*%
D12*
%TO.N,GH2*%
%TO.C,JGH2*%
X59050000Y-30770000D03*
D13*
%TO.N,AC*%
X59050000Y-32040000D03*
%TD*%
D14*
%TO.N,AC*%
X72600000Y-35600000D03*
X54400000Y-32600000D03*
X43190000Y-32700000D03*
X55000000Y-31400000D03*
X72000000Y-34400000D03*
X55000000Y-32600000D03*
X61190000Y-32700000D03*
X54400000Y-31400000D03*
X40200000Y-34500000D03*
X55600000Y-32000000D03*
X55600000Y-31400000D03*
X54400000Y-32000000D03*
X71400000Y-35000000D03*
X55600000Y-32600000D03*
X71400000Y-34400000D03*
X72000000Y-35000000D03*
X72600000Y-35000000D03*
X72600000Y-34400000D03*
X72000000Y-35600000D03*
X71400000Y-35600000D03*
X73800000Y-47000000D03*
X55000000Y-32000000D03*
%TO.N,BST*%
X33800000Y-28325000D03*
X35750000Y-32299999D03*
%TO.N,BST_A*%
X33800000Y-26675000D03*
X40000000Y-22500000D03*
%TO.N,DC+*%
X67050000Y-46100000D03*
X46950000Y-46100000D03*
X62850000Y-28100000D03*
X44850000Y-28100000D03*
X69150000Y-28100000D03*
X69150000Y-46100000D03*
X72800000Y-29000000D03*
X64950000Y-46100000D03*
X51150000Y-28100000D03*
X53250000Y-28100000D03*
X46950000Y-28100000D03*
X53250000Y-46100000D03*
X44850000Y-46100000D03*
X67050000Y-28100000D03*
X71250000Y-46100000D03*
X51150000Y-46100000D03*
X60750000Y-28100000D03*
X49050000Y-46100000D03*
X42750000Y-28100000D03*
X60750000Y-46100000D03*
X71250000Y-28100000D03*
X64950000Y-28100000D03*
X49050000Y-28100000D03*
X62850000Y-46100000D03*
X42750000Y-46100000D03*
%TO.N,DC-*%
X53250000Y-23800000D03*
X47225000Y-41800000D03*
X33600000Y-43550000D03*
X53250000Y-42500000D03*
X53250000Y-23100000D03*
X32799999Y-36800000D03*
X63298000Y-41800000D03*
X51150000Y-23100000D03*
X67050000Y-42500000D03*
X66925000Y-41800000D03*
X69150000Y-23800000D03*
X69150000Y-23100000D03*
X46950000Y-42500000D03*
X44850000Y-23800000D03*
X67050000Y-23800000D03*
X61190000Y-38670000D03*
X71250000Y-23800000D03*
X32799999Y-35000000D03*
X42750000Y-42500000D03*
X31000000Y-20490000D03*
X63998000Y-41800000D03*
X49050000Y-23100000D03*
X62850000Y-23100000D03*
X67050000Y-23100000D03*
X71250000Y-42500000D03*
X42750000Y-23100000D03*
X30775000Y-22700000D03*
X42750000Y-23800000D03*
X64950000Y-23800000D03*
X48925000Y-41800000D03*
X49050000Y-42500000D03*
X64950000Y-23100000D03*
X46950000Y-23800000D03*
X33800000Y-38725000D03*
X71250000Y-23100000D03*
X44850000Y-23100000D03*
X44850000Y-42500000D03*
X67625000Y-41800000D03*
X60750000Y-42500000D03*
X39400000Y-43550000D03*
X49050000Y-23800000D03*
X51150000Y-23800000D03*
X65925000Y-41800000D03*
X49625000Y-41800000D03*
X62850000Y-42500000D03*
X51150000Y-42500000D03*
X45998000Y-41800000D03*
X60750000Y-23800000D03*
X46950000Y-23100000D03*
X65224999Y-41800000D03*
X43190000Y-38670000D03*
X69150000Y-42500000D03*
X47925000Y-41800000D03*
X44800000Y-20000000D03*
X64950000Y-42500000D03*
X26000000Y-20490000D03*
X62850000Y-23800000D03*
X45298000Y-41800000D03*
X60750000Y-23100000D03*
%TO.N,GH1*%
X45148000Y-30770000D03*
%TO.N,GH2*%
X63148000Y-30770000D03*
%TO.N,GL1*%
X45148000Y-36770000D03*
%TO.N,GL2*%
X63148000Y-36770000D03*
%TO.N,HB*%
X39100000Y-35500000D03*
X39200000Y-28775000D03*
X35225000Y-30100000D03*
X38800000Y-22000000D03*
X36600000Y-22500000D03*
%TO.N,HI*%
X26000000Y-21510000D03*
X33800000Y-32299999D03*
%TO.N,HO*%
X43190000Y-31500000D03*
X61190000Y-31500000D03*
X37250000Y-37600000D03*
%TO.N,LI*%
X31000000Y-21510000D03*
X33000000Y-33100000D03*
%TO.N,LO*%
X61190000Y-35700000D03*
X43190000Y-35700000D03*
X35750000Y-37600000D03*
%TO.N,VDD*%
X33800000Y-40275000D03*
X33600000Y-45450000D03*
X39800000Y-49000000D03*
X39400000Y-45450000D03*
X32000000Y-35800000D03*
X34750000Y-37600000D03*
%TO.N,VIN*%
X29225000Y-22700000D03*
X33100000Y-34000000D03*
%TD*%
%TA.AperFunction,Conductor*%
%TO.N,DC-*%
G36*
X9529558Y-7017313D02*
G01*
X9554868Y-7061150D01*
X9552806Y-7095481D01*
X9504700Y-7254064D01*
X9504700Y-7254066D01*
X9484417Y-7460000D01*
X9504700Y-7665934D01*
X9564768Y-7863954D01*
X9662315Y-8046450D01*
X9793590Y-8206410D01*
X9953550Y-8337685D01*
X10136046Y-8435232D01*
X10334066Y-8495300D01*
X10540000Y-8515583D01*
X10745934Y-8495300D01*
X10943954Y-8435232D01*
X11126450Y-8337685D01*
X11286410Y-8206410D01*
X11417685Y-8046450D01*
X11515232Y-7863954D01*
X11575300Y-7665934D01*
X11595583Y-7460000D01*
X11575300Y-7254066D01*
X11527194Y-7095480D01*
X11529954Y-7044937D01*
X11564557Y-7007992D01*
X11598008Y-7000000D01*
X12021992Y-7000000D01*
X12069558Y-7017313D01*
X12094868Y-7061150D01*
X12092806Y-7095481D01*
X12044700Y-7254064D01*
X12044700Y-7254066D01*
X12024417Y-7460000D01*
X12044700Y-7665934D01*
X12104768Y-7863954D01*
X12202315Y-8046450D01*
X12333590Y-8206410D01*
X12493550Y-8337685D01*
X12676046Y-8435232D01*
X12874066Y-8495300D01*
X13080000Y-8515583D01*
X13285934Y-8495300D01*
X13483954Y-8435232D01*
X13666450Y-8337685D01*
X13826410Y-8206410D01*
X13957685Y-8046450D01*
X14055232Y-7863954D01*
X14115300Y-7665934D01*
X14135583Y-7460000D01*
X14115300Y-7254066D01*
X14067194Y-7095480D01*
X14069954Y-7044937D01*
X14104557Y-7007992D01*
X14138008Y-7000000D01*
X14561992Y-7000000D01*
X14609558Y-7017313D01*
X14634868Y-7061150D01*
X14632806Y-7095481D01*
X14584700Y-7254064D01*
X14584700Y-7254066D01*
X14564417Y-7460000D01*
X14584700Y-7665934D01*
X14644768Y-7863954D01*
X14742315Y-8046450D01*
X14873590Y-8206410D01*
X15033550Y-8337685D01*
X15216046Y-8435232D01*
X15414066Y-8495300D01*
X15620000Y-8515583D01*
X15825934Y-8495300D01*
X16023954Y-8435232D01*
X16206450Y-8337685D01*
X16366410Y-8206410D01*
X16497685Y-8046450D01*
X16595232Y-7863954D01*
X16655300Y-7665934D01*
X16675583Y-7460000D01*
X16655300Y-7254066D01*
X16607194Y-7095480D01*
X16609954Y-7044937D01*
X16644557Y-7007992D01*
X16678008Y-7000000D01*
X17101992Y-7000000D01*
X17149558Y-7017313D01*
X17174868Y-7061150D01*
X17172806Y-7095481D01*
X17124700Y-7254064D01*
X17124700Y-7254066D01*
X17104417Y-7460000D01*
X17124700Y-7665934D01*
X17184768Y-7863954D01*
X17282315Y-8046450D01*
X17413590Y-8206410D01*
X17573550Y-8337685D01*
X17756046Y-8435232D01*
X17954066Y-8495300D01*
X18160000Y-8515583D01*
X18365934Y-8495300D01*
X18563954Y-8435232D01*
X18746450Y-8337685D01*
X18906410Y-8206410D01*
X19037685Y-8046450D01*
X19135232Y-7863954D01*
X19195300Y-7665934D01*
X19215583Y-7460000D01*
X19195300Y-7254066D01*
X19147194Y-7095480D01*
X19149954Y-7044937D01*
X19184557Y-7007992D01*
X19218008Y-7000000D01*
X19641992Y-7000000D01*
X19689558Y-7017313D01*
X19714868Y-7061150D01*
X19712806Y-7095481D01*
X19664700Y-7254064D01*
X19664700Y-7254066D01*
X19644417Y-7460000D01*
X19664700Y-7665934D01*
X19724768Y-7863954D01*
X19822315Y-8046450D01*
X19953590Y-8206410D01*
X20113550Y-8337685D01*
X20296046Y-8435232D01*
X20494066Y-8495300D01*
X20700000Y-8515583D01*
X20905934Y-8495300D01*
X21103954Y-8435232D01*
X21286450Y-8337685D01*
X21446410Y-8206410D01*
X21577685Y-8046450D01*
X21675232Y-7863954D01*
X21735300Y-7665934D01*
X21755583Y-7460000D01*
X21735300Y-7254066D01*
X21687194Y-7095480D01*
X21689954Y-7044937D01*
X21724557Y-7007992D01*
X21758008Y-7000000D01*
X22181992Y-7000000D01*
X22229558Y-7017313D01*
X22254868Y-7061150D01*
X22252806Y-7095481D01*
X22204700Y-7254064D01*
X22204700Y-7254066D01*
X22184417Y-7460000D01*
X22204700Y-7665934D01*
X22264768Y-7863954D01*
X22362315Y-8046450D01*
X22493590Y-8206410D01*
X22653550Y-8337685D01*
X22836046Y-8435232D01*
X23034066Y-8495300D01*
X23240000Y-8515583D01*
X23445934Y-8495300D01*
X23643954Y-8435232D01*
X23826450Y-8337685D01*
X23986410Y-8206410D01*
X24117685Y-8046450D01*
X24215232Y-7863954D01*
X24275300Y-7665934D01*
X24295583Y-7460000D01*
X24275300Y-7254066D01*
X24227194Y-7095480D01*
X24229954Y-7044937D01*
X24264557Y-7007992D01*
X24298008Y-7000000D01*
X24721992Y-7000000D01*
X24769558Y-7017313D01*
X24794868Y-7061150D01*
X24792806Y-7095481D01*
X24744700Y-7254064D01*
X24744700Y-7254066D01*
X24724417Y-7460000D01*
X24744700Y-7665934D01*
X24804768Y-7863954D01*
X24902315Y-8046450D01*
X25033590Y-8206410D01*
X25193550Y-8337685D01*
X25376046Y-8435232D01*
X25574066Y-8495300D01*
X25780000Y-8515583D01*
X25985934Y-8495300D01*
X26183954Y-8435232D01*
X26366450Y-8337685D01*
X26526410Y-8206410D01*
X26657685Y-8046450D01*
X26755232Y-7863954D01*
X26815300Y-7665934D01*
X26835583Y-7460000D01*
X26815300Y-7254066D01*
X26767194Y-7095480D01*
X26769954Y-7044937D01*
X26804557Y-7007992D01*
X26838008Y-7000000D01*
X27261992Y-7000000D01*
X27309558Y-7017313D01*
X27334868Y-7061150D01*
X27332806Y-7095481D01*
X27284700Y-7254064D01*
X27284700Y-7254066D01*
X27264417Y-7460000D01*
X27284700Y-7665934D01*
X27344768Y-7863954D01*
X27442315Y-8046450D01*
X27573590Y-8206410D01*
X27733550Y-8337685D01*
X27916046Y-8435232D01*
X28114066Y-8495300D01*
X28320000Y-8515583D01*
X28525934Y-8495300D01*
X28723954Y-8435232D01*
X28906450Y-8337685D01*
X29066410Y-8206410D01*
X29197685Y-8046450D01*
X29295232Y-7863954D01*
X29355300Y-7665934D01*
X29375583Y-7460000D01*
X29355300Y-7254066D01*
X29307194Y-7095480D01*
X29309954Y-7044937D01*
X29344557Y-7007992D01*
X29378008Y-7000000D01*
X29801992Y-7000000D01*
X29849558Y-7017313D01*
X29874868Y-7061150D01*
X29872806Y-7095481D01*
X29824700Y-7254064D01*
X29824700Y-7254066D01*
X29804417Y-7460000D01*
X29824700Y-7665934D01*
X29884768Y-7863954D01*
X29982315Y-8046450D01*
X30113590Y-8206410D01*
X30273550Y-8337685D01*
X30456046Y-8435232D01*
X30654066Y-8495300D01*
X30860000Y-8515583D01*
X31065934Y-8495300D01*
X31263954Y-8435232D01*
X31446450Y-8337685D01*
X31606410Y-8206410D01*
X31737685Y-8046450D01*
X31835232Y-7863954D01*
X31895300Y-7665934D01*
X31915583Y-7460000D01*
X31895300Y-7254066D01*
X31847194Y-7095480D01*
X31849954Y-7044937D01*
X31884557Y-7007992D01*
X31918008Y-7000000D01*
X32341992Y-7000000D01*
X32389558Y-7017313D01*
X32414868Y-7061150D01*
X32412806Y-7095481D01*
X32364700Y-7254064D01*
X32364700Y-7254066D01*
X32344417Y-7460000D01*
X32364700Y-7665934D01*
X32424768Y-7863954D01*
X32522315Y-8046450D01*
X32653590Y-8206410D01*
X32813550Y-8337685D01*
X32996046Y-8435232D01*
X33194066Y-8495300D01*
X33400000Y-8515583D01*
X33605934Y-8495300D01*
X33803954Y-8435232D01*
X33986450Y-8337685D01*
X34146410Y-8206410D01*
X34277685Y-8046450D01*
X34375232Y-7863954D01*
X34435300Y-7665934D01*
X34455583Y-7460000D01*
X34435300Y-7254066D01*
X34387194Y-7095480D01*
X34389954Y-7044937D01*
X34424557Y-7007992D01*
X34458008Y-7000000D01*
X34881992Y-7000000D01*
X34929558Y-7017313D01*
X34954868Y-7061150D01*
X34952806Y-7095481D01*
X34904700Y-7254064D01*
X34904700Y-7254066D01*
X34884417Y-7460000D01*
X34904700Y-7665934D01*
X34964768Y-7863954D01*
X35062315Y-8046450D01*
X35193590Y-8206410D01*
X35353550Y-8337685D01*
X35536046Y-8435232D01*
X35734066Y-8495300D01*
X35940000Y-8515583D01*
X36145934Y-8495300D01*
X36343954Y-8435232D01*
X36526450Y-8337685D01*
X36686410Y-8206410D01*
X36817685Y-8046450D01*
X36915232Y-7863954D01*
X36975300Y-7665934D01*
X36995583Y-7460000D01*
X36975300Y-7254066D01*
X36927194Y-7095480D01*
X36929954Y-7044937D01*
X36964557Y-7007992D01*
X36998008Y-7000000D01*
X38788886Y-7000000D01*
X38836452Y-7017313D01*
X38861762Y-7061150D01*
X38852972Y-7111000D01*
X38847283Y-7119451D01*
X38781530Y-7203930D01*
X38781524Y-7203940D01*
X38667117Y-7415344D01*
X38589065Y-7642704D01*
X38549500Y-7879805D01*
X38549500Y-8120194D01*
X38589065Y-8357295D01*
X38667117Y-8584655D01*
X38667118Y-8584656D01*
X38781528Y-8796067D01*
X38929175Y-8985764D01*
X39106031Y-9148571D01*
X39307272Y-9280049D01*
X39527409Y-9376610D01*
X39760437Y-9435620D01*
X39760440Y-9435620D01*
X39760443Y-9435621D01*
X39940002Y-9450500D01*
X39940010Y-9450500D01*
X40059998Y-9450500D01*
X40239556Y-9435621D01*
X40239557Y-9435621D01*
X40239559Y-9435620D01*
X40239563Y-9435620D01*
X40472591Y-9376610D01*
X40692728Y-9280049D01*
X40893969Y-9148571D01*
X41070825Y-8985764D01*
X41218472Y-8796067D01*
X41332882Y-8584656D01*
X41410934Y-8357297D01*
X41450500Y-8120192D01*
X41450500Y-7879808D01*
X41410934Y-7642703D01*
X41332882Y-7415344D01*
X41218472Y-7203933D01*
X41152716Y-7119450D01*
X41137164Y-7071281D01*
X41156213Y-7024383D01*
X41200950Y-7000701D01*
X41211114Y-7000000D01*
X72788886Y-7000000D01*
X72836452Y-7017313D01*
X72861762Y-7061150D01*
X72852972Y-7111000D01*
X72847283Y-7119451D01*
X72781530Y-7203930D01*
X72781524Y-7203940D01*
X72667117Y-7415344D01*
X72589065Y-7642704D01*
X72549500Y-7879805D01*
X72549500Y-8120194D01*
X72589065Y-8357295D01*
X72667117Y-8584655D01*
X72667118Y-8584656D01*
X72781528Y-8796067D01*
X72929175Y-8985764D01*
X73106031Y-9148571D01*
X73307272Y-9280049D01*
X73527409Y-9376610D01*
X73760437Y-9435620D01*
X73760440Y-9435620D01*
X73760443Y-9435621D01*
X73932111Y-9449846D01*
X73978085Y-9471027D01*
X73999688Y-9516805D01*
X74000000Y-9523593D01*
X74000000Y-25397846D01*
X73982687Y-25445412D01*
X73971228Y-25456415D01*
X73761823Y-25618112D01*
X73761822Y-25618113D01*
X73761818Y-25618116D01*
X73573812Y-25813120D01*
X73416199Y-26033423D01*
X73292348Y-26274315D01*
X73292340Y-26274333D01*
X73204883Y-26530687D01*
X73204881Y-26530694D01*
X73158664Y-26780912D01*
X73155681Y-26797067D01*
X73146177Y-27057139D01*
X73145788Y-27067771D01*
X73175414Y-27337018D01*
X73243928Y-27599088D01*
X73294401Y-27717860D01*
X73349870Y-27848390D01*
X73490982Y-28079610D01*
X73490984Y-28079612D01*
X73664252Y-28287817D01*
X73664253Y-28287818D01*
X73664255Y-28287820D01*
X73865998Y-28468582D01*
X73966831Y-28535292D01*
X73996948Y-28575975D01*
X74000000Y-28597007D01*
X74000000Y-41397846D01*
X73982687Y-41445412D01*
X73971228Y-41456415D01*
X73761823Y-41618112D01*
X73761822Y-41618113D01*
X73761818Y-41618116D01*
X73573812Y-41813120D01*
X73416199Y-42033423D01*
X73292348Y-42274315D01*
X73292340Y-42274333D01*
X73204883Y-42530687D01*
X73204881Y-42530694D01*
X73155682Y-42797062D01*
X73155681Y-42797070D01*
X73145788Y-43067771D01*
X73175414Y-43337018D01*
X73243928Y-43599088D01*
X73297722Y-43725675D01*
X73349870Y-43848390D01*
X73490982Y-44079610D01*
X73490984Y-44079612D01*
X73664252Y-44287817D01*
X73664253Y-44287818D01*
X73664255Y-44287820D01*
X73865998Y-44468582D01*
X73966831Y-44535292D01*
X73996948Y-44575975D01*
X74000000Y-44597007D01*
X74000000Y-46438242D01*
X73982687Y-46485808D01*
X73938850Y-46511118D01*
X73905153Y-46509245D01*
X73871962Y-46499500D01*
X73871961Y-46499500D01*
X73728039Y-46499500D01*
X73728036Y-46499500D01*
X73589949Y-46540046D01*
X73589945Y-46540047D01*
X73468875Y-46617855D01*
X73468868Y-46617860D01*
X73374623Y-46726626D01*
X73314834Y-46857545D01*
X73294353Y-47000000D01*
X73314834Y-47142454D01*
X73374623Y-47273373D01*
X73468868Y-47382139D01*
X73468869Y-47382140D01*
X73468872Y-47382143D01*
X73589947Y-47459953D01*
X73694847Y-47490754D01*
X73728035Y-47500499D01*
X73728037Y-47500500D01*
X73728039Y-47500500D01*
X73871962Y-47500500D01*
X73879840Y-47498186D01*
X73905152Y-47490754D01*
X73955667Y-47493963D01*
X73992303Y-47528893D01*
X74000000Y-47561756D01*
X74000000Y-51476406D01*
X73982687Y-51523972D01*
X73938850Y-51549282D01*
X73932111Y-51550153D01*
X73760443Y-51564378D01*
X73760442Y-51564378D01*
X73582528Y-51609432D01*
X73527409Y-51623390D01*
X73527407Y-51623390D01*
X73527402Y-51623392D01*
X73307271Y-51719951D01*
X73106033Y-51851427D01*
X72929176Y-52014234D01*
X72781531Y-52203928D01*
X72781524Y-52203940D01*
X72667117Y-52415344D01*
X72589065Y-52642704D01*
X72549500Y-52879805D01*
X72549500Y-53120194D01*
X72589065Y-53357295D01*
X72667117Y-53584655D01*
X72667118Y-53584656D01*
X72781528Y-53796067D01*
X72929175Y-53985764D01*
X73106031Y-54148571D01*
X73307272Y-54280049D01*
X73527409Y-54376610D01*
X73760437Y-54435620D01*
X73760440Y-54435620D01*
X73760443Y-54435621D01*
X73932111Y-54449846D01*
X73978085Y-54471027D01*
X73999688Y-54516805D01*
X74000000Y-54523593D01*
X74000000Y-54926000D01*
X73982687Y-54973566D01*
X73938850Y-54998876D01*
X73926000Y-55000000D01*
X7074000Y-55000000D01*
X7026434Y-54982687D01*
X7001124Y-54938850D01*
X7000000Y-54926000D01*
X7000000Y-53120194D01*
X38549500Y-53120194D01*
X38589065Y-53357295D01*
X38667117Y-53584655D01*
X38667118Y-53584656D01*
X38781528Y-53796067D01*
X38929175Y-53985764D01*
X39106031Y-54148571D01*
X39307272Y-54280049D01*
X39527409Y-54376610D01*
X39760437Y-54435620D01*
X39760440Y-54435620D01*
X39760443Y-54435621D01*
X39940002Y-54450500D01*
X39940010Y-54450500D01*
X40059998Y-54450500D01*
X40239556Y-54435621D01*
X40239557Y-54435621D01*
X40239559Y-54435620D01*
X40239563Y-54435620D01*
X40472591Y-54376610D01*
X40692728Y-54280049D01*
X40893969Y-54148571D01*
X41070825Y-53985764D01*
X41218472Y-53796067D01*
X41332882Y-53584656D01*
X41410934Y-53357297D01*
X41450500Y-53120192D01*
X41450500Y-52879808D01*
X41410934Y-52642703D01*
X41332882Y-52415344D01*
X41218472Y-52203933D01*
X41070825Y-52014236D01*
X40893969Y-51851429D01*
X40692728Y-51719951D01*
X40472597Y-51623392D01*
X40472593Y-51623391D01*
X40472591Y-51623390D01*
X40314399Y-51583331D01*
X40239556Y-51564378D01*
X40059998Y-51549500D01*
X40059990Y-51549500D01*
X39940010Y-51549500D01*
X39940002Y-51549500D01*
X39760443Y-51564378D01*
X39760442Y-51564378D01*
X39582528Y-51609432D01*
X39527409Y-51623390D01*
X39527407Y-51623390D01*
X39527402Y-51623392D01*
X39307271Y-51719951D01*
X39106033Y-51851427D01*
X38929176Y-52014234D01*
X38781531Y-52203928D01*
X38781524Y-52203940D01*
X38667117Y-52415344D01*
X38589065Y-52642704D01*
X38549500Y-52879805D01*
X38549500Y-53120194D01*
X7000000Y-53120194D01*
X7000000Y-49000000D01*
X39294353Y-49000000D01*
X39314834Y-49142454D01*
X39374623Y-49273373D01*
X39468868Y-49382139D01*
X39468869Y-49382140D01*
X39468872Y-49382143D01*
X39589947Y-49459953D01*
X39696403Y-49491211D01*
X39728035Y-49500499D01*
X39728037Y-49500500D01*
X39728039Y-49500500D01*
X39871963Y-49500500D01*
X39871964Y-49500499D01*
X40010053Y-49459953D01*
X40131128Y-49382143D01*
X40225377Y-49273373D01*
X40285165Y-49142457D01*
X40305647Y-49000000D01*
X40285165Y-48857543D01*
X40225377Y-48726627D01*
X40131128Y-48617857D01*
X40074182Y-48581260D01*
X40010054Y-48540047D01*
X40010050Y-48540046D01*
X39871964Y-48499500D01*
X39871961Y-48499500D01*
X39728039Y-48499500D01*
X39728036Y-48499500D01*
X39589949Y-48540046D01*
X39589945Y-48540047D01*
X39468875Y-48617855D01*
X39468868Y-48617860D01*
X39374623Y-48726626D01*
X39314834Y-48857545D01*
X39294353Y-49000000D01*
X7000000Y-49000000D01*
X7000000Y-46100000D01*
X42244353Y-46100000D01*
X42264834Y-46242454D01*
X42324623Y-46373373D01*
X42418868Y-46482139D01*
X42418869Y-46482140D01*
X42418872Y-46482143D01*
X42539947Y-46559953D01*
X42646403Y-46591211D01*
X42678035Y-46600499D01*
X42678037Y-46600500D01*
X42678039Y-46600500D01*
X42821963Y-46600500D01*
X42821964Y-46600499D01*
X42960053Y-46559953D01*
X43081128Y-46482143D01*
X43175377Y-46373373D01*
X43235165Y-46242457D01*
X43255647Y-46100000D01*
X44344353Y-46100000D01*
X44364834Y-46242454D01*
X44424623Y-46373373D01*
X44518868Y-46482139D01*
X44518869Y-46482140D01*
X44518872Y-46482143D01*
X44639947Y-46559953D01*
X44746403Y-46591211D01*
X44778035Y-46600499D01*
X44778037Y-46600500D01*
X44778039Y-46600500D01*
X44921963Y-46600500D01*
X44921964Y-46600499D01*
X45060053Y-46559953D01*
X45181128Y-46482143D01*
X45275377Y-46373373D01*
X45335165Y-46242457D01*
X45355647Y-46100000D01*
X46444353Y-46100000D01*
X46464834Y-46242454D01*
X46524623Y-46373373D01*
X46618868Y-46482139D01*
X46618869Y-46482140D01*
X46618872Y-46482143D01*
X46739947Y-46559953D01*
X46846403Y-46591211D01*
X46878035Y-46600499D01*
X46878037Y-46600500D01*
X46878039Y-46600500D01*
X47021963Y-46600500D01*
X47021964Y-46600499D01*
X47160053Y-46559953D01*
X47281128Y-46482143D01*
X47375377Y-46373373D01*
X47435165Y-46242457D01*
X47455647Y-46100000D01*
X48544353Y-46100000D01*
X48564834Y-46242454D01*
X48624623Y-46373373D01*
X48718868Y-46482139D01*
X48718869Y-46482140D01*
X48718872Y-46482143D01*
X48839947Y-46559953D01*
X48946403Y-46591211D01*
X48978035Y-46600499D01*
X48978037Y-46600500D01*
X48978039Y-46600500D01*
X49121963Y-46600500D01*
X49121964Y-46600499D01*
X49260053Y-46559953D01*
X49381128Y-46482143D01*
X49475377Y-46373373D01*
X49535165Y-46242457D01*
X49555647Y-46100000D01*
X50644353Y-46100000D01*
X50664834Y-46242454D01*
X50724623Y-46373373D01*
X50818868Y-46482139D01*
X50818869Y-46482140D01*
X50818872Y-46482143D01*
X50939947Y-46559953D01*
X51046403Y-46591211D01*
X51078035Y-46600499D01*
X51078037Y-46600500D01*
X51078039Y-46600500D01*
X51221963Y-46600500D01*
X51221964Y-46600499D01*
X51360053Y-46559953D01*
X51481128Y-46482143D01*
X51575377Y-46373373D01*
X51635165Y-46242457D01*
X51655647Y-46100000D01*
X52744353Y-46100000D01*
X52764834Y-46242454D01*
X52824623Y-46373373D01*
X52918868Y-46482139D01*
X52918869Y-46482140D01*
X52918872Y-46482143D01*
X53039947Y-46559953D01*
X53146403Y-46591211D01*
X53178035Y-46600499D01*
X53178037Y-46600500D01*
X53178039Y-46600500D01*
X53321963Y-46600500D01*
X53321964Y-46600499D01*
X53460053Y-46559953D01*
X53581128Y-46482143D01*
X53675377Y-46373373D01*
X53735165Y-46242457D01*
X53755647Y-46100000D01*
X60244353Y-46100000D01*
X60264834Y-46242454D01*
X60324623Y-46373373D01*
X60418868Y-46482139D01*
X60418869Y-46482140D01*
X60418872Y-46482143D01*
X60539947Y-46559953D01*
X60646403Y-46591211D01*
X60678035Y-46600499D01*
X60678037Y-46600500D01*
X60678039Y-46600500D01*
X60821963Y-46600500D01*
X60821964Y-46600499D01*
X60960053Y-46559953D01*
X61081128Y-46482143D01*
X61175377Y-46373373D01*
X61235165Y-46242457D01*
X61255647Y-46100000D01*
X62344353Y-46100000D01*
X62364834Y-46242454D01*
X62424623Y-46373373D01*
X62518868Y-46482139D01*
X62518869Y-46482140D01*
X62518872Y-46482143D01*
X62639947Y-46559953D01*
X62746403Y-46591211D01*
X62778035Y-46600499D01*
X62778037Y-46600500D01*
X62778039Y-46600500D01*
X62921963Y-46600500D01*
X62921964Y-46600499D01*
X63060053Y-46559953D01*
X63181128Y-46482143D01*
X63275377Y-46373373D01*
X63335165Y-46242457D01*
X63355647Y-46100000D01*
X64444353Y-46100000D01*
X64464834Y-46242454D01*
X64524623Y-46373373D01*
X64618868Y-46482139D01*
X64618869Y-46482140D01*
X64618872Y-46482143D01*
X64739947Y-46559953D01*
X64846403Y-46591211D01*
X64878035Y-46600499D01*
X64878037Y-46600500D01*
X64878039Y-46600500D01*
X65021963Y-46600500D01*
X65021964Y-46600499D01*
X65160053Y-46559953D01*
X65281128Y-46482143D01*
X65375377Y-46373373D01*
X65435165Y-46242457D01*
X65455647Y-46100000D01*
X66544353Y-46100000D01*
X66564834Y-46242454D01*
X66624623Y-46373373D01*
X66718868Y-46482139D01*
X66718869Y-46482140D01*
X66718872Y-46482143D01*
X66839947Y-46559953D01*
X66946403Y-46591211D01*
X66978035Y-46600499D01*
X66978037Y-46600500D01*
X66978039Y-46600500D01*
X67121963Y-46600500D01*
X67121964Y-46600499D01*
X67260053Y-46559953D01*
X67381128Y-46482143D01*
X67475377Y-46373373D01*
X67535165Y-46242457D01*
X67555647Y-46100000D01*
X68644353Y-46100000D01*
X68664834Y-46242454D01*
X68724623Y-46373373D01*
X68818868Y-46482139D01*
X68818869Y-46482140D01*
X68818872Y-46482143D01*
X68939947Y-46559953D01*
X69046403Y-46591211D01*
X69078035Y-46600499D01*
X69078037Y-46600500D01*
X69078039Y-46600500D01*
X69221963Y-46600500D01*
X69221964Y-46600499D01*
X69360053Y-46559953D01*
X69481128Y-46482143D01*
X69575377Y-46373373D01*
X69635165Y-46242457D01*
X69655647Y-46100000D01*
X70744353Y-46100000D01*
X70764834Y-46242454D01*
X70824623Y-46373373D01*
X70918868Y-46482139D01*
X70918869Y-46482140D01*
X70918872Y-46482143D01*
X71039947Y-46559953D01*
X71146403Y-46591211D01*
X71178035Y-46600499D01*
X71178037Y-46600500D01*
X71178039Y-46600500D01*
X71321963Y-46600500D01*
X71321964Y-46600499D01*
X71460053Y-46559953D01*
X71581128Y-46482143D01*
X71675377Y-46373373D01*
X71735165Y-46242457D01*
X71755647Y-46100000D01*
X71735165Y-45957543D01*
X71675377Y-45826627D01*
X71581128Y-45717857D01*
X71524182Y-45681260D01*
X71460054Y-45640047D01*
X71460050Y-45640046D01*
X71321964Y-45599500D01*
X71321961Y-45599500D01*
X71178039Y-45599500D01*
X71178036Y-45599500D01*
X71039949Y-45640046D01*
X71039945Y-45640047D01*
X70918875Y-45717855D01*
X70918868Y-45717860D01*
X70824623Y-45826626D01*
X70764834Y-45957545D01*
X70744353Y-46100000D01*
X69655647Y-46100000D01*
X69635165Y-45957543D01*
X69575377Y-45826627D01*
X69481128Y-45717857D01*
X69424182Y-45681260D01*
X69360054Y-45640047D01*
X69360050Y-45640046D01*
X69221964Y-45599500D01*
X69221961Y-45599500D01*
X69078039Y-45599500D01*
X69078036Y-45599500D01*
X68939949Y-45640046D01*
X68939945Y-45640047D01*
X68818875Y-45717855D01*
X68818868Y-45717860D01*
X68724623Y-45826626D01*
X68664834Y-45957545D01*
X68644353Y-46100000D01*
X67555647Y-46100000D01*
X67535165Y-45957543D01*
X67475377Y-45826627D01*
X67381128Y-45717857D01*
X67324182Y-45681260D01*
X67260054Y-45640047D01*
X67260050Y-45640046D01*
X67121964Y-45599500D01*
X67121961Y-45599500D01*
X66978039Y-45599500D01*
X66978036Y-45599500D01*
X66839949Y-45640046D01*
X66839945Y-45640047D01*
X66718875Y-45717855D01*
X66718868Y-45717860D01*
X66624623Y-45826626D01*
X66564834Y-45957545D01*
X66544353Y-46100000D01*
X65455647Y-46100000D01*
X65435165Y-45957543D01*
X65375377Y-45826627D01*
X65281128Y-45717857D01*
X65224182Y-45681260D01*
X65160054Y-45640047D01*
X65160050Y-45640046D01*
X65021964Y-45599500D01*
X65021961Y-45599500D01*
X64878039Y-45599500D01*
X64878036Y-45599500D01*
X64739949Y-45640046D01*
X64739945Y-45640047D01*
X64618875Y-45717855D01*
X64618868Y-45717860D01*
X64524623Y-45826626D01*
X64464834Y-45957545D01*
X64444353Y-46100000D01*
X63355647Y-46100000D01*
X63335165Y-45957543D01*
X63275377Y-45826627D01*
X63181128Y-45717857D01*
X63124182Y-45681260D01*
X63060054Y-45640047D01*
X63060050Y-45640046D01*
X62921964Y-45599500D01*
X62921961Y-45599500D01*
X62778039Y-45599500D01*
X62778036Y-45599500D01*
X62639949Y-45640046D01*
X62639945Y-45640047D01*
X62518875Y-45717855D01*
X62518868Y-45717860D01*
X62424623Y-45826626D01*
X62364834Y-45957545D01*
X62344353Y-46100000D01*
X61255647Y-46100000D01*
X61235165Y-45957543D01*
X61175377Y-45826627D01*
X61081128Y-45717857D01*
X61024182Y-45681260D01*
X60960054Y-45640047D01*
X60960050Y-45640046D01*
X60821964Y-45599500D01*
X60821961Y-45599500D01*
X60678039Y-45599500D01*
X60678036Y-45599500D01*
X60539949Y-45640046D01*
X60539945Y-45640047D01*
X60418875Y-45717855D01*
X60418868Y-45717860D01*
X60324623Y-45826626D01*
X60264834Y-45957545D01*
X60244353Y-46100000D01*
X53755647Y-46100000D01*
X53735165Y-45957543D01*
X53675377Y-45826627D01*
X53581128Y-45717857D01*
X53524182Y-45681260D01*
X53460054Y-45640047D01*
X53460050Y-45640046D01*
X53321964Y-45599500D01*
X53321961Y-45599500D01*
X53178039Y-45599500D01*
X53178036Y-45599500D01*
X53039949Y-45640046D01*
X53039945Y-45640047D01*
X52918875Y-45717855D01*
X52918868Y-45717860D01*
X52824623Y-45826626D01*
X52764834Y-45957545D01*
X52744353Y-46100000D01*
X51655647Y-46100000D01*
X51635165Y-45957543D01*
X51575377Y-45826627D01*
X51481128Y-45717857D01*
X51424182Y-45681260D01*
X51360054Y-45640047D01*
X51360050Y-45640046D01*
X51221964Y-45599500D01*
X51221961Y-45599500D01*
X51078039Y-45599500D01*
X51078036Y-45599500D01*
X50939949Y-45640046D01*
X50939945Y-45640047D01*
X50818875Y-45717855D01*
X50818868Y-45717860D01*
X50724623Y-45826626D01*
X50664834Y-45957545D01*
X50644353Y-46100000D01*
X49555647Y-46100000D01*
X49535165Y-45957543D01*
X49475377Y-45826627D01*
X49381128Y-45717857D01*
X49324182Y-45681260D01*
X49260054Y-45640047D01*
X49260050Y-45640046D01*
X49121964Y-45599500D01*
X49121961Y-45599500D01*
X48978039Y-45599500D01*
X48978036Y-45599500D01*
X48839949Y-45640046D01*
X48839945Y-45640047D01*
X48718875Y-45717855D01*
X48718868Y-45717860D01*
X48624623Y-45826626D01*
X48564834Y-45957545D01*
X48544353Y-46100000D01*
X47455647Y-46100000D01*
X47435165Y-45957543D01*
X47375377Y-45826627D01*
X47281128Y-45717857D01*
X47224182Y-45681260D01*
X47160054Y-45640047D01*
X47160050Y-45640046D01*
X47021964Y-45599500D01*
X47021961Y-45599500D01*
X46878039Y-45599500D01*
X46878036Y-45599500D01*
X46739949Y-45640046D01*
X46739945Y-45640047D01*
X46618875Y-45717855D01*
X46618868Y-45717860D01*
X46524623Y-45826626D01*
X46464834Y-45957545D01*
X46444353Y-46100000D01*
X45355647Y-46100000D01*
X45335165Y-45957543D01*
X45275377Y-45826627D01*
X45181128Y-45717857D01*
X45124182Y-45681260D01*
X45060054Y-45640047D01*
X45060050Y-45640046D01*
X44921964Y-45599500D01*
X44921961Y-45599500D01*
X44778039Y-45599500D01*
X44778036Y-45599500D01*
X44639949Y-45640046D01*
X44639945Y-45640047D01*
X44518875Y-45717855D01*
X44518868Y-45717860D01*
X44424623Y-45826626D01*
X44364834Y-45957545D01*
X44344353Y-46100000D01*
X43255647Y-46100000D01*
X43235165Y-45957543D01*
X43175377Y-45826627D01*
X43081128Y-45717857D01*
X43024182Y-45681260D01*
X42960054Y-45640047D01*
X42960050Y-45640046D01*
X42821964Y-45599500D01*
X42821961Y-45599500D01*
X42678039Y-45599500D01*
X42678036Y-45599500D01*
X42539949Y-45640046D01*
X42539945Y-45640047D01*
X42418875Y-45717855D01*
X42418868Y-45717860D01*
X42324623Y-45826626D01*
X42264834Y-45957545D01*
X42244353Y-46100000D01*
X7000000Y-46100000D01*
X7000000Y-45450000D01*
X33094353Y-45450000D01*
X33114834Y-45592454D01*
X33114834Y-45592455D01*
X33114835Y-45592457D01*
X33136569Y-45640047D01*
X33174623Y-45723373D01*
X33268868Y-45832139D01*
X33268869Y-45832140D01*
X33268872Y-45832143D01*
X33389947Y-45909953D01*
X33496403Y-45941211D01*
X33528035Y-45950499D01*
X33528037Y-45950500D01*
X33528039Y-45950500D01*
X33671963Y-45950500D01*
X33671964Y-45950499D01*
X33810053Y-45909953D01*
X33931128Y-45832143D01*
X34025377Y-45723373D01*
X34085165Y-45592457D01*
X34105647Y-45450000D01*
X38894353Y-45450000D01*
X38914834Y-45592454D01*
X38914834Y-45592455D01*
X38914835Y-45592457D01*
X38936569Y-45640047D01*
X38974623Y-45723373D01*
X39068868Y-45832139D01*
X39068869Y-45832140D01*
X39068872Y-45832143D01*
X39189947Y-45909953D01*
X39296403Y-45941211D01*
X39328035Y-45950499D01*
X39328037Y-45950500D01*
X39328039Y-45950500D01*
X39471963Y-45950500D01*
X39471964Y-45950499D01*
X39610053Y-45909953D01*
X39731128Y-45832143D01*
X39825377Y-45723373D01*
X39885165Y-45592457D01*
X39905647Y-45450000D01*
X39885165Y-45307543D01*
X39825377Y-45176627D01*
X39731128Y-45067857D01*
X39674182Y-45031260D01*
X39610054Y-44990047D01*
X39610050Y-44990046D01*
X39471964Y-44949500D01*
X39471961Y-44949500D01*
X39328039Y-44949500D01*
X39328036Y-44949500D01*
X39189949Y-44990046D01*
X39189945Y-44990047D01*
X39068875Y-45067855D01*
X39068868Y-45067860D01*
X38974623Y-45176626D01*
X38914834Y-45307545D01*
X38894353Y-45450000D01*
X34105647Y-45450000D01*
X34085165Y-45307543D01*
X34025377Y-45176627D01*
X33931128Y-45067857D01*
X33874182Y-45031260D01*
X33810054Y-44990047D01*
X33810050Y-44990046D01*
X33671964Y-44949500D01*
X33671961Y-44949500D01*
X33528039Y-44949500D01*
X33528036Y-44949500D01*
X33389949Y-44990046D01*
X33389945Y-44990047D01*
X33268875Y-45067855D01*
X33268868Y-45067860D01*
X33174623Y-45176626D01*
X33114834Y-45307545D01*
X33094353Y-45450000D01*
X7000000Y-45450000D01*
X7000000Y-40160000D01*
X10944417Y-40160000D01*
X10964700Y-40365935D01*
X11024769Y-40563956D01*
X11116169Y-40734952D01*
X11122315Y-40746450D01*
X11253590Y-40906410D01*
X11413550Y-41037685D01*
X11596046Y-41135232D01*
X11794066Y-41195300D01*
X12000000Y-41215583D01*
X12205934Y-41195300D01*
X12403954Y-41135232D01*
X12586450Y-41037685D01*
X12746410Y-40906410D01*
X12877685Y-40746450D01*
X12975232Y-40563954D01*
X13035300Y-40365934D01*
X13044256Y-40275000D01*
X33294353Y-40275000D01*
X33314834Y-40417454D01*
X33374623Y-40548373D01*
X33468868Y-40657139D01*
X33468869Y-40657140D01*
X33468872Y-40657143D01*
X33589947Y-40734953D01*
X33696403Y-40766211D01*
X33728035Y-40775499D01*
X33728037Y-40775500D01*
X33728039Y-40775500D01*
X33871963Y-40775500D01*
X33871964Y-40775499D01*
X34010053Y-40734953D01*
X34131128Y-40657143D01*
X34225377Y-40548373D01*
X34285165Y-40417457D01*
X34305647Y-40275000D01*
X34285165Y-40132543D01*
X34225377Y-40001627D01*
X34201814Y-39974434D01*
X34131131Y-39892860D01*
X34131129Y-39892859D01*
X34131128Y-39892857D01*
X34074182Y-39856260D01*
X34010054Y-39815047D01*
X34010050Y-39815046D01*
X33871964Y-39774500D01*
X33871961Y-39774500D01*
X33728039Y-39774500D01*
X33728036Y-39774500D01*
X33589949Y-39815046D01*
X33589945Y-39815047D01*
X33468875Y-39892855D01*
X33468868Y-39892860D01*
X33374623Y-40001626D01*
X33314834Y-40132545D01*
X33294353Y-40275000D01*
X13044256Y-40275000D01*
X13055583Y-40160000D01*
X13035300Y-39954066D01*
X12975232Y-39756046D01*
X12877685Y-39573550D01*
X12746410Y-39413590D01*
X12586450Y-39282315D01*
X12403954Y-39184768D01*
X12292158Y-39150855D01*
X12205935Y-39124700D01*
X12000000Y-39104417D01*
X11794064Y-39124700D01*
X11596043Y-39184769D01*
X11413549Y-39282315D01*
X11253590Y-39413589D01*
X11253589Y-39413590D01*
X11122315Y-39573549D01*
X11024769Y-39756043D01*
X10964700Y-39954064D01*
X10944417Y-40160000D01*
X7000000Y-40160000D01*
X7000000Y-37600000D01*
X34244353Y-37600000D01*
X34264834Y-37742454D01*
X34264834Y-37742455D01*
X34264835Y-37742457D01*
X34317313Y-37857366D01*
X34324623Y-37873373D01*
X34418868Y-37982139D01*
X34418869Y-37982140D01*
X34418872Y-37982143D01*
X34539947Y-38059953D01*
X34646403Y-38091211D01*
X34678035Y-38100499D01*
X34678037Y-38100500D01*
X34678039Y-38100500D01*
X34821963Y-38100500D01*
X34821964Y-38100499D01*
X34960053Y-38059953D01*
X35081128Y-37982143D01*
X35175377Y-37873373D01*
X35182687Y-37857365D01*
X35218195Y-37821290D01*
X35268585Y-37816478D01*
X35310278Y-37845182D01*
X35317311Y-37857364D01*
X35324623Y-37873373D01*
X35382932Y-37940666D01*
X35418868Y-37982139D01*
X35418869Y-37982140D01*
X35418872Y-37982143D01*
X35539947Y-38059953D01*
X35646403Y-38091211D01*
X35678035Y-38100499D01*
X35678037Y-38100500D01*
X35678039Y-38100500D01*
X35821963Y-38100500D01*
X35821964Y-38100499D01*
X35960053Y-38059953D01*
X36081128Y-37982143D01*
X36175377Y-37873373D01*
X36235165Y-37742457D01*
X36255647Y-37600000D01*
X36744353Y-37600000D01*
X36764834Y-37742454D01*
X36764834Y-37742455D01*
X36764835Y-37742457D01*
X36817313Y-37857366D01*
X36824623Y-37873373D01*
X36918868Y-37982139D01*
X36918869Y-37982140D01*
X36918872Y-37982143D01*
X37039947Y-38059953D01*
X37146403Y-38091211D01*
X37178035Y-38100499D01*
X37178037Y-38100500D01*
X37178039Y-38100500D01*
X37321963Y-38100500D01*
X37321964Y-38100499D01*
X37460053Y-38059953D01*
X37581128Y-37982143D01*
X37675377Y-37873373D01*
X37735165Y-37742457D01*
X37755647Y-37600000D01*
X37735165Y-37457543D01*
X37675377Y-37326627D01*
X37643421Y-37289748D01*
X40349500Y-37289748D01*
X40356836Y-37326627D01*
X40361133Y-37348232D01*
X40381499Y-37378710D01*
X40405448Y-37414552D01*
X40449560Y-37444027D01*
X40471767Y-37458866D01*
X40471768Y-37458866D01*
X40471769Y-37458867D01*
X40530252Y-37470500D01*
X40530254Y-37470500D01*
X41569746Y-37470500D01*
X41569748Y-37470500D01*
X41628231Y-37458867D01*
X41694552Y-37414552D01*
X41738867Y-37348231D01*
X41750500Y-37289748D01*
X58349500Y-37289748D01*
X58356836Y-37326627D01*
X58361133Y-37348232D01*
X58381499Y-37378710D01*
X58405448Y-37414552D01*
X58449560Y-37444027D01*
X58471767Y-37458866D01*
X58471768Y-37458866D01*
X58471769Y-37458867D01*
X58530252Y-37470500D01*
X58530254Y-37470500D01*
X59569746Y-37470500D01*
X59569748Y-37470500D01*
X59628231Y-37458867D01*
X59694552Y-37414552D01*
X59738867Y-37348231D01*
X59750500Y-37289748D01*
X59750500Y-36770000D01*
X62642353Y-36770000D01*
X62662834Y-36912454D01*
X62722623Y-37043373D01*
X62816868Y-37152139D01*
X62816869Y-37152140D01*
X62816872Y-37152143D01*
X62937947Y-37229953D01*
X63044403Y-37261211D01*
X63076035Y-37270499D01*
X63076037Y-37270500D01*
X63076039Y-37270500D01*
X63219963Y-37270500D01*
X63219964Y-37270499D01*
X63358053Y-37229953D01*
X63479128Y-37152143D01*
X63573377Y-37043373D01*
X63633165Y-36912457D01*
X63653647Y-36770000D01*
X63633165Y-36627543D01*
X63573377Y-36496627D01*
X63479128Y-36387857D01*
X63422182Y-36351260D01*
X63358054Y-36310047D01*
X63358050Y-36310046D01*
X63219964Y-36269500D01*
X63219961Y-36269500D01*
X63076039Y-36269500D01*
X63076036Y-36269500D01*
X62937949Y-36310046D01*
X62937945Y-36310047D01*
X62816875Y-36387855D01*
X62816868Y-36387860D01*
X62722623Y-36496626D01*
X62662834Y-36627545D01*
X62642353Y-36770000D01*
X59750500Y-36770000D01*
X59750500Y-36250252D01*
X59738867Y-36191769D01*
X59732432Y-36182139D01*
X59701323Y-36135582D01*
X59694552Y-36125448D01*
X59672343Y-36110608D01*
X59628232Y-36081133D01*
X59628233Y-36081133D01*
X59598989Y-36075316D01*
X59569748Y-36069500D01*
X58530252Y-36069500D01*
X58501010Y-36075316D01*
X58471767Y-36081133D01*
X58405449Y-36125447D01*
X58405447Y-36125449D01*
X58361133Y-36191767D01*
X58361133Y-36191769D01*
X58349500Y-36250252D01*
X58349500Y-37289748D01*
X41750500Y-37289748D01*
X41750500Y-36770000D01*
X44642353Y-36770000D01*
X44662834Y-36912454D01*
X44722623Y-37043373D01*
X44816868Y-37152139D01*
X44816869Y-37152140D01*
X44816872Y-37152143D01*
X44937947Y-37229953D01*
X45044403Y-37261211D01*
X45076035Y-37270499D01*
X45076037Y-37270500D01*
X45076039Y-37270500D01*
X45219963Y-37270500D01*
X45219964Y-37270499D01*
X45358053Y-37229953D01*
X45479128Y-37152143D01*
X45573377Y-37043373D01*
X45633165Y-36912457D01*
X45653647Y-36770000D01*
X45633165Y-36627543D01*
X45573377Y-36496627D01*
X45479128Y-36387857D01*
X45422182Y-36351260D01*
X45358054Y-36310047D01*
X45358050Y-36310046D01*
X45219964Y-36269500D01*
X45219961Y-36269500D01*
X45076039Y-36269500D01*
X45076036Y-36269500D01*
X44937949Y-36310046D01*
X44937945Y-36310047D01*
X44816875Y-36387855D01*
X44816868Y-36387860D01*
X44722623Y-36496626D01*
X44662834Y-36627545D01*
X44642353Y-36770000D01*
X41750500Y-36770000D01*
X41750500Y-36250252D01*
X41738867Y-36191769D01*
X41732432Y-36182139D01*
X41701323Y-36135582D01*
X41694552Y-36125448D01*
X41672343Y-36110608D01*
X41628232Y-36081133D01*
X41628233Y-36081133D01*
X41598989Y-36075316D01*
X41569748Y-36069500D01*
X40530252Y-36069500D01*
X40501010Y-36075316D01*
X40471767Y-36081133D01*
X40405449Y-36125447D01*
X40405447Y-36125449D01*
X40361133Y-36191767D01*
X40361133Y-36191769D01*
X40349500Y-36250252D01*
X40349500Y-37289748D01*
X37643421Y-37289748D01*
X37626742Y-37270499D01*
X37581131Y-37217860D01*
X37581129Y-37217859D01*
X37581128Y-37217857D01*
X37524182Y-37181260D01*
X37460054Y-37140047D01*
X37460050Y-37140046D01*
X37321964Y-37099500D01*
X37321961Y-37099500D01*
X37178039Y-37099500D01*
X37178036Y-37099500D01*
X37039949Y-37140046D01*
X37039945Y-37140047D01*
X36918875Y-37217855D01*
X36918868Y-37217860D01*
X36824623Y-37326626D01*
X36764834Y-37457545D01*
X36744353Y-37600000D01*
X36255647Y-37600000D01*
X36235165Y-37457543D01*
X36175377Y-37326627D01*
X36126742Y-37270499D01*
X36081131Y-37217860D01*
X36081129Y-37217859D01*
X36081128Y-37217857D01*
X36024182Y-37181260D01*
X35960054Y-37140047D01*
X35960050Y-37140046D01*
X35821964Y-37099500D01*
X35821961Y-37099500D01*
X35678039Y-37099500D01*
X35678036Y-37099500D01*
X35539949Y-37140046D01*
X35539945Y-37140047D01*
X35418875Y-37217855D01*
X35418868Y-37217860D01*
X35324622Y-37326627D01*
X35317312Y-37342635D01*
X35281804Y-37378710D01*
X35231414Y-37383521D01*
X35189721Y-37354816D01*
X35182688Y-37342635D01*
X35175377Y-37326627D01*
X35081131Y-37217860D01*
X35081129Y-37217859D01*
X35081128Y-37217857D01*
X35024182Y-37181260D01*
X34960054Y-37140047D01*
X34960050Y-37140046D01*
X34821964Y-37099500D01*
X34821961Y-37099500D01*
X34678039Y-37099500D01*
X34678036Y-37099500D01*
X34539949Y-37140046D01*
X34539945Y-37140047D01*
X34418875Y-37217855D01*
X34418868Y-37217860D01*
X34324623Y-37326626D01*
X34264834Y-37457545D01*
X34244353Y-37600000D01*
X7000000Y-37600000D01*
X7000000Y-35080000D01*
X10944417Y-35080000D01*
X10964700Y-35285935D01*
X10981115Y-35340047D01*
X11016756Y-35457543D01*
X11024769Y-35483956D01*
X11122315Y-35666450D01*
X11184689Y-35742454D01*
X11253590Y-35826410D01*
X11413550Y-35957685D01*
X11596046Y-36055232D01*
X11794066Y-36115300D01*
X12000000Y-36135583D01*
X12205934Y-36115300D01*
X12403954Y-36055232D01*
X12586450Y-35957685D01*
X12746410Y-35826410D01*
X12768084Y-35800000D01*
X31494353Y-35800000D01*
X31514834Y-35942454D01*
X31514834Y-35942455D01*
X31514835Y-35942457D01*
X31532959Y-35982143D01*
X31574623Y-36073373D01*
X31668868Y-36182139D01*
X31668869Y-36182140D01*
X31668872Y-36182143D01*
X31789947Y-36259953D01*
X31896403Y-36291211D01*
X31928035Y-36300499D01*
X31928037Y-36300500D01*
X31928039Y-36300500D01*
X32071963Y-36300500D01*
X32071964Y-36300499D01*
X32210053Y-36259953D01*
X32331128Y-36182143D01*
X32425377Y-36073373D01*
X32485165Y-35942457D01*
X32505647Y-35800000D01*
X32485165Y-35657543D01*
X32425377Y-35526627D01*
X32402305Y-35500000D01*
X38594353Y-35500000D01*
X38614834Y-35642454D01*
X38614834Y-35642455D01*
X38614835Y-35642457D01*
X38660503Y-35742454D01*
X38674623Y-35773373D01*
X38768868Y-35882139D01*
X38768869Y-35882140D01*
X38768872Y-35882143D01*
X38889947Y-35959953D01*
X38996403Y-35991211D01*
X39028035Y-36000499D01*
X39028037Y-36000500D01*
X39028039Y-36000500D01*
X39171963Y-36000500D01*
X39171964Y-36000499D01*
X39310053Y-35959953D01*
X39431128Y-35882143D01*
X39525377Y-35773373D01*
X39558886Y-35700000D01*
X42684353Y-35700000D01*
X42704834Y-35842454D01*
X42704834Y-35842455D01*
X42704835Y-35842457D01*
X42722959Y-35882143D01*
X42764623Y-35973373D01*
X42858868Y-36082139D01*
X42858869Y-36082140D01*
X42858872Y-36082143D01*
X42979947Y-36159953D01*
X43086403Y-36191211D01*
X43118035Y-36200499D01*
X43118037Y-36200500D01*
X43118039Y-36200500D01*
X43261963Y-36200500D01*
X43261964Y-36200499D01*
X43400053Y-36159953D01*
X43521128Y-36082143D01*
X43615377Y-35973373D01*
X43675165Y-35842457D01*
X43695647Y-35700000D01*
X60684353Y-35700000D01*
X60704834Y-35842454D01*
X60704834Y-35842455D01*
X60704835Y-35842457D01*
X60722959Y-35882143D01*
X60764623Y-35973373D01*
X60858868Y-36082139D01*
X60858869Y-36082140D01*
X60858872Y-36082143D01*
X60979947Y-36159953D01*
X61086403Y-36191211D01*
X61118035Y-36200499D01*
X61118037Y-36200500D01*
X61118039Y-36200500D01*
X61261963Y-36200500D01*
X61261964Y-36200499D01*
X61400053Y-36159953D01*
X61521128Y-36082143D01*
X61615377Y-35973373D01*
X61675165Y-35842457D01*
X61695647Y-35700000D01*
X61681269Y-35600000D01*
X70894353Y-35600000D01*
X70914834Y-35742454D01*
X70914834Y-35742455D01*
X70914835Y-35742457D01*
X70960503Y-35842454D01*
X70974623Y-35873373D01*
X71068868Y-35982139D01*
X71068869Y-35982140D01*
X71068872Y-35982143D01*
X71189947Y-36059953D01*
X71296403Y-36091211D01*
X71328035Y-36100499D01*
X71328037Y-36100500D01*
X71328039Y-36100500D01*
X71471963Y-36100500D01*
X71471964Y-36100499D01*
X71610053Y-36059953D01*
X71659994Y-36027857D01*
X71709367Y-36016706D01*
X71740005Y-36027856D01*
X71789947Y-36059953D01*
X71896403Y-36091211D01*
X71928035Y-36100499D01*
X71928037Y-36100500D01*
X71928039Y-36100500D01*
X72071963Y-36100500D01*
X72071964Y-36100499D01*
X72210053Y-36059953D01*
X72259994Y-36027857D01*
X72309367Y-36016706D01*
X72340005Y-36027856D01*
X72389947Y-36059953D01*
X72496403Y-36091211D01*
X72528035Y-36100499D01*
X72528037Y-36100500D01*
X72528039Y-36100500D01*
X72671963Y-36100500D01*
X72671964Y-36100499D01*
X72810053Y-36059953D01*
X72931128Y-35982143D01*
X73025377Y-35873373D01*
X73085165Y-35742457D01*
X73105647Y-35600000D01*
X73085165Y-35457543D01*
X73027254Y-35330738D01*
X73023244Y-35280281D01*
X73027251Y-35269267D01*
X73085165Y-35142457D01*
X73105647Y-35000000D01*
X73085165Y-34857543D01*
X73027254Y-34730738D01*
X73023244Y-34680281D01*
X73027251Y-34669267D01*
X73085165Y-34542457D01*
X73105647Y-34400000D01*
X73085165Y-34257543D01*
X73025377Y-34126627D01*
X73001814Y-34099434D01*
X72931131Y-34017860D01*
X72931129Y-34017859D01*
X72931128Y-34017857D01*
X72874182Y-33981260D01*
X72810054Y-33940047D01*
X72810050Y-33940046D01*
X72671964Y-33899500D01*
X72671961Y-33899500D01*
X72528039Y-33899500D01*
X72528036Y-33899500D01*
X72389949Y-33940046D01*
X72389945Y-33940048D01*
X72340007Y-33972141D01*
X72290632Y-33983293D01*
X72259993Y-33972141D01*
X72239332Y-33958863D01*
X72210053Y-33940047D01*
X72210050Y-33940046D01*
X72071964Y-33899500D01*
X72071961Y-33899500D01*
X71928039Y-33899500D01*
X71928036Y-33899500D01*
X71789949Y-33940046D01*
X71789945Y-33940048D01*
X71740007Y-33972141D01*
X71690632Y-33983293D01*
X71659993Y-33972141D01*
X71639332Y-33958863D01*
X71610053Y-33940047D01*
X71610050Y-33940046D01*
X71471964Y-33899500D01*
X71471961Y-33899500D01*
X71328039Y-33899500D01*
X71328036Y-33899500D01*
X71189949Y-33940046D01*
X71189945Y-33940047D01*
X71068875Y-34017855D01*
X71068868Y-34017860D01*
X70974623Y-34126626D01*
X70914834Y-34257545D01*
X70894353Y-34400000D01*
X70914834Y-34542454D01*
X70972744Y-34669259D01*
X70976755Y-34719719D01*
X70972744Y-34730741D01*
X70914834Y-34857545D01*
X70894353Y-35000000D01*
X70914834Y-35142454D01*
X70972744Y-35269259D01*
X70976755Y-35319719D01*
X70972744Y-35330741D01*
X70914834Y-35457545D01*
X70894353Y-35600000D01*
X61681269Y-35600000D01*
X61675165Y-35557543D01*
X61615377Y-35426627D01*
X61532292Y-35330741D01*
X61521131Y-35317860D01*
X61521129Y-35317859D01*
X61521128Y-35317857D01*
X61462658Y-35280281D01*
X61400054Y-35240047D01*
X61400050Y-35240046D01*
X61261964Y-35199500D01*
X61261961Y-35199500D01*
X61118039Y-35199500D01*
X61118036Y-35199500D01*
X60979949Y-35240046D01*
X60979945Y-35240047D01*
X60858875Y-35317855D01*
X60858868Y-35317860D01*
X60764623Y-35426626D01*
X60704834Y-35557545D01*
X60684353Y-35700000D01*
X43695647Y-35700000D01*
X43675165Y-35557543D01*
X43615377Y-35426627D01*
X43532292Y-35330741D01*
X43521131Y-35317860D01*
X43521129Y-35317859D01*
X43521128Y-35317857D01*
X43462658Y-35280281D01*
X43400054Y-35240047D01*
X43400050Y-35240046D01*
X43261964Y-35199500D01*
X43261961Y-35199500D01*
X43118039Y-35199500D01*
X43118036Y-35199500D01*
X42979949Y-35240046D01*
X42979945Y-35240047D01*
X42858875Y-35317855D01*
X42858868Y-35317860D01*
X42764623Y-35426626D01*
X42704834Y-35557545D01*
X42684353Y-35700000D01*
X39558886Y-35700000D01*
X39585165Y-35642457D01*
X39605647Y-35500000D01*
X39585165Y-35357543D01*
X39525377Y-35226627D01*
X39452444Y-35142457D01*
X39431131Y-35117860D01*
X39431129Y-35117859D01*
X39431128Y-35117857D01*
X39372221Y-35080000D01*
X39310054Y-35040047D01*
X39310050Y-35040046D01*
X39171964Y-34999500D01*
X39171961Y-34999500D01*
X39028039Y-34999500D01*
X39028036Y-34999500D01*
X38889949Y-35040046D01*
X38889945Y-35040047D01*
X38768875Y-35117855D01*
X38768868Y-35117860D01*
X38674623Y-35226626D01*
X38614834Y-35357545D01*
X38594353Y-35500000D01*
X32402305Y-35500000D01*
X32365516Y-35457543D01*
X32331131Y-35417860D01*
X32331129Y-35417859D01*
X32331128Y-35417857D01*
X32274182Y-35381260D01*
X32210054Y-35340047D01*
X32210050Y-35340046D01*
X32071964Y-35299500D01*
X32071961Y-35299500D01*
X31928039Y-35299500D01*
X31928036Y-35299500D01*
X31789949Y-35340046D01*
X31789945Y-35340047D01*
X31668875Y-35417855D01*
X31668868Y-35417860D01*
X31574623Y-35526626D01*
X31514834Y-35657545D01*
X31494353Y-35800000D01*
X12768084Y-35800000D01*
X12877685Y-35666450D01*
X12975232Y-35483954D01*
X13035300Y-35285934D01*
X13055583Y-35080000D01*
X13035300Y-34874066D01*
X12975232Y-34676046D01*
X12877685Y-34493550D01*
X12746410Y-34333590D01*
X12586450Y-34202315D01*
X12403954Y-34104768D01*
X12292158Y-34070855D01*
X12205935Y-34044700D01*
X12000000Y-34024417D01*
X11794064Y-34044700D01*
X11596043Y-34104769D01*
X11413549Y-34202315D01*
X11253590Y-34333589D01*
X11253589Y-34333590D01*
X11122315Y-34493549D01*
X11024769Y-34676043D01*
X10964700Y-34874064D01*
X10944417Y-35080000D01*
X7000000Y-35080000D01*
X7000000Y-33100000D01*
X32494353Y-33100000D01*
X32514834Y-33242454D01*
X32574623Y-33373373D01*
X32668868Y-33482139D01*
X32668869Y-33482140D01*
X32668872Y-33482143D01*
X32736795Y-33525794D01*
X32767450Y-33566073D01*
X32765041Y-33616635D01*
X32752713Y-33636505D01*
X32674623Y-33726626D01*
X32614834Y-33857545D01*
X32594353Y-34000000D01*
X32614834Y-34142454D01*
X32674623Y-34273373D01*
X32768868Y-34382139D01*
X32768869Y-34382140D01*
X32768872Y-34382143D01*
X32889947Y-34459953D01*
X32996403Y-34491211D01*
X33028035Y-34500499D01*
X33028037Y-34500500D01*
X33028039Y-34500500D01*
X33171963Y-34500500D01*
X33171964Y-34500499D01*
X33173663Y-34500000D01*
X39694353Y-34500000D01*
X39714834Y-34642454D01*
X39714834Y-34642455D01*
X39714835Y-34642457D01*
X39774623Y-34773373D01*
X39868868Y-34882139D01*
X39868869Y-34882140D01*
X39868872Y-34882143D01*
X39989947Y-34959953D01*
X40096403Y-34991211D01*
X40128035Y-35000499D01*
X40128037Y-35000500D01*
X40128039Y-35000500D01*
X40271963Y-35000500D01*
X40271964Y-35000499D01*
X40410053Y-34959953D01*
X40531128Y-34882143D01*
X40625377Y-34773373D01*
X40685165Y-34642457D01*
X40705647Y-34500000D01*
X40685165Y-34357543D01*
X40625377Y-34226627D01*
X40552444Y-34142457D01*
X40531131Y-34117860D01*
X40531129Y-34117859D01*
X40531128Y-34117857D01*
X40474182Y-34081260D01*
X40410054Y-34040047D01*
X40410050Y-34040046D01*
X40271964Y-33999500D01*
X40271961Y-33999500D01*
X40128039Y-33999500D01*
X40128036Y-33999500D01*
X39989949Y-34040046D01*
X39989945Y-34040047D01*
X39868875Y-34117855D01*
X39868868Y-34117860D01*
X39774623Y-34226626D01*
X39714834Y-34357545D01*
X39694353Y-34500000D01*
X33173663Y-34500000D01*
X33310053Y-34459953D01*
X33431128Y-34382143D01*
X33525377Y-34273373D01*
X33585165Y-34142457D01*
X33605647Y-34000000D01*
X33585165Y-33857543D01*
X33525377Y-33726627D01*
X33501814Y-33699434D01*
X33431131Y-33617860D01*
X33431129Y-33617859D01*
X33431128Y-33617857D01*
X33363204Y-33574205D01*
X33332550Y-33533925D01*
X33334959Y-33483363D01*
X33347283Y-33463497D01*
X33425377Y-33373373D01*
X33485165Y-33242457D01*
X33505647Y-33100000D01*
X33485165Y-32957543D01*
X33425377Y-32826627D01*
X33425233Y-32826461D01*
X33425179Y-32826319D01*
X33422516Y-32822175D01*
X33423383Y-32821617D01*
X33407168Y-32779176D01*
X33423724Y-32731341D01*
X33467154Y-32705339D01*
X33517137Y-32713337D01*
X33521160Y-32715745D01*
X33545427Y-32731341D01*
X33562719Y-32742454D01*
X33589947Y-32759952D01*
X33655419Y-32779176D01*
X33728035Y-32800498D01*
X33728037Y-32800499D01*
X33728039Y-32800499D01*
X33871963Y-32800499D01*
X33871964Y-32800498D01*
X34010053Y-32759952D01*
X34131128Y-32682142D01*
X34225377Y-32573372D01*
X34285165Y-32442456D01*
X34305647Y-32299999D01*
X35244353Y-32299999D01*
X35264834Y-32442453D01*
X35264834Y-32442454D01*
X35264835Y-32442456D01*
X35294736Y-32507929D01*
X35324623Y-32573372D01*
X35418868Y-32682138D01*
X35418869Y-32682139D01*
X35418872Y-32682142D01*
X35509677Y-32740499D01*
X35512719Y-32742454D01*
X35539947Y-32759952D01*
X35605419Y-32779176D01*
X35678035Y-32800498D01*
X35678037Y-32800499D01*
X35678039Y-32800499D01*
X35821963Y-32800499D01*
X35821964Y-32800498D01*
X35960053Y-32759952D01*
X36081128Y-32682142D01*
X36175377Y-32573372D01*
X36235165Y-32442456D01*
X36255647Y-32299999D01*
X36235165Y-32157542D01*
X36181486Y-32040003D01*
X40344355Y-32040003D01*
X40364859Y-32208871D01*
X40425181Y-32367929D01*
X40521816Y-32507928D01*
X40625179Y-32599500D01*
X40649148Y-32620734D01*
X40799775Y-32699790D01*
X40964944Y-32740500D01*
X40964948Y-32740500D01*
X41135052Y-32740500D01*
X41135056Y-32740500D01*
X41299373Y-32700000D01*
X42684353Y-32700000D01*
X42704834Y-32842454D01*
X42764623Y-32973373D01*
X42858868Y-33082139D01*
X42858869Y-33082140D01*
X42858872Y-33082143D01*
X42979947Y-33159953D01*
X43086403Y-33191211D01*
X43118035Y-33200499D01*
X43118037Y-33200500D01*
X43118039Y-33200500D01*
X43261963Y-33200500D01*
X43261964Y-33200499D01*
X43400053Y-33159953D01*
X43521128Y-33082143D01*
X43615377Y-32973373D01*
X43675165Y-32842457D01*
X43695647Y-32700000D01*
X43681269Y-32600000D01*
X53894353Y-32600000D01*
X53914834Y-32742454D01*
X53914834Y-32742455D01*
X53914835Y-32742457D01*
X53953134Y-32826319D01*
X53974623Y-32873373D01*
X54068868Y-32982139D01*
X54068869Y-32982140D01*
X54068872Y-32982143D01*
X54189947Y-33059953D01*
X54296403Y-33091211D01*
X54328035Y-33100499D01*
X54328037Y-33100500D01*
X54328039Y-33100500D01*
X54471963Y-33100500D01*
X54471964Y-33100499D01*
X54610053Y-33059953D01*
X54659994Y-33027857D01*
X54709367Y-33016706D01*
X54740005Y-33027856D01*
X54789947Y-33059953D01*
X54896403Y-33091211D01*
X54928035Y-33100499D01*
X54928037Y-33100500D01*
X54928039Y-33100500D01*
X55071963Y-33100500D01*
X55071964Y-33100499D01*
X55210053Y-33059953D01*
X55259994Y-33027857D01*
X55309367Y-33016706D01*
X55340005Y-33027856D01*
X55389947Y-33059953D01*
X55496403Y-33091211D01*
X55528035Y-33100499D01*
X55528037Y-33100500D01*
X55528039Y-33100500D01*
X55671963Y-33100500D01*
X55671964Y-33100499D01*
X55810053Y-33059953D01*
X55931128Y-32982143D01*
X56025377Y-32873373D01*
X56085165Y-32742457D01*
X56105647Y-32600000D01*
X56085165Y-32457543D01*
X56027254Y-32330738D01*
X56023244Y-32280281D01*
X56027251Y-32269267D01*
X56085165Y-32142457D01*
X56099895Y-32040003D01*
X58344355Y-32040003D01*
X58364859Y-32208871D01*
X58425181Y-32367929D01*
X58521816Y-32507928D01*
X58625179Y-32599500D01*
X58649148Y-32620734D01*
X58799775Y-32699790D01*
X58964944Y-32740500D01*
X58964948Y-32740500D01*
X59135052Y-32740500D01*
X59135056Y-32740500D01*
X59299373Y-32700000D01*
X60684353Y-32700000D01*
X60704834Y-32842454D01*
X60764623Y-32973373D01*
X60858868Y-33082139D01*
X60858869Y-33082140D01*
X60858872Y-33082143D01*
X60979947Y-33159953D01*
X61086403Y-33191211D01*
X61118035Y-33200499D01*
X61118037Y-33200500D01*
X61118039Y-33200500D01*
X61261963Y-33200500D01*
X61261964Y-33200499D01*
X61400053Y-33159953D01*
X61521128Y-33082143D01*
X61615377Y-32973373D01*
X61675165Y-32842457D01*
X61695647Y-32700000D01*
X61675165Y-32557543D01*
X61615377Y-32426627D01*
X61532292Y-32330741D01*
X61521131Y-32317860D01*
X61521129Y-32317859D01*
X61521128Y-32317857D01*
X61462658Y-32280281D01*
X61400054Y-32240047D01*
X61400050Y-32240046D01*
X61261964Y-32199500D01*
X61261961Y-32199500D01*
X61118039Y-32199500D01*
X61118036Y-32199500D01*
X60979949Y-32240046D01*
X60979945Y-32240047D01*
X60858875Y-32317855D01*
X60858868Y-32317860D01*
X60764623Y-32426626D01*
X60704834Y-32557545D01*
X60684353Y-32700000D01*
X59299373Y-32700000D01*
X59300225Y-32699790D01*
X59450852Y-32620734D01*
X59578183Y-32507929D01*
X59674818Y-32367930D01*
X59735140Y-32208872D01*
X59755645Y-32040000D01*
X59754021Y-32026626D01*
X59735140Y-31871128D01*
X59674818Y-31712070D01*
X59626765Y-31642454D01*
X59579470Y-31573936D01*
X59566698Y-31524957D01*
X59578540Y-31500000D01*
X60684353Y-31500000D01*
X60704834Y-31642454D01*
X60704834Y-31642455D01*
X60704835Y-31642457D01*
X60764623Y-31773373D01*
X60858868Y-31882139D01*
X60858869Y-31882140D01*
X60858872Y-31882143D01*
X60979947Y-31959953D01*
X61086403Y-31991211D01*
X61118035Y-32000499D01*
X61118037Y-32000500D01*
X61118039Y-32000500D01*
X61261963Y-32000500D01*
X61261964Y-32000499D01*
X61400053Y-31959953D01*
X61521128Y-31882143D01*
X61615377Y-31773373D01*
X61675165Y-31642457D01*
X61695647Y-31500000D01*
X61675165Y-31357543D01*
X61615377Y-31226627D01*
X61550837Y-31152143D01*
X61521131Y-31117860D01*
X61521129Y-31117859D01*
X61521128Y-31117857D01*
X61464182Y-31081260D01*
X61400054Y-31040047D01*
X61400050Y-31040046D01*
X61261964Y-30999500D01*
X61261961Y-30999500D01*
X61118039Y-30999500D01*
X61118036Y-30999500D01*
X60979949Y-31040046D01*
X60979945Y-31040047D01*
X60858875Y-31117855D01*
X60858868Y-31117860D01*
X60764623Y-31226626D01*
X60704834Y-31357545D01*
X60684353Y-31500000D01*
X59578540Y-31500000D01*
X59588398Y-31479225D01*
X59621506Y-31461671D01*
X59621500Y-31461655D01*
X59621675Y-31461582D01*
X59625936Y-31459323D01*
X59628231Y-31458867D01*
X59694552Y-31414552D01*
X59738867Y-31348231D01*
X59750500Y-31289748D01*
X59750500Y-30770000D01*
X62642353Y-30770000D01*
X62662834Y-30912454D01*
X62662834Y-30912455D01*
X62662835Y-30912457D01*
X62720565Y-31038866D01*
X62722623Y-31043373D01*
X62816868Y-31152139D01*
X62816869Y-31152140D01*
X62816872Y-31152143D01*
X62909474Y-31211654D01*
X62932771Y-31226627D01*
X62937947Y-31229953D01*
X63031911Y-31257543D01*
X63076035Y-31270499D01*
X63076037Y-31270500D01*
X63076039Y-31270500D01*
X63219963Y-31270500D01*
X63219964Y-31270499D01*
X63358053Y-31229953D01*
X63479128Y-31152143D01*
X63573377Y-31043373D01*
X63633165Y-30912457D01*
X63653647Y-30770000D01*
X63633165Y-30627543D01*
X63573377Y-30496627D01*
X63479128Y-30387857D01*
X63422182Y-30351260D01*
X63358054Y-30310047D01*
X63358050Y-30310046D01*
X63219964Y-30269500D01*
X63219961Y-30269500D01*
X63076039Y-30269500D01*
X63076036Y-30269500D01*
X62937949Y-30310046D01*
X62937945Y-30310047D01*
X62816875Y-30387855D01*
X62816868Y-30387860D01*
X62722623Y-30496626D01*
X62662834Y-30627545D01*
X62642353Y-30770000D01*
X59750500Y-30770000D01*
X59750500Y-30250252D01*
X59738867Y-30191769D01*
X59694552Y-30125448D01*
X59656467Y-30100000D01*
X59628232Y-30081133D01*
X59628233Y-30081133D01*
X59598989Y-30075316D01*
X59569748Y-30069500D01*
X58530252Y-30069500D01*
X58501010Y-30075316D01*
X58471767Y-30081133D01*
X58405449Y-30125447D01*
X58405447Y-30125449D01*
X58361133Y-30191767D01*
X58349500Y-30250253D01*
X58349500Y-31289746D01*
X58361133Y-31348232D01*
X58390608Y-31392343D01*
X58405448Y-31414552D01*
X58438494Y-31436633D01*
X58471765Y-31458865D01*
X58471766Y-31458865D01*
X58471769Y-31458867D01*
X58474063Y-31459323D01*
X58476628Y-31460879D01*
X58478500Y-31461655D01*
X58478380Y-31461943D01*
X58517337Y-31485581D01*
X58533609Y-31533513D01*
X58520528Y-31573938D01*
X58425181Y-31712070D01*
X58364859Y-31871128D01*
X58344355Y-32039996D01*
X58344355Y-32040003D01*
X56099895Y-32040003D01*
X56105647Y-32000000D01*
X56085165Y-31857543D01*
X56027254Y-31730738D01*
X56023244Y-31680281D01*
X56027251Y-31669267D01*
X56085165Y-31542457D01*
X56105647Y-31400000D01*
X56085165Y-31257543D01*
X56025377Y-31126627D01*
X55949333Y-31038867D01*
X55931131Y-31017860D01*
X55931129Y-31017859D01*
X55931128Y-31017857D01*
X55874182Y-30981260D01*
X55810054Y-30940047D01*
X55810050Y-30940046D01*
X55671964Y-30899500D01*
X55671961Y-30899500D01*
X55528039Y-30899500D01*
X55528036Y-30899500D01*
X55389949Y-30940046D01*
X55389945Y-30940048D01*
X55340007Y-30972141D01*
X55290632Y-30983293D01*
X55259993Y-30972141D01*
X55239332Y-30958863D01*
X55210053Y-30940047D01*
X55210050Y-30940046D01*
X55071964Y-30899500D01*
X55071961Y-30899500D01*
X54928039Y-30899500D01*
X54928036Y-30899500D01*
X54789949Y-30940046D01*
X54789945Y-30940048D01*
X54740007Y-30972141D01*
X54690632Y-30983293D01*
X54659993Y-30972141D01*
X54639332Y-30958863D01*
X54610053Y-30940047D01*
X54610050Y-30940046D01*
X54471964Y-30899500D01*
X54471961Y-30899500D01*
X54328039Y-30899500D01*
X54328036Y-30899500D01*
X54189949Y-30940046D01*
X54189945Y-30940047D01*
X54068875Y-31017855D01*
X54068868Y-31017860D01*
X53974623Y-31126626D01*
X53914834Y-31257545D01*
X53894353Y-31400000D01*
X53914834Y-31542454D01*
X53914834Y-31542455D01*
X53914835Y-31542457D01*
X53929212Y-31573938D01*
X53972744Y-31669259D01*
X53976755Y-31719719D01*
X53972744Y-31730741D01*
X53914834Y-31857545D01*
X53894353Y-32000000D01*
X53914834Y-32142454D01*
X53972744Y-32269259D01*
X53976755Y-32319719D01*
X53972744Y-32330741D01*
X53914834Y-32457545D01*
X53894353Y-32600000D01*
X43681269Y-32600000D01*
X43675165Y-32557543D01*
X43615377Y-32426627D01*
X43532292Y-32330741D01*
X43521131Y-32317860D01*
X43521129Y-32317859D01*
X43521128Y-32317857D01*
X43462658Y-32280281D01*
X43400054Y-32240047D01*
X43400050Y-32240046D01*
X43261964Y-32199500D01*
X43261961Y-32199500D01*
X43118039Y-32199500D01*
X43118036Y-32199500D01*
X42979949Y-32240046D01*
X42979945Y-32240047D01*
X42858875Y-32317855D01*
X42858868Y-32317860D01*
X42764623Y-32426626D01*
X42704834Y-32557545D01*
X42684353Y-32700000D01*
X41299373Y-32700000D01*
X41300225Y-32699790D01*
X41450852Y-32620734D01*
X41578183Y-32507929D01*
X41674818Y-32367930D01*
X41735140Y-32208872D01*
X41755645Y-32040000D01*
X41754021Y-32026626D01*
X41735140Y-31871128D01*
X41674818Y-31712070D01*
X41626765Y-31642454D01*
X41579470Y-31573936D01*
X41566698Y-31524957D01*
X41578540Y-31500000D01*
X42684353Y-31500000D01*
X42704834Y-31642454D01*
X42704834Y-31642455D01*
X42704835Y-31642457D01*
X42764623Y-31773373D01*
X42858868Y-31882139D01*
X42858869Y-31882140D01*
X42858872Y-31882143D01*
X42979947Y-31959953D01*
X43086403Y-31991211D01*
X43118035Y-32000499D01*
X43118037Y-32000500D01*
X43118039Y-32000500D01*
X43261963Y-32000500D01*
X43261964Y-32000499D01*
X43400053Y-31959953D01*
X43521128Y-31882143D01*
X43615377Y-31773373D01*
X43675165Y-31642457D01*
X43695647Y-31500000D01*
X43675165Y-31357543D01*
X43615377Y-31226627D01*
X43550837Y-31152143D01*
X43521131Y-31117860D01*
X43521129Y-31117859D01*
X43521128Y-31117857D01*
X43464182Y-31081260D01*
X43400054Y-31040047D01*
X43400050Y-31040046D01*
X43261964Y-30999500D01*
X43261961Y-30999500D01*
X43118039Y-30999500D01*
X43118036Y-30999500D01*
X42979949Y-31040046D01*
X42979945Y-31040047D01*
X42858875Y-31117855D01*
X42858868Y-31117860D01*
X42764623Y-31226626D01*
X42704834Y-31357545D01*
X42684353Y-31500000D01*
X41578540Y-31500000D01*
X41588398Y-31479225D01*
X41621506Y-31461671D01*
X41621500Y-31461655D01*
X41621675Y-31461582D01*
X41625936Y-31459323D01*
X41628231Y-31458867D01*
X41694552Y-31414552D01*
X41738867Y-31348231D01*
X41750500Y-31289748D01*
X41750500Y-30770000D01*
X44642353Y-30770000D01*
X44662834Y-30912454D01*
X44662834Y-30912455D01*
X44662835Y-30912457D01*
X44720565Y-31038866D01*
X44722623Y-31043373D01*
X44816868Y-31152139D01*
X44816869Y-31152140D01*
X44816872Y-31152143D01*
X44909474Y-31211654D01*
X44932771Y-31226627D01*
X44937947Y-31229953D01*
X45031911Y-31257543D01*
X45076035Y-31270499D01*
X45076037Y-31270500D01*
X45076039Y-31270500D01*
X45219963Y-31270500D01*
X45219964Y-31270499D01*
X45358053Y-31229953D01*
X45479128Y-31152143D01*
X45573377Y-31043373D01*
X45633165Y-30912457D01*
X45653647Y-30770000D01*
X45633165Y-30627543D01*
X45573377Y-30496627D01*
X45479128Y-30387857D01*
X45422182Y-30351260D01*
X45358054Y-30310047D01*
X45358050Y-30310046D01*
X45219964Y-30269500D01*
X45219961Y-30269500D01*
X45076039Y-30269500D01*
X45076036Y-30269500D01*
X44937949Y-30310046D01*
X44937945Y-30310047D01*
X44816875Y-30387855D01*
X44816868Y-30387860D01*
X44722623Y-30496626D01*
X44662834Y-30627545D01*
X44642353Y-30770000D01*
X41750500Y-30770000D01*
X41750500Y-30250252D01*
X41738867Y-30191769D01*
X41694552Y-30125448D01*
X41656467Y-30100000D01*
X41628232Y-30081133D01*
X41628233Y-30081133D01*
X41598989Y-30075316D01*
X41569748Y-30069500D01*
X40530252Y-30069500D01*
X40501010Y-30075316D01*
X40471767Y-30081133D01*
X40405449Y-30125447D01*
X40405447Y-30125449D01*
X40361133Y-30191767D01*
X40349500Y-30250253D01*
X40349500Y-31289746D01*
X40361133Y-31348232D01*
X40390608Y-31392343D01*
X40405448Y-31414552D01*
X40438494Y-31436633D01*
X40471765Y-31458865D01*
X40471766Y-31458865D01*
X40471769Y-31458867D01*
X40474063Y-31459323D01*
X40476628Y-31460879D01*
X40478500Y-31461655D01*
X40478380Y-31461943D01*
X40517337Y-31485581D01*
X40533609Y-31533513D01*
X40520528Y-31573938D01*
X40425181Y-31712070D01*
X40364859Y-31871128D01*
X40344355Y-32039996D01*
X40344355Y-32040003D01*
X36181486Y-32040003D01*
X36175377Y-32026626D01*
X36081128Y-31917856D01*
X36008418Y-31871128D01*
X35960054Y-31840046D01*
X35960050Y-31840045D01*
X35821964Y-31799499D01*
X35821961Y-31799499D01*
X35678039Y-31799499D01*
X35678036Y-31799499D01*
X35539949Y-31840045D01*
X35539945Y-31840046D01*
X35418875Y-31917854D01*
X35418868Y-31917859D01*
X35324623Y-32026625D01*
X35264834Y-32157544D01*
X35244353Y-32299999D01*
X34305647Y-32299999D01*
X34285165Y-32157542D01*
X34225377Y-32026626D01*
X34131128Y-31917856D01*
X34058418Y-31871128D01*
X34010054Y-31840046D01*
X34010050Y-31840045D01*
X33871964Y-31799499D01*
X33871961Y-31799499D01*
X33728039Y-31799499D01*
X33728036Y-31799499D01*
X33589949Y-31840045D01*
X33589945Y-31840046D01*
X33468875Y-31917854D01*
X33468868Y-31917859D01*
X33374623Y-32026625D01*
X33314834Y-32157544D01*
X33294353Y-32299999D01*
X33314834Y-32442453D01*
X33314834Y-32442454D01*
X33314835Y-32442456D01*
X33374623Y-32573372D01*
X33374624Y-32573373D01*
X33374766Y-32573537D01*
X33374820Y-32573679D01*
X33377484Y-32577824D01*
X33376616Y-32578381D01*
X33392831Y-32620823D01*
X33376274Y-32668658D01*
X33332843Y-32694659D01*
X33282860Y-32686660D01*
X33278833Y-32684249D01*
X33210054Y-32640047D01*
X33210050Y-32640046D01*
X33071964Y-32599500D01*
X33071961Y-32599500D01*
X32928039Y-32599500D01*
X32928036Y-32599500D01*
X32789949Y-32640046D01*
X32789945Y-32640047D01*
X32668875Y-32717855D01*
X32668868Y-32717860D01*
X32574623Y-32826626D01*
X32514834Y-32957545D01*
X32494353Y-33100000D01*
X7000000Y-33100000D01*
X7000000Y-30869746D01*
X10949500Y-30869746D01*
X10961133Y-30928232D01*
X10969028Y-30940047D01*
X11005448Y-30994552D01*
X11049560Y-31024027D01*
X11071767Y-31038866D01*
X11071768Y-31038866D01*
X11071769Y-31038867D01*
X11130252Y-31050500D01*
X11130254Y-31050500D01*
X12869746Y-31050500D01*
X12869748Y-31050500D01*
X12928231Y-31038867D01*
X12994552Y-30994552D01*
X13038867Y-30928231D01*
X13050500Y-30869748D01*
X13050500Y-30100000D01*
X34719353Y-30100000D01*
X34739834Y-30242454D01*
X34739834Y-30242455D01*
X34739835Y-30242457D01*
X34770702Y-30310046D01*
X34799623Y-30373373D01*
X34893868Y-30482139D01*
X34893869Y-30482140D01*
X34893872Y-30482143D01*
X35014947Y-30559953D01*
X35121403Y-30591211D01*
X35153035Y-30600499D01*
X35153037Y-30600500D01*
X35153039Y-30600500D01*
X35296963Y-30600500D01*
X35296964Y-30600499D01*
X35435053Y-30559953D01*
X35556128Y-30482143D01*
X35650377Y-30373373D01*
X35710165Y-30242457D01*
X35730647Y-30100000D01*
X35710165Y-29957543D01*
X35650377Y-29826627D01*
X35556128Y-29717857D01*
X35499182Y-29681260D01*
X35435054Y-29640047D01*
X35435050Y-29640046D01*
X35296964Y-29599500D01*
X35296961Y-29599500D01*
X35153039Y-29599500D01*
X35153036Y-29599500D01*
X35014949Y-29640046D01*
X35014945Y-29640047D01*
X34893875Y-29717855D01*
X34893868Y-29717860D01*
X34799623Y-29826626D01*
X34739834Y-29957545D01*
X34719353Y-30100000D01*
X13050500Y-30100000D01*
X13050500Y-29130252D01*
X13038867Y-29071769D01*
X12994552Y-29005448D01*
X12972343Y-28990608D01*
X12928232Y-28961133D01*
X12928233Y-28961133D01*
X12898989Y-28955316D01*
X12869748Y-28949500D01*
X11130252Y-28949500D01*
X11101010Y-28955316D01*
X11071767Y-28961133D01*
X11005449Y-29005447D01*
X11005447Y-29005449D01*
X10961133Y-29071767D01*
X10949500Y-29130253D01*
X10949500Y-30869746D01*
X7000000Y-30869746D01*
X7000000Y-28325000D01*
X33294353Y-28325000D01*
X33314834Y-28467454D01*
X33314834Y-28467455D01*
X33314835Y-28467457D01*
X33329469Y-28499500D01*
X33374623Y-28598373D01*
X33468868Y-28707139D01*
X33468869Y-28707140D01*
X33468872Y-28707143D01*
X33561474Y-28766654D01*
X33577229Y-28776780D01*
X33589947Y-28784953D01*
X33696403Y-28816211D01*
X33728035Y-28825499D01*
X33728037Y-28825500D01*
X33728039Y-28825500D01*
X33871963Y-28825500D01*
X33871964Y-28825499D01*
X34010053Y-28784953D01*
X34025540Y-28775000D01*
X38694353Y-28775000D01*
X38714834Y-28917454D01*
X38714834Y-28917455D01*
X38714835Y-28917457D01*
X38752532Y-29000000D01*
X38774623Y-29048373D01*
X38868868Y-29157139D01*
X38868869Y-29157140D01*
X38868872Y-29157143D01*
X38989947Y-29234953D01*
X39096403Y-29266211D01*
X39128035Y-29275499D01*
X39128037Y-29275500D01*
X39128039Y-29275500D01*
X39271963Y-29275500D01*
X39271964Y-29275499D01*
X39410053Y-29234953D01*
X39531128Y-29157143D01*
X39625377Y-29048373D01*
X39647468Y-29000000D01*
X72294353Y-29000000D01*
X72314834Y-29142454D01*
X72314834Y-29142455D01*
X72314835Y-29142457D01*
X72357077Y-29234952D01*
X72374623Y-29273373D01*
X72468868Y-29382139D01*
X72468869Y-29382140D01*
X72468872Y-29382143D01*
X72589947Y-29459953D01*
X72696403Y-29491211D01*
X72728035Y-29500499D01*
X72728037Y-29500500D01*
X72728039Y-29500500D01*
X72871963Y-29500500D01*
X72871964Y-29500499D01*
X73010053Y-29459953D01*
X73131128Y-29382143D01*
X73225377Y-29273373D01*
X73285165Y-29142457D01*
X73305647Y-29000000D01*
X73285165Y-28857543D01*
X73225377Y-28726627D01*
X73143855Y-28632545D01*
X73131131Y-28617860D01*
X73131129Y-28617859D01*
X73131128Y-28617857D01*
X73065958Y-28575975D01*
X73010054Y-28540047D01*
X73010050Y-28540046D01*
X72871964Y-28499500D01*
X72871961Y-28499500D01*
X72728039Y-28499500D01*
X72728036Y-28499500D01*
X72589949Y-28540046D01*
X72589945Y-28540047D01*
X72468875Y-28617855D01*
X72468868Y-28617860D01*
X72374623Y-28726626D01*
X72314834Y-28857545D01*
X72294353Y-29000000D01*
X39647468Y-29000000D01*
X39685165Y-28917457D01*
X39705647Y-28775000D01*
X39685165Y-28632543D01*
X39625377Y-28501627D01*
X39531128Y-28392857D01*
X39474182Y-28356260D01*
X39410054Y-28315047D01*
X39410050Y-28315046D01*
X39271964Y-28274500D01*
X39271961Y-28274500D01*
X39128039Y-28274500D01*
X39128036Y-28274500D01*
X38989949Y-28315046D01*
X38989945Y-28315047D01*
X38868875Y-28392855D01*
X38868868Y-28392860D01*
X38774623Y-28501626D01*
X38714834Y-28632545D01*
X38694353Y-28775000D01*
X34025540Y-28775000D01*
X34131128Y-28707143D01*
X34225377Y-28598373D01*
X34285165Y-28467457D01*
X34305647Y-28325000D01*
X34285165Y-28182543D01*
X34247468Y-28100000D01*
X42244353Y-28100000D01*
X42264834Y-28242454D01*
X42264834Y-28242455D01*
X42264835Y-28242457D01*
X42285552Y-28287820D01*
X42324623Y-28373373D01*
X42418868Y-28482139D01*
X42418869Y-28482140D01*
X42418872Y-28482143D01*
X42539947Y-28559953D01*
X42646403Y-28591211D01*
X42678035Y-28600499D01*
X42678037Y-28600500D01*
X42678039Y-28600500D01*
X42821963Y-28600500D01*
X42821964Y-28600499D01*
X42960053Y-28559953D01*
X43081128Y-28482143D01*
X43175377Y-28373373D01*
X43235165Y-28242457D01*
X43255647Y-28100000D01*
X44344353Y-28100000D01*
X44364834Y-28242454D01*
X44364834Y-28242455D01*
X44364835Y-28242457D01*
X44385552Y-28287820D01*
X44424623Y-28373373D01*
X44518868Y-28482139D01*
X44518869Y-28482140D01*
X44518872Y-28482143D01*
X44639947Y-28559953D01*
X44746403Y-28591211D01*
X44778035Y-28600499D01*
X44778037Y-28600500D01*
X44778039Y-28600500D01*
X44921963Y-28600500D01*
X44921964Y-28600499D01*
X45060053Y-28559953D01*
X45181128Y-28482143D01*
X45275377Y-28373373D01*
X45335165Y-28242457D01*
X45355647Y-28100000D01*
X46444353Y-28100000D01*
X46464834Y-28242454D01*
X46464834Y-28242455D01*
X46464835Y-28242457D01*
X46485552Y-28287820D01*
X46524623Y-28373373D01*
X46618868Y-28482139D01*
X46618869Y-28482140D01*
X46618872Y-28482143D01*
X46739947Y-28559953D01*
X46846403Y-28591211D01*
X46878035Y-28600499D01*
X46878037Y-28600500D01*
X46878039Y-28600500D01*
X47021963Y-28600500D01*
X47021964Y-28600499D01*
X47160053Y-28559953D01*
X47281128Y-28482143D01*
X47375377Y-28373373D01*
X47435165Y-28242457D01*
X47455647Y-28100000D01*
X48544353Y-28100000D01*
X48564834Y-28242454D01*
X48564834Y-28242455D01*
X48564835Y-28242457D01*
X48585552Y-28287820D01*
X48624623Y-28373373D01*
X48718868Y-28482139D01*
X48718869Y-28482140D01*
X48718872Y-28482143D01*
X48839947Y-28559953D01*
X48946403Y-28591211D01*
X48978035Y-28600499D01*
X48978037Y-28600500D01*
X48978039Y-28600500D01*
X49121963Y-28600500D01*
X49121964Y-28600499D01*
X49260053Y-28559953D01*
X49381128Y-28482143D01*
X49475377Y-28373373D01*
X49535165Y-28242457D01*
X49555647Y-28100000D01*
X50644353Y-28100000D01*
X50664834Y-28242454D01*
X50664834Y-28242455D01*
X50664835Y-28242457D01*
X50685552Y-28287820D01*
X50724623Y-28373373D01*
X50818868Y-28482139D01*
X50818869Y-28482140D01*
X50818872Y-28482143D01*
X50939947Y-28559953D01*
X51046403Y-28591211D01*
X51078035Y-28600499D01*
X51078037Y-28600500D01*
X51078039Y-28600500D01*
X51221963Y-28600500D01*
X51221964Y-28600499D01*
X51360053Y-28559953D01*
X51481128Y-28482143D01*
X51575377Y-28373373D01*
X51635165Y-28242457D01*
X51655647Y-28100000D01*
X52744353Y-28100000D01*
X52764834Y-28242454D01*
X52764834Y-28242455D01*
X52764835Y-28242457D01*
X52785552Y-28287820D01*
X52824623Y-28373373D01*
X52918868Y-28482139D01*
X52918869Y-28482140D01*
X52918872Y-28482143D01*
X53039947Y-28559953D01*
X53146403Y-28591211D01*
X53178035Y-28600499D01*
X53178037Y-28600500D01*
X53178039Y-28600500D01*
X53321963Y-28600500D01*
X53321964Y-28600499D01*
X53460053Y-28559953D01*
X53581128Y-28482143D01*
X53675377Y-28373373D01*
X53735165Y-28242457D01*
X53755647Y-28100000D01*
X60244353Y-28100000D01*
X60264834Y-28242454D01*
X60264834Y-28242455D01*
X60264835Y-28242457D01*
X60285552Y-28287820D01*
X60324623Y-28373373D01*
X60418868Y-28482139D01*
X60418869Y-28482140D01*
X60418872Y-28482143D01*
X60539947Y-28559953D01*
X60646403Y-28591211D01*
X60678035Y-28600499D01*
X60678037Y-28600500D01*
X60678039Y-28600500D01*
X60821963Y-28600500D01*
X60821964Y-28600499D01*
X60960053Y-28559953D01*
X61081128Y-28482143D01*
X61175377Y-28373373D01*
X61235165Y-28242457D01*
X61255647Y-28100000D01*
X62344353Y-28100000D01*
X62364834Y-28242454D01*
X62364834Y-28242455D01*
X62364835Y-28242457D01*
X62385552Y-28287820D01*
X62424623Y-28373373D01*
X62518868Y-28482139D01*
X62518869Y-28482140D01*
X62518872Y-28482143D01*
X62639947Y-28559953D01*
X62746403Y-28591211D01*
X62778035Y-28600499D01*
X62778037Y-28600500D01*
X62778039Y-28600500D01*
X62921963Y-28600500D01*
X62921964Y-28600499D01*
X63060053Y-28559953D01*
X63181128Y-28482143D01*
X63275377Y-28373373D01*
X63335165Y-28242457D01*
X63355647Y-28100000D01*
X64444353Y-28100000D01*
X64464834Y-28242454D01*
X64464834Y-28242455D01*
X64464835Y-28242457D01*
X64485552Y-28287820D01*
X64524623Y-28373373D01*
X64618868Y-28482139D01*
X64618869Y-28482140D01*
X64618872Y-28482143D01*
X64739947Y-28559953D01*
X64846403Y-28591211D01*
X64878035Y-28600499D01*
X64878037Y-28600500D01*
X64878039Y-28600500D01*
X65021963Y-28600500D01*
X65021964Y-28600499D01*
X65160053Y-28559953D01*
X65281128Y-28482143D01*
X65375377Y-28373373D01*
X65435165Y-28242457D01*
X65455647Y-28100000D01*
X66544353Y-28100000D01*
X66564834Y-28242454D01*
X66564834Y-28242455D01*
X66564835Y-28242457D01*
X66585552Y-28287820D01*
X66624623Y-28373373D01*
X66718868Y-28482139D01*
X66718869Y-28482140D01*
X66718872Y-28482143D01*
X66839947Y-28559953D01*
X66946403Y-28591211D01*
X66978035Y-28600499D01*
X66978037Y-28600500D01*
X66978039Y-28600500D01*
X67121963Y-28600500D01*
X67121964Y-28600499D01*
X67260053Y-28559953D01*
X67381128Y-28482143D01*
X67475377Y-28373373D01*
X67535165Y-28242457D01*
X67555647Y-28100000D01*
X68644353Y-28100000D01*
X68664834Y-28242454D01*
X68664834Y-28242455D01*
X68664835Y-28242457D01*
X68685552Y-28287820D01*
X68724623Y-28373373D01*
X68818868Y-28482139D01*
X68818869Y-28482140D01*
X68818872Y-28482143D01*
X68939947Y-28559953D01*
X69046403Y-28591211D01*
X69078035Y-28600499D01*
X69078037Y-28600500D01*
X69078039Y-28600500D01*
X69221963Y-28600500D01*
X69221964Y-28600499D01*
X69360053Y-28559953D01*
X69481128Y-28482143D01*
X69575377Y-28373373D01*
X69635165Y-28242457D01*
X69655647Y-28100000D01*
X70744353Y-28100000D01*
X70764834Y-28242454D01*
X70764834Y-28242455D01*
X70764835Y-28242457D01*
X70785552Y-28287820D01*
X70824623Y-28373373D01*
X70918868Y-28482139D01*
X70918869Y-28482140D01*
X70918872Y-28482143D01*
X71039947Y-28559953D01*
X71146403Y-28591211D01*
X71178035Y-28600499D01*
X71178037Y-28600500D01*
X71178039Y-28600500D01*
X71321963Y-28600500D01*
X71321964Y-28600499D01*
X71460053Y-28559953D01*
X71581128Y-28482143D01*
X71675377Y-28373373D01*
X71735165Y-28242457D01*
X71755647Y-28100000D01*
X71735165Y-27957543D01*
X71675377Y-27826627D01*
X71651814Y-27799434D01*
X71581131Y-27717860D01*
X71581129Y-27717859D01*
X71581128Y-27717857D01*
X71524182Y-27681260D01*
X71460054Y-27640047D01*
X71460050Y-27640046D01*
X71321964Y-27599500D01*
X71321961Y-27599500D01*
X71178039Y-27599500D01*
X71178036Y-27599500D01*
X71039949Y-27640046D01*
X71039945Y-27640047D01*
X70918875Y-27717855D01*
X70918868Y-27717860D01*
X70824623Y-27826626D01*
X70764834Y-27957545D01*
X70744353Y-28100000D01*
X69655647Y-28100000D01*
X69635165Y-27957543D01*
X69575377Y-27826627D01*
X69551814Y-27799434D01*
X69481131Y-27717860D01*
X69481129Y-27717859D01*
X69481128Y-27717857D01*
X69424182Y-27681260D01*
X69360054Y-27640047D01*
X69360050Y-27640046D01*
X69221964Y-27599500D01*
X69221961Y-27599500D01*
X69078039Y-27599500D01*
X69078036Y-27599500D01*
X68939949Y-27640046D01*
X68939945Y-27640047D01*
X68818875Y-27717855D01*
X68818868Y-27717860D01*
X68724623Y-27826626D01*
X68664834Y-27957545D01*
X68644353Y-28100000D01*
X67555647Y-28100000D01*
X67535165Y-27957543D01*
X67475377Y-27826627D01*
X67451814Y-27799434D01*
X67381131Y-27717860D01*
X67381129Y-27717859D01*
X67381128Y-27717857D01*
X67324182Y-27681260D01*
X67260054Y-27640047D01*
X67260050Y-27640046D01*
X67121964Y-27599500D01*
X67121961Y-27599500D01*
X66978039Y-27599500D01*
X66978036Y-27599500D01*
X66839949Y-27640046D01*
X66839945Y-27640047D01*
X66718875Y-27717855D01*
X66718868Y-27717860D01*
X66624623Y-27826626D01*
X66564834Y-27957545D01*
X66544353Y-28100000D01*
X65455647Y-28100000D01*
X65435165Y-27957543D01*
X65375377Y-27826627D01*
X65351814Y-27799434D01*
X65281131Y-27717860D01*
X65281129Y-27717859D01*
X65281128Y-27717857D01*
X65224182Y-27681260D01*
X65160054Y-27640047D01*
X65160050Y-27640046D01*
X65021964Y-27599500D01*
X65021961Y-27599500D01*
X64878039Y-27599500D01*
X64878036Y-27599500D01*
X64739949Y-27640046D01*
X64739945Y-27640047D01*
X64618875Y-27717855D01*
X64618868Y-27717860D01*
X64524623Y-27826626D01*
X64464834Y-27957545D01*
X64444353Y-28100000D01*
X63355647Y-28100000D01*
X63335165Y-27957543D01*
X63275377Y-27826627D01*
X63251814Y-27799434D01*
X63181131Y-27717860D01*
X63181129Y-27717859D01*
X63181128Y-27717857D01*
X63124182Y-27681260D01*
X63060054Y-27640047D01*
X63060050Y-27640046D01*
X62921964Y-27599500D01*
X62921961Y-27599500D01*
X62778039Y-27599500D01*
X62778036Y-27599500D01*
X62639949Y-27640046D01*
X62639945Y-27640047D01*
X62518875Y-27717855D01*
X62518868Y-27717860D01*
X62424623Y-27826626D01*
X62364834Y-27957545D01*
X62344353Y-28100000D01*
X61255647Y-28100000D01*
X61235165Y-27957543D01*
X61175377Y-27826627D01*
X61151814Y-27799434D01*
X61081131Y-27717860D01*
X61081129Y-27717859D01*
X61081128Y-27717857D01*
X61024182Y-27681260D01*
X60960054Y-27640047D01*
X60960050Y-27640046D01*
X60821964Y-27599500D01*
X60821961Y-27599500D01*
X60678039Y-27599500D01*
X60678036Y-27599500D01*
X60539949Y-27640046D01*
X60539945Y-27640047D01*
X60418875Y-27717855D01*
X60418868Y-27717860D01*
X60324623Y-27826626D01*
X60264834Y-27957545D01*
X60244353Y-28100000D01*
X53755647Y-28100000D01*
X53735165Y-27957543D01*
X53675377Y-27826627D01*
X53651814Y-27799434D01*
X53581131Y-27717860D01*
X53581129Y-27717859D01*
X53581128Y-27717857D01*
X53524182Y-27681260D01*
X53460054Y-27640047D01*
X53460050Y-27640046D01*
X53321964Y-27599500D01*
X53321961Y-27599500D01*
X53178039Y-27599500D01*
X53178036Y-27599500D01*
X53039949Y-27640046D01*
X53039945Y-27640047D01*
X52918875Y-27717855D01*
X52918868Y-27717860D01*
X52824623Y-27826626D01*
X52764834Y-27957545D01*
X52744353Y-28100000D01*
X51655647Y-28100000D01*
X51635165Y-27957543D01*
X51575377Y-27826627D01*
X51551814Y-27799434D01*
X51481131Y-27717860D01*
X51481129Y-27717859D01*
X51481128Y-27717857D01*
X51424182Y-27681260D01*
X51360054Y-27640047D01*
X51360050Y-27640046D01*
X51221964Y-27599500D01*
X51221961Y-27599500D01*
X51078039Y-27599500D01*
X51078036Y-27599500D01*
X50939949Y-27640046D01*
X50939945Y-27640047D01*
X50818875Y-27717855D01*
X50818868Y-27717860D01*
X50724623Y-27826626D01*
X50664834Y-27957545D01*
X50644353Y-28100000D01*
X49555647Y-28100000D01*
X49535165Y-27957543D01*
X49475377Y-27826627D01*
X49451814Y-27799434D01*
X49381131Y-27717860D01*
X49381129Y-27717859D01*
X49381128Y-27717857D01*
X49324182Y-27681260D01*
X49260054Y-27640047D01*
X49260050Y-27640046D01*
X49121964Y-27599500D01*
X49121961Y-27599500D01*
X48978039Y-27599500D01*
X48978036Y-27599500D01*
X48839949Y-27640046D01*
X48839945Y-27640047D01*
X48718875Y-27717855D01*
X48718868Y-27717860D01*
X48624623Y-27826626D01*
X48564834Y-27957545D01*
X48544353Y-28100000D01*
X47455647Y-28100000D01*
X47435165Y-27957543D01*
X47375377Y-27826627D01*
X47351814Y-27799434D01*
X47281131Y-27717860D01*
X47281129Y-27717859D01*
X47281128Y-27717857D01*
X47224182Y-27681260D01*
X47160054Y-27640047D01*
X47160050Y-27640046D01*
X47021964Y-27599500D01*
X47021961Y-27599500D01*
X46878039Y-27599500D01*
X46878036Y-27599500D01*
X46739949Y-27640046D01*
X46739945Y-27640047D01*
X46618875Y-27717855D01*
X46618868Y-27717860D01*
X46524623Y-27826626D01*
X46464834Y-27957545D01*
X46444353Y-28100000D01*
X45355647Y-28100000D01*
X45335165Y-27957543D01*
X45275377Y-27826627D01*
X45251814Y-27799434D01*
X45181131Y-27717860D01*
X45181129Y-27717859D01*
X45181128Y-27717857D01*
X45124182Y-27681260D01*
X45060054Y-27640047D01*
X45060050Y-27640046D01*
X44921964Y-27599500D01*
X44921961Y-27599500D01*
X44778039Y-27599500D01*
X44778036Y-27599500D01*
X44639949Y-27640046D01*
X44639945Y-27640047D01*
X44518875Y-27717855D01*
X44518868Y-27717860D01*
X44424623Y-27826626D01*
X44364834Y-27957545D01*
X44344353Y-28100000D01*
X43255647Y-28100000D01*
X43235165Y-27957543D01*
X43175377Y-27826627D01*
X43151814Y-27799434D01*
X43081131Y-27717860D01*
X43081129Y-27717859D01*
X43081128Y-27717857D01*
X43024182Y-27681260D01*
X42960054Y-27640047D01*
X42960050Y-27640046D01*
X42821964Y-27599500D01*
X42821961Y-27599500D01*
X42678039Y-27599500D01*
X42678036Y-27599500D01*
X42539949Y-27640046D01*
X42539945Y-27640047D01*
X42418875Y-27717855D01*
X42418868Y-27717860D01*
X42324623Y-27826626D01*
X42264834Y-27957545D01*
X42244353Y-28100000D01*
X34247468Y-28100000D01*
X34225377Y-28051627D01*
X34143855Y-27957545D01*
X34131131Y-27942860D01*
X34131129Y-27942859D01*
X34131128Y-27942857D01*
X34074182Y-27906260D01*
X34010054Y-27865047D01*
X34010050Y-27865046D01*
X33871964Y-27824500D01*
X33871961Y-27824500D01*
X33728039Y-27824500D01*
X33728036Y-27824500D01*
X33589949Y-27865046D01*
X33589945Y-27865047D01*
X33468875Y-27942855D01*
X33468868Y-27942860D01*
X33374623Y-28051626D01*
X33314834Y-28182545D01*
X33294353Y-28325000D01*
X7000000Y-28325000D01*
X7000000Y-26675000D01*
X33294353Y-26675000D01*
X33314834Y-26817454D01*
X33374623Y-26948373D01*
X33468868Y-27057139D01*
X33468869Y-27057140D01*
X33468872Y-27057143D01*
X33589947Y-27134953D01*
X33696403Y-27166211D01*
X33728035Y-27175499D01*
X33728037Y-27175500D01*
X33728039Y-27175500D01*
X33871963Y-27175500D01*
X33871964Y-27175499D01*
X34010053Y-27134953D01*
X34131128Y-27057143D01*
X34225377Y-26948373D01*
X34285165Y-26817457D01*
X34305647Y-26675000D01*
X34285165Y-26532543D01*
X34225377Y-26401627D01*
X34131128Y-26292857D01*
X34074182Y-26256260D01*
X34010054Y-26215047D01*
X34010050Y-26215046D01*
X33871964Y-26174500D01*
X33871961Y-26174500D01*
X33728039Y-26174500D01*
X33728036Y-26174500D01*
X33589949Y-26215046D01*
X33589945Y-26215047D01*
X33468875Y-26292855D01*
X33468868Y-26292860D01*
X33374623Y-26401626D01*
X33314834Y-26532545D01*
X33294353Y-26675000D01*
X7000000Y-26675000D01*
X7000000Y-22700000D01*
X28719353Y-22700000D01*
X28739834Y-22842454D01*
X28739834Y-22842455D01*
X28739835Y-22842457D01*
X28757959Y-22882143D01*
X28799623Y-22973373D01*
X28893868Y-23082139D01*
X28893869Y-23082140D01*
X28893872Y-23082143D01*
X29014947Y-23159953D01*
X29121403Y-23191211D01*
X29153035Y-23200499D01*
X29153037Y-23200500D01*
X29153039Y-23200500D01*
X29296963Y-23200500D01*
X29296964Y-23200499D01*
X29435053Y-23159953D01*
X29556128Y-23082143D01*
X29650377Y-22973373D01*
X29710165Y-22842457D01*
X29730647Y-22700000D01*
X29710165Y-22557543D01*
X29683886Y-22500000D01*
X36094353Y-22500000D01*
X36114834Y-22642454D01*
X36114834Y-22642455D01*
X36114835Y-22642457D01*
X36174623Y-22773373D01*
X36268868Y-22882139D01*
X36268869Y-22882140D01*
X36268872Y-22882143D01*
X36389947Y-22959953D01*
X36496403Y-22991211D01*
X36528035Y-23000499D01*
X36528037Y-23000500D01*
X36528039Y-23000500D01*
X36671963Y-23000500D01*
X36671964Y-23000499D01*
X36810053Y-22959953D01*
X36931128Y-22882143D01*
X37025377Y-22773373D01*
X37085165Y-22642457D01*
X37105647Y-22500000D01*
X37085165Y-22357543D01*
X37025377Y-22226627D01*
X36952444Y-22142457D01*
X36931131Y-22117860D01*
X36931129Y-22117859D01*
X36931128Y-22117857D01*
X36874182Y-22081260D01*
X36810054Y-22040047D01*
X36810050Y-22040046D01*
X36673667Y-22000000D01*
X38294353Y-22000000D01*
X38314834Y-22142454D01*
X38374623Y-22273373D01*
X38468868Y-22382139D01*
X38468869Y-22382140D01*
X38468872Y-22382143D01*
X38589947Y-22459953D01*
X38696403Y-22491211D01*
X38728035Y-22500499D01*
X38728037Y-22500500D01*
X38728039Y-22500500D01*
X38871963Y-22500500D01*
X38871964Y-22500499D01*
X38873663Y-22500000D01*
X39494353Y-22500000D01*
X39514834Y-22642454D01*
X39514834Y-22642455D01*
X39514835Y-22642457D01*
X39574623Y-22773373D01*
X39668868Y-22882139D01*
X39668869Y-22882140D01*
X39668872Y-22882143D01*
X39789947Y-22959953D01*
X39896403Y-22991211D01*
X39928035Y-23000499D01*
X39928037Y-23000500D01*
X39928039Y-23000500D01*
X40071963Y-23000500D01*
X40071964Y-23000499D01*
X40210053Y-22959953D01*
X40331128Y-22882143D01*
X40425377Y-22773373D01*
X40485165Y-22642457D01*
X40505647Y-22500000D01*
X40485165Y-22357543D01*
X40425377Y-22226627D01*
X40352444Y-22142457D01*
X40331131Y-22117860D01*
X40331129Y-22117859D01*
X40331128Y-22117857D01*
X40274182Y-22081260D01*
X40210054Y-22040047D01*
X40210050Y-22040046D01*
X40071964Y-21999500D01*
X40071961Y-21999500D01*
X39928039Y-21999500D01*
X39928036Y-21999500D01*
X39789949Y-22040046D01*
X39789945Y-22040047D01*
X39668875Y-22117855D01*
X39668868Y-22117860D01*
X39574623Y-22226626D01*
X39514834Y-22357545D01*
X39494353Y-22500000D01*
X38873663Y-22500000D01*
X39010053Y-22459953D01*
X39131128Y-22382143D01*
X39225377Y-22273373D01*
X39285165Y-22142457D01*
X39305647Y-22000000D01*
X39285165Y-21857543D01*
X39225377Y-21726627D01*
X39131128Y-21617857D01*
X39074182Y-21581260D01*
X39010054Y-21540047D01*
X39010050Y-21540046D01*
X38871964Y-21499500D01*
X38871961Y-21499500D01*
X38728039Y-21499500D01*
X38728036Y-21499500D01*
X38589949Y-21540046D01*
X38589945Y-21540047D01*
X38468875Y-21617855D01*
X38468868Y-21617860D01*
X38374623Y-21726626D01*
X38314834Y-21857545D01*
X38294353Y-22000000D01*
X36673667Y-22000000D01*
X36671964Y-21999500D01*
X36671961Y-21999500D01*
X36528039Y-21999500D01*
X36528036Y-21999500D01*
X36389949Y-22040046D01*
X36389945Y-22040047D01*
X36268875Y-22117855D01*
X36268868Y-22117860D01*
X36174623Y-22226626D01*
X36114834Y-22357545D01*
X36094353Y-22500000D01*
X29683886Y-22500000D01*
X29650377Y-22426627D01*
X29556128Y-22317857D01*
X29499182Y-22281260D01*
X29435054Y-22240047D01*
X29435050Y-22240046D01*
X29296964Y-22199500D01*
X29296961Y-22199500D01*
X29153039Y-22199500D01*
X29153036Y-22199500D01*
X29014949Y-22240046D01*
X29014945Y-22240047D01*
X28893875Y-22317855D01*
X28893868Y-22317860D01*
X28799623Y-22426626D01*
X28739834Y-22557545D01*
X28719353Y-22700000D01*
X7000000Y-22700000D01*
X7000000Y-21510000D01*
X25494353Y-21510000D01*
X25514834Y-21652454D01*
X25574623Y-21783373D01*
X25668868Y-21892139D01*
X25668869Y-21892140D01*
X25668872Y-21892143D01*
X25789947Y-21969953D01*
X25890576Y-21999500D01*
X25928035Y-22010499D01*
X25928037Y-22010500D01*
X25928039Y-22010500D01*
X26071963Y-22010500D01*
X26071964Y-22010499D01*
X26210053Y-21969953D01*
X26331128Y-21892143D01*
X26425377Y-21783373D01*
X26485165Y-21652457D01*
X26505647Y-21510000D01*
X30494353Y-21510000D01*
X30514834Y-21652454D01*
X30574623Y-21783373D01*
X30668868Y-21892139D01*
X30668869Y-21892140D01*
X30668872Y-21892143D01*
X30789947Y-21969953D01*
X30890576Y-21999500D01*
X30928035Y-22010499D01*
X30928037Y-22010500D01*
X30928039Y-22010500D01*
X31071963Y-22010500D01*
X31071964Y-22010499D01*
X31210053Y-21969953D01*
X31331128Y-21892143D01*
X31425377Y-21783373D01*
X31485165Y-21652457D01*
X31505647Y-21510000D01*
X31485165Y-21367543D01*
X31425377Y-21236627D01*
X31331128Y-21127857D01*
X31274182Y-21091260D01*
X31210054Y-21050047D01*
X31210050Y-21050046D01*
X31071964Y-21009500D01*
X31071961Y-21009500D01*
X30928039Y-21009500D01*
X30928036Y-21009500D01*
X30789949Y-21050046D01*
X30789945Y-21050047D01*
X30668875Y-21127855D01*
X30668868Y-21127860D01*
X30574623Y-21236626D01*
X30514834Y-21367545D01*
X30494353Y-21510000D01*
X26505647Y-21510000D01*
X26485165Y-21367543D01*
X26425377Y-21236627D01*
X26331128Y-21127857D01*
X26274182Y-21091260D01*
X26210054Y-21050047D01*
X26210050Y-21050046D01*
X26071964Y-21009500D01*
X26071961Y-21009500D01*
X25928039Y-21009500D01*
X25928036Y-21009500D01*
X25789949Y-21050046D01*
X25789945Y-21050047D01*
X25668875Y-21127855D01*
X25668868Y-21127860D01*
X25574623Y-21236626D01*
X25514834Y-21367545D01*
X25494353Y-21510000D01*
X7000000Y-21510000D01*
X7000000Y-11114760D01*
X7017313Y-11067194D01*
X7061150Y-11041884D01*
X7088434Y-11042181D01*
X7130252Y-11050500D01*
X7130254Y-11050500D01*
X8869746Y-11050500D01*
X8869748Y-11050500D01*
X8928231Y-11038867D01*
X8994552Y-10994552D01*
X9038867Y-10928231D01*
X9050500Y-10869748D01*
X9050500Y-10000000D01*
X9484417Y-10000000D01*
X9504700Y-10205934D01*
X9564768Y-10403954D01*
X9662315Y-10586450D01*
X9793590Y-10746410D01*
X9953550Y-10877685D01*
X10136046Y-10975232D01*
X10334066Y-11035300D01*
X10540000Y-11055583D01*
X10745934Y-11035300D01*
X10943954Y-10975232D01*
X11126450Y-10877685D01*
X11286410Y-10746410D01*
X11417685Y-10586450D01*
X11515232Y-10403954D01*
X11575300Y-10205934D01*
X11595583Y-10000000D01*
X12024417Y-10000000D01*
X12044700Y-10205934D01*
X12104768Y-10403954D01*
X12202315Y-10586450D01*
X12333590Y-10746410D01*
X12493550Y-10877685D01*
X12676046Y-10975232D01*
X12874066Y-11035300D01*
X13080000Y-11055583D01*
X13285934Y-11035300D01*
X13483954Y-10975232D01*
X13666450Y-10877685D01*
X13826410Y-10746410D01*
X13957685Y-10586450D01*
X14055232Y-10403954D01*
X14115300Y-10205934D01*
X14135583Y-10000000D01*
X14564417Y-10000000D01*
X14584700Y-10205934D01*
X14644768Y-10403954D01*
X14742315Y-10586450D01*
X14873590Y-10746410D01*
X15033550Y-10877685D01*
X15216046Y-10975232D01*
X15414066Y-11035300D01*
X15620000Y-11055583D01*
X15825934Y-11035300D01*
X16023954Y-10975232D01*
X16206450Y-10877685D01*
X16366410Y-10746410D01*
X16497685Y-10586450D01*
X16595232Y-10403954D01*
X16655300Y-10205934D01*
X16675583Y-10000000D01*
X17104417Y-10000000D01*
X17124700Y-10205934D01*
X17184768Y-10403954D01*
X17282315Y-10586450D01*
X17413590Y-10746410D01*
X17573550Y-10877685D01*
X17756046Y-10975232D01*
X17954066Y-11035300D01*
X18160000Y-11055583D01*
X18365934Y-11035300D01*
X18563954Y-10975232D01*
X18746450Y-10877685D01*
X18906410Y-10746410D01*
X19037685Y-10586450D01*
X19135232Y-10403954D01*
X19195300Y-10205934D01*
X19215583Y-10000000D01*
X19644417Y-10000000D01*
X19664700Y-10205934D01*
X19724768Y-10403954D01*
X19822315Y-10586450D01*
X19953590Y-10746410D01*
X20113550Y-10877685D01*
X20296046Y-10975232D01*
X20494066Y-11035300D01*
X20700000Y-11055583D01*
X20905934Y-11035300D01*
X21103954Y-10975232D01*
X21286450Y-10877685D01*
X21446410Y-10746410D01*
X21577685Y-10586450D01*
X21675232Y-10403954D01*
X21735300Y-10205934D01*
X21755583Y-10000000D01*
X22184417Y-10000000D01*
X22204700Y-10205934D01*
X22264768Y-10403954D01*
X22362315Y-10586450D01*
X22493590Y-10746410D01*
X22653550Y-10877685D01*
X22836046Y-10975232D01*
X23034066Y-11035300D01*
X23240000Y-11055583D01*
X23445934Y-11035300D01*
X23643954Y-10975232D01*
X23826450Y-10877685D01*
X23986410Y-10746410D01*
X24117685Y-10586450D01*
X24215232Y-10403954D01*
X24275300Y-10205934D01*
X24295583Y-10000000D01*
X24724417Y-10000000D01*
X24744700Y-10205934D01*
X24804768Y-10403954D01*
X24902315Y-10586450D01*
X25033590Y-10746410D01*
X25193550Y-10877685D01*
X25376046Y-10975232D01*
X25574066Y-11035300D01*
X25780000Y-11055583D01*
X25985934Y-11035300D01*
X26183954Y-10975232D01*
X26366450Y-10877685D01*
X26526410Y-10746410D01*
X26657685Y-10586450D01*
X26755232Y-10403954D01*
X26815300Y-10205934D01*
X26835583Y-10000000D01*
X27264417Y-10000000D01*
X27284700Y-10205934D01*
X27344768Y-10403954D01*
X27442315Y-10586450D01*
X27573590Y-10746410D01*
X27733550Y-10877685D01*
X27916046Y-10975232D01*
X28114066Y-11035300D01*
X28320000Y-11055583D01*
X28525934Y-11035300D01*
X28723954Y-10975232D01*
X28906450Y-10877685D01*
X29066410Y-10746410D01*
X29197685Y-10586450D01*
X29295232Y-10403954D01*
X29355300Y-10205934D01*
X29375583Y-10000000D01*
X29804417Y-10000000D01*
X29824700Y-10205934D01*
X29884768Y-10403954D01*
X29982315Y-10586450D01*
X30113590Y-10746410D01*
X30273550Y-10877685D01*
X30456046Y-10975232D01*
X30654066Y-11035300D01*
X30860000Y-11055583D01*
X31065934Y-11035300D01*
X31263954Y-10975232D01*
X31446450Y-10877685D01*
X31606410Y-10746410D01*
X31737685Y-10586450D01*
X31835232Y-10403954D01*
X31895300Y-10205934D01*
X31915583Y-10000000D01*
X32344417Y-10000000D01*
X32364700Y-10205934D01*
X32424768Y-10403954D01*
X32522315Y-10586450D01*
X32653590Y-10746410D01*
X32813550Y-10877685D01*
X32996046Y-10975232D01*
X33194066Y-11035300D01*
X33400000Y-11055583D01*
X33605934Y-11035300D01*
X33803954Y-10975232D01*
X33986450Y-10877685D01*
X34146410Y-10746410D01*
X34277685Y-10586450D01*
X34375232Y-10403954D01*
X34435300Y-10205934D01*
X34455583Y-10000000D01*
X34884417Y-10000000D01*
X34904700Y-10205934D01*
X34964768Y-10403954D01*
X35062315Y-10586450D01*
X35193590Y-10746410D01*
X35353550Y-10877685D01*
X35536046Y-10975232D01*
X35734066Y-11035300D01*
X35940000Y-11055583D01*
X36145934Y-11035300D01*
X36343954Y-10975232D01*
X36526450Y-10877685D01*
X36686410Y-10746410D01*
X36817685Y-10586450D01*
X36915232Y-10403954D01*
X36975300Y-10205934D01*
X36995583Y-10000000D01*
X36975300Y-9794066D01*
X36915232Y-9596046D01*
X36817685Y-9413550D01*
X36686410Y-9253590D01*
X36526450Y-9122315D01*
X36343954Y-9024768D01*
X36215374Y-8985764D01*
X36145935Y-8964700D01*
X35940000Y-8944417D01*
X35734064Y-8964700D01*
X35536043Y-9024769D01*
X35353549Y-9122315D01*
X35193590Y-9253589D01*
X35193589Y-9253590D01*
X35062315Y-9413549D01*
X34964769Y-9596043D01*
X34904700Y-9794064D01*
X34904700Y-9794066D01*
X34884417Y-10000000D01*
X34455583Y-10000000D01*
X34435300Y-9794066D01*
X34375232Y-9596046D01*
X34277685Y-9413550D01*
X34146410Y-9253590D01*
X33986450Y-9122315D01*
X33803954Y-9024768D01*
X33675374Y-8985764D01*
X33605935Y-8964700D01*
X33400000Y-8944417D01*
X33194064Y-8964700D01*
X32996043Y-9024769D01*
X32813549Y-9122315D01*
X32653590Y-9253589D01*
X32653589Y-9253590D01*
X32522315Y-9413549D01*
X32424769Y-9596043D01*
X32364700Y-9794064D01*
X32364700Y-9794066D01*
X32344417Y-10000000D01*
X31915583Y-10000000D01*
X31895300Y-9794066D01*
X31835232Y-9596046D01*
X31737685Y-9413550D01*
X31606410Y-9253590D01*
X31446450Y-9122315D01*
X31263954Y-9024768D01*
X31135374Y-8985764D01*
X31065935Y-8964700D01*
X30860000Y-8944417D01*
X30654064Y-8964700D01*
X30456043Y-9024769D01*
X30273549Y-9122315D01*
X30113590Y-9253589D01*
X30113589Y-9253590D01*
X29982315Y-9413549D01*
X29884769Y-9596043D01*
X29824700Y-9794064D01*
X29824700Y-9794066D01*
X29804417Y-10000000D01*
X29375583Y-10000000D01*
X29355300Y-9794066D01*
X29295232Y-9596046D01*
X29197685Y-9413550D01*
X29066410Y-9253590D01*
X28906450Y-9122315D01*
X28723954Y-9024768D01*
X28595374Y-8985764D01*
X28525935Y-8964700D01*
X28320000Y-8944417D01*
X28114064Y-8964700D01*
X27916043Y-9024769D01*
X27733549Y-9122315D01*
X27573590Y-9253589D01*
X27573589Y-9253590D01*
X27442315Y-9413549D01*
X27344769Y-9596043D01*
X27284700Y-9794064D01*
X27284700Y-9794066D01*
X27264417Y-10000000D01*
X26835583Y-10000000D01*
X26815300Y-9794066D01*
X26755232Y-9596046D01*
X26657685Y-9413550D01*
X26526410Y-9253590D01*
X26366450Y-9122315D01*
X26183954Y-9024768D01*
X26055374Y-8985764D01*
X25985935Y-8964700D01*
X25780000Y-8944417D01*
X25574064Y-8964700D01*
X25376043Y-9024769D01*
X25193549Y-9122315D01*
X25033590Y-9253589D01*
X25033589Y-9253590D01*
X24902315Y-9413549D01*
X24804769Y-9596043D01*
X24744700Y-9794064D01*
X24744700Y-9794066D01*
X24724417Y-10000000D01*
X24295583Y-10000000D01*
X24275300Y-9794066D01*
X24215232Y-9596046D01*
X24117685Y-9413550D01*
X23986410Y-9253590D01*
X23826450Y-9122315D01*
X23643954Y-9024768D01*
X23515374Y-8985764D01*
X23445935Y-8964700D01*
X23240000Y-8944417D01*
X23034064Y-8964700D01*
X22836043Y-9024769D01*
X22653549Y-9122315D01*
X22493590Y-9253589D01*
X22493589Y-9253590D01*
X22362315Y-9413549D01*
X22264769Y-9596043D01*
X22204700Y-9794064D01*
X22204700Y-9794066D01*
X22184417Y-10000000D01*
X21755583Y-10000000D01*
X21735300Y-9794066D01*
X21675232Y-9596046D01*
X21577685Y-9413550D01*
X21446410Y-9253590D01*
X21286450Y-9122315D01*
X21103954Y-9024768D01*
X20975374Y-8985764D01*
X20905935Y-8964700D01*
X20700000Y-8944417D01*
X20494064Y-8964700D01*
X20296043Y-9024769D01*
X20113549Y-9122315D01*
X19953590Y-9253589D01*
X19953589Y-9253590D01*
X19822315Y-9413549D01*
X19724769Y-9596043D01*
X19664700Y-9794064D01*
X19664700Y-9794066D01*
X19644417Y-10000000D01*
X19215583Y-10000000D01*
X19195300Y-9794066D01*
X19135232Y-9596046D01*
X19037685Y-9413550D01*
X18906410Y-9253590D01*
X18746450Y-9122315D01*
X18563954Y-9024768D01*
X18435374Y-8985764D01*
X18365935Y-8964700D01*
X18160000Y-8944417D01*
X17954064Y-8964700D01*
X17756043Y-9024769D01*
X17573549Y-9122315D01*
X17413590Y-9253589D01*
X17413589Y-9253590D01*
X17282315Y-9413549D01*
X17184769Y-9596043D01*
X17124700Y-9794064D01*
X17124700Y-9794066D01*
X17104417Y-10000000D01*
X16675583Y-10000000D01*
X16655300Y-9794066D01*
X16595232Y-9596046D01*
X16497685Y-9413550D01*
X16366410Y-9253590D01*
X16206450Y-9122315D01*
X16023954Y-9024768D01*
X15895374Y-8985764D01*
X15825935Y-8964700D01*
X15620000Y-8944417D01*
X15414064Y-8964700D01*
X15216043Y-9024769D01*
X15033549Y-9122315D01*
X14873590Y-9253589D01*
X14873589Y-9253590D01*
X14742315Y-9413549D01*
X14644769Y-9596043D01*
X14584700Y-9794064D01*
X14584700Y-9794066D01*
X14564417Y-10000000D01*
X14135583Y-10000000D01*
X14115300Y-9794066D01*
X14055232Y-9596046D01*
X13957685Y-9413550D01*
X13826410Y-9253590D01*
X13666450Y-9122315D01*
X13483954Y-9024768D01*
X13355374Y-8985764D01*
X13285935Y-8964700D01*
X13080000Y-8944417D01*
X12874064Y-8964700D01*
X12676043Y-9024769D01*
X12493549Y-9122315D01*
X12333590Y-9253589D01*
X12333589Y-9253590D01*
X12202315Y-9413549D01*
X12104769Y-9596043D01*
X12044700Y-9794064D01*
X12044700Y-9794066D01*
X12024417Y-10000000D01*
X11595583Y-10000000D01*
X11575300Y-9794066D01*
X11515232Y-9596046D01*
X11417685Y-9413550D01*
X11286410Y-9253590D01*
X11126450Y-9122315D01*
X10943954Y-9024768D01*
X10815374Y-8985764D01*
X10745935Y-8964700D01*
X10540000Y-8944417D01*
X10334064Y-8964700D01*
X10136043Y-9024769D01*
X9953549Y-9122315D01*
X9793590Y-9253589D01*
X9793589Y-9253590D01*
X9662315Y-9413549D01*
X9564769Y-9596043D01*
X9504700Y-9794064D01*
X9504700Y-9794066D01*
X9484417Y-10000000D01*
X9050500Y-10000000D01*
X9050500Y-9130252D01*
X9038867Y-9071769D01*
X8994552Y-9005448D01*
X8965093Y-8985764D01*
X8928232Y-8961133D01*
X8928233Y-8961133D01*
X8898989Y-8955316D01*
X8869748Y-8949500D01*
X7130252Y-8949500D01*
X7130251Y-8949500D01*
X7088435Y-8957817D01*
X7038406Y-8950116D01*
X7005031Y-8912058D01*
X7000000Y-8885239D01*
X7000000Y-8104225D01*
X7017313Y-8056659D01*
X7061150Y-8031349D01*
X7111000Y-8040139D01*
X7131202Y-8057279D01*
X7253590Y-8206410D01*
X7413550Y-8337685D01*
X7596046Y-8435232D01*
X7794066Y-8495300D01*
X8000000Y-8515583D01*
X8205934Y-8495300D01*
X8403954Y-8435232D01*
X8586450Y-8337685D01*
X8746410Y-8206410D01*
X8877685Y-8046450D01*
X8975232Y-7863954D01*
X9035300Y-7665934D01*
X9055583Y-7460000D01*
X9035300Y-7254066D01*
X8987194Y-7095480D01*
X8989954Y-7044937D01*
X9024557Y-7007992D01*
X9058008Y-7000000D01*
X9481992Y-7000000D01*
X9529558Y-7017313D01*
G37*
%TD.AperFunction*%
%TD*%
M02*
