%TF.GenerationSoftware,KiCad,Pcbnew,7.0.10*%
%TF.CreationDate,2026-09-22T21:53:27+02:00*%
%TF.ProjectId,epc2361-prototype-p6,65706332-3336-4312-9d70-726f746f7479,rev?*%
%TF.SameCoordinates,Original*%
%TF.FileFunction,Copper,L3,Inr*%
%TF.FilePolarity,Positive*%
%FSLAX46Y46*%
G04 Gerber Fmt 4.6, Leading zero omitted, Abs format (unit mm)*
G04 Created by KiCad (PCBNEW 7.0.10) date 2026-09-22 21:53:27*
%MOMM*%
%LPD*%
G01*
G04 APERTURE LIST*
%TA.AperFunction,ComponentPad*%
%ADD10R,1.700000X1.700000*%
%TD*%
%TA.AperFunction,ComponentPad*%
%ADD11O,1.700000X1.700000*%
%TD*%
%TA.AperFunction,ComponentPad*%
%ADD12R,1.000000X1.000000*%
%TD*%
%TA.AperFunction,ComponentPad*%
%ADD13O,1.000000X1.000000*%
%TD*%
%TA.AperFunction,ViaPad*%
%ADD14C,0.600000*%
%TD*%
%TA.AperFunction,Conductor*%
%ADD15C,0.150000*%
%TD*%
G04 APERTURE END LIST*
D10*
%TO.N,DC+*%
%TO.C,JDC1*%
X8000000Y-10000000D03*
D11*
X8000000Y-7460000D03*
X10540000Y-10000000D03*
X10540000Y-7460000D03*
X13080000Y-10000000D03*
X13080000Y-7460000D03*
X15620000Y-10000000D03*
X15620000Y-7460000D03*
X18160000Y-10000000D03*
X18160000Y-7460000D03*
X20700000Y-10000000D03*
X20700000Y-7460000D03*
X23240000Y-10000000D03*
X23240000Y-7460000D03*
X25780000Y-10000000D03*
X25780000Y-7460000D03*
X28320000Y-10000000D03*
X28320000Y-7460000D03*
X30860000Y-10000000D03*
X30860000Y-7460000D03*
X33400000Y-10000000D03*
X33400000Y-7460000D03*
X35940000Y-10000000D03*
X35940000Y-7460000D03*
%TD*%
D12*
%TO.N,GL1*%
%TO.C,JGL1*%
X41050000Y-36770000D03*
D13*
%TO.N,DC-*%
X41050000Y-38040000D03*
%TD*%
D10*
%TO.N,AC*%
%TO.C,JAC1*%
X78000000Y-22000000D03*
D11*
X80540000Y-22000000D03*
X78000000Y-24540000D03*
X80540000Y-24540000D03*
X78000000Y-27080000D03*
X80540000Y-27080000D03*
X78000000Y-29620000D03*
X80540000Y-29620000D03*
X78000000Y-32160000D03*
X80540000Y-32160000D03*
X78000000Y-34700000D03*
X80540000Y-34700000D03*
X78000000Y-37240000D03*
X80540000Y-37240000D03*
X78000000Y-39780000D03*
X80540000Y-39780000D03*
X78000000Y-42320000D03*
X80540000Y-42320000D03*
X78000000Y-44860000D03*
X80540000Y-44860000D03*
X78000000Y-47400000D03*
X80540000Y-47400000D03*
X78000000Y-49940000D03*
X80540000Y-49940000D03*
%TD*%
D10*
%TO.N,VIN*%
%TO.C,JCTRL1*%
X12000000Y-30000000D03*
D11*
%TO.N,DC-*%
X12000000Y-32540000D03*
%TO.N,HI*%
X12000000Y-35080000D03*
%TO.N,DC-*%
X12000000Y-37620000D03*
%TO.N,LI*%
X12000000Y-40160000D03*
%TO.N,DC-*%
X12000000Y-42700000D03*
%TD*%
D10*
%TO.N,DC-*%
%TO.C,JDC2*%
X8000000Y-17000000D03*
D11*
X8000000Y-14460000D03*
X10540000Y-17000000D03*
X10540000Y-14460000D03*
X13080000Y-17000000D03*
X13080000Y-14460000D03*
X15620000Y-17000000D03*
X15620000Y-14460000D03*
X18160000Y-17000000D03*
X18160000Y-14460000D03*
X20700000Y-17000000D03*
X20700000Y-14460000D03*
X23240000Y-17000000D03*
X23240000Y-14460000D03*
X25780000Y-17000000D03*
X25780000Y-14460000D03*
X28320000Y-17000000D03*
X28320000Y-14460000D03*
X30860000Y-17000000D03*
X30860000Y-14460000D03*
X33400000Y-17000000D03*
X33400000Y-14460000D03*
X35940000Y-17000000D03*
X35940000Y-14460000D03*
%TD*%
D12*
%TO.N,GL2*%
%TO.C,JGL2*%
X59050000Y-36770000D03*
D13*
%TO.N,DC-*%
X59050000Y-38040000D03*
%TD*%
D12*
%TO.N,GH1*%
%TO.C,JGH1*%
X41050000Y-30770000D03*
D13*
%TO.N,AC*%
X41050000Y-32040000D03*
%TD*%
D12*
%TO.N,GH2*%
%TO.C,JGH2*%
X59050000Y-30770000D03*
D13*
%TO.N,AC*%
X59050000Y-32040000D03*
%TD*%
D14*
%TO.N,AC*%
X72600000Y-35600000D03*
X54400000Y-32600000D03*
X43190000Y-32700000D03*
X55000000Y-31400000D03*
X72000000Y-34400000D03*
X55000000Y-32600000D03*
X61190000Y-32700000D03*
X54400000Y-31400000D03*
X40200000Y-34500000D03*
X55600000Y-32000000D03*
X55600000Y-31400000D03*
X54400000Y-32000000D03*
X71400000Y-35000000D03*
X55600000Y-32600000D03*
X71400000Y-34400000D03*
X72000000Y-35000000D03*
X72600000Y-35000000D03*
X72600000Y-34400000D03*
X72000000Y-35600000D03*
X71400000Y-35600000D03*
X73800000Y-47000000D03*
X55000000Y-32000000D03*
%TO.N,BST*%
X33800000Y-28325000D03*
X35750000Y-32299999D03*
%TO.N,BST_A*%
X33800000Y-26675000D03*
X40000000Y-22500000D03*
%TO.N,DC+*%
X67050000Y-46100000D03*
X46950000Y-46100000D03*
X62850000Y-28100000D03*
X44850000Y-28100000D03*
X69150000Y-28100000D03*
X69150000Y-46100000D03*
X72800000Y-29000000D03*
X64950000Y-46100000D03*
X51150000Y-28100000D03*
X53250000Y-28100000D03*
X46950000Y-28100000D03*
X53250000Y-46100000D03*
X44850000Y-46100000D03*
X67050000Y-28100000D03*
X71250000Y-46100000D03*
X51150000Y-46100000D03*
X60750000Y-28100000D03*
X49050000Y-46100000D03*
X42750000Y-28100000D03*
X60750000Y-46100000D03*
X71250000Y-28100000D03*
X64950000Y-28100000D03*
X49050000Y-28100000D03*
X62850000Y-46100000D03*
X42750000Y-46100000D03*
%TO.N,DC-*%
X53250000Y-23800000D03*
X47225000Y-41800000D03*
X33600000Y-43550000D03*
X53250000Y-42500000D03*
X53250000Y-23100000D03*
X32799999Y-36800000D03*
X63298000Y-41800000D03*
X51150000Y-23100000D03*
X67050000Y-42500000D03*
X66925000Y-41800000D03*
X69150000Y-23800000D03*
X69150000Y-23100000D03*
X46950000Y-42500000D03*
X44850000Y-23800000D03*
X67050000Y-23800000D03*
X61190000Y-38670000D03*
X71250000Y-23800000D03*
X32799999Y-35000000D03*
X42750000Y-42500000D03*
X31000000Y-20490000D03*
X63998000Y-41800000D03*
X49050000Y-23100000D03*
X62850000Y-23100000D03*
X67050000Y-23100000D03*
X71250000Y-42500000D03*
X42750000Y-23100000D03*
X30775000Y-22700000D03*
X42750000Y-23800000D03*
X64950000Y-23800000D03*
X48925000Y-41800000D03*
X49050000Y-42500000D03*
X64950000Y-23100000D03*
X46950000Y-23800000D03*
X33800000Y-38725000D03*
X71250000Y-23100000D03*
X44850000Y-23100000D03*
X44850000Y-42500000D03*
X67625000Y-41800000D03*
X60750000Y-42500000D03*
X39400000Y-43550000D03*
X49050000Y-23800000D03*
X51150000Y-23800000D03*
X65925000Y-41800000D03*
X49625000Y-41800000D03*
X62850000Y-42500000D03*
X51150000Y-42500000D03*
X45998000Y-41800000D03*
X60750000Y-23800000D03*
X46950000Y-23100000D03*
X65224999Y-41800000D03*
X43190000Y-38670000D03*
X69150000Y-42500000D03*
X47925000Y-41800000D03*
X44800000Y-20000000D03*
X64950000Y-42500000D03*
X26000000Y-20490000D03*
X62850000Y-23800000D03*
X45298000Y-41800000D03*
X60750000Y-23100000D03*
%TO.N,GH1*%
X45148000Y-30770000D03*
%TO.N,GH2*%
X63148000Y-30770000D03*
%TO.N,GL1*%
X45148000Y-36770000D03*
%TO.N,GL2*%
X63148000Y-36770000D03*
%TO.N,HB*%
X39100000Y-35500000D03*
X39200000Y-28775000D03*
X35225000Y-30100000D03*
X38800000Y-22000000D03*
X36600000Y-22500000D03*
%TO.N,HI*%
X26000000Y-21510000D03*
X33800000Y-32299999D03*
%TO.N,HO*%
X43190000Y-31500000D03*
X61190000Y-31500000D03*
X37250000Y-37600000D03*
%TO.N,LI*%
X31000000Y-21510000D03*
X33000000Y-33100000D03*
%TO.N,LO*%
X61190000Y-35700000D03*
X43190000Y-35700000D03*
X35750000Y-37600000D03*
%TO.N,VDD*%
X33800000Y-40275000D03*
X33600000Y-45450000D03*
X39800000Y-49000000D03*
X39400000Y-45450000D03*
X32000000Y-35800000D03*
X34750000Y-37600000D03*
%TO.N,VIN*%
X29225000Y-22700000D03*
X33100000Y-34000000D03*
%TD*%
D15*
%TO.N,AC*%
X43800000Y-31900000D02*
X43800000Y-31400000D01*
X43600000Y-32100000D02*
X43600000Y-32000000D01*
X43700000Y-31900000D02*
X43700000Y-32000000D01*
X43600000Y-32000000D02*
X43600000Y-32100000D01*
X52200000Y-31000000D02*
X45800000Y-31000000D01*
X52200000Y-32700000D02*
X61200000Y-32700000D01*
X43200000Y-32100000D02*
X43200000Y-32700000D01*
X43700000Y-32000000D02*
X43700000Y-31900000D01*
X45800000Y-31100000D02*
X45700000Y-31100000D01*
X45500000Y-31400000D02*
X45500000Y-31300000D01*
X45600000Y-31300000D02*
X45600000Y-31200000D01*
X43800000Y-31900000D02*
X43700000Y-31900000D01*
X43200000Y-32700000D02*
X43190000Y-32700000D01*
X45600000Y-31300000D02*
X45500000Y-31300000D01*
X45600000Y-31200000D02*
X45700000Y-31200000D01*
X45800000Y-31000000D02*
X45800000Y-31100000D01*
X45500000Y-31300000D02*
X45600000Y-31300000D01*
X61200000Y-32700000D02*
X61190000Y-32700000D01*
X45800000Y-31100000D02*
X45800000Y-31000000D01*
X43800000Y-31400000D02*
X45500000Y-31400000D01*
X40200000Y-34500000D02*
X40200000Y-32100000D01*
X45500000Y-31300000D02*
X45500000Y-31400000D01*
X43800000Y-31400000D02*
X43800000Y-31900000D01*
X43600000Y-32100000D02*
X43200000Y-32100000D01*
X45700000Y-31200000D02*
X45700000Y-31100000D01*
X40200000Y-32100000D02*
X43600000Y-32100000D01*
X45500000Y-31400000D02*
X43800000Y-31400000D01*
X45800000Y-31000000D02*
X52200000Y-31000000D01*
X43700000Y-31900000D02*
X43800000Y-31900000D01*
X43600000Y-32000000D02*
X43700000Y-32000000D01*
X43700000Y-32000000D02*
X43600000Y-32000000D01*
X45700000Y-31100000D02*
X45800000Y-31100000D01*
X45700000Y-31100000D02*
X45700000Y-31200000D01*
X45600000Y-31200000D02*
X45600000Y-31300000D01*
X45700000Y-31200000D02*
X45600000Y-31200000D01*
X52200000Y-31000000D02*
X52200000Y-32700000D01*
%TO.N,DC-*%
X61200000Y-38700000D02*
X61190000Y-38670000D01*
X52200000Y-40000000D02*
X43200000Y-40000000D01*
X52200000Y-38700000D02*
X61200000Y-38700000D01*
X36300000Y-37200000D02*
X36300000Y-37300000D01*
X36300000Y-37300000D02*
X36400000Y-37300000D01*
X36100000Y-37000000D02*
X36100000Y-37100000D01*
X52200000Y-40000000D02*
X52200000Y-38700000D01*
X43200000Y-40000000D02*
X43200000Y-38700000D01*
X36400000Y-40000000D02*
X52200000Y-40000000D01*
X36200000Y-37200000D02*
X36300000Y-37200000D01*
X32799999Y-35000000D02*
X32799999Y-37000000D01*
X43200000Y-38700000D02*
X43190000Y-38670000D01*
X36400000Y-37300000D02*
X36400000Y-40000000D01*
X36100000Y-37100000D02*
X36200000Y-37100000D01*
X36200000Y-37100000D02*
X36200000Y-37200000D01*
X32799999Y-37000000D02*
X36100000Y-37000000D01*
%TO.N,HI*%
X29900000Y-32299999D02*
X29900000Y-22500000D01*
X26000000Y-21500000D02*
X12000000Y-21500000D01*
X12000000Y-21500000D02*
X12000000Y-22300000D01*
X10700000Y-35100000D02*
X12000000Y-35100000D01*
X11700000Y-22400000D02*
X11600000Y-22400000D01*
X26000000Y-22100000D02*
X26000000Y-21500000D01*
X33800000Y-32299999D02*
X29900000Y-32299999D01*
X12000000Y-35100000D02*
X12000000Y-35080000D01*
X12000000Y-22300000D02*
X11700000Y-22300000D01*
X29600000Y-22200000D02*
X29600000Y-22100000D01*
X26000000Y-21500000D02*
X26000000Y-21510000D01*
X29800000Y-22300000D02*
X29700000Y-22300000D01*
X29700000Y-22200000D02*
X29600000Y-22200000D01*
X11600000Y-28700000D02*
X10700000Y-28700000D01*
X29600000Y-22100000D02*
X26000000Y-22100000D01*
X29800000Y-22500000D02*
X29800000Y-22300000D01*
X29900000Y-22500000D02*
X29800000Y-22500000D01*
X11600000Y-22400000D02*
X11600000Y-28700000D01*
X10700000Y-28700000D02*
X10700000Y-35100000D01*
X11700000Y-22300000D02*
X11700000Y-22400000D01*
X29700000Y-22300000D02*
X29700000Y-22200000D01*
X26000000Y-21510000D02*
X26000000Y-21500000D01*
%TO.N,LI*%
X31400000Y-22400000D02*
X31300000Y-22400000D01*
X34200000Y-32799999D02*
X34300000Y-32799999D01*
X10300000Y-40200000D02*
X12000000Y-40200000D01*
X34300000Y-32799999D02*
X34300000Y-32700000D01*
X31300000Y-22400000D02*
X31300000Y-22200000D01*
X31400000Y-22400000D02*
X31300000Y-22400000D01*
X26400000Y-20000000D02*
X26400000Y-19900000D01*
X31400000Y-31600000D02*
X31400000Y-22400000D01*
X31300000Y-22200000D02*
X31200000Y-22200000D01*
X31000000Y-22100000D02*
X31000000Y-21500000D01*
X30200000Y-22000000D02*
X30100000Y-22000000D01*
X30000000Y-21800000D02*
X29900000Y-21800000D01*
X26600000Y-21700000D02*
X26600000Y-20100000D01*
X34300000Y-31900000D02*
X34300000Y-31800000D01*
X31200000Y-22100000D02*
X31000000Y-22100000D01*
X34300000Y-31900000D02*
X34300000Y-31800000D01*
X26200000Y-19800000D02*
X12000000Y-19800000D01*
X33000000Y-32900000D02*
X34200000Y-32900000D01*
X10400000Y-28400000D02*
X10300000Y-28400000D01*
X10400000Y-28300000D02*
X10400000Y-28400000D01*
X26200000Y-19900000D02*
X26200000Y-19800000D01*
X12000000Y-40200000D02*
X12000000Y-40160000D01*
X30100000Y-21900000D02*
X30000000Y-21900000D01*
X31300000Y-22200000D02*
X31200000Y-22200000D01*
X31200000Y-22200000D02*
X31200000Y-22100000D01*
X34200000Y-32799999D02*
X34300000Y-32799999D01*
X30200000Y-22100000D02*
X30200000Y-22000000D01*
X29900000Y-21700000D02*
X26600000Y-21700000D01*
X11600000Y-21900000D02*
X11400000Y-21900000D01*
X11700000Y-21100000D02*
X11700000Y-21200000D01*
X34400000Y-32700000D02*
X34400000Y-31900000D01*
X33000000Y-32900000D02*
X34200000Y-32900000D01*
X12000000Y-19800000D02*
X12000000Y-21100000D01*
X26400000Y-19900000D02*
X26200000Y-19900000D01*
X34200000Y-32900000D02*
X34200000Y-32799999D01*
X30100000Y-22000000D02*
X30100000Y-21900000D01*
X33000000Y-33100000D02*
X33000000Y-32900000D01*
X34300000Y-32700000D02*
X34400000Y-32700000D01*
X12000000Y-21100000D02*
X11700000Y-21100000D01*
X34300000Y-31800000D02*
X34200000Y-31800000D01*
X11700000Y-21200000D02*
X11600000Y-21200000D01*
X34300000Y-32700000D02*
X34400000Y-32700000D01*
X31300000Y-22400000D02*
X31300000Y-22200000D01*
X34200000Y-31700000D02*
X33900000Y-31700000D01*
X11200000Y-28300000D02*
X10400000Y-28300000D01*
X11400000Y-21900000D02*
X11400000Y-22000000D01*
X11200000Y-22100000D02*
X11200000Y-28300000D01*
X31400000Y-31600000D02*
X31400000Y-22400000D01*
X11300000Y-22100000D02*
X11200000Y-22100000D01*
X33900000Y-31700000D02*
X33900000Y-31600000D01*
X31200000Y-22200000D02*
X31200000Y-22100000D01*
X26600000Y-20100000D02*
X26500000Y-20100000D01*
X11300000Y-22000000D02*
X11300000Y-22100000D01*
X33900000Y-31600000D02*
X31400000Y-31600000D01*
X33000000Y-33100000D02*
X33000000Y-32900000D01*
X34400000Y-31900000D02*
X34300000Y-31900000D01*
X34300000Y-32799999D02*
X34300000Y-32700000D01*
X34200000Y-32900000D02*
X34200000Y-32799999D01*
X10300000Y-28400000D02*
X10300000Y-40200000D01*
X29900000Y-21800000D02*
X29900000Y-21700000D01*
X26500000Y-20100000D02*
X26500000Y-20000000D01*
X33900000Y-31700000D02*
X33900000Y-31600000D01*
X34300000Y-31800000D02*
X34200000Y-31800000D01*
X34200000Y-31700000D02*
X33900000Y-31700000D01*
X11600000Y-21200000D02*
X11600000Y-21900000D01*
X26500000Y-20000000D02*
X26400000Y-20000000D01*
X34200000Y-31800000D02*
X34200000Y-31700000D01*
X34200000Y-31800000D02*
X34200000Y-31700000D01*
X31200000Y-22100000D02*
X30200000Y-22100000D01*
X34400000Y-31900000D02*
X34300000Y-31900000D01*
X33900000Y-31600000D02*
X31400000Y-31600000D01*
X11400000Y-22000000D02*
X11300000Y-22000000D01*
X30000000Y-21900000D02*
X30000000Y-21800000D01*
X34400000Y-32700000D02*
X34400000Y-31900000D01*
X31000000Y-21500000D02*
X31000000Y-21510000D01*
%TO.N,VDD*%
X33600000Y-44200000D02*
X33600000Y-45400000D01*
X34000000Y-44000000D02*
X34000000Y-44100000D01*
X34750000Y-37600000D02*
X34800000Y-37600000D01*
X33800000Y-42900000D02*
X33900000Y-42900000D01*
X33900000Y-44200000D02*
X33600000Y-44200000D01*
X34000000Y-43000000D02*
X34000000Y-43100000D01*
X34100000Y-43900000D02*
X34100000Y-44000000D01*
X34300000Y-39200000D02*
X34200000Y-39200000D01*
X33800000Y-40275000D02*
X33800000Y-40300000D01*
X33900000Y-42900000D02*
X33900000Y-43000000D01*
X33600000Y-45400000D02*
X33600000Y-45450000D01*
X33800000Y-40300000D02*
X33800000Y-40275000D01*
X34800000Y-37600000D02*
X34750000Y-37600000D01*
X34000000Y-39400000D02*
X33800000Y-39400000D01*
X39400000Y-45400000D02*
X39400000Y-45450000D01*
X39400000Y-49000000D02*
X39800000Y-49000000D01*
X34400000Y-37600000D02*
X34400000Y-39100000D01*
X34000000Y-39300000D02*
X34000000Y-39400000D01*
X34000000Y-44100000D02*
X33900000Y-44100000D01*
X39400000Y-45400000D02*
X39400000Y-49000000D01*
X34100000Y-43100000D02*
X34100000Y-43200000D01*
X34000000Y-43100000D02*
X34100000Y-43100000D01*
X33600000Y-45450000D02*
X33600000Y-45400000D01*
X33900000Y-43000000D02*
X34000000Y-43000000D01*
X32000000Y-37600000D02*
X34800000Y-37600000D01*
X34300000Y-39100000D02*
X34300000Y-39200000D01*
X39400000Y-45450000D02*
X39400000Y-45400000D01*
X32000000Y-35800000D02*
X32000000Y-37600000D01*
X34400000Y-39100000D02*
X34300000Y-39100000D01*
X33600000Y-45400000D02*
X39400000Y-45400000D01*
X34200000Y-39200000D02*
X34200000Y-39300000D01*
X33800000Y-40300000D02*
X33800000Y-42900000D01*
X34100000Y-44000000D02*
X34000000Y-44000000D01*
X33800000Y-39400000D02*
X33800000Y-40300000D01*
X34100000Y-43200000D02*
X34200000Y-43200000D01*
X33900000Y-44100000D02*
X33900000Y-44200000D01*
X34200000Y-43900000D02*
X34100000Y-43900000D01*
X34800000Y-37600000D02*
X34400000Y-37600000D01*
X34200000Y-43200000D02*
X34200000Y-43900000D01*
X34200000Y-39300000D02*
X34000000Y-39300000D01*
%TO.N,VIN*%
X29200000Y-22700000D02*
X12000000Y-22700000D01*
X12000000Y-22700000D02*
X12000000Y-30000000D01*
X33100000Y-34000000D02*
X29200000Y-34000000D01*
X29225000Y-22700000D02*
X29200000Y-22700000D01*
X29200000Y-34000000D02*
X29200000Y-22700000D01*
X29200000Y-22700000D02*
X29225000Y-22700000D01*
%TD*%
%TA.AperFunction,Conductor*%
%TO.N,DC+*%
G36*
X38836452Y-7017313D02*
G01*
X38861762Y-7061150D01*
X38852972Y-7111000D01*
X38847283Y-7119451D01*
X38781530Y-7203930D01*
X38781524Y-7203940D01*
X38667117Y-7415344D01*
X38589065Y-7642704D01*
X38549500Y-7879805D01*
X38549500Y-8120194D01*
X38589065Y-8357295D01*
X38667117Y-8584655D01*
X38667118Y-8584656D01*
X38781528Y-8796067D01*
X38929175Y-8985764D01*
X39106031Y-9148571D01*
X39307272Y-9280049D01*
X39527409Y-9376610D01*
X39760437Y-9435620D01*
X39760440Y-9435620D01*
X39760443Y-9435621D01*
X39940002Y-9450500D01*
X39940010Y-9450500D01*
X40059998Y-9450500D01*
X40239556Y-9435621D01*
X40239557Y-9435621D01*
X40239559Y-9435620D01*
X40239563Y-9435620D01*
X40472591Y-9376610D01*
X40692728Y-9280049D01*
X40893969Y-9148571D01*
X41070825Y-8985764D01*
X41218472Y-8796067D01*
X41332882Y-8584656D01*
X41410934Y-8357297D01*
X41450500Y-8120192D01*
X41450500Y-7879808D01*
X41410934Y-7642703D01*
X41332882Y-7415344D01*
X41218472Y-7203933D01*
X41152716Y-7119450D01*
X41137164Y-7071281D01*
X41156213Y-7024383D01*
X41200950Y-7000701D01*
X41211114Y-7000000D01*
X72788886Y-7000000D01*
X72836452Y-7017313D01*
X72861762Y-7061150D01*
X72852972Y-7111000D01*
X72847283Y-7119451D01*
X72781530Y-7203930D01*
X72781524Y-7203940D01*
X72667117Y-7415344D01*
X72589065Y-7642704D01*
X72549500Y-7879805D01*
X72549500Y-8120194D01*
X72589065Y-8357295D01*
X72667117Y-8584655D01*
X72667118Y-8584656D01*
X72781528Y-8796067D01*
X72929175Y-8985764D01*
X73106031Y-9148571D01*
X73307272Y-9280049D01*
X73527409Y-9376610D01*
X73760437Y-9435620D01*
X73760440Y-9435620D01*
X73760443Y-9435621D01*
X73932111Y-9449846D01*
X73978085Y-9471027D01*
X73999688Y-9516805D01*
X74000000Y-9523593D01*
X74000000Y-25397846D01*
X73982687Y-25445412D01*
X73971228Y-25456415D01*
X73761823Y-25618112D01*
X73761822Y-25618113D01*
X73761818Y-25618116D01*
X73573812Y-25813120D01*
X73416199Y-26033423D01*
X73292348Y-26274315D01*
X73292340Y-26274333D01*
X73204883Y-26530687D01*
X73204881Y-26530694D01*
X73158664Y-26780912D01*
X73155681Y-26797067D01*
X73150152Y-26948373D01*
X73145788Y-27067771D01*
X73175414Y-27337018D01*
X73243928Y-27599088D01*
X73297722Y-27725675D01*
X73349870Y-27848390D01*
X73490982Y-28079610D01*
X73490984Y-28079612D01*
X73664252Y-28287817D01*
X73664253Y-28287818D01*
X73664255Y-28287820D01*
X73865998Y-28468582D01*
X73966831Y-28535292D01*
X73996948Y-28575975D01*
X74000000Y-28597007D01*
X74000000Y-41397846D01*
X73982687Y-41445412D01*
X73971228Y-41456415D01*
X73859570Y-41542635D01*
X73761822Y-41618113D01*
X73761818Y-41618116D01*
X73573812Y-41813120D01*
X73416199Y-42033423D01*
X73292348Y-42274315D01*
X73292340Y-42274333D01*
X73204883Y-42530687D01*
X73204881Y-42530694D01*
X73173610Y-42700000D01*
X73155681Y-42797067D01*
X73148247Y-43000499D01*
X73145788Y-43067771D01*
X73175414Y-43337019D01*
X73238332Y-43577685D01*
X73243928Y-43599088D01*
X73297722Y-43725675D01*
X73349870Y-43848390D01*
X73490982Y-44079610D01*
X73490984Y-44079612D01*
X73664252Y-44287817D01*
X73664253Y-44287818D01*
X73664255Y-44287820D01*
X73865998Y-44468582D01*
X73966831Y-44535292D01*
X73996948Y-44575975D01*
X74000000Y-44597007D01*
X74000000Y-46438242D01*
X73982687Y-46485808D01*
X73938850Y-46511118D01*
X73905153Y-46509245D01*
X73871962Y-46499500D01*
X73871961Y-46499500D01*
X73728039Y-46499500D01*
X73728036Y-46499500D01*
X73589949Y-46540046D01*
X73589945Y-46540047D01*
X73468875Y-46617855D01*
X73468868Y-46617860D01*
X73374623Y-46726626D01*
X73314834Y-46857545D01*
X73294353Y-47000000D01*
X73314834Y-47142454D01*
X73374623Y-47273373D01*
X73468868Y-47382139D01*
X73468869Y-47382140D01*
X73468872Y-47382143D01*
X73589947Y-47459953D01*
X73694847Y-47490754D01*
X73728035Y-47500499D01*
X73728037Y-47500500D01*
X73728039Y-47500500D01*
X73871962Y-47500500D01*
X73879840Y-47498186D01*
X73905152Y-47490754D01*
X73955667Y-47493963D01*
X73992303Y-47528893D01*
X74000000Y-47561756D01*
X74000000Y-51476406D01*
X73982687Y-51523972D01*
X73938850Y-51549282D01*
X73932111Y-51550153D01*
X73760443Y-51564378D01*
X73760442Y-51564378D01*
X73582528Y-51609432D01*
X73527409Y-51623390D01*
X73527407Y-51623390D01*
X73527402Y-51623392D01*
X73307271Y-51719951D01*
X73106033Y-51851427D01*
X72929176Y-52014234D01*
X72781531Y-52203928D01*
X72781524Y-52203940D01*
X72667117Y-52415344D01*
X72589065Y-52642704D01*
X72549500Y-52879805D01*
X72549500Y-53120194D01*
X72589065Y-53357295D01*
X72667117Y-53584655D01*
X72667118Y-53584656D01*
X72781528Y-53796067D01*
X72929175Y-53985764D01*
X73106031Y-54148571D01*
X73307272Y-54280049D01*
X73527409Y-54376610D01*
X73760437Y-54435620D01*
X73760440Y-54435620D01*
X73760443Y-54435621D01*
X73932111Y-54449846D01*
X73978085Y-54471027D01*
X73999688Y-54516805D01*
X74000000Y-54523593D01*
X74000000Y-54926000D01*
X73982687Y-54973566D01*
X73938850Y-54998876D01*
X73926000Y-55000000D01*
X41074000Y-55000000D01*
X41026434Y-54982687D01*
X41001124Y-54938850D01*
X41000000Y-54926000D01*
X41000000Y-54083421D01*
X41017313Y-54035855D01*
X41023874Y-54028984D01*
X41070825Y-53985764D01*
X41218472Y-53796067D01*
X41332882Y-53584656D01*
X41410934Y-53357297D01*
X41450500Y-53120192D01*
X41450500Y-52879808D01*
X41410934Y-52642703D01*
X41332882Y-52415344D01*
X41218472Y-52203933D01*
X41070825Y-52014236D01*
X41070823Y-52014234D01*
X41070820Y-52014230D01*
X41023881Y-51971019D01*
X41000611Y-51926066D01*
X41000000Y-51916576D01*
X41000000Y-42500000D01*
X42244353Y-42500000D01*
X42264834Y-42642454D01*
X42264834Y-42642455D01*
X42264835Y-42642457D01*
X42324623Y-42773373D01*
X42418868Y-42882139D01*
X42418869Y-42882140D01*
X42418872Y-42882143D01*
X42539947Y-42959953D01*
X42646403Y-42991211D01*
X42678035Y-43000499D01*
X42678037Y-43000500D01*
X42678039Y-43000500D01*
X42821963Y-43000500D01*
X42821964Y-43000499D01*
X42960053Y-42959953D01*
X43081128Y-42882143D01*
X43175377Y-42773373D01*
X43235165Y-42642457D01*
X43255647Y-42500000D01*
X44344353Y-42500000D01*
X44364834Y-42642454D01*
X44364834Y-42642455D01*
X44364835Y-42642457D01*
X44424623Y-42773373D01*
X44518868Y-42882139D01*
X44518869Y-42882140D01*
X44518872Y-42882143D01*
X44639947Y-42959953D01*
X44746403Y-42991211D01*
X44778035Y-43000499D01*
X44778037Y-43000500D01*
X44778039Y-43000500D01*
X44921963Y-43000500D01*
X44921964Y-43000499D01*
X45060053Y-42959953D01*
X45181128Y-42882143D01*
X45275377Y-42773373D01*
X45335165Y-42642457D01*
X45355647Y-42500000D01*
X46444353Y-42500000D01*
X46464834Y-42642454D01*
X46464834Y-42642455D01*
X46464835Y-42642457D01*
X46524623Y-42773373D01*
X46618868Y-42882139D01*
X46618869Y-42882140D01*
X46618872Y-42882143D01*
X46739947Y-42959953D01*
X46846403Y-42991211D01*
X46878035Y-43000499D01*
X46878037Y-43000500D01*
X46878039Y-43000500D01*
X47021963Y-43000500D01*
X47021964Y-43000499D01*
X47160053Y-42959953D01*
X47281128Y-42882143D01*
X47375377Y-42773373D01*
X47435165Y-42642457D01*
X47455647Y-42500000D01*
X47435165Y-42357543D01*
X47427319Y-42340364D01*
X47423309Y-42289907D01*
X47452670Y-42248674D01*
X47454571Y-42247409D01*
X47534994Y-42195724D01*
X47584368Y-42184573D01*
X47615003Y-42195723D01*
X47714947Y-42259953D01*
X47802311Y-42285605D01*
X47853035Y-42300499D01*
X47853037Y-42300500D01*
X47853039Y-42300500D01*
X47996963Y-42300500D01*
X47996964Y-42300499D01*
X48135053Y-42259953D01*
X48256128Y-42182143D01*
X48350377Y-42073373D01*
X48357687Y-42057365D01*
X48393195Y-42021290D01*
X48443585Y-42016478D01*
X48485278Y-42045182D01*
X48492311Y-42057364D01*
X48499623Y-42073373D01*
X48538165Y-42117853D01*
X48596170Y-42184796D01*
X48614235Y-42232082D01*
X48607557Y-42263996D01*
X48564834Y-42357545D01*
X48544353Y-42500000D01*
X48564834Y-42642454D01*
X48564834Y-42642455D01*
X48564835Y-42642457D01*
X48624623Y-42773373D01*
X48718868Y-42882139D01*
X48718869Y-42882140D01*
X48718872Y-42882143D01*
X48839947Y-42959953D01*
X48946403Y-42991211D01*
X48978035Y-43000499D01*
X48978037Y-43000500D01*
X48978039Y-43000500D01*
X49121963Y-43000500D01*
X49121964Y-43000499D01*
X49260053Y-42959953D01*
X49381128Y-42882143D01*
X49475377Y-42773373D01*
X49535165Y-42642457D01*
X49555647Y-42500000D01*
X50644353Y-42500000D01*
X50664834Y-42642454D01*
X50664834Y-42642455D01*
X50664835Y-42642457D01*
X50724623Y-42773373D01*
X50818868Y-42882139D01*
X50818869Y-42882140D01*
X50818872Y-42882143D01*
X50939947Y-42959953D01*
X51046403Y-42991211D01*
X51078035Y-43000499D01*
X51078037Y-43000500D01*
X51078039Y-43000500D01*
X51221963Y-43000500D01*
X51221964Y-43000499D01*
X51360053Y-42959953D01*
X51481128Y-42882143D01*
X51575377Y-42773373D01*
X51635165Y-42642457D01*
X51655647Y-42500000D01*
X52744353Y-42500000D01*
X52764834Y-42642454D01*
X52764834Y-42642455D01*
X52764835Y-42642457D01*
X52824623Y-42773373D01*
X52918868Y-42882139D01*
X52918869Y-42882140D01*
X52918872Y-42882143D01*
X53039947Y-42959953D01*
X53146403Y-42991211D01*
X53178035Y-43000499D01*
X53178037Y-43000500D01*
X53178039Y-43000500D01*
X53321963Y-43000500D01*
X53321964Y-43000499D01*
X53460053Y-42959953D01*
X53581128Y-42882143D01*
X53675377Y-42773373D01*
X53735165Y-42642457D01*
X53755647Y-42500000D01*
X60244353Y-42500000D01*
X60264834Y-42642454D01*
X60264834Y-42642455D01*
X60264835Y-42642457D01*
X60324623Y-42773373D01*
X60418868Y-42882139D01*
X60418869Y-42882140D01*
X60418872Y-42882143D01*
X60539947Y-42959953D01*
X60646403Y-42991211D01*
X60678035Y-43000499D01*
X60678037Y-43000500D01*
X60678039Y-43000500D01*
X60821963Y-43000500D01*
X60821964Y-43000499D01*
X60960053Y-42959953D01*
X61081128Y-42882143D01*
X61175377Y-42773373D01*
X61235165Y-42642457D01*
X61255647Y-42500000D01*
X62344353Y-42500000D01*
X62364834Y-42642454D01*
X62364834Y-42642455D01*
X62364835Y-42642457D01*
X62424623Y-42773373D01*
X62518868Y-42882139D01*
X62518869Y-42882140D01*
X62518872Y-42882143D01*
X62639947Y-42959953D01*
X62746403Y-42991211D01*
X62778035Y-43000499D01*
X62778037Y-43000500D01*
X62778039Y-43000500D01*
X62921963Y-43000500D01*
X62921964Y-43000499D01*
X63060053Y-42959953D01*
X63181128Y-42882143D01*
X63275377Y-42773373D01*
X63335165Y-42642457D01*
X63355647Y-42500000D01*
X64444353Y-42500000D01*
X64464834Y-42642454D01*
X64464834Y-42642455D01*
X64464835Y-42642457D01*
X64524623Y-42773373D01*
X64618868Y-42882139D01*
X64618869Y-42882140D01*
X64618872Y-42882143D01*
X64739947Y-42959953D01*
X64846403Y-42991211D01*
X64878035Y-43000499D01*
X64878037Y-43000500D01*
X64878039Y-43000500D01*
X65021963Y-43000500D01*
X65021964Y-43000499D01*
X65160053Y-42959953D01*
X65281128Y-42882143D01*
X65375377Y-42773373D01*
X65435165Y-42642457D01*
X65455647Y-42500000D01*
X65435165Y-42357543D01*
X65427319Y-42340364D01*
X65423309Y-42289907D01*
X65452670Y-42248674D01*
X65454600Y-42247390D01*
X65534993Y-42195724D01*
X65584367Y-42184573D01*
X65615006Y-42195725D01*
X65714943Y-42259951D01*
X65714947Y-42259953D01*
X65802311Y-42285605D01*
X65853035Y-42300499D01*
X65853037Y-42300500D01*
X65853039Y-42300500D01*
X65996963Y-42300500D01*
X65996964Y-42300499D01*
X66135053Y-42259953D01*
X66256128Y-42182143D01*
X66350377Y-42073373D01*
X66357687Y-42057365D01*
X66393195Y-42021290D01*
X66443585Y-42016478D01*
X66485278Y-42045182D01*
X66492311Y-42057364D01*
X66499623Y-42073373D01*
X66538165Y-42117853D01*
X66596170Y-42184796D01*
X66614235Y-42232082D01*
X66607557Y-42263996D01*
X66564834Y-42357545D01*
X66544353Y-42500000D01*
X66564834Y-42642454D01*
X66564834Y-42642455D01*
X66564835Y-42642457D01*
X66624623Y-42773373D01*
X66718868Y-42882139D01*
X66718869Y-42882140D01*
X66718872Y-42882143D01*
X66839947Y-42959953D01*
X66946403Y-42991211D01*
X66978035Y-43000499D01*
X66978037Y-43000500D01*
X66978039Y-43000500D01*
X67121963Y-43000500D01*
X67121964Y-43000499D01*
X67260053Y-42959953D01*
X67381128Y-42882143D01*
X67475377Y-42773373D01*
X67535165Y-42642457D01*
X67555647Y-42500000D01*
X68644353Y-42500000D01*
X68664834Y-42642454D01*
X68664834Y-42642455D01*
X68664835Y-42642457D01*
X68724623Y-42773373D01*
X68818868Y-42882139D01*
X68818869Y-42882140D01*
X68818872Y-42882143D01*
X68939947Y-42959953D01*
X69046403Y-42991211D01*
X69078035Y-43000499D01*
X69078037Y-43000500D01*
X69078039Y-43000500D01*
X69221963Y-43000500D01*
X69221964Y-43000499D01*
X69360053Y-42959953D01*
X69481128Y-42882143D01*
X69575377Y-42773373D01*
X69635165Y-42642457D01*
X69655647Y-42500000D01*
X70744353Y-42500000D01*
X70764834Y-42642454D01*
X70764834Y-42642455D01*
X70764835Y-42642457D01*
X70824623Y-42773373D01*
X70918868Y-42882139D01*
X70918869Y-42882140D01*
X70918872Y-42882143D01*
X71039947Y-42959953D01*
X71146403Y-42991211D01*
X71178035Y-43000499D01*
X71178037Y-43000500D01*
X71178039Y-43000500D01*
X71321963Y-43000500D01*
X71321964Y-43000499D01*
X71460053Y-42959953D01*
X71581128Y-42882143D01*
X71675377Y-42773373D01*
X71735165Y-42642457D01*
X71755647Y-42500000D01*
X71735165Y-42357543D01*
X71675377Y-42226627D01*
X71636828Y-42182139D01*
X71581131Y-42117860D01*
X71581129Y-42117859D01*
X71581128Y-42117857D01*
X71524182Y-42081260D01*
X71460054Y-42040047D01*
X71460050Y-42040046D01*
X71321964Y-41999500D01*
X71321961Y-41999500D01*
X71178039Y-41999500D01*
X71178036Y-41999500D01*
X71039949Y-42040046D01*
X71039945Y-42040047D01*
X70918875Y-42117855D01*
X70918868Y-42117860D01*
X70824623Y-42226626D01*
X70764834Y-42357545D01*
X70744353Y-42500000D01*
X69655647Y-42500000D01*
X69635165Y-42357543D01*
X69575377Y-42226627D01*
X69536828Y-42182139D01*
X69481131Y-42117860D01*
X69481129Y-42117859D01*
X69481128Y-42117857D01*
X69424182Y-42081260D01*
X69360054Y-42040047D01*
X69360050Y-42040046D01*
X69221964Y-41999500D01*
X69221961Y-41999500D01*
X69078039Y-41999500D01*
X69078036Y-41999500D01*
X68939949Y-42040046D01*
X68939945Y-42040047D01*
X68818875Y-42117855D01*
X68818868Y-42117860D01*
X68724623Y-42226626D01*
X68664834Y-42357545D01*
X68644353Y-42500000D01*
X67555647Y-42500000D01*
X67539117Y-42385030D01*
X67549484Y-42335485D01*
X67589274Y-42304195D01*
X67612364Y-42300500D01*
X67696963Y-42300500D01*
X67696964Y-42300499D01*
X67835053Y-42259953D01*
X67956128Y-42182143D01*
X68050377Y-42073373D01*
X68110165Y-41942457D01*
X68130647Y-41800000D01*
X68110165Y-41657543D01*
X68050377Y-41526627D01*
X67986197Y-41452559D01*
X67956131Y-41417860D01*
X67956129Y-41417859D01*
X67956128Y-41417857D01*
X67899182Y-41381260D01*
X67835054Y-41340047D01*
X67835050Y-41340046D01*
X67696964Y-41299500D01*
X67696961Y-41299500D01*
X67553039Y-41299500D01*
X67553036Y-41299500D01*
X67414949Y-41340046D01*
X67414945Y-41340048D01*
X67315007Y-41404273D01*
X67265631Y-41415425D01*
X67234993Y-41404273D01*
X67155477Y-41353172D01*
X67135053Y-41340047D01*
X67135050Y-41340046D01*
X66996964Y-41299500D01*
X66996961Y-41299500D01*
X66853039Y-41299500D01*
X66853036Y-41299500D01*
X66714949Y-41340046D01*
X66714945Y-41340047D01*
X66593875Y-41417855D01*
X66593868Y-41417860D01*
X66499622Y-41526627D01*
X66492312Y-41542635D01*
X66456804Y-41578710D01*
X66406414Y-41583521D01*
X66364721Y-41554816D01*
X66357688Y-41542635D01*
X66350377Y-41526627D01*
X66256131Y-41417860D01*
X66256129Y-41417859D01*
X66256128Y-41417857D01*
X66199182Y-41381260D01*
X66135054Y-41340047D01*
X66135050Y-41340046D01*
X65996964Y-41299500D01*
X65996961Y-41299500D01*
X65853039Y-41299500D01*
X65853036Y-41299500D01*
X65714949Y-41340046D01*
X65714945Y-41340048D01*
X65615005Y-41404274D01*
X65565629Y-41415426D01*
X65534991Y-41404274D01*
X65534989Y-41404273D01*
X65500264Y-41381956D01*
X65435053Y-41340047D01*
X65435049Y-41340046D01*
X65296963Y-41299500D01*
X65296960Y-41299500D01*
X65153038Y-41299500D01*
X65153035Y-41299500D01*
X65014948Y-41340046D01*
X65014944Y-41340047D01*
X64893874Y-41417855D01*
X64893867Y-41417860D01*
X64799622Y-41526626D01*
X64739833Y-41657545D01*
X64719352Y-41800000D01*
X64739833Y-41942453D01*
X64739834Y-41942459D01*
X64747678Y-41959634D01*
X64751689Y-42010093D01*
X64722326Y-42051326D01*
X64720373Y-42052625D01*
X64618877Y-42117853D01*
X64618868Y-42117860D01*
X64524623Y-42226626D01*
X64464834Y-42357545D01*
X64444353Y-42500000D01*
X63355647Y-42500000D01*
X63337830Y-42376080D01*
X63348197Y-42326536D01*
X63387986Y-42295246D01*
X63390180Y-42294563D01*
X63508053Y-42259953D01*
X63607995Y-42195724D01*
X63657368Y-42184573D01*
X63688003Y-42195723D01*
X63787947Y-42259953D01*
X63875311Y-42285605D01*
X63926035Y-42300499D01*
X63926037Y-42300500D01*
X63926039Y-42300500D01*
X64069963Y-42300500D01*
X64069964Y-42300499D01*
X64208053Y-42259953D01*
X64329128Y-42182143D01*
X64423377Y-42073373D01*
X64483165Y-41942457D01*
X64503647Y-41800000D01*
X64483165Y-41657543D01*
X64423377Y-41526627D01*
X64359197Y-41452559D01*
X64329131Y-41417860D01*
X64329129Y-41417859D01*
X64329128Y-41417857D01*
X64272182Y-41381260D01*
X64208054Y-41340047D01*
X64208050Y-41340046D01*
X64069964Y-41299500D01*
X64069961Y-41299500D01*
X63926039Y-41299500D01*
X63926036Y-41299500D01*
X63787949Y-41340046D01*
X63787945Y-41340048D01*
X63688007Y-41404273D01*
X63638631Y-41415425D01*
X63607993Y-41404273D01*
X63528477Y-41353172D01*
X63508053Y-41340047D01*
X63508050Y-41340046D01*
X63369964Y-41299500D01*
X63369961Y-41299500D01*
X63226039Y-41299500D01*
X63226036Y-41299500D01*
X63087949Y-41340046D01*
X63087945Y-41340047D01*
X62966875Y-41417855D01*
X62966868Y-41417860D01*
X62872623Y-41526626D01*
X62812834Y-41657545D01*
X62792353Y-41800000D01*
X62810169Y-41923917D01*
X62799801Y-41973463D01*
X62760012Y-42004753D01*
X62757771Y-42005450D01*
X62639947Y-42040046D01*
X62639945Y-42040047D01*
X62518875Y-42117855D01*
X62518868Y-42117860D01*
X62424623Y-42226626D01*
X62364834Y-42357545D01*
X62344353Y-42500000D01*
X61255647Y-42500000D01*
X61235165Y-42357543D01*
X61175377Y-42226627D01*
X61136828Y-42182139D01*
X61081131Y-42117860D01*
X61081129Y-42117859D01*
X61081128Y-42117857D01*
X61024182Y-42081260D01*
X60960054Y-42040047D01*
X60960050Y-42040046D01*
X60821964Y-41999500D01*
X60821961Y-41999500D01*
X60678039Y-41999500D01*
X60678036Y-41999500D01*
X60539949Y-42040046D01*
X60539945Y-42040047D01*
X60418875Y-42117855D01*
X60418868Y-42117860D01*
X60324623Y-42226626D01*
X60264834Y-42357545D01*
X60244353Y-42500000D01*
X53755647Y-42500000D01*
X53735165Y-42357543D01*
X53675377Y-42226627D01*
X53636828Y-42182139D01*
X53581131Y-42117860D01*
X53581129Y-42117859D01*
X53581128Y-42117857D01*
X53524182Y-42081260D01*
X53460054Y-42040047D01*
X53460050Y-42040046D01*
X53321964Y-41999500D01*
X53321961Y-41999500D01*
X53178039Y-41999500D01*
X53178036Y-41999500D01*
X53039949Y-42040046D01*
X53039945Y-42040047D01*
X52918875Y-42117855D01*
X52918868Y-42117860D01*
X52824623Y-42226626D01*
X52764834Y-42357545D01*
X52744353Y-42500000D01*
X51655647Y-42500000D01*
X51635165Y-42357543D01*
X51575377Y-42226627D01*
X51536828Y-42182139D01*
X51481131Y-42117860D01*
X51481129Y-42117859D01*
X51481128Y-42117857D01*
X51424182Y-42081260D01*
X51360054Y-42040047D01*
X51360050Y-42040046D01*
X51221964Y-41999500D01*
X51221961Y-41999500D01*
X51078039Y-41999500D01*
X51078036Y-41999500D01*
X50939949Y-42040046D01*
X50939945Y-42040047D01*
X50818875Y-42117855D01*
X50818868Y-42117860D01*
X50724623Y-42226626D01*
X50664834Y-42357545D01*
X50644353Y-42500000D01*
X49555647Y-42500000D01*
X49539117Y-42385030D01*
X49549484Y-42335485D01*
X49589274Y-42304195D01*
X49612364Y-42300500D01*
X49696963Y-42300500D01*
X49696964Y-42300499D01*
X49835053Y-42259953D01*
X49956128Y-42182143D01*
X50050377Y-42073373D01*
X50110165Y-41942457D01*
X50130647Y-41800000D01*
X50110165Y-41657543D01*
X50050377Y-41526627D01*
X49986197Y-41452559D01*
X49956131Y-41417860D01*
X49956129Y-41417859D01*
X49956128Y-41417857D01*
X49899182Y-41381260D01*
X49835054Y-41340047D01*
X49835050Y-41340046D01*
X49696964Y-41299500D01*
X49696961Y-41299500D01*
X49553039Y-41299500D01*
X49553036Y-41299500D01*
X49414949Y-41340046D01*
X49414945Y-41340048D01*
X49315007Y-41404273D01*
X49265631Y-41415425D01*
X49234993Y-41404273D01*
X49155477Y-41353172D01*
X49135053Y-41340047D01*
X49135050Y-41340046D01*
X48996964Y-41299500D01*
X48996961Y-41299500D01*
X48853039Y-41299500D01*
X48853036Y-41299500D01*
X48714949Y-41340046D01*
X48714945Y-41340047D01*
X48593875Y-41417855D01*
X48593868Y-41417860D01*
X48499622Y-41526627D01*
X48492312Y-41542635D01*
X48456804Y-41578710D01*
X48406414Y-41583521D01*
X48364721Y-41554816D01*
X48357688Y-41542635D01*
X48350377Y-41526627D01*
X48256131Y-41417860D01*
X48256129Y-41417859D01*
X48256128Y-41417857D01*
X48199182Y-41381260D01*
X48135054Y-41340047D01*
X48135050Y-41340046D01*
X47996964Y-41299500D01*
X47996961Y-41299500D01*
X47853039Y-41299500D01*
X47853036Y-41299500D01*
X47714949Y-41340046D01*
X47714945Y-41340048D01*
X47615007Y-41404273D01*
X47565631Y-41415425D01*
X47534993Y-41404273D01*
X47455477Y-41353172D01*
X47435053Y-41340047D01*
X47435050Y-41340046D01*
X47296964Y-41299500D01*
X47296961Y-41299500D01*
X47153039Y-41299500D01*
X47153036Y-41299500D01*
X47014949Y-41340046D01*
X47014945Y-41340047D01*
X46893875Y-41417855D01*
X46893868Y-41417860D01*
X46799623Y-41526626D01*
X46739834Y-41657545D01*
X46719353Y-41800000D01*
X46739834Y-41942453D01*
X46739835Y-41942459D01*
X46747679Y-41959634D01*
X46751690Y-42010093D01*
X46722327Y-42051326D01*
X46720383Y-42052619D01*
X46720376Y-42052625D01*
X46720374Y-42052626D01*
X46618872Y-42117857D01*
X46618868Y-42117860D01*
X46524623Y-42226626D01*
X46464834Y-42357545D01*
X46444353Y-42500000D01*
X45355647Y-42500000D01*
X45337830Y-42376080D01*
X45348197Y-42326536D01*
X45387986Y-42295246D01*
X45390180Y-42294563D01*
X45508053Y-42259953D01*
X45607995Y-42195724D01*
X45657368Y-42184573D01*
X45688003Y-42195723D01*
X45787947Y-42259953D01*
X45875311Y-42285605D01*
X45926035Y-42300499D01*
X45926037Y-42300500D01*
X45926039Y-42300500D01*
X46069963Y-42300500D01*
X46069964Y-42300499D01*
X46208053Y-42259953D01*
X46329128Y-42182143D01*
X46423377Y-42073373D01*
X46483165Y-41942457D01*
X46503647Y-41800000D01*
X46483165Y-41657543D01*
X46423377Y-41526627D01*
X46359197Y-41452559D01*
X46329131Y-41417860D01*
X46329129Y-41417859D01*
X46329128Y-41417857D01*
X46272182Y-41381260D01*
X46208054Y-41340047D01*
X46208050Y-41340046D01*
X46069964Y-41299500D01*
X46069961Y-41299500D01*
X45926039Y-41299500D01*
X45926036Y-41299500D01*
X45787949Y-41340046D01*
X45787945Y-41340048D01*
X45688007Y-41404273D01*
X45638631Y-41415425D01*
X45607993Y-41404273D01*
X45528477Y-41353172D01*
X45508053Y-41340047D01*
X45508050Y-41340046D01*
X45369964Y-41299500D01*
X45369961Y-41299500D01*
X45226039Y-41299500D01*
X45226036Y-41299500D01*
X45087949Y-41340046D01*
X45087945Y-41340047D01*
X44966875Y-41417855D01*
X44966868Y-41417860D01*
X44872623Y-41526626D01*
X44812834Y-41657545D01*
X44792353Y-41800000D01*
X44810169Y-41923917D01*
X44799801Y-41973463D01*
X44760012Y-42004753D01*
X44757771Y-42005450D01*
X44639947Y-42040046D01*
X44639945Y-42040047D01*
X44518875Y-42117855D01*
X44518868Y-42117860D01*
X44424623Y-42226626D01*
X44364834Y-42357545D01*
X44344353Y-42500000D01*
X43255647Y-42500000D01*
X43235165Y-42357543D01*
X43175377Y-42226627D01*
X43136828Y-42182139D01*
X43081131Y-42117860D01*
X43081129Y-42117859D01*
X43081128Y-42117857D01*
X43024182Y-42081260D01*
X42960054Y-42040047D01*
X42960050Y-42040046D01*
X42821964Y-41999500D01*
X42821961Y-41999500D01*
X42678039Y-41999500D01*
X42678036Y-41999500D01*
X42539949Y-42040046D01*
X42539945Y-42040047D01*
X42418875Y-42117855D01*
X42418868Y-42117860D01*
X42324623Y-42226626D01*
X42264834Y-42357545D01*
X42244353Y-42500000D01*
X41000000Y-42500000D01*
X41000000Y-40574000D01*
X41017313Y-40526434D01*
X41061150Y-40501124D01*
X41074000Y-40500000D01*
X52700000Y-40500000D01*
X52700000Y-39274000D01*
X52717313Y-39226434D01*
X52761150Y-39201124D01*
X52774000Y-39200000D01*
X61700000Y-39200000D01*
X61700000Y-38170000D01*
X61270731Y-38170000D01*
X61263739Y-38169500D01*
X61261961Y-38169500D01*
X61118039Y-38169500D01*
X61116261Y-38169500D01*
X61109269Y-38170000D01*
X60690000Y-38170000D01*
X60681674Y-38178326D01*
X60635798Y-38199718D01*
X60629348Y-38200000D01*
X59819746Y-38200000D01*
X59772180Y-38182687D01*
X59746870Y-38138850D01*
X59746286Y-38117080D01*
X59755645Y-38040003D01*
X59755645Y-38039996D01*
X59735140Y-37871128D01*
X59674818Y-37712070D01*
X59671660Y-37707495D01*
X59579470Y-37573936D01*
X59566698Y-37524957D01*
X59588398Y-37479225D01*
X59621506Y-37461671D01*
X59621500Y-37461655D01*
X59621675Y-37461582D01*
X59625936Y-37459323D01*
X59628231Y-37458867D01*
X59694552Y-37414552D01*
X59738867Y-37348231D01*
X59750500Y-37289748D01*
X59750500Y-36770000D01*
X62642353Y-36770000D01*
X62662834Y-36912454D01*
X62722623Y-37043373D01*
X62816868Y-37152139D01*
X62816869Y-37152140D01*
X62816872Y-37152143D01*
X62937947Y-37229953D01*
X63044403Y-37261211D01*
X63076035Y-37270499D01*
X63076037Y-37270500D01*
X63076039Y-37270500D01*
X63219963Y-37270500D01*
X63219964Y-37270499D01*
X63358053Y-37229953D01*
X63479128Y-37152143D01*
X63573377Y-37043373D01*
X63633165Y-36912457D01*
X63653647Y-36770000D01*
X63633165Y-36627543D01*
X63573377Y-36496627D01*
X63479128Y-36387857D01*
X63422182Y-36351260D01*
X63358054Y-36310047D01*
X63358050Y-36310046D01*
X63219964Y-36269500D01*
X63219961Y-36269500D01*
X63076039Y-36269500D01*
X63076036Y-36269500D01*
X62937949Y-36310046D01*
X62937945Y-36310047D01*
X62816875Y-36387855D01*
X62816868Y-36387860D01*
X62722623Y-36496626D01*
X62662834Y-36627545D01*
X62642353Y-36770000D01*
X59750500Y-36770000D01*
X59750500Y-36250252D01*
X59738867Y-36191769D01*
X59694552Y-36125448D01*
X59672343Y-36110608D01*
X59628232Y-36081133D01*
X59628233Y-36081133D01*
X59598989Y-36075316D01*
X59569748Y-36069500D01*
X58530252Y-36069500D01*
X58501010Y-36075316D01*
X58471767Y-36081133D01*
X58405449Y-36125447D01*
X58405447Y-36125449D01*
X58361133Y-36191767D01*
X58349500Y-36250253D01*
X58349500Y-37289746D01*
X58361133Y-37348232D01*
X58390608Y-37392343D01*
X58405448Y-37414552D01*
X58438494Y-37436633D01*
X58471765Y-37458865D01*
X58471766Y-37458865D01*
X58471769Y-37458867D01*
X58474063Y-37459323D01*
X58476628Y-37460879D01*
X58478500Y-37461655D01*
X58478380Y-37461943D01*
X58517337Y-37485581D01*
X58533609Y-37533513D01*
X58520528Y-37573938D01*
X58425181Y-37712070D01*
X58364859Y-37871128D01*
X58344355Y-38039996D01*
X58344355Y-38040003D01*
X58353714Y-38117080D01*
X58342262Y-38166386D01*
X58301795Y-38196795D01*
X58280254Y-38200000D01*
X51700000Y-38200000D01*
X51700000Y-39426000D01*
X51682687Y-39473566D01*
X51638850Y-39498876D01*
X51626000Y-39500000D01*
X43774000Y-39500000D01*
X43726434Y-39482687D01*
X43701124Y-39438850D01*
X43700000Y-39426000D01*
X43700000Y-38170000D01*
X43270731Y-38170000D01*
X43263739Y-38169500D01*
X43261961Y-38169500D01*
X43118039Y-38169500D01*
X43116261Y-38169500D01*
X43109269Y-38170000D01*
X42690000Y-38170000D01*
X42690000Y-38625429D01*
X42689247Y-38635959D01*
X42684353Y-38669999D01*
X42689247Y-38704038D01*
X42690000Y-38714569D01*
X42690000Y-39213361D01*
X42699718Y-39234202D01*
X42700000Y-39240652D01*
X42700000Y-39426000D01*
X42682687Y-39473566D01*
X42638850Y-39498876D01*
X42626000Y-39500000D01*
X41074000Y-39500000D01*
X41026434Y-39482687D01*
X41001124Y-39438850D01*
X41000000Y-39426000D01*
X41000000Y-38814500D01*
X41017313Y-38766934D01*
X41061150Y-38741624D01*
X41074000Y-38740500D01*
X41135052Y-38740500D01*
X41135056Y-38740500D01*
X41300225Y-38699790D01*
X41450852Y-38620734D01*
X41578183Y-38507929D01*
X41674818Y-38367930D01*
X41735140Y-38208872D01*
X41748299Y-38100500D01*
X41755645Y-38040003D01*
X41755645Y-38039996D01*
X41735140Y-37871128D01*
X41674818Y-37712070D01*
X41671660Y-37707495D01*
X41579470Y-37573936D01*
X41566698Y-37524957D01*
X41588398Y-37479225D01*
X41621506Y-37461671D01*
X41621500Y-37461655D01*
X41621675Y-37461582D01*
X41625936Y-37459323D01*
X41628231Y-37458867D01*
X41694552Y-37414552D01*
X41738867Y-37348231D01*
X41750500Y-37289748D01*
X41750500Y-36770000D01*
X44642353Y-36770000D01*
X44662834Y-36912454D01*
X44722623Y-37043373D01*
X44816868Y-37152139D01*
X44816869Y-37152140D01*
X44816872Y-37152143D01*
X44937947Y-37229953D01*
X45044403Y-37261211D01*
X45076035Y-37270499D01*
X45076037Y-37270500D01*
X45076039Y-37270500D01*
X45219963Y-37270500D01*
X45219964Y-37270499D01*
X45358053Y-37229953D01*
X45479128Y-37152143D01*
X45573377Y-37043373D01*
X45633165Y-36912457D01*
X45653647Y-36770000D01*
X45633165Y-36627543D01*
X45573377Y-36496627D01*
X45479128Y-36387857D01*
X45422182Y-36351260D01*
X45358054Y-36310047D01*
X45358050Y-36310046D01*
X45219964Y-36269500D01*
X45219961Y-36269500D01*
X45076039Y-36269500D01*
X45076036Y-36269500D01*
X44937949Y-36310046D01*
X44937945Y-36310047D01*
X44816875Y-36387855D01*
X44816868Y-36387860D01*
X44722623Y-36496626D01*
X44662834Y-36627545D01*
X44642353Y-36770000D01*
X41750500Y-36770000D01*
X41750500Y-36250252D01*
X41738867Y-36191769D01*
X41694552Y-36125448D01*
X41672343Y-36110608D01*
X41628232Y-36081133D01*
X41628233Y-36081133D01*
X41598989Y-36075316D01*
X41569748Y-36069500D01*
X41074000Y-36069500D01*
X41026434Y-36052187D01*
X41001124Y-36008350D01*
X41000000Y-35995500D01*
X41000000Y-35700000D01*
X42684353Y-35700000D01*
X42704834Y-35842454D01*
X42764623Y-35973373D01*
X42858868Y-36082139D01*
X42858869Y-36082140D01*
X42858872Y-36082143D01*
X42979947Y-36159953D01*
X43086403Y-36191211D01*
X43118035Y-36200499D01*
X43118037Y-36200500D01*
X43118039Y-36200500D01*
X43261963Y-36200500D01*
X43261964Y-36200499D01*
X43400053Y-36159953D01*
X43521128Y-36082143D01*
X43615377Y-35973373D01*
X43675165Y-35842457D01*
X43695647Y-35700000D01*
X60684353Y-35700000D01*
X60704834Y-35842454D01*
X60764623Y-35973373D01*
X60858868Y-36082139D01*
X60858869Y-36082140D01*
X60858872Y-36082143D01*
X60979947Y-36159953D01*
X61086403Y-36191211D01*
X61118035Y-36200499D01*
X61118037Y-36200500D01*
X61118039Y-36200500D01*
X61261963Y-36200500D01*
X61261964Y-36200499D01*
X61400053Y-36159953D01*
X61521128Y-36082143D01*
X61615377Y-35973373D01*
X61675165Y-35842457D01*
X61695647Y-35700000D01*
X61681269Y-35600000D01*
X70894353Y-35600000D01*
X70914834Y-35742454D01*
X70914834Y-35742455D01*
X70914835Y-35742457D01*
X70960503Y-35842454D01*
X70974623Y-35873373D01*
X71068868Y-35982139D01*
X71068869Y-35982140D01*
X71068872Y-35982143D01*
X71189947Y-36059953D01*
X71296403Y-36091211D01*
X71328035Y-36100499D01*
X71328037Y-36100500D01*
X71328039Y-36100500D01*
X71471963Y-36100500D01*
X71471964Y-36100499D01*
X71610053Y-36059953D01*
X71659994Y-36027857D01*
X71709367Y-36016706D01*
X71740005Y-36027856D01*
X71789947Y-36059953D01*
X71896403Y-36091211D01*
X71928035Y-36100499D01*
X71928037Y-36100500D01*
X71928039Y-36100500D01*
X72071963Y-36100500D01*
X72071964Y-36100499D01*
X72210053Y-36059953D01*
X72259994Y-36027857D01*
X72309367Y-36016706D01*
X72340005Y-36027856D01*
X72389947Y-36059953D01*
X72496403Y-36091211D01*
X72528035Y-36100499D01*
X72528037Y-36100500D01*
X72528039Y-36100500D01*
X72671963Y-36100500D01*
X72671964Y-36100499D01*
X72810053Y-36059953D01*
X72931128Y-35982143D01*
X73025377Y-35873373D01*
X73085165Y-35742457D01*
X73105647Y-35600000D01*
X73085165Y-35457543D01*
X73027254Y-35330738D01*
X73023244Y-35280281D01*
X73027251Y-35269267D01*
X73085165Y-35142457D01*
X73105647Y-35000000D01*
X73085165Y-34857543D01*
X73027254Y-34730738D01*
X73023244Y-34680281D01*
X73027251Y-34669267D01*
X73085165Y-34542457D01*
X73105647Y-34400000D01*
X73085165Y-34257543D01*
X73025377Y-34126627D01*
X73001814Y-34099434D01*
X72931131Y-34017860D01*
X72931129Y-34017859D01*
X72931128Y-34017857D01*
X72861122Y-33972867D01*
X72810054Y-33940047D01*
X72810050Y-33940046D01*
X72671964Y-33899500D01*
X72671961Y-33899500D01*
X72528039Y-33899500D01*
X72528036Y-33899500D01*
X72389949Y-33940046D01*
X72389945Y-33940048D01*
X72340007Y-33972141D01*
X72290632Y-33983293D01*
X72259993Y-33972141D01*
X72239332Y-33958863D01*
X72210053Y-33940047D01*
X72210050Y-33940046D01*
X72071964Y-33899500D01*
X72071961Y-33899500D01*
X71928039Y-33899500D01*
X71928036Y-33899500D01*
X71789949Y-33940046D01*
X71789945Y-33940048D01*
X71740007Y-33972141D01*
X71690632Y-33983293D01*
X71659993Y-33972141D01*
X71639332Y-33958863D01*
X71610053Y-33940047D01*
X71610050Y-33940046D01*
X71471964Y-33899500D01*
X71471961Y-33899500D01*
X71328039Y-33899500D01*
X71328036Y-33899500D01*
X71189949Y-33940046D01*
X71189945Y-33940047D01*
X71068875Y-34017855D01*
X71068868Y-34017860D01*
X70974623Y-34126626D01*
X70914834Y-34257545D01*
X70894353Y-34400000D01*
X70914834Y-34542454D01*
X70972744Y-34669259D01*
X70976755Y-34719719D01*
X70972744Y-34730741D01*
X70914834Y-34857545D01*
X70894353Y-35000000D01*
X70914834Y-35142454D01*
X70972744Y-35269259D01*
X70976755Y-35319719D01*
X70972744Y-35330741D01*
X70914834Y-35457545D01*
X70894353Y-35600000D01*
X61681269Y-35600000D01*
X61675165Y-35557543D01*
X61615377Y-35426627D01*
X61532292Y-35330741D01*
X61521131Y-35317860D01*
X61521129Y-35317859D01*
X61521128Y-35317857D01*
X61462658Y-35280281D01*
X61400054Y-35240047D01*
X61400050Y-35240046D01*
X61261964Y-35199500D01*
X61261961Y-35199500D01*
X61118039Y-35199500D01*
X61118036Y-35199500D01*
X60979949Y-35240046D01*
X60979945Y-35240047D01*
X60858875Y-35317855D01*
X60858868Y-35317860D01*
X60764623Y-35426626D01*
X60704834Y-35557545D01*
X60684353Y-35700000D01*
X43695647Y-35700000D01*
X43675165Y-35557543D01*
X43615377Y-35426627D01*
X43532292Y-35330741D01*
X43521131Y-35317860D01*
X43521129Y-35317859D01*
X43521128Y-35317857D01*
X43462658Y-35280281D01*
X43400054Y-35240047D01*
X43400050Y-35240046D01*
X43261964Y-35199500D01*
X43261961Y-35199500D01*
X43118039Y-35199500D01*
X43118036Y-35199500D01*
X42979949Y-35240046D01*
X42979945Y-35240047D01*
X42858875Y-35317855D01*
X42858868Y-35317860D01*
X42764623Y-35426626D01*
X42704834Y-35557545D01*
X42684353Y-35700000D01*
X41000000Y-35700000D01*
X41000000Y-32814500D01*
X41017313Y-32766934D01*
X41061150Y-32741624D01*
X41074000Y-32740500D01*
X41135052Y-32740500D01*
X41135056Y-32740500D01*
X41300225Y-32699790D01*
X41450852Y-32620734D01*
X41453251Y-32618609D01*
X41500336Y-32600027D01*
X41502321Y-32600000D01*
X42613330Y-32600000D01*
X42660896Y-32617313D01*
X42686206Y-32661150D01*
X42686577Y-32684530D01*
X42684353Y-32700000D01*
X42688254Y-32727132D01*
X42689247Y-32734038D01*
X42690000Y-32744569D01*
X42690000Y-33200000D01*
X42700000Y-33200000D01*
X43109269Y-33200000D01*
X43116261Y-33200500D01*
X43118039Y-33200500D01*
X43263739Y-33200500D01*
X43270731Y-33200000D01*
X43700000Y-33200000D01*
X43700000Y-32674000D01*
X43717313Y-32626434D01*
X43761150Y-32601124D01*
X43774000Y-32600000D01*
X44100000Y-32600000D01*
X44100000Y-32574000D01*
X44117313Y-32526434D01*
X44161150Y-32501124D01*
X44174000Y-32500000D01*
X44200000Y-32500000D01*
X44200000Y-32474000D01*
X44217313Y-32426434D01*
X44261150Y-32401124D01*
X44274000Y-32400000D01*
X44300000Y-32400000D01*
X44300000Y-31974000D01*
X44317313Y-31926434D01*
X44361150Y-31901124D01*
X44374000Y-31900000D01*
X46000000Y-31900000D01*
X46000000Y-31874000D01*
X46017313Y-31826434D01*
X46061150Y-31801124D01*
X46074000Y-31800000D01*
X46100000Y-31800000D01*
X46100000Y-31774000D01*
X46117313Y-31726434D01*
X46161150Y-31701124D01*
X46174000Y-31700000D01*
X46200000Y-31700000D01*
X46200000Y-31674000D01*
X46217313Y-31626434D01*
X46261150Y-31601124D01*
X46274000Y-31600000D01*
X46300000Y-31600000D01*
X46300000Y-31574000D01*
X46317313Y-31526434D01*
X46361150Y-31501124D01*
X46374000Y-31500000D01*
X51626000Y-31500000D01*
X51673566Y-31517313D01*
X51698876Y-31561150D01*
X51700000Y-31574000D01*
X51700000Y-33200000D01*
X60690000Y-33200000D01*
X61109269Y-33200000D01*
X61116261Y-33200500D01*
X61118039Y-33200500D01*
X61263739Y-33200500D01*
X61270731Y-33200000D01*
X61700000Y-33200000D01*
X61700000Y-32200000D01*
X61270731Y-32200000D01*
X61263739Y-32199500D01*
X61261961Y-32199500D01*
X61118039Y-32199500D01*
X61116261Y-32199500D01*
X61109269Y-32200000D01*
X59819746Y-32200000D01*
X59772180Y-32182687D01*
X59746870Y-32138850D01*
X59746286Y-32117080D01*
X59755645Y-32040003D01*
X59755645Y-32039996D01*
X59735140Y-31871128D01*
X59674818Y-31712070D01*
X59615707Y-31626434D01*
X59579470Y-31573936D01*
X59566698Y-31524957D01*
X59578540Y-31500000D01*
X60684353Y-31500000D01*
X60704834Y-31642454D01*
X60704834Y-31642455D01*
X60704835Y-31642457D01*
X60764623Y-31773373D01*
X60858868Y-31882139D01*
X60858869Y-31882140D01*
X60858872Y-31882143D01*
X60951474Y-31941654D01*
X60969983Y-31953550D01*
X60979947Y-31959953D01*
X61086403Y-31991211D01*
X61118035Y-32000499D01*
X61118037Y-32000500D01*
X61118039Y-32000500D01*
X61261963Y-32000500D01*
X61261964Y-32000499D01*
X61400053Y-31959953D01*
X61521128Y-31882143D01*
X61615377Y-31773373D01*
X61675165Y-31642457D01*
X61695647Y-31500000D01*
X61675165Y-31357543D01*
X61615377Y-31226627D01*
X61550837Y-31152143D01*
X61521131Y-31117860D01*
X61521129Y-31117859D01*
X61521128Y-31117857D01*
X61464182Y-31081260D01*
X61400054Y-31040047D01*
X61400050Y-31040046D01*
X61261964Y-30999500D01*
X61261961Y-30999500D01*
X61118039Y-30999500D01*
X61118036Y-30999500D01*
X60979949Y-31040046D01*
X60979945Y-31040047D01*
X60858875Y-31117855D01*
X60858868Y-31117860D01*
X60764623Y-31226626D01*
X60704834Y-31357545D01*
X60684353Y-31500000D01*
X59578540Y-31500000D01*
X59588398Y-31479225D01*
X59621506Y-31461671D01*
X59621500Y-31461655D01*
X59621675Y-31461582D01*
X59625936Y-31459323D01*
X59628231Y-31458867D01*
X59694552Y-31414552D01*
X59738867Y-31348231D01*
X59750500Y-31289748D01*
X59750500Y-30770000D01*
X62642353Y-30770000D01*
X62662834Y-30912454D01*
X62662834Y-30912455D01*
X62662835Y-30912457D01*
X62720565Y-31038867D01*
X62722623Y-31043373D01*
X62816868Y-31152139D01*
X62816869Y-31152140D01*
X62816872Y-31152143D01*
X62909474Y-31211654D01*
X62932771Y-31226627D01*
X62937947Y-31229953D01*
X63031911Y-31257543D01*
X63076035Y-31270499D01*
X63076037Y-31270500D01*
X63076039Y-31270500D01*
X63219963Y-31270500D01*
X63219964Y-31270499D01*
X63358053Y-31229953D01*
X63479128Y-31152143D01*
X63573377Y-31043373D01*
X63633165Y-30912457D01*
X63653647Y-30770000D01*
X63633165Y-30627543D01*
X63573377Y-30496627D01*
X63549814Y-30469434D01*
X63479131Y-30387860D01*
X63479129Y-30387859D01*
X63479128Y-30387857D01*
X63422182Y-30351260D01*
X63358054Y-30310047D01*
X63358050Y-30310046D01*
X63219964Y-30269500D01*
X63219961Y-30269500D01*
X63076039Y-30269500D01*
X63076036Y-30269500D01*
X62937949Y-30310046D01*
X62937945Y-30310047D01*
X62816875Y-30387855D01*
X62816868Y-30387860D01*
X62722623Y-30496626D01*
X62662834Y-30627545D01*
X62642353Y-30770000D01*
X59750500Y-30770000D01*
X59750500Y-30250252D01*
X59738867Y-30191769D01*
X59694552Y-30125448D01*
X59656467Y-30100000D01*
X59628232Y-30081133D01*
X59628233Y-30081133D01*
X59598989Y-30075316D01*
X59569748Y-30069500D01*
X58530252Y-30069500D01*
X58501010Y-30075316D01*
X58471767Y-30081133D01*
X58405449Y-30125447D01*
X58405447Y-30125449D01*
X58361133Y-30191767D01*
X58349500Y-30250253D01*
X58349500Y-31289746D01*
X58361133Y-31348232D01*
X58390608Y-31392343D01*
X58405448Y-31414552D01*
X58438494Y-31436633D01*
X58471765Y-31458865D01*
X58471766Y-31458865D01*
X58471769Y-31458867D01*
X58474063Y-31459323D01*
X58476628Y-31460879D01*
X58478500Y-31461655D01*
X58478380Y-31461943D01*
X58517337Y-31485581D01*
X58533609Y-31533513D01*
X58520528Y-31573938D01*
X58425181Y-31712070D01*
X58364859Y-31871128D01*
X58344355Y-32039996D01*
X58344355Y-32040003D01*
X58353714Y-32117080D01*
X58342262Y-32166386D01*
X58301795Y-32196795D01*
X58280254Y-32200000D01*
X56162292Y-32200000D01*
X56114726Y-32182687D01*
X56089416Y-32138850D01*
X56089045Y-32115469D01*
X56099895Y-32040003D01*
X56105647Y-32000000D01*
X56085165Y-31857543D01*
X56027254Y-31730738D01*
X56023244Y-31680281D01*
X56027251Y-31669267D01*
X56085165Y-31542457D01*
X56105647Y-31400000D01*
X56085165Y-31257543D01*
X56025377Y-31126627D01*
X55931128Y-31017857D01*
X55861432Y-30973066D01*
X55810054Y-30940047D01*
X55810050Y-30940046D01*
X55671964Y-30899500D01*
X55671961Y-30899500D01*
X55528039Y-30899500D01*
X55528036Y-30899500D01*
X55389949Y-30940046D01*
X55389945Y-30940048D01*
X55340007Y-30972141D01*
X55290632Y-30983293D01*
X55259993Y-30972141D01*
X55225123Y-30949732D01*
X55210053Y-30940047D01*
X55210050Y-30940046D01*
X55071964Y-30899500D01*
X55071961Y-30899500D01*
X54928039Y-30899500D01*
X54928036Y-30899500D01*
X54789949Y-30940046D01*
X54789945Y-30940048D01*
X54740007Y-30972141D01*
X54690632Y-30983293D01*
X54659993Y-30972141D01*
X54625123Y-30949732D01*
X54610053Y-30940047D01*
X54610050Y-30940046D01*
X54471964Y-30899500D01*
X54471961Y-30899500D01*
X54328039Y-30899500D01*
X54328036Y-30899500D01*
X54189949Y-30940046D01*
X54189945Y-30940047D01*
X54068875Y-31017855D01*
X54068868Y-31017860D01*
X53974623Y-31126626D01*
X53914834Y-31257545D01*
X53894353Y-31400000D01*
X53914834Y-31542454D01*
X53914834Y-31542455D01*
X53914835Y-31542457D01*
X53933208Y-31582687D01*
X53972744Y-31669259D01*
X53976755Y-31719719D01*
X53972744Y-31730741D01*
X53914834Y-31857545D01*
X53901031Y-31953550D01*
X53894353Y-32000000D01*
X53900103Y-32039996D01*
X53910955Y-32115469D01*
X53900588Y-32165015D01*
X53860798Y-32196305D01*
X53837708Y-32200000D01*
X52774000Y-32200000D01*
X52726434Y-32182687D01*
X52701124Y-32138850D01*
X52700000Y-32126000D01*
X52700000Y-30500000D01*
X46300000Y-30500000D01*
X45610095Y-30500000D01*
X45562529Y-30482687D01*
X45554170Y-30474460D01*
X45479132Y-30387861D01*
X45479130Y-30387859D01*
X45479128Y-30387857D01*
X45422182Y-30351260D01*
X45358054Y-30310047D01*
X45358050Y-30310046D01*
X45219964Y-30269500D01*
X45219961Y-30269500D01*
X45076039Y-30269500D01*
X45076036Y-30269500D01*
X44937949Y-30310046D01*
X44937945Y-30310047D01*
X44816875Y-30387855D01*
X44816868Y-30387860D01*
X44722623Y-30496626D01*
X44662834Y-30627545D01*
X44642353Y-30769999D01*
X44642353Y-30770000D01*
X44648890Y-30815470D01*
X44638524Y-30865014D01*
X44598735Y-30896305D01*
X44575644Y-30900000D01*
X43300000Y-30900000D01*
X43300000Y-30925500D01*
X43282687Y-30973066D01*
X43238850Y-30998376D01*
X43226000Y-30999500D01*
X43118036Y-30999500D01*
X42979949Y-31040046D01*
X42979945Y-31040047D01*
X42858875Y-31117855D01*
X42858868Y-31117860D01*
X42764623Y-31226626D01*
X42704834Y-31357545D01*
X42684353Y-31500000D01*
X42686577Y-31515469D01*
X42676209Y-31565015D01*
X42636420Y-31596305D01*
X42613330Y-31600000D01*
X41659529Y-31600000D01*
X41611963Y-31582687D01*
X41586653Y-31538850D01*
X41595443Y-31489000D01*
X41623285Y-31464585D01*
X41622171Y-31462917D01*
X41655741Y-31440485D01*
X41694552Y-31414552D01*
X41738867Y-31348231D01*
X41750500Y-31289748D01*
X41750500Y-30250252D01*
X41738867Y-30191769D01*
X41694552Y-30125448D01*
X41656467Y-30100000D01*
X41628232Y-30081133D01*
X41628233Y-30081133D01*
X41598989Y-30075316D01*
X41569748Y-30069500D01*
X41074000Y-30069500D01*
X41026434Y-30052187D01*
X41001124Y-30008350D01*
X41000000Y-29995500D01*
X41000000Y-23800000D01*
X42244353Y-23800000D01*
X42264834Y-23942454D01*
X42324623Y-24073373D01*
X42418868Y-24182139D01*
X42418869Y-24182140D01*
X42418872Y-24182143D01*
X42539947Y-24259953D01*
X42646403Y-24291211D01*
X42678035Y-24300499D01*
X42678037Y-24300500D01*
X42678039Y-24300500D01*
X42821963Y-24300500D01*
X42821964Y-24300499D01*
X42960053Y-24259953D01*
X43081128Y-24182143D01*
X43175377Y-24073373D01*
X43235165Y-23942457D01*
X43255647Y-23800000D01*
X44344353Y-23800000D01*
X44364834Y-23942454D01*
X44424623Y-24073373D01*
X44518868Y-24182139D01*
X44518869Y-24182140D01*
X44518872Y-24182143D01*
X44639947Y-24259953D01*
X44746403Y-24291211D01*
X44778035Y-24300499D01*
X44778037Y-24300500D01*
X44778039Y-24300500D01*
X44921963Y-24300500D01*
X44921964Y-24300499D01*
X45060053Y-24259953D01*
X45181128Y-24182143D01*
X45275377Y-24073373D01*
X45335165Y-23942457D01*
X45355647Y-23800000D01*
X46444353Y-23800000D01*
X46464834Y-23942454D01*
X46524623Y-24073373D01*
X46618868Y-24182139D01*
X46618869Y-24182140D01*
X46618872Y-24182143D01*
X46739947Y-24259953D01*
X46846403Y-24291211D01*
X46878035Y-24300499D01*
X46878037Y-24300500D01*
X46878039Y-24300500D01*
X47021963Y-24300500D01*
X47021964Y-24300499D01*
X47160053Y-24259953D01*
X47281128Y-24182143D01*
X47375377Y-24073373D01*
X47435165Y-23942457D01*
X47455647Y-23800000D01*
X48544353Y-23800000D01*
X48564834Y-23942454D01*
X48624623Y-24073373D01*
X48718868Y-24182139D01*
X48718869Y-24182140D01*
X48718872Y-24182143D01*
X48839947Y-24259953D01*
X48946403Y-24291211D01*
X48978035Y-24300499D01*
X48978037Y-24300500D01*
X48978039Y-24300500D01*
X49121963Y-24300500D01*
X49121964Y-24300499D01*
X49260053Y-24259953D01*
X49381128Y-24182143D01*
X49475377Y-24073373D01*
X49535165Y-23942457D01*
X49555647Y-23800000D01*
X50644353Y-23800000D01*
X50664834Y-23942454D01*
X50724623Y-24073373D01*
X50818868Y-24182139D01*
X50818869Y-24182140D01*
X50818872Y-24182143D01*
X50939947Y-24259953D01*
X51046403Y-24291211D01*
X51078035Y-24300499D01*
X51078037Y-24300500D01*
X51078039Y-24300500D01*
X51221963Y-24300500D01*
X51221964Y-24300499D01*
X51360053Y-24259953D01*
X51481128Y-24182143D01*
X51575377Y-24073373D01*
X51635165Y-23942457D01*
X51655647Y-23800000D01*
X52744353Y-23800000D01*
X52764834Y-23942454D01*
X52824623Y-24073373D01*
X52918868Y-24182139D01*
X52918869Y-24182140D01*
X52918872Y-24182143D01*
X53039947Y-24259953D01*
X53146403Y-24291211D01*
X53178035Y-24300499D01*
X53178037Y-24300500D01*
X53178039Y-24300500D01*
X53321963Y-24300500D01*
X53321964Y-24300499D01*
X53460053Y-24259953D01*
X53581128Y-24182143D01*
X53675377Y-24073373D01*
X53735165Y-23942457D01*
X53755647Y-23800000D01*
X60244353Y-23800000D01*
X60264834Y-23942454D01*
X60324623Y-24073373D01*
X60418868Y-24182139D01*
X60418869Y-24182140D01*
X60418872Y-24182143D01*
X60539947Y-24259953D01*
X60646403Y-24291211D01*
X60678035Y-24300499D01*
X60678037Y-24300500D01*
X60678039Y-24300500D01*
X60821963Y-24300500D01*
X60821964Y-24300499D01*
X60960053Y-24259953D01*
X61081128Y-24182143D01*
X61175377Y-24073373D01*
X61235165Y-23942457D01*
X61255647Y-23800000D01*
X62344353Y-23800000D01*
X62364834Y-23942454D01*
X62424623Y-24073373D01*
X62518868Y-24182139D01*
X62518869Y-24182140D01*
X62518872Y-24182143D01*
X62639947Y-24259953D01*
X62746403Y-24291211D01*
X62778035Y-24300499D01*
X62778037Y-24300500D01*
X62778039Y-24300500D01*
X62921963Y-24300500D01*
X62921964Y-24300499D01*
X63060053Y-24259953D01*
X63181128Y-24182143D01*
X63275377Y-24073373D01*
X63335165Y-23942457D01*
X63355647Y-23800000D01*
X64444353Y-23800000D01*
X64464834Y-23942454D01*
X64524623Y-24073373D01*
X64618868Y-24182139D01*
X64618869Y-24182140D01*
X64618872Y-24182143D01*
X64739947Y-24259953D01*
X64846403Y-24291211D01*
X64878035Y-24300499D01*
X64878037Y-24300500D01*
X64878039Y-24300500D01*
X65021963Y-24300500D01*
X65021964Y-24300499D01*
X65160053Y-24259953D01*
X65281128Y-24182143D01*
X65375377Y-24073373D01*
X65435165Y-23942457D01*
X65455647Y-23800000D01*
X66544353Y-23800000D01*
X66564834Y-23942454D01*
X66624623Y-24073373D01*
X66718868Y-24182139D01*
X66718869Y-24182140D01*
X66718872Y-24182143D01*
X66839947Y-24259953D01*
X66946403Y-24291211D01*
X66978035Y-24300499D01*
X66978037Y-24300500D01*
X66978039Y-24300500D01*
X67121963Y-24300500D01*
X67121964Y-24300499D01*
X67260053Y-24259953D01*
X67381128Y-24182143D01*
X67475377Y-24073373D01*
X67535165Y-23942457D01*
X67555647Y-23800000D01*
X68644353Y-23800000D01*
X68664834Y-23942454D01*
X68724623Y-24073373D01*
X68818868Y-24182139D01*
X68818869Y-24182140D01*
X68818872Y-24182143D01*
X68939947Y-24259953D01*
X69046403Y-24291211D01*
X69078035Y-24300499D01*
X69078037Y-24300500D01*
X69078039Y-24300500D01*
X69221963Y-24300500D01*
X69221964Y-24300499D01*
X69360053Y-24259953D01*
X69481128Y-24182143D01*
X69575377Y-24073373D01*
X69635165Y-23942457D01*
X69655647Y-23800000D01*
X70744353Y-23800000D01*
X70764834Y-23942454D01*
X70824623Y-24073373D01*
X70918868Y-24182139D01*
X70918869Y-24182140D01*
X70918872Y-24182143D01*
X71039947Y-24259953D01*
X71146403Y-24291211D01*
X71178035Y-24300499D01*
X71178037Y-24300500D01*
X71178039Y-24300500D01*
X71321963Y-24300500D01*
X71321964Y-24300499D01*
X71460053Y-24259953D01*
X71581128Y-24182143D01*
X71675377Y-24073373D01*
X71735165Y-23942457D01*
X71755647Y-23800000D01*
X71735165Y-23657543D01*
X71675377Y-23526627D01*
X71650969Y-23498459D01*
X71632904Y-23451174D01*
X71649460Y-23403339D01*
X71650970Y-23401540D01*
X71675377Y-23373373D01*
X71735165Y-23242457D01*
X71755647Y-23100000D01*
X71735165Y-22957543D01*
X71675377Y-22826627D01*
X71581128Y-22717857D01*
X71524182Y-22681260D01*
X71460054Y-22640047D01*
X71460050Y-22640046D01*
X71321964Y-22599500D01*
X71321961Y-22599500D01*
X71178039Y-22599500D01*
X71178036Y-22599500D01*
X71039949Y-22640046D01*
X71039945Y-22640047D01*
X70918875Y-22717855D01*
X70918868Y-22717860D01*
X70824623Y-22826626D01*
X70764834Y-22957545D01*
X70744353Y-23100000D01*
X70764834Y-23242454D01*
X70824623Y-23373374D01*
X70849030Y-23401541D01*
X70867095Y-23448827D01*
X70850538Y-23496662D01*
X70849030Y-23498459D01*
X70824623Y-23526625D01*
X70764834Y-23657545D01*
X70744353Y-23800000D01*
X69655647Y-23800000D01*
X69635165Y-23657543D01*
X69575377Y-23526627D01*
X69550969Y-23498459D01*
X69532904Y-23451174D01*
X69549460Y-23403339D01*
X69550970Y-23401540D01*
X69575377Y-23373373D01*
X69635165Y-23242457D01*
X69655647Y-23100000D01*
X69635165Y-22957543D01*
X69575377Y-22826627D01*
X69481128Y-22717857D01*
X69424182Y-22681260D01*
X69360054Y-22640047D01*
X69360050Y-22640046D01*
X69221964Y-22599500D01*
X69221961Y-22599500D01*
X69078039Y-22599500D01*
X69078036Y-22599500D01*
X68939949Y-22640046D01*
X68939945Y-22640047D01*
X68818875Y-22717855D01*
X68818868Y-22717860D01*
X68724623Y-22826626D01*
X68664834Y-22957545D01*
X68644353Y-23100000D01*
X68664834Y-23242454D01*
X68724623Y-23373374D01*
X68749030Y-23401541D01*
X68767095Y-23448827D01*
X68750538Y-23496662D01*
X68749030Y-23498459D01*
X68724623Y-23526625D01*
X68664834Y-23657545D01*
X68644353Y-23800000D01*
X67555647Y-23800000D01*
X67535165Y-23657543D01*
X67475377Y-23526627D01*
X67450969Y-23498459D01*
X67432904Y-23451174D01*
X67449460Y-23403339D01*
X67450970Y-23401540D01*
X67475377Y-23373373D01*
X67535165Y-23242457D01*
X67555647Y-23100000D01*
X67535165Y-22957543D01*
X67475377Y-22826627D01*
X67381128Y-22717857D01*
X67324182Y-22681260D01*
X67260054Y-22640047D01*
X67260050Y-22640046D01*
X67121964Y-22599500D01*
X67121961Y-22599500D01*
X66978039Y-22599500D01*
X66978036Y-22599500D01*
X66839949Y-22640046D01*
X66839945Y-22640047D01*
X66718875Y-22717855D01*
X66718868Y-22717860D01*
X66624623Y-22826626D01*
X66564834Y-22957545D01*
X66544353Y-23100000D01*
X66564834Y-23242454D01*
X66624623Y-23373374D01*
X66649030Y-23401541D01*
X66667095Y-23448827D01*
X66650538Y-23496662D01*
X66649030Y-23498459D01*
X66624623Y-23526625D01*
X66564834Y-23657545D01*
X66544353Y-23800000D01*
X65455647Y-23800000D01*
X65435165Y-23657543D01*
X65375377Y-23526627D01*
X65350969Y-23498459D01*
X65332904Y-23451174D01*
X65349460Y-23403339D01*
X65350970Y-23401540D01*
X65375377Y-23373373D01*
X65435165Y-23242457D01*
X65455647Y-23100000D01*
X65435165Y-22957543D01*
X65375377Y-22826627D01*
X65281128Y-22717857D01*
X65224182Y-22681260D01*
X65160054Y-22640047D01*
X65160050Y-22640046D01*
X65021964Y-22599500D01*
X65021961Y-22599500D01*
X64878039Y-22599500D01*
X64878036Y-22599500D01*
X64739949Y-22640046D01*
X64739945Y-22640047D01*
X64618875Y-22717855D01*
X64618868Y-22717860D01*
X64524623Y-22826626D01*
X64464834Y-22957545D01*
X64444353Y-23100000D01*
X64464834Y-23242454D01*
X64524623Y-23373374D01*
X64549030Y-23401541D01*
X64567095Y-23448827D01*
X64550538Y-23496662D01*
X64549030Y-23498459D01*
X64524623Y-23526625D01*
X64464834Y-23657545D01*
X64444353Y-23800000D01*
X63355647Y-23800000D01*
X63335165Y-23657543D01*
X63275377Y-23526627D01*
X63250969Y-23498459D01*
X63232904Y-23451174D01*
X63249460Y-23403339D01*
X63250970Y-23401540D01*
X63275377Y-23373373D01*
X63335165Y-23242457D01*
X63355647Y-23100000D01*
X63335165Y-22957543D01*
X63275377Y-22826627D01*
X63181128Y-22717857D01*
X63124182Y-22681260D01*
X63060054Y-22640047D01*
X63060050Y-22640046D01*
X62921964Y-22599500D01*
X62921961Y-22599500D01*
X62778039Y-22599500D01*
X62778036Y-22599500D01*
X62639949Y-22640046D01*
X62639945Y-22640047D01*
X62518875Y-22717855D01*
X62518868Y-22717860D01*
X62424623Y-22826626D01*
X62364834Y-22957545D01*
X62344353Y-23100000D01*
X62364834Y-23242454D01*
X62424623Y-23373374D01*
X62449030Y-23401541D01*
X62467095Y-23448827D01*
X62450538Y-23496662D01*
X62449030Y-23498459D01*
X62424623Y-23526625D01*
X62364834Y-23657545D01*
X62344353Y-23800000D01*
X61255647Y-23800000D01*
X61235165Y-23657543D01*
X61175377Y-23526627D01*
X61150969Y-23498459D01*
X61132904Y-23451174D01*
X61149460Y-23403339D01*
X61150970Y-23401540D01*
X61175377Y-23373373D01*
X61235165Y-23242457D01*
X61255647Y-23100000D01*
X61235165Y-22957543D01*
X61175377Y-22826627D01*
X61081128Y-22717857D01*
X61024182Y-22681260D01*
X60960054Y-22640047D01*
X60960050Y-22640046D01*
X60821964Y-22599500D01*
X60821961Y-22599500D01*
X60678039Y-22599500D01*
X60678036Y-22599500D01*
X60539949Y-22640046D01*
X60539945Y-22640047D01*
X60418875Y-22717855D01*
X60418868Y-22717860D01*
X60324623Y-22826626D01*
X60264834Y-22957545D01*
X60244353Y-23100000D01*
X60264834Y-23242454D01*
X60324623Y-23373374D01*
X60349030Y-23401541D01*
X60367095Y-23448827D01*
X60350538Y-23496662D01*
X60349030Y-23498459D01*
X60324623Y-23526625D01*
X60264834Y-23657545D01*
X60244353Y-23800000D01*
X53755647Y-23800000D01*
X53735165Y-23657543D01*
X53675377Y-23526627D01*
X53650969Y-23498459D01*
X53632904Y-23451174D01*
X53649460Y-23403339D01*
X53650970Y-23401540D01*
X53675377Y-23373373D01*
X53735165Y-23242457D01*
X53755647Y-23100000D01*
X53735165Y-22957543D01*
X53675377Y-22826627D01*
X53581128Y-22717857D01*
X53524182Y-22681260D01*
X53460054Y-22640047D01*
X53460050Y-22640046D01*
X53321964Y-22599500D01*
X53321961Y-22599500D01*
X53178039Y-22599500D01*
X53178036Y-22599500D01*
X53039949Y-22640046D01*
X53039945Y-22640047D01*
X52918875Y-22717855D01*
X52918868Y-22717860D01*
X52824623Y-22826626D01*
X52764834Y-22957545D01*
X52744353Y-23100000D01*
X52764834Y-23242454D01*
X52824623Y-23373374D01*
X52849030Y-23401541D01*
X52867095Y-23448827D01*
X52850538Y-23496662D01*
X52849030Y-23498459D01*
X52824623Y-23526625D01*
X52764834Y-23657545D01*
X52744353Y-23800000D01*
X51655647Y-23800000D01*
X51635165Y-23657543D01*
X51575377Y-23526627D01*
X51550969Y-23498459D01*
X51532904Y-23451174D01*
X51549460Y-23403339D01*
X51550970Y-23401540D01*
X51575377Y-23373373D01*
X51635165Y-23242457D01*
X51655647Y-23100000D01*
X51635165Y-22957543D01*
X51575377Y-22826627D01*
X51481128Y-22717857D01*
X51424182Y-22681260D01*
X51360054Y-22640047D01*
X51360050Y-22640046D01*
X51221964Y-22599500D01*
X51221961Y-22599500D01*
X51078039Y-22599500D01*
X51078036Y-22599500D01*
X50939949Y-22640046D01*
X50939945Y-22640047D01*
X50818875Y-22717855D01*
X50818868Y-22717860D01*
X50724623Y-22826626D01*
X50664834Y-22957545D01*
X50644353Y-23100000D01*
X50664834Y-23242454D01*
X50724623Y-23373374D01*
X50749030Y-23401541D01*
X50767095Y-23448827D01*
X50750538Y-23496662D01*
X50749030Y-23498459D01*
X50724623Y-23526625D01*
X50664834Y-23657545D01*
X50644353Y-23800000D01*
X49555647Y-23800000D01*
X49535165Y-23657543D01*
X49475377Y-23526627D01*
X49450969Y-23498459D01*
X49432904Y-23451174D01*
X49449460Y-23403339D01*
X49450970Y-23401540D01*
X49475377Y-23373373D01*
X49535165Y-23242457D01*
X49555647Y-23100000D01*
X49535165Y-22957543D01*
X49475377Y-22826627D01*
X49381128Y-22717857D01*
X49324182Y-22681260D01*
X49260054Y-22640047D01*
X49260050Y-22640046D01*
X49121964Y-22599500D01*
X49121961Y-22599500D01*
X48978039Y-22599500D01*
X48978036Y-22599500D01*
X48839949Y-22640046D01*
X48839945Y-22640047D01*
X48718875Y-22717855D01*
X48718868Y-22717860D01*
X48624623Y-22826626D01*
X48564834Y-22957545D01*
X48544353Y-23100000D01*
X48564834Y-23242454D01*
X48624623Y-23373374D01*
X48649030Y-23401541D01*
X48667095Y-23448827D01*
X48650538Y-23496662D01*
X48649030Y-23498459D01*
X48624623Y-23526625D01*
X48564834Y-23657545D01*
X48544353Y-23800000D01*
X47455647Y-23800000D01*
X47435165Y-23657543D01*
X47375377Y-23526627D01*
X47350969Y-23498459D01*
X47332904Y-23451174D01*
X47349460Y-23403339D01*
X47350970Y-23401540D01*
X47375377Y-23373373D01*
X47435165Y-23242457D01*
X47455647Y-23100000D01*
X47435165Y-22957543D01*
X47375377Y-22826627D01*
X47281128Y-22717857D01*
X47224182Y-22681260D01*
X47160054Y-22640047D01*
X47160050Y-22640046D01*
X47021964Y-22599500D01*
X47021961Y-22599500D01*
X46878039Y-22599500D01*
X46878036Y-22599500D01*
X46739949Y-22640046D01*
X46739945Y-22640047D01*
X46618875Y-22717855D01*
X46618868Y-22717860D01*
X46524623Y-22826626D01*
X46464834Y-22957545D01*
X46444353Y-23100000D01*
X46464834Y-23242454D01*
X46524623Y-23373374D01*
X46549030Y-23401541D01*
X46567095Y-23448827D01*
X46550538Y-23496662D01*
X46549030Y-23498459D01*
X46524623Y-23526625D01*
X46464834Y-23657545D01*
X46444353Y-23800000D01*
X45355647Y-23800000D01*
X45335165Y-23657543D01*
X45275377Y-23526627D01*
X45250969Y-23498459D01*
X45232904Y-23451174D01*
X45249460Y-23403339D01*
X45250970Y-23401540D01*
X45275377Y-23373373D01*
X45335165Y-23242457D01*
X45355647Y-23100000D01*
X45335165Y-22957543D01*
X45275377Y-22826627D01*
X45181128Y-22717857D01*
X45124182Y-22681260D01*
X45060054Y-22640047D01*
X45060050Y-22640046D01*
X44921964Y-22599500D01*
X44921961Y-22599500D01*
X44778039Y-22599500D01*
X44778036Y-22599500D01*
X44639949Y-22640046D01*
X44639945Y-22640047D01*
X44518875Y-22717855D01*
X44518868Y-22717860D01*
X44424623Y-22826626D01*
X44364834Y-22957545D01*
X44344353Y-23100000D01*
X44364834Y-23242454D01*
X44424623Y-23373374D01*
X44449030Y-23401541D01*
X44467095Y-23448827D01*
X44450538Y-23496662D01*
X44449030Y-23498459D01*
X44424623Y-23526625D01*
X44364834Y-23657545D01*
X44344353Y-23800000D01*
X43255647Y-23800000D01*
X43235165Y-23657543D01*
X43175377Y-23526627D01*
X43150969Y-23498459D01*
X43132904Y-23451174D01*
X43149460Y-23403339D01*
X43150970Y-23401540D01*
X43175377Y-23373373D01*
X43235165Y-23242457D01*
X43255647Y-23100000D01*
X43235165Y-22957543D01*
X43175377Y-22826627D01*
X43081128Y-22717857D01*
X43024182Y-22681260D01*
X42960054Y-22640047D01*
X42960050Y-22640046D01*
X42821964Y-22599500D01*
X42821961Y-22599500D01*
X42678039Y-22599500D01*
X42678036Y-22599500D01*
X42539949Y-22640046D01*
X42539945Y-22640047D01*
X42418875Y-22717855D01*
X42418868Y-22717860D01*
X42324623Y-22826626D01*
X42264834Y-22957545D01*
X42244353Y-23100000D01*
X42264834Y-23242454D01*
X42324623Y-23373374D01*
X42349030Y-23401541D01*
X42367095Y-23448827D01*
X42350538Y-23496662D01*
X42349030Y-23498459D01*
X42324623Y-23526625D01*
X42264834Y-23657545D01*
X42244353Y-23800000D01*
X41000000Y-23800000D01*
X41000000Y-20000000D01*
X44294353Y-20000000D01*
X44314834Y-20142454D01*
X44374623Y-20273373D01*
X44468868Y-20382139D01*
X44468869Y-20382140D01*
X44468872Y-20382143D01*
X44589947Y-20459953D01*
X44692279Y-20490000D01*
X44728035Y-20500499D01*
X44728037Y-20500500D01*
X44728039Y-20500500D01*
X44871963Y-20500500D01*
X44871964Y-20500499D01*
X45010053Y-20459953D01*
X45131128Y-20382143D01*
X45225377Y-20273373D01*
X45285165Y-20142457D01*
X45305647Y-20000000D01*
X45285165Y-19857543D01*
X45225377Y-19726627D01*
X45150735Y-19640485D01*
X45131131Y-19617860D01*
X45131129Y-19617859D01*
X45131128Y-19617857D01*
X45074182Y-19581260D01*
X45010054Y-19540047D01*
X45010050Y-19540046D01*
X44871964Y-19499500D01*
X44871961Y-19499500D01*
X44728039Y-19499500D01*
X44728036Y-19499500D01*
X44589949Y-19540046D01*
X44589945Y-19540047D01*
X44468875Y-19617855D01*
X44468868Y-19617860D01*
X44374623Y-19726626D01*
X44314834Y-19857545D01*
X44294353Y-20000000D01*
X41000000Y-20000000D01*
X41000000Y-19000000D01*
X7074000Y-19000000D01*
X7026434Y-18982687D01*
X7001124Y-18938850D01*
X7000000Y-18926000D01*
X7000000Y-18114760D01*
X7017313Y-18067194D01*
X7061150Y-18041884D01*
X7088434Y-18042181D01*
X7130252Y-18050500D01*
X7130254Y-18050500D01*
X8869746Y-18050500D01*
X8869748Y-18050500D01*
X8928231Y-18038867D01*
X8994552Y-17994552D01*
X9038867Y-17928231D01*
X9050500Y-17869748D01*
X9050500Y-17000000D01*
X9484417Y-17000000D01*
X9504700Y-17205934D01*
X9564768Y-17403954D01*
X9662315Y-17586450D01*
X9793590Y-17746410D01*
X9953550Y-17877685D01*
X10136046Y-17975232D01*
X10334066Y-18035300D01*
X10540000Y-18055583D01*
X10745934Y-18035300D01*
X10943954Y-17975232D01*
X11126450Y-17877685D01*
X11286410Y-17746410D01*
X11417685Y-17586450D01*
X11515232Y-17403954D01*
X11575300Y-17205934D01*
X11595583Y-17000000D01*
X12024417Y-17000000D01*
X12044700Y-17205934D01*
X12104768Y-17403954D01*
X12202315Y-17586450D01*
X12333590Y-17746410D01*
X12493550Y-17877685D01*
X12676046Y-17975232D01*
X12874066Y-18035300D01*
X13080000Y-18055583D01*
X13285934Y-18035300D01*
X13483954Y-17975232D01*
X13666450Y-17877685D01*
X13826410Y-17746410D01*
X13957685Y-17586450D01*
X14055232Y-17403954D01*
X14115300Y-17205934D01*
X14135583Y-17000000D01*
X14564417Y-17000000D01*
X14584700Y-17205934D01*
X14644768Y-17403954D01*
X14742315Y-17586450D01*
X14873590Y-17746410D01*
X15033550Y-17877685D01*
X15216046Y-17975232D01*
X15414066Y-18035300D01*
X15620000Y-18055583D01*
X15825934Y-18035300D01*
X16023954Y-17975232D01*
X16206450Y-17877685D01*
X16366410Y-17746410D01*
X16497685Y-17586450D01*
X16595232Y-17403954D01*
X16655300Y-17205934D01*
X16675583Y-17000000D01*
X17104417Y-17000000D01*
X17124700Y-17205934D01*
X17184768Y-17403954D01*
X17282315Y-17586450D01*
X17413590Y-17746410D01*
X17573550Y-17877685D01*
X17756046Y-17975232D01*
X17954066Y-18035300D01*
X18160000Y-18055583D01*
X18365934Y-18035300D01*
X18563954Y-17975232D01*
X18746450Y-17877685D01*
X18906410Y-17746410D01*
X19037685Y-17586450D01*
X19135232Y-17403954D01*
X19195300Y-17205934D01*
X19215583Y-17000000D01*
X19644417Y-17000000D01*
X19664700Y-17205934D01*
X19724768Y-17403954D01*
X19822315Y-17586450D01*
X19953590Y-17746410D01*
X20113550Y-17877685D01*
X20296046Y-17975232D01*
X20494066Y-18035300D01*
X20700000Y-18055583D01*
X20905934Y-18035300D01*
X21103954Y-17975232D01*
X21286450Y-17877685D01*
X21446410Y-17746410D01*
X21577685Y-17586450D01*
X21675232Y-17403954D01*
X21735300Y-17205934D01*
X21755583Y-17000000D01*
X22184417Y-17000000D01*
X22204700Y-17205934D01*
X22264768Y-17403954D01*
X22362315Y-17586450D01*
X22493590Y-17746410D01*
X22653550Y-17877685D01*
X22836046Y-17975232D01*
X23034066Y-18035300D01*
X23240000Y-18055583D01*
X23445934Y-18035300D01*
X23643954Y-17975232D01*
X23826450Y-17877685D01*
X23986410Y-17746410D01*
X24117685Y-17586450D01*
X24215232Y-17403954D01*
X24275300Y-17205934D01*
X24295583Y-17000000D01*
X24724417Y-17000000D01*
X24744700Y-17205934D01*
X24804768Y-17403954D01*
X24902315Y-17586450D01*
X25033590Y-17746410D01*
X25193550Y-17877685D01*
X25376046Y-17975232D01*
X25574066Y-18035300D01*
X25780000Y-18055583D01*
X25985934Y-18035300D01*
X26183954Y-17975232D01*
X26366450Y-17877685D01*
X26526410Y-17746410D01*
X26657685Y-17586450D01*
X26755232Y-17403954D01*
X26815300Y-17205934D01*
X26835583Y-17000000D01*
X27264417Y-17000000D01*
X27284700Y-17205934D01*
X27344768Y-17403954D01*
X27442315Y-17586450D01*
X27573590Y-17746410D01*
X27733550Y-17877685D01*
X27916046Y-17975232D01*
X28114066Y-18035300D01*
X28320000Y-18055583D01*
X28525934Y-18035300D01*
X28723954Y-17975232D01*
X28906450Y-17877685D01*
X29066410Y-17746410D01*
X29197685Y-17586450D01*
X29295232Y-17403954D01*
X29355300Y-17205934D01*
X29375583Y-17000000D01*
X29804417Y-17000000D01*
X29824700Y-17205934D01*
X29884768Y-17403954D01*
X29982315Y-17586450D01*
X30113590Y-17746410D01*
X30273550Y-17877685D01*
X30456046Y-17975232D01*
X30654066Y-18035300D01*
X30860000Y-18055583D01*
X31065934Y-18035300D01*
X31263954Y-17975232D01*
X31446450Y-17877685D01*
X31606410Y-17746410D01*
X31737685Y-17586450D01*
X31835232Y-17403954D01*
X31895300Y-17205934D01*
X31915583Y-17000000D01*
X32344417Y-17000000D01*
X32364700Y-17205934D01*
X32424768Y-17403954D01*
X32522315Y-17586450D01*
X32653590Y-17746410D01*
X32813550Y-17877685D01*
X32996046Y-17975232D01*
X33194066Y-18035300D01*
X33400000Y-18055583D01*
X33605934Y-18035300D01*
X33803954Y-17975232D01*
X33986450Y-17877685D01*
X34146410Y-17746410D01*
X34277685Y-17586450D01*
X34375232Y-17403954D01*
X34435300Y-17205934D01*
X34455583Y-17000000D01*
X34884417Y-17000000D01*
X34904700Y-17205934D01*
X34964768Y-17403954D01*
X35062315Y-17586450D01*
X35193590Y-17746410D01*
X35353550Y-17877685D01*
X35536046Y-17975232D01*
X35734066Y-18035300D01*
X35940000Y-18055583D01*
X36145934Y-18035300D01*
X36343954Y-17975232D01*
X36526450Y-17877685D01*
X36686410Y-17746410D01*
X36817685Y-17586450D01*
X36915232Y-17403954D01*
X36975300Y-17205934D01*
X36995583Y-17000000D01*
X36975300Y-16794066D01*
X36915232Y-16596046D01*
X36817685Y-16413550D01*
X36686410Y-16253590D01*
X36526450Y-16122315D01*
X36343954Y-16024768D01*
X36232158Y-15990855D01*
X36145935Y-15964700D01*
X35940000Y-15944417D01*
X35734064Y-15964700D01*
X35536043Y-16024769D01*
X35353549Y-16122315D01*
X35193590Y-16253589D01*
X35193589Y-16253590D01*
X35062315Y-16413549D01*
X34964769Y-16596043D01*
X34904700Y-16794064D01*
X34904700Y-16794066D01*
X34884417Y-17000000D01*
X34455583Y-17000000D01*
X34435300Y-16794066D01*
X34375232Y-16596046D01*
X34277685Y-16413550D01*
X34146410Y-16253590D01*
X33986450Y-16122315D01*
X33803954Y-16024768D01*
X33692158Y-15990855D01*
X33605935Y-15964700D01*
X33400000Y-15944417D01*
X33194064Y-15964700D01*
X32996043Y-16024769D01*
X32813549Y-16122315D01*
X32653590Y-16253589D01*
X32653589Y-16253590D01*
X32522315Y-16413549D01*
X32424769Y-16596043D01*
X32364700Y-16794064D01*
X32364700Y-16794066D01*
X32344417Y-17000000D01*
X31915583Y-17000000D01*
X31895300Y-16794066D01*
X31835232Y-16596046D01*
X31737685Y-16413550D01*
X31606410Y-16253590D01*
X31446450Y-16122315D01*
X31263954Y-16024768D01*
X31152158Y-15990855D01*
X31065935Y-15964700D01*
X30860000Y-15944417D01*
X30654064Y-15964700D01*
X30456043Y-16024769D01*
X30273549Y-16122315D01*
X30113590Y-16253589D01*
X30113589Y-16253590D01*
X29982315Y-16413549D01*
X29884769Y-16596043D01*
X29824700Y-16794064D01*
X29824700Y-16794066D01*
X29804417Y-17000000D01*
X29375583Y-17000000D01*
X29355300Y-16794066D01*
X29295232Y-16596046D01*
X29197685Y-16413550D01*
X29066410Y-16253590D01*
X28906450Y-16122315D01*
X28723954Y-16024768D01*
X28612158Y-15990855D01*
X28525935Y-15964700D01*
X28320000Y-15944417D01*
X28114064Y-15964700D01*
X27916043Y-16024769D01*
X27733549Y-16122315D01*
X27573590Y-16253589D01*
X27573589Y-16253590D01*
X27442315Y-16413549D01*
X27344769Y-16596043D01*
X27284700Y-16794064D01*
X27284700Y-16794066D01*
X27264417Y-17000000D01*
X26835583Y-17000000D01*
X26815300Y-16794066D01*
X26755232Y-16596046D01*
X26657685Y-16413550D01*
X26526410Y-16253590D01*
X26366450Y-16122315D01*
X26183954Y-16024768D01*
X26072158Y-15990855D01*
X25985935Y-15964700D01*
X25780000Y-15944417D01*
X25574064Y-15964700D01*
X25376043Y-16024769D01*
X25193549Y-16122315D01*
X25033590Y-16253589D01*
X25033589Y-16253590D01*
X24902315Y-16413549D01*
X24804769Y-16596043D01*
X24744700Y-16794064D01*
X24744700Y-16794066D01*
X24724417Y-17000000D01*
X24295583Y-17000000D01*
X24275300Y-16794066D01*
X24215232Y-16596046D01*
X24117685Y-16413550D01*
X23986410Y-16253590D01*
X23826450Y-16122315D01*
X23643954Y-16024768D01*
X23532158Y-15990855D01*
X23445935Y-15964700D01*
X23240000Y-15944417D01*
X23034064Y-15964700D01*
X22836043Y-16024769D01*
X22653549Y-16122315D01*
X22493590Y-16253589D01*
X22493589Y-16253590D01*
X22362315Y-16413549D01*
X22264769Y-16596043D01*
X22204700Y-16794064D01*
X22204700Y-16794066D01*
X22184417Y-17000000D01*
X21755583Y-17000000D01*
X21735300Y-16794066D01*
X21675232Y-16596046D01*
X21577685Y-16413550D01*
X21446410Y-16253590D01*
X21286450Y-16122315D01*
X21103954Y-16024768D01*
X20992158Y-15990855D01*
X20905935Y-15964700D01*
X20700000Y-15944417D01*
X20494064Y-15964700D01*
X20296043Y-16024769D01*
X20113549Y-16122315D01*
X19953590Y-16253589D01*
X19953589Y-16253590D01*
X19822315Y-16413549D01*
X19724769Y-16596043D01*
X19664700Y-16794064D01*
X19664700Y-16794066D01*
X19644417Y-17000000D01*
X19215583Y-17000000D01*
X19195300Y-16794066D01*
X19135232Y-16596046D01*
X19037685Y-16413550D01*
X18906410Y-16253590D01*
X18746450Y-16122315D01*
X18563954Y-16024768D01*
X18452158Y-15990855D01*
X18365935Y-15964700D01*
X18160000Y-15944417D01*
X17954064Y-15964700D01*
X17756043Y-16024769D01*
X17573549Y-16122315D01*
X17413590Y-16253589D01*
X17413589Y-16253590D01*
X17282315Y-16413549D01*
X17184769Y-16596043D01*
X17124700Y-16794064D01*
X17124700Y-16794066D01*
X17104417Y-17000000D01*
X16675583Y-17000000D01*
X16655300Y-16794066D01*
X16595232Y-16596046D01*
X16497685Y-16413550D01*
X16366410Y-16253590D01*
X16206450Y-16122315D01*
X16023954Y-16024768D01*
X15912158Y-15990855D01*
X15825935Y-15964700D01*
X15620000Y-15944417D01*
X15414064Y-15964700D01*
X15216043Y-16024769D01*
X15033549Y-16122315D01*
X14873590Y-16253589D01*
X14873589Y-16253590D01*
X14742315Y-16413549D01*
X14644769Y-16596043D01*
X14584700Y-16794064D01*
X14584700Y-16794066D01*
X14564417Y-17000000D01*
X14135583Y-17000000D01*
X14115300Y-16794066D01*
X14055232Y-16596046D01*
X13957685Y-16413550D01*
X13826410Y-16253590D01*
X13666450Y-16122315D01*
X13483954Y-16024768D01*
X13372158Y-15990855D01*
X13285935Y-15964700D01*
X13080000Y-15944417D01*
X12874064Y-15964700D01*
X12676043Y-16024769D01*
X12493549Y-16122315D01*
X12333590Y-16253589D01*
X12333589Y-16253590D01*
X12202315Y-16413549D01*
X12104769Y-16596043D01*
X12044700Y-16794064D01*
X12044700Y-16794066D01*
X12024417Y-17000000D01*
X11595583Y-17000000D01*
X11575300Y-16794066D01*
X11515232Y-16596046D01*
X11417685Y-16413550D01*
X11286410Y-16253590D01*
X11126450Y-16122315D01*
X10943954Y-16024768D01*
X10832158Y-15990855D01*
X10745935Y-15964700D01*
X10540000Y-15944417D01*
X10334064Y-15964700D01*
X10136043Y-16024769D01*
X9953549Y-16122315D01*
X9793590Y-16253589D01*
X9793589Y-16253590D01*
X9662315Y-16413549D01*
X9564769Y-16596043D01*
X9504700Y-16794064D01*
X9504700Y-16794066D01*
X9484417Y-17000000D01*
X9050500Y-17000000D01*
X9050500Y-16130252D01*
X9038867Y-16071769D01*
X8994552Y-16005448D01*
X8972343Y-15990608D01*
X8928232Y-15961133D01*
X8928233Y-15961133D01*
X8898989Y-15955316D01*
X8869748Y-15949500D01*
X7130252Y-15949500D01*
X7130251Y-15949500D01*
X7088435Y-15957817D01*
X7038406Y-15950116D01*
X7005031Y-15912058D01*
X7000000Y-15885239D01*
X7000000Y-15104225D01*
X7017313Y-15056659D01*
X7061150Y-15031349D01*
X7111000Y-15040139D01*
X7131202Y-15057279D01*
X7253590Y-15206410D01*
X7413550Y-15337685D01*
X7596046Y-15435232D01*
X7794066Y-15495300D01*
X8000000Y-15515583D01*
X8205934Y-15495300D01*
X8403954Y-15435232D01*
X8586450Y-15337685D01*
X8746410Y-15206410D01*
X8877685Y-15046450D01*
X8975232Y-14863954D01*
X9035300Y-14665934D01*
X9055583Y-14460000D01*
X9484417Y-14460000D01*
X9504700Y-14665934D01*
X9564768Y-14863954D01*
X9662315Y-15046450D01*
X9793590Y-15206410D01*
X9953550Y-15337685D01*
X10136046Y-15435232D01*
X10334066Y-15495300D01*
X10540000Y-15515583D01*
X10745934Y-15495300D01*
X10943954Y-15435232D01*
X11126450Y-15337685D01*
X11286410Y-15206410D01*
X11417685Y-15046450D01*
X11515232Y-14863954D01*
X11575300Y-14665934D01*
X11595583Y-14460000D01*
X12024417Y-14460000D01*
X12044700Y-14665934D01*
X12104768Y-14863954D01*
X12202315Y-15046450D01*
X12333590Y-15206410D01*
X12493550Y-15337685D01*
X12676046Y-15435232D01*
X12874066Y-15495300D01*
X13080000Y-15515583D01*
X13285934Y-15495300D01*
X13483954Y-15435232D01*
X13666450Y-15337685D01*
X13826410Y-15206410D01*
X13957685Y-15046450D01*
X14055232Y-14863954D01*
X14115300Y-14665934D01*
X14135583Y-14460000D01*
X14564417Y-14460000D01*
X14584700Y-14665934D01*
X14644768Y-14863954D01*
X14742315Y-15046450D01*
X14873590Y-15206410D01*
X15033550Y-15337685D01*
X15216046Y-15435232D01*
X15414066Y-15495300D01*
X15620000Y-15515583D01*
X15825934Y-15495300D01*
X16023954Y-15435232D01*
X16206450Y-15337685D01*
X16366410Y-15206410D01*
X16497685Y-15046450D01*
X16595232Y-14863954D01*
X16655300Y-14665934D01*
X16675583Y-14460000D01*
X17104417Y-14460000D01*
X17124700Y-14665934D01*
X17184768Y-14863954D01*
X17282315Y-15046450D01*
X17413590Y-15206410D01*
X17573550Y-15337685D01*
X17756046Y-15435232D01*
X17954066Y-15495300D01*
X18160000Y-15515583D01*
X18365934Y-15495300D01*
X18563954Y-15435232D01*
X18746450Y-15337685D01*
X18906410Y-15206410D01*
X19037685Y-15046450D01*
X19135232Y-14863954D01*
X19195300Y-14665934D01*
X19215583Y-14460000D01*
X19644417Y-14460000D01*
X19664700Y-14665934D01*
X19724768Y-14863954D01*
X19822315Y-15046450D01*
X19953590Y-15206410D01*
X20113550Y-15337685D01*
X20296046Y-15435232D01*
X20494066Y-15495300D01*
X20700000Y-15515583D01*
X20905934Y-15495300D01*
X21103954Y-15435232D01*
X21286450Y-15337685D01*
X21446410Y-15206410D01*
X21577685Y-15046450D01*
X21675232Y-14863954D01*
X21735300Y-14665934D01*
X21755583Y-14460000D01*
X22184417Y-14460000D01*
X22204700Y-14665934D01*
X22264768Y-14863954D01*
X22362315Y-15046450D01*
X22493590Y-15206410D01*
X22653550Y-15337685D01*
X22836046Y-15435232D01*
X23034066Y-15495300D01*
X23240000Y-15515583D01*
X23445934Y-15495300D01*
X23643954Y-15435232D01*
X23826450Y-15337685D01*
X23986410Y-15206410D01*
X24117685Y-15046450D01*
X24215232Y-14863954D01*
X24275300Y-14665934D01*
X24295583Y-14460000D01*
X24724417Y-14460000D01*
X24744700Y-14665934D01*
X24804768Y-14863954D01*
X24902315Y-15046450D01*
X25033590Y-15206410D01*
X25193550Y-15337685D01*
X25376046Y-15435232D01*
X25574066Y-15495300D01*
X25780000Y-15515583D01*
X25985934Y-15495300D01*
X26183954Y-15435232D01*
X26366450Y-15337685D01*
X26526410Y-15206410D01*
X26657685Y-15046450D01*
X26755232Y-14863954D01*
X26815300Y-14665934D01*
X26835583Y-14460000D01*
X27264417Y-14460000D01*
X27284700Y-14665934D01*
X27344768Y-14863954D01*
X27442315Y-15046450D01*
X27573590Y-15206410D01*
X27733550Y-15337685D01*
X27916046Y-15435232D01*
X28114066Y-15495300D01*
X28320000Y-15515583D01*
X28525934Y-15495300D01*
X28723954Y-15435232D01*
X28906450Y-15337685D01*
X29066410Y-15206410D01*
X29197685Y-15046450D01*
X29295232Y-14863954D01*
X29355300Y-14665934D01*
X29375583Y-14460000D01*
X29804417Y-14460000D01*
X29824700Y-14665934D01*
X29884768Y-14863954D01*
X29982315Y-15046450D01*
X30113590Y-15206410D01*
X30273550Y-15337685D01*
X30456046Y-15435232D01*
X30654066Y-15495300D01*
X30860000Y-15515583D01*
X31065934Y-15495300D01*
X31263954Y-15435232D01*
X31446450Y-15337685D01*
X31606410Y-15206410D01*
X31737685Y-15046450D01*
X31835232Y-14863954D01*
X31895300Y-14665934D01*
X31915583Y-14460000D01*
X32344417Y-14460000D01*
X32364700Y-14665934D01*
X32424768Y-14863954D01*
X32522315Y-15046450D01*
X32653590Y-15206410D01*
X32813550Y-15337685D01*
X32996046Y-15435232D01*
X33194066Y-15495300D01*
X33400000Y-15515583D01*
X33605934Y-15495300D01*
X33803954Y-15435232D01*
X33986450Y-15337685D01*
X34146410Y-15206410D01*
X34277685Y-15046450D01*
X34375232Y-14863954D01*
X34435300Y-14665934D01*
X34455583Y-14460000D01*
X34884417Y-14460000D01*
X34904700Y-14665934D01*
X34964768Y-14863954D01*
X35062315Y-15046450D01*
X35193590Y-15206410D01*
X35353550Y-15337685D01*
X35536046Y-15435232D01*
X35734066Y-15495300D01*
X35940000Y-15515583D01*
X36145934Y-15495300D01*
X36343954Y-15435232D01*
X36526450Y-15337685D01*
X36686410Y-15206410D01*
X36817685Y-15046450D01*
X36915232Y-14863954D01*
X36975300Y-14665934D01*
X36995583Y-14460000D01*
X36975300Y-14254066D01*
X36915232Y-14056046D01*
X36817685Y-13873550D01*
X36686410Y-13713590D01*
X36526450Y-13582315D01*
X36343954Y-13484768D01*
X36232158Y-13450855D01*
X36145935Y-13424700D01*
X35940000Y-13404417D01*
X35734064Y-13424700D01*
X35536043Y-13484769D01*
X35353549Y-13582315D01*
X35193590Y-13713589D01*
X35193589Y-13713590D01*
X35062315Y-13873549D01*
X34964769Y-14056043D01*
X34904700Y-14254064D01*
X34904700Y-14254066D01*
X34884417Y-14460000D01*
X34455583Y-14460000D01*
X34435300Y-14254066D01*
X34375232Y-14056046D01*
X34277685Y-13873550D01*
X34146410Y-13713590D01*
X33986450Y-13582315D01*
X33803954Y-13484768D01*
X33692158Y-13450855D01*
X33605935Y-13424700D01*
X33400000Y-13404417D01*
X33194064Y-13424700D01*
X32996043Y-13484769D01*
X32813549Y-13582315D01*
X32653590Y-13713589D01*
X32653589Y-13713590D01*
X32522315Y-13873549D01*
X32424769Y-14056043D01*
X32364700Y-14254064D01*
X32364700Y-14254066D01*
X32344417Y-14460000D01*
X31915583Y-14460000D01*
X31895300Y-14254066D01*
X31835232Y-14056046D01*
X31737685Y-13873550D01*
X31606410Y-13713590D01*
X31446450Y-13582315D01*
X31263954Y-13484768D01*
X31152158Y-13450855D01*
X31065935Y-13424700D01*
X30860000Y-13404417D01*
X30654064Y-13424700D01*
X30456043Y-13484769D01*
X30273549Y-13582315D01*
X30113590Y-13713589D01*
X30113589Y-13713590D01*
X29982315Y-13873549D01*
X29884769Y-14056043D01*
X29824700Y-14254064D01*
X29824700Y-14254066D01*
X29804417Y-14460000D01*
X29375583Y-14460000D01*
X29355300Y-14254066D01*
X29295232Y-14056046D01*
X29197685Y-13873550D01*
X29066410Y-13713590D01*
X28906450Y-13582315D01*
X28723954Y-13484768D01*
X28612158Y-13450855D01*
X28525935Y-13424700D01*
X28320000Y-13404417D01*
X28114064Y-13424700D01*
X27916043Y-13484769D01*
X27733549Y-13582315D01*
X27573590Y-13713589D01*
X27573589Y-13713590D01*
X27442315Y-13873549D01*
X27344769Y-14056043D01*
X27284700Y-14254064D01*
X27284700Y-14254066D01*
X27264417Y-14460000D01*
X26835583Y-14460000D01*
X26815300Y-14254066D01*
X26755232Y-14056046D01*
X26657685Y-13873550D01*
X26526410Y-13713590D01*
X26366450Y-13582315D01*
X26183954Y-13484768D01*
X26072158Y-13450855D01*
X25985935Y-13424700D01*
X25780000Y-13404417D01*
X25574064Y-13424700D01*
X25376043Y-13484769D01*
X25193549Y-13582315D01*
X25033590Y-13713589D01*
X25033589Y-13713590D01*
X24902315Y-13873549D01*
X24804769Y-14056043D01*
X24744700Y-14254064D01*
X24744700Y-14254066D01*
X24724417Y-14460000D01*
X24295583Y-14460000D01*
X24275300Y-14254066D01*
X24215232Y-14056046D01*
X24117685Y-13873550D01*
X23986410Y-13713590D01*
X23826450Y-13582315D01*
X23643954Y-13484768D01*
X23532158Y-13450855D01*
X23445935Y-13424700D01*
X23240000Y-13404417D01*
X23034064Y-13424700D01*
X22836043Y-13484769D01*
X22653549Y-13582315D01*
X22493590Y-13713589D01*
X22493589Y-13713590D01*
X22362315Y-13873549D01*
X22264769Y-14056043D01*
X22204700Y-14254064D01*
X22204700Y-14254066D01*
X22184417Y-14460000D01*
X21755583Y-14460000D01*
X21735300Y-14254066D01*
X21675232Y-14056046D01*
X21577685Y-13873550D01*
X21446410Y-13713590D01*
X21286450Y-13582315D01*
X21103954Y-13484768D01*
X20992158Y-13450855D01*
X20905935Y-13424700D01*
X20700000Y-13404417D01*
X20494064Y-13424700D01*
X20296043Y-13484769D01*
X20113549Y-13582315D01*
X19953590Y-13713589D01*
X19953589Y-13713590D01*
X19822315Y-13873549D01*
X19724769Y-14056043D01*
X19664700Y-14254064D01*
X19664700Y-14254066D01*
X19644417Y-14460000D01*
X19215583Y-14460000D01*
X19195300Y-14254066D01*
X19135232Y-14056046D01*
X19037685Y-13873550D01*
X18906410Y-13713590D01*
X18746450Y-13582315D01*
X18563954Y-13484768D01*
X18452158Y-13450855D01*
X18365935Y-13424700D01*
X18160000Y-13404417D01*
X17954064Y-13424700D01*
X17756043Y-13484769D01*
X17573549Y-13582315D01*
X17413590Y-13713589D01*
X17413589Y-13713590D01*
X17282315Y-13873549D01*
X17184769Y-14056043D01*
X17124700Y-14254064D01*
X17124700Y-14254066D01*
X17104417Y-14460000D01*
X16675583Y-14460000D01*
X16655300Y-14254066D01*
X16595232Y-14056046D01*
X16497685Y-13873550D01*
X16366410Y-13713590D01*
X16206450Y-13582315D01*
X16023954Y-13484768D01*
X15912158Y-13450855D01*
X15825935Y-13424700D01*
X15620000Y-13404417D01*
X15414064Y-13424700D01*
X15216043Y-13484769D01*
X15033549Y-13582315D01*
X14873590Y-13713589D01*
X14873589Y-13713590D01*
X14742315Y-13873549D01*
X14644769Y-14056043D01*
X14584700Y-14254064D01*
X14584700Y-14254066D01*
X14564417Y-14460000D01*
X14135583Y-14460000D01*
X14115300Y-14254066D01*
X14055232Y-14056046D01*
X13957685Y-13873550D01*
X13826410Y-13713590D01*
X13666450Y-13582315D01*
X13483954Y-13484768D01*
X13372158Y-13450855D01*
X13285935Y-13424700D01*
X13080000Y-13404417D01*
X12874064Y-13424700D01*
X12676043Y-13484769D01*
X12493549Y-13582315D01*
X12333590Y-13713589D01*
X12333589Y-13713590D01*
X12202315Y-13873549D01*
X12104769Y-14056043D01*
X12044700Y-14254064D01*
X12044700Y-14254066D01*
X12024417Y-14460000D01*
X11595583Y-14460000D01*
X11575300Y-14254066D01*
X11515232Y-14056046D01*
X11417685Y-13873550D01*
X11286410Y-13713590D01*
X11126450Y-13582315D01*
X10943954Y-13484768D01*
X10832158Y-13450855D01*
X10745935Y-13424700D01*
X10540000Y-13404417D01*
X10334064Y-13424700D01*
X10136043Y-13484769D01*
X9953549Y-13582315D01*
X9793590Y-13713589D01*
X9793589Y-13713590D01*
X9662315Y-13873549D01*
X9564769Y-14056043D01*
X9504700Y-14254064D01*
X9504700Y-14254066D01*
X9484417Y-14460000D01*
X9055583Y-14460000D01*
X9035300Y-14254066D01*
X8975232Y-14056046D01*
X8877685Y-13873550D01*
X8746410Y-13713590D01*
X8586450Y-13582315D01*
X8403954Y-13484768D01*
X8292158Y-13450855D01*
X8205935Y-13424700D01*
X8000000Y-13404417D01*
X7794064Y-13424700D01*
X7596043Y-13484769D01*
X7413549Y-13582315D01*
X7253590Y-13713589D01*
X7253589Y-13713590D01*
X7131203Y-13862719D01*
X7087644Y-13888505D01*
X7037701Y-13880260D01*
X7004743Y-13841841D01*
X7000000Y-13815774D01*
X7000000Y-7074000D01*
X7017313Y-7026434D01*
X7061150Y-7001124D01*
X7074000Y-7000000D01*
X38788886Y-7000000D01*
X38836452Y-7017313D01*
G37*
%TD.AperFunction*%
%TD*%
%TA.AperFunction,Conductor*%
%TO.N,VDD*%
G36*
X39973566Y-40517313D02*
G01*
X39998876Y-40561150D01*
X40000000Y-40574000D01*
X40000000Y-43318825D01*
X39982687Y-43366391D01*
X39938850Y-43391701D01*
X39889000Y-43382911D01*
X39858687Y-43349566D01*
X39844648Y-43318825D01*
X39825377Y-43276627D01*
X39731128Y-43167857D01*
X39674182Y-43131260D01*
X39610054Y-43090047D01*
X39610050Y-43090046D01*
X39471964Y-43049500D01*
X39471961Y-43049500D01*
X39328039Y-43049500D01*
X39328036Y-43049500D01*
X39189949Y-43090046D01*
X39189945Y-43090047D01*
X39068875Y-43167855D01*
X39068868Y-43167860D01*
X38974623Y-43276626D01*
X38914834Y-43407545D01*
X38894353Y-43550000D01*
X38914834Y-43692454D01*
X38914834Y-43692455D01*
X38914835Y-43692457D01*
X38924837Y-43714357D01*
X38974623Y-43823373D01*
X39068868Y-43932139D01*
X39068869Y-43932140D01*
X39068872Y-43932143D01*
X39189947Y-44009953D01*
X39296403Y-44041211D01*
X39328035Y-44050499D01*
X39328037Y-44050500D01*
X39328039Y-44050500D01*
X39471963Y-44050500D01*
X39471964Y-44050499D01*
X39610053Y-44009953D01*
X39731128Y-43932143D01*
X39825377Y-43823373D01*
X39858688Y-43750431D01*
X39894195Y-43714357D01*
X39944585Y-43709546D01*
X39986279Y-43738250D01*
X40000000Y-43781174D01*
X40000000Y-50926000D01*
X39982687Y-50973566D01*
X39938850Y-50998876D01*
X39926000Y-51000000D01*
X33074000Y-51000000D01*
X33026434Y-50982687D01*
X33001124Y-50938850D01*
X33000000Y-50926000D01*
X33000000Y-43781174D01*
X33017313Y-43733608D01*
X33061150Y-43708298D01*
X33111000Y-43717088D01*
X33141311Y-43750430D01*
X33174623Y-43823373D01*
X33268868Y-43932139D01*
X33268869Y-43932140D01*
X33268872Y-43932143D01*
X33389947Y-44009953D01*
X33496403Y-44041211D01*
X33528035Y-44050499D01*
X33528037Y-44050500D01*
X33528039Y-44050500D01*
X33671963Y-44050500D01*
X33671964Y-44050499D01*
X33810053Y-44009953D01*
X33931128Y-43932143D01*
X34025377Y-43823373D01*
X34085165Y-43692457D01*
X34105647Y-43550000D01*
X34085165Y-43407543D01*
X34025377Y-43276627D01*
X33931128Y-43167857D01*
X33874182Y-43131260D01*
X33810054Y-43090047D01*
X33810050Y-43090046D01*
X33671964Y-43049500D01*
X33671961Y-43049500D01*
X33528039Y-43049500D01*
X33528036Y-43049500D01*
X33389949Y-43090046D01*
X33389945Y-43090047D01*
X33268875Y-43167855D01*
X33268868Y-43167860D01*
X33174623Y-43276626D01*
X33141313Y-43349566D01*
X33105805Y-43385642D01*
X33055415Y-43390453D01*
X33013721Y-43361749D01*
X33000000Y-43318825D01*
X33000000Y-40574000D01*
X33017313Y-40526434D01*
X33061150Y-40501124D01*
X33074000Y-40500000D01*
X39926000Y-40500000D01*
X39973566Y-40517313D01*
G37*
%TD.AperFunction*%
%TD*%
%TA.AperFunction,Conductor*%
%TO.N,VIN*%
G36*
X11316282Y-21017313D02*
G01*
X11341592Y-21061150D01*
X11341294Y-21088437D01*
X11319103Y-21200000D01*
X11323078Y-21219983D01*
X11324500Y-21234420D01*
X11324500Y-21579552D01*
X11307187Y-21627118D01*
X11291613Y-21641080D01*
X11201377Y-21701374D01*
X11201375Y-21701376D01*
X11169498Y-21749083D01*
X11149083Y-21769498D01*
X11101376Y-21801375D01*
X11101375Y-21801376D01*
X11069498Y-21849083D01*
X11049083Y-21869498D01*
X11001376Y-21901375D01*
X11001375Y-21901376D01*
X10940485Y-21992505D01*
X10919103Y-22100000D01*
X10923078Y-22119983D01*
X10924500Y-22134420D01*
X10924500Y-27950500D01*
X10907187Y-27998066D01*
X10863350Y-28023376D01*
X10850500Y-28024500D01*
X10434420Y-28024500D01*
X10419984Y-28023078D01*
X10400000Y-28019103D01*
X10399999Y-28019103D01*
X10372866Y-28024499D01*
X10372867Y-28024500D01*
X10292505Y-28040485D01*
X10201376Y-28101375D01*
X10201375Y-28101376D01*
X10169498Y-28149083D01*
X10149083Y-28169498D01*
X10101376Y-28201375D01*
X10101375Y-28201376D01*
X10040485Y-28292505D01*
X10019103Y-28400000D01*
X10023078Y-28419983D01*
X10024500Y-28434420D01*
X10024500Y-40165579D01*
X10023078Y-40180015D01*
X10019103Y-40200000D01*
X10024500Y-40227132D01*
X10024500Y-40227133D01*
X10040485Y-40307495D01*
X10101376Y-40398624D01*
X10192505Y-40459515D01*
X10300000Y-40480897D01*
X10319984Y-40476921D01*
X10334420Y-40475500D01*
X10943054Y-40475500D01*
X10990620Y-40492813D01*
X11013866Y-40528017D01*
X11024768Y-40563954D01*
X11122315Y-40746450D01*
X11253590Y-40906410D01*
X11413550Y-41037685D01*
X11596046Y-41135232D01*
X11794066Y-41195300D01*
X12000000Y-41215583D01*
X12205934Y-41195300D01*
X12403954Y-41135232D01*
X12586450Y-41037685D01*
X12746410Y-40906410D01*
X12877685Y-40746450D01*
X12975232Y-40563954D01*
X13035300Y-40365934D01*
X13055583Y-40160000D01*
X13035300Y-39954066D01*
X12975232Y-39756046D01*
X12877685Y-39573550D01*
X12746410Y-39413590D01*
X12586450Y-39282315D01*
X12403954Y-39184768D01*
X12292158Y-39150855D01*
X12205935Y-39124700D01*
X12000000Y-39104417D01*
X11794064Y-39124700D01*
X11596043Y-39184769D01*
X11413549Y-39282315D01*
X11253590Y-39413589D01*
X11253589Y-39413590D01*
X11122315Y-39573549D01*
X11024769Y-39756044D01*
X10989600Y-39871981D01*
X10959225Y-39912474D01*
X10918786Y-39924500D01*
X10649500Y-39924500D01*
X10601934Y-39907187D01*
X10576624Y-39863350D01*
X10575500Y-39850500D01*
X10575500Y-37620000D01*
X10944417Y-37620000D01*
X10964700Y-37825935D01*
X10981373Y-37880897D01*
X11024768Y-38023954D01*
X11122315Y-38206450D01*
X11253590Y-38366410D01*
X11413550Y-38497685D01*
X11596046Y-38595232D01*
X11794066Y-38655300D01*
X12000000Y-38675583D01*
X12205934Y-38655300D01*
X12403954Y-38595232D01*
X12586450Y-38497685D01*
X12746410Y-38366410D01*
X12877685Y-38206450D01*
X12975232Y-38023954D01*
X13035300Y-37825934D01*
X13055583Y-37620000D01*
X13035300Y-37414066D01*
X12975232Y-37216046D01*
X12877685Y-37033550D01*
X12746410Y-36873590D01*
X12586450Y-36742315D01*
X12403954Y-36644768D01*
X12292158Y-36610855D01*
X12205935Y-36584700D01*
X12000000Y-36564417D01*
X11794064Y-36584700D01*
X11596043Y-36644769D01*
X11413549Y-36742315D01*
X11253590Y-36873589D01*
X11253589Y-36873590D01*
X11122315Y-37033549D01*
X11024769Y-37216043D01*
X10964700Y-37414064D01*
X10944417Y-37620000D01*
X10575500Y-37620000D01*
X10575500Y-35446301D01*
X10592813Y-35398735D01*
X10636650Y-35373425D01*
X10663933Y-35373722D01*
X10700000Y-35380897D01*
X10719984Y-35376921D01*
X10734420Y-35375500D01*
X10936987Y-35375500D01*
X10984553Y-35392813D01*
X11007799Y-35428017D01*
X11024768Y-35483954D01*
X11122315Y-35666450D01*
X11253590Y-35826410D01*
X11413550Y-35957685D01*
X11596046Y-36055232D01*
X11794066Y-36115300D01*
X12000000Y-36135583D01*
X12205934Y-36115300D01*
X12403954Y-36055232D01*
X12586450Y-35957685D01*
X12746410Y-35826410D01*
X12877685Y-35666450D01*
X12975232Y-35483954D01*
X13035300Y-35285934D01*
X13055583Y-35080000D01*
X13035300Y-34874066D01*
X12975232Y-34676046D01*
X12877685Y-34493550D01*
X12746410Y-34333590D01*
X12586450Y-34202315D01*
X12403954Y-34104768D01*
X12292158Y-34070855D01*
X12205935Y-34044700D01*
X12000000Y-34024417D01*
X11794064Y-34044700D01*
X11596043Y-34104769D01*
X11413549Y-34202315D01*
X11253590Y-34333589D01*
X11253589Y-34333590D01*
X11122315Y-34493549D01*
X11114762Y-34507681D01*
X11077071Y-34541469D01*
X11026479Y-34543125D01*
X10986659Y-34511874D01*
X10975500Y-34472797D01*
X10975500Y-33147202D01*
X10992813Y-33099636D01*
X11036650Y-33074326D01*
X11086500Y-33083116D01*
X11114761Y-33112318D01*
X11122315Y-33126450D01*
X11253590Y-33286410D01*
X11413550Y-33417685D01*
X11596046Y-33515232D01*
X11794066Y-33575300D01*
X12000000Y-33595583D01*
X12205934Y-33575300D01*
X12403954Y-33515232D01*
X12586450Y-33417685D01*
X12746410Y-33286410D01*
X12877685Y-33126450D01*
X12975232Y-32943954D01*
X13035300Y-32745934D01*
X13055583Y-32540000D01*
X13035300Y-32334066D01*
X12975232Y-32136046D01*
X12877685Y-31953550D01*
X12746410Y-31793590D01*
X12586450Y-31662315D01*
X12403954Y-31564768D01*
X12292158Y-31530855D01*
X12205935Y-31504700D01*
X12000000Y-31484417D01*
X11794064Y-31504700D01*
X11596043Y-31564769D01*
X11413549Y-31662315D01*
X11253590Y-31793589D01*
X11253589Y-31793590D01*
X11122315Y-31953549D01*
X11114762Y-31967681D01*
X11077071Y-32001469D01*
X11026479Y-32003125D01*
X10986659Y-31971874D01*
X10975500Y-31932797D01*
X10975500Y-29049500D01*
X10992813Y-29001934D01*
X11036650Y-28976624D01*
X11049500Y-28975500D01*
X11565580Y-28975500D01*
X11580015Y-28976921D01*
X11600000Y-28980897D01*
X11707495Y-28959515D01*
X11798624Y-28898624D01*
X11859515Y-28807495D01*
X11875500Y-28727133D01*
X11875500Y-28727132D01*
X11880897Y-28700000D01*
X11876922Y-28680015D01*
X11875500Y-28665579D01*
X11875500Y-22652400D01*
X11892813Y-22604834D01*
X11897174Y-22600074D01*
X11900074Y-22597174D01*
X11945950Y-22575782D01*
X11952400Y-22575500D01*
X11965580Y-22575500D01*
X11980015Y-22576921D01*
X12000000Y-22580897D01*
X12107495Y-22559515D01*
X12198624Y-22498624D01*
X12259515Y-22407495D01*
X12275500Y-22327133D01*
X12275500Y-22327132D01*
X12280897Y-22300000D01*
X12276922Y-22280015D01*
X12275500Y-22265579D01*
X12275500Y-21849500D01*
X12292813Y-21801934D01*
X12336650Y-21776624D01*
X12349500Y-21775500D01*
X25534006Y-21775500D01*
X25581572Y-21792813D01*
X25589932Y-21801041D01*
X25668868Y-21892140D01*
X25668869Y-21892141D01*
X25668871Y-21892142D01*
X25668872Y-21892143D01*
X25690507Y-21906046D01*
X25721162Y-21946325D01*
X25724500Y-21968299D01*
X25724500Y-22065579D01*
X25723078Y-22080015D01*
X25719103Y-22100000D01*
X25724500Y-22127132D01*
X25724500Y-22127133D01*
X25740485Y-22207495D01*
X25801376Y-22298624D01*
X25892505Y-22359515D01*
X26000000Y-22380897D01*
X26019984Y-22376921D01*
X26034420Y-22375500D01*
X29347600Y-22375500D01*
X29395166Y-22392813D01*
X29399926Y-22397174D01*
X29401376Y-22398624D01*
X29443285Y-22426627D01*
X29449082Y-22430500D01*
X29469498Y-22450916D01*
X29501376Y-22498624D01*
X29501377Y-22498624D01*
X29501378Y-22498626D01*
X29506532Y-22503781D01*
X29504161Y-22506151D01*
X29525948Y-22535861D01*
X29527484Y-22542136D01*
X29540485Y-22607495D01*
X29601376Y-22698624D01*
X29601379Y-22698626D01*
X29602826Y-22700073D01*
X29603937Y-22702457D01*
X29605425Y-22704683D01*
X29605082Y-22704911D01*
X29624218Y-22745949D01*
X29624500Y-22752399D01*
X29624500Y-32265578D01*
X29623078Y-32280014D01*
X29619103Y-32299999D01*
X29624500Y-32327131D01*
X29624500Y-32327132D01*
X29640485Y-32407494D01*
X29701376Y-32498623D01*
X29792505Y-32559514D01*
X29900000Y-32580896D01*
X29919984Y-32576920D01*
X29934420Y-32575499D01*
X31926000Y-32575499D01*
X31973566Y-32592812D01*
X31998876Y-32636649D01*
X32000000Y-32649499D01*
X32000000Y-35225500D01*
X31982687Y-35273066D01*
X31938850Y-35298376D01*
X31931202Y-35299044D01*
X31928035Y-35299500D01*
X31789949Y-35340046D01*
X31789945Y-35340047D01*
X31668875Y-35417855D01*
X31668868Y-35417860D01*
X31574623Y-35526626D01*
X31514834Y-35657545D01*
X31494353Y-35800000D01*
X31514834Y-35942454D01*
X31514834Y-35942455D01*
X31514835Y-35942457D01*
X31566337Y-36055230D01*
X31574623Y-36073373D01*
X31668868Y-36182140D01*
X31668869Y-36182141D01*
X31668871Y-36182142D01*
X31668872Y-36182143D01*
X31690507Y-36196046D01*
X31721162Y-36236325D01*
X31724500Y-36258299D01*
X31724500Y-37565579D01*
X31723078Y-37580015D01*
X31719103Y-37600000D01*
X31724500Y-37627132D01*
X31724500Y-37627133D01*
X31740485Y-37707495D01*
X31801376Y-37798624D01*
X31892505Y-37859515D01*
X31940437Y-37869049D01*
X31983711Y-37895309D01*
X32000000Y-37941627D01*
X32000000Y-50926000D01*
X31982687Y-50973566D01*
X31938850Y-50998876D01*
X31926000Y-51000000D01*
X8074000Y-51000000D01*
X8026434Y-50982687D01*
X8001124Y-50938850D01*
X8000000Y-50926000D01*
X8000000Y-42700000D01*
X10944417Y-42700000D01*
X10964700Y-42905934D01*
X11024768Y-43103954D01*
X11122315Y-43286450D01*
X11253590Y-43446410D01*
X11413550Y-43577685D01*
X11596046Y-43675232D01*
X11794066Y-43735300D01*
X12000000Y-43755583D01*
X12205934Y-43735300D01*
X12403954Y-43675232D01*
X12586450Y-43577685D01*
X12746410Y-43446410D01*
X12877685Y-43286450D01*
X12975232Y-43103954D01*
X13035300Y-42905934D01*
X13055583Y-42700000D01*
X13035300Y-42494066D01*
X12975232Y-42296046D01*
X12877685Y-42113550D01*
X12746410Y-41953590D01*
X12586450Y-41822315D01*
X12403954Y-41724768D01*
X12292158Y-41690855D01*
X12205935Y-41664700D01*
X12000000Y-41644417D01*
X11794064Y-41664700D01*
X11596043Y-41724769D01*
X11413549Y-41822315D01*
X11253590Y-41953589D01*
X11253589Y-41953590D01*
X11122315Y-42113549D01*
X11024769Y-42296043D01*
X10964700Y-42494064D01*
X10964700Y-42494066D01*
X10944417Y-42700000D01*
X8000000Y-42700000D01*
X8000000Y-21074000D01*
X8017313Y-21026434D01*
X8061150Y-21001124D01*
X8074000Y-21000000D01*
X11268716Y-21000000D01*
X11316282Y-21017313D01*
G37*
%TD.AperFunction*%
%TD*%
M02*
