%TF.GenerationSoftware,KiCad,Pcbnew,7.0.10*%
%TF.CreationDate,2026-09-22T21:53:28+02:00*%
%TF.ProjectId,epc2361-prototype-p6,65706332-3336-4312-9d70-726f746f7479,rev?*%
%TF.SameCoordinates,Original*%
%TF.FileFunction,Soldermask,Top*%
%TF.FilePolarity,Negative*%
%FSLAX46Y46*%
G04 Gerber Fmt 4.6, Leading zero omitted, Abs format (unit mm)*
G04 Created by KiCad (PCBNEW 7.0.10) date 2026-09-22 21:53:28*
%MOMM*%
%LPD*%
G01*
G04 APERTURE LIST*
G04 Aperture macros list*
%AMRoundRect*
0 Rectangle with rounded corners*
0 $1 Rounding radius*
0 $2 $3 $4 $5 $6 $7 $8 $9 X,Y pos of 4 corners*
0 Add a 4 corners polygon primitive as box body*
4,1,4,$2,$3,$4,$5,$6,$7,$8,$9,$2,$3,0*
0 Add four circle primitives for the rounded corners*
1,1,$1+$1,$2,$3*
1,1,$1+$1,$4,$5*
1,1,$1+$1,$6,$7*
1,1,$1+$1,$8,$9*
0 Add four rect primitives between the rounded corners*
20,1,$1+$1,$2,$3,$4,$5,0*
20,1,$1+$1,$4,$5,$6,$7,0*
20,1,$1+$1,$6,$7,$8,$9,0*
20,1,$1+$1,$8,$9,$2,$3,0*%
G04 Aperture macros list end*
%ADD10RoundRect,0.050000X-0.300000X-0.300000X0.300000X-0.300000X0.300000X0.300000X-0.300000X0.300000X0*%
%ADD11RoundRect,0.250000X0.475000X-0.250000X0.475000X0.250000X-0.475000X0.250000X-0.475000X-0.250000X0*%
%ADD12C,3.200000*%
%ADD13RoundRect,0.250000X-0.300000X-0.300000X0.300000X-0.300000X0.300000X0.300000X-0.300000X0.300000X0*%
%ADD14R,1.700000X1.700000*%
%ADD15O,1.700000X1.700000*%
%ADD16RoundRect,0.070000X-0.280000X-0.105000X0.280000X-0.105000X0.280000X0.105000X-0.280000X0.105000X0*%
%ADD17RoundRect,0.070000X-0.105000X-0.280000X0.105000X-0.280000X0.105000X0.280000X-0.105000X0.280000X0*%
%ADD18RoundRect,0.054167X-0.595833X-0.845833X0.595833X-0.845833X0.595833X0.845833X-0.595833X0.845833X0*%
%ADD19RoundRect,0.056667X-0.368333X-0.843333X0.368333X-0.843333X0.368333X0.843333X-0.368333X0.843333X0*%
%ADD20R,1.000000X1.000000*%
%ADD21O,1.000000X1.000000*%
%ADD22RoundRect,0.200000X0.275000X-0.200000X0.275000X0.200000X-0.275000X0.200000X-0.275000X-0.200000X0*%
%ADD23RoundRect,0.135000X-0.135000X-0.185000X0.135000X-0.185000X0.135000X0.185000X-0.135000X0.185000X0*%
%ADD24RoundRect,0.225000X0.250000X-0.225000X0.250000X0.225000X-0.250000X0.225000X-0.250000X-0.225000X0*%
%ADD25R,2.200000X2.200000*%
%ADD26RoundRect,0.135000X0.185000X-0.135000X0.185000X0.135000X-0.185000X0.135000X-0.185000X-0.135000X0*%
%ADD27RoundRect,0.225000X-0.225000X-0.250000X0.225000X-0.250000X0.225000X0.250000X-0.225000X0.250000X0*%
G04 APERTURE END LIST*
%TO.C,QL1*%
G36*
X45984755Y-36840961D02*
G01*
X45994134Y-36843806D01*
X46002779Y-36848427D01*
X46010355Y-36854645D01*
X46016573Y-36862221D01*
X46021194Y-36870866D01*
X46024039Y-36880245D01*
X46025000Y-36890000D01*
X46025000Y-37160000D01*
X46024039Y-37169755D01*
X46021194Y-37179134D01*
X46016573Y-37187779D01*
X46010355Y-37195355D01*
X46002779Y-37201573D01*
X45994134Y-37206194D01*
X45984755Y-37209039D01*
X45975000Y-37210000D01*
X45350000Y-37210000D01*
X45340245Y-37209039D01*
X45330866Y-37206194D01*
X45322221Y-37201573D01*
X45314645Y-37195355D01*
X45308427Y-37187779D01*
X45303806Y-37179134D01*
X45300961Y-37169755D01*
X45300000Y-37160000D01*
X45300000Y-36890000D01*
X45300961Y-36880245D01*
X45303806Y-36870866D01*
X45308427Y-36862221D01*
X45314645Y-36854645D01*
X45322221Y-36848427D01*
X45330866Y-36843806D01*
X45340245Y-36840961D01*
X45350000Y-36840000D01*
X45975000Y-36840000D01*
X45984755Y-36840961D01*
G37*
G36*
X45984755Y-36300961D02*
G01*
X45994134Y-36303806D01*
X46002779Y-36308427D01*
X46010355Y-36314645D01*
X46016573Y-36322221D01*
X46021194Y-36330866D01*
X46024039Y-36340245D01*
X46025000Y-36350000D01*
X46025000Y-37235000D01*
X46024039Y-37244755D01*
X46021194Y-37254134D01*
X46016573Y-37262779D01*
X46010355Y-37270355D01*
X46002779Y-37276573D01*
X45994134Y-37281194D01*
X45984755Y-37284039D01*
X45975000Y-37285000D01*
X45675000Y-37285000D01*
X45665245Y-37284039D01*
X45655866Y-37281194D01*
X45647221Y-37276573D01*
X45639645Y-37270355D01*
X45633427Y-37262779D01*
X45628806Y-37254134D01*
X45625961Y-37244755D01*
X45625000Y-37235000D01*
X45625000Y-36350000D01*
X45625961Y-36340245D01*
X45628806Y-36330866D01*
X45633427Y-36322221D01*
X45639645Y-36314645D01*
X45647221Y-36308427D01*
X45655866Y-36303806D01*
X45665245Y-36300961D01*
X45675000Y-36300000D01*
X45975000Y-36300000D01*
X45984755Y-36300961D01*
G37*
G36*
X45984755Y-37590961D02*
G01*
X45994134Y-37593806D01*
X46002779Y-37598427D01*
X46010355Y-37604645D01*
X46016573Y-37612221D01*
X46021194Y-37620866D01*
X46024039Y-37630245D01*
X46025000Y-37640000D01*
X46025000Y-37910000D01*
X46024039Y-37919755D01*
X46021194Y-37929134D01*
X46016573Y-37937779D01*
X46010355Y-37945355D01*
X46002779Y-37951573D01*
X45994134Y-37956194D01*
X45984755Y-37959039D01*
X45975000Y-37960000D01*
X45350000Y-37960000D01*
X45340245Y-37959039D01*
X45330866Y-37956194D01*
X45322221Y-37951573D01*
X45314645Y-37945355D01*
X45308427Y-37937779D01*
X45303806Y-37929134D01*
X45300961Y-37919755D01*
X45300000Y-37910000D01*
X45300000Y-37640000D01*
X45300961Y-37630245D01*
X45303806Y-37620866D01*
X45308427Y-37612221D01*
X45314645Y-37604645D01*
X45322221Y-37598427D01*
X45330866Y-37593806D01*
X45340245Y-37590961D01*
X45350000Y-37590000D01*
X45975000Y-37590000D01*
X45984755Y-37590961D01*
G37*
G36*
X45984755Y-38140961D02*
G01*
X45994134Y-38143806D01*
X46002779Y-38148427D01*
X46010355Y-38154645D01*
X46016573Y-38162221D01*
X46021194Y-38170866D01*
X46024039Y-38180245D01*
X46025000Y-38190000D01*
X46025000Y-38460000D01*
X46024039Y-38469755D01*
X46021194Y-38479134D01*
X46016573Y-38487779D01*
X46010355Y-38495355D01*
X46002779Y-38501573D01*
X45994134Y-38506194D01*
X45984755Y-38509039D01*
X45975000Y-38510000D01*
X45350000Y-38510000D01*
X45340245Y-38509039D01*
X45330866Y-38506194D01*
X45322221Y-38501573D01*
X45314645Y-38495355D01*
X45308427Y-38487779D01*
X45303806Y-38479134D01*
X45300961Y-38469755D01*
X45300000Y-38460000D01*
X45300000Y-38190000D01*
X45300961Y-38180245D01*
X45303806Y-38170866D01*
X45308427Y-38162221D01*
X45314645Y-38154645D01*
X45322221Y-38148427D01*
X45330866Y-38143806D01*
X45340245Y-38140961D01*
X45350000Y-38140000D01*
X45975000Y-38140000D01*
X45984755Y-38140961D01*
G37*
G36*
X45984755Y-38790961D02*
G01*
X45994134Y-38793806D01*
X46002779Y-38798427D01*
X46010355Y-38804645D01*
X46016573Y-38812221D01*
X46021194Y-38820866D01*
X46024039Y-38830245D01*
X46025000Y-38840000D01*
X46025000Y-39110000D01*
X46024039Y-39119755D01*
X46021194Y-39129134D01*
X46016573Y-39137779D01*
X46010355Y-39145355D01*
X46002779Y-39151573D01*
X45994134Y-39156194D01*
X45984755Y-39159039D01*
X45975000Y-39160000D01*
X45350000Y-39160000D01*
X45340245Y-39159039D01*
X45330866Y-39156194D01*
X45322221Y-39151573D01*
X45314645Y-39145355D01*
X45308427Y-39137779D01*
X45303806Y-39129134D01*
X45300961Y-39119755D01*
X45300000Y-39110000D01*
X45300000Y-38840000D01*
X45300961Y-38830245D01*
X45303806Y-38820866D01*
X45308427Y-38812221D01*
X45314645Y-38804645D01*
X45322221Y-38798427D01*
X45330866Y-38793806D01*
X45340245Y-38790961D01*
X45350000Y-38790000D01*
X45975000Y-38790000D01*
X45984755Y-38790961D01*
G37*
G36*
X45984755Y-37600961D02*
G01*
X45994134Y-37603806D01*
X46002779Y-37608427D01*
X46010355Y-37614645D01*
X46016573Y-37622221D01*
X46021194Y-37630866D01*
X46024039Y-37640245D01*
X46025000Y-37650000D01*
X46025000Y-39650000D01*
X46024039Y-39659755D01*
X46021194Y-39669134D01*
X46016573Y-39677779D01*
X46010355Y-39685355D01*
X46002779Y-39691573D01*
X45994134Y-39696194D01*
X45984755Y-39699039D01*
X45975000Y-39700000D01*
X45675000Y-39700000D01*
X45665245Y-39699039D01*
X45655866Y-39696194D01*
X45647221Y-39691573D01*
X45639645Y-39685355D01*
X45633427Y-39677779D01*
X45628806Y-39669134D01*
X45625961Y-39659755D01*
X45625000Y-39650000D01*
X45625000Y-37650000D01*
X45625961Y-37640245D01*
X45628806Y-37630866D01*
X45633427Y-37622221D01*
X45639645Y-37614645D01*
X45647221Y-37608427D01*
X45655866Y-37603806D01*
X45665245Y-37600961D01*
X45675000Y-37600000D01*
X45975000Y-37600000D01*
X45984755Y-37600961D01*
G37*
G36*
X46834755Y-36300961D02*
G01*
X46844134Y-36303806D01*
X46852779Y-36308427D01*
X46860355Y-36314645D01*
X46866573Y-36322221D01*
X46871194Y-36330866D01*
X46874039Y-36340245D01*
X46875000Y-36350000D01*
X46875000Y-39650000D01*
X46874039Y-39659755D01*
X46871194Y-39669134D01*
X46866573Y-39677779D01*
X46860355Y-39685355D01*
X46852779Y-39691573D01*
X46844134Y-39696194D01*
X46834755Y-39699039D01*
X46825000Y-39700000D01*
X46625000Y-39700000D01*
X46615245Y-39699039D01*
X46605866Y-39696194D01*
X46597221Y-39691573D01*
X46589645Y-39685355D01*
X46583427Y-39677779D01*
X46578806Y-39669134D01*
X46575961Y-39659755D01*
X46575000Y-39650000D01*
X46575000Y-36350000D01*
X46575961Y-36340245D01*
X46578806Y-36330866D01*
X46583427Y-36322221D01*
X46589645Y-36314645D01*
X46597221Y-36308427D01*
X46605866Y-36303806D01*
X46615245Y-36300961D01*
X46625000Y-36300000D01*
X46825000Y-36300000D01*
X46834755Y-36300961D01*
G37*
G36*
X47684755Y-36300961D02*
G01*
X47694134Y-36303806D01*
X47702779Y-36308427D01*
X47710355Y-36314645D01*
X47716573Y-36322221D01*
X47721194Y-36330866D01*
X47724039Y-36340245D01*
X47725000Y-36350000D01*
X47725000Y-39650000D01*
X47724039Y-39659755D01*
X47721194Y-39669134D01*
X47716573Y-39677779D01*
X47710355Y-39685355D01*
X47702779Y-39691573D01*
X47694134Y-39696194D01*
X47684755Y-39699039D01*
X47675000Y-39700000D01*
X47475000Y-39700000D01*
X47465245Y-39699039D01*
X47455866Y-39696194D01*
X47447221Y-39691573D01*
X47439645Y-39685355D01*
X47433427Y-39677779D01*
X47428806Y-39669134D01*
X47425961Y-39659755D01*
X47425000Y-39650000D01*
X47425000Y-36350000D01*
X47425961Y-36340245D01*
X47428806Y-36330866D01*
X47433427Y-36322221D01*
X47439645Y-36314645D01*
X47447221Y-36308427D01*
X47455866Y-36303806D01*
X47465245Y-36300961D01*
X47475000Y-36300000D01*
X47675000Y-36300000D01*
X47684755Y-36300961D01*
G37*
G36*
X48534755Y-36300961D02*
G01*
X48544134Y-36303806D01*
X48552779Y-36308427D01*
X48560355Y-36314645D01*
X48566573Y-36322221D01*
X48571194Y-36330866D01*
X48574039Y-36340245D01*
X48575000Y-36350000D01*
X48575000Y-39650000D01*
X48574039Y-39659755D01*
X48571194Y-39669134D01*
X48566573Y-39677779D01*
X48560355Y-39685355D01*
X48552779Y-39691573D01*
X48544134Y-39696194D01*
X48534755Y-39699039D01*
X48525000Y-39700000D01*
X48325000Y-39700000D01*
X48315245Y-39699039D01*
X48305866Y-39696194D01*
X48297221Y-39691573D01*
X48289645Y-39685355D01*
X48283427Y-39677779D01*
X48278806Y-39669134D01*
X48275961Y-39659755D01*
X48275000Y-39650000D01*
X48275000Y-36350000D01*
X48275961Y-36340245D01*
X48278806Y-36330866D01*
X48283427Y-36322221D01*
X48289645Y-36314645D01*
X48297221Y-36308427D01*
X48305866Y-36303806D01*
X48315245Y-36300961D01*
X48325000Y-36300000D01*
X48525000Y-36300000D01*
X48534755Y-36300961D01*
G37*
G36*
X49384755Y-36300961D02*
G01*
X49394134Y-36303806D01*
X49402779Y-36308427D01*
X49410355Y-36314645D01*
X49416573Y-36322221D01*
X49421194Y-36330866D01*
X49424039Y-36340245D01*
X49425000Y-36350000D01*
X49425000Y-39650000D01*
X49424039Y-39659755D01*
X49421194Y-39669134D01*
X49416573Y-39677779D01*
X49410355Y-39685355D01*
X49402779Y-39691573D01*
X49394134Y-39696194D01*
X49384755Y-39699039D01*
X49375000Y-39700000D01*
X49175000Y-39700000D01*
X49165245Y-39699039D01*
X49155866Y-39696194D01*
X49147221Y-39691573D01*
X49139645Y-39685355D01*
X49133427Y-39677779D01*
X49128806Y-39669134D01*
X49125961Y-39659755D01*
X49125000Y-39650000D01*
X49125000Y-36350000D01*
X49125961Y-36340245D01*
X49128806Y-36330866D01*
X49133427Y-36322221D01*
X49139645Y-36314645D01*
X49147221Y-36308427D01*
X49155866Y-36303806D01*
X49165245Y-36300961D01*
X49175000Y-36300000D01*
X49375000Y-36300000D01*
X49384755Y-36300961D01*
G37*
G36*
X50334755Y-36300961D02*
G01*
X50344134Y-36303806D01*
X50352779Y-36308427D01*
X50360355Y-36314645D01*
X50366573Y-36322221D01*
X50371194Y-36330866D01*
X50374039Y-36340245D01*
X50375000Y-36350000D01*
X50375000Y-39650000D01*
X50374039Y-39659755D01*
X50371194Y-39669134D01*
X50366573Y-39677779D01*
X50360355Y-39685355D01*
X50352779Y-39691573D01*
X50344134Y-39696194D01*
X50334755Y-39699039D01*
X50325000Y-39700000D01*
X50025000Y-39700000D01*
X50015245Y-39699039D01*
X50005866Y-39696194D01*
X49997221Y-39691573D01*
X49989645Y-39685355D01*
X49983427Y-39677779D01*
X49978806Y-39669134D01*
X49975961Y-39659755D01*
X49975000Y-39650000D01*
X49975000Y-36350000D01*
X49975961Y-36340245D01*
X49978806Y-36330866D01*
X49983427Y-36322221D01*
X49989645Y-36314645D01*
X49997221Y-36308427D01*
X50005866Y-36303806D01*
X50015245Y-36300961D01*
X50025000Y-36300000D01*
X50325000Y-36300000D01*
X50334755Y-36300961D01*
G37*
G36*
X50659755Y-36840961D02*
G01*
X50669134Y-36843806D01*
X50677779Y-36848427D01*
X50685355Y-36854645D01*
X50691573Y-36862221D01*
X50696194Y-36870866D01*
X50699039Y-36880245D01*
X50700000Y-36890000D01*
X50700000Y-37160000D01*
X50699039Y-37169755D01*
X50696194Y-37179134D01*
X50691573Y-37187779D01*
X50685355Y-37195355D01*
X50677779Y-37201573D01*
X50669134Y-37206194D01*
X50659755Y-37209039D01*
X50650000Y-37210000D01*
X50025000Y-37210000D01*
X50015245Y-37209039D01*
X50005866Y-37206194D01*
X49997221Y-37201573D01*
X49989645Y-37195355D01*
X49983427Y-37187779D01*
X49978806Y-37179134D01*
X49975961Y-37169755D01*
X49975000Y-37160000D01*
X49975000Y-36890000D01*
X49975961Y-36880245D01*
X49978806Y-36870866D01*
X49983427Y-36862221D01*
X49989645Y-36854645D01*
X49997221Y-36848427D01*
X50005866Y-36843806D01*
X50015245Y-36840961D01*
X50025000Y-36840000D01*
X50650000Y-36840000D01*
X50659755Y-36840961D01*
G37*
G36*
X50659755Y-37490961D02*
G01*
X50669134Y-37493806D01*
X50677779Y-37498427D01*
X50685355Y-37504645D01*
X50691573Y-37512221D01*
X50696194Y-37520866D01*
X50699039Y-37530245D01*
X50700000Y-37540000D01*
X50700000Y-37810000D01*
X50699039Y-37819755D01*
X50696194Y-37829134D01*
X50691573Y-37837779D01*
X50685355Y-37845355D01*
X50677779Y-37851573D01*
X50669134Y-37856194D01*
X50659755Y-37859039D01*
X50650000Y-37860000D01*
X50025000Y-37860000D01*
X50015245Y-37859039D01*
X50005866Y-37856194D01*
X49997221Y-37851573D01*
X49989645Y-37845355D01*
X49983427Y-37837779D01*
X49978806Y-37829134D01*
X49975961Y-37819755D01*
X49975000Y-37810000D01*
X49975000Y-37540000D01*
X49975961Y-37530245D01*
X49978806Y-37520866D01*
X49983427Y-37512221D01*
X49989645Y-37504645D01*
X49997221Y-37498427D01*
X50005866Y-37493806D01*
X50015245Y-37490961D01*
X50025000Y-37490000D01*
X50650000Y-37490000D01*
X50659755Y-37490961D01*
G37*
G36*
X50659755Y-38140961D02*
G01*
X50669134Y-38143806D01*
X50677779Y-38148427D01*
X50685355Y-38154645D01*
X50691573Y-38162221D01*
X50696194Y-38170866D01*
X50699039Y-38180245D01*
X50700000Y-38190000D01*
X50700000Y-38460000D01*
X50699039Y-38469755D01*
X50696194Y-38479134D01*
X50691573Y-38487779D01*
X50685355Y-38495355D01*
X50677779Y-38501573D01*
X50669134Y-38506194D01*
X50659755Y-38509039D01*
X50650000Y-38510000D01*
X50025000Y-38510000D01*
X50015245Y-38509039D01*
X50005866Y-38506194D01*
X49997221Y-38501573D01*
X49989645Y-38495355D01*
X49983427Y-38487779D01*
X49978806Y-38479134D01*
X49975961Y-38469755D01*
X49975000Y-38460000D01*
X49975000Y-38190000D01*
X49975961Y-38180245D01*
X49978806Y-38170866D01*
X49983427Y-38162221D01*
X49989645Y-38154645D01*
X49997221Y-38148427D01*
X50005866Y-38143806D01*
X50015245Y-38140961D01*
X50025000Y-38140000D01*
X50650000Y-38140000D01*
X50659755Y-38140961D01*
G37*
G36*
X50659755Y-38790961D02*
G01*
X50669134Y-38793806D01*
X50677779Y-38798427D01*
X50685355Y-38804645D01*
X50691573Y-38812221D01*
X50696194Y-38820866D01*
X50699039Y-38830245D01*
X50700000Y-38840000D01*
X50700000Y-39110000D01*
X50699039Y-39119755D01*
X50696194Y-39129134D01*
X50691573Y-39137779D01*
X50685355Y-39145355D01*
X50677779Y-39151573D01*
X50669134Y-39156194D01*
X50659755Y-39159039D01*
X50650000Y-39160000D01*
X50025000Y-39160000D01*
X50015245Y-39159039D01*
X50005866Y-39156194D01*
X49997221Y-39151573D01*
X49989645Y-39145355D01*
X49983427Y-39137779D01*
X49978806Y-39129134D01*
X49975961Y-39119755D01*
X49975000Y-39110000D01*
X49975000Y-38840000D01*
X49975961Y-38830245D01*
X49978806Y-38820866D01*
X49983427Y-38812221D01*
X49989645Y-38804645D01*
X49997221Y-38798427D01*
X50005866Y-38793806D01*
X50015245Y-38790961D01*
X50025000Y-38790000D01*
X50650000Y-38790000D01*
X50659755Y-38790961D01*
G37*
%TO.C,QL2*%
G36*
X63984755Y-36840961D02*
G01*
X63994134Y-36843806D01*
X64002779Y-36848427D01*
X64010355Y-36854645D01*
X64016573Y-36862221D01*
X64021194Y-36870866D01*
X64024039Y-36880245D01*
X64025000Y-36890000D01*
X64025000Y-37160000D01*
X64024039Y-37169755D01*
X64021194Y-37179134D01*
X64016573Y-37187779D01*
X64010355Y-37195355D01*
X64002779Y-37201573D01*
X63994134Y-37206194D01*
X63984755Y-37209039D01*
X63975000Y-37210000D01*
X63350000Y-37210000D01*
X63340245Y-37209039D01*
X63330866Y-37206194D01*
X63322221Y-37201573D01*
X63314645Y-37195355D01*
X63308427Y-37187779D01*
X63303806Y-37179134D01*
X63300961Y-37169755D01*
X63300000Y-37160000D01*
X63300000Y-36890000D01*
X63300961Y-36880245D01*
X63303806Y-36870866D01*
X63308427Y-36862221D01*
X63314645Y-36854645D01*
X63322221Y-36848427D01*
X63330866Y-36843806D01*
X63340245Y-36840961D01*
X63350000Y-36840000D01*
X63975000Y-36840000D01*
X63984755Y-36840961D01*
G37*
G36*
X63984755Y-36300961D02*
G01*
X63994134Y-36303806D01*
X64002779Y-36308427D01*
X64010355Y-36314645D01*
X64016573Y-36322221D01*
X64021194Y-36330866D01*
X64024039Y-36340245D01*
X64025000Y-36350000D01*
X64025000Y-37235000D01*
X64024039Y-37244755D01*
X64021194Y-37254134D01*
X64016573Y-37262779D01*
X64010355Y-37270355D01*
X64002779Y-37276573D01*
X63994134Y-37281194D01*
X63984755Y-37284039D01*
X63975000Y-37285000D01*
X63675000Y-37285000D01*
X63665245Y-37284039D01*
X63655866Y-37281194D01*
X63647221Y-37276573D01*
X63639645Y-37270355D01*
X63633427Y-37262779D01*
X63628806Y-37254134D01*
X63625961Y-37244755D01*
X63625000Y-37235000D01*
X63625000Y-36350000D01*
X63625961Y-36340245D01*
X63628806Y-36330866D01*
X63633427Y-36322221D01*
X63639645Y-36314645D01*
X63647221Y-36308427D01*
X63655866Y-36303806D01*
X63665245Y-36300961D01*
X63675000Y-36300000D01*
X63975000Y-36300000D01*
X63984755Y-36300961D01*
G37*
G36*
X63984755Y-37590961D02*
G01*
X63994134Y-37593806D01*
X64002779Y-37598427D01*
X64010355Y-37604645D01*
X64016573Y-37612221D01*
X64021194Y-37620866D01*
X64024039Y-37630245D01*
X64025000Y-37640000D01*
X64025000Y-37910000D01*
X64024039Y-37919755D01*
X64021194Y-37929134D01*
X64016573Y-37937779D01*
X64010355Y-37945355D01*
X64002779Y-37951573D01*
X63994134Y-37956194D01*
X63984755Y-37959039D01*
X63975000Y-37960000D01*
X63350000Y-37960000D01*
X63340245Y-37959039D01*
X63330866Y-37956194D01*
X63322221Y-37951573D01*
X63314645Y-37945355D01*
X63308427Y-37937779D01*
X63303806Y-37929134D01*
X63300961Y-37919755D01*
X63300000Y-37910000D01*
X63300000Y-37640000D01*
X63300961Y-37630245D01*
X63303806Y-37620866D01*
X63308427Y-37612221D01*
X63314645Y-37604645D01*
X63322221Y-37598427D01*
X63330866Y-37593806D01*
X63340245Y-37590961D01*
X63350000Y-37590000D01*
X63975000Y-37590000D01*
X63984755Y-37590961D01*
G37*
G36*
X63984755Y-38140961D02*
G01*
X63994134Y-38143806D01*
X64002779Y-38148427D01*
X64010355Y-38154645D01*
X64016573Y-38162221D01*
X64021194Y-38170866D01*
X64024039Y-38180245D01*
X64025000Y-38190000D01*
X64025000Y-38460000D01*
X64024039Y-38469755D01*
X64021194Y-38479134D01*
X64016573Y-38487779D01*
X64010355Y-38495355D01*
X64002779Y-38501573D01*
X63994134Y-38506194D01*
X63984755Y-38509039D01*
X63975000Y-38510000D01*
X63350000Y-38510000D01*
X63340245Y-38509039D01*
X63330866Y-38506194D01*
X63322221Y-38501573D01*
X63314645Y-38495355D01*
X63308427Y-38487779D01*
X63303806Y-38479134D01*
X63300961Y-38469755D01*
X63300000Y-38460000D01*
X63300000Y-38190000D01*
X63300961Y-38180245D01*
X63303806Y-38170866D01*
X63308427Y-38162221D01*
X63314645Y-38154645D01*
X63322221Y-38148427D01*
X63330866Y-38143806D01*
X63340245Y-38140961D01*
X63350000Y-38140000D01*
X63975000Y-38140000D01*
X63984755Y-38140961D01*
G37*
G36*
X63984755Y-38790961D02*
G01*
X63994134Y-38793806D01*
X64002779Y-38798427D01*
X64010355Y-38804645D01*
X64016573Y-38812221D01*
X64021194Y-38820866D01*
X64024039Y-38830245D01*
X64025000Y-38840000D01*
X64025000Y-39110000D01*
X64024039Y-39119755D01*
X64021194Y-39129134D01*
X64016573Y-39137779D01*
X64010355Y-39145355D01*
X64002779Y-39151573D01*
X63994134Y-39156194D01*
X63984755Y-39159039D01*
X63975000Y-39160000D01*
X63350000Y-39160000D01*
X63340245Y-39159039D01*
X63330866Y-39156194D01*
X63322221Y-39151573D01*
X63314645Y-39145355D01*
X63308427Y-39137779D01*
X63303806Y-39129134D01*
X63300961Y-39119755D01*
X63300000Y-39110000D01*
X63300000Y-38840000D01*
X63300961Y-38830245D01*
X63303806Y-38820866D01*
X63308427Y-38812221D01*
X63314645Y-38804645D01*
X63322221Y-38798427D01*
X63330866Y-38793806D01*
X63340245Y-38790961D01*
X63350000Y-38790000D01*
X63975000Y-38790000D01*
X63984755Y-38790961D01*
G37*
G36*
X63984755Y-37600961D02*
G01*
X63994134Y-37603806D01*
X64002779Y-37608427D01*
X64010355Y-37614645D01*
X64016573Y-37622221D01*
X64021194Y-37630866D01*
X64024039Y-37640245D01*
X64025000Y-37650000D01*
X64025000Y-39650000D01*
X64024039Y-39659755D01*
X64021194Y-39669134D01*
X64016573Y-39677779D01*
X64010355Y-39685355D01*
X64002779Y-39691573D01*
X63994134Y-39696194D01*
X63984755Y-39699039D01*
X63975000Y-39700000D01*
X63675000Y-39700000D01*
X63665245Y-39699039D01*
X63655866Y-39696194D01*
X63647221Y-39691573D01*
X63639645Y-39685355D01*
X63633427Y-39677779D01*
X63628806Y-39669134D01*
X63625961Y-39659755D01*
X63625000Y-39650000D01*
X63625000Y-37650000D01*
X63625961Y-37640245D01*
X63628806Y-37630866D01*
X63633427Y-37622221D01*
X63639645Y-37614645D01*
X63647221Y-37608427D01*
X63655866Y-37603806D01*
X63665245Y-37600961D01*
X63675000Y-37600000D01*
X63975000Y-37600000D01*
X63984755Y-37600961D01*
G37*
G36*
X64834755Y-36300961D02*
G01*
X64844134Y-36303806D01*
X64852779Y-36308427D01*
X64860355Y-36314645D01*
X64866573Y-36322221D01*
X64871194Y-36330866D01*
X64874039Y-36340245D01*
X64875000Y-36350000D01*
X64875000Y-39650000D01*
X64874039Y-39659755D01*
X64871194Y-39669134D01*
X64866573Y-39677779D01*
X64860355Y-39685355D01*
X64852779Y-39691573D01*
X64844134Y-39696194D01*
X64834755Y-39699039D01*
X64825000Y-39700000D01*
X64625000Y-39700000D01*
X64615245Y-39699039D01*
X64605866Y-39696194D01*
X64597221Y-39691573D01*
X64589645Y-39685355D01*
X64583427Y-39677779D01*
X64578806Y-39669134D01*
X64575961Y-39659755D01*
X64575000Y-39650000D01*
X64575000Y-36350000D01*
X64575961Y-36340245D01*
X64578806Y-36330866D01*
X64583427Y-36322221D01*
X64589645Y-36314645D01*
X64597221Y-36308427D01*
X64605866Y-36303806D01*
X64615245Y-36300961D01*
X64625000Y-36300000D01*
X64825000Y-36300000D01*
X64834755Y-36300961D01*
G37*
G36*
X65684755Y-36300961D02*
G01*
X65694134Y-36303806D01*
X65702779Y-36308427D01*
X65710355Y-36314645D01*
X65716573Y-36322221D01*
X65721194Y-36330866D01*
X65724039Y-36340245D01*
X65725000Y-36350000D01*
X65725000Y-39650000D01*
X65724039Y-39659755D01*
X65721194Y-39669134D01*
X65716573Y-39677779D01*
X65710355Y-39685355D01*
X65702779Y-39691573D01*
X65694134Y-39696194D01*
X65684755Y-39699039D01*
X65675000Y-39700000D01*
X65475000Y-39700000D01*
X65465245Y-39699039D01*
X65455866Y-39696194D01*
X65447221Y-39691573D01*
X65439645Y-39685355D01*
X65433427Y-39677779D01*
X65428806Y-39669134D01*
X65425961Y-39659755D01*
X65425000Y-39650000D01*
X65425000Y-36350000D01*
X65425961Y-36340245D01*
X65428806Y-36330866D01*
X65433427Y-36322221D01*
X65439645Y-36314645D01*
X65447221Y-36308427D01*
X65455866Y-36303806D01*
X65465245Y-36300961D01*
X65475000Y-36300000D01*
X65675000Y-36300000D01*
X65684755Y-36300961D01*
G37*
G36*
X66534755Y-36300961D02*
G01*
X66544134Y-36303806D01*
X66552779Y-36308427D01*
X66560355Y-36314645D01*
X66566573Y-36322221D01*
X66571194Y-36330866D01*
X66574039Y-36340245D01*
X66575000Y-36350000D01*
X66575000Y-39650000D01*
X66574039Y-39659755D01*
X66571194Y-39669134D01*
X66566573Y-39677779D01*
X66560355Y-39685355D01*
X66552779Y-39691573D01*
X66544134Y-39696194D01*
X66534755Y-39699039D01*
X66525000Y-39700000D01*
X66325000Y-39700000D01*
X66315245Y-39699039D01*
X66305866Y-39696194D01*
X66297221Y-39691573D01*
X66289645Y-39685355D01*
X66283427Y-39677779D01*
X66278806Y-39669134D01*
X66275961Y-39659755D01*
X66275000Y-39650000D01*
X66275000Y-36350000D01*
X66275961Y-36340245D01*
X66278806Y-36330866D01*
X66283427Y-36322221D01*
X66289645Y-36314645D01*
X66297221Y-36308427D01*
X66305866Y-36303806D01*
X66315245Y-36300961D01*
X66325000Y-36300000D01*
X66525000Y-36300000D01*
X66534755Y-36300961D01*
G37*
G36*
X67384755Y-36300961D02*
G01*
X67394134Y-36303806D01*
X67402779Y-36308427D01*
X67410355Y-36314645D01*
X67416573Y-36322221D01*
X67421194Y-36330866D01*
X67424039Y-36340245D01*
X67425000Y-36350000D01*
X67425000Y-39650000D01*
X67424039Y-39659755D01*
X67421194Y-39669134D01*
X67416573Y-39677779D01*
X67410355Y-39685355D01*
X67402779Y-39691573D01*
X67394134Y-39696194D01*
X67384755Y-39699039D01*
X67375000Y-39700000D01*
X67175000Y-39700000D01*
X67165245Y-39699039D01*
X67155866Y-39696194D01*
X67147221Y-39691573D01*
X67139645Y-39685355D01*
X67133427Y-39677779D01*
X67128806Y-39669134D01*
X67125961Y-39659755D01*
X67125000Y-39650000D01*
X67125000Y-36350000D01*
X67125961Y-36340245D01*
X67128806Y-36330866D01*
X67133427Y-36322221D01*
X67139645Y-36314645D01*
X67147221Y-36308427D01*
X67155866Y-36303806D01*
X67165245Y-36300961D01*
X67175000Y-36300000D01*
X67375000Y-36300000D01*
X67384755Y-36300961D01*
G37*
G36*
X68334755Y-36300961D02*
G01*
X68344134Y-36303806D01*
X68352779Y-36308427D01*
X68360355Y-36314645D01*
X68366573Y-36322221D01*
X68371194Y-36330866D01*
X68374039Y-36340245D01*
X68375000Y-36350000D01*
X68375000Y-39650000D01*
X68374039Y-39659755D01*
X68371194Y-39669134D01*
X68366573Y-39677779D01*
X68360355Y-39685355D01*
X68352779Y-39691573D01*
X68344134Y-39696194D01*
X68334755Y-39699039D01*
X68325000Y-39700000D01*
X68025000Y-39700000D01*
X68015245Y-39699039D01*
X68005866Y-39696194D01*
X67997221Y-39691573D01*
X67989645Y-39685355D01*
X67983427Y-39677779D01*
X67978806Y-39669134D01*
X67975961Y-39659755D01*
X67975000Y-39650000D01*
X67975000Y-36350000D01*
X67975961Y-36340245D01*
X67978806Y-36330866D01*
X67983427Y-36322221D01*
X67989645Y-36314645D01*
X67997221Y-36308427D01*
X68005866Y-36303806D01*
X68015245Y-36300961D01*
X68025000Y-36300000D01*
X68325000Y-36300000D01*
X68334755Y-36300961D01*
G37*
G36*
X68659755Y-36840961D02*
G01*
X68669134Y-36843806D01*
X68677779Y-36848427D01*
X68685355Y-36854645D01*
X68691573Y-36862221D01*
X68696194Y-36870866D01*
X68699039Y-36880245D01*
X68700000Y-36890000D01*
X68700000Y-37160000D01*
X68699039Y-37169755D01*
X68696194Y-37179134D01*
X68691573Y-37187779D01*
X68685355Y-37195355D01*
X68677779Y-37201573D01*
X68669134Y-37206194D01*
X68659755Y-37209039D01*
X68650000Y-37210000D01*
X68025000Y-37210000D01*
X68015245Y-37209039D01*
X68005866Y-37206194D01*
X67997221Y-37201573D01*
X67989645Y-37195355D01*
X67983427Y-37187779D01*
X67978806Y-37179134D01*
X67975961Y-37169755D01*
X67975000Y-37160000D01*
X67975000Y-36890000D01*
X67975961Y-36880245D01*
X67978806Y-36870866D01*
X67983427Y-36862221D01*
X67989645Y-36854645D01*
X67997221Y-36848427D01*
X68005866Y-36843806D01*
X68015245Y-36840961D01*
X68025000Y-36840000D01*
X68650000Y-36840000D01*
X68659755Y-36840961D01*
G37*
G36*
X68659755Y-37490961D02*
G01*
X68669134Y-37493806D01*
X68677779Y-37498427D01*
X68685355Y-37504645D01*
X68691573Y-37512221D01*
X68696194Y-37520866D01*
X68699039Y-37530245D01*
X68700000Y-37540000D01*
X68700000Y-37810000D01*
X68699039Y-37819755D01*
X68696194Y-37829134D01*
X68691573Y-37837779D01*
X68685355Y-37845355D01*
X68677779Y-37851573D01*
X68669134Y-37856194D01*
X68659755Y-37859039D01*
X68650000Y-37860000D01*
X68025000Y-37860000D01*
X68015245Y-37859039D01*
X68005866Y-37856194D01*
X67997221Y-37851573D01*
X67989645Y-37845355D01*
X67983427Y-37837779D01*
X67978806Y-37829134D01*
X67975961Y-37819755D01*
X67975000Y-37810000D01*
X67975000Y-37540000D01*
X67975961Y-37530245D01*
X67978806Y-37520866D01*
X67983427Y-37512221D01*
X67989645Y-37504645D01*
X67997221Y-37498427D01*
X68005866Y-37493806D01*
X68015245Y-37490961D01*
X68025000Y-37490000D01*
X68650000Y-37490000D01*
X68659755Y-37490961D01*
G37*
G36*
X68659755Y-38140961D02*
G01*
X68669134Y-38143806D01*
X68677779Y-38148427D01*
X68685355Y-38154645D01*
X68691573Y-38162221D01*
X68696194Y-38170866D01*
X68699039Y-38180245D01*
X68700000Y-38190000D01*
X68700000Y-38460000D01*
X68699039Y-38469755D01*
X68696194Y-38479134D01*
X68691573Y-38487779D01*
X68685355Y-38495355D01*
X68677779Y-38501573D01*
X68669134Y-38506194D01*
X68659755Y-38509039D01*
X68650000Y-38510000D01*
X68025000Y-38510000D01*
X68015245Y-38509039D01*
X68005866Y-38506194D01*
X67997221Y-38501573D01*
X67989645Y-38495355D01*
X67983427Y-38487779D01*
X67978806Y-38479134D01*
X67975961Y-38469755D01*
X67975000Y-38460000D01*
X67975000Y-38190000D01*
X67975961Y-38180245D01*
X67978806Y-38170866D01*
X67983427Y-38162221D01*
X67989645Y-38154645D01*
X67997221Y-38148427D01*
X68005866Y-38143806D01*
X68015245Y-38140961D01*
X68025000Y-38140000D01*
X68650000Y-38140000D01*
X68659755Y-38140961D01*
G37*
G36*
X68659755Y-38790961D02*
G01*
X68669134Y-38793806D01*
X68677779Y-38798427D01*
X68685355Y-38804645D01*
X68691573Y-38812221D01*
X68696194Y-38820866D01*
X68699039Y-38830245D01*
X68700000Y-38840000D01*
X68700000Y-39110000D01*
X68699039Y-39119755D01*
X68696194Y-39129134D01*
X68691573Y-39137779D01*
X68685355Y-39145355D01*
X68677779Y-39151573D01*
X68669134Y-39156194D01*
X68659755Y-39159039D01*
X68650000Y-39160000D01*
X68025000Y-39160000D01*
X68015245Y-39159039D01*
X68005866Y-39156194D01*
X67997221Y-39151573D01*
X67989645Y-39145355D01*
X67983427Y-39137779D01*
X67978806Y-39129134D01*
X67975961Y-39119755D01*
X67975000Y-39110000D01*
X67975000Y-38840000D01*
X67975961Y-38830245D01*
X67978806Y-38820866D01*
X67983427Y-38812221D01*
X67989645Y-38804645D01*
X67997221Y-38798427D01*
X68005866Y-38793806D01*
X68015245Y-38790961D01*
X68025000Y-38790000D01*
X68650000Y-38790000D01*
X68659755Y-38790961D01*
G37*
%TO.C,QH2*%
G36*
X63984755Y-30840961D02*
G01*
X63994134Y-30843806D01*
X64002779Y-30848427D01*
X64010355Y-30854645D01*
X64016573Y-30862221D01*
X64021194Y-30870866D01*
X64024039Y-30880245D01*
X64025000Y-30890000D01*
X64025000Y-31160000D01*
X64024039Y-31169755D01*
X64021194Y-31179134D01*
X64016573Y-31187779D01*
X64010355Y-31195355D01*
X64002779Y-31201573D01*
X63994134Y-31206194D01*
X63984755Y-31209039D01*
X63975000Y-31210000D01*
X63350000Y-31210000D01*
X63340245Y-31209039D01*
X63330866Y-31206194D01*
X63322221Y-31201573D01*
X63314645Y-31195355D01*
X63308427Y-31187779D01*
X63303806Y-31179134D01*
X63300961Y-31169755D01*
X63300000Y-31160000D01*
X63300000Y-30890000D01*
X63300961Y-30880245D01*
X63303806Y-30870866D01*
X63308427Y-30862221D01*
X63314645Y-30854645D01*
X63322221Y-30848427D01*
X63330866Y-30843806D01*
X63340245Y-30840961D01*
X63350000Y-30840000D01*
X63975000Y-30840000D01*
X63984755Y-30840961D01*
G37*
G36*
X63984755Y-30300961D02*
G01*
X63994134Y-30303806D01*
X64002779Y-30308427D01*
X64010355Y-30314645D01*
X64016573Y-30322221D01*
X64021194Y-30330866D01*
X64024039Y-30340245D01*
X64025000Y-30350000D01*
X64025000Y-31235000D01*
X64024039Y-31244755D01*
X64021194Y-31254134D01*
X64016573Y-31262779D01*
X64010355Y-31270355D01*
X64002779Y-31276573D01*
X63994134Y-31281194D01*
X63984755Y-31284039D01*
X63975000Y-31285000D01*
X63675000Y-31285000D01*
X63665245Y-31284039D01*
X63655866Y-31281194D01*
X63647221Y-31276573D01*
X63639645Y-31270355D01*
X63633427Y-31262779D01*
X63628806Y-31254134D01*
X63625961Y-31244755D01*
X63625000Y-31235000D01*
X63625000Y-30350000D01*
X63625961Y-30340245D01*
X63628806Y-30330866D01*
X63633427Y-30322221D01*
X63639645Y-30314645D01*
X63647221Y-30308427D01*
X63655866Y-30303806D01*
X63665245Y-30300961D01*
X63675000Y-30300000D01*
X63975000Y-30300000D01*
X63984755Y-30300961D01*
G37*
G36*
X63984755Y-31590961D02*
G01*
X63994134Y-31593806D01*
X64002779Y-31598427D01*
X64010355Y-31604645D01*
X64016573Y-31612221D01*
X64021194Y-31620866D01*
X64024039Y-31630245D01*
X64025000Y-31640000D01*
X64025000Y-31910000D01*
X64024039Y-31919755D01*
X64021194Y-31929134D01*
X64016573Y-31937779D01*
X64010355Y-31945355D01*
X64002779Y-31951573D01*
X63994134Y-31956194D01*
X63984755Y-31959039D01*
X63975000Y-31960000D01*
X63350000Y-31960000D01*
X63340245Y-31959039D01*
X63330866Y-31956194D01*
X63322221Y-31951573D01*
X63314645Y-31945355D01*
X63308427Y-31937779D01*
X63303806Y-31929134D01*
X63300961Y-31919755D01*
X63300000Y-31910000D01*
X63300000Y-31640000D01*
X63300961Y-31630245D01*
X63303806Y-31620866D01*
X63308427Y-31612221D01*
X63314645Y-31604645D01*
X63322221Y-31598427D01*
X63330866Y-31593806D01*
X63340245Y-31590961D01*
X63350000Y-31590000D01*
X63975000Y-31590000D01*
X63984755Y-31590961D01*
G37*
G36*
X63984755Y-32140961D02*
G01*
X63994134Y-32143806D01*
X64002779Y-32148427D01*
X64010355Y-32154645D01*
X64016573Y-32162221D01*
X64021194Y-32170866D01*
X64024039Y-32180245D01*
X64025000Y-32190000D01*
X64025000Y-32460000D01*
X64024039Y-32469755D01*
X64021194Y-32479134D01*
X64016573Y-32487779D01*
X64010355Y-32495355D01*
X64002779Y-32501573D01*
X63994134Y-32506194D01*
X63984755Y-32509039D01*
X63975000Y-32510000D01*
X63350000Y-32510000D01*
X63340245Y-32509039D01*
X63330866Y-32506194D01*
X63322221Y-32501573D01*
X63314645Y-32495355D01*
X63308427Y-32487779D01*
X63303806Y-32479134D01*
X63300961Y-32469755D01*
X63300000Y-32460000D01*
X63300000Y-32190000D01*
X63300961Y-32180245D01*
X63303806Y-32170866D01*
X63308427Y-32162221D01*
X63314645Y-32154645D01*
X63322221Y-32148427D01*
X63330866Y-32143806D01*
X63340245Y-32140961D01*
X63350000Y-32140000D01*
X63975000Y-32140000D01*
X63984755Y-32140961D01*
G37*
G36*
X63984755Y-32790961D02*
G01*
X63994134Y-32793806D01*
X64002779Y-32798427D01*
X64010355Y-32804645D01*
X64016573Y-32812221D01*
X64021194Y-32820866D01*
X64024039Y-32830245D01*
X64025000Y-32840000D01*
X64025000Y-33110000D01*
X64024039Y-33119755D01*
X64021194Y-33129134D01*
X64016573Y-33137779D01*
X64010355Y-33145355D01*
X64002779Y-33151573D01*
X63994134Y-33156194D01*
X63984755Y-33159039D01*
X63975000Y-33160000D01*
X63350000Y-33160000D01*
X63340245Y-33159039D01*
X63330866Y-33156194D01*
X63322221Y-33151573D01*
X63314645Y-33145355D01*
X63308427Y-33137779D01*
X63303806Y-33129134D01*
X63300961Y-33119755D01*
X63300000Y-33110000D01*
X63300000Y-32840000D01*
X63300961Y-32830245D01*
X63303806Y-32820866D01*
X63308427Y-32812221D01*
X63314645Y-32804645D01*
X63322221Y-32798427D01*
X63330866Y-32793806D01*
X63340245Y-32790961D01*
X63350000Y-32790000D01*
X63975000Y-32790000D01*
X63984755Y-32790961D01*
G37*
G36*
X63984755Y-31600961D02*
G01*
X63994134Y-31603806D01*
X64002779Y-31608427D01*
X64010355Y-31614645D01*
X64016573Y-31622221D01*
X64021194Y-31630866D01*
X64024039Y-31640245D01*
X64025000Y-31650000D01*
X64025000Y-33650000D01*
X64024039Y-33659755D01*
X64021194Y-33669134D01*
X64016573Y-33677779D01*
X64010355Y-33685355D01*
X64002779Y-33691573D01*
X63994134Y-33696194D01*
X63984755Y-33699039D01*
X63975000Y-33700000D01*
X63675000Y-33700000D01*
X63665245Y-33699039D01*
X63655866Y-33696194D01*
X63647221Y-33691573D01*
X63639645Y-33685355D01*
X63633427Y-33677779D01*
X63628806Y-33669134D01*
X63625961Y-33659755D01*
X63625000Y-33650000D01*
X63625000Y-31650000D01*
X63625961Y-31640245D01*
X63628806Y-31630866D01*
X63633427Y-31622221D01*
X63639645Y-31614645D01*
X63647221Y-31608427D01*
X63655866Y-31603806D01*
X63665245Y-31600961D01*
X63675000Y-31600000D01*
X63975000Y-31600000D01*
X63984755Y-31600961D01*
G37*
G36*
X64834755Y-30300961D02*
G01*
X64844134Y-30303806D01*
X64852779Y-30308427D01*
X64860355Y-30314645D01*
X64866573Y-30322221D01*
X64871194Y-30330866D01*
X64874039Y-30340245D01*
X64875000Y-30350000D01*
X64875000Y-33650000D01*
X64874039Y-33659755D01*
X64871194Y-33669134D01*
X64866573Y-33677779D01*
X64860355Y-33685355D01*
X64852779Y-33691573D01*
X64844134Y-33696194D01*
X64834755Y-33699039D01*
X64825000Y-33700000D01*
X64625000Y-33700000D01*
X64615245Y-33699039D01*
X64605866Y-33696194D01*
X64597221Y-33691573D01*
X64589645Y-33685355D01*
X64583427Y-33677779D01*
X64578806Y-33669134D01*
X64575961Y-33659755D01*
X64575000Y-33650000D01*
X64575000Y-30350000D01*
X64575961Y-30340245D01*
X64578806Y-30330866D01*
X64583427Y-30322221D01*
X64589645Y-30314645D01*
X64597221Y-30308427D01*
X64605866Y-30303806D01*
X64615245Y-30300961D01*
X64625000Y-30300000D01*
X64825000Y-30300000D01*
X64834755Y-30300961D01*
G37*
G36*
X65684755Y-30300961D02*
G01*
X65694134Y-30303806D01*
X65702779Y-30308427D01*
X65710355Y-30314645D01*
X65716573Y-30322221D01*
X65721194Y-30330866D01*
X65724039Y-30340245D01*
X65725000Y-30350000D01*
X65725000Y-33650000D01*
X65724039Y-33659755D01*
X65721194Y-33669134D01*
X65716573Y-33677779D01*
X65710355Y-33685355D01*
X65702779Y-33691573D01*
X65694134Y-33696194D01*
X65684755Y-33699039D01*
X65675000Y-33700000D01*
X65475000Y-33700000D01*
X65465245Y-33699039D01*
X65455866Y-33696194D01*
X65447221Y-33691573D01*
X65439645Y-33685355D01*
X65433427Y-33677779D01*
X65428806Y-33669134D01*
X65425961Y-33659755D01*
X65425000Y-33650000D01*
X65425000Y-30350000D01*
X65425961Y-30340245D01*
X65428806Y-30330866D01*
X65433427Y-30322221D01*
X65439645Y-30314645D01*
X65447221Y-30308427D01*
X65455866Y-30303806D01*
X65465245Y-30300961D01*
X65475000Y-30300000D01*
X65675000Y-30300000D01*
X65684755Y-30300961D01*
G37*
G36*
X66534755Y-30300961D02*
G01*
X66544134Y-30303806D01*
X66552779Y-30308427D01*
X66560355Y-30314645D01*
X66566573Y-30322221D01*
X66571194Y-30330866D01*
X66574039Y-30340245D01*
X66575000Y-30350000D01*
X66575000Y-33650000D01*
X66574039Y-33659755D01*
X66571194Y-33669134D01*
X66566573Y-33677779D01*
X66560355Y-33685355D01*
X66552779Y-33691573D01*
X66544134Y-33696194D01*
X66534755Y-33699039D01*
X66525000Y-33700000D01*
X66325000Y-33700000D01*
X66315245Y-33699039D01*
X66305866Y-33696194D01*
X66297221Y-33691573D01*
X66289645Y-33685355D01*
X66283427Y-33677779D01*
X66278806Y-33669134D01*
X66275961Y-33659755D01*
X66275000Y-33650000D01*
X66275000Y-30350000D01*
X66275961Y-30340245D01*
X66278806Y-30330866D01*
X66283427Y-30322221D01*
X66289645Y-30314645D01*
X66297221Y-30308427D01*
X66305866Y-30303806D01*
X66315245Y-30300961D01*
X66325000Y-30300000D01*
X66525000Y-30300000D01*
X66534755Y-30300961D01*
G37*
G36*
X67384755Y-30300961D02*
G01*
X67394134Y-30303806D01*
X67402779Y-30308427D01*
X67410355Y-30314645D01*
X67416573Y-30322221D01*
X67421194Y-30330866D01*
X67424039Y-30340245D01*
X67425000Y-30350000D01*
X67425000Y-33650000D01*
X67424039Y-33659755D01*
X67421194Y-33669134D01*
X67416573Y-33677779D01*
X67410355Y-33685355D01*
X67402779Y-33691573D01*
X67394134Y-33696194D01*
X67384755Y-33699039D01*
X67375000Y-33700000D01*
X67175000Y-33700000D01*
X67165245Y-33699039D01*
X67155866Y-33696194D01*
X67147221Y-33691573D01*
X67139645Y-33685355D01*
X67133427Y-33677779D01*
X67128806Y-33669134D01*
X67125961Y-33659755D01*
X67125000Y-33650000D01*
X67125000Y-30350000D01*
X67125961Y-30340245D01*
X67128806Y-30330866D01*
X67133427Y-30322221D01*
X67139645Y-30314645D01*
X67147221Y-30308427D01*
X67155866Y-30303806D01*
X67165245Y-30300961D01*
X67175000Y-30300000D01*
X67375000Y-30300000D01*
X67384755Y-30300961D01*
G37*
G36*
X68334755Y-30300961D02*
G01*
X68344134Y-30303806D01*
X68352779Y-30308427D01*
X68360355Y-30314645D01*
X68366573Y-30322221D01*
X68371194Y-30330866D01*
X68374039Y-30340245D01*
X68375000Y-30350000D01*
X68375000Y-33650000D01*
X68374039Y-33659755D01*
X68371194Y-33669134D01*
X68366573Y-33677779D01*
X68360355Y-33685355D01*
X68352779Y-33691573D01*
X68344134Y-33696194D01*
X68334755Y-33699039D01*
X68325000Y-33700000D01*
X68025000Y-33700000D01*
X68015245Y-33699039D01*
X68005866Y-33696194D01*
X67997221Y-33691573D01*
X67989645Y-33685355D01*
X67983427Y-33677779D01*
X67978806Y-33669134D01*
X67975961Y-33659755D01*
X67975000Y-33650000D01*
X67975000Y-30350000D01*
X67975961Y-30340245D01*
X67978806Y-30330866D01*
X67983427Y-30322221D01*
X67989645Y-30314645D01*
X67997221Y-30308427D01*
X68005866Y-30303806D01*
X68015245Y-30300961D01*
X68025000Y-30300000D01*
X68325000Y-30300000D01*
X68334755Y-30300961D01*
G37*
G36*
X68659755Y-30840961D02*
G01*
X68669134Y-30843806D01*
X68677779Y-30848427D01*
X68685355Y-30854645D01*
X68691573Y-30862221D01*
X68696194Y-30870866D01*
X68699039Y-30880245D01*
X68700000Y-30890000D01*
X68700000Y-31160000D01*
X68699039Y-31169755D01*
X68696194Y-31179134D01*
X68691573Y-31187779D01*
X68685355Y-31195355D01*
X68677779Y-31201573D01*
X68669134Y-31206194D01*
X68659755Y-31209039D01*
X68650000Y-31210000D01*
X68025000Y-31210000D01*
X68015245Y-31209039D01*
X68005866Y-31206194D01*
X67997221Y-31201573D01*
X67989645Y-31195355D01*
X67983427Y-31187779D01*
X67978806Y-31179134D01*
X67975961Y-31169755D01*
X67975000Y-31160000D01*
X67975000Y-30890000D01*
X67975961Y-30880245D01*
X67978806Y-30870866D01*
X67983427Y-30862221D01*
X67989645Y-30854645D01*
X67997221Y-30848427D01*
X68005866Y-30843806D01*
X68015245Y-30840961D01*
X68025000Y-30840000D01*
X68650000Y-30840000D01*
X68659755Y-30840961D01*
G37*
G36*
X68659755Y-31490961D02*
G01*
X68669134Y-31493806D01*
X68677779Y-31498427D01*
X68685355Y-31504645D01*
X68691573Y-31512221D01*
X68696194Y-31520866D01*
X68699039Y-31530245D01*
X68700000Y-31540000D01*
X68700000Y-31810000D01*
X68699039Y-31819755D01*
X68696194Y-31829134D01*
X68691573Y-31837779D01*
X68685355Y-31845355D01*
X68677779Y-31851573D01*
X68669134Y-31856194D01*
X68659755Y-31859039D01*
X68650000Y-31860000D01*
X68025000Y-31860000D01*
X68015245Y-31859039D01*
X68005866Y-31856194D01*
X67997221Y-31851573D01*
X67989645Y-31845355D01*
X67983427Y-31837779D01*
X67978806Y-31829134D01*
X67975961Y-31819755D01*
X67975000Y-31810000D01*
X67975000Y-31540000D01*
X67975961Y-31530245D01*
X67978806Y-31520866D01*
X67983427Y-31512221D01*
X67989645Y-31504645D01*
X67997221Y-31498427D01*
X68005866Y-31493806D01*
X68015245Y-31490961D01*
X68025000Y-31490000D01*
X68650000Y-31490000D01*
X68659755Y-31490961D01*
G37*
G36*
X68659755Y-32140961D02*
G01*
X68669134Y-32143806D01*
X68677779Y-32148427D01*
X68685355Y-32154645D01*
X68691573Y-32162221D01*
X68696194Y-32170866D01*
X68699039Y-32180245D01*
X68700000Y-32190000D01*
X68700000Y-32460000D01*
X68699039Y-32469755D01*
X68696194Y-32479134D01*
X68691573Y-32487779D01*
X68685355Y-32495355D01*
X68677779Y-32501573D01*
X68669134Y-32506194D01*
X68659755Y-32509039D01*
X68650000Y-32510000D01*
X68025000Y-32510000D01*
X68015245Y-32509039D01*
X68005866Y-32506194D01*
X67997221Y-32501573D01*
X67989645Y-32495355D01*
X67983427Y-32487779D01*
X67978806Y-32479134D01*
X67975961Y-32469755D01*
X67975000Y-32460000D01*
X67975000Y-32190000D01*
X67975961Y-32180245D01*
X67978806Y-32170866D01*
X67983427Y-32162221D01*
X67989645Y-32154645D01*
X67997221Y-32148427D01*
X68005866Y-32143806D01*
X68015245Y-32140961D01*
X68025000Y-32140000D01*
X68650000Y-32140000D01*
X68659755Y-32140961D01*
G37*
G36*
X68659755Y-32790961D02*
G01*
X68669134Y-32793806D01*
X68677779Y-32798427D01*
X68685355Y-32804645D01*
X68691573Y-32812221D01*
X68696194Y-32820866D01*
X68699039Y-32830245D01*
X68700000Y-32840000D01*
X68700000Y-33110000D01*
X68699039Y-33119755D01*
X68696194Y-33129134D01*
X68691573Y-33137779D01*
X68685355Y-33145355D01*
X68677779Y-33151573D01*
X68669134Y-33156194D01*
X68659755Y-33159039D01*
X68650000Y-33160000D01*
X68025000Y-33160000D01*
X68015245Y-33159039D01*
X68005866Y-33156194D01*
X67997221Y-33151573D01*
X67989645Y-33145355D01*
X67983427Y-33137779D01*
X67978806Y-33129134D01*
X67975961Y-33119755D01*
X67975000Y-33110000D01*
X67975000Y-32840000D01*
X67975961Y-32830245D01*
X67978806Y-32820866D01*
X67983427Y-32812221D01*
X67989645Y-32804645D01*
X67997221Y-32798427D01*
X68005866Y-32793806D01*
X68015245Y-32790961D01*
X68025000Y-32790000D01*
X68650000Y-32790000D01*
X68659755Y-32790961D01*
G37*
%TO.C,QH1*%
G36*
X45984755Y-30840961D02*
G01*
X45994134Y-30843806D01*
X46002779Y-30848427D01*
X46010355Y-30854645D01*
X46016573Y-30862221D01*
X46021194Y-30870866D01*
X46024039Y-30880245D01*
X46025000Y-30890000D01*
X46025000Y-31160000D01*
X46024039Y-31169755D01*
X46021194Y-31179134D01*
X46016573Y-31187779D01*
X46010355Y-31195355D01*
X46002779Y-31201573D01*
X45994134Y-31206194D01*
X45984755Y-31209039D01*
X45975000Y-31210000D01*
X45350000Y-31210000D01*
X45340245Y-31209039D01*
X45330866Y-31206194D01*
X45322221Y-31201573D01*
X45314645Y-31195355D01*
X45308427Y-31187779D01*
X45303806Y-31179134D01*
X45300961Y-31169755D01*
X45300000Y-31160000D01*
X45300000Y-30890000D01*
X45300961Y-30880245D01*
X45303806Y-30870866D01*
X45308427Y-30862221D01*
X45314645Y-30854645D01*
X45322221Y-30848427D01*
X45330866Y-30843806D01*
X45340245Y-30840961D01*
X45350000Y-30840000D01*
X45975000Y-30840000D01*
X45984755Y-30840961D01*
G37*
G36*
X45984755Y-30300961D02*
G01*
X45994134Y-30303806D01*
X46002779Y-30308427D01*
X46010355Y-30314645D01*
X46016573Y-30322221D01*
X46021194Y-30330866D01*
X46024039Y-30340245D01*
X46025000Y-30350000D01*
X46025000Y-31235000D01*
X46024039Y-31244755D01*
X46021194Y-31254134D01*
X46016573Y-31262779D01*
X46010355Y-31270355D01*
X46002779Y-31276573D01*
X45994134Y-31281194D01*
X45984755Y-31284039D01*
X45975000Y-31285000D01*
X45675000Y-31285000D01*
X45665245Y-31284039D01*
X45655866Y-31281194D01*
X45647221Y-31276573D01*
X45639645Y-31270355D01*
X45633427Y-31262779D01*
X45628806Y-31254134D01*
X45625961Y-31244755D01*
X45625000Y-31235000D01*
X45625000Y-30350000D01*
X45625961Y-30340245D01*
X45628806Y-30330866D01*
X45633427Y-30322221D01*
X45639645Y-30314645D01*
X45647221Y-30308427D01*
X45655866Y-30303806D01*
X45665245Y-30300961D01*
X45675000Y-30300000D01*
X45975000Y-30300000D01*
X45984755Y-30300961D01*
G37*
G36*
X45984755Y-31590961D02*
G01*
X45994134Y-31593806D01*
X46002779Y-31598427D01*
X46010355Y-31604645D01*
X46016573Y-31612221D01*
X46021194Y-31620866D01*
X46024039Y-31630245D01*
X46025000Y-31640000D01*
X46025000Y-31910000D01*
X46024039Y-31919755D01*
X46021194Y-31929134D01*
X46016573Y-31937779D01*
X46010355Y-31945355D01*
X46002779Y-31951573D01*
X45994134Y-31956194D01*
X45984755Y-31959039D01*
X45975000Y-31960000D01*
X45350000Y-31960000D01*
X45340245Y-31959039D01*
X45330866Y-31956194D01*
X45322221Y-31951573D01*
X45314645Y-31945355D01*
X45308427Y-31937779D01*
X45303806Y-31929134D01*
X45300961Y-31919755D01*
X45300000Y-31910000D01*
X45300000Y-31640000D01*
X45300961Y-31630245D01*
X45303806Y-31620866D01*
X45308427Y-31612221D01*
X45314645Y-31604645D01*
X45322221Y-31598427D01*
X45330866Y-31593806D01*
X45340245Y-31590961D01*
X45350000Y-31590000D01*
X45975000Y-31590000D01*
X45984755Y-31590961D01*
G37*
G36*
X45984755Y-32140961D02*
G01*
X45994134Y-32143806D01*
X46002779Y-32148427D01*
X46010355Y-32154645D01*
X46016573Y-32162221D01*
X46021194Y-32170866D01*
X46024039Y-32180245D01*
X46025000Y-32190000D01*
X46025000Y-32460000D01*
X46024039Y-32469755D01*
X46021194Y-32479134D01*
X46016573Y-32487779D01*
X46010355Y-32495355D01*
X46002779Y-32501573D01*
X45994134Y-32506194D01*
X45984755Y-32509039D01*
X45975000Y-32510000D01*
X45350000Y-32510000D01*
X45340245Y-32509039D01*
X45330866Y-32506194D01*
X45322221Y-32501573D01*
X45314645Y-32495355D01*
X45308427Y-32487779D01*
X45303806Y-32479134D01*
X45300961Y-32469755D01*
X45300000Y-32460000D01*
X45300000Y-32190000D01*
X45300961Y-32180245D01*
X45303806Y-32170866D01*
X45308427Y-32162221D01*
X45314645Y-32154645D01*
X45322221Y-32148427D01*
X45330866Y-32143806D01*
X45340245Y-32140961D01*
X45350000Y-32140000D01*
X45975000Y-32140000D01*
X45984755Y-32140961D01*
G37*
G36*
X45984755Y-32790961D02*
G01*
X45994134Y-32793806D01*
X46002779Y-32798427D01*
X46010355Y-32804645D01*
X46016573Y-32812221D01*
X46021194Y-32820866D01*
X46024039Y-32830245D01*
X46025000Y-32840000D01*
X46025000Y-33110000D01*
X46024039Y-33119755D01*
X46021194Y-33129134D01*
X46016573Y-33137779D01*
X46010355Y-33145355D01*
X46002779Y-33151573D01*
X45994134Y-33156194D01*
X45984755Y-33159039D01*
X45975000Y-33160000D01*
X45350000Y-33160000D01*
X45340245Y-33159039D01*
X45330866Y-33156194D01*
X45322221Y-33151573D01*
X45314645Y-33145355D01*
X45308427Y-33137779D01*
X45303806Y-33129134D01*
X45300961Y-33119755D01*
X45300000Y-33110000D01*
X45300000Y-32840000D01*
X45300961Y-32830245D01*
X45303806Y-32820866D01*
X45308427Y-32812221D01*
X45314645Y-32804645D01*
X45322221Y-32798427D01*
X45330866Y-32793806D01*
X45340245Y-32790961D01*
X45350000Y-32790000D01*
X45975000Y-32790000D01*
X45984755Y-32790961D01*
G37*
G36*
X45984755Y-31600961D02*
G01*
X45994134Y-31603806D01*
X46002779Y-31608427D01*
X46010355Y-31614645D01*
X46016573Y-31622221D01*
X46021194Y-31630866D01*
X46024039Y-31640245D01*
X46025000Y-31650000D01*
X46025000Y-33650000D01*
X46024039Y-33659755D01*
X46021194Y-33669134D01*
X46016573Y-33677779D01*
X46010355Y-33685355D01*
X46002779Y-33691573D01*
X45994134Y-33696194D01*
X45984755Y-33699039D01*
X45975000Y-33700000D01*
X45675000Y-33700000D01*
X45665245Y-33699039D01*
X45655866Y-33696194D01*
X45647221Y-33691573D01*
X45639645Y-33685355D01*
X45633427Y-33677779D01*
X45628806Y-33669134D01*
X45625961Y-33659755D01*
X45625000Y-33650000D01*
X45625000Y-31650000D01*
X45625961Y-31640245D01*
X45628806Y-31630866D01*
X45633427Y-31622221D01*
X45639645Y-31614645D01*
X45647221Y-31608427D01*
X45655866Y-31603806D01*
X45665245Y-31600961D01*
X45675000Y-31600000D01*
X45975000Y-31600000D01*
X45984755Y-31600961D01*
G37*
G36*
X46834755Y-30300961D02*
G01*
X46844134Y-30303806D01*
X46852779Y-30308427D01*
X46860355Y-30314645D01*
X46866573Y-30322221D01*
X46871194Y-30330866D01*
X46874039Y-30340245D01*
X46875000Y-30350000D01*
X46875000Y-33650000D01*
X46874039Y-33659755D01*
X46871194Y-33669134D01*
X46866573Y-33677779D01*
X46860355Y-33685355D01*
X46852779Y-33691573D01*
X46844134Y-33696194D01*
X46834755Y-33699039D01*
X46825000Y-33700000D01*
X46625000Y-33700000D01*
X46615245Y-33699039D01*
X46605866Y-33696194D01*
X46597221Y-33691573D01*
X46589645Y-33685355D01*
X46583427Y-33677779D01*
X46578806Y-33669134D01*
X46575961Y-33659755D01*
X46575000Y-33650000D01*
X46575000Y-30350000D01*
X46575961Y-30340245D01*
X46578806Y-30330866D01*
X46583427Y-30322221D01*
X46589645Y-30314645D01*
X46597221Y-30308427D01*
X46605866Y-30303806D01*
X46615245Y-30300961D01*
X46625000Y-30300000D01*
X46825000Y-30300000D01*
X46834755Y-30300961D01*
G37*
G36*
X47684755Y-30300961D02*
G01*
X47694134Y-30303806D01*
X47702779Y-30308427D01*
X47710355Y-30314645D01*
X47716573Y-30322221D01*
X47721194Y-30330866D01*
X47724039Y-30340245D01*
X47725000Y-30350000D01*
X47725000Y-33650000D01*
X47724039Y-33659755D01*
X47721194Y-33669134D01*
X47716573Y-33677779D01*
X47710355Y-33685355D01*
X47702779Y-33691573D01*
X47694134Y-33696194D01*
X47684755Y-33699039D01*
X47675000Y-33700000D01*
X47475000Y-33700000D01*
X47465245Y-33699039D01*
X47455866Y-33696194D01*
X47447221Y-33691573D01*
X47439645Y-33685355D01*
X47433427Y-33677779D01*
X47428806Y-33669134D01*
X47425961Y-33659755D01*
X47425000Y-33650000D01*
X47425000Y-30350000D01*
X47425961Y-30340245D01*
X47428806Y-30330866D01*
X47433427Y-30322221D01*
X47439645Y-30314645D01*
X47447221Y-30308427D01*
X47455866Y-30303806D01*
X47465245Y-30300961D01*
X47475000Y-30300000D01*
X47675000Y-30300000D01*
X47684755Y-30300961D01*
G37*
G36*
X48534755Y-30300961D02*
G01*
X48544134Y-30303806D01*
X48552779Y-30308427D01*
X48560355Y-30314645D01*
X48566573Y-30322221D01*
X48571194Y-30330866D01*
X48574039Y-30340245D01*
X48575000Y-30350000D01*
X48575000Y-33650000D01*
X48574039Y-33659755D01*
X48571194Y-33669134D01*
X48566573Y-33677779D01*
X48560355Y-33685355D01*
X48552779Y-33691573D01*
X48544134Y-33696194D01*
X48534755Y-33699039D01*
X48525000Y-33700000D01*
X48325000Y-33700000D01*
X48315245Y-33699039D01*
X48305866Y-33696194D01*
X48297221Y-33691573D01*
X48289645Y-33685355D01*
X48283427Y-33677779D01*
X48278806Y-33669134D01*
X48275961Y-33659755D01*
X48275000Y-33650000D01*
X48275000Y-30350000D01*
X48275961Y-30340245D01*
X48278806Y-30330866D01*
X48283427Y-30322221D01*
X48289645Y-30314645D01*
X48297221Y-30308427D01*
X48305866Y-30303806D01*
X48315245Y-30300961D01*
X48325000Y-30300000D01*
X48525000Y-30300000D01*
X48534755Y-30300961D01*
G37*
G36*
X49384755Y-30300961D02*
G01*
X49394134Y-30303806D01*
X49402779Y-30308427D01*
X49410355Y-30314645D01*
X49416573Y-30322221D01*
X49421194Y-30330866D01*
X49424039Y-30340245D01*
X49425000Y-30350000D01*
X49425000Y-33650000D01*
X49424039Y-33659755D01*
X49421194Y-33669134D01*
X49416573Y-33677779D01*
X49410355Y-33685355D01*
X49402779Y-33691573D01*
X49394134Y-33696194D01*
X49384755Y-33699039D01*
X49375000Y-33700000D01*
X49175000Y-33700000D01*
X49165245Y-33699039D01*
X49155866Y-33696194D01*
X49147221Y-33691573D01*
X49139645Y-33685355D01*
X49133427Y-33677779D01*
X49128806Y-33669134D01*
X49125961Y-33659755D01*
X49125000Y-33650000D01*
X49125000Y-30350000D01*
X49125961Y-30340245D01*
X49128806Y-30330866D01*
X49133427Y-30322221D01*
X49139645Y-30314645D01*
X49147221Y-30308427D01*
X49155866Y-30303806D01*
X49165245Y-30300961D01*
X49175000Y-30300000D01*
X49375000Y-30300000D01*
X49384755Y-30300961D01*
G37*
G36*
X50334755Y-30300961D02*
G01*
X50344134Y-30303806D01*
X50352779Y-30308427D01*
X50360355Y-30314645D01*
X50366573Y-30322221D01*
X50371194Y-30330866D01*
X50374039Y-30340245D01*
X50375000Y-30350000D01*
X50375000Y-33650000D01*
X50374039Y-33659755D01*
X50371194Y-33669134D01*
X50366573Y-33677779D01*
X50360355Y-33685355D01*
X50352779Y-33691573D01*
X50344134Y-33696194D01*
X50334755Y-33699039D01*
X50325000Y-33700000D01*
X50025000Y-33700000D01*
X50015245Y-33699039D01*
X50005866Y-33696194D01*
X49997221Y-33691573D01*
X49989645Y-33685355D01*
X49983427Y-33677779D01*
X49978806Y-33669134D01*
X49975961Y-33659755D01*
X49975000Y-33650000D01*
X49975000Y-30350000D01*
X49975961Y-30340245D01*
X49978806Y-30330866D01*
X49983427Y-30322221D01*
X49989645Y-30314645D01*
X49997221Y-30308427D01*
X50005866Y-30303806D01*
X50015245Y-30300961D01*
X50025000Y-30300000D01*
X50325000Y-30300000D01*
X50334755Y-30300961D01*
G37*
G36*
X50659755Y-30840961D02*
G01*
X50669134Y-30843806D01*
X50677779Y-30848427D01*
X50685355Y-30854645D01*
X50691573Y-30862221D01*
X50696194Y-30870866D01*
X50699039Y-30880245D01*
X50700000Y-30890000D01*
X50700000Y-31160000D01*
X50699039Y-31169755D01*
X50696194Y-31179134D01*
X50691573Y-31187779D01*
X50685355Y-31195355D01*
X50677779Y-31201573D01*
X50669134Y-31206194D01*
X50659755Y-31209039D01*
X50650000Y-31210000D01*
X50025000Y-31210000D01*
X50015245Y-31209039D01*
X50005866Y-31206194D01*
X49997221Y-31201573D01*
X49989645Y-31195355D01*
X49983427Y-31187779D01*
X49978806Y-31179134D01*
X49975961Y-31169755D01*
X49975000Y-31160000D01*
X49975000Y-30890000D01*
X49975961Y-30880245D01*
X49978806Y-30870866D01*
X49983427Y-30862221D01*
X49989645Y-30854645D01*
X49997221Y-30848427D01*
X50005866Y-30843806D01*
X50015245Y-30840961D01*
X50025000Y-30840000D01*
X50650000Y-30840000D01*
X50659755Y-30840961D01*
G37*
G36*
X50659755Y-31490961D02*
G01*
X50669134Y-31493806D01*
X50677779Y-31498427D01*
X50685355Y-31504645D01*
X50691573Y-31512221D01*
X50696194Y-31520866D01*
X50699039Y-31530245D01*
X50700000Y-31540000D01*
X50700000Y-31810000D01*
X50699039Y-31819755D01*
X50696194Y-31829134D01*
X50691573Y-31837779D01*
X50685355Y-31845355D01*
X50677779Y-31851573D01*
X50669134Y-31856194D01*
X50659755Y-31859039D01*
X50650000Y-31860000D01*
X50025000Y-31860000D01*
X50015245Y-31859039D01*
X50005866Y-31856194D01*
X49997221Y-31851573D01*
X49989645Y-31845355D01*
X49983427Y-31837779D01*
X49978806Y-31829134D01*
X49975961Y-31819755D01*
X49975000Y-31810000D01*
X49975000Y-31540000D01*
X49975961Y-31530245D01*
X49978806Y-31520866D01*
X49983427Y-31512221D01*
X49989645Y-31504645D01*
X49997221Y-31498427D01*
X50005866Y-31493806D01*
X50015245Y-31490961D01*
X50025000Y-31490000D01*
X50650000Y-31490000D01*
X50659755Y-31490961D01*
G37*
G36*
X50659755Y-32140961D02*
G01*
X50669134Y-32143806D01*
X50677779Y-32148427D01*
X50685355Y-32154645D01*
X50691573Y-32162221D01*
X50696194Y-32170866D01*
X50699039Y-32180245D01*
X50700000Y-32190000D01*
X50700000Y-32460000D01*
X50699039Y-32469755D01*
X50696194Y-32479134D01*
X50691573Y-32487779D01*
X50685355Y-32495355D01*
X50677779Y-32501573D01*
X50669134Y-32506194D01*
X50659755Y-32509039D01*
X50650000Y-32510000D01*
X50025000Y-32510000D01*
X50015245Y-32509039D01*
X50005866Y-32506194D01*
X49997221Y-32501573D01*
X49989645Y-32495355D01*
X49983427Y-32487779D01*
X49978806Y-32479134D01*
X49975961Y-32469755D01*
X49975000Y-32460000D01*
X49975000Y-32190000D01*
X49975961Y-32180245D01*
X49978806Y-32170866D01*
X49983427Y-32162221D01*
X49989645Y-32154645D01*
X49997221Y-32148427D01*
X50005866Y-32143806D01*
X50015245Y-32140961D01*
X50025000Y-32140000D01*
X50650000Y-32140000D01*
X50659755Y-32140961D01*
G37*
G36*
X50659755Y-32790961D02*
G01*
X50669134Y-32793806D01*
X50677779Y-32798427D01*
X50685355Y-32804645D01*
X50691573Y-32812221D01*
X50696194Y-32820866D01*
X50699039Y-32830245D01*
X50700000Y-32840000D01*
X50700000Y-33110000D01*
X50699039Y-33119755D01*
X50696194Y-33129134D01*
X50691573Y-33137779D01*
X50685355Y-33145355D01*
X50677779Y-33151573D01*
X50669134Y-33156194D01*
X50659755Y-33159039D01*
X50650000Y-33160000D01*
X50025000Y-33160000D01*
X50015245Y-33159039D01*
X50005866Y-33156194D01*
X49997221Y-33151573D01*
X49989645Y-33145355D01*
X49983427Y-33137779D01*
X49978806Y-33129134D01*
X49975961Y-33119755D01*
X49975000Y-33110000D01*
X49975000Y-32840000D01*
X49975961Y-32830245D01*
X49978806Y-32820866D01*
X49983427Y-32812221D01*
X49989645Y-32804645D01*
X49997221Y-32798427D01*
X50005866Y-32793806D01*
X50015245Y-32790961D01*
X50025000Y-32790000D01*
X50650000Y-32790000D01*
X50659755Y-32790961D01*
G37*
%TD*%
D10*
%TO.C,TP6*%
X52000000Y-30500000D03*
%TD*%
D11*
%TO.C,C14*%
X35000000Y-45450000D03*
X35000000Y-43550000D03*
%TD*%
D12*
%TO.C,H2*%
X75000000Y-43000000D03*
%TD*%
D13*
%TO.C,D1*%
X36600000Y-24000000D03*
X39400000Y-24000000D03*
%TD*%
D11*
%TO.C,C21*%
X46950000Y-26950000D03*
X46950000Y-25050000D03*
%TD*%
D14*
%TO.C,JDC1*%
X8000000Y-10000000D03*
D15*
X8000000Y-7460000D03*
X10540000Y-10000000D03*
X10540000Y-7460000D03*
X13080000Y-10000000D03*
X13080000Y-7460000D03*
X15620000Y-10000000D03*
X15620000Y-7460000D03*
X18160000Y-10000000D03*
X18160000Y-7460000D03*
X20700000Y-10000000D03*
X20700000Y-7460000D03*
X23240000Y-10000000D03*
X23240000Y-7460000D03*
X25780000Y-10000000D03*
X25780000Y-7460000D03*
X28320000Y-10000000D03*
X28320000Y-7460000D03*
X30860000Y-10000000D03*
X30860000Y-7460000D03*
X33400000Y-10000000D03*
X33400000Y-7460000D03*
X35940000Y-10000000D03*
X35940000Y-7460000D03*
%TD*%
D16*
%TO.C,U1*%
X34100000Y-34000000D03*
X34100000Y-34500000D03*
X34100000Y-35000000D03*
X34100000Y-35500000D03*
X34100000Y-36000000D03*
D17*
X34750000Y-36400000D03*
X35250000Y-36400000D03*
X35750000Y-36400000D03*
X36750000Y-36400000D03*
X37250000Y-36400000D03*
D16*
X37900000Y-36000000D03*
X37900000Y-35500000D03*
X37900000Y-35000000D03*
X37900000Y-34500000D03*
X37900000Y-34000000D03*
D17*
X37250000Y-33600000D03*
X35750000Y-33600000D03*
X35250000Y-33600000D03*
X34750000Y-33600000D03*
D18*
X35250000Y-35000000D03*
D19*
X36975000Y-35000000D03*
%TD*%
D11*
%TO.C,C24*%
X53250000Y-26950000D03*
X53250000Y-25050000D03*
%TD*%
D20*
%TO.C,JGL1*%
X41050000Y-36770000D03*
D21*
X41050000Y-38040000D03*
%TD*%
D11*
%TO.C,C22*%
X49050000Y-26950000D03*
X49050000Y-25050000D03*
%TD*%
D14*
%TO.C,JAC1*%
X78000000Y-22000000D03*
D15*
X80540000Y-22000000D03*
X78000000Y-24540000D03*
X80540000Y-24540000D03*
X78000000Y-27080000D03*
X80540000Y-27080000D03*
X78000000Y-29620000D03*
X80540000Y-29620000D03*
X78000000Y-32160000D03*
X80540000Y-32160000D03*
X78000000Y-34700000D03*
X80540000Y-34700000D03*
X78000000Y-37240000D03*
X80540000Y-37240000D03*
X78000000Y-39780000D03*
X80540000Y-39780000D03*
X78000000Y-42320000D03*
X80540000Y-42320000D03*
X78000000Y-44860000D03*
X80540000Y-44860000D03*
X78000000Y-47400000D03*
X80540000Y-47400000D03*
X78000000Y-49940000D03*
X80540000Y-49940000D03*
%TD*%
D11*
%TO.C,C11*%
X44850000Y-44950000D03*
X44850000Y-43050000D03*
%TD*%
D22*
%TO.C,RB1*%
X35000000Y-28325000D03*
X35000000Y-26675000D03*
%TD*%
D23*
%TO.C,RGH2*%
X61190000Y-30770000D03*
X62210000Y-30770000D03*
%TD*%
D10*
%TO.C,TP7*%
X52000000Y-32000000D03*
%TD*%
%TO.C,TP5*%
X39000000Y-49000000D03*
%TD*%
D23*
%TO.C,RGH1*%
X43190000Y-30770000D03*
X44210000Y-30770000D03*
%TD*%
D11*
%TO.C,C2*%
X62850000Y-26950000D03*
X62850000Y-25050000D03*
%TD*%
D24*
%TO.C,C16*%
X35000000Y-40275000D03*
X35000000Y-38725000D03*
%TD*%
D14*
%TO.C,JCTRL1*%
X12000000Y-30000000D03*
D15*
X12000000Y-32540000D03*
X12000000Y-35080000D03*
X12000000Y-37620000D03*
X12000000Y-40160000D03*
X12000000Y-42700000D03*
%TD*%
D11*
%TO.C,C5*%
X69150000Y-26950000D03*
X69150000Y-25050000D03*
%TD*%
%TO.C,C20*%
X44850000Y-26950000D03*
X44850000Y-25050000D03*
%TD*%
D23*
%TO.C,RGL2*%
X61190000Y-36770000D03*
X62210000Y-36770000D03*
%TD*%
D25*
%TO.C,LK1*%
X55000000Y-32000000D03*
X55000000Y-38000000D03*
%TD*%
D26*
%TO.C,RH1*%
X27000000Y-21510000D03*
X27000000Y-20490000D03*
%TD*%
D11*
%TO.C,C23*%
X51150000Y-26950000D03*
X51150000Y-25050000D03*
%TD*%
D10*
%TO.C,TP10*%
X70000000Y-30500000D03*
%TD*%
D11*
%TO.C,C30*%
X60750000Y-44950000D03*
X60750000Y-43050000D03*
%TD*%
%TO.C,C3*%
X64950000Y-26950000D03*
X64950000Y-25050000D03*
%TD*%
%TO.C,C4*%
X67050000Y-26950000D03*
X67050000Y-25050000D03*
%TD*%
%TO.C,C10*%
X46950000Y-44950000D03*
X46950000Y-43050000D03*
%TD*%
D12*
%TO.C,H1*%
X75000000Y-27000000D03*
%TD*%
D10*
%TO.C,TP9*%
X52000000Y-38000000D03*
%TD*%
D11*
%TO.C,C19*%
X42750000Y-26950000D03*
X42750000Y-25050000D03*
%TD*%
%TO.C,C26*%
X69150000Y-44950000D03*
X69150000Y-43050000D03*
%TD*%
D27*
%TO.C,C18*%
X35225000Y-31300000D03*
X36775000Y-31300000D03*
%TD*%
D11*
%TO.C,C15*%
X38000000Y-45450000D03*
X38000000Y-43550000D03*
%TD*%
D26*
%TO.C,RL1*%
X30000000Y-21510000D03*
X30000000Y-20490000D03*
%TD*%
D23*
%TO.C,RGL1*%
X43190000Y-36770000D03*
X44210000Y-36770000D03*
%TD*%
D27*
%TO.C,C13*%
X29225000Y-24000000D03*
X30775000Y-24000000D03*
%TD*%
D14*
%TO.C,JDC2*%
X8000000Y-17000000D03*
D15*
X8000000Y-14460000D03*
X10540000Y-17000000D03*
X10540000Y-14460000D03*
X13080000Y-17000000D03*
X13080000Y-14460000D03*
X15620000Y-17000000D03*
X15620000Y-14460000D03*
X18160000Y-17000000D03*
X18160000Y-14460000D03*
X20700000Y-17000000D03*
X20700000Y-14460000D03*
X23240000Y-17000000D03*
X23240000Y-14460000D03*
X25780000Y-17000000D03*
X25780000Y-14460000D03*
X28320000Y-17000000D03*
X28320000Y-14460000D03*
X30860000Y-17000000D03*
X30860000Y-14460000D03*
X33400000Y-17000000D03*
X33400000Y-14460000D03*
X35940000Y-17000000D03*
X35940000Y-14460000D03*
%TD*%
D10*
%TO.C,TP1*%
X72000000Y-29000000D03*
%TD*%
%TO.C,TP2*%
X44000000Y-20000000D03*
%TD*%
D11*
%TO.C,C1*%
X60750000Y-26950000D03*
X60750000Y-25050000D03*
%TD*%
%TO.C,C28*%
X64950000Y-44950000D03*
X64950000Y-43050000D03*
%TD*%
%TO.C,C8*%
X51150000Y-44950000D03*
X51150000Y-43050000D03*
%TD*%
%TO.C,C9*%
X49050000Y-44950000D03*
X49050000Y-43050000D03*
%TD*%
%TO.C,C25*%
X71250000Y-44950000D03*
X71250000Y-43050000D03*
%TD*%
%TO.C,C29*%
X62850000Y-44950000D03*
X62850000Y-43050000D03*
%TD*%
D20*
%TO.C,JGL2*%
X59050000Y-36770000D03*
D21*
X59050000Y-38040000D03*
%TD*%
D10*
%TO.C,TP3*%
X73000000Y-47000000D03*
%TD*%
D11*
%TO.C,C27*%
X67050000Y-44950000D03*
X67050000Y-43050000D03*
%TD*%
%TO.C,C12*%
X42750000Y-44950000D03*
X42750000Y-43050000D03*
%TD*%
D20*
%TO.C,JGH1*%
X41050000Y-30770000D03*
D21*
X41050000Y-32040000D03*
%TD*%
D10*
%TO.C,TP11*%
X70000000Y-32000000D03*
%TD*%
%TO.C,TP13*%
X70000000Y-38000000D03*
%TD*%
D11*
%TO.C,C6*%
X71250000Y-26950000D03*
X71250000Y-25050000D03*
%TD*%
D10*
%TO.C,TP4*%
X38000000Y-22000000D03*
%TD*%
%TO.C,TP12*%
X70000000Y-36500000D03*
%TD*%
D24*
%TO.C,C17*%
X38000000Y-28575000D03*
X38000000Y-27025000D03*
%TD*%
D10*
%TO.C,TP8*%
X52000000Y-36500000D03*
%TD*%
D20*
%TO.C,JGH2*%
X59050000Y-30770000D03*
D21*
X59050000Y-32040000D03*
%TD*%
D11*
%TO.C,C7*%
X53250000Y-44950000D03*
X53250000Y-43050000D03*
%TD*%
M02*
