%TF.GenerationSoftware,KiCad,Pcbnew,7.0.10*%
%TF.CreationDate,2026-09-22T21:53:28+02:00*%
%TF.ProjectId,epc2361-prototype-p6,65706332-3336-4312-9d70-726f746f7479,rev?*%
%TF.SameCoordinates,Original*%
%TF.FileFunction,Soldermask,Bot*%
%TF.FilePolarity,Negative*%
%FSLAX46Y46*%
G04 Gerber Fmt 4.6, Leading zero omitted, Abs format (unit mm)*
G04 Created by KiCad (PCBNEW 7.0.10) date 2026-09-22 21:53:28*
%MOMM*%
%LPD*%
G01*
G04 APERTURE LIST*
%ADD10C,3.200000*%
%ADD11R,1.700000X1.700000*%
%ADD12O,1.700000X1.700000*%
%ADD13R,1.000000X1.000000*%
%ADD14O,1.000000X1.000000*%
G04 APERTURE END LIST*
D10*
%TO.C,H2*%
X75000000Y-43000000D03*
%TD*%
D11*
%TO.C,JDC1*%
X8000000Y-10000000D03*
D12*
X8000000Y-7460000D03*
X10540000Y-10000000D03*
X10540000Y-7460000D03*
X13080000Y-10000000D03*
X13080000Y-7460000D03*
X15620000Y-10000000D03*
X15620000Y-7460000D03*
X18160000Y-10000000D03*
X18160000Y-7460000D03*
X20700000Y-10000000D03*
X20700000Y-7460000D03*
X23240000Y-10000000D03*
X23240000Y-7460000D03*
X25780000Y-10000000D03*
X25780000Y-7460000D03*
X28320000Y-10000000D03*
X28320000Y-7460000D03*
X30860000Y-10000000D03*
X30860000Y-7460000D03*
X33400000Y-10000000D03*
X33400000Y-7460000D03*
X35940000Y-10000000D03*
X35940000Y-7460000D03*
%TD*%
D13*
%TO.C,JGL1*%
X41050000Y-36770000D03*
D14*
X41050000Y-38040000D03*
%TD*%
D11*
%TO.C,JAC1*%
X78000000Y-22000000D03*
D12*
X80540000Y-22000000D03*
X78000000Y-24540000D03*
X80540000Y-24540000D03*
X78000000Y-27080000D03*
X80540000Y-27080000D03*
X78000000Y-29620000D03*
X80540000Y-29620000D03*
X78000000Y-32160000D03*
X80540000Y-32160000D03*
X78000000Y-34700000D03*
X80540000Y-34700000D03*
X78000000Y-37240000D03*
X80540000Y-37240000D03*
X78000000Y-39780000D03*
X80540000Y-39780000D03*
X78000000Y-42320000D03*
X80540000Y-42320000D03*
X78000000Y-44860000D03*
X80540000Y-44860000D03*
X78000000Y-47400000D03*
X80540000Y-47400000D03*
X78000000Y-49940000D03*
X80540000Y-49940000D03*
%TD*%
D11*
%TO.C,JCTRL1*%
X12000000Y-30000000D03*
D12*
X12000000Y-32540000D03*
X12000000Y-35080000D03*
X12000000Y-37620000D03*
X12000000Y-40160000D03*
X12000000Y-42700000D03*
%TD*%
D10*
%TO.C,H1*%
X75000000Y-27000000D03*
%TD*%
D11*
%TO.C,JDC2*%
X8000000Y-17000000D03*
D12*
X8000000Y-14460000D03*
X10540000Y-17000000D03*
X10540000Y-14460000D03*
X13080000Y-17000000D03*
X13080000Y-14460000D03*
X15620000Y-17000000D03*
X15620000Y-14460000D03*
X18160000Y-17000000D03*
X18160000Y-14460000D03*
X20700000Y-17000000D03*
X20700000Y-14460000D03*
X23240000Y-17000000D03*
X23240000Y-14460000D03*
X25780000Y-17000000D03*
X25780000Y-14460000D03*
X28320000Y-17000000D03*
X28320000Y-14460000D03*
X30860000Y-17000000D03*
X30860000Y-14460000D03*
X33400000Y-17000000D03*
X33400000Y-14460000D03*
X35940000Y-17000000D03*
X35940000Y-14460000D03*
%TD*%
D13*
%TO.C,JGL2*%
X59050000Y-36770000D03*
D14*
X59050000Y-38040000D03*
%TD*%
D13*
%TO.C,JGH1*%
X41050000Y-30770000D03*
D14*
X41050000Y-32040000D03*
%TD*%
D13*
%TO.C,JGH2*%
X59050000Y-30770000D03*
D14*
X59050000Y-32040000D03*
%TD*%
M02*
