%TF.GenerationSoftware,KiCad,Pcbnew,7.0.10*%
%TF.CreationDate,2026-09-22T21:53:27+02:00*%
%TF.ProjectId,epc2361-prototype-p6,65706332-3336-4312-9d70-726f746f7479,rev?*%
%TF.SameCoordinates,Original*%
%TF.FileFunction,Paste,Top*%
%TF.FilePolarity,Positive*%
%FSLAX46Y46*%
G04 Gerber Fmt 4.6, Leading zero omitted, Abs format (unit mm)*
G04 Created by KiCad (PCBNEW 7.0.10) date 2026-09-22 21:53:27*
%MOMM*%
%LPD*%
G01*
G04 APERTURE LIST*
G04 Aperture macros list*
%AMRoundRect*
0 Rectangle with rounded corners*
0 $1 Rounding radius*
0 $2 $3 $4 $5 $6 $7 $8 $9 X,Y pos of 4 corners*
0 Add a 4 corners polygon primitive as box body*
4,1,4,$2,$3,$4,$5,$6,$7,$8,$9,$2,$3,0*
0 Add four circle primitives for the rounded corners*
1,1,$1+$1,$2,$3*
1,1,$1+$1,$4,$5*
1,1,$1+$1,$6,$7*
1,1,$1+$1,$8,$9*
0 Add four rect primitives between the rounded corners*
20,1,$1+$1,$2,$3,$4,$5,0*
20,1,$1+$1,$4,$5,$6,$7,0*
20,1,$1+$1,$6,$7,$8,$9,0*
20,1,$1+$1,$8,$9,$2,$3,0*%
G04 Aperture macros list end*
%ADD10RoundRect,0.250000X0.475000X-0.250000X0.475000X0.250000X-0.475000X0.250000X-0.475000X-0.250000X0*%
%ADD11RoundRect,0.250000X-0.300000X-0.300000X0.300000X-0.300000X0.300000X0.300000X-0.300000X0.300000X0*%
%ADD12RoundRect,0.050000X-0.515000X-0.325000X0.515000X-0.325000X0.515000X0.325000X-0.515000X0.325000X0*%
%ADD13RoundRect,0.047333X-0.307667X-0.327667X0.307667X-0.327667X0.307667X0.327667X-0.307667X0.327667X0*%
%ADD14RoundRect,0.050000X-0.250000X-0.075000X0.250000X-0.075000X0.250000X0.075000X-0.250000X0.075000X0*%
%ADD15RoundRect,0.050000X-0.075000X-0.250000X0.075000X-0.250000X0.075000X0.250000X-0.075000X0.250000X0*%
%ADD16RoundRect,0.200000X0.275000X-0.200000X0.275000X0.200000X-0.275000X0.200000X-0.275000X-0.200000X0*%
%ADD17RoundRect,0.135000X-0.135000X-0.185000X0.135000X-0.185000X0.135000X0.185000X-0.135000X0.185000X0*%
%ADD18RoundRect,0.225000X0.250000X-0.225000X0.250000X0.225000X-0.250000X0.225000X-0.250000X-0.225000X0*%
%ADD19RoundRect,0.135000X0.185000X-0.135000X0.185000X0.135000X-0.185000X0.135000X-0.185000X-0.135000X0*%
%ADD20RoundRect,0.225000X-0.225000X-0.250000X0.225000X-0.250000X0.225000X0.250000X-0.225000X0.250000X0*%
G04 APERTURE END LIST*
%TO.C,QL1*%
G36*
X45411705Y-36594153D02*
G01*
X45422961Y-36597567D01*
X45433334Y-36603112D01*
X45442426Y-36610574D01*
X45449888Y-36619666D01*
X45455433Y-36630039D01*
X45458847Y-36641295D01*
X45460000Y-36653000D01*
X45460000Y-36983000D01*
X45458847Y-36994705D01*
X45455433Y-37005961D01*
X45449888Y-37016334D01*
X45442426Y-37025426D01*
X45433334Y-37032888D01*
X45422961Y-37038433D01*
X45411705Y-37041847D01*
X45400000Y-37043000D01*
X45270000Y-37043000D01*
X45258295Y-37041847D01*
X45247039Y-37038433D01*
X45236666Y-37032888D01*
X45227574Y-37025426D01*
X45220112Y-37016334D01*
X45214567Y-37005961D01*
X45211153Y-36994705D01*
X45210000Y-36983000D01*
X45210000Y-36653000D01*
X45211153Y-36641295D01*
X45214567Y-36630039D01*
X45220112Y-36619666D01*
X45227574Y-36610574D01*
X45236666Y-36603112D01*
X45247039Y-36597567D01*
X45258295Y-36594153D01*
X45270000Y-36593000D01*
X45400000Y-36593000D01*
X45411705Y-36594153D01*
G37*
G36*
X45411705Y-37511153D02*
G01*
X45422961Y-37514567D01*
X45433334Y-37520112D01*
X45442426Y-37527574D01*
X45449888Y-37536666D01*
X45455433Y-37547039D01*
X45458847Y-37558295D01*
X45460000Y-37570000D01*
X45460000Y-37900000D01*
X45458847Y-37911705D01*
X45455433Y-37922961D01*
X45449888Y-37933334D01*
X45442426Y-37942426D01*
X45433334Y-37949888D01*
X45422961Y-37955433D01*
X45411705Y-37958847D01*
X45400000Y-37960000D01*
X45270000Y-37960000D01*
X45258295Y-37958847D01*
X45247039Y-37955433D01*
X45236666Y-37949888D01*
X45227574Y-37942426D01*
X45220112Y-37933334D01*
X45214567Y-37922961D01*
X45211153Y-37911705D01*
X45210000Y-37900000D01*
X45210000Y-37570000D01*
X45211153Y-37558295D01*
X45214567Y-37547039D01*
X45220112Y-37536666D01*
X45227574Y-37527574D01*
X45236666Y-37520112D01*
X45247039Y-37514567D01*
X45258295Y-37511153D01*
X45270000Y-37510000D01*
X45400000Y-37510000D01*
X45411705Y-37511153D01*
G37*
G36*
X45411705Y-38141153D02*
G01*
X45422961Y-38144567D01*
X45433334Y-38150112D01*
X45442426Y-38157574D01*
X45449888Y-38166666D01*
X45455433Y-38177039D01*
X45458847Y-38188295D01*
X45460000Y-38200000D01*
X45460000Y-38530000D01*
X45458847Y-38541705D01*
X45455433Y-38552961D01*
X45449888Y-38563334D01*
X45442426Y-38572426D01*
X45433334Y-38579888D01*
X45422961Y-38585433D01*
X45411705Y-38588847D01*
X45400000Y-38590000D01*
X45270000Y-38590000D01*
X45258295Y-38588847D01*
X45247039Y-38585433D01*
X45236666Y-38579888D01*
X45227574Y-38572426D01*
X45220112Y-38563334D01*
X45214567Y-38552961D01*
X45211153Y-38541705D01*
X45210000Y-38530000D01*
X45210000Y-38200000D01*
X45211153Y-38188295D01*
X45214567Y-38177039D01*
X45220112Y-38166666D01*
X45227574Y-38157574D01*
X45236666Y-38150112D01*
X45247039Y-38144567D01*
X45258295Y-38141153D01*
X45270000Y-38140000D01*
X45400000Y-38140000D01*
X45411705Y-38141153D01*
G37*
G36*
X45411705Y-38776153D02*
G01*
X45422961Y-38779567D01*
X45433334Y-38785112D01*
X45442426Y-38792574D01*
X45449888Y-38801666D01*
X45455433Y-38812039D01*
X45458847Y-38823295D01*
X45460000Y-38835000D01*
X45460000Y-39165000D01*
X45458847Y-39176705D01*
X45455433Y-39187961D01*
X45449888Y-39198334D01*
X45442426Y-39207426D01*
X45433334Y-39214888D01*
X45422961Y-39220433D01*
X45411705Y-39223847D01*
X45400000Y-39225000D01*
X45270000Y-39225000D01*
X45258295Y-39223847D01*
X45247039Y-39220433D01*
X45236666Y-39214888D01*
X45227574Y-39207426D01*
X45220112Y-39198334D01*
X45214567Y-39187961D01*
X45211153Y-39176705D01*
X45210000Y-39165000D01*
X45210000Y-38835000D01*
X45211153Y-38823295D01*
X45214567Y-38812039D01*
X45220112Y-38801666D01*
X45227574Y-38792574D01*
X45236666Y-38785112D01*
X45247039Y-38779567D01*
X45258295Y-38776153D01*
X45270000Y-38775000D01*
X45400000Y-38775000D01*
X45411705Y-38776153D01*
G37*
G36*
X46129205Y-37554653D02*
G01*
X46140461Y-37558067D01*
X46150834Y-37563612D01*
X46159926Y-37571074D01*
X46167388Y-37580166D01*
X46172933Y-37590539D01*
X46176347Y-37601795D01*
X46177500Y-37613500D01*
X46177500Y-38466500D01*
X46176347Y-38478205D01*
X46172933Y-38489461D01*
X46167388Y-38499834D01*
X46159926Y-38508926D01*
X46150834Y-38516388D01*
X46140461Y-38521933D01*
X46129205Y-38525347D01*
X46117500Y-38526500D01*
X45702500Y-38526500D01*
X45690795Y-38525347D01*
X45679539Y-38521933D01*
X45669166Y-38516388D01*
X45660074Y-38508926D01*
X45652612Y-38499834D01*
X45647067Y-38489461D01*
X45643653Y-38478205D01*
X45642500Y-38466500D01*
X45642500Y-37613500D01*
X45643653Y-37601795D01*
X45647067Y-37590539D01*
X45652612Y-37580166D01*
X45660074Y-37571074D01*
X45669166Y-37563612D01*
X45679539Y-37558067D01*
X45690795Y-37554653D01*
X45702500Y-37553500D01*
X46117500Y-37553500D01*
X46129205Y-37554653D01*
G37*
G36*
X46129205Y-38728153D02*
G01*
X46140461Y-38731567D01*
X46150834Y-38737112D01*
X46159926Y-38744574D01*
X46167388Y-38753666D01*
X46172933Y-38764039D01*
X46176347Y-38775295D01*
X46177500Y-38787000D01*
X46177500Y-39640000D01*
X46176347Y-39651705D01*
X46172933Y-39662961D01*
X46167388Y-39673334D01*
X46159926Y-39682426D01*
X46150834Y-39689888D01*
X46140461Y-39695433D01*
X46129205Y-39698847D01*
X46117500Y-39700000D01*
X45702500Y-39700000D01*
X45690795Y-39698847D01*
X45679539Y-39695433D01*
X45669166Y-39689888D01*
X45660074Y-39682426D01*
X45652612Y-39673334D01*
X45647067Y-39662961D01*
X45643653Y-39651705D01*
X45642500Y-39640000D01*
X45642500Y-38787000D01*
X45643653Y-38775295D01*
X45647067Y-38764039D01*
X45652612Y-38753666D01*
X45660074Y-38744574D01*
X45669166Y-38737112D01*
X45679539Y-38731567D01*
X45690795Y-38728153D01*
X45702500Y-38727000D01*
X46117500Y-38727000D01*
X46129205Y-38728153D01*
G37*
G36*
X46099509Y-36301921D02*
G01*
X46118268Y-36307612D01*
X46135557Y-36316853D01*
X46150711Y-36329289D01*
X46163147Y-36344443D01*
X46172388Y-36361732D01*
X46178079Y-36380491D01*
X46180000Y-36400000D01*
X46180000Y-37235000D01*
X46178079Y-37254509D01*
X46172388Y-37273268D01*
X46163147Y-37290557D01*
X46150711Y-37305711D01*
X46135557Y-37318147D01*
X46118268Y-37327388D01*
X46099509Y-37333079D01*
X46080000Y-37335000D01*
X45740000Y-37335000D01*
X45720491Y-37333079D01*
X45701732Y-37327388D01*
X45684443Y-37318147D01*
X45669289Y-37305711D01*
X45656853Y-37290557D01*
X45647612Y-37273268D01*
X45641921Y-37254509D01*
X45640000Y-37235000D01*
X45640000Y-36400000D01*
X45641921Y-36380491D01*
X45647612Y-36361732D01*
X45656853Y-36344443D01*
X45669289Y-36329289D01*
X45684443Y-36316853D01*
X45701732Y-36307612D01*
X45720491Y-36301921D01*
X45740000Y-36300000D01*
X46080000Y-36300000D01*
X46099509Y-36301921D01*
G37*
G36*
X46844509Y-36301921D02*
G01*
X46863268Y-36307612D01*
X46880557Y-36316853D01*
X46895711Y-36329289D01*
X46908147Y-36344443D01*
X46917388Y-36361732D01*
X46923079Y-36380491D01*
X46925000Y-36400000D01*
X46925000Y-37800000D01*
X46923079Y-37819509D01*
X46917388Y-37838268D01*
X46908147Y-37855557D01*
X46895711Y-37870711D01*
X46880557Y-37883147D01*
X46863268Y-37892388D01*
X46844509Y-37898079D01*
X46825000Y-37900000D01*
X46625000Y-37900000D01*
X46605491Y-37898079D01*
X46586732Y-37892388D01*
X46569443Y-37883147D01*
X46554289Y-37870711D01*
X46541853Y-37855557D01*
X46532612Y-37838268D01*
X46526921Y-37819509D01*
X46525000Y-37800000D01*
X46525000Y-36400000D01*
X46526921Y-36380491D01*
X46532612Y-36361732D01*
X46541853Y-36344443D01*
X46554289Y-36329289D01*
X46569443Y-36316853D01*
X46586732Y-36307612D01*
X46605491Y-36301921D01*
X46625000Y-36300000D01*
X46825000Y-36300000D01*
X46844509Y-36301921D01*
G37*
G36*
X46844509Y-38101921D02*
G01*
X46863268Y-38107612D01*
X46880557Y-38116853D01*
X46895711Y-38129289D01*
X46908147Y-38144443D01*
X46917388Y-38161732D01*
X46923079Y-38180491D01*
X46925000Y-38200000D01*
X46925000Y-39600000D01*
X46923079Y-39619509D01*
X46917388Y-39638268D01*
X46908147Y-39655557D01*
X46895711Y-39670711D01*
X46880557Y-39683147D01*
X46863268Y-39692388D01*
X46844509Y-39698079D01*
X46825000Y-39700000D01*
X46625000Y-39700000D01*
X46605491Y-39698079D01*
X46586732Y-39692388D01*
X46569443Y-39683147D01*
X46554289Y-39670711D01*
X46541853Y-39655557D01*
X46532612Y-39638268D01*
X46526921Y-39619509D01*
X46525000Y-39600000D01*
X46525000Y-38200000D01*
X46526921Y-38180491D01*
X46532612Y-38161732D01*
X46541853Y-38144443D01*
X46554289Y-38129289D01*
X46569443Y-38116853D01*
X46586732Y-38107612D01*
X46605491Y-38101921D01*
X46625000Y-38100000D01*
X46825000Y-38100000D01*
X46844509Y-38101921D01*
G37*
G36*
X47694509Y-36301921D02*
G01*
X47713268Y-36307612D01*
X47730557Y-36316853D01*
X47745711Y-36329289D01*
X47758147Y-36344443D01*
X47767388Y-36361732D01*
X47773079Y-36380491D01*
X47775000Y-36400000D01*
X47775000Y-37800000D01*
X47773079Y-37819509D01*
X47767388Y-37838268D01*
X47758147Y-37855557D01*
X47745711Y-37870711D01*
X47730557Y-37883147D01*
X47713268Y-37892388D01*
X47694509Y-37898079D01*
X47675000Y-37900000D01*
X47475000Y-37900000D01*
X47455491Y-37898079D01*
X47436732Y-37892388D01*
X47419443Y-37883147D01*
X47404289Y-37870711D01*
X47391853Y-37855557D01*
X47382612Y-37838268D01*
X47376921Y-37819509D01*
X47375000Y-37800000D01*
X47375000Y-36400000D01*
X47376921Y-36380491D01*
X47382612Y-36361732D01*
X47391853Y-36344443D01*
X47404289Y-36329289D01*
X47419443Y-36316853D01*
X47436732Y-36307612D01*
X47455491Y-36301921D01*
X47475000Y-36300000D01*
X47675000Y-36300000D01*
X47694509Y-36301921D01*
G37*
G36*
X47694509Y-38101921D02*
G01*
X47713268Y-38107612D01*
X47730557Y-38116853D01*
X47745711Y-38129289D01*
X47758147Y-38144443D01*
X47767388Y-38161732D01*
X47773079Y-38180491D01*
X47775000Y-38200000D01*
X47775000Y-39600000D01*
X47773079Y-39619509D01*
X47767388Y-39638268D01*
X47758147Y-39655557D01*
X47745711Y-39670711D01*
X47730557Y-39683147D01*
X47713268Y-39692388D01*
X47694509Y-39698079D01*
X47675000Y-39700000D01*
X47475000Y-39700000D01*
X47455491Y-39698079D01*
X47436732Y-39692388D01*
X47419443Y-39683147D01*
X47404289Y-39670711D01*
X47391853Y-39655557D01*
X47382612Y-39638268D01*
X47376921Y-39619509D01*
X47375000Y-39600000D01*
X47375000Y-38200000D01*
X47376921Y-38180491D01*
X47382612Y-38161732D01*
X47391853Y-38144443D01*
X47404289Y-38129289D01*
X47419443Y-38116853D01*
X47436732Y-38107612D01*
X47455491Y-38101921D01*
X47475000Y-38100000D01*
X47675000Y-38100000D01*
X47694509Y-38101921D01*
G37*
G36*
X48544509Y-36301921D02*
G01*
X48563268Y-36307612D01*
X48580557Y-36316853D01*
X48595711Y-36329289D01*
X48608147Y-36344443D01*
X48617388Y-36361732D01*
X48623079Y-36380491D01*
X48625000Y-36400000D01*
X48625000Y-37800000D01*
X48623079Y-37819509D01*
X48617388Y-37838268D01*
X48608147Y-37855557D01*
X48595711Y-37870711D01*
X48580557Y-37883147D01*
X48563268Y-37892388D01*
X48544509Y-37898079D01*
X48525000Y-37900000D01*
X48325000Y-37900000D01*
X48305491Y-37898079D01*
X48286732Y-37892388D01*
X48269443Y-37883147D01*
X48254289Y-37870711D01*
X48241853Y-37855557D01*
X48232612Y-37838268D01*
X48226921Y-37819509D01*
X48225000Y-37800000D01*
X48225000Y-36400000D01*
X48226921Y-36380491D01*
X48232612Y-36361732D01*
X48241853Y-36344443D01*
X48254289Y-36329289D01*
X48269443Y-36316853D01*
X48286732Y-36307612D01*
X48305491Y-36301921D01*
X48325000Y-36300000D01*
X48525000Y-36300000D01*
X48544509Y-36301921D01*
G37*
G36*
X48544509Y-38101921D02*
G01*
X48563268Y-38107612D01*
X48580557Y-38116853D01*
X48595711Y-38129289D01*
X48608147Y-38144443D01*
X48617388Y-38161732D01*
X48623079Y-38180491D01*
X48625000Y-38200000D01*
X48625000Y-39600000D01*
X48623079Y-39619509D01*
X48617388Y-39638268D01*
X48608147Y-39655557D01*
X48595711Y-39670711D01*
X48580557Y-39683147D01*
X48563268Y-39692388D01*
X48544509Y-39698079D01*
X48525000Y-39700000D01*
X48325000Y-39700000D01*
X48305491Y-39698079D01*
X48286732Y-39692388D01*
X48269443Y-39683147D01*
X48254289Y-39670711D01*
X48241853Y-39655557D01*
X48232612Y-39638268D01*
X48226921Y-39619509D01*
X48225000Y-39600000D01*
X48225000Y-38200000D01*
X48226921Y-38180491D01*
X48232612Y-38161732D01*
X48241853Y-38144443D01*
X48254289Y-38129289D01*
X48269443Y-38116853D01*
X48286732Y-38107612D01*
X48305491Y-38101921D01*
X48325000Y-38100000D01*
X48525000Y-38100000D01*
X48544509Y-38101921D01*
G37*
G36*
X49394509Y-36301921D02*
G01*
X49413268Y-36307612D01*
X49430557Y-36316853D01*
X49445711Y-36329289D01*
X49458147Y-36344443D01*
X49467388Y-36361732D01*
X49473079Y-36380491D01*
X49475000Y-36400000D01*
X49475000Y-37800000D01*
X49473079Y-37819509D01*
X49467388Y-37838268D01*
X49458147Y-37855557D01*
X49445711Y-37870711D01*
X49430557Y-37883147D01*
X49413268Y-37892388D01*
X49394509Y-37898079D01*
X49375000Y-37900000D01*
X49175000Y-37900000D01*
X49155491Y-37898079D01*
X49136732Y-37892388D01*
X49119443Y-37883147D01*
X49104289Y-37870711D01*
X49091853Y-37855557D01*
X49082612Y-37838268D01*
X49076921Y-37819509D01*
X49075000Y-37800000D01*
X49075000Y-36400000D01*
X49076921Y-36380491D01*
X49082612Y-36361732D01*
X49091853Y-36344443D01*
X49104289Y-36329289D01*
X49119443Y-36316853D01*
X49136732Y-36307612D01*
X49155491Y-36301921D01*
X49175000Y-36300000D01*
X49375000Y-36300000D01*
X49394509Y-36301921D01*
G37*
G36*
X49394509Y-38101921D02*
G01*
X49413268Y-38107612D01*
X49430557Y-38116853D01*
X49445711Y-38129289D01*
X49458147Y-38144443D01*
X49467388Y-38161732D01*
X49473079Y-38180491D01*
X49475000Y-38200000D01*
X49475000Y-39600000D01*
X49473079Y-39619509D01*
X49467388Y-39638268D01*
X49458147Y-39655557D01*
X49445711Y-39670711D01*
X49430557Y-39683147D01*
X49413268Y-39692388D01*
X49394509Y-39698079D01*
X49375000Y-39700000D01*
X49175000Y-39700000D01*
X49155491Y-39698079D01*
X49136732Y-39692388D01*
X49119443Y-39683147D01*
X49104289Y-39670711D01*
X49091853Y-39655557D01*
X49082612Y-39638268D01*
X49076921Y-39619509D01*
X49075000Y-39600000D01*
X49075000Y-38200000D01*
X49076921Y-38180491D01*
X49082612Y-38161732D01*
X49091853Y-38144443D01*
X49104289Y-38129289D01*
X49119443Y-38116853D01*
X49136732Y-38107612D01*
X49155491Y-38101921D01*
X49175000Y-38100000D01*
X49375000Y-38100000D01*
X49394509Y-38101921D01*
G37*
G36*
X50272765Y-36302094D02*
G01*
X50293212Y-36308297D01*
X50312057Y-36318370D01*
X50328575Y-36331925D01*
X50342130Y-36348443D01*
X50352203Y-36367288D01*
X50358406Y-36387735D01*
X50360500Y-36409000D01*
X50360500Y-37791000D01*
X50358406Y-37812265D01*
X50352203Y-37832712D01*
X50342130Y-37851557D01*
X50328575Y-37868075D01*
X50312057Y-37881630D01*
X50293212Y-37891703D01*
X50272765Y-37897906D01*
X50251500Y-37900000D01*
X50034500Y-37900000D01*
X50013235Y-37897906D01*
X49992788Y-37891703D01*
X49973943Y-37881630D01*
X49957425Y-37868075D01*
X49943870Y-37851557D01*
X49933797Y-37832712D01*
X49927594Y-37812265D01*
X49925500Y-37791000D01*
X49925500Y-36409000D01*
X49927594Y-36387735D01*
X49933797Y-36367288D01*
X49943870Y-36348443D01*
X49957425Y-36331925D01*
X49973943Y-36318370D01*
X49992788Y-36308297D01*
X50013235Y-36302094D01*
X50034500Y-36300000D01*
X50251500Y-36300000D01*
X50272765Y-36302094D01*
G37*
G36*
X50272765Y-38102094D02*
G01*
X50293212Y-38108297D01*
X50312057Y-38118370D01*
X50328575Y-38131925D01*
X50342130Y-38148443D01*
X50352203Y-38167288D01*
X50358406Y-38187735D01*
X50360500Y-38209000D01*
X50360500Y-39591000D01*
X50358406Y-39612265D01*
X50352203Y-39632712D01*
X50342130Y-39651557D01*
X50328575Y-39668075D01*
X50312057Y-39681630D01*
X50293212Y-39691703D01*
X50272765Y-39697906D01*
X50251500Y-39700000D01*
X50034500Y-39700000D01*
X50013235Y-39697906D01*
X49992788Y-39691703D01*
X49973943Y-39681630D01*
X49957425Y-39668075D01*
X49943870Y-39651557D01*
X49933797Y-39632712D01*
X49927594Y-39612265D01*
X49925500Y-39591000D01*
X49925500Y-38209000D01*
X49927594Y-38187735D01*
X49933797Y-38167288D01*
X49943870Y-38148443D01*
X49957425Y-38131925D01*
X49973943Y-38118370D01*
X49992788Y-38108297D01*
X50013235Y-38102094D01*
X50034500Y-38100000D01*
X50251500Y-38100000D01*
X50272765Y-38102094D01*
G37*
G36*
X50741705Y-36801153D02*
G01*
X50752961Y-36804567D01*
X50763334Y-36810112D01*
X50772426Y-36817574D01*
X50779888Y-36826666D01*
X50785433Y-36837039D01*
X50788847Y-36848295D01*
X50790000Y-36860000D01*
X50790000Y-37190000D01*
X50788847Y-37201705D01*
X50785433Y-37212961D01*
X50779888Y-37223334D01*
X50772426Y-37232426D01*
X50763334Y-37239888D01*
X50752961Y-37245433D01*
X50741705Y-37248847D01*
X50730000Y-37250000D01*
X50600000Y-37250000D01*
X50588295Y-37248847D01*
X50577039Y-37245433D01*
X50566666Y-37239888D01*
X50557574Y-37232426D01*
X50550112Y-37223334D01*
X50544567Y-37212961D01*
X50541153Y-37201705D01*
X50540000Y-37190000D01*
X50540000Y-36860000D01*
X50541153Y-36848295D01*
X50544567Y-36837039D01*
X50550112Y-36826666D01*
X50557574Y-36817574D01*
X50566666Y-36810112D01*
X50577039Y-36804567D01*
X50588295Y-36801153D01*
X50600000Y-36800000D01*
X50730000Y-36800000D01*
X50741705Y-36801153D01*
G37*
G36*
X50741705Y-37451153D02*
G01*
X50752961Y-37454567D01*
X50763334Y-37460112D01*
X50772426Y-37467574D01*
X50779888Y-37476666D01*
X50785433Y-37487039D01*
X50788847Y-37498295D01*
X50790000Y-37510000D01*
X50790000Y-37840000D01*
X50788847Y-37851705D01*
X50785433Y-37862961D01*
X50779888Y-37873334D01*
X50772426Y-37882426D01*
X50763334Y-37889888D01*
X50752961Y-37895433D01*
X50741705Y-37898847D01*
X50730000Y-37900000D01*
X50600000Y-37900000D01*
X50588295Y-37898847D01*
X50577039Y-37895433D01*
X50566666Y-37889888D01*
X50557574Y-37882426D01*
X50550112Y-37873334D01*
X50544567Y-37862961D01*
X50541153Y-37851705D01*
X50540000Y-37840000D01*
X50540000Y-37510000D01*
X50541153Y-37498295D01*
X50544567Y-37487039D01*
X50550112Y-37476666D01*
X50557574Y-37467574D01*
X50566666Y-37460112D01*
X50577039Y-37454567D01*
X50588295Y-37451153D01*
X50600000Y-37450000D01*
X50730000Y-37450000D01*
X50741705Y-37451153D01*
G37*
G36*
X50741705Y-38101153D02*
G01*
X50752961Y-38104567D01*
X50763334Y-38110112D01*
X50772426Y-38117574D01*
X50779888Y-38126666D01*
X50785433Y-38137039D01*
X50788847Y-38148295D01*
X50790000Y-38160000D01*
X50790000Y-38490000D01*
X50788847Y-38501705D01*
X50785433Y-38512961D01*
X50779888Y-38523334D01*
X50772426Y-38532426D01*
X50763334Y-38539888D01*
X50752961Y-38545433D01*
X50741705Y-38548847D01*
X50730000Y-38550000D01*
X50600000Y-38550000D01*
X50588295Y-38548847D01*
X50577039Y-38545433D01*
X50566666Y-38539888D01*
X50557574Y-38532426D01*
X50550112Y-38523334D01*
X50544567Y-38512961D01*
X50541153Y-38501705D01*
X50540000Y-38490000D01*
X50540000Y-38160000D01*
X50541153Y-38148295D01*
X50544567Y-38137039D01*
X50550112Y-38126666D01*
X50557574Y-38117574D01*
X50566666Y-38110112D01*
X50577039Y-38104567D01*
X50588295Y-38101153D01*
X50600000Y-38100000D01*
X50730000Y-38100000D01*
X50741705Y-38101153D01*
G37*
G36*
X50741705Y-38751153D02*
G01*
X50752961Y-38754567D01*
X50763334Y-38760112D01*
X50772426Y-38767574D01*
X50779888Y-38776666D01*
X50785433Y-38787039D01*
X50788847Y-38798295D01*
X50790000Y-38810000D01*
X50790000Y-39140000D01*
X50788847Y-39151705D01*
X50785433Y-39162961D01*
X50779888Y-39173334D01*
X50772426Y-39182426D01*
X50763334Y-39189888D01*
X50752961Y-39195433D01*
X50741705Y-39198847D01*
X50730000Y-39200000D01*
X50600000Y-39200000D01*
X50588295Y-39198847D01*
X50577039Y-39195433D01*
X50566666Y-39189888D01*
X50557574Y-39182426D01*
X50550112Y-39173334D01*
X50544567Y-39162961D01*
X50541153Y-39151705D01*
X50540000Y-39140000D01*
X50540000Y-38810000D01*
X50541153Y-38798295D01*
X50544567Y-38787039D01*
X50550112Y-38776666D01*
X50557574Y-38767574D01*
X50566666Y-38760112D01*
X50577039Y-38754567D01*
X50588295Y-38751153D01*
X50600000Y-38750000D01*
X50730000Y-38750000D01*
X50741705Y-38751153D01*
G37*
%TO.C,QL2*%
G36*
X63411705Y-36594153D02*
G01*
X63422961Y-36597567D01*
X63433334Y-36603112D01*
X63442426Y-36610574D01*
X63449888Y-36619666D01*
X63455433Y-36630039D01*
X63458847Y-36641295D01*
X63460000Y-36653000D01*
X63460000Y-36983000D01*
X63458847Y-36994705D01*
X63455433Y-37005961D01*
X63449888Y-37016334D01*
X63442426Y-37025426D01*
X63433334Y-37032888D01*
X63422961Y-37038433D01*
X63411705Y-37041847D01*
X63400000Y-37043000D01*
X63270000Y-37043000D01*
X63258295Y-37041847D01*
X63247039Y-37038433D01*
X63236666Y-37032888D01*
X63227574Y-37025426D01*
X63220112Y-37016334D01*
X63214567Y-37005961D01*
X63211153Y-36994705D01*
X63210000Y-36983000D01*
X63210000Y-36653000D01*
X63211153Y-36641295D01*
X63214567Y-36630039D01*
X63220112Y-36619666D01*
X63227574Y-36610574D01*
X63236666Y-36603112D01*
X63247039Y-36597567D01*
X63258295Y-36594153D01*
X63270000Y-36593000D01*
X63400000Y-36593000D01*
X63411705Y-36594153D01*
G37*
G36*
X63411705Y-37511153D02*
G01*
X63422961Y-37514567D01*
X63433334Y-37520112D01*
X63442426Y-37527574D01*
X63449888Y-37536666D01*
X63455433Y-37547039D01*
X63458847Y-37558295D01*
X63460000Y-37570000D01*
X63460000Y-37900000D01*
X63458847Y-37911705D01*
X63455433Y-37922961D01*
X63449888Y-37933334D01*
X63442426Y-37942426D01*
X63433334Y-37949888D01*
X63422961Y-37955433D01*
X63411705Y-37958847D01*
X63400000Y-37960000D01*
X63270000Y-37960000D01*
X63258295Y-37958847D01*
X63247039Y-37955433D01*
X63236666Y-37949888D01*
X63227574Y-37942426D01*
X63220112Y-37933334D01*
X63214567Y-37922961D01*
X63211153Y-37911705D01*
X63210000Y-37900000D01*
X63210000Y-37570000D01*
X63211153Y-37558295D01*
X63214567Y-37547039D01*
X63220112Y-37536666D01*
X63227574Y-37527574D01*
X63236666Y-37520112D01*
X63247039Y-37514567D01*
X63258295Y-37511153D01*
X63270000Y-37510000D01*
X63400000Y-37510000D01*
X63411705Y-37511153D01*
G37*
G36*
X63411705Y-38141153D02*
G01*
X63422961Y-38144567D01*
X63433334Y-38150112D01*
X63442426Y-38157574D01*
X63449888Y-38166666D01*
X63455433Y-38177039D01*
X63458847Y-38188295D01*
X63460000Y-38200000D01*
X63460000Y-38530000D01*
X63458847Y-38541705D01*
X63455433Y-38552961D01*
X63449888Y-38563334D01*
X63442426Y-38572426D01*
X63433334Y-38579888D01*
X63422961Y-38585433D01*
X63411705Y-38588847D01*
X63400000Y-38590000D01*
X63270000Y-38590000D01*
X63258295Y-38588847D01*
X63247039Y-38585433D01*
X63236666Y-38579888D01*
X63227574Y-38572426D01*
X63220112Y-38563334D01*
X63214567Y-38552961D01*
X63211153Y-38541705D01*
X63210000Y-38530000D01*
X63210000Y-38200000D01*
X63211153Y-38188295D01*
X63214567Y-38177039D01*
X63220112Y-38166666D01*
X63227574Y-38157574D01*
X63236666Y-38150112D01*
X63247039Y-38144567D01*
X63258295Y-38141153D01*
X63270000Y-38140000D01*
X63400000Y-38140000D01*
X63411705Y-38141153D01*
G37*
G36*
X63411705Y-38776153D02*
G01*
X63422961Y-38779567D01*
X63433334Y-38785112D01*
X63442426Y-38792574D01*
X63449888Y-38801666D01*
X63455433Y-38812039D01*
X63458847Y-38823295D01*
X63460000Y-38835000D01*
X63460000Y-39165000D01*
X63458847Y-39176705D01*
X63455433Y-39187961D01*
X63449888Y-39198334D01*
X63442426Y-39207426D01*
X63433334Y-39214888D01*
X63422961Y-39220433D01*
X63411705Y-39223847D01*
X63400000Y-39225000D01*
X63270000Y-39225000D01*
X63258295Y-39223847D01*
X63247039Y-39220433D01*
X63236666Y-39214888D01*
X63227574Y-39207426D01*
X63220112Y-39198334D01*
X63214567Y-39187961D01*
X63211153Y-39176705D01*
X63210000Y-39165000D01*
X63210000Y-38835000D01*
X63211153Y-38823295D01*
X63214567Y-38812039D01*
X63220112Y-38801666D01*
X63227574Y-38792574D01*
X63236666Y-38785112D01*
X63247039Y-38779567D01*
X63258295Y-38776153D01*
X63270000Y-38775000D01*
X63400000Y-38775000D01*
X63411705Y-38776153D01*
G37*
G36*
X64129205Y-37554653D02*
G01*
X64140461Y-37558067D01*
X64150834Y-37563612D01*
X64159926Y-37571074D01*
X64167388Y-37580166D01*
X64172933Y-37590539D01*
X64176347Y-37601795D01*
X64177500Y-37613500D01*
X64177500Y-38466500D01*
X64176347Y-38478205D01*
X64172933Y-38489461D01*
X64167388Y-38499834D01*
X64159926Y-38508926D01*
X64150834Y-38516388D01*
X64140461Y-38521933D01*
X64129205Y-38525347D01*
X64117500Y-38526500D01*
X63702500Y-38526500D01*
X63690795Y-38525347D01*
X63679539Y-38521933D01*
X63669166Y-38516388D01*
X63660074Y-38508926D01*
X63652612Y-38499834D01*
X63647067Y-38489461D01*
X63643653Y-38478205D01*
X63642500Y-38466500D01*
X63642500Y-37613500D01*
X63643653Y-37601795D01*
X63647067Y-37590539D01*
X63652612Y-37580166D01*
X63660074Y-37571074D01*
X63669166Y-37563612D01*
X63679539Y-37558067D01*
X63690795Y-37554653D01*
X63702500Y-37553500D01*
X64117500Y-37553500D01*
X64129205Y-37554653D01*
G37*
G36*
X64129205Y-38728153D02*
G01*
X64140461Y-38731567D01*
X64150834Y-38737112D01*
X64159926Y-38744574D01*
X64167388Y-38753666D01*
X64172933Y-38764039D01*
X64176347Y-38775295D01*
X64177500Y-38787000D01*
X64177500Y-39640000D01*
X64176347Y-39651705D01*
X64172933Y-39662961D01*
X64167388Y-39673334D01*
X64159926Y-39682426D01*
X64150834Y-39689888D01*
X64140461Y-39695433D01*
X64129205Y-39698847D01*
X64117500Y-39700000D01*
X63702500Y-39700000D01*
X63690795Y-39698847D01*
X63679539Y-39695433D01*
X63669166Y-39689888D01*
X63660074Y-39682426D01*
X63652612Y-39673334D01*
X63647067Y-39662961D01*
X63643653Y-39651705D01*
X63642500Y-39640000D01*
X63642500Y-38787000D01*
X63643653Y-38775295D01*
X63647067Y-38764039D01*
X63652612Y-38753666D01*
X63660074Y-38744574D01*
X63669166Y-38737112D01*
X63679539Y-38731567D01*
X63690795Y-38728153D01*
X63702500Y-38727000D01*
X64117500Y-38727000D01*
X64129205Y-38728153D01*
G37*
G36*
X64099509Y-36301921D02*
G01*
X64118268Y-36307612D01*
X64135557Y-36316853D01*
X64150711Y-36329289D01*
X64163147Y-36344443D01*
X64172388Y-36361732D01*
X64178079Y-36380491D01*
X64180000Y-36400000D01*
X64180000Y-37235000D01*
X64178079Y-37254509D01*
X64172388Y-37273268D01*
X64163147Y-37290557D01*
X64150711Y-37305711D01*
X64135557Y-37318147D01*
X64118268Y-37327388D01*
X64099509Y-37333079D01*
X64080000Y-37335000D01*
X63740000Y-37335000D01*
X63720491Y-37333079D01*
X63701732Y-37327388D01*
X63684443Y-37318147D01*
X63669289Y-37305711D01*
X63656853Y-37290557D01*
X63647612Y-37273268D01*
X63641921Y-37254509D01*
X63640000Y-37235000D01*
X63640000Y-36400000D01*
X63641921Y-36380491D01*
X63647612Y-36361732D01*
X63656853Y-36344443D01*
X63669289Y-36329289D01*
X63684443Y-36316853D01*
X63701732Y-36307612D01*
X63720491Y-36301921D01*
X63740000Y-36300000D01*
X64080000Y-36300000D01*
X64099509Y-36301921D01*
G37*
G36*
X64844509Y-36301921D02*
G01*
X64863268Y-36307612D01*
X64880557Y-36316853D01*
X64895711Y-36329289D01*
X64908147Y-36344443D01*
X64917388Y-36361732D01*
X64923079Y-36380491D01*
X64925000Y-36400000D01*
X64925000Y-37800000D01*
X64923079Y-37819509D01*
X64917388Y-37838268D01*
X64908147Y-37855557D01*
X64895711Y-37870711D01*
X64880557Y-37883147D01*
X64863268Y-37892388D01*
X64844509Y-37898079D01*
X64825000Y-37900000D01*
X64625000Y-37900000D01*
X64605491Y-37898079D01*
X64586732Y-37892388D01*
X64569443Y-37883147D01*
X64554289Y-37870711D01*
X64541853Y-37855557D01*
X64532612Y-37838268D01*
X64526921Y-37819509D01*
X64525000Y-37800000D01*
X64525000Y-36400000D01*
X64526921Y-36380491D01*
X64532612Y-36361732D01*
X64541853Y-36344443D01*
X64554289Y-36329289D01*
X64569443Y-36316853D01*
X64586732Y-36307612D01*
X64605491Y-36301921D01*
X64625000Y-36300000D01*
X64825000Y-36300000D01*
X64844509Y-36301921D01*
G37*
G36*
X64844509Y-38101921D02*
G01*
X64863268Y-38107612D01*
X64880557Y-38116853D01*
X64895711Y-38129289D01*
X64908147Y-38144443D01*
X64917388Y-38161732D01*
X64923079Y-38180491D01*
X64925000Y-38200000D01*
X64925000Y-39600000D01*
X64923079Y-39619509D01*
X64917388Y-39638268D01*
X64908147Y-39655557D01*
X64895711Y-39670711D01*
X64880557Y-39683147D01*
X64863268Y-39692388D01*
X64844509Y-39698079D01*
X64825000Y-39700000D01*
X64625000Y-39700000D01*
X64605491Y-39698079D01*
X64586732Y-39692388D01*
X64569443Y-39683147D01*
X64554289Y-39670711D01*
X64541853Y-39655557D01*
X64532612Y-39638268D01*
X64526921Y-39619509D01*
X64525000Y-39600000D01*
X64525000Y-38200000D01*
X64526921Y-38180491D01*
X64532612Y-38161732D01*
X64541853Y-38144443D01*
X64554289Y-38129289D01*
X64569443Y-38116853D01*
X64586732Y-38107612D01*
X64605491Y-38101921D01*
X64625000Y-38100000D01*
X64825000Y-38100000D01*
X64844509Y-38101921D01*
G37*
G36*
X65694509Y-36301921D02*
G01*
X65713268Y-36307612D01*
X65730557Y-36316853D01*
X65745711Y-36329289D01*
X65758147Y-36344443D01*
X65767388Y-36361732D01*
X65773079Y-36380491D01*
X65775000Y-36400000D01*
X65775000Y-37800000D01*
X65773079Y-37819509D01*
X65767388Y-37838268D01*
X65758147Y-37855557D01*
X65745711Y-37870711D01*
X65730557Y-37883147D01*
X65713268Y-37892388D01*
X65694509Y-37898079D01*
X65675000Y-37900000D01*
X65475000Y-37900000D01*
X65455491Y-37898079D01*
X65436732Y-37892388D01*
X65419443Y-37883147D01*
X65404289Y-37870711D01*
X65391853Y-37855557D01*
X65382612Y-37838268D01*
X65376921Y-37819509D01*
X65375000Y-37800000D01*
X65375000Y-36400000D01*
X65376921Y-36380491D01*
X65382612Y-36361732D01*
X65391853Y-36344443D01*
X65404289Y-36329289D01*
X65419443Y-36316853D01*
X65436732Y-36307612D01*
X65455491Y-36301921D01*
X65475000Y-36300000D01*
X65675000Y-36300000D01*
X65694509Y-36301921D01*
G37*
G36*
X65694509Y-38101921D02*
G01*
X65713268Y-38107612D01*
X65730557Y-38116853D01*
X65745711Y-38129289D01*
X65758147Y-38144443D01*
X65767388Y-38161732D01*
X65773079Y-38180491D01*
X65775000Y-38200000D01*
X65775000Y-39600000D01*
X65773079Y-39619509D01*
X65767388Y-39638268D01*
X65758147Y-39655557D01*
X65745711Y-39670711D01*
X65730557Y-39683147D01*
X65713268Y-39692388D01*
X65694509Y-39698079D01*
X65675000Y-39700000D01*
X65475000Y-39700000D01*
X65455491Y-39698079D01*
X65436732Y-39692388D01*
X65419443Y-39683147D01*
X65404289Y-39670711D01*
X65391853Y-39655557D01*
X65382612Y-39638268D01*
X65376921Y-39619509D01*
X65375000Y-39600000D01*
X65375000Y-38200000D01*
X65376921Y-38180491D01*
X65382612Y-38161732D01*
X65391853Y-38144443D01*
X65404289Y-38129289D01*
X65419443Y-38116853D01*
X65436732Y-38107612D01*
X65455491Y-38101921D01*
X65475000Y-38100000D01*
X65675000Y-38100000D01*
X65694509Y-38101921D01*
G37*
G36*
X66544509Y-36301921D02*
G01*
X66563268Y-36307612D01*
X66580557Y-36316853D01*
X66595711Y-36329289D01*
X66608147Y-36344443D01*
X66617388Y-36361732D01*
X66623079Y-36380491D01*
X66625000Y-36400000D01*
X66625000Y-37800000D01*
X66623079Y-37819509D01*
X66617388Y-37838268D01*
X66608147Y-37855557D01*
X66595711Y-37870711D01*
X66580557Y-37883147D01*
X66563268Y-37892388D01*
X66544509Y-37898079D01*
X66525000Y-37900000D01*
X66325000Y-37900000D01*
X66305491Y-37898079D01*
X66286732Y-37892388D01*
X66269443Y-37883147D01*
X66254289Y-37870711D01*
X66241853Y-37855557D01*
X66232612Y-37838268D01*
X66226921Y-37819509D01*
X66225000Y-37800000D01*
X66225000Y-36400000D01*
X66226921Y-36380491D01*
X66232612Y-36361732D01*
X66241853Y-36344443D01*
X66254289Y-36329289D01*
X66269443Y-36316853D01*
X66286732Y-36307612D01*
X66305491Y-36301921D01*
X66325000Y-36300000D01*
X66525000Y-36300000D01*
X66544509Y-36301921D01*
G37*
G36*
X66544509Y-38101921D02*
G01*
X66563268Y-38107612D01*
X66580557Y-38116853D01*
X66595711Y-38129289D01*
X66608147Y-38144443D01*
X66617388Y-38161732D01*
X66623079Y-38180491D01*
X66625000Y-38200000D01*
X66625000Y-39600000D01*
X66623079Y-39619509D01*
X66617388Y-39638268D01*
X66608147Y-39655557D01*
X66595711Y-39670711D01*
X66580557Y-39683147D01*
X66563268Y-39692388D01*
X66544509Y-39698079D01*
X66525000Y-39700000D01*
X66325000Y-39700000D01*
X66305491Y-39698079D01*
X66286732Y-39692388D01*
X66269443Y-39683147D01*
X66254289Y-39670711D01*
X66241853Y-39655557D01*
X66232612Y-39638268D01*
X66226921Y-39619509D01*
X66225000Y-39600000D01*
X66225000Y-38200000D01*
X66226921Y-38180491D01*
X66232612Y-38161732D01*
X66241853Y-38144443D01*
X66254289Y-38129289D01*
X66269443Y-38116853D01*
X66286732Y-38107612D01*
X66305491Y-38101921D01*
X66325000Y-38100000D01*
X66525000Y-38100000D01*
X66544509Y-38101921D01*
G37*
G36*
X67394509Y-36301921D02*
G01*
X67413268Y-36307612D01*
X67430557Y-36316853D01*
X67445711Y-36329289D01*
X67458147Y-36344443D01*
X67467388Y-36361732D01*
X67473079Y-36380491D01*
X67475000Y-36400000D01*
X67475000Y-37800000D01*
X67473079Y-37819509D01*
X67467388Y-37838268D01*
X67458147Y-37855557D01*
X67445711Y-37870711D01*
X67430557Y-37883147D01*
X67413268Y-37892388D01*
X67394509Y-37898079D01*
X67375000Y-37900000D01*
X67175000Y-37900000D01*
X67155491Y-37898079D01*
X67136732Y-37892388D01*
X67119443Y-37883147D01*
X67104289Y-37870711D01*
X67091853Y-37855557D01*
X67082612Y-37838268D01*
X67076921Y-37819509D01*
X67075000Y-37800000D01*
X67075000Y-36400000D01*
X67076921Y-36380491D01*
X67082612Y-36361732D01*
X67091853Y-36344443D01*
X67104289Y-36329289D01*
X67119443Y-36316853D01*
X67136732Y-36307612D01*
X67155491Y-36301921D01*
X67175000Y-36300000D01*
X67375000Y-36300000D01*
X67394509Y-36301921D01*
G37*
G36*
X67394509Y-38101921D02*
G01*
X67413268Y-38107612D01*
X67430557Y-38116853D01*
X67445711Y-38129289D01*
X67458147Y-38144443D01*
X67467388Y-38161732D01*
X67473079Y-38180491D01*
X67475000Y-38200000D01*
X67475000Y-39600000D01*
X67473079Y-39619509D01*
X67467388Y-39638268D01*
X67458147Y-39655557D01*
X67445711Y-39670711D01*
X67430557Y-39683147D01*
X67413268Y-39692388D01*
X67394509Y-39698079D01*
X67375000Y-39700000D01*
X67175000Y-39700000D01*
X67155491Y-39698079D01*
X67136732Y-39692388D01*
X67119443Y-39683147D01*
X67104289Y-39670711D01*
X67091853Y-39655557D01*
X67082612Y-39638268D01*
X67076921Y-39619509D01*
X67075000Y-39600000D01*
X67075000Y-38200000D01*
X67076921Y-38180491D01*
X67082612Y-38161732D01*
X67091853Y-38144443D01*
X67104289Y-38129289D01*
X67119443Y-38116853D01*
X67136732Y-38107612D01*
X67155491Y-38101921D01*
X67175000Y-38100000D01*
X67375000Y-38100000D01*
X67394509Y-38101921D01*
G37*
G36*
X68272765Y-36302094D02*
G01*
X68293212Y-36308297D01*
X68312057Y-36318370D01*
X68328575Y-36331925D01*
X68342130Y-36348443D01*
X68352203Y-36367288D01*
X68358406Y-36387735D01*
X68360500Y-36409000D01*
X68360500Y-37791000D01*
X68358406Y-37812265D01*
X68352203Y-37832712D01*
X68342130Y-37851557D01*
X68328575Y-37868075D01*
X68312057Y-37881630D01*
X68293212Y-37891703D01*
X68272765Y-37897906D01*
X68251500Y-37900000D01*
X68034500Y-37900000D01*
X68013235Y-37897906D01*
X67992788Y-37891703D01*
X67973943Y-37881630D01*
X67957425Y-37868075D01*
X67943870Y-37851557D01*
X67933797Y-37832712D01*
X67927594Y-37812265D01*
X67925500Y-37791000D01*
X67925500Y-36409000D01*
X67927594Y-36387735D01*
X67933797Y-36367288D01*
X67943870Y-36348443D01*
X67957425Y-36331925D01*
X67973943Y-36318370D01*
X67992788Y-36308297D01*
X68013235Y-36302094D01*
X68034500Y-36300000D01*
X68251500Y-36300000D01*
X68272765Y-36302094D01*
G37*
G36*
X68272765Y-38102094D02*
G01*
X68293212Y-38108297D01*
X68312057Y-38118370D01*
X68328575Y-38131925D01*
X68342130Y-38148443D01*
X68352203Y-38167288D01*
X68358406Y-38187735D01*
X68360500Y-38209000D01*
X68360500Y-39591000D01*
X68358406Y-39612265D01*
X68352203Y-39632712D01*
X68342130Y-39651557D01*
X68328575Y-39668075D01*
X68312057Y-39681630D01*
X68293212Y-39691703D01*
X68272765Y-39697906D01*
X68251500Y-39700000D01*
X68034500Y-39700000D01*
X68013235Y-39697906D01*
X67992788Y-39691703D01*
X67973943Y-39681630D01*
X67957425Y-39668075D01*
X67943870Y-39651557D01*
X67933797Y-39632712D01*
X67927594Y-39612265D01*
X67925500Y-39591000D01*
X67925500Y-38209000D01*
X67927594Y-38187735D01*
X67933797Y-38167288D01*
X67943870Y-38148443D01*
X67957425Y-38131925D01*
X67973943Y-38118370D01*
X67992788Y-38108297D01*
X68013235Y-38102094D01*
X68034500Y-38100000D01*
X68251500Y-38100000D01*
X68272765Y-38102094D01*
G37*
G36*
X68741705Y-36801153D02*
G01*
X68752961Y-36804567D01*
X68763334Y-36810112D01*
X68772426Y-36817574D01*
X68779888Y-36826666D01*
X68785433Y-36837039D01*
X68788847Y-36848295D01*
X68790000Y-36860000D01*
X68790000Y-37190000D01*
X68788847Y-37201705D01*
X68785433Y-37212961D01*
X68779888Y-37223334D01*
X68772426Y-37232426D01*
X68763334Y-37239888D01*
X68752961Y-37245433D01*
X68741705Y-37248847D01*
X68730000Y-37250000D01*
X68600000Y-37250000D01*
X68588295Y-37248847D01*
X68577039Y-37245433D01*
X68566666Y-37239888D01*
X68557574Y-37232426D01*
X68550112Y-37223334D01*
X68544567Y-37212961D01*
X68541153Y-37201705D01*
X68540000Y-37190000D01*
X68540000Y-36860000D01*
X68541153Y-36848295D01*
X68544567Y-36837039D01*
X68550112Y-36826666D01*
X68557574Y-36817574D01*
X68566666Y-36810112D01*
X68577039Y-36804567D01*
X68588295Y-36801153D01*
X68600000Y-36800000D01*
X68730000Y-36800000D01*
X68741705Y-36801153D01*
G37*
G36*
X68741705Y-37451153D02*
G01*
X68752961Y-37454567D01*
X68763334Y-37460112D01*
X68772426Y-37467574D01*
X68779888Y-37476666D01*
X68785433Y-37487039D01*
X68788847Y-37498295D01*
X68790000Y-37510000D01*
X68790000Y-37840000D01*
X68788847Y-37851705D01*
X68785433Y-37862961D01*
X68779888Y-37873334D01*
X68772426Y-37882426D01*
X68763334Y-37889888D01*
X68752961Y-37895433D01*
X68741705Y-37898847D01*
X68730000Y-37900000D01*
X68600000Y-37900000D01*
X68588295Y-37898847D01*
X68577039Y-37895433D01*
X68566666Y-37889888D01*
X68557574Y-37882426D01*
X68550112Y-37873334D01*
X68544567Y-37862961D01*
X68541153Y-37851705D01*
X68540000Y-37840000D01*
X68540000Y-37510000D01*
X68541153Y-37498295D01*
X68544567Y-37487039D01*
X68550112Y-37476666D01*
X68557574Y-37467574D01*
X68566666Y-37460112D01*
X68577039Y-37454567D01*
X68588295Y-37451153D01*
X68600000Y-37450000D01*
X68730000Y-37450000D01*
X68741705Y-37451153D01*
G37*
G36*
X68741705Y-38101153D02*
G01*
X68752961Y-38104567D01*
X68763334Y-38110112D01*
X68772426Y-38117574D01*
X68779888Y-38126666D01*
X68785433Y-38137039D01*
X68788847Y-38148295D01*
X68790000Y-38160000D01*
X68790000Y-38490000D01*
X68788847Y-38501705D01*
X68785433Y-38512961D01*
X68779888Y-38523334D01*
X68772426Y-38532426D01*
X68763334Y-38539888D01*
X68752961Y-38545433D01*
X68741705Y-38548847D01*
X68730000Y-38550000D01*
X68600000Y-38550000D01*
X68588295Y-38548847D01*
X68577039Y-38545433D01*
X68566666Y-38539888D01*
X68557574Y-38532426D01*
X68550112Y-38523334D01*
X68544567Y-38512961D01*
X68541153Y-38501705D01*
X68540000Y-38490000D01*
X68540000Y-38160000D01*
X68541153Y-38148295D01*
X68544567Y-38137039D01*
X68550112Y-38126666D01*
X68557574Y-38117574D01*
X68566666Y-38110112D01*
X68577039Y-38104567D01*
X68588295Y-38101153D01*
X68600000Y-38100000D01*
X68730000Y-38100000D01*
X68741705Y-38101153D01*
G37*
G36*
X68741705Y-38751153D02*
G01*
X68752961Y-38754567D01*
X68763334Y-38760112D01*
X68772426Y-38767574D01*
X68779888Y-38776666D01*
X68785433Y-38787039D01*
X68788847Y-38798295D01*
X68790000Y-38810000D01*
X68790000Y-39140000D01*
X68788847Y-39151705D01*
X68785433Y-39162961D01*
X68779888Y-39173334D01*
X68772426Y-39182426D01*
X68763334Y-39189888D01*
X68752961Y-39195433D01*
X68741705Y-39198847D01*
X68730000Y-39200000D01*
X68600000Y-39200000D01*
X68588295Y-39198847D01*
X68577039Y-39195433D01*
X68566666Y-39189888D01*
X68557574Y-39182426D01*
X68550112Y-39173334D01*
X68544567Y-39162961D01*
X68541153Y-39151705D01*
X68540000Y-39140000D01*
X68540000Y-38810000D01*
X68541153Y-38798295D01*
X68544567Y-38787039D01*
X68550112Y-38776666D01*
X68557574Y-38767574D01*
X68566666Y-38760112D01*
X68577039Y-38754567D01*
X68588295Y-38751153D01*
X68600000Y-38750000D01*
X68730000Y-38750000D01*
X68741705Y-38751153D01*
G37*
%TO.C,QH2*%
G36*
X63411705Y-30594153D02*
G01*
X63422961Y-30597567D01*
X63433334Y-30603112D01*
X63442426Y-30610574D01*
X63449888Y-30619666D01*
X63455433Y-30630039D01*
X63458847Y-30641295D01*
X63460000Y-30653000D01*
X63460000Y-30983000D01*
X63458847Y-30994705D01*
X63455433Y-31005961D01*
X63449888Y-31016334D01*
X63442426Y-31025426D01*
X63433334Y-31032888D01*
X63422961Y-31038433D01*
X63411705Y-31041847D01*
X63400000Y-31043000D01*
X63270000Y-31043000D01*
X63258295Y-31041847D01*
X63247039Y-31038433D01*
X63236666Y-31032888D01*
X63227574Y-31025426D01*
X63220112Y-31016334D01*
X63214567Y-31005961D01*
X63211153Y-30994705D01*
X63210000Y-30983000D01*
X63210000Y-30653000D01*
X63211153Y-30641295D01*
X63214567Y-30630039D01*
X63220112Y-30619666D01*
X63227574Y-30610574D01*
X63236666Y-30603112D01*
X63247039Y-30597567D01*
X63258295Y-30594153D01*
X63270000Y-30593000D01*
X63400000Y-30593000D01*
X63411705Y-30594153D01*
G37*
G36*
X63411705Y-31511153D02*
G01*
X63422961Y-31514567D01*
X63433334Y-31520112D01*
X63442426Y-31527574D01*
X63449888Y-31536666D01*
X63455433Y-31547039D01*
X63458847Y-31558295D01*
X63460000Y-31570000D01*
X63460000Y-31900000D01*
X63458847Y-31911705D01*
X63455433Y-31922961D01*
X63449888Y-31933334D01*
X63442426Y-31942426D01*
X63433334Y-31949888D01*
X63422961Y-31955433D01*
X63411705Y-31958847D01*
X63400000Y-31960000D01*
X63270000Y-31960000D01*
X63258295Y-31958847D01*
X63247039Y-31955433D01*
X63236666Y-31949888D01*
X63227574Y-31942426D01*
X63220112Y-31933334D01*
X63214567Y-31922961D01*
X63211153Y-31911705D01*
X63210000Y-31900000D01*
X63210000Y-31570000D01*
X63211153Y-31558295D01*
X63214567Y-31547039D01*
X63220112Y-31536666D01*
X63227574Y-31527574D01*
X63236666Y-31520112D01*
X63247039Y-31514567D01*
X63258295Y-31511153D01*
X63270000Y-31510000D01*
X63400000Y-31510000D01*
X63411705Y-31511153D01*
G37*
G36*
X63411705Y-32141153D02*
G01*
X63422961Y-32144567D01*
X63433334Y-32150112D01*
X63442426Y-32157574D01*
X63449888Y-32166666D01*
X63455433Y-32177039D01*
X63458847Y-32188295D01*
X63460000Y-32200000D01*
X63460000Y-32530000D01*
X63458847Y-32541705D01*
X63455433Y-32552961D01*
X63449888Y-32563334D01*
X63442426Y-32572426D01*
X63433334Y-32579888D01*
X63422961Y-32585433D01*
X63411705Y-32588847D01*
X63400000Y-32590000D01*
X63270000Y-32590000D01*
X63258295Y-32588847D01*
X63247039Y-32585433D01*
X63236666Y-32579888D01*
X63227574Y-32572426D01*
X63220112Y-32563334D01*
X63214567Y-32552961D01*
X63211153Y-32541705D01*
X63210000Y-32530000D01*
X63210000Y-32200000D01*
X63211153Y-32188295D01*
X63214567Y-32177039D01*
X63220112Y-32166666D01*
X63227574Y-32157574D01*
X63236666Y-32150112D01*
X63247039Y-32144567D01*
X63258295Y-32141153D01*
X63270000Y-32140000D01*
X63400000Y-32140000D01*
X63411705Y-32141153D01*
G37*
G36*
X63411705Y-32776153D02*
G01*
X63422961Y-32779567D01*
X63433334Y-32785112D01*
X63442426Y-32792574D01*
X63449888Y-32801666D01*
X63455433Y-32812039D01*
X63458847Y-32823295D01*
X63460000Y-32835000D01*
X63460000Y-33165000D01*
X63458847Y-33176705D01*
X63455433Y-33187961D01*
X63449888Y-33198334D01*
X63442426Y-33207426D01*
X63433334Y-33214888D01*
X63422961Y-33220433D01*
X63411705Y-33223847D01*
X63400000Y-33225000D01*
X63270000Y-33225000D01*
X63258295Y-33223847D01*
X63247039Y-33220433D01*
X63236666Y-33214888D01*
X63227574Y-33207426D01*
X63220112Y-33198334D01*
X63214567Y-33187961D01*
X63211153Y-33176705D01*
X63210000Y-33165000D01*
X63210000Y-32835000D01*
X63211153Y-32823295D01*
X63214567Y-32812039D01*
X63220112Y-32801666D01*
X63227574Y-32792574D01*
X63236666Y-32785112D01*
X63247039Y-32779567D01*
X63258295Y-32776153D01*
X63270000Y-32775000D01*
X63400000Y-32775000D01*
X63411705Y-32776153D01*
G37*
G36*
X64129205Y-31554653D02*
G01*
X64140461Y-31558067D01*
X64150834Y-31563612D01*
X64159926Y-31571074D01*
X64167388Y-31580166D01*
X64172933Y-31590539D01*
X64176347Y-31601795D01*
X64177500Y-31613500D01*
X64177500Y-32466500D01*
X64176347Y-32478205D01*
X64172933Y-32489461D01*
X64167388Y-32499834D01*
X64159926Y-32508926D01*
X64150834Y-32516388D01*
X64140461Y-32521933D01*
X64129205Y-32525347D01*
X64117500Y-32526500D01*
X63702500Y-32526500D01*
X63690795Y-32525347D01*
X63679539Y-32521933D01*
X63669166Y-32516388D01*
X63660074Y-32508926D01*
X63652612Y-32499834D01*
X63647067Y-32489461D01*
X63643653Y-32478205D01*
X63642500Y-32466500D01*
X63642500Y-31613500D01*
X63643653Y-31601795D01*
X63647067Y-31590539D01*
X63652612Y-31580166D01*
X63660074Y-31571074D01*
X63669166Y-31563612D01*
X63679539Y-31558067D01*
X63690795Y-31554653D01*
X63702500Y-31553500D01*
X64117500Y-31553500D01*
X64129205Y-31554653D01*
G37*
G36*
X64129205Y-32728153D02*
G01*
X64140461Y-32731567D01*
X64150834Y-32737112D01*
X64159926Y-32744574D01*
X64167388Y-32753666D01*
X64172933Y-32764039D01*
X64176347Y-32775295D01*
X64177500Y-32787000D01*
X64177500Y-33640000D01*
X64176347Y-33651705D01*
X64172933Y-33662961D01*
X64167388Y-33673334D01*
X64159926Y-33682426D01*
X64150834Y-33689888D01*
X64140461Y-33695433D01*
X64129205Y-33698847D01*
X64117500Y-33700000D01*
X63702500Y-33700000D01*
X63690795Y-33698847D01*
X63679539Y-33695433D01*
X63669166Y-33689888D01*
X63660074Y-33682426D01*
X63652612Y-33673334D01*
X63647067Y-33662961D01*
X63643653Y-33651705D01*
X63642500Y-33640000D01*
X63642500Y-32787000D01*
X63643653Y-32775295D01*
X63647067Y-32764039D01*
X63652612Y-32753666D01*
X63660074Y-32744574D01*
X63669166Y-32737112D01*
X63679539Y-32731567D01*
X63690795Y-32728153D01*
X63702500Y-32727000D01*
X64117500Y-32727000D01*
X64129205Y-32728153D01*
G37*
G36*
X64099509Y-30301921D02*
G01*
X64118268Y-30307612D01*
X64135557Y-30316853D01*
X64150711Y-30329289D01*
X64163147Y-30344443D01*
X64172388Y-30361732D01*
X64178079Y-30380491D01*
X64180000Y-30400000D01*
X64180000Y-31235000D01*
X64178079Y-31254509D01*
X64172388Y-31273268D01*
X64163147Y-31290557D01*
X64150711Y-31305711D01*
X64135557Y-31318147D01*
X64118268Y-31327388D01*
X64099509Y-31333079D01*
X64080000Y-31335000D01*
X63740000Y-31335000D01*
X63720491Y-31333079D01*
X63701732Y-31327388D01*
X63684443Y-31318147D01*
X63669289Y-31305711D01*
X63656853Y-31290557D01*
X63647612Y-31273268D01*
X63641921Y-31254509D01*
X63640000Y-31235000D01*
X63640000Y-30400000D01*
X63641921Y-30380491D01*
X63647612Y-30361732D01*
X63656853Y-30344443D01*
X63669289Y-30329289D01*
X63684443Y-30316853D01*
X63701732Y-30307612D01*
X63720491Y-30301921D01*
X63740000Y-30300000D01*
X64080000Y-30300000D01*
X64099509Y-30301921D01*
G37*
G36*
X64844509Y-30301921D02*
G01*
X64863268Y-30307612D01*
X64880557Y-30316853D01*
X64895711Y-30329289D01*
X64908147Y-30344443D01*
X64917388Y-30361732D01*
X64923079Y-30380491D01*
X64925000Y-30400000D01*
X64925000Y-31800000D01*
X64923079Y-31819509D01*
X64917388Y-31838268D01*
X64908147Y-31855557D01*
X64895711Y-31870711D01*
X64880557Y-31883147D01*
X64863268Y-31892388D01*
X64844509Y-31898079D01*
X64825000Y-31900000D01*
X64625000Y-31900000D01*
X64605491Y-31898079D01*
X64586732Y-31892388D01*
X64569443Y-31883147D01*
X64554289Y-31870711D01*
X64541853Y-31855557D01*
X64532612Y-31838268D01*
X64526921Y-31819509D01*
X64525000Y-31800000D01*
X64525000Y-30400000D01*
X64526921Y-30380491D01*
X64532612Y-30361732D01*
X64541853Y-30344443D01*
X64554289Y-30329289D01*
X64569443Y-30316853D01*
X64586732Y-30307612D01*
X64605491Y-30301921D01*
X64625000Y-30300000D01*
X64825000Y-30300000D01*
X64844509Y-30301921D01*
G37*
G36*
X64844509Y-32101921D02*
G01*
X64863268Y-32107612D01*
X64880557Y-32116853D01*
X64895711Y-32129289D01*
X64908147Y-32144443D01*
X64917388Y-32161732D01*
X64923079Y-32180491D01*
X64925000Y-32200000D01*
X64925000Y-33600000D01*
X64923079Y-33619509D01*
X64917388Y-33638268D01*
X64908147Y-33655557D01*
X64895711Y-33670711D01*
X64880557Y-33683147D01*
X64863268Y-33692388D01*
X64844509Y-33698079D01*
X64825000Y-33700000D01*
X64625000Y-33700000D01*
X64605491Y-33698079D01*
X64586732Y-33692388D01*
X64569443Y-33683147D01*
X64554289Y-33670711D01*
X64541853Y-33655557D01*
X64532612Y-33638268D01*
X64526921Y-33619509D01*
X64525000Y-33600000D01*
X64525000Y-32200000D01*
X64526921Y-32180491D01*
X64532612Y-32161732D01*
X64541853Y-32144443D01*
X64554289Y-32129289D01*
X64569443Y-32116853D01*
X64586732Y-32107612D01*
X64605491Y-32101921D01*
X64625000Y-32100000D01*
X64825000Y-32100000D01*
X64844509Y-32101921D01*
G37*
G36*
X65694509Y-30301921D02*
G01*
X65713268Y-30307612D01*
X65730557Y-30316853D01*
X65745711Y-30329289D01*
X65758147Y-30344443D01*
X65767388Y-30361732D01*
X65773079Y-30380491D01*
X65775000Y-30400000D01*
X65775000Y-31800000D01*
X65773079Y-31819509D01*
X65767388Y-31838268D01*
X65758147Y-31855557D01*
X65745711Y-31870711D01*
X65730557Y-31883147D01*
X65713268Y-31892388D01*
X65694509Y-31898079D01*
X65675000Y-31900000D01*
X65475000Y-31900000D01*
X65455491Y-31898079D01*
X65436732Y-31892388D01*
X65419443Y-31883147D01*
X65404289Y-31870711D01*
X65391853Y-31855557D01*
X65382612Y-31838268D01*
X65376921Y-31819509D01*
X65375000Y-31800000D01*
X65375000Y-30400000D01*
X65376921Y-30380491D01*
X65382612Y-30361732D01*
X65391853Y-30344443D01*
X65404289Y-30329289D01*
X65419443Y-30316853D01*
X65436732Y-30307612D01*
X65455491Y-30301921D01*
X65475000Y-30300000D01*
X65675000Y-30300000D01*
X65694509Y-30301921D01*
G37*
G36*
X65694509Y-32101921D02*
G01*
X65713268Y-32107612D01*
X65730557Y-32116853D01*
X65745711Y-32129289D01*
X65758147Y-32144443D01*
X65767388Y-32161732D01*
X65773079Y-32180491D01*
X65775000Y-32200000D01*
X65775000Y-33600000D01*
X65773079Y-33619509D01*
X65767388Y-33638268D01*
X65758147Y-33655557D01*
X65745711Y-33670711D01*
X65730557Y-33683147D01*
X65713268Y-33692388D01*
X65694509Y-33698079D01*
X65675000Y-33700000D01*
X65475000Y-33700000D01*
X65455491Y-33698079D01*
X65436732Y-33692388D01*
X65419443Y-33683147D01*
X65404289Y-33670711D01*
X65391853Y-33655557D01*
X65382612Y-33638268D01*
X65376921Y-33619509D01*
X65375000Y-33600000D01*
X65375000Y-32200000D01*
X65376921Y-32180491D01*
X65382612Y-32161732D01*
X65391853Y-32144443D01*
X65404289Y-32129289D01*
X65419443Y-32116853D01*
X65436732Y-32107612D01*
X65455491Y-32101921D01*
X65475000Y-32100000D01*
X65675000Y-32100000D01*
X65694509Y-32101921D01*
G37*
G36*
X66544509Y-30301921D02*
G01*
X66563268Y-30307612D01*
X66580557Y-30316853D01*
X66595711Y-30329289D01*
X66608147Y-30344443D01*
X66617388Y-30361732D01*
X66623079Y-30380491D01*
X66625000Y-30400000D01*
X66625000Y-31800000D01*
X66623079Y-31819509D01*
X66617388Y-31838268D01*
X66608147Y-31855557D01*
X66595711Y-31870711D01*
X66580557Y-31883147D01*
X66563268Y-31892388D01*
X66544509Y-31898079D01*
X66525000Y-31900000D01*
X66325000Y-31900000D01*
X66305491Y-31898079D01*
X66286732Y-31892388D01*
X66269443Y-31883147D01*
X66254289Y-31870711D01*
X66241853Y-31855557D01*
X66232612Y-31838268D01*
X66226921Y-31819509D01*
X66225000Y-31800000D01*
X66225000Y-30400000D01*
X66226921Y-30380491D01*
X66232612Y-30361732D01*
X66241853Y-30344443D01*
X66254289Y-30329289D01*
X66269443Y-30316853D01*
X66286732Y-30307612D01*
X66305491Y-30301921D01*
X66325000Y-30300000D01*
X66525000Y-30300000D01*
X66544509Y-30301921D01*
G37*
G36*
X66544509Y-32101921D02*
G01*
X66563268Y-32107612D01*
X66580557Y-32116853D01*
X66595711Y-32129289D01*
X66608147Y-32144443D01*
X66617388Y-32161732D01*
X66623079Y-32180491D01*
X66625000Y-32200000D01*
X66625000Y-33600000D01*
X66623079Y-33619509D01*
X66617388Y-33638268D01*
X66608147Y-33655557D01*
X66595711Y-33670711D01*
X66580557Y-33683147D01*
X66563268Y-33692388D01*
X66544509Y-33698079D01*
X66525000Y-33700000D01*
X66325000Y-33700000D01*
X66305491Y-33698079D01*
X66286732Y-33692388D01*
X66269443Y-33683147D01*
X66254289Y-33670711D01*
X66241853Y-33655557D01*
X66232612Y-33638268D01*
X66226921Y-33619509D01*
X66225000Y-33600000D01*
X66225000Y-32200000D01*
X66226921Y-32180491D01*
X66232612Y-32161732D01*
X66241853Y-32144443D01*
X66254289Y-32129289D01*
X66269443Y-32116853D01*
X66286732Y-32107612D01*
X66305491Y-32101921D01*
X66325000Y-32100000D01*
X66525000Y-32100000D01*
X66544509Y-32101921D01*
G37*
G36*
X67394509Y-30301921D02*
G01*
X67413268Y-30307612D01*
X67430557Y-30316853D01*
X67445711Y-30329289D01*
X67458147Y-30344443D01*
X67467388Y-30361732D01*
X67473079Y-30380491D01*
X67475000Y-30400000D01*
X67475000Y-31800000D01*
X67473079Y-31819509D01*
X67467388Y-31838268D01*
X67458147Y-31855557D01*
X67445711Y-31870711D01*
X67430557Y-31883147D01*
X67413268Y-31892388D01*
X67394509Y-31898079D01*
X67375000Y-31900000D01*
X67175000Y-31900000D01*
X67155491Y-31898079D01*
X67136732Y-31892388D01*
X67119443Y-31883147D01*
X67104289Y-31870711D01*
X67091853Y-31855557D01*
X67082612Y-31838268D01*
X67076921Y-31819509D01*
X67075000Y-31800000D01*
X67075000Y-30400000D01*
X67076921Y-30380491D01*
X67082612Y-30361732D01*
X67091853Y-30344443D01*
X67104289Y-30329289D01*
X67119443Y-30316853D01*
X67136732Y-30307612D01*
X67155491Y-30301921D01*
X67175000Y-30300000D01*
X67375000Y-30300000D01*
X67394509Y-30301921D01*
G37*
G36*
X67394509Y-32101921D02*
G01*
X67413268Y-32107612D01*
X67430557Y-32116853D01*
X67445711Y-32129289D01*
X67458147Y-32144443D01*
X67467388Y-32161732D01*
X67473079Y-32180491D01*
X67475000Y-32200000D01*
X67475000Y-33600000D01*
X67473079Y-33619509D01*
X67467388Y-33638268D01*
X67458147Y-33655557D01*
X67445711Y-33670711D01*
X67430557Y-33683147D01*
X67413268Y-33692388D01*
X67394509Y-33698079D01*
X67375000Y-33700000D01*
X67175000Y-33700000D01*
X67155491Y-33698079D01*
X67136732Y-33692388D01*
X67119443Y-33683147D01*
X67104289Y-33670711D01*
X67091853Y-33655557D01*
X67082612Y-33638268D01*
X67076921Y-33619509D01*
X67075000Y-33600000D01*
X67075000Y-32200000D01*
X67076921Y-32180491D01*
X67082612Y-32161732D01*
X67091853Y-32144443D01*
X67104289Y-32129289D01*
X67119443Y-32116853D01*
X67136732Y-32107612D01*
X67155491Y-32101921D01*
X67175000Y-32100000D01*
X67375000Y-32100000D01*
X67394509Y-32101921D01*
G37*
G36*
X68272765Y-30302094D02*
G01*
X68293212Y-30308297D01*
X68312057Y-30318370D01*
X68328575Y-30331925D01*
X68342130Y-30348443D01*
X68352203Y-30367288D01*
X68358406Y-30387735D01*
X68360500Y-30409000D01*
X68360500Y-31791000D01*
X68358406Y-31812265D01*
X68352203Y-31832712D01*
X68342130Y-31851557D01*
X68328575Y-31868075D01*
X68312057Y-31881630D01*
X68293212Y-31891703D01*
X68272765Y-31897906D01*
X68251500Y-31900000D01*
X68034500Y-31900000D01*
X68013235Y-31897906D01*
X67992788Y-31891703D01*
X67973943Y-31881630D01*
X67957425Y-31868075D01*
X67943870Y-31851557D01*
X67933797Y-31832712D01*
X67927594Y-31812265D01*
X67925500Y-31791000D01*
X67925500Y-30409000D01*
X67927594Y-30387735D01*
X67933797Y-30367288D01*
X67943870Y-30348443D01*
X67957425Y-30331925D01*
X67973943Y-30318370D01*
X67992788Y-30308297D01*
X68013235Y-30302094D01*
X68034500Y-30300000D01*
X68251500Y-30300000D01*
X68272765Y-30302094D01*
G37*
G36*
X68272765Y-32102094D02*
G01*
X68293212Y-32108297D01*
X68312057Y-32118370D01*
X68328575Y-32131925D01*
X68342130Y-32148443D01*
X68352203Y-32167288D01*
X68358406Y-32187735D01*
X68360500Y-32209000D01*
X68360500Y-33591000D01*
X68358406Y-33612265D01*
X68352203Y-33632712D01*
X68342130Y-33651557D01*
X68328575Y-33668075D01*
X68312057Y-33681630D01*
X68293212Y-33691703D01*
X68272765Y-33697906D01*
X68251500Y-33700000D01*
X68034500Y-33700000D01*
X68013235Y-33697906D01*
X67992788Y-33691703D01*
X67973943Y-33681630D01*
X67957425Y-33668075D01*
X67943870Y-33651557D01*
X67933797Y-33632712D01*
X67927594Y-33612265D01*
X67925500Y-33591000D01*
X67925500Y-32209000D01*
X67927594Y-32187735D01*
X67933797Y-32167288D01*
X67943870Y-32148443D01*
X67957425Y-32131925D01*
X67973943Y-32118370D01*
X67992788Y-32108297D01*
X68013235Y-32102094D01*
X68034500Y-32100000D01*
X68251500Y-32100000D01*
X68272765Y-32102094D01*
G37*
G36*
X68741705Y-30801153D02*
G01*
X68752961Y-30804567D01*
X68763334Y-30810112D01*
X68772426Y-30817574D01*
X68779888Y-30826666D01*
X68785433Y-30837039D01*
X68788847Y-30848295D01*
X68790000Y-30860000D01*
X68790000Y-31190000D01*
X68788847Y-31201705D01*
X68785433Y-31212961D01*
X68779888Y-31223334D01*
X68772426Y-31232426D01*
X68763334Y-31239888D01*
X68752961Y-31245433D01*
X68741705Y-31248847D01*
X68730000Y-31250000D01*
X68600000Y-31250000D01*
X68588295Y-31248847D01*
X68577039Y-31245433D01*
X68566666Y-31239888D01*
X68557574Y-31232426D01*
X68550112Y-31223334D01*
X68544567Y-31212961D01*
X68541153Y-31201705D01*
X68540000Y-31190000D01*
X68540000Y-30860000D01*
X68541153Y-30848295D01*
X68544567Y-30837039D01*
X68550112Y-30826666D01*
X68557574Y-30817574D01*
X68566666Y-30810112D01*
X68577039Y-30804567D01*
X68588295Y-30801153D01*
X68600000Y-30800000D01*
X68730000Y-30800000D01*
X68741705Y-30801153D01*
G37*
G36*
X68741705Y-31451153D02*
G01*
X68752961Y-31454567D01*
X68763334Y-31460112D01*
X68772426Y-31467574D01*
X68779888Y-31476666D01*
X68785433Y-31487039D01*
X68788847Y-31498295D01*
X68790000Y-31510000D01*
X68790000Y-31840000D01*
X68788847Y-31851705D01*
X68785433Y-31862961D01*
X68779888Y-31873334D01*
X68772426Y-31882426D01*
X68763334Y-31889888D01*
X68752961Y-31895433D01*
X68741705Y-31898847D01*
X68730000Y-31900000D01*
X68600000Y-31900000D01*
X68588295Y-31898847D01*
X68577039Y-31895433D01*
X68566666Y-31889888D01*
X68557574Y-31882426D01*
X68550112Y-31873334D01*
X68544567Y-31862961D01*
X68541153Y-31851705D01*
X68540000Y-31840000D01*
X68540000Y-31510000D01*
X68541153Y-31498295D01*
X68544567Y-31487039D01*
X68550112Y-31476666D01*
X68557574Y-31467574D01*
X68566666Y-31460112D01*
X68577039Y-31454567D01*
X68588295Y-31451153D01*
X68600000Y-31450000D01*
X68730000Y-31450000D01*
X68741705Y-31451153D01*
G37*
G36*
X68741705Y-32101153D02*
G01*
X68752961Y-32104567D01*
X68763334Y-32110112D01*
X68772426Y-32117574D01*
X68779888Y-32126666D01*
X68785433Y-32137039D01*
X68788847Y-32148295D01*
X68790000Y-32160000D01*
X68790000Y-32490000D01*
X68788847Y-32501705D01*
X68785433Y-32512961D01*
X68779888Y-32523334D01*
X68772426Y-32532426D01*
X68763334Y-32539888D01*
X68752961Y-32545433D01*
X68741705Y-32548847D01*
X68730000Y-32550000D01*
X68600000Y-32550000D01*
X68588295Y-32548847D01*
X68577039Y-32545433D01*
X68566666Y-32539888D01*
X68557574Y-32532426D01*
X68550112Y-32523334D01*
X68544567Y-32512961D01*
X68541153Y-32501705D01*
X68540000Y-32490000D01*
X68540000Y-32160000D01*
X68541153Y-32148295D01*
X68544567Y-32137039D01*
X68550112Y-32126666D01*
X68557574Y-32117574D01*
X68566666Y-32110112D01*
X68577039Y-32104567D01*
X68588295Y-32101153D01*
X68600000Y-32100000D01*
X68730000Y-32100000D01*
X68741705Y-32101153D01*
G37*
G36*
X68741705Y-32751153D02*
G01*
X68752961Y-32754567D01*
X68763334Y-32760112D01*
X68772426Y-32767574D01*
X68779888Y-32776666D01*
X68785433Y-32787039D01*
X68788847Y-32798295D01*
X68790000Y-32810000D01*
X68790000Y-33140000D01*
X68788847Y-33151705D01*
X68785433Y-33162961D01*
X68779888Y-33173334D01*
X68772426Y-33182426D01*
X68763334Y-33189888D01*
X68752961Y-33195433D01*
X68741705Y-33198847D01*
X68730000Y-33200000D01*
X68600000Y-33200000D01*
X68588295Y-33198847D01*
X68577039Y-33195433D01*
X68566666Y-33189888D01*
X68557574Y-33182426D01*
X68550112Y-33173334D01*
X68544567Y-33162961D01*
X68541153Y-33151705D01*
X68540000Y-33140000D01*
X68540000Y-32810000D01*
X68541153Y-32798295D01*
X68544567Y-32787039D01*
X68550112Y-32776666D01*
X68557574Y-32767574D01*
X68566666Y-32760112D01*
X68577039Y-32754567D01*
X68588295Y-32751153D01*
X68600000Y-32750000D01*
X68730000Y-32750000D01*
X68741705Y-32751153D01*
G37*
%TO.C,QH1*%
G36*
X45411705Y-30594153D02*
G01*
X45422961Y-30597567D01*
X45433334Y-30603112D01*
X45442426Y-30610574D01*
X45449888Y-30619666D01*
X45455433Y-30630039D01*
X45458847Y-30641295D01*
X45460000Y-30653000D01*
X45460000Y-30983000D01*
X45458847Y-30994705D01*
X45455433Y-31005961D01*
X45449888Y-31016334D01*
X45442426Y-31025426D01*
X45433334Y-31032888D01*
X45422961Y-31038433D01*
X45411705Y-31041847D01*
X45400000Y-31043000D01*
X45270000Y-31043000D01*
X45258295Y-31041847D01*
X45247039Y-31038433D01*
X45236666Y-31032888D01*
X45227574Y-31025426D01*
X45220112Y-31016334D01*
X45214567Y-31005961D01*
X45211153Y-30994705D01*
X45210000Y-30983000D01*
X45210000Y-30653000D01*
X45211153Y-30641295D01*
X45214567Y-30630039D01*
X45220112Y-30619666D01*
X45227574Y-30610574D01*
X45236666Y-30603112D01*
X45247039Y-30597567D01*
X45258295Y-30594153D01*
X45270000Y-30593000D01*
X45400000Y-30593000D01*
X45411705Y-30594153D01*
G37*
G36*
X45411705Y-31511153D02*
G01*
X45422961Y-31514567D01*
X45433334Y-31520112D01*
X45442426Y-31527574D01*
X45449888Y-31536666D01*
X45455433Y-31547039D01*
X45458847Y-31558295D01*
X45460000Y-31570000D01*
X45460000Y-31900000D01*
X45458847Y-31911705D01*
X45455433Y-31922961D01*
X45449888Y-31933334D01*
X45442426Y-31942426D01*
X45433334Y-31949888D01*
X45422961Y-31955433D01*
X45411705Y-31958847D01*
X45400000Y-31960000D01*
X45270000Y-31960000D01*
X45258295Y-31958847D01*
X45247039Y-31955433D01*
X45236666Y-31949888D01*
X45227574Y-31942426D01*
X45220112Y-31933334D01*
X45214567Y-31922961D01*
X45211153Y-31911705D01*
X45210000Y-31900000D01*
X45210000Y-31570000D01*
X45211153Y-31558295D01*
X45214567Y-31547039D01*
X45220112Y-31536666D01*
X45227574Y-31527574D01*
X45236666Y-31520112D01*
X45247039Y-31514567D01*
X45258295Y-31511153D01*
X45270000Y-31510000D01*
X45400000Y-31510000D01*
X45411705Y-31511153D01*
G37*
G36*
X45411705Y-32141153D02*
G01*
X45422961Y-32144567D01*
X45433334Y-32150112D01*
X45442426Y-32157574D01*
X45449888Y-32166666D01*
X45455433Y-32177039D01*
X45458847Y-32188295D01*
X45460000Y-32200000D01*
X45460000Y-32530000D01*
X45458847Y-32541705D01*
X45455433Y-32552961D01*
X45449888Y-32563334D01*
X45442426Y-32572426D01*
X45433334Y-32579888D01*
X45422961Y-32585433D01*
X45411705Y-32588847D01*
X45400000Y-32590000D01*
X45270000Y-32590000D01*
X45258295Y-32588847D01*
X45247039Y-32585433D01*
X45236666Y-32579888D01*
X45227574Y-32572426D01*
X45220112Y-32563334D01*
X45214567Y-32552961D01*
X45211153Y-32541705D01*
X45210000Y-32530000D01*
X45210000Y-32200000D01*
X45211153Y-32188295D01*
X45214567Y-32177039D01*
X45220112Y-32166666D01*
X45227574Y-32157574D01*
X45236666Y-32150112D01*
X45247039Y-32144567D01*
X45258295Y-32141153D01*
X45270000Y-32140000D01*
X45400000Y-32140000D01*
X45411705Y-32141153D01*
G37*
G36*
X45411705Y-32776153D02*
G01*
X45422961Y-32779567D01*
X45433334Y-32785112D01*
X45442426Y-32792574D01*
X45449888Y-32801666D01*
X45455433Y-32812039D01*
X45458847Y-32823295D01*
X45460000Y-32835000D01*
X45460000Y-33165000D01*
X45458847Y-33176705D01*
X45455433Y-33187961D01*
X45449888Y-33198334D01*
X45442426Y-33207426D01*
X45433334Y-33214888D01*
X45422961Y-33220433D01*
X45411705Y-33223847D01*
X45400000Y-33225000D01*
X45270000Y-33225000D01*
X45258295Y-33223847D01*
X45247039Y-33220433D01*
X45236666Y-33214888D01*
X45227574Y-33207426D01*
X45220112Y-33198334D01*
X45214567Y-33187961D01*
X45211153Y-33176705D01*
X45210000Y-33165000D01*
X45210000Y-32835000D01*
X45211153Y-32823295D01*
X45214567Y-32812039D01*
X45220112Y-32801666D01*
X45227574Y-32792574D01*
X45236666Y-32785112D01*
X45247039Y-32779567D01*
X45258295Y-32776153D01*
X45270000Y-32775000D01*
X45400000Y-32775000D01*
X45411705Y-32776153D01*
G37*
G36*
X46129205Y-31554653D02*
G01*
X46140461Y-31558067D01*
X46150834Y-31563612D01*
X46159926Y-31571074D01*
X46167388Y-31580166D01*
X46172933Y-31590539D01*
X46176347Y-31601795D01*
X46177500Y-31613500D01*
X46177500Y-32466500D01*
X46176347Y-32478205D01*
X46172933Y-32489461D01*
X46167388Y-32499834D01*
X46159926Y-32508926D01*
X46150834Y-32516388D01*
X46140461Y-32521933D01*
X46129205Y-32525347D01*
X46117500Y-32526500D01*
X45702500Y-32526500D01*
X45690795Y-32525347D01*
X45679539Y-32521933D01*
X45669166Y-32516388D01*
X45660074Y-32508926D01*
X45652612Y-32499834D01*
X45647067Y-32489461D01*
X45643653Y-32478205D01*
X45642500Y-32466500D01*
X45642500Y-31613500D01*
X45643653Y-31601795D01*
X45647067Y-31590539D01*
X45652612Y-31580166D01*
X45660074Y-31571074D01*
X45669166Y-31563612D01*
X45679539Y-31558067D01*
X45690795Y-31554653D01*
X45702500Y-31553500D01*
X46117500Y-31553500D01*
X46129205Y-31554653D01*
G37*
G36*
X46129205Y-32728153D02*
G01*
X46140461Y-32731567D01*
X46150834Y-32737112D01*
X46159926Y-32744574D01*
X46167388Y-32753666D01*
X46172933Y-32764039D01*
X46176347Y-32775295D01*
X46177500Y-32787000D01*
X46177500Y-33640000D01*
X46176347Y-33651705D01*
X46172933Y-33662961D01*
X46167388Y-33673334D01*
X46159926Y-33682426D01*
X46150834Y-33689888D01*
X46140461Y-33695433D01*
X46129205Y-33698847D01*
X46117500Y-33700000D01*
X45702500Y-33700000D01*
X45690795Y-33698847D01*
X45679539Y-33695433D01*
X45669166Y-33689888D01*
X45660074Y-33682426D01*
X45652612Y-33673334D01*
X45647067Y-33662961D01*
X45643653Y-33651705D01*
X45642500Y-33640000D01*
X45642500Y-32787000D01*
X45643653Y-32775295D01*
X45647067Y-32764039D01*
X45652612Y-32753666D01*
X45660074Y-32744574D01*
X45669166Y-32737112D01*
X45679539Y-32731567D01*
X45690795Y-32728153D01*
X45702500Y-32727000D01*
X46117500Y-32727000D01*
X46129205Y-32728153D01*
G37*
G36*
X46099509Y-30301921D02*
G01*
X46118268Y-30307612D01*
X46135557Y-30316853D01*
X46150711Y-30329289D01*
X46163147Y-30344443D01*
X46172388Y-30361732D01*
X46178079Y-30380491D01*
X46180000Y-30400000D01*
X46180000Y-31235000D01*
X46178079Y-31254509D01*
X46172388Y-31273268D01*
X46163147Y-31290557D01*
X46150711Y-31305711D01*
X46135557Y-31318147D01*
X46118268Y-31327388D01*
X46099509Y-31333079D01*
X46080000Y-31335000D01*
X45740000Y-31335000D01*
X45720491Y-31333079D01*
X45701732Y-31327388D01*
X45684443Y-31318147D01*
X45669289Y-31305711D01*
X45656853Y-31290557D01*
X45647612Y-31273268D01*
X45641921Y-31254509D01*
X45640000Y-31235000D01*
X45640000Y-30400000D01*
X45641921Y-30380491D01*
X45647612Y-30361732D01*
X45656853Y-30344443D01*
X45669289Y-30329289D01*
X45684443Y-30316853D01*
X45701732Y-30307612D01*
X45720491Y-30301921D01*
X45740000Y-30300000D01*
X46080000Y-30300000D01*
X46099509Y-30301921D01*
G37*
G36*
X46844509Y-30301921D02*
G01*
X46863268Y-30307612D01*
X46880557Y-30316853D01*
X46895711Y-30329289D01*
X46908147Y-30344443D01*
X46917388Y-30361732D01*
X46923079Y-30380491D01*
X46925000Y-30400000D01*
X46925000Y-31800000D01*
X46923079Y-31819509D01*
X46917388Y-31838268D01*
X46908147Y-31855557D01*
X46895711Y-31870711D01*
X46880557Y-31883147D01*
X46863268Y-31892388D01*
X46844509Y-31898079D01*
X46825000Y-31900000D01*
X46625000Y-31900000D01*
X46605491Y-31898079D01*
X46586732Y-31892388D01*
X46569443Y-31883147D01*
X46554289Y-31870711D01*
X46541853Y-31855557D01*
X46532612Y-31838268D01*
X46526921Y-31819509D01*
X46525000Y-31800000D01*
X46525000Y-30400000D01*
X46526921Y-30380491D01*
X46532612Y-30361732D01*
X46541853Y-30344443D01*
X46554289Y-30329289D01*
X46569443Y-30316853D01*
X46586732Y-30307612D01*
X46605491Y-30301921D01*
X46625000Y-30300000D01*
X46825000Y-30300000D01*
X46844509Y-30301921D01*
G37*
G36*
X46844509Y-32101921D02*
G01*
X46863268Y-32107612D01*
X46880557Y-32116853D01*
X46895711Y-32129289D01*
X46908147Y-32144443D01*
X46917388Y-32161732D01*
X46923079Y-32180491D01*
X46925000Y-32200000D01*
X46925000Y-33600000D01*
X46923079Y-33619509D01*
X46917388Y-33638268D01*
X46908147Y-33655557D01*
X46895711Y-33670711D01*
X46880557Y-33683147D01*
X46863268Y-33692388D01*
X46844509Y-33698079D01*
X46825000Y-33700000D01*
X46625000Y-33700000D01*
X46605491Y-33698079D01*
X46586732Y-33692388D01*
X46569443Y-33683147D01*
X46554289Y-33670711D01*
X46541853Y-33655557D01*
X46532612Y-33638268D01*
X46526921Y-33619509D01*
X46525000Y-33600000D01*
X46525000Y-32200000D01*
X46526921Y-32180491D01*
X46532612Y-32161732D01*
X46541853Y-32144443D01*
X46554289Y-32129289D01*
X46569443Y-32116853D01*
X46586732Y-32107612D01*
X46605491Y-32101921D01*
X46625000Y-32100000D01*
X46825000Y-32100000D01*
X46844509Y-32101921D01*
G37*
G36*
X47694509Y-30301921D02*
G01*
X47713268Y-30307612D01*
X47730557Y-30316853D01*
X47745711Y-30329289D01*
X47758147Y-30344443D01*
X47767388Y-30361732D01*
X47773079Y-30380491D01*
X47775000Y-30400000D01*
X47775000Y-31800000D01*
X47773079Y-31819509D01*
X47767388Y-31838268D01*
X47758147Y-31855557D01*
X47745711Y-31870711D01*
X47730557Y-31883147D01*
X47713268Y-31892388D01*
X47694509Y-31898079D01*
X47675000Y-31900000D01*
X47475000Y-31900000D01*
X47455491Y-31898079D01*
X47436732Y-31892388D01*
X47419443Y-31883147D01*
X47404289Y-31870711D01*
X47391853Y-31855557D01*
X47382612Y-31838268D01*
X47376921Y-31819509D01*
X47375000Y-31800000D01*
X47375000Y-30400000D01*
X47376921Y-30380491D01*
X47382612Y-30361732D01*
X47391853Y-30344443D01*
X47404289Y-30329289D01*
X47419443Y-30316853D01*
X47436732Y-30307612D01*
X47455491Y-30301921D01*
X47475000Y-30300000D01*
X47675000Y-30300000D01*
X47694509Y-30301921D01*
G37*
G36*
X47694509Y-32101921D02*
G01*
X47713268Y-32107612D01*
X47730557Y-32116853D01*
X47745711Y-32129289D01*
X47758147Y-32144443D01*
X47767388Y-32161732D01*
X47773079Y-32180491D01*
X47775000Y-32200000D01*
X47775000Y-33600000D01*
X47773079Y-33619509D01*
X47767388Y-33638268D01*
X47758147Y-33655557D01*
X47745711Y-33670711D01*
X47730557Y-33683147D01*
X47713268Y-33692388D01*
X47694509Y-33698079D01*
X47675000Y-33700000D01*
X47475000Y-33700000D01*
X47455491Y-33698079D01*
X47436732Y-33692388D01*
X47419443Y-33683147D01*
X47404289Y-33670711D01*
X47391853Y-33655557D01*
X47382612Y-33638268D01*
X47376921Y-33619509D01*
X47375000Y-33600000D01*
X47375000Y-32200000D01*
X47376921Y-32180491D01*
X47382612Y-32161732D01*
X47391853Y-32144443D01*
X47404289Y-32129289D01*
X47419443Y-32116853D01*
X47436732Y-32107612D01*
X47455491Y-32101921D01*
X47475000Y-32100000D01*
X47675000Y-32100000D01*
X47694509Y-32101921D01*
G37*
G36*
X48544509Y-30301921D02*
G01*
X48563268Y-30307612D01*
X48580557Y-30316853D01*
X48595711Y-30329289D01*
X48608147Y-30344443D01*
X48617388Y-30361732D01*
X48623079Y-30380491D01*
X48625000Y-30400000D01*
X48625000Y-31800000D01*
X48623079Y-31819509D01*
X48617388Y-31838268D01*
X48608147Y-31855557D01*
X48595711Y-31870711D01*
X48580557Y-31883147D01*
X48563268Y-31892388D01*
X48544509Y-31898079D01*
X48525000Y-31900000D01*
X48325000Y-31900000D01*
X48305491Y-31898079D01*
X48286732Y-31892388D01*
X48269443Y-31883147D01*
X48254289Y-31870711D01*
X48241853Y-31855557D01*
X48232612Y-31838268D01*
X48226921Y-31819509D01*
X48225000Y-31800000D01*
X48225000Y-30400000D01*
X48226921Y-30380491D01*
X48232612Y-30361732D01*
X48241853Y-30344443D01*
X48254289Y-30329289D01*
X48269443Y-30316853D01*
X48286732Y-30307612D01*
X48305491Y-30301921D01*
X48325000Y-30300000D01*
X48525000Y-30300000D01*
X48544509Y-30301921D01*
G37*
G36*
X48544509Y-32101921D02*
G01*
X48563268Y-32107612D01*
X48580557Y-32116853D01*
X48595711Y-32129289D01*
X48608147Y-32144443D01*
X48617388Y-32161732D01*
X48623079Y-32180491D01*
X48625000Y-32200000D01*
X48625000Y-33600000D01*
X48623079Y-33619509D01*
X48617388Y-33638268D01*
X48608147Y-33655557D01*
X48595711Y-33670711D01*
X48580557Y-33683147D01*
X48563268Y-33692388D01*
X48544509Y-33698079D01*
X48525000Y-33700000D01*
X48325000Y-33700000D01*
X48305491Y-33698079D01*
X48286732Y-33692388D01*
X48269443Y-33683147D01*
X48254289Y-33670711D01*
X48241853Y-33655557D01*
X48232612Y-33638268D01*
X48226921Y-33619509D01*
X48225000Y-33600000D01*
X48225000Y-32200000D01*
X48226921Y-32180491D01*
X48232612Y-32161732D01*
X48241853Y-32144443D01*
X48254289Y-32129289D01*
X48269443Y-32116853D01*
X48286732Y-32107612D01*
X48305491Y-32101921D01*
X48325000Y-32100000D01*
X48525000Y-32100000D01*
X48544509Y-32101921D01*
G37*
G36*
X49394509Y-30301921D02*
G01*
X49413268Y-30307612D01*
X49430557Y-30316853D01*
X49445711Y-30329289D01*
X49458147Y-30344443D01*
X49467388Y-30361732D01*
X49473079Y-30380491D01*
X49475000Y-30400000D01*
X49475000Y-31800000D01*
X49473079Y-31819509D01*
X49467388Y-31838268D01*
X49458147Y-31855557D01*
X49445711Y-31870711D01*
X49430557Y-31883147D01*
X49413268Y-31892388D01*
X49394509Y-31898079D01*
X49375000Y-31900000D01*
X49175000Y-31900000D01*
X49155491Y-31898079D01*
X49136732Y-31892388D01*
X49119443Y-31883147D01*
X49104289Y-31870711D01*
X49091853Y-31855557D01*
X49082612Y-31838268D01*
X49076921Y-31819509D01*
X49075000Y-31800000D01*
X49075000Y-30400000D01*
X49076921Y-30380491D01*
X49082612Y-30361732D01*
X49091853Y-30344443D01*
X49104289Y-30329289D01*
X49119443Y-30316853D01*
X49136732Y-30307612D01*
X49155491Y-30301921D01*
X49175000Y-30300000D01*
X49375000Y-30300000D01*
X49394509Y-30301921D01*
G37*
G36*
X49394509Y-32101921D02*
G01*
X49413268Y-32107612D01*
X49430557Y-32116853D01*
X49445711Y-32129289D01*
X49458147Y-32144443D01*
X49467388Y-32161732D01*
X49473079Y-32180491D01*
X49475000Y-32200000D01*
X49475000Y-33600000D01*
X49473079Y-33619509D01*
X49467388Y-33638268D01*
X49458147Y-33655557D01*
X49445711Y-33670711D01*
X49430557Y-33683147D01*
X49413268Y-33692388D01*
X49394509Y-33698079D01*
X49375000Y-33700000D01*
X49175000Y-33700000D01*
X49155491Y-33698079D01*
X49136732Y-33692388D01*
X49119443Y-33683147D01*
X49104289Y-33670711D01*
X49091853Y-33655557D01*
X49082612Y-33638268D01*
X49076921Y-33619509D01*
X49075000Y-33600000D01*
X49075000Y-32200000D01*
X49076921Y-32180491D01*
X49082612Y-32161732D01*
X49091853Y-32144443D01*
X49104289Y-32129289D01*
X49119443Y-32116853D01*
X49136732Y-32107612D01*
X49155491Y-32101921D01*
X49175000Y-32100000D01*
X49375000Y-32100000D01*
X49394509Y-32101921D01*
G37*
G36*
X50272765Y-30302094D02*
G01*
X50293212Y-30308297D01*
X50312057Y-30318370D01*
X50328575Y-30331925D01*
X50342130Y-30348443D01*
X50352203Y-30367288D01*
X50358406Y-30387735D01*
X50360500Y-30409000D01*
X50360500Y-31791000D01*
X50358406Y-31812265D01*
X50352203Y-31832712D01*
X50342130Y-31851557D01*
X50328575Y-31868075D01*
X50312057Y-31881630D01*
X50293212Y-31891703D01*
X50272765Y-31897906D01*
X50251500Y-31900000D01*
X50034500Y-31900000D01*
X50013235Y-31897906D01*
X49992788Y-31891703D01*
X49973943Y-31881630D01*
X49957425Y-31868075D01*
X49943870Y-31851557D01*
X49933797Y-31832712D01*
X49927594Y-31812265D01*
X49925500Y-31791000D01*
X49925500Y-30409000D01*
X49927594Y-30387735D01*
X49933797Y-30367288D01*
X49943870Y-30348443D01*
X49957425Y-30331925D01*
X49973943Y-30318370D01*
X49992788Y-30308297D01*
X50013235Y-30302094D01*
X50034500Y-30300000D01*
X50251500Y-30300000D01*
X50272765Y-30302094D01*
G37*
G36*
X50272765Y-32102094D02*
G01*
X50293212Y-32108297D01*
X50312057Y-32118370D01*
X50328575Y-32131925D01*
X50342130Y-32148443D01*
X50352203Y-32167288D01*
X50358406Y-32187735D01*
X50360500Y-32209000D01*
X50360500Y-33591000D01*
X50358406Y-33612265D01*
X50352203Y-33632712D01*
X50342130Y-33651557D01*
X50328575Y-33668075D01*
X50312057Y-33681630D01*
X50293212Y-33691703D01*
X50272765Y-33697906D01*
X50251500Y-33700000D01*
X50034500Y-33700000D01*
X50013235Y-33697906D01*
X49992788Y-33691703D01*
X49973943Y-33681630D01*
X49957425Y-33668075D01*
X49943870Y-33651557D01*
X49933797Y-33632712D01*
X49927594Y-33612265D01*
X49925500Y-33591000D01*
X49925500Y-32209000D01*
X49927594Y-32187735D01*
X49933797Y-32167288D01*
X49943870Y-32148443D01*
X49957425Y-32131925D01*
X49973943Y-32118370D01*
X49992788Y-32108297D01*
X50013235Y-32102094D01*
X50034500Y-32100000D01*
X50251500Y-32100000D01*
X50272765Y-32102094D01*
G37*
G36*
X50741705Y-30801153D02*
G01*
X50752961Y-30804567D01*
X50763334Y-30810112D01*
X50772426Y-30817574D01*
X50779888Y-30826666D01*
X50785433Y-30837039D01*
X50788847Y-30848295D01*
X50790000Y-30860000D01*
X50790000Y-31190000D01*
X50788847Y-31201705D01*
X50785433Y-31212961D01*
X50779888Y-31223334D01*
X50772426Y-31232426D01*
X50763334Y-31239888D01*
X50752961Y-31245433D01*
X50741705Y-31248847D01*
X50730000Y-31250000D01*
X50600000Y-31250000D01*
X50588295Y-31248847D01*
X50577039Y-31245433D01*
X50566666Y-31239888D01*
X50557574Y-31232426D01*
X50550112Y-31223334D01*
X50544567Y-31212961D01*
X50541153Y-31201705D01*
X50540000Y-31190000D01*
X50540000Y-30860000D01*
X50541153Y-30848295D01*
X50544567Y-30837039D01*
X50550112Y-30826666D01*
X50557574Y-30817574D01*
X50566666Y-30810112D01*
X50577039Y-30804567D01*
X50588295Y-30801153D01*
X50600000Y-30800000D01*
X50730000Y-30800000D01*
X50741705Y-30801153D01*
G37*
G36*
X50741705Y-31451153D02*
G01*
X50752961Y-31454567D01*
X50763334Y-31460112D01*
X50772426Y-31467574D01*
X50779888Y-31476666D01*
X50785433Y-31487039D01*
X50788847Y-31498295D01*
X50790000Y-31510000D01*
X50790000Y-31840000D01*
X50788847Y-31851705D01*
X50785433Y-31862961D01*
X50779888Y-31873334D01*
X50772426Y-31882426D01*
X50763334Y-31889888D01*
X50752961Y-31895433D01*
X50741705Y-31898847D01*
X50730000Y-31900000D01*
X50600000Y-31900000D01*
X50588295Y-31898847D01*
X50577039Y-31895433D01*
X50566666Y-31889888D01*
X50557574Y-31882426D01*
X50550112Y-31873334D01*
X50544567Y-31862961D01*
X50541153Y-31851705D01*
X50540000Y-31840000D01*
X50540000Y-31510000D01*
X50541153Y-31498295D01*
X50544567Y-31487039D01*
X50550112Y-31476666D01*
X50557574Y-31467574D01*
X50566666Y-31460112D01*
X50577039Y-31454567D01*
X50588295Y-31451153D01*
X50600000Y-31450000D01*
X50730000Y-31450000D01*
X50741705Y-31451153D01*
G37*
G36*
X50741705Y-32101153D02*
G01*
X50752961Y-32104567D01*
X50763334Y-32110112D01*
X50772426Y-32117574D01*
X50779888Y-32126666D01*
X50785433Y-32137039D01*
X50788847Y-32148295D01*
X50790000Y-32160000D01*
X50790000Y-32490000D01*
X50788847Y-32501705D01*
X50785433Y-32512961D01*
X50779888Y-32523334D01*
X50772426Y-32532426D01*
X50763334Y-32539888D01*
X50752961Y-32545433D01*
X50741705Y-32548847D01*
X50730000Y-32550000D01*
X50600000Y-32550000D01*
X50588295Y-32548847D01*
X50577039Y-32545433D01*
X50566666Y-32539888D01*
X50557574Y-32532426D01*
X50550112Y-32523334D01*
X50544567Y-32512961D01*
X50541153Y-32501705D01*
X50540000Y-32490000D01*
X50540000Y-32160000D01*
X50541153Y-32148295D01*
X50544567Y-32137039D01*
X50550112Y-32126666D01*
X50557574Y-32117574D01*
X50566666Y-32110112D01*
X50577039Y-32104567D01*
X50588295Y-32101153D01*
X50600000Y-32100000D01*
X50730000Y-32100000D01*
X50741705Y-32101153D01*
G37*
G36*
X50741705Y-32751153D02*
G01*
X50752961Y-32754567D01*
X50763334Y-32760112D01*
X50772426Y-32767574D01*
X50779888Y-32776666D01*
X50785433Y-32787039D01*
X50788847Y-32798295D01*
X50790000Y-32810000D01*
X50790000Y-33140000D01*
X50788847Y-33151705D01*
X50785433Y-33162961D01*
X50779888Y-33173334D01*
X50772426Y-33182426D01*
X50763334Y-33189888D01*
X50752961Y-33195433D01*
X50741705Y-33198847D01*
X50730000Y-33200000D01*
X50600000Y-33200000D01*
X50588295Y-33198847D01*
X50577039Y-33195433D01*
X50566666Y-33189888D01*
X50557574Y-33182426D01*
X50550112Y-33173334D01*
X50544567Y-33162961D01*
X50541153Y-33151705D01*
X50540000Y-33140000D01*
X50540000Y-32810000D01*
X50541153Y-32798295D01*
X50544567Y-32787039D01*
X50550112Y-32776666D01*
X50557574Y-32767574D01*
X50566666Y-32760112D01*
X50577039Y-32754567D01*
X50588295Y-32751153D01*
X50600000Y-32750000D01*
X50730000Y-32750000D01*
X50741705Y-32751153D01*
G37*
%TD*%
D10*
%TO.C,C14*%
X35000000Y-45450000D03*
X35000000Y-43550000D03*
%TD*%
D11*
%TO.C,D1*%
X36600000Y-24000000D03*
X39400000Y-24000000D03*
%TD*%
D10*
%TO.C,C21*%
X46950000Y-26950000D03*
X46950000Y-25050000D03*
%TD*%
D12*
%TO.C,U1*%
X35250000Y-34525000D03*
X35250000Y-35475000D03*
D13*
X36975000Y-34525000D03*
X36975000Y-35475000D03*
D14*
X34100000Y-34000000D03*
X34100000Y-34500000D03*
X34100000Y-35000000D03*
X34100000Y-35500000D03*
X34100000Y-36000000D03*
D15*
X34750000Y-36400000D03*
X35250000Y-36400000D03*
X35750000Y-36400000D03*
X36750000Y-36400000D03*
X37250000Y-36400000D03*
D14*
X37900000Y-36000000D03*
X37900000Y-35500000D03*
X37900000Y-35000000D03*
X37900000Y-34500000D03*
X37900000Y-34000000D03*
D15*
X37250000Y-33600000D03*
X35750000Y-33600000D03*
X35250000Y-33600000D03*
X34750000Y-33600000D03*
%TD*%
D10*
%TO.C,C24*%
X53250000Y-26950000D03*
X53250000Y-25050000D03*
%TD*%
%TO.C,C22*%
X49050000Y-26950000D03*
X49050000Y-25050000D03*
%TD*%
%TO.C,C11*%
X44850000Y-44950000D03*
X44850000Y-43050000D03*
%TD*%
D16*
%TO.C,RB1*%
X35000000Y-28325000D03*
X35000000Y-26675000D03*
%TD*%
D17*
%TO.C,RGH2*%
X61190000Y-30770000D03*
X62210000Y-30770000D03*
%TD*%
%TO.C,RGH1*%
X43190000Y-30770000D03*
X44210000Y-30770000D03*
%TD*%
D10*
%TO.C,C2*%
X62850000Y-26950000D03*
X62850000Y-25050000D03*
%TD*%
D18*
%TO.C,C16*%
X35000000Y-40275000D03*
X35000000Y-38725000D03*
%TD*%
D10*
%TO.C,C5*%
X69150000Y-26950000D03*
X69150000Y-25050000D03*
%TD*%
%TO.C,C20*%
X44850000Y-26950000D03*
X44850000Y-25050000D03*
%TD*%
D17*
%TO.C,RGL2*%
X61190000Y-36770000D03*
X62210000Y-36770000D03*
%TD*%
D19*
%TO.C,RH1*%
X27000000Y-21510000D03*
X27000000Y-20490000D03*
%TD*%
D10*
%TO.C,C23*%
X51150000Y-26950000D03*
X51150000Y-25050000D03*
%TD*%
%TO.C,C30*%
X60750000Y-44950000D03*
X60750000Y-43050000D03*
%TD*%
%TO.C,C3*%
X64950000Y-26950000D03*
X64950000Y-25050000D03*
%TD*%
%TO.C,C4*%
X67050000Y-26950000D03*
X67050000Y-25050000D03*
%TD*%
%TO.C,C10*%
X46950000Y-44950000D03*
X46950000Y-43050000D03*
%TD*%
%TO.C,C19*%
X42750000Y-26950000D03*
X42750000Y-25050000D03*
%TD*%
%TO.C,C26*%
X69150000Y-44950000D03*
X69150000Y-43050000D03*
%TD*%
D20*
%TO.C,C18*%
X35225000Y-31300000D03*
X36775000Y-31300000D03*
%TD*%
D10*
%TO.C,C15*%
X38000000Y-45450000D03*
X38000000Y-43550000D03*
%TD*%
D19*
%TO.C,RL1*%
X30000000Y-21510000D03*
X30000000Y-20490000D03*
%TD*%
D17*
%TO.C,RGL1*%
X43190000Y-36770000D03*
X44210000Y-36770000D03*
%TD*%
D20*
%TO.C,C13*%
X29225000Y-24000000D03*
X30775000Y-24000000D03*
%TD*%
D10*
%TO.C,C1*%
X60750000Y-26950000D03*
X60750000Y-25050000D03*
%TD*%
%TO.C,C28*%
X64950000Y-44950000D03*
X64950000Y-43050000D03*
%TD*%
%TO.C,C8*%
X51150000Y-44950000D03*
X51150000Y-43050000D03*
%TD*%
%TO.C,C9*%
X49050000Y-44950000D03*
X49050000Y-43050000D03*
%TD*%
%TO.C,C25*%
X71250000Y-44950000D03*
X71250000Y-43050000D03*
%TD*%
%TO.C,C29*%
X62850000Y-44950000D03*
X62850000Y-43050000D03*
%TD*%
%TO.C,C27*%
X67050000Y-44950000D03*
X67050000Y-43050000D03*
%TD*%
%TO.C,C12*%
X42750000Y-44950000D03*
X42750000Y-43050000D03*
%TD*%
%TO.C,C6*%
X71250000Y-26950000D03*
X71250000Y-25050000D03*
%TD*%
D18*
%TO.C,C17*%
X38000000Y-28575000D03*
X38000000Y-27025000D03*
%TD*%
D10*
%TO.C,C7*%
X53250000Y-44950000D03*
X53250000Y-43050000D03*
%TD*%
M02*
