ISO-10303-21;
HEADER;
FILE_DESCRIPTION(('EPC2361'),'2;1');
FILE_NAME('EPC2361.step','2026-10-09T00:00:00',('KTH'),('KTH'),'spb_fab','spb_fab','');
FILE_SCHEMA(('AUTOMOTIVE_DESIGN { 1 0 10303 214 1 1 1 1 }'));
ENDSEC;
DATA;
#1 = APPLICATION_CONTEXT('core data for automotive mechanical design processes');
#2 = APPLICATION_PROTOCOL_DEFINITION('international standard','automotive_design',2000,#1);
#3 = PRODUCT_CONTEXT('',#1,'mechanical');
#4 = PRODUCT('EPC2361','EPC2361','',(#3));
#5 = PRODUCT_RELATED_PRODUCT_CATEGORY('part',$,(#4));
#6 = PRODUCT_DEFINITION_FORMATION('','',#4);
#7 = PRODUCT_DEFINITION_CONTEXT('part definition',#1,'design');
#8 = PRODUCT_DEFINITION('design','',#6,#7);
#9 = PRODUCT_DEFINITION_SHAPE('','',#8);
#10 = ( LENGTH_UNIT() NAMED_UNIT(*) SI_UNIT(.MILLI.,.METRE.) );
#11 = ( NAMED_UNIT(*) PLANE_ANGLE_UNIT() SI_UNIT($,.RADIAN.) );
#12 = ( NAMED_UNIT(*) SI_UNIT($,.STERADIAN.) SOLID_ANGLE_UNIT() );
#13 = UNCERTAINTY_MEASURE_WITH_UNIT(LENGTH_MEASURE(1.E-07),#10,'distance_accuracy_value','confusion accuracy');
#14 = ( GEOMETRIC_REPRESENTATION_CONTEXT(3) GLOBAL_UNCERTAINTY_ASSIGNED_CONTEXT((#13)) GLOBAL_UNIT_ASSIGNED_CONTEXT((#10,#11,#12)) REPRESENTATION_CONTEXT('Context #1','3D Context') );
#15 = CARTESIAN_POINT('',(0.,0.,0.));
#16 = DIRECTION('',(0.,0.,1.));
#17 = DIRECTION('',(1.,0.,0.));
#18 = AXIS2_PLACEMENT_3D('',#15,#16,#17);
#19 = CARTESIAN_POINT('',(-2.500000,-1.500000,0.000000));
#20 = CARTESIAN_POINT('',(2.500000,-1.500000,0.000000));
#21 = CARTESIAN_POINT('',(2.500000,1.500000,0.000000));
#22 = CARTESIAN_POINT('',(-2.500000,1.500000,0.000000));
#23 = CARTESIAN_POINT('',(-2.500000,-1.500000,0.600000));
#24 = CARTESIAN_POINT('',(2.500000,-1.500000,0.600000));
#25 = CARTESIAN_POINT('',(2.500000,1.500000,0.600000));
#26 = CARTESIAN_POINT('',(-2.500000,1.500000,0.600000));
#27 = VERTEX_POINT('',#19);
#28 = VERTEX_POINT('',#20);
#29 = VERTEX_POINT('',#21);
#30 = VERTEX_POINT('',#22);
#31 = VERTEX_POINT('',#23);
#32 = VERTEX_POINT('',#24);
#33 = VERTEX_POINT('',#25);
#34 = VERTEX_POINT('',#26);
#35 = DIRECTION('',(0.000000,1.000000,0.000000));
#36 = VECTOR('',#35,3.000000);
#37 = LINE('',#19,#36);
#38 = EDGE_CURVE('',#27,#30,#37,.T.);
#39 = ORIENTED_EDGE('',*,*,#38,.T.);
#40 = DIRECTION('',(-1.000000,0.000000,0.000000));
#41 = VECTOR('',#40,5.000000);
#42 = LINE('',#21,#41);
#43 = EDGE_CURVE('',#29,#30,#42,.T.);
#44 = ORIENTED_EDGE('',*,*,#43,.F.);
#45 = DIRECTION('',(0.000000,1.000000,0.000000));
#46 = VECTOR('',#45,3.000000);
#47 = LINE('',#20,#46);
#48 = EDGE_CURVE('',#28,#29,#47,.T.);
#49 = ORIENTED_EDGE('',*,*,#48,.F.);
#50 = DIRECTION('',(1.000000,0.000000,0.000000));
#51 = VECTOR('',#50,5.000000);
#52 = LINE('',#19,#51);
#53 = EDGE_CURVE('',#27,#28,#52,.T.);
#54 = ORIENTED_EDGE('',*,*,#53,.F.);
#55 = EDGE_LOOP('',(#39,#44,#49,#54));
#56 = FACE_OUTER_BOUND('',#55,.T.);
#57 = DIRECTION('',(0.000000,0.000000,-1.000000));
#58 = DIRECTION('',(0.000000,1.000000,0.000000));
#59 = AXIS2_PLACEMENT_3D('',#19,#57,#58);
#60 = PLANE('',#59);
#61 = ADVANCED_FACE('',(#56),#60,.T.);
#62 = DIRECTION('',(1.000000,0.000000,0.000000));
#63 = VECTOR('',#62,5.000000);
#64 = LINE('',#23,#63);
#65 = EDGE_CURVE('',#31,#32,#64,.T.);
#66 = ORIENTED_EDGE('',*,*,#65,.T.);
#67 = DIRECTION('',(0.000000,1.000000,0.000000));
#68 = VECTOR('',#67,3.000000);
#69 = LINE('',#24,#68);
#70 = EDGE_CURVE('',#32,#33,#69,.T.);
#71 = ORIENTED_EDGE('',*,*,#70,.T.);
#72 = DIRECTION('',(-1.000000,0.000000,0.000000));
#73 = VECTOR('',#72,5.000000);
#74 = LINE('',#25,#73);
#75 = EDGE_CURVE('',#33,#34,#74,.T.);
#76 = ORIENTED_EDGE('',*,*,#75,.T.);
#77 = DIRECTION('',(0.000000,1.000000,0.000000));
#78 = VECTOR('',#77,3.000000);
#79 = LINE('',#23,#78);
#80 = EDGE_CURVE('',#31,#34,#79,.T.);
#81 = ORIENTED_EDGE('',*,*,#80,.F.);
#82 = EDGE_LOOP('',(#66,#71,#76,#81));
#83 = FACE_OUTER_BOUND('',#82,.T.);
#84 = DIRECTION('',(0.000000,0.000000,1.000000));
#85 = DIRECTION('',(1.000000,0.000000,0.000000));
#86 = AXIS2_PLACEMENT_3D('',#23,#84,#85);
#87 = PLANE('',#86);
#88 = ADVANCED_FACE('',(#83),#87,.T.);
#89 = ORIENTED_EDGE('',*,*,#53,.T.);
#90 = DIRECTION('',(0.000000,0.000000,1.000000));
#91 = VECTOR('',#90,0.600000);
#92 = LINE('',#20,#91);
#93 = EDGE_CURVE('',#28,#32,#92,.T.);
#94 = ORIENTED_EDGE('',*,*,#93,.T.);
#95 = ORIENTED_EDGE('',*,*,#65,.F.);
#96 = DIRECTION('',(0.000000,0.000000,1.000000));
#97 = VECTOR('',#96,0.600000);
#98 = LINE('',#19,#97);
#99 = EDGE_CURVE('',#27,#31,#98,.T.);
#100 = ORIENTED_EDGE('',*,*,#99,.F.);
#101 = EDGE_LOOP('',(#89,#94,#95,#100));
#102 = FACE_OUTER_BOUND('',#101,.T.);
#103 = DIRECTION('',(0.000000,-1.000000,0.000000));
#104 = DIRECTION('',(1.000000,0.000000,0.000000));
#105 = AXIS2_PLACEMENT_3D('',#19,#103,#104);
#106 = PLANE('',#105);
#107 = ADVANCED_FACE('',(#102),#106,.T.);
#108 = ORIENTED_EDGE('',*,*,#48,.T.);
#109 = DIRECTION('',(0.000000,0.000000,1.000000));
#110 = VECTOR('',#109,0.600000);
#111 = LINE('',#21,#110);
#112 = EDGE_CURVE('',#29,#33,#111,.T.);
#113 = ORIENTED_EDGE('',*,*,#112,.T.);
#114 = ORIENTED_EDGE('',*,*,#70,.F.);
#115 = ORIENTED_EDGE('',*,*,#93,.F.);
#116 = EDGE_LOOP('',(#108,#113,#114,#115));
#117 = FACE_OUTER_BOUND('',#116,.T.);
#118 = DIRECTION('',(1.000000,0.000000,0.000000));
#119 = DIRECTION('',(0.000000,1.000000,0.000000));
#120 = AXIS2_PLACEMENT_3D('',#20,#118,#119);
#121 = PLANE('',#120);
#122 = ADVANCED_FACE('',(#117),#121,.T.);
#123 = ORIENTED_EDGE('',*,*,#43,.T.);
#124 = DIRECTION('',(0.000000,0.000000,1.000000));
#125 = VECTOR('',#124,0.600000);
#126 = LINE('',#22,#125);
#127 = EDGE_CURVE('',#30,#34,#126,.T.);
#128 = ORIENTED_EDGE('',*,*,#127,.T.);
#129 = ORIENTED_EDGE('',*,*,#75,.F.);
#130 = ORIENTED_EDGE('',*,*,#112,.F.);
#131 = EDGE_LOOP('',(#123,#128,#129,#130));
#132 = FACE_OUTER_BOUND('',#131,.T.);
#133 = DIRECTION('',(0.000000,1.000000,0.000000));
#134 = DIRECTION('',(-1.000000,0.000000,0.000000));
#135 = AXIS2_PLACEMENT_3D('',#21,#133,#134);
#136 = PLANE('',#135);
#137 = ADVANCED_FACE('',(#132),#136,.T.);
#138 = ORIENTED_EDGE('',*,*,#38,.F.);
#139 = ORIENTED_EDGE('',*,*,#99,.T.);
#140 = ORIENTED_EDGE('',*,*,#80,.T.);
#141 = ORIENTED_EDGE('',*,*,#127,.F.);
#142 = EDGE_LOOP('',(#138,#139,#140,#141));
#143 = FACE_OUTER_BOUND('',#142,.T.);
#144 = DIRECTION('',(-1.000000,0.000000,0.000000));
#145 = DIRECTION('',(0.000000,-1.000000,0.000000));
#146 = AXIS2_PLACEMENT_3D('',#22,#144,#145);
#147 = PLANE('',#146);
#148 = ADVANCED_FACE('',(#143),#147,.T.);
#149 = CLOSED_SHELL('',(#61,#88,#107,#122,#137,#148));
#150 = MANIFOLD_SOLID_BREP('EPC2361_0',#149);
#151 = COLOUR_RGB('',0.100000,0.100000,0.110000);
#152 = FILL_AREA_STYLE_COLOUR('',#151);
#153 = FILL_AREA_STYLE('',(#152));
#154 = SURFACE_STYLE_FILL_AREA(#153);
#155 = SURFACE_SIDE_STYLE('',(#154));
#156 = SURFACE_STYLE_USAGE(.BOTH.,#155);
#157 = PRESENTATION_STYLE_ASSIGNMENT((#156));
#158 = STYLED_ITEM('color',(#157),#150);
#159 = CARTESIAN_POINT('',(-2.400000,-1.400000,0.600000));
#160 = CARTESIAN_POINT('',(2.400000,-1.400000,0.600000));
#161 = CARTESIAN_POINT('',(2.400000,1.400000,0.600000));
#162 = CARTESIAN_POINT('',(-2.400000,1.400000,0.600000));
#163 = CARTESIAN_POINT('',(-2.400000,-1.400000,0.680000));
#164 = CARTESIAN_POINT('',(2.400000,-1.400000,0.680000));
#165 = CARTESIAN_POINT('',(2.400000,1.400000,0.680000));
#166 = CARTESIAN_POINT('',(-2.400000,1.400000,0.680000));
#167 = VERTEX_POINT('',#159);
#168 = VERTEX_POINT('',#160);
#169 = VERTEX_POINT('',#161);
#170 = VERTEX_POINT('',#162);
#171 = VERTEX_POINT('',#163);
#172 = VERTEX_POINT('',#164);
#173 = VERTEX_POINT('',#165);
#174 = VERTEX_POINT('',#166);
#175 = DIRECTION('',(0.000000,1.000000,0.000000));
#176 = VECTOR('',#175,2.800000);
#177 = LINE('',#159,#176);
#178 = EDGE_CURVE('',#167,#170,#177,.T.);
#179 = ORIENTED_EDGE('',*,*,#178,.T.);
#180 = DIRECTION('',(-1.000000,0.000000,0.000000));
#181 = VECTOR('',#180,4.800000);
#182 = LINE('',#161,#181);
#183 = EDGE_CURVE('',#169,#170,#182,.T.);
#184 = ORIENTED_EDGE('',*,*,#183,.F.);
#185 = DIRECTION('',(0.000000,1.000000,0.000000));
#186 = VECTOR('',#185,2.800000);
#187 = LINE('',#160,#186);
#188 = EDGE_CURVE('',#168,#169,#187,.T.);
#189 = ORIENTED_EDGE('',*,*,#188,.F.);
#190 = DIRECTION('',(1.000000,0.000000,0.000000));
#191 = VECTOR('',#190,4.800000);
#192 = LINE('',#159,#191);
#193 = EDGE_CURVE('',#167,#168,#192,.T.);
#194 = ORIENTED_EDGE('',*,*,#193,.F.);
#195 = EDGE_LOOP('',(#179,#184,#189,#194));
#196 = FACE_OUTER_BOUND('',#195,.T.);
#197 = DIRECTION('',(0.000000,0.000000,-1.000000));
#198 = DIRECTION('',(0.000000,1.000000,0.000000));
#199 = AXIS2_PLACEMENT_3D('',#159,#197,#198);
#200 = PLANE('',#199);
#201 = ADVANCED_FACE('',(#196),#200,.T.);
#202 = DIRECTION('',(1.000000,0.000000,0.000000));
#203 = VECTOR('',#202,4.800000);
#204 = LINE('',#163,#203);
#205 = EDGE_CURVE('',#171,#172,#204,.T.);
#206 = ORIENTED_EDGE('',*,*,#205,.T.);
#207 = DIRECTION('',(0.000000,1.000000,0.000000));
#208 = VECTOR('',#207,2.800000);
#209 = LINE('',#164,#208);
#210 = EDGE_CURVE('',#172,#173,#209,.T.);
#211 = ORIENTED_EDGE('',*,*,#210,.T.);
#212 = DIRECTION('',(-1.000000,0.000000,0.000000));
#213 = VECTOR('',#212,4.800000);
#214 = LINE('',#165,#213);
#215 = EDGE_CURVE('',#173,#174,#214,.T.);
#216 = ORIENTED_EDGE('',*,*,#215,.T.);
#217 = DIRECTION('',(0.000000,1.000000,0.000000));
#218 = VECTOR('',#217,2.800000);
#219 = LINE('',#163,#218);
#220 = EDGE_CURVE('',#171,#174,#219,.T.);
#221 = ORIENTED_EDGE('',*,*,#220,.F.);
#222 = EDGE_LOOP('',(#206,#211,#216,#221));
#223 = FACE_OUTER_BOUND('',#222,.T.);
#224 = DIRECTION('',(0.000000,0.000000,1.000000));
#225 = DIRECTION('',(1.000000,0.000000,0.000000));
#226 = AXIS2_PLACEMENT_3D('',#163,#224,#225);
#227 = PLANE('',#226);
#228 = ADVANCED_FACE('',(#223),#227,.T.);
#229 = ORIENTED_EDGE('',*,*,#193,.T.);
#230 = DIRECTION('',(0.000000,0.000000,1.000000));
#231 = VECTOR('',#230,0.080000);
#232 = LINE('',#160,#231);
#233 = EDGE_CURVE('',#168,#172,#232,.T.);
#234 = ORIENTED_EDGE('',*,*,#233,.T.);
#235 = ORIENTED_EDGE('',*,*,#205,.F.);
#236 = DIRECTION('',(0.000000,0.000000,1.000000));
#237 = VECTOR('',#236,0.080000);
#238 = LINE('',#159,#237);
#239 = EDGE_CURVE('',#167,#171,#238,.T.);
#240 = ORIENTED_EDGE('',*,*,#239,.F.);
#241 = EDGE_LOOP('',(#229,#234,#235,#240));
#242 = FACE_OUTER_BOUND('',#241,.T.);
#243 = DIRECTION('',(0.000000,-1.000000,0.000000));
#244 = DIRECTION('',(1.000000,0.000000,0.000000));
#245 = AXIS2_PLACEMENT_3D('',#159,#243,#244);
#246 = PLANE('',#245);
#247 = ADVANCED_FACE('',(#242),#246,.T.);
#248 = ORIENTED_EDGE('',*,*,#188,.T.);
#249 = DIRECTION('',(0.000000,0.000000,1.000000));
#250 = VECTOR('',#249,0.080000);
#251 = LINE('',#161,#250);
#252 = EDGE_CURVE('',#169,#173,#251,.T.);
#253 = ORIENTED_EDGE('',*,*,#252,.T.);
#254 = ORIENTED_EDGE('',*,*,#210,.F.);
#255 = ORIENTED_EDGE('',*,*,#233,.F.);
#256 = EDGE_LOOP('',(#248,#253,#254,#255));
#257 = FACE_OUTER_BOUND('',#256,.T.);
#258 = DIRECTION('',(1.000000,0.000000,0.000000));
#259 = DIRECTION('',(0.000000,1.000000,0.000000));
#260 = AXIS2_PLACEMENT_3D('',#160,#258,#259);
#261 = PLANE('',#260);
#262 = ADVANCED_FACE('',(#257),#261,.T.);
#263 = ORIENTED_EDGE('',*,*,#183,.T.);
#264 = DIRECTION('',(0.000000,0.000000,1.000000));
#265 = VECTOR('',#264,0.080000);
#266 = LINE('',#162,#265);
#267 = EDGE_CURVE('',#170,#174,#266,.T.);
#268 = ORIENTED_EDGE('',*,*,#267,.T.);
#269 = ORIENTED_EDGE('',*,*,#215,.F.);
#270 = ORIENTED_EDGE('',*,*,#252,.F.);
#271 = EDGE_LOOP('',(#263,#268,#269,#270));
#272 = FACE_OUTER_BOUND('',#271,.T.);
#273 = DIRECTION('',(0.000000,1.000000,0.000000));
#274 = DIRECTION('',(-1.000000,0.000000,0.000000));
#275 = AXIS2_PLACEMENT_3D('',#161,#273,#274);
#276 = PLANE('',#275);
#277 = ADVANCED_FACE('',(#272),#276,.T.);
#278 = ORIENTED_EDGE('',*,*,#178,.F.);
#279 = ORIENTED_EDGE('',*,*,#239,.T.);
#280 = ORIENTED_EDGE('',*,*,#220,.T.);
#281 = ORIENTED_EDGE('',*,*,#267,.F.);
#282 = EDGE_LOOP('',(#278,#279,#280,#281));
#283 = FACE_OUTER_BOUND('',#282,.T.);
#284 = DIRECTION('',(-1.000000,0.000000,0.000000));
#285 = DIRECTION('',(0.000000,-1.000000,0.000000));
#286 = AXIS2_PLACEMENT_3D('',#162,#284,#285);
#287 = PLANE('',#286);
#288 = ADVANCED_FACE('',(#283),#287,.T.);
#289 = CLOSED_SHELL('',(#201,#228,#247,#262,#277,#288));
#290 = MANIFOLD_SOLID_BREP('EPC2361_1',#289);
#291 = COLOUR_RGB('',0.780000,0.790000,0.800000);
#292 = FILL_AREA_STYLE_COLOUR('',#291);
#293 = FILL_AREA_STYLE('',(#292));
#294 = SURFACE_STYLE_FILL_AREA(#293);
#295 = SURFACE_SIDE_STYLE('',(#294));
#296 = SURFACE_STYLE_USAGE(.BOTH.,#295);
#297 = PRESENTATION_STYLE_ASSIGNMENT((#296));
#298 = STYLED_ITEM('color',(#297),#290);
#299 = ADVANCED_BREP_SHAPE_REPRESENTATION('EPC2361',(#18,#150,#290),#14);
#300 = SHAPE_DEFINITION_REPRESENTATION(#9,#299);
#301 = MECHANICAL_DESIGN_GEOMETRIC_PRESENTATION_REPRESENTATION('',(#158,#298),#14);
ENDSEC;
END-ISO-10303-21;
