%TF.GenerationSoftware,KiCad,Pcbnew,7.0.10*%
%TF.CreationDate,2026-10-10T16:01:00+02:00*%
%TF.ProjectId,spb-bb-fab,7370622d-6262-42d6-9661-622e6b696361,rev?*%
%TF.SameCoordinates,Original*%
%TF.FileFunction,Copper,L2,Inr*%
%TF.FilePolarity,Positive*%
%FSLAX46Y46*%
G04 Gerber Fmt 4.6, Leading zero omitted, Abs format (unit mm)*
G04 Created by KiCad (PCBNEW 7.0.10) date 2026-10-10 16:01:00*
%MOMM*%
%LPD*%
G01*
G04 APERTURE LIST*
%TA.AperFunction,ComponentPad*%
%ADD10R,1.700000X1.700000*%
%TD*%
%TA.AperFunction,ComponentPad*%
%ADD11O,1.700000X1.700000*%
%TD*%
%TA.AperFunction,ComponentPad*%
%ADD12C,3.200000*%
%TD*%
%TA.AperFunction,ViaPad*%
%ADD13C,0.600000*%
%TD*%
%TA.AperFunction,ViaPad*%
%ADD14C,0.450000*%
%TD*%
%TA.AperFunction,Conductor*%
%ADD15C,0.300000*%
%TD*%
%TA.AperFunction,Conductor*%
%ADD16C,0.250000*%
%TD*%
%TA.AperFunction,Conductor*%
%ADD17C,0.400000*%
%TD*%
G04 APERTURE END LIST*
D10*
%TO.N,NTC*%
%TO.C,J6*%
X103000000Y-133500000D03*
D11*
%TO.N,DCN*%
X103000000Y-136040000D03*
%TD*%
D10*
%TO.N,+12V*%
%TO.C,J5*%
X97460000Y-158040000D03*
D11*
%TO.N,GNDI*%
X97460000Y-155500000D03*
%TO.N,PWM_H*%
X100000000Y-158040000D03*
%TO.N,GNDI*%
X100000000Y-155500000D03*
%TO.N,PWM_L*%
X102540000Y-158040000D03*
%TO.N,DIS*%
X102540000Y-155500000D03*
%TD*%
D10*
%TO.N,+12V*%
%TO.C,J7*%
X113000000Y-155600000D03*
D11*
%TO.N,GNDI*%
X113000000Y-158140000D03*
%TD*%
D12*
%TO.N,SW*%
%TO.C,J4*%
X107565000Y-114665000D03*
X107565000Y-120535000D03*
X113435000Y-114665000D03*
X113435000Y-120535000D03*
%TD*%
%TO.N,SW*%
%TO.C,J3*%
X86565000Y-114665000D03*
X86565000Y-120535000D03*
X92435000Y-114665000D03*
X92435000Y-120535000D03*
%TD*%
%TO.N,DCP*%
%TO.C,J1*%
X91065000Y-78265001D03*
X91065000Y-84135001D03*
X96935000Y-78265001D03*
X96935000Y-84135001D03*
%TD*%
%TO.N,DCN*%
%TO.C,J2*%
X103065000Y-78265001D03*
X103065000Y-84135001D03*
X108935000Y-78265001D03*
X108935000Y-84135001D03*
%TD*%
D13*
%TO.N,DCP*%
X86969231Y-95300000D03*
X85784616Y-95300000D03*
X101184615Y-87100000D03*
X115400000Y-87100000D03*
X111846153Y-95300000D03*
X96446154Y-87100000D03*
X94076924Y-95300000D03*
X90950000Y-102500000D03*
X88153847Y-95300000D03*
X97630770Y-95300000D03*
X90523077Y-95300000D03*
X84600000Y-95300000D03*
X109476923Y-87100000D03*
X92892308Y-87100000D03*
X85784616Y-87100000D03*
X108292307Y-95300000D03*
X86450000Y-102500000D03*
X100000000Y-87100000D03*
X88250000Y-102500000D03*
X90050000Y-102500000D03*
X110661538Y-87100000D03*
X107107692Y-87100000D03*
X111846153Y-87100000D03*
X109050000Y-102500000D03*
X103553846Y-95300000D03*
X90523077Y-87100000D03*
X91707693Y-87100000D03*
X103553846Y-87100000D03*
X86969231Y-87100000D03*
X84600000Y-87100000D03*
X91850001Y-102500000D03*
X97630770Y-87100000D03*
X109476923Y-95300000D03*
X104738461Y-87100000D03*
X110850000Y-102500000D03*
X105923076Y-87100000D03*
X95261539Y-87100000D03*
X114215384Y-95300000D03*
X92750000Y-102500000D03*
X88153847Y-87100000D03*
X89338462Y-95300000D03*
X107107692Y-95300000D03*
X102369230Y-87100000D03*
X115400000Y-95300000D03*
X107250000Y-102500000D03*
X105450000Y-102500000D03*
X98815385Y-95300000D03*
X102369230Y-95300000D03*
X110661538Y-95300000D03*
X101184615Y-95300000D03*
X113030769Y-87100000D03*
X104738461Y-95300000D03*
X93650000Y-102500000D03*
X109950000Y-102500000D03*
X113550000Y-102500000D03*
X92892308Y-95300000D03*
X111750000Y-102500000D03*
X98815385Y-87100000D03*
X94550001Y-102500000D03*
X106350000Y-102500000D03*
X95261539Y-95300000D03*
X112650000Y-102500000D03*
X91707693Y-95300000D03*
X94076924Y-87100000D03*
X96446154Y-95300000D03*
X100000000Y-95300000D03*
X87350000Y-102500000D03*
X89338462Y-87100000D03*
X89150000Y-102500000D03*
X108150000Y-102500000D03*
X108292307Y-87100000D03*
X113030769Y-95300000D03*
X105923076Y-95300000D03*
X114215384Y-87100000D03*
%TO.N,DCN*%
X96446154Y-99500000D03*
X100000000Y-99500000D03*
X94076924Y-99500000D03*
X107107692Y-99500000D03*
X111846153Y-91300000D03*
X115400000Y-103700000D03*
D14*
X118600000Y-108750000D03*
D13*
X108292307Y-91300000D03*
X96446154Y-91300000D03*
X111846153Y-99500000D03*
X98815385Y-99500000D03*
X91707693Y-99500000D03*
X94076924Y-91300000D03*
X91707693Y-91300000D03*
X109050000Y-111500000D03*
X101184615Y-91300000D03*
X89338462Y-99500000D03*
X89338462Y-91300000D03*
X105923076Y-99500000D03*
X113550000Y-111500000D03*
X114215384Y-91300000D03*
X110850000Y-111500000D03*
X113030769Y-91300000D03*
X86969231Y-99500000D03*
X85784616Y-91300000D03*
X104738461Y-99500000D03*
X95261539Y-99500000D03*
X90523077Y-91300000D03*
X103553846Y-99500000D03*
X103553846Y-91300000D03*
X103700000Y-130000000D03*
X89150000Y-111500000D03*
X110661538Y-91300000D03*
X100000000Y-91300000D03*
X110661538Y-99500000D03*
X107250000Y-111500000D03*
X101184615Y-99500000D03*
D14*
X106098000Y-109020000D03*
D13*
X90523077Y-99500000D03*
X84600000Y-91300000D03*
X90950000Y-111500000D03*
X109476923Y-91300000D03*
X97630770Y-91300000D03*
X107107692Y-91300000D03*
X102369230Y-99500000D03*
D14*
X100000000Y-107900000D03*
D13*
X98815385Y-91300000D03*
X114215384Y-99500000D03*
X102369230Y-91300000D03*
X84600000Y-99500000D03*
X92892308Y-91300000D03*
X113030769Y-99500000D03*
X85784616Y-99500000D03*
X109476923Y-99500000D03*
X115400000Y-91300000D03*
X86450000Y-111500000D03*
X104300000Y-119500000D03*
X104738461Y-91300000D03*
X86969231Y-91300000D03*
D14*
X103900000Y-111000000D03*
D13*
X88153847Y-99500000D03*
X92892308Y-99500000D03*
D14*
X81400000Y-108750000D03*
D13*
X95261539Y-91300000D03*
X108292307Y-99500000D03*
X97630770Y-99500000D03*
X88153847Y-91300000D03*
X94550001Y-111500000D03*
D14*
X93902000Y-109379999D03*
D13*
X115400000Y-99500000D03*
X105923076Y-91300000D03*
X106350000Y-111500000D03*
X105450000Y-111500000D03*
D14*
%TO.N,SW*%
X81600000Y-104000000D03*
D13*
X94550001Y-107050000D03*
X113550000Y-107050000D03*
D14*
X93902000Y-105080000D03*
D13*
X96100001Y-130000000D03*
D14*
X106098000Y-104720000D03*
X118400000Y-104000000D03*
X100000000Y-105750000D03*
D13*
X95700000Y-119500000D03*
X86450000Y-107050000D03*
D14*
X96100000Y-111000000D03*
D13*
X105450000Y-107050000D03*
D14*
%TO.N,GH_L*%
X94600000Y-106130000D03*
X81400000Y-106600000D03*
%TO.N,GL_L*%
X83800000Y-107200000D03*
X94600000Y-110430000D03*
%TO.N,GH_R*%
X118600000Y-106600000D03*
X105400000Y-103670000D03*
%TO.N,GL_R*%
X105400000Y-107970000D03*
X116200000Y-107200000D03*
D13*
%TO.N,GH_STAR*%
X98500000Y-110000000D03*
X100000000Y-104900000D03*
%TO.N,VEEB*%
X117600000Y-135800000D03*
X115200000Y-130000000D03*
X118600000Y-142700000D03*
X103200000Y-116250000D03*
X113600000Y-141500000D03*
X119600000Y-130500000D03*
X106600000Y-129800000D03*
X119600000Y-140000000D03*
X119600000Y-133000000D03*
X113600000Y-133900000D03*
X119600000Y-137500000D03*
X117600000Y-129200000D03*
X105000000Y-127500000D03*
X111000000Y-127500000D03*
X107700000Y-133300000D03*
%TO.N,VDDB*%
X114500000Y-129000000D03*
X103100000Y-127600000D03*
X103600000Y-118800000D03*
X112300000Y-131400000D03*
X113100000Y-130500000D03*
%TO.N,VEEA*%
X94100001Y-133300000D03*
X81400000Y-142700000D03*
X80400000Y-137500000D03*
X88600001Y-127500000D03*
X97000000Y-127500000D03*
X90100001Y-134500000D03*
X82400000Y-129200000D03*
X96400000Y-118800000D03*
X80400000Y-140000000D03*
X97300001Y-141500000D03*
X82400000Y-135800000D03*
X80400000Y-130500000D03*
X93000000Y-129800000D03*
X86400000Y-133900000D03*
X80400000Y-133000000D03*
%TO.N,VDDA*%
X94900000Y-127600000D03*
X87400000Y-132100000D03*
X96800000Y-116250000D03*
X85500000Y-132100000D03*
%TO.N,DIS*%
X100800000Y-126000000D03*
%TO.N,GNDI*%
X105500000Y-159100000D03*
X83000000Y-154600000D03*
X117000000Y-154600000D03*
X110400000Y-158600000D03*
X100300000Y-123300000D03*
X104200000Y-157200000D03*
X97300001Y-151500000D03*
X100000000Y-120700000D03*
X113600000Y-151500000D03*
X88400000Y-153600000D03*
X95600000Y-157400000D03*
%TO.N,PWM_H*%
X98800001Y-126700000D03*
%TO.N,PWM_L*%
X100400000Y-126700000D03*
%TO.N,+12V*%
X101200000Y-126700000D03*
X101200000Y-149100000D03*
%TO.N,ISOA_P*%
X86200000Y-137600000D03*
X82500000Y-132800000D03*
X86400000Y-127800000D03*
X86400000Y-130000000D03*
%TO.N,ISOB_P*%
X116200000Y-132100000D03*
X110400000Y-130500000D03*
X108500000Y-134500000D03*
%TO.N,NTC*%
X116900000Y-126400000D03*
X116900000Y-101920000D03*
%TO.N,LEDA_ISOA*%
X82400000Y-127800000D03*
X81700000Y-130200000D03*
%TD*%
D15*
%TO.N,DCN*%
X95700000Y-109379999D02*
X95700000Y-108350000D01*
X104300000Y-108350000D02*
X100000000Y-108350000D01*
X104300000Y-109020000D02*
X104300000Y-108350000D01*
X95700000Y-108350000D02*
X100000000Y-108350000D01*
X100000000Y-107900000D02*
X100000000Y-108350000D01*
X100000000Y-108350000D02*
X100000000Y-110600000D01*
X100000000Y-110600000D02*
X100400000Y-111000000D01*
X93902000Y-109379999D02*
X95700000Y-109379999D01*
X106098000Y-109020000D02*
X104300000Y-109020000D01*
X100400000Y-111000000D02*
X103900000Y-111000000D01*
%TO.N,SW*%
X93902000Y-105080000D02*
X95700000Y-105080000D01*
X95700000Y-105750000D02*
X100000000Y-105750000D01*
X106098000Y-104720000D02*
X104300000Y-104720000D01*
X104300000Y-104720000D02*
X104300000Y-105750000D01*
X95700000Y-105080000D02*
X95700000Y-105750000D01*
X104300000Y-105750000D02*
X100000000Y-105750000D01*
D16*
%TO.N,PWM_H*%
X99500000Y-157500000D02*
X98800001Y-156500000D01*
X98800001Y-156500000D02*
X98800001Y-126700000D01*
%TO.N,PWM_L*%
X101300000Y-156400000D02*
X100800000Y-149700000D01*
X100800000Y-149700000D02*
X100500000Y-149200000D01*
X102000000Y-157500000D02*
X101300000Y-156400000D01*
X100500000Y-149200000D02*
X100400000Y-126700000D01*
D17*
%TO.N,+12V*%
X101200000Y-149100000D02*
X101200000Y-126700000D01*
D16*
%TO.N,NTC*%
X116900000Y-101920000D02*
X116900000Y-126400000D01*
%TD*%
%TA.AperFunction,Conductor*%
%TO.N,SW*%
G36*
X94559191Y-112418907D02*
G01*
X94595155Y-112468407D01*
X94600000Y-112499000D01*
X94600000Y-122901000D01*
X94581093Y-122959191D01*
X94531593Y-122995155D01*
X94501000Y-123000000D01*
X83799000Y-123000000D01*
X83740809Y-122981093D01*
X83704845Y-122931593D01*
X83700000Y-122901000D01*
X83700000Y-112499000D01*
X83718907Y-112440809D01*
X83768407Y-112404845D01*
X83799000Y-112400000D01*
X94501000Y-112400000D01*
X94559191Y-112418907D01*
G37*
%TD.AperFunction*%
%TD*%
%TA.AperFunction,Conductor*%
%TO.N,DCN*%
G36*
X111959191Y-76618907D02*
G01*
X111995155Y-76668407D01*
X112000000Y-76699000D01*
X112000000Y-86500500D01*
X111981093Y-86558691D01*
X111931593Y-86594655D01*
X111901000Y-86599500D01*
X111774188Y-86599500D01*
X111636102Y-86640046D01*
X111636095Y-86640049D01*
X111515026Y-86717855D01*
X111420775Y-86826628D01*
X111360987Y-86957543D01*
X111351837Y-87021183D01*
X111324841Y-87076090D01*
X111277328Y-87101159D01*
X111297525Y-87104063D01*
X111341403Y-87146705D01*
X111351837Y-87178817D01*
X111360987Y-87242455D01*
X111360988Y-87242457D01*
X111420776Y-87373373D01*
X111515025Y-87482143D01*
X111515026Y-87482144D01*
X111636095Y-87559950D01*
X111636100Y-87559953D01*
X111742556Y-87591211D01*
X111774188Y-87600499D01*
X111774189Y-87600499D01*
X111774192Y-87600500D01*
X111774194Y-87600500D01*
X111901000Y-87600500D01*
X111959191Y-87619407D01*
X111995155Y-87668907D01*
X112000000Y-87699500D01*
X112000000Y-89600000D01*
X101000000Y-89600000D01*
X101000000Y-87698555D01*
X101018907Y-87640364D01*
X101068407Y-87604400D01*
X101105573Y-87601208D01*
X101105573Y-87600500D01*
X101256574Y-87600500D01*
X101256576Y-87600500D01*
X101394668Y-87559953D01*
X101515743Y-87482143D01*
X101609992Y-87373373D01*
X101669780Y-87242457D01*
X101678930Y-87178817D01*
X101705925Y-87123910D01*
X101749041Y-87101159D01*
X101800405Y-87101159D01*
X101820602Y-87104063D01*
X101864480Y-87146705D01*
X101874914Y-87178817D01*
X101884064Y-87242455D01*
X101884065Y-87242457D01*
X101943853Y-87373373D01*
X102038102Y-87482143D01*
X102038103Y-87482144D01*
X102159172Y-87559950D01*
X102159177Y-87559953D01*
X102265633Y-87591211D01*
X102297265Y-87600499D01*
X102297266Y-87600499D01*
X102297269Y-87600500D01*
X102297271Y-87600500D01*
X102441189Y-87600500D01*
X102441191Y-87600500D01*
X102579283Y-87559953D01*
X102700358Y-87482143D01*
X102794607Y-87373373D01*
X102854395Y-87242457D01*
X102863546Y-87178813D01*
X102890542Y-87123906D01*
X102933653Y-87101157D01*
X102985034Y-87101157D01*
X103005218Y-87104059D01*
X103049097Y-87146701D01*
X103059530Y-87178813D01*
X103068680Y-87242456D01*
X103128468Y-87373371D01*
X103128469Y-87373373D01*
X103222718Y-87482143D01*
X103222719Y-87482144D01*
X103343788Y-87559950D01*
X103343793Y-87559953D01*
X103450249Y-87591211D01*
X103481881Y-87600499D01*
X103481882Y-87600499D01*
X103481885Y-87600500D01*
X103481887Y-87600500D01*
X103625805Y-87600500D01*
X103625807Y-87600500D01*
X103763899Y-87559953D01*
X103884974Y-87482143D01*
X103979223Y-87373373D01*
X104039011Y-87242457D01*
X104048161Y-87178817D01*
X104075156Y-87123910D01*
X104118272Y-87101159D01*
X104169636Y-87101159D01*
X104189833Y-87104063D01*
X104233711Y-87146705D01*
X104244145Y-87178817D01*
X104253295Y-87242455D01*
X104253296Y-87242457D01*
X104313084Y-87373373D01*
X104407333Y-87482143D01*
X104407334Y-87482144D01*
X104528403Y-87559950D01*
X104528408Y-87559953D01*
X104634864Y-87591211D01*
X104666496Y-87600499D01*
X104666497Y-87600499D01*
X104666500Y-87600500D01*
X104666502Y-87600500D01*
X104810420Y-87600500D01*
X104810422Y-87600500D01*
X104948514Y-87559953D01*
X105069589Y-87482143D01*
X105163838Y-87373373D01*
X105223626Y-87242457D01*
X105232776Y-87178817D01*
X105259771Y-87123910D01*
X105302887Y-87101159D01*
X105354251Y-87101159D01*
X105374448Y-87104063D01*
X105418326Y-87146705D01*
X105428760Y-87178817D01*
X105437910Y-87242455D01*
X105437911Y-87242457D01*
X105497699Y-87373373D01*
X105591948Y-87482143D01*
X105591949Y-87482144D01*
X105713018Y-87559950D01*
X105713023Y-87559953D01*
X105819479Y-87591211D01*
X105851111Y-87600499D01*
X105851112Y-87600499D01*
X105851115Y-87600500D01*
X105851117Y-87600500D01*
X105995035Y-87600500D01*
X105995037Y-87600500D01*
X106133129Y-87559953D01*
X106254204Y-87482143D01*
X106348453Y-87373373D01*
X106408241Y-87242457D01*
X106417392Y-87178813D01*
X106444388Y-87123906D01*
X106487499Y-87101157D01*
X106538880Y-87101157D01*
X106559064Y-87104059D01*
X106602943Y-87146701D01*
X106613376Y-87178813D01*
X106622526Y-87242456D01*
X106682314Y-87373371D01*
X106682315Y-87373373D01*
X106776564Y-87482143D01*
X106776565Y-87482144D01*
X106897634Y-87559950D01*
X106897639Y-87559953D01*
X107004095Y-87591211D01*
X107035727Y-87600499D01*
X107035728Y-87600499D01*
X107035731Y-87600500D01*
X107035733Y-87600500D01*
X107179651Y-87600500D01*
X107179653Y-87600500D01*
X107317745Y-87559953D01*
X107438820Y-87482143D01*
X107533069Y-87373373D01*
X107592857Y-87242457D01*
X107602007Y-87178817D01*
X107629002Y-87123910D01*
X107672118Y-87101159D01*
X107723482Y-87101159D01*
X107743679Y-87104063D01*
X107787557Y-87146705D01*
X107797991Y-87178817D01*
X107807141Y-87242455D01*
X107807142Y-87242457D01*
X107866930Y-87373373D01*
X107961179Y-87482143D01*
X107961180Y-87482144D01*
X108082249Y-87559950D01*
X108082254Y-87559953D01*
X108188710Y-87591211D01*
X108220342Y-87600499D01*
X108220343Y-87600499D01*
X108220346Y-87600500D01*
X108220348Y-87600500D01*
X108364266Y-87600500D01*
X108364268Y-87600500D01*
X108502360Y-87559953D01*
X108623435Y-87482143D01*
X108717684Y-87373373D01*
X108777472Y-87242457D01*
X108786623Y-87178813D01*
X108813619Y-87123906D01*
X108856730Y-87101157D01*
X108908111Y-87101157D01*
X108928295Y-87104059D01*
X108972174Y-87146701D01*
X108982607Y-87178813D01*
X108991757Y-87242456D01*
X109051545Y-87373371D01*
X109051546Y-87373373D01*
X109145795Y-87482143D01*
X109145796Y-87482144D01*
X109266865Y-87559950D01*
X109266870Y-87559953D01*
X109373326Y-87591211D01*
X109404958Y-87600499D01*
X109404959Y-87600499D01*
X109404962Y-87600500D01*
X109404964Y-87600500D01*
X109548882Y-87600500D01*
X109548884Y-87600500D01*
X109686976Y-87559953D01*
X109808051Y-87482143D01*
X109902300Y-87373373D01*
X109962088Y-87242457D01*
X109971238Y-87178817D01*
X109998233Y-87123910D01*
X110041349Y-87101159D01*
X110092713Y-87101159D01*
X110112910Y-87104063D01*
X110156788Y-87146705D01*
X110167222Y-87178817D01*
X110176372Y-87242455D01*
X110176373Y-87242457D01*
X110236161Y-87373373D01*
X110330410Y-87482143D01*
X110330411Y-87482144D01*
X110451480Y-87559950D01*
X110451485Y-87559953D01*
X110557941Y-87591211D01*
X110589573Y-87600499D01*
X110589574Y-87600499D01*
X110589577Y-87600500D01*
X110589579Y-87600500D01*
X110733497Y-87600500D01*
X110733499Y-87600500D01*
X110871591Y-87559953D01*
X110992666Y-87482143D01*
X111086915Y-87373373D01*
X111146703Y-87242457D01*
X111155853Y-87178817D01*
X111182848Y-87123910D01*
X111230361Y-87098839D01*
X111210164Y-87095935D01*
X111166286Y-87053293D01*
X111155853Y-87021181D01*
X111146703Y-86957544D01*
X111086915Y-86826628D01*
X111086915Y-86826627D01*
X110992666Y-86717857D01*
X110992665Y-86717856D01*
X110992664Y-86717855D01*
X110871595Y-86640049D01*
X110871592Y-86640047D01*
X110871591Y-86640047D01*
X110871588Y-86640046D01*
X110733502Y-86599500D01*
X110733499Y-86599500D01*
X110589577Y-86599500D01*
X110589573Y-86599500D01*
X110451487Y-86640046D01*
X110451480Y-86640049D01*
X110330411Y-86717855D01*
X110236160Y-86826628D01*
X110176372Y-86957543D01*
X110167222Y-87021183D01*
X110140226Y-87076090D01*
X110092713Y-87101159D01*
X110041349Y-87101159D01*
X110045746Y-87098839D01*
X110025549Y-87095935D01*
X109981671Y-87053293D01*
X109971238Y-87021181D01*
X109962088Y-86957544D01*
X109902300Y-86826628D01*
X109902300Y-86826627D01*
X109808051Y-86717857D01*
X109808050Y-86717856D01*
X109808049Y-86717855D01*
X109686980Y-86640049D01*
X109686977Y-86640047D01*
X109686976Y-86640047D01*
X109686973Y-86640046D01*
X109548887Y-86599500D01*
X109548884Y-86599500D01*
X109404962Y-86599500D01*
X109404958Y-86599500D01*
X109266872Y-86640046D01*
X109266865Y-86640049D01*
X109145796Y-86717855D01*
X109051545Y-86826628D01*
X108991757Y-86957543D01*
X108982607Y-87021186D01*
X108955611Y-87076094D01*
X108908111Y-87101157D01*
X108856730Y-87101157D01*
X108861119Y-87098841D01*
X108840934Y-87095940D01*
X108797056Y-87053297D01*
X108786623Y-87021186D01*
X108777472Y-86957543D01*
X108717684Y-86826628D01*
X108717684Y-86826627D01*
X108623435Y-86717857D01*
X108623434Y-86717856D01*
X108623433Y-86717855D01*
X108502364Y-86640049D01*
X108502361Y-86640047D01*
X108502360Y-86640047D01*
X108502357Y-86640046D01*
X108364271Y-86599500D01*
X108364268Y-86599500D01*
X108220346Y-86599500D01*
X108220342Y-86599500D01*
X108082256Y-86640046D01*
X108082249Y-86640049D01*
X107961180Y-86717855D01*
X107866929Y-86826628D01*
X107807141Y-86957543D01*
X107797991Y-87021183D01*
X107770995Y-87076090D01*
X107723482Y-87101159D01*
X107672118Y-87101159D01*
X107676515Y-87098839D01*
X107656318Y-87095935D01*
X107612440Y-87053293D01*
X107602007Y-87021181D01*
X107592857Y-86957544D01*
X107533069Y-86826628D01*
X107533069Y-86826627D01*
X107438820Y-86717857D01*
X107438819Y-86717856D01*
X107438818Y-86717855D01*
X107317749Y-86640049D01*
X107317746Y-86640047D01*
X107317745Y-86640047D01*
X107317742Y-86640046D01*
X107179656Y-86599500D01*
X107179653Y-86599500D01*
X107035731Y-86599500D01*
X107035727Y-86599500D01*
X106897641Y-86640046D01*
X106897634Y-86640049D01*
X106776565Y-86717855D01*
X106682314Y-86826628D01*
X106622526Y-86957543D01*
X106613376Y-87021186D01*
X106586380Y-87076094D01*
X106538880Y-87101157D01*
X106487499Y-87101157D01*
X106491888Y-87098841D01*
X106471703Y-87095940D01*
X106427825Y-87053297D01*
X106417392Y-87021186D01*
X106408241Y-86957543D01*
X106348453Y-86826628D01*
X106348453Y-86826627D01*
X106254204Y-86717857D01*
X106254203Y-86717856D01*
X106254202Y-86717855D01*
X106133133Y-86640049D01*
X106133130Y-86640047D01*
X106133129Y-86640047D01*
X106133126Y-86640046D01*
X105995040Y-86599500D01*
X105995037Y-86599500D01*
X105851115Y-86599500D01*
X105851111Y-86599500D01*
X105713025Y-86640046D01*
X105713018Y-86640049D01*
X105591949Y-86717855D01*
X105497698Y-86826628D01*
X105437910Y-86957543D01*
X105428760Y-87021183D01*
X105401764Y-87076090D01*
X105354251Y-87101159D01*
X105302887Y-87101159D01*
X105307284Y-87098839D01*
X105287087Y-87095935D01*
X105243209Y-87053293D01*
X105232776Y-87021181D01*
X105223626Y-86957544D01*
X105163838Y-86826628D01*
X105163838Y-86826627D01*
X105069589Y-86717857D01*
X105069588Y-86717856D01*
X105069587Y-86717855D01*
X104948518Y-86640049D01*
X104948515Y-86640047D01*
X104948514Y-86640047D01*
X104948511Y-86640046D01*
X104810425Y-86599500D01*
X104810422Y-86599500D01*
X104666500Y-86599500D01*
X104666496Y-86599500D01*
X104528410Y-86640046D01*
X104528403Y-86640049D01*
X104407334Y-86717855D01*
X104313083Y-86826628D01*
X104253295Y-86957543D01*
X104244145Y-87021183D01*
X104217149Y-87076090D01*
X104169636Y-87101159D01*
X104118272Y-87101159D01*
X104122669Y-87098839D01*
X104102472Y-87095935D01*
X104058594Y-87053293D01*
X104048161Y-87021181D01*
X104039011Y-86957544D01*
X103979223Y-86826628D01*
X103979223Y-86826627D01*
X103884974Y-86717857D01*
X103884973Y-86717856D01*
X103884972Y-86717855D01*
X103763903Y-86640049D01*
X103763900Y-86640047D01*
X103763899Y-86640047D01*
X103763896Y-86640046D01*
X103625810Y-86599500D01*
X103625807Y-86599500D01*
X103481885Y-86599500D01*
X103481881Y-86599500D01*
X103343795Y-86640046D01*
X103343788Y-86640049D01*
X103222719Y-86717855D01*
X103128468Y-86826628D01*
X103068680Y-86957543D01*
X103059530Y-87021186D01*
X103032534Y-87076094D01*
X102985034Y-87101157D01*
X102933653Y-87101157D01*
X102938042Y-87098841D01*
X102917857Y-87095940D01*
X102873979Y-87053297D01*
X102863546Y-87021186D01*
X102854395Y-86957543D01*
X102794607Y-86826628D01*
X102794607Y-86826627D01*
X102700358Y-86717857D01*
X102700357Y-86717856D01*
X102700356Y-86717855D01*
X102579287Y-86640049D01*
X102579284Y-86640047D01*
X102579283Y-86640047D01*
X102579280Y-86640046D01*
X102441194Y-86599500D01*
X102441191Y-86599500D01*
X102297269Y-86599500D01*
X102297265Y-86599500D01*
X102159179Y-86640046D01*
X102159172Y-86640049D01*
X102038103Y-86717855D01*
X101943852Y-86826628D01*
X101884064Y-86957543D01*
X101874914Y-87021183D01*
X101847918Y-87076090D01*
X101800405Y-87101159D01*
X101749041Y-87101159D01*
X101753438Y-87098839D01*
X101733241Y-87095935D01*
X101689363Y-87053293D01*
X101678930Y-87021181D01*
X101669780Y-86957544D01*
X101609992Y-86826628D01*
X101609992Y-86826627D01*
X101515743Y-86717857D01*
X101515742Y-86717856D01*
X101515741Y-86717855D01*
X101394672Y-86640049D01*
X101394669Y-86640047D01*
X101394668Y-86640047D01*
X101394665Y-86640046D01*
X101256579Y-86599500D01*
X101256576Y-86599500D01*
X101112654Y-86599500D01*
X101105574Y-86599500D01*
X101105574Y-86598137D01*
X101052797Y-86589002D01*
X101010156Y-86545123D01*
X101000000Y-86501445D01*
X101000000Y-76699000D01*
X101018907Y-76640809D01*
X101068407Y-76604845D01*
X101099000Y-76600000D01*
X111901000Y-76600000D01*
X111959191Y-76618907D01*
G37*
%TD.AperFunction*%
%TD*%
%TA.AperFunction,Conductor*%
%TO.N,SW*%
G36*
X115259191Y-112418907D02*
G01*
X115295155Y-112468407D01*
X115300000Y-112499000D01*
X115300000Y-122901000D01*
X115281093Y-122959191D01*
X115231593Y-122995155D01*
X115201000Y-123000000D01*
X105499000Y-123000000D01*
X105440809Y-122981093D01*
X105404845Y-122931593D01*
X105400000Y-122901000D01*
X105400000Y-112499000D01*
X105418907Y-112440809D01*
X105468407Y-112404845D01*
X105499000Y-112400000D01*
X115201000Y-112400000D01*
X115259191Y-112418907D01*
G37*
%TD.AperFunction*%
%TD*%
%TA.AperFunction,Conductor*%
%TO.N,DCP*%
G36*
X98959191Y-76618907D02*
G01*
X98995155Y-76668407D01*
X99000000Y-76699000D01*
X99000000Y-85901000D01*
X98981093Y-85959191D01*
X98931593Y-85995155D01*
X98901000Y-86000000D01*
X88099000Y-86000000D01*
X88040809Y-85981093D01*
X88004845Y-85931593D01*
X88000000Y-85901000D01*
X88000000Y-76699000D01*
X88018907Y-76640809D01*
X88068407Y-76604845D01*
X88099000Y-76600000D01*
X98901000Y-76600000D01*
X98959191Y-76618907D01*
G37*
%TD.AperFunction*%
%TD*%
%TA.AperFunction,Conductor*%
%TO.N,GNDI*%
G36*
X98433692Y-149118907D02*
G01*
X98469656Y-149168407D01*
X98474501Y-149199000D01*
X98474501Y-156444082D01*
X98471124Y-156469718D01*
X98470740Y-156471146D01*
X98470740Y-156471147D01*
X98474125Y-156509885D01*
X98474501Y-156518501D01*
X98474501Y-156528470D01*
X98474502Y-156528482D01*
X98476223Y-156538249D01*
X98477349Y-156546812D01*
X98480728Y-156585494D01*
X98480729Y-156585498D01*
X98481382Y-156586898D01*
X98489145Y-156611527D01*
X98489412Y-156613042D01*
X98489413Y-156613045D01*
X98508830Y-156646677D01*
X98512821Y-156654344D01*
X98517012Y-156663334D01*
X98517012Y-156663335D01*
X98522729Y-156671502D01*
X98527358Y-156678770D01*
X98546807Y-156712455D01*
X98547942Y-156713408D01*
X98565406Y-156732470D01*
X99064863Y-157445980D01*
X99082744Y-157504495D01*
X99071069Y-157549421D01*
X99024770Y-157636040D01*
X99024768Y-157636045D01*
X98964699Y-157834065D01*
X98964698Y-157834070D01*
X98944417Y-158039996D01*
X98944417Y-158040003D01*
X98964698Y-158245929D01*
X98964699Y-158245934D01*
X99024768Y-158443954D01*
X99122316Y-158626452D01*
X99253585Y-158786404D01*
X99253590Y-158786410D01*
X99253595Y-158786414D01*
X99413547Y-158917683D01*
X99413548Y-158917683D01*
X99413550Y-158917685D01*
X99596046Y-159015232D01*
X99733997Y-159057078D01*
X99794065Y-159075300D01*
X99794070Y-159075301D01*
X99999997Y-159095583D01*
X100000000Y-159095583D01*
X100000003Y-159095583D01*
X100205929Y-159075301D01*
X100205934Y-159075300D01*
X100403954Y-159015232D01*
X100586450Y-158917685D01*
X100746410Y-158786410D01*
X100877685Y-158626450D01*
X100975232Y-158443954D01*
X101035300Y-158245934D01*
X101035301Y-158245929D01*
X101055583Y-158040003D01*
X101055583Y-158039996D01*
X101035301Y-157834070D01*
X101035300Y-157834065D01*
X101017078Y-157773997D01*
X100975232Y-157636046D01*
X100877685Y-157453550D01*
X100871472Y-157445980D01*
X100746414Y-157293595D01*
X100746410Y-157293590D01*
X100596123Y-157170253D01*
X100586452Y-157162316D01*
X100403954Y-157064768D01*
X100205934Y-157004699D01*
X100205929Y-157004698D01*
X100000003Y-156984417D01*
X99999997Y-156984417D01*
X99794070Y-157004698D01*
X99794065Y-157004699D01*
X99661936Y-157044780D01*
X99600762Y-157043579D01*
X99552095Y-157006816D01*
X99352575Y-156721788D01*
X99143397Y-156422960D01*
X99125501Y-156366187D01*
X99125501Y-149199000D01*
X99144408Y-149140809D01*
X99193908Y-149104845D01*
X99224501Y-149100000D01*
X100075423Y-149100000D01*
X100133614Y-149118907D01*
X100169578Y-149168407D01*
X100174409Y-149197343D01*
X100174501Y-149202840D01*
X100174514Y-149204054D01*
X100174629Y-149229922D01*
X100174691Y-149230589D01*
X100175093Y-149237984D01*
X100175512Y-149262860D01*
X100181811Y-149279302D01*
X100186782Y-149297096D01*
X100189916Y-149314423D01*
X100202451Y-149335912D01*
X100205939Y-149342442D01*
X100206230Y-149343040D01*
X100206234Y-149343048D01*
X100206236Y-149343051D01*
X100219561Y-149365260D01*
X100220147Y-149366251D01*
X100249409Y-149416418D01*
X100254630Y-149423709D01*
X100365134Y-149607883D01*
X100469065Y-149781100D01*
X100482898Y-149824667D01*
X100974906Y-156417570D01*
X100975089Y-156420667D01*
X100977278Y-156471375D01*
X100977279Y-156471379D01*
X100987579Y-156496282D01*
X100992040Y-156509716D01*
X100998686Y-156535846D01*
X100998686Y-156535848D01*
X101027243Y-156577760D01*
X101028949Y-156580348D01*
X101032226Y-156585498D01*
X101595790Y-157471101D01*
X101611079Y-157530346D01*
X101599578Y-157570919D01*
X101564768Y-157636044D01*
X101564768Y-157636045D01*
X101504699Y-157834065D01*
X101504698Y-157834070D01*
X101484417Y-158039996D01*
X101484417Y-158040003D01*
X101504698Y-158245929D01*
X101504699Y-158245934D01*
X101564768Y-158443954D01*
X101662316Y-158626452D01*
X101793585Y-158786404D01*
X101793590Y-158786410D01*
X101793595Y-158786414D01*
X101953547Y-158917683D01*
X101953548Y-158917683D01*
X101953550Y-158917685D01*
X102136046Y-159015232D01*
X102273997Y-159057078D01*
X102334065Y-159075300D01*
X102334070Y-159075301D01*
X102539997Y-159095583D01*
X102540000Y-159095583D01*
X102540003Y-159095583D01*
X102745929Y-159075301D01*
X102745934Y-159075300D01*
X102943954Y-159015232D01*
X103126450Y-158917685D01*
X103286410Y-158786410D01*
X103417685Y-158626450D01*
X103515232Y-158443954D01*
X103575300Y-158245934D01*
X103575301Y-158245929D01*
X103595583Y-158040003D01*
X103595583Y-158039996D01*
X103575301Y-157834070D01*
X103575300Y-157834065D01*
X103557078Y-157773997D01*
X103515232Y-157636046D01*
X103417685Y-157453550D01*
X103411472Y-157445980D01*
X103286414Y-157293595D01*
X103286410Y-157293590D01*
X103136123Y-157170253D01*
X103126452Y-157162316D01*
X102943954Y-157064768D01*
X102745934Y-157004699D01*
X102745929Y-157004698D01*
X102540003Y-156984417D01*
X102539997Y-156984417D01*
X102334070Y-157004698D01*
X102334065Y-157004699D01*
X102185166Y-157049867D01*
X102123992Y-157048666D01*
X102075208Y-157011736D01*
X102072906Y-157008281D01*
X101858592Y-156671502D01*
X101696112Y-156416177D01*
X101680823Y-156356935D01*
X101703276Y-156300018D01*
X101754895Y-156267169D01*
X101815965Y-156270935D01*
X101842440Y-156286500D01*
X101953547Y-156377682D01*
X101953547Y-156377683D01*
X101953548Y-156377683D01*
X101953550Y-156377685D01*
X102136046Y-156475232D01*
X102249726Y-156509716D01*
X102334065Y-156535300D01*
X102334070Y-156535301D01*
X102539997Y-156555583D01*
X102540000Y-156555583D01*
X102540003Y-156555583D01*
X102745929Y-156535301D01*
X102745934Y-156535300D01*
X102768433Y-156528475D01*
X102943954Y-156475232D01*
X102954217Y-156469746D01*
X111949500Y-156469746D01*
X111949501Y-156469758D01*
X111961132Y-156528227D01*
X111961134Y-156528233D01*
X112005445Y-156594548D01*
X112005448Y-156594552D01*
X112071769Y-156638867D01*
X112116231Y-156647711D01*
X112130241Y-156650498D01*
X112130246Y-156650498D01*
X112130252Y-156650500D01*
X112130253Y-156650500D01*
X113869747Y-156650500D01*
X113869748Y-156650500D01*
X113928231Y-156638867D01*
X113994552Y-156594552D01*
X114038867Y-156528231D01*
X114050500Y-156469748D01*
X114050500Y-154730252D01*
X114038867Y-154671769D01*
X113994552Y-154605448D01*
X113994548Y-154605445D01*
X113928233Y-154561134D01*
X113928231Y-154561133D01*
X113928228Y-154561132D01*
X113928227Y-154561132D01*
X113869758Y-154549501D01*
X113869748Y-154549500D01*
X112130252Y-154549500D01*
X112130251Y-154549500D01*
X112130241Y-154549501D01*
X112071772Y-154561132D01*
X112071766Y-154561134D01*
X112005451Y-154605445D01*
X112005445Y-154605451D01*
X111961134Y-154671766D01*
X111961132Y-154671772D01*
X111949501Y-154730241D01*
X111949500Y-154730253D01*
X111949500Y-156469746D01*
X102954217Y-156469746D01*
X103126450Y-156377685D01*
X103286410Y-156246410D01*
X103417685Y-156086450D01*
X103515232Y-155903954D01*
X103575300Y-155705934D01*
X103575301Y-155705929D01*
X103595583Y-155500003D01*
X103595583Y-155499996D01*
X103575301Y-155294070D01*
X103575300Y-155294065D01*
X103543861Y-155190425D01*
X103515232Y-155096046D01*
X103417685Y-154913550D01*
X103286410Y-154753590D01*
X103257974Y-154730253D01*
X103126452Y-154622316D01*
X102943954Y-154524768D01*
X102745934Y-154464699D01*
X102745929Y-154464698D01*
X102540003Y-154444417D01*
X102539997Y-154444417D01*
X102334070Y-154464698D01*
X102334065Y-154464699D01*
X102136045Y-154524768D01*
X101953547Y-154622316D01*
X101793595Y-154753585D01*
X101793585Y-154753595D01*
X101684568Y-154886434D01*
X101633037Y-154919421D01*
X101571957Y-154915819D01*
X101524661Y-154877004D01*
X101509315Y-154830997D01*
X101126917Y-149706868D01*
X101141441Y-149647431D01*
X101188127Y-149607883D01*
X101225642Y-149600500D01*
X101271959Y-149600500D01*
X101271961Y-149600500D01*
X101410053Y-149559953D01*
X101531128Y-149482143D01*
X101625377Y-149373373D01*
X101685165Y-149242457D01*
X101688790Y-149217242D01*
X101693439Y-149184912D01*
X101720434Y-149130004D01*
X101774548Y-149101450D01*
X101791431Y-149100000D01*
X120201000Y-149100000D01*
X120259191Y-149118907D01*
X120295155Y-149168407D01*
X120300000Y-149199000D01*
X120300000Y-158024146D01*
X120281093Y-158082337D01*
X120231593Y-158118301D01*
X120170407Y-158118301D01*
X120120907Y-158082337D01*
X120109536Y-158062032D01*
X120030467Y-157871143D01*
X120030464Y-157871137D01*
X119898837Y-157656343D01*
X119898836Y-157656341D01*
X119898831Y-157656335D01*
X119735232Y-157464785D01*
X119735229Y-157464782D01*
X119735224Y-157464776D01*
X119735217Y-157464770D01*
X119735214Y-157464767D01*
X119543664Y-157301168D01*
X119543656Y-157301162D01*
X119328862Y-157169535D01*
X119328856Y-157169532D01*
X119096112Y-157073127D01*
X119096113Y-157073127D01*
X118851146Y-157014316D01*
X118737306Y-157005357D01*
X118662882Y-156999500D01*
X118537118Y-156999500D01*
X118466671Y-157005044D01*
X118348853Y-157014316D01*
X118103886Y-157073127D01*
X117871143Y-157169532D01*
X117871137Y-157169535D01*
X117656343Y-157301162D01*
X117656335Y-157301168D01*
X117464785Y-157464767D01*
X117464767Y-157464785D01*
X117301168Y-157656335D01*
X117301162Y-157656343D01*
X117169535Y-157871137D01*
X117169532Y-157871143D01*
X117073127Y-158103886D01*
X117014316Y-158348853D01*
X116994551Y-158600000D01*
X117014316Y-158851146D01*
X117073127Y-159096113D01*
X117169532Y-159328856D01*
X117169535Y-159328862D01*
X117301162Y-159543656D01*
X117301164Y-159543659D01*
X117464776Y-159735224D01*
X117656341Y-159898836D01*
X117656343Y-159898837D01*
X117871137Y-160030464D01*
X117871143Y-160030467D01*
X118103887Y-160126872D01*
X118103889Y-160126873D01*
X118348852Y-160185683D01*
X118537118Y-160200500D01*
X118537125Y-160200500D01*
X118662875Y-160200500D01*
X118662882Y-160200500D01*
X118851148Y-160185683D01*
X119096111Y-160126873D01*
X119328859Y-160030466D01*
X119543659Y-159898836D01*
X119735224Y-159735224D01*
X119898836Y-159543659D01*
X120030466Y-159328859D01*
X120109536Y-159137967D01*
X120149273Y-159091442D01*
X120208767Y-159077158D01*
X120265295Y-159100573D01*
X120297265Y-159152742D01*
X120300000Y-159175853D01*
X120300000Y-160400500D01*
X120281093Y-160458691D01*
X120231593Y-160494655D01*
X120201000Y-160499500D01*
X79799000Y-160499500D01*
X79740809Y-160480593D01*
X79704845Y-160431093D01*
X79700000Y-160400500D01*
X79700000Y-159175853D01*
X79718907Y-159117662D01*
X79768407Y-159081698D01*
X79829593Y-159081698D01*
X79879093Y-159117662D01*
X79890464Y-159137967D01*
X79969532Y-159328856D01*
X79969535Y-159328862D01*
X80101162Y-159543656D01*
X80101164Y-159543659D01*
X80264776Y-159735224D01*
X80456341Y-159898836D01*
X80456343Y-159898837D01*
X80671137Y-160030464D01*
X80671143Y-160030467D01*
X80903887Y-160126872D01*
X80903889Y-160126873D01*
X81148852Y-160185683D01*
X81337118Y-160200500D01*
X81337125Y-160200500D01*
X81462875Y-160200500D01*
X81462882Y-160200500D01*
X81651148Y-160185683D01*
X81896111Y-160126873D01*
X82128859Y-160030466D01*
X82343659Y-159898836D01*
X82535224Y-159735224D01*
X82698836Y-159543659D01*
X82830466Y-159328859D01*
X82926873Y-159096111D01*
X82971615Y-158909746D01*
X96409500Y-158909746D01*
X96409501Y-158909758D01*
X96421132Y-158968227D01*
X96421134Y-158968233D01*
X96465445Y-159034548D01*
X96465448Y-159034552D01*
X96531769Y-159078867D01*
X96576231Y-159087711D01*
X96590241Y-159090498D01*
X96590246Y-159090498D01*
X96590252Y-159090500D01*
X96590253Y-159090500D01*
X98329747Y-159090500D01*
X98329748Y-159090500D01*
X98388231Y-159078867D01*
X98454552Y-159034552D01*
X98498867Y-158968231D01*
X98510500Y-158909748D01*
X98510500Y-157170252D01*
X98510357Y-157169535D01*
X98507711Y-157156231D01*
X98498867Y-157111769D01*
X98454552Y-157045448D01*
X98454548Y-157045445D01*
X98388233Y-157001134D01*
X98388231Y-157001133D01*
X98388228Y-157001132D01*
X98388227Y-157001132D01*
X98329758Y-156989501D01*
X98329748Y-156989500D01*
X96590252Y-156989500D01*
X96590251Y-156989500D01*
X96590241Y-156989501D01*
X96531772Y-157001132D01*
X96531766Y-157001134D01*
X96465451Y-157045445D01*
X96465445Y-157045451D01*
X96421134Y-157111766D01*
X96421132Y-157111772D01*
X96409501Y-157170241D01*
X96409500Y-157170253D01*
X96409500Y-158909746D01*
X82971615Y-158909746D01*
X82985683Y-158851148D01*
X83005449Y-158600000D01*
X82985683Y-158348852D01*
X82926873Y-158103889D01*
X82925024Y-158099426D01*
X82830467Y-157871143D01*
X82830464Y-157871137D01*
X82698837Y-157656343D01*
X82698836Y-157656341D01*
X82698831Y-157656335D01*
X82535232Y-157464785D01*
X82535229Y-157464782D01*
X82535224Y-157464776D01*
X82535217Y-157464770D01*
X82535214Y-157464767D01*
X82343664Y-157301168D01*
X82343656Y-157301162D01*
X82128862Y-157169535D01*
X82128856Y-157169532D01*
X81896112Y-157073127D01*
X81896113Y-157073127D01*
X81651146Y-157014316D01*
X81537306Y-157005357D01*
X81462882Y-156999500D01*
X81337118Y-156999500D01*
X81266671Y-157005044D01*
X81148853Y-157014316D01*
X80903886Y-157073127D01*
X80671143Y-157169532D01*
X80671137Y-157169535D01*
X80456343Y-157301162D01*
X80456335Y-157301168D01*
X80264785Y-157464767D01*
X80264767Y-157464785D01*
X80101168Y-157656335D01*
X80101162Y-157656343D01*
X79969535Y-157871137D01*
X79969532Y-157871143D01*
X79890464Y-158062032D01*
X79850727Y-158108557D01*
X79791233Y-158122841D01*
X79734705Y-158099426D01*
X79702735Y-158047257D01*
X79700000Y-158024146D01*
X79700000Y-149199000D01*
X79718907Y-149140809D01*
X79768407Y-149104845D01*
X79799000Y-149100000D01*
X98375501Y-149100000D01*
X98433692Y-149118907D01*
G37*
%TD.AperFunction*%
%TD*%
%TA.AperFunction,Conductor*%
%TO.N,VEEA*%
G36*
X94512407Y-127118907D02*
G01*
X94548371Y-127168407D01*
X94548371Y-127229593D01*
X94529036Y-127263829D01*
X94488649Y-127310439D01*
X94474622Y-127326628D01*
X94414834Y-127457543D01*
X94394353Y-127599997D01*
X94394353Y-127600002D01*
X94414834Y-127742456D01*
X94441113Y-127799997D01*
X94474623Y-127873373D01*
X94568872Y-127982143D01*
X94568873Y-127982144D01*
X94689942Y-128059950D01*
X94689947Y-128059953D01*
X94796403Y-128091211D01*
X94828035Y-128100499D01*
X94828036Y-128100499D01*
X94828039Y-128100500D01*
X94828041Y-128100500D01*
X94971959Y-128100500D01*
X94971961Y-128100500D01*
X95110053Y-128059953D01*
X95231128Y-127982143D01*
X95325377Y-127873373D01*
X95385165Y-127742457D01*
X95405647Y-127600000D01*
X95385165Y-127457543D01*
X95325377Y-127326627D01*
X95270963Y-127263830D01*
X95247147Y-127207471D01*
X95261006Y-127147876D01*
X95307247Y-127107809D01*
X95345784Y-127100000D01*
X97501000Y-127100000D01*
X97559191Y-127118907D01*
X97595155Y-127168407D01*
X97600000Y-127199000D01*
X97600000Y-142601000D01*
X97581093Y-142659191D01*
X97531593Y-142695155D01*
X97501000Y-142700000D01*
X79799000Y-142700000D01*
X79740809Y-142681093D01*
X79704845Y-142631593D01*
X79700000Y-142601000D01*
X79700000Y-137600002D01*
X85694353Y-137600002D01*
X85714834Y-137742456D01*
X85774622Y-137873371D01*
X85774623Y-137873373D01*
X85868872Y-137982143D01*
X85868873Y-137982144D01*
X85989942Y-138059950D01*
X85989947Y-138059953D01*
X86096403Y-138091211D01*
X86128035Y-138100499D01*
X86128036Y-138100499D01*
X86128039Y-138100500D01*
X86128041Y-138100500D01*
X86271959Y-138100500D01*
X86271961Y-138100500D01*
X86410053Y-138059953D01*
X86531128Y-137982143D01*
X86625377Y-137873373D01*
X86685165Y-137742457D01*
X86705647Y-137600000D01*
X86685165Y-137457543D01*
X86625377Y-137326627D01*
X86531128Y-137217857D01*
X86531127Y-137217856D01*
X86531126Y-137217855D01*
X86410057Y-137140049D01*
X86410054Y-137140047D01*
X86410053Y-137140047D01*
X86410050Y-137140046D01*
X86271964Y-137099500D01*
X86271961Y-137099500D01*
X86128039Y-137099500D01*
X86128035Y-137099500D01*
X85989949Y-137140046D01*
X85989942Y-137140049D01*
X85868873Y-137217855D01*
X85774622Y-137326628D01*
X85714834Y-137457543D01*
X85694353Y-137599997D01*
X85694353Y-137600002D01*
X79700000Y-137600002D01*
X79700000Y-132800002D01*
X81994353Y-132800002D01*
X82014834Y-132942456D01*
X82074622Y-133073371D01*
X82074623Y-133073373D01*
X82168872Y-133182143D01*
X82168873Y-133182144D01*
X82289942Y-133259950D01*
X82289947Y-133259953D01*
X82396403Y-133291211D01*
X82428035Y-133300499D01*
X82428036Y-133300499D01*
X82428039Y-133300500D01*
X82428041Y-133300500D01*
X82571959Y-133300500D01*
X82571961Y-133300500D01*
X82710053Y-133259953D01*
X82831128Y-133182143D01*
X82925377Y-133073373D01*
X82985165Y-132942457D01*
X83005647Y-132800000D01*
X82985165Y-132657543D01*
X82925377Y-132526627D01*
X82831128Y-132417857D01*
X82831127Y-132417856D01*
X82831126Y-132417855D01*
X82710057Y-132340049D01*
X82710054Y-132340047D01*
X82710053Y-132340047D01*
X82710050Y-132340046D01*
X82571964Y-132299500D01*
X82571961Y-132299500D01*
X82428039Y-132299500D01*
X82428035Y-132299500D01*
X82289949Y-132340046D01*
X82289942Y-132340049D01*
X82168873Y-132417855D01*
X82074622Y-132526628D01*
X82014834Y-132657543D01*
X81994353Y-132799997D01*
X81994353Y-132800002D01*
X79700000Y-132800002D01*
X79700000Y-132100002D01*
X84994353Y-132100002D01*
X85014834Y-132242456D01*
X85040886Y-132299500D01*
X85074623Y-132373373D01*
X85168872Y-132482143D01*
X85168873Y-132482144D01*
X85238092Y-132526628D01*
X85289947Y-132559953D01*
X85396403Y-132591211D01*
X85428035Y-132600499D01*
X85428036Y-132600499D01*
X85428039Y-132600500D01*
X85428041Y-132600500D01*
X85571959Y-132600500D01*
X85571961Y-132600500D01*
X85710053Y-132559953D01*
X85831128Y-132482143D01*
X85925377Y-132373373D01*
X85985165Y-132242457D01*
X86005647Y-132100002D01*
X86894353Y-132100002D01*
X86914834Y-132242456D01*
X86940886Y-132299500D01*
X86974623Y-132373373D01*
X87068872Y-132482143D01*
X87068873Y-132482144D01*
X87138092Y-132526628D01*
X87189947Y-132559953D01*
X87296403Y-132591211D01*
X87328035Y-132600499D01*
X87328036Y-132600499D01*
X87328039Y-132600500D01*
X87328041Y-132600500D01*
X87471959Y-132600500D01*
X87471961Y-132600500D01*
X87610053Y-132559953D01*
X87731128Y-132482143D01*
X87825377Y-132373373D01*
X87885165Y-132242457D01*
X87905647Y-132100000D01*
X87885165Y-131957543D01*
X87825377Y-131826627D01*
X87731128Y-131717857D01*
X87731127Y-131717856D01*
X87731126Y-131717855D01*
X87610057Y-131640049D01*
X87610054Y-131640047D01*
X87610053Y-131640047D01*
X87610050Y-131640046D01*
X87471964Y-131599500D01*
X87471961Y-131599500D01*
X87328039Y-131599500D01*
X87328035Y-131599500D01*
X87189949Y-131640046D01*
X87189942Y-131640049D01*
X87068873Y-131717855D01*
X86974622Y-131826628D01*
X86914834Y-131957543D01*
X86894353Y-132099997D01*
X86894353Y-132100002D01*
X86005647Y-132100002D01*
X86005647Y-132100000D01*
X85985165Y-131957543D01*
X85925377Y-131826627D01*
X85831128Y-131717857D01*
X85831127Y-131717856D01*
X85831126Y-131717855D01*
X85710057Y-131640049D01*
X85710054Y-131640047D01*
X85710053Y-131640047D01*
X85710050Y-131640046D01*
X85571964Y-131599500D01*
X85571961Y-131599500D01*
X85428039Y-131599500D01*
X85428035Y-131599500D01*
X85289949Y-131640046D01*
X85289942Y-131640049D01*
X85168873Y-131717855D01*
X85074622Y-131826628D01*
X85014834Y-131957543D01*
X84994353Y-132099997D01*
X84994353Y-132100002D01*
X79700000Y-132100002D01*
X79700000Y-130200002D01*
X81194353Y-130200002D01*
X81214834Y-130342456D01*
X81268493Y-130459950D01*
X81274623Y-130473373D01*
X81368872Y-130582143D01*
X81368873Y-130582144D01*
X81489942Y-130659950D01*
X81489947Y-130659953D01*
X81596403Y-130691211D01*
X81628035Y-130700499D01*
X81628036Y-130700499D01*
X81628039Y-130700500D01*
X81628041Y-130700500D01*
X81771959Y-130700500D01*
X81771961Y-130700500D01*
X81910053Y-130659953D01*
X82031128Y-130582143D01*
X82125377Y-130473373D01*
X82185165Y-130342457D01*
X82205647Y-130200000D01*
X82185165Y-130057543D01*
X82158887Y-130000002D01*
X85894353Y-130000002D01*
X85914834Y-130142456D01*
X85941113Y-130199997D01*
X85974623Y-130273373D01*
X86068872Y-130382143D01*
X86068873Y-130382144D01*
X86189942Y-130459950D01*
X86189947Y-130459953D01*
X86296403Y-130491211D01*
X86328035Y-130500499D01*
X86328036Y-130500499D01*
X86328039Y-130500500D01*
X86328041Y-130500500D01*
X86471959Y-130500500D01*
X86471961Y-130500500D01*
X86610053Y-130459953D01*
X86731128Y-130382143D01*
X86825377Y-130273373D01*
X86885165Y-130142457D01*
X86905647Y-130000002D01*
X95594354Y-130000002D01*
X95614835Y-130142456D01*
X95641114Y-130199997D01*
X95674624Y-130273373D01*
X95768873Y-130382143D01*
X95768874Y-130382144D01*
X95889943Y-130459950D01*
X95889948Y-130459953D01*
X95996404Y-130491211D01*
X96028036Y-130500499D01*
X96028037Y-130500499D01*
X96028040Y-130500500D01*
X96028042Y-130500500D01*
X96171960Y-130500500D01*
X96171962Y-130500500D01*
X96310054Y-130459953D01*
X96431129Y-130382143D01*
X96525378Y-130273373D01*
X96585166Y-130142457D01*
X96605648Y-130000000D01*
X96585166Y-129857543D01*
X96525378Y-129726627D01*
X96431129Y-129617857D01*
X96431128Y-129617856D01*
X96431127Y-129617855D01*
X96310058Y-129540049D01*
X96310055Y-129540047D01*
X96310054Y-129540047D01*
X96310051Y-129540046D01*
X96171965Y-129499500D01*
X96171962Y-129499500D01*
X96028040Y-129499500D01*
X96028036Y-129499500D01*
X95889950Y-129540046D01*
X95889943Y-129540049D01*
X95768874Y-129617855D01*
X95674623Y-129726628D01*
X95614835Y-129857543D01*
X95594354Y-129999997D01*
X95594354Y-130000002D01*
X86905647Y-130000002D01*
X86905647Y-130000000D01*
X86885165Y-129857543D01*
X86825377Y-129726627D01*
X86731128Y-129617857D01*
X86731127Y-129617856D01*
X86731126Y-129617855D01*
X86610057Y-129540049D01*
X86610054Y-129540047D01*
X86610053Y-129540047D01*
X86610050Y-129540046D01*
X86471964Y-129499500D01*
X86471961Y-129499500D01*
X86328039Y-129499500D01*
X86328035Y-129499500D01*
X86189949Y-129540046D01*
X86189942Y-129540049D01*
X86068873Y-129617855D01*
X85974622Y-129726628D01*
X85914834Y-129857543D01*
X85894353Y-129999997D01*
X85894353Y-130000002D01*
X82158887Y-130000002D01*
X82125377Y-129926627D01*
X82031128Y-129817857D01*
X82031127Y-129817856D01*
X82031126Y-129817855D01*
X81910057Y-129740049D01*
X81910054Y-129740047D01*
X81910053Y-129740047D01*
X81910050Y-129740046D01*
X81771964Y-129699500D01*
X81771961Y-129699500D01*
X81628039Y-129699500D01*
X81628035Y-129699500D01*
X81489949Y-129740046D01*
X81489942Y-129740049D01*
X81368873Y-129817855D01*
X81274622Y-129926628D01*
X81214834Y-130057543D01*
X81194353Y-130199997D01*
X81194353Y-130200002D01*
X79700000Y-130200002D01*
X79700000Y-127800002D01*
X81894353Y-127800002D01*
X81914834Y-127942456D01*
X81968493Y-128059950D01*
X81974623Y-128073373D01*
X82068872Y-128182143D01*
X82068873Y-128182144D01*
X82189942Y-128259950D01*
X82189947Y-128259953D01*
X82296403Y-128291211D01*
X82328035Y-128300499D01*
X82328036Y-128300499D01*
X82328039Y-128300500D01*
X82328041Y-128300500D01*
X82471959Y-128300500D01*
X82471961Y-128300500D01*
X82610053Y-128259953D01*
X82731128Y-128182143D01*
X82825377Y-128073373D01*
X82885165Y-127942457D01*
X82905647Y-127800002D01*
X85894353Y-127800002D01*
X85914834Y-127942456D01*
X85968493Y-128059950D01*
X85974623Y-128073373D01*
X86068872Y-128182143D01*
X86068873Y-128182144D01*
X86189942Y-128259950D01*
X86189947Y-128259953D01*
X86296403Y-128291211D01*
X86328035Y-128300499D01*
X86328036Y-128300499D01*
X86328039Y-128300500D01*
X86328041Y-128300500D01*
X86471959Y-128300500D01*
X86471961Y-128300500D01*
X86610053Y-128259953D01*
X86731128Y-128182143D01*
X86825377Y-128073373D01*
X86885165Y-127942457D01*
X86905647Y-127800000D01*
X86885165Y-127657543D01*
X86825377Y-127526627D01*
X86731128Y-127417857D01*
X86731127Y-127417856D01*
X86731126Y-127417855D01*
X86610057Y-127340049D01*
X86610054Y-127340047D01*
X86610053Y-127340047D01*
X86610050Y-127340046D01*
X86471964Y-127299500D01*
X86471961Y-127299500D01*
X86328039Y-127299500D01*
X86328035Y-127299500D01*
X86189949Y-127340046D01*
X86189942Y-127340049D01*
X86068873Y-127417855D01*
X85974622Y-127526628D01*
X85914834Y-127657543D01*
X85894353Y-127799997D01*
X85894353Y-127800002D01*
X82905647Y-127800002D01*
X82905647Y-127800000D01*
X82885165Y-127657543D01*
X82825377Y-127526627D01*
X82731128Y-127417857D01*
X82731127Y-127417856D01*
X82731126Y-127417855D01*
X82610057Y-127340049D01*
X82610054Y-127340047D01*
X82610053Y-127340047D01*
X82610050Y-127340046D01*
X82471964Y-127299500D01*
X82471961Y-127299500D01*
X82328039Y-127299500D01*
X82328035Y-127299500D01*
X82189949Y-127340046D01*
X82189942Y-127340049D01*
X82068873Y-127417855D01*
X81974622Y-127526628D01*
X81914834Y-127657543D01*
X81894353Y-127799997D01*
X81894353Y-127800002D01*
X79700000Y-127800002D01*
X79700000Y-127199000D01*
X79718907Y-127140809D01*
X79768407Y-127104845D01*
X79799000Y-127100000D01*
X94454216Y-127100000D01*
X94512407Y-127118907D01*
G37*
%TD.AperFunction*%
%TD*%
%TA.AperFunction,Conductor*%
%TO.N,VEEB*%
G36*
X102712407Y-127118907D02*
G01*
X102748371Y-127168407D01*
X102748371Y-127229593D01*
X102729036Y-127263831D01*
X102674622Y-127326628D01*
X102614834Y-127457543D01*
X102596992Y-127581641D01*
X102588828Y-127598244D01*
X102596992Y-127618358D01*
X102614834Y-127742456D01*
X102674622Y-127873371D01*
X102674623Y-127873373D01*
X102768872Y-127982143D01*
X102768873Y-127982144D01*
X102889942Y-128059950D01*
X102889947Y-128059953D01*
X102996403Y-128091211D01*
X103028035Y-128100499D01*
X103028036Y-128100499D01*
X103028039Y-128100500D01*
X103028041Y-128100500D01*
X103171959Y-128100500D01*
X103171961Y-128100500D01*
X103310053Y-128059953D01*
X103431128Y-127982143D01*
X103525377Y-127873373D01*
X103585165Y-127742457D01*
X103605647Y-127600000D01*
X103603007Y-127581641D01*
X103585165Y-127457543D01*
X103525377Y-127326628D01*
X103525377Y-127326627D01*
X103470963Y-127263830D01*
X103447147Y-127207471D01*
X103461006Y-127147876D01*
X103507247Y-127107809D01*
X103545784Y-127100000D01*
X120201000Y-127100000D01*
X120259191Y-127118907D01*
X120295155Y-127168407D01*
X120300000Y-127199000D01*
X120300000Y-142601000D01*
X120281093Y-142659191D01*
X120231593Y-142695155D01*
X120201000Y-142700000D01*
X102499000Y-142700000D01*
X102440809Y-142681093D01*
X102404845Y-142631593D01*
X102400000Y-142601000D01*
X102400000Y-137075614D01*
X102418907Y-137017423D01*
X102468407Y-136981459D01*
X102529593Y-136981459D01*
X102545662Y-136988301D01*
X102596046Y-137015232D01*
X102733997Y-137057078D01*
X102794065Y-137075300D01*
X102794070Y-137075301D01*
X102999997Y-137095583D01*
X103000000Y-137095583D01*
X103000003Y-137095583D01*
X103205929Y-137075301D01*
X103205934Y-137075300D01*
X103403954Y-137015232D01*
X103586450Y-136917685D01*
X103746410Y-136786410D01*
X103877685Y-136626450D01*
X103975232Y-136443954D01*
X104035300Y-136245934D01*
X104035301Y-136245929D01*
X104055583Y-136040003D01*
X104055583Y-136039996D01*
X104035301Y-135834070D01*
X104035300Y-135834065D01*
X104017078Y-135773997D01*
X103975232Y-135636046D01*
X103877685Y-135453550D01*
X103746410Y-135293590D01*
X103746404Y-135293585D01*
X103586452Y-135162316D01*
X103403954Y-135064768D01*
X103205934Y-135004699D01*
X103205929Y-135004698D01*
X103000003Y-134984417D01*
X102999997Y-134984417D01*
X102794070Y-135004698D01*
X102794065Y-135004699D01*
X102596045Y-135064768D01*
X102596040Y-135064770D01*
X102545668Y-135091695D01*
X102485436Y-135102451D01*
X102430384Y-135075749D01*
X102401542Y-135021789D01*
X102400000Y-135004385D01*
X102400000Y-134649500D01*
X102418907Y-134591309D01*
X102468407Y-134555345D01*
X102499000Y-134550500D01*
X103869747Y-134550500D01*
X103869748Y-134550500D01*
X103928231Y-134538867D01*
X103986396Y-134500002D01*
X107994353Y-134500002D01*
X108014834Y-134642456D01*
X108018051Y-134649500D01*
X108074623Y-134773373D01*
X108168872Y-134882143D01*
X108168873Y-134882144D01*
X108289942Y-134959950D01*
X108289947Y-134959953D01*
X108373265Y-134984417D01*
X108428035Y-135000499D01*
X108428036Y-135000499D01*
X108428039Y-135000500D01*
X108428041Y-135000500D01*
X108571959Y-135000500D01*
X108571961Y-135000500D01*
X108710053Y-134959953D01*
X108831128Y-134882143D01*
X108925377Y-134773373D01*
X108985165Y-134642457D01*
X109005647Y-134500000D01*
X109004863Y-134494548D01*
X108985165Y-134357543D01*
X108925377Y-134226628D01*
X108925377Y-134226627D01*
X108831128Y-134117857D01*
X108831127Y-134117856D01*
X108831126Y-134117855D01*
X108710057Y-134040049D01*
X108710054Y-134040047D01*
X108710053Y-134040047D01*
X108710050Y-134040046D01*
X108571964Y-133999500D01*
X108571961Y-133999500D01*
X108428039Y-133999500D01*
X108428035Y-133999500D01*
X108289949Y-134040046D01*
X108289942Y-134040049D01*
X108168873Y-134117855D01*
X108074622Y-134226628D01*
X108014834Y-134357543D01*
X107994353Y-134499997D01*
X107994353Y-134500002D01*
X103986396Y-134500002D01*
X103994552Y-134494552D01*
X104038867Y-134428231D01*
X104050500Y-134369748D01*
X104050500Y-132630252D01*
X104038867Y-132571769D01*
X103994552Y-132505448D01*
X103959676Y-132482144D01*
X103928233Y-132461134D01*
X103928231Y-132461133D01*
X103928228Y-132461132D01*
X103928227Y-132461132D01*
X103869758Y-132449501D01*
X103869748Y-132449500D01*
X102499000Y-132449500D01*
X102440809Y-132430593D01*
X102404845Y-132381093D01*
X102400000Y-132350500D01*
X102400000Y-132100002D01*
X115694353Y-132100002D01*
X115714834Y-132242456D01*
X115764177Y-132350500D01*
X115774623Y-132373373D01*
X115824204Y-132430593D01*
X115868873Y-132482144D01*
X115905135Y-132505448D01*
X115989947Y-132559953D01*
X116096403Y-132591211D01*
X116128035Y-132600499D01*
X116128036Y-132600499D01*
X116128039Y-132600500D01*
X116128041Y-132600500D01*
X116271959Y-132600500D01*
X116271961Y-132600500D01*
X116410053Y-132559953D01*
X116531128Y-132482143D01*
X116625377Y-132373373D01*
X116685165Y-132242457D01*
X116705647Y-132100000D01*
X116685165Y-131957543D01*
X116625377Y-131826627D01*
X116531128Y-131717857D01*
X116531127Y-131717856D01*
X116531126Y-131717855D01*
X116410057Y-131640049D01*
X116410054Y-131640047D01*
X116410053Y-131640047D01*
X116410050Y-131640046D01*
X116271964Y-131599500D01*
X116271961Y-131599500D01*
X116128039Y-131599500D01*
X116128035Y-131599500D01*
X115989949Y-131640046D01*
X115989942Y-131640049D01*
X115868873Y-131717855D01*
X115774622Y-131826628D01*
X115714834Y-131957543D01*
X115694353Y-132099997D01*
X115694353Y-132100002D01*
X102400000Y-132100002D01*
X102400000Y-131400002D01*
X111794353Y-131400002D01*
X111814834Y-131542456D01*
X111840886Y-131599500D01*
X111874623Y-131673373D01*
X111968872Y-131782143D01*
X111968873Y-131782144D01*
X112038092Y-131826628D01*
X112089947Y-131859953D01*
X112196403Y-131891211D01*
X112228035Y-131900499D01*
X112228036Y-131900499D01*
X112228039Y-131900500D01*
X112228041Y-131900500D01*
X112371959Y-131900500D01*
X112371961Y-131900500D01*
X112510053Y-131859953D01*
X112631128Y-131782143D01*
X112725377Y-131673373D01*
X112785165Y-131542457D01*
X112805647Y-131400000D01*
X112785165Y-131257543D01*
X112725377Y-131126627D01*
X112643561Y-131032206D01*
X112638539Y-131020321D01*
X112628094Y-131015907D01*
X112510057Y-130940049D01*
X112510054Y-130940047D01*
X112510053Y-130940047D01*
X112510050Y-130940046D01*
X112371964Y-130899500D01*
X112371961Y-130899500D01*
X112228039Y-130899500D01*
X112228035Y-130899500D01*
X112089949Y-130940046D01*
X112089942Y-130940049D01*
X111968873Y-131017855D01*
X111874622Y-131126628D01*
X111814834Y-131257543D01*
X111794353Y-131399997D01*
X111794353Y-131400002D01*
X102400000Y-131400002D01*
X102400000Y-130000002D01*
X103194353Y-130000002D01*
X103214834Y-130142456D01*
X103253275Y-130226628D01*
X103274623Y-130273373D01*
X103347556Y-130357543D01*
X103368873Y-130382144D01*
X103489942Y-130459950D01*
X103489947Y-130459953D01*
X103596403Y-130491211D01*
X103628035Y-130500499D01*
X103628036Y-130500499D01*
X103628039Y-130500500D01*
X103628041Y-130500500D01*
X103771959Y-130500500D01*
X103771961Y-130500500D01*
X103773657Y-130500002D01*
X109894353Y-130500002D01*
X109914834Y-130642456D01*
X109974622Y-130773371D01*
X109974623Y-130773373D01*
X110056437Y-130867792D01*
X110068873Y-130882144D01*
X110189942Y-130959950D01*
X110189947Y-130959953D01*
X110296403Y-130991211D01*
X110328035Y-131000499D01*
X110328036Y-131000499D01*
X110328039Y-131000500D01*
X110328041Y-131000500D01*
X110471959Y-131000500D01*
X110471961Y-131000500D01*
X110610053Y-130959953D01*
X110731128Y-130882143D01*
X110825377Y-130773373D01*
X110885165Y-130642457D01*
X110905575Y-130500500D01*
X110905647Y-130500002D01*
X112594353Y-130500002D01*
X112614834Y-130642456D01*
X112674622Y-130773371D01*
X112674623Y-130773373D01*
X112756437Y-130867792D01*
X112761459Y-130879677D01*
X112771902Y-130884090D01*
X112889947Y-130959953D01*
X112996403Y-130991211D01*
X113028035Y-131000499D01*
X113028036Y-131000499D01*
X113028039Y-131000500D01*
X113028041Y-131000500D01*
X113171959Y-131000500D01*
X113171961Y-131000500D01*
X113310053Y-130959953D01*
X113431128Y-130882143D01*
X113525377Y-130773373D01*
X113585165Y-130642457D01*
X113605575Y-130500500D01*
X113605647Y-130500002D01*
X113605647Y-130499997D01*
X113585165Y-130357543D01*
X113546725Y-130273373D01*
X113525377Y-130226627D01*
X113431128Y-130117857D01*
X113431127Y-130117856D01*
X113431126Y-130117855D01*
X113310057Y-130040049D01*
X113310054Y-130040047D01*
X113310053Y-130040047D01*
X113310050Y-130040046D01*
X113171964Y-129999500D01*
X113171961Y-129999500D01*
X113028039Y-129999500D01*
X113028035Y-129999500D01*
X112889949Y-130040046D01*
X112889942Y-130040049D01*
X112768873Y-130117855D01*
X112674622Y-130226628D01*
X112614834Y-130357543D01*
X112594353Y-130499997D01*
X112594353Y-130500002D01*
X110905647Y-130500002D01*
X110905647Y-130499997D01*
X110885165Y-130357543D01*
X110846725Y-130273373D01*
X110825377Y-130226627D01*
X110731128Y-130117857D01*
X110731127Y-130117856D01*
X110731126Y-130117855D01*
X110610057Y-130040049D01*
X110610054Y-130040047D01*
X110610053Y-130040047D01*
X110610050Y-130040046D01*
X110471964Y-129999500D01*
X110471961Y-129999500D01*
X110328039Y-129999500D01*
X110328035Y-129999500D01*
X110189949Y-130040046D01*
X110189942Y-130040049D01*
X110068873Y-130117855D01*
X109974622Y-130226628D01*
X109914834Y-130357543D01*
X109894353Y-130499997D01*
X109894353Y-130500002D01*
X103773657Y-130500002D01*
X103910053Y-130459953D01*
X104031128Y-130382143D01*
X104125377Y-130273373D01*
X104185165Y-130142457D01*
X104205647Y-130000000D01*
X104205575Y-129999500D01*
X104185165Y-129857543D01*
X104125377Y-129726628D01*
X104125377Y-129726627D01*
X104031128Y-129617857D01*
X104031127Y-129617856D01*
X104031126Y-129617855D01*
X103910057Y-129540049D01*
X103910054Y-129540047D01*
X103910053Y-129540047D01*
X103910050Y-129540046D01*
X103771964Y-129499500D01*
X103771961Y-129499500D01*
X103628039Y-129499500D01*
X103628035Y-129499500D01*
X103489949Y-129540046D01*
X103489942Y-129540049D01*
X103368873Y-129617855D01*
X103274622Y-129726628D01*
X103214834Y-129857543D01*
X103194353Y-129999997D01*
X103194353Y-130000002D01*
X102400000Y-130000002D01*
X102400000Y-129000002D01*
X113994353Y-129000002D01*
X114014834Y-129142456D01*
X114074622Y-129273371D01*
X114074623Y-129273373D01*
X114168872Y-129382143D01*
X114168873Y-129382144D01*
X114289942Y-129459950D01*
X114289947Y-129459953D01*
X114396403Y-129491211D01*
X114428035Y-129500499D01*
X114428036Y-129500499D01*
X114428039Y-129500500D01*
X114428041Y-129500500D01*
X114571959Y-129500500D01*
X114571961Y-129500500D01*
X114710053Y-129459953D01*
X114831128Y-129382143D01*
X114925377Y-129273373D01*
X114985165Y-129142457D01*
X115005647Y-129000000D01*
X114985165Y-128857543D01*
X114925377Y-128726627D01*
X114831128Y-128617857D01*
X114831127Y-128617856D01*
X114831126Y-128617855D01*
X114710057Y-128540049D01*
X114710054Y-128540047D01*
X114710053Y-128540047D01*
X114710050Y-128540046D01*
X114571964Y-128499500D01*
X114571961Y-128499500D01*
X114428039Y-128499500D01*
X114428035Y-128499500D01*
X114289949Y-128540046D01*
X114289942Y-128540049D01*
X114168873Y-128617855D01*
X114074622Y-128726628D01*
X114014834Y-128857543D01*
X113994353Y-128999997D01*
X113994353Y-129000002D01*
X102400000Y-129000002D01*
X102400000Y-127632447D01*
X102409119Y-127604378D01*
X102400000Y-127567552D01*
X102400000Y-127199000D01*
X102418907Y-127140809D01*
X102468407Y-127104845D01*
X102499000Y-127100000D01*
X102654216Y-127100000D01*
X102712407Y-127118907D01*
G37*
%TD.AperFunction*%
%TD*%
%TA.AperFunction,Conductor*%
%TO.N,DCN*%
G36*
X115959191Y-89618907D02*
G01*
X115995155Y-89668407D01*
X116000000Y-89699000D01*
X116000000Y-94962723D01*
X115981093Y-95020914D01*
X115931593Y-95056878D01*
X115870407Y-95056878D01*
X115826181Y-95027554D01*
X115731129Y-94917858D01*
X115731127Y-94917856D01*
X115610057Y-94840049D01*
X115610054Y-94840047D01*
X115610053Y-94840047D01*
X115610050Y-94840046D01*
X115471964Y-94799500D01*
X115471961Y-94799500D01*
X115328039Y-94799500D01*
X115328035Y-94799500D01*
X115189949Y-94840046D01*
X115189942Y-94840049D01*
X115068873Y-94917855D01*
X114974622Y-95026628D01*
X114914834Y-95157543D01*
X114905684Y-95221186D01*
X114878688Y-95276094D01*
X114831188Y-95301157D01*
X114851372Y-95304059D01*
X114895251Y-95346701D01*
X114905684Y-95378813D01*
X114914834Y-95442456D01*
X114960807Y-95543121D01*
X114974623Y-95573373D01*
X115029995Y-95637276D01*
X115068873Y-95682144D01*
X115189942Y-95759950D01*
X115189947Y-95759953D01*
X115296403Y-95791211D01*
X115328035Y-95800499D01*
X115328036Y-95800499D01*
X115328039Y-95800500D01*
X115328041Y-95800500D01*
X115471959Y-95800500D01*
X115471961Y-95800500D01*
X115610053Y-95759953D01*
X115731128Y-95682143D01*
X115825377Y-95573373D01*
X115825378Y-95573370D01*
X115826180Y-95572445D01*
X115878576Y-95540849D01*
X115939537Y-95546084D01*
X115985778Y-95586152D01*
X116000000Y-95637276D01*
X116000000Y-106763688D01*
X115981093Y-106821879D01*
X115952593Y-106846221D01*
X115953082Y-106846894D01*
X115946782Y-106851470D01*
X115851470Y-106946782D01*
X115790282Y-107066870D01*
X115790281Y-107066872D01*
X115769196Y-107199999D01*
X115769196Y-107200000D01*
X115790281Y-107333127D01*
X115790282Y-107333129D01*
X115840733Y-107432144D01*
X115851472Y-107453220D01*
X115946780Y-107548528D01*
X115946782Y-107548529D01*
X115946783Y-107548530D01*
X115953084Y-107553108D01*
X115952186Y-107554343D01*
X115989209Y-107591365D01*
X116000000Y-107636312D01*
X116000000Y-111801000D01*
X115981093Y-111859191D01*
X115931593Y-111895155D01*
X115901000Y-111900000D01*
X104699000Y-111900000D01*
X104640809Y-111881093D01*
X104604845Y-111831593D01*
X104600000Y-111801000D01*
X104600000Y-110000001D01*
X104600000Y-110000000D01*
X104599999Y-110000000D01*
X103399000Y-110000000D01*
X103340809Y-109981093D01*
X103304845Y-109931593D01*
X103300000Y-109901000D01*
X103300000Y-108949000D01*
X103318907Y-108890809D01*
X103368407Y-108854845D01*
X103399000Y-108850000D01*
X103701000Y-108850000D01*
X103759191Y-108868907D01*
X103795155Y-108918407D01*
X103800000Y-108949000D01*
X103800000Y-109520000D01*
X103800001Y-109520000D01*
X106597999Y-109520000D01*
X106598000Y-109520000D01*
X106598000Y-108520000D01*
X106597999Y-108520000D01*
X105670173Y-108520000D01*
X105611982Y-108501093D01*
X105576018Y-108451593D01*
X105576018Y-108390407D01*
X105611982Y-108340907D01*
X105625227Y-108332791D01*
X105653220Y-108318528D01*
X105748528Y-108223220D01*
X105809719Y-108103126D01*
X105830804Y-107970000D01*
X105809719Y-107836874D01*
X105748528Y-107716780D01*
X105674870Y-107643122D01*
X105647095Y-107588608D01*
X105656666Y-107528176D01*
X105691349Y-107489840D01*
X105781128Y-107432143D01*
X105875377Y-107323373D01*
X105935165Y-107192457D01*
X105953221Y-107066872D01*
X105955647Y-107050002D01*
X113044353Y-107050002D01*
X113064834Y-107192456D01*
X113124622Y-107323371D01*
X113124623Y-107323373D01*
X113133077Y-107333129D01*
X113218873Y-107432144D01*
X113308644Y-107489836D01*
X113339947Y-107509953D01*
X113402010Y-107528176D01*
X113478035Y-107550499D01*
X113478036Y-107550499D01*
X113478039Y-107550500D01*
X113478041Y-107550500D01*
X113621959Y-107550500D01*
X113621961Y-107550500D01*
X113760053Y-107509953D01*
X113881128Y-107432143D01*
X113975377Y-107323373D01*
X114035165Y-107192457D01*
X114053221Y-107066872D01*
X114055647Y-107050002D01*
X114055647Y-107049997D01*
X114035165Y-106907543D01*
X113989992Y-106808629D01*
X113975377Y-106776627D01*
X113881128Y-106667857D01*
X113881127Y-106667856D01*
X113881126Y-106667855D01*
X113760057Y-106590049D01*
X113760054Y-106590047D01*
X113760053Y-106590047D01*
X113760050Y-106590046D01*
X113621964Y-106549500D01*
X113621961Y-106549500D01*
X113478039Y-106549500D01*
X113478035Y-106549500D01*
X113339949Y-106590046D01*
X113339942Y-106590049D01*
X113218873Y-106667855D01*
X113124622Y-106776628D01*
X113064834Y-106907543D01*
X113044353Y-107049997D01*
X113044353Y-107050002D01*
X105955647Y-107050002D01*
X105955647Y-107049997D01*
X105935165Y-106907543D01*
X105889992Y-106808629D01*
X105875377Y-106776627D01*
X105781128Y-106667857D01*
X105781127Y-106667856D01*
X105781126Y-106667855D01*
X105660057Y-106590049D01*
X105660054Y-106590047D01*
X105660053Y-106590047D01*
X105660050Y-106590046D01*
X105521964Y-106549500D01*
X105521961Y-106549500D01*
X105378039Y-106549500D01*
X105378035Y-106549500D01*
X105239949Y-106590046D01*
X105239942Y-106590049D01*
X105118873Y-106667855D01*
X105024622Y-106776628D01*
X104964834Y-106907543D01*
X104944353Y-107049997D01*
X104944353Y-107050002D01*
X104964834Y-107192456D01*
X105024622Y-107323371D01*
X105024623Y-107323373D01*
X105118872Y-107432143D01*
X105150487Y-107452461D01*
X105189217Y-107499825D01*
X105192711Y-107560911D01*
X105159632Y-107612384D01*
X105152967Y-107616736D01*
X105153082Y-107616894D01*
X105146782Y-107621470D01*
X105051470Y-107716782D01*
X104986743Y-107843816D01*
X104985608Y-107843238D01*
X104954357Y-107886252D01*
X104896166Y-107905159D01*
X104837975Y-107886252D01*
X104826162Y-107876163D01*
X104800000Y-107850001D01*
X104800000Y-107850000D01*
X104799999Y-107850000D01*
X103399000Y-107850000D01*
X103340809Y-107831093D01*
X103304845Y-107781593D01*
X103300000Y-107751000D01*
X103300000Y-106349000D01*
X103318907Y-106290809D01*
X103368407Y-106254845D01*
X103399000Y-106250000D01*
X104799999Y-106250000D01*
X104800000Y-106250000D01*
X104800000Y-105319000D01*
X104818907Y-105260809D01*
X104868407Y-105224845D01*
X104899000Y-105220000D01*
X106597999Y-105220000D01*
X106598000Y-105220000D01*
X106598000Y-104220000D01*
X105670173Y-104220000D01*
X105611982Y-104201093D01*
X105576018Y-104151593D01*
X105576018Y-104090407D01*
X105611982Y-104040907D01*
X105625227Y-104032791D01*
X105653220Y-104018528D01*
X105748528Y-103923220D01*
X105809719Y-103803126D01*
X105830804Y-103670000D01*
X105809719Y-103536874D01*
X105748528Y-103416780D01*
X105653220Y-103321472D01*
X105653217Y-103321470D01*
X105533129Y-103260282D01*
X105533127Y-103260281D01*
X105400000Y-103239196D01*
X105266872Y-103260281D01*
X105266870Y-103260282D01*
X105146782Y-103321470D01*
X105051470Y-103416782D01*
X104990282Y-103536870D01*
X104990281Y-103536872D01*
X104969196Y-103669999D01*
X104969196Y-103670000D01*
X104990281Y-103803127D01*
X104990282Y-103803129D01*
X105051470Y-103923217D01*
X105051472Y-103923220D01*
X105146780Y-104018528D01*
X105174773Y-104032791D01*
X105218037Y-104076055D01*
X105227608Y-104136488D01*
X105199830Y-104191004D01*
X105145313Y-104218781D01*
X105129827Y-104220000D01*
X104800000Y-104220000D01*
X103800000Y-104220000D01*
X103800000Y-104220001D01*
X103800000Y-105151000D01*
X103781093Y-105209191D01*
X103731593Y-105245155D01*
X103701000Y-105250000D01*
X103399000Y-105250000D01*
X103340809Y-105231093D01*
X103304845Y-105181593D01*
X103300000Y-105151000D01*
X103300000Y-103300001D01*
X103300000Y-103300000D01*
X96700000Y-103300000D01*
X96700000Y-103300001D01*
X96700000Y-105151000D01*
X96681093Y-105209191D01*
X96631593Y-105245155D01*
X96601000Y-105250000D01*
X96299000Y-105250000D01*
X96240809Y-105231093D01*
X96204845Y-105181593D01*
X96200000Y-105151000D01*
X96200000Y-104580001D01*
X96200000Y-104580000D01*
X93402000Y-104580000D01*
X93402000Y-105580000D01*
X94329827Y-105580000D01*
X94388018Y-105598907D01*
X94423982Y-105648407D01*
X94423982Y-105709593D01*
X94388018Y-105759093D01*
X94374773Y-105767209D01*
X94346781Y-105781471D01*
X94251470Y-105876782D01*
X94190282Y-105996870D01*
X94190281Y-105996872D01*
X94169196Y-106129999D01*
X94169196Y-106130000D01*
X94190281Y-106263127D01*
X94190282Y-106263129D01*
X94204386Y-106290809D01*
X94251472Y-106383220D01*
X94325128Y-106456876D01*
X94352904Y-106511391D01*
X94343333Y-106571823D01*
X94308647Y-106610162D01*
X94218873Y-106667857D01*
X94124623Y-106776628D01*
X94064835Y-106907543D01*
X94044354Y-107049997D01*
X94044354Y-107050002D01*
X94064835Y-107192456D01*
X94124623Y-107323371D01*
X94124624Y-107323373D01*
X94133078Y-107333129D01*
X94218874Y-107432144D01*
X94308645Y-107489836D01*
X94339948Y-107509953D01*
X94402011Y-107528176D01*
X94478036Y-107550499D01*
X94478037Y-107550499D01*
X94478040Y-107550500D01*
X94478042Y-107550500D01*
X94621960Y-107550500D01*
X94621962Y-107550500D01*
X94760054Y-107509953D01*
X94881129Y-107432143D01*
X94975378Y-107323373D01*
X95035166Y-107192457D01*
X95053222Y-107066872D01*
X95055648Y-107050002D01*
X95055648Y-107049997D01*
X95035166Y-106907543D01*
X94989993Y-106808629D01*
X94975378Y-106776627D01*
X94881129Y-106667857D01*
X94849512Y-106647538D01*
X94810781Y-106600171D01*
X94807289Y-106539086D01*
X94840368Y-106487614D01*
X94847033Y-106483264D01*
X94846918Y-106483106D01*
X94853214Y-106478530D01*
X94853220Y-106478528D01*
X94948528Y-106383220D01*
X94995614Y-106290809D01*
X95013257Y-106256184D01*
X95014393Y-106256763D01*
X95045629Y-106213757D01*
X95103817Y-106194840D01*
X95162010Y-106213738D01*
X95173837Y-106223836D01*
X95200000Y-106249999D01*
X95200000Y-106250000D01*
X96601000Y-106250000D01*
X96659191Y-106268907D01*
X96695155Y-106318407D01*
X96700000Y-106349000D01*
X96700000Y-107751000D01*
X96681093Y-107809191D01*
X96631593Y-107845155D01*
X96601000Y-107850000D01*
X96200000Y-107850000D01*
X95200000Y-107850000D01*
X95200000Y-107850001D01*
X95200000Y-108780999D01*
X95181093Y-108839190D01*
X95131593Y-108875154D01*
X95101000Y-108879999D01*
X93402000Y-108879999D01*
X93402000Y-109879999D01*
X93402001Y-109879999D01*
X94329829Y-109879999D01*
X94388020Y-109898906D01*
X94423984Y-109948406D01*
X94423984Y-110009592D01*
X94388020Y-110059092D01*
X94374774Y-110067208D01*
X94346782Y-110081470D01*
X94251470Y-110176782D01*
X94190282Y-110296870D01*
X94190281Y-110296872D01*
X94169196Y-110429999D01*
X94169196Y-110430000D01*
X94190281Y-110563127D01*
X94190282Y-110563129D01*
X94251470Y-110683217D01*
X94251472Y-110683220D01*
X94346780Y-110778528D01*
X94466874Y-110839719D01*
X94600000Y-110860804D01*
X94733126Y-110839719D01*
X94853220Y-110778528D01*
X94948528Y-110683220D01*
X95009719Y-110563126D01*
X95030804Y-110430000D01*
X95009719Y-110296874D01*
X94948528Y-110176780D01*
X94853220Y-110081472D01*
X94853217Y-110081470D01*
X94825226Y-110067208D01*
X94781961Y-110023944D01*
X94772390Y-109963512D01*
X94800168Y-109908995D01*
X94854684Y-109881218D01*
X94870171Y-109879999D01*
X95301000Y-109879999D01*
X95359191Y-109898906D01*
X95395155Y-109948406D01*
X95400000Y-109978999D01*
X95400000Y-111801000D01*
X95381093Y-111859191D01*
X95331593Y-111895155D01*
X95301000Y-111900000D01*
X84099000Y-111900000D01*
X84040809Y-111881093D01*
X84004845Y-111831593D01*
X84000000Y-111801000D01*
X84000000Y-107636312D01*
X84018907Y-107578121D01*
X84047405Y-107553781D01*
X84046916Y-107553108D01*
X84053216Y-107548530D01*
X84053215Y-107548530D01*
X84053220Y-107548528D01*
X84148528Y-107453220D01*
X84209719Y-107333126D01*
X84230804Y-107200000D01*
X84209719Y-107066874D01*
X84201122Y-107050002D01*
X85944353Y-107050002D01*
X85964834Y-107192456D01*
X86024622Y-107323371D01*
X86024623Y-107323373D01*
X86033077Y-107333129D01*
X86118873Y-107432144D01*
X86208644Y-107489836D01*
X86239947Y-107509953D01*
X86302010Y-107528176D01*
X86378035Y-107550499D01*
X86378036Y-107550499D01*
X86378039Y-107550500D01*
X86378041Y-107550500D01*
X86521959Y-107550500D01*
X86521961Y-107550500D01*
X86660053Y-107509953D01*
X86781128Y-107432143D01*
X86875377Y-107323373D01*
X86935165Y-107192457D01*
X86953221Y-107066872D01*
X86955647Y-107050002D01*
X86955647Y-107049997D01*
X86935165Y-106907543D01*
X86889992Y-106808629D01*
X86875377Y-106776627D01*
X86781128Y-106667857D01*
X86781127Y-106667856D01*
X86781126Y-106667855D01*
X86660057Y-106590049D01*
X86660054Y-106590047D01*
X86660053Y-106590047D01*
X86660050Y-106590046D01*
X86521964Y-106549500D01*
X86521961Y-106549500D01*
X86378039Y-106549500D01*
X86378035Y-106549500D01*
X86239949Y-106590046D01*
X86239942Y-106590049D01*
X86118873Y-106667855D01*
X86024622Y-106776628D01*
X85964834Y-106907543D01*
X85944353Y-107049997D01*
X85944353Y-107050002D01*
X84201122Y-107050002D01*
X84148528Y-106946780D01*
X84053220Y-106851472D01*
X84053217Y-106851470D01*
X84046918Y-106846894D01*
X84047814Y-106845659D01*
X84010788Y-106808629D01*
X84000000Y-106763688D01*
X84000000Y-102500002D01*
X85944353Y-102500002D01*
X85964834Y-102642456D01*
X86000000Y-102719457D01*
X86024623Y-102773373D01*
X86118871Y-102882142D01*
X86118873Y-102882144D01*
X86239942Y-102959950D01*
X86239947Y-102959953D01*
X86346403Y-102991211D01*
X86378035Y-103000499D01*
X86378036Y-103000499D01*
X86378039Y-103000500D01*
X86378041Y-103000500D01*
X86521959Y-103000500D01*
X86521961Y-103000500D01*
X86660053Y-102959953D01*
X86781128Y-102882143D01*
X86825181Y-102831302D01*
X86877576Y-102799707D01*
X86938537Y-102804942D01*
X86974817Y-102831301D01*
X87018871Y-102882142D01*
X87018873Y-102882144D01*
X87139942Y-102959950D01*
X87139947Y-102959953D01*
X87246403Y-102991211D01*
X87278035Y-103000499D01*
X87278036Y-103000499D01*
X87278039Y-103000500D01*
X87278041Y-103000500D01*
X87421959Y-103000500D01*
X87421961Y-103000500D01*
X87560053Y-102959953D01*
X87681128Y-102882143D01*
X87725181Y-102831302D01*
X87777576Y-102799707D01*
X87838537Y-102804942D01*
X87874817Y-102831301D01*
X87918871Y-102882142D01*
X87918873Y-102882144D01*
X88039942Y-102959950D01*
X88039947Y-102959953D01*
X88146403Y-102991211D01*
X88178035Y-103000499D01*
X88178036Y-103000499D01*
X88178039Y-103000500D01*
X88178041Y-103000500D01*
X88321959Y-103000500D01*
X88321961Y-103000500D01*
X88460053Y-102959953D01*
X88581128Y-102882143D01*
X88625181Y-102831302D01*
X88677576Y-102799707D01*
X88738537Y-102804942D01*
X88774817Y-102831301D01*
X88818871Y-102882142D01*
X88818873Y-102882144D01*
X88939942Y-102959950D01*
X88939947Y-102959953D01*
X89046403Y-102991211D01*
X89078035Y-103000499D01*
X89078036Y-103000499D01*
X89078039Y-103000500D01*
X89078041Y-103000500D01*
X89221959Y-103000500D01*
X89221961Y-103000500D01*
X89360053Y-102959953D01*
X89481128Y-102882143D01*
X89525181Y-102831302D01*
X89577576Y-102799707D01*
X89638537Y-102804942D01*
X89674817Y-102831301D01*
X89718871Y-102882142D01*
X89718873Y-102882144D01*
X89839942Y-102959950D01*
X89839947Y-102959953D01*
X89946403Y-102991211D01*
X89978035Y-103000499D01*
X89978036Y-103000499D01*
X89978039Y-103000500D01*
X89978041Y-103000500D01*
X90121959Y-103000500D01*
X90121961Y-103000500D01*
X90260053Y-102959953D01*
X90381128Y-102882143D01*
X90425181Y-102831302D01*
X90477576Y-102799707D01*
X90538537Y-102804942D01*
X90574817Y-102831301D01*
X90618871Y-102882142D01*
X90618873Y-102882144D01*
X90739942Y-102959950D01*
X90739947Y-102959953D01*
X90846403Y-102991211D01*
X90878035Y-103000499D01*
X90878036Y-103000499D01*
X90878039Y-103000500D01*
X90878041Y-103000500D01*
X91021959Y-103000500D01*
X91021961Y-103000500D01*
X91160053Y-102959953D01*
X91281128Y-102882143D01*
X91325181Y-102831302D01*
X91377575Y-102799706D01*
X91438536Y-102804941D01*
X91474818Y-102831300D01*
X91518872Y-102882142D01*
X91518874Y-102882144D01*
X91639943Y-102959950D01*
X91639948Y-102959953D01*
X91746404Y-102991211D01*
X91778036Y-103000499D01*
X91778037Y-103000499D01*
X91778040Y-103000500D01*
X91778042Y-103000500D01*
X91921960Y-103000500D01*
X91921962Y-103000500D01*
X92060054Y-102959953D01*
X92181129Y-102882143D01*
X92225181Y-102831302D01*
X92277575Y-102799707D01*
X92338536Y-102804942D01*
X92374817Y-102831301D01*
X92418871Y-102882142D01*
X92418873Y-102882144D01*
X92539942Y-102959950D01*
X92539947Y-102959953D01*
X92646403Y-102991211D01*
X92678035Y-103000499D01*
X92678036Y-103000499D01*
X92678039Y-103000500D01*
X92678041Y-103000500D01*
X92821959Y-103000500D01*
X92821961Y-103000500D01*
X92960053Y-102959953D01*
X93081128Y-102882143D01*
X93125181Y-102831302D01*
X93177576Y-102799707D01*
X93238537Y-102804942D01*
X93274817Y-102831301D01*
X93318871Y-102882142D01*
X93318873Y-102882144D01*
X93439942Y-102959950D01*
X93439947Y-102959953D01*
X93546403Y-102991211D01*
X93578035Y-103000499D01*
X93578036Y-103000499D01*
X93578039Y-103000500D01*
X93578041Y-103000500D01*
X93721959Y-103000500D01*
X93721961Y-103000500D01*
X93860053Y-102959953D01*
X93981128Y-102882143D01*
X94025181Y-102831302D01*
X94077575Y-102799706D01*
X94138536Y-102804941D01*
X94174818Y-102831300D01*
X94218872Y-102882142D01*
X94218874Y-102882144D01*
X94339943Y-102959950D01*
X94339948Y-102959953D01*
X94446404Y-102991211D01*
X94478036Y-103000499D01*
X94478037Y-103000499D01*
X94478040Y-103000500D01*
X94478042Y-103000500D01*
X94621960Y-103000500D01*
X94621962Y-103000500D01*
X94760054Y-102959953D01*
X94881129Y-102882143D01*
X94975378Y-102773373D01*
X95035166Y-102642457D01*
X95055648Y-102500002D01*
X104944353Y-102500002D01*
X104964834Y-102642456D01*
X105000000Y-102719457D01*
X105024623Y-102773373D01*
X105118871Y-102882142D01*
X105118873Y-102882144D01*
X105239942Y-102959950D01*
X105239947Y-102959953D01*
X105346403Y-102991211D01*
X105378035Y-103000499D01*
X105378036Y-103000499D01*
X105378039Y-103000500D01*
X105378041Y-103000500D01*
X105521959Y-103000500D01*
X105521961Y-103000500D01*
X105660053Y-102959953D01*
X105781128Y-102882143D01*
X105825181Y-102831302D01*
X105877576Y-102799707D01*
X105938537Y-102804942D01*
X105974817Y-102831301D01*
X106018871Y-102882142D01*
X106018873Y-102882144D01*
X106139942Y-102959950D01*
X106139947Y-102959953D01*
X106246403Y-102991211D01*
X106278035Y-103000499D01*
X106278036Y-103000499D01*
X106278039Y-103000500D01*
X106278041Y-103000500D01*
X106421959Y-103000500D01*
X106421961Y-103000500D01*
X106560053Y-102959953D01*
X106681128Y-102882143D01*
X106725181Y-102831302D01*
X106777576Y-102799707D01*
X106838537Y-102804942D01*
X106874817Y-102831301D01*
X106918871Y-102882142D01*
X106918873Y-102882144D01*
X107039942Y-102959950D01*
X107039947Y-102959953D01*
X107146403Y-102991211D01*
X107178035Y-103000499D01*
X107178036Y-103000499D01*
X107178039Y-103000500D01*
X107178041Y-103000500D01*
X107321959Y-103000500D01*
X107321961Y-103000500D01*
X107460053Y-102959953D01*
X107581128Y-102882143D01*
X107625181Y-102831302D01*
X107677576Y-102799707D01*
X107738537Y-102804942D01*
X107774817Y-102831301D01*
X107818871Y-102882142D01*
X107818873Y-102882144D01*
X107939942Y-102959950D01*
X107939947Y-102959953D01*
X108046403Y-102991211D01*
X108078035Y-103000499D01*
X108078036Y-103000499D01*
X108078039Y-103000500D01*
X108078041Y-103000500D01*
X108221959Y-103000500D01*
X108221961Y-103000500D01*
X108360053Y-102959953D01*
X108481128Y-102882143D01*
X108525181Y-102831302D01*
X108577576Y-102799707D01*
X108638537Y-102804942D01*
X108674817Y-102831301D01*
X108718871Y-102882142D01*
X108718873Y-102882144D01*
X108839942Y-102959950D01*
X108839947Y-102959953D01*
X108946403Y-102991211D01*
X108978035Y-103000499D01*
X108978036Y-103000499D01*
X108978039Y-103000500D01*
X108978041Y-103000500D01*
X109121959Y-103000500D01*
X109121961Y-103000500D01*
X109260053Y-102959953D01*
X109381128Y-102882143D01*
X109425181Y-102831302D01*
X109477576Y-102799707D01*
X109538537Y-102804942D01*
X109574817Y-102831301D01*
X109618871Y-102882142D01*
X109618873Y-102882144D01*
X109739942Y-102959950D01*
X109739947Y-102959953D01*
X109846403Y-102991211D01*
X109878035Y-103000499D01*
X109878036Y-103000499D01*
X109878039Y-103000500D01*
X109878041Y-103000500D01*
X110021959Y-103000500D01*
X110021961Y-103000500D01*
X110160053Y-102959953D01*
X110281128Y-102882143D01*
X110325181Y-102831302D01*
X110377576Y-102799707D01*
X110438537Y-102804942D01*
X110474817Y-102831301D01*
X110518871Y-102882142D01*
X110518873Y-102882144D01*
X110639942Y-102959950D01*
X110639947Y-102959953D01*
X110746403Y-102991211D01*
X110778035Y-103000499D01*
X110778036Y-103000499D01*
X110778039Y-103000500D01*
X110778041Y-103000500D01*
X110921959Y-103000500D01*
X110921961Y-103000500D01*
X111060053Y-102959953D01*
X111181128Y-102882143D01*
X111225181Y-102831302D01*
X111277576Y-102799707D01*
X111338537Y-102804942D01*
X111374817Y-102831301D01*
X111418871Y-102882142D01*
X111418873Y-102882144D01*
X111539942Y-102959950D01*
X111539947Y-102959953D01*
X111646403Y-102991211D01*
X111678035Y-103000499D01*
X111678036Y-103000499D01*
X111678039Y-103000500D01*
X111678041Y-103000500D01*
X111821959Y-103000500D01*
X111821961Y-103000500D01*
X111960053Y-102959953D01*
X112081128Y-102882143D01*
X112125181Y-102831302D01*
X112177576Y-102799707D01*
X112238537Y-102804942D01*
X112274817Y-102831301D01*
X112318871Y-102882142D01*
X112318873Y-102882144D01*
X112439942Y-102959950D01*
X112439947Y-102959953D01*
X112546403Y-102991211D01*
X112578035Y-103000499D01*
X112578036Y-103000499D01*
X112578039Y-103000500D01*
X112578041Y-103000500D01*
X112721959Y-103000500D01*
X112721961Y-103000500D01*
X112860053Y-102959953D01*
X112981128Y-102882143D01*
X113025181Y-102831302D01*
X113077576Y-102799707D01*
X113138537Y-102804942D01*
X113174817Y-102831301D01*
X113218871Y-102882142D01*
X113218873Y-102882144D01*
X113339942Y-102959950D01*
X113339947Y-102959953D01*
X113446403Y-102991211D01*
X113478035Y-103000499D01*
X113478036Y-103000499D01*
X113478039Y-103000500D01*
X113478041Y-103000500D01*
X113621959Y-103000500D01*
X113621961Y-103000500D01*
X113760053Y-102959953D01*
X113881128Y-102882143D01*
X113975377Y-102773373D01*
X114035165Y-102642457D01*
X114055647Y-102500000D01*
X114035165Y-102357543D01*
X113975377Y-102226627D01*
X113881128Y-102117857D01*
X113881127Y-102117856D01*
X113881126Y-102117855D01*
X113760057Y-102040049D01*
X113760054Y-102040047D01*
X113760053Y-102040047D01*
X113760050Y-102040046D01*
X113621964Y-101999500D01*
X113621961Y-101999500D01*
X113478039Y-101999500D01*
X113478035Y-101999500D01*
X113339949Y-102040046D01*
X113339942Y-102040049D01*
X113218872Y-102117856D01*
X113218870Y-102117858D01*
X113174819Y-102168696D01*
X113122423Y-102200292D01*
X113061462Y-102195056D01*
X113025181Y-102168696D01*
X112981129Y-102117858D01*
X112981127Y-102117856D01*
X112860057Y-102040049D01*
X112860054Y-102040047D01*
X112860053Y-102040047D01*
X112860050Y-102040046D01*
X112721964Y-101999500D01*
X112721961Y-101999500D01*
X112578039Y-101999500D01*
X112578035Y-101999500D01*
X112439949Y-102040046D01*
X112439942Y-102040049D01*
X112318872Y-102117856D01*
X112318870Y-102117858D01*
X112274819Y-102168696D01*
X112222423Y-102200292D01*
X112161462Y-102195056D01*
X112125181Y-102168696D01*
X112081129Y-102117858D01*
X112081127Y-102117856D01*
X111960057Y-102040049D01*
X111960054Y-102040047D01*
X111960053Y-102040047D01*
X111960050Y-102040046D01*
X111821964Y-101999500D01*
X111821961Y-101999500D01*
X111678039Y-101999500D01*
X111678035Y-101999500D01*
X111539949Y-102040046D01*
X111539942Y-102040049D01*
X111418872Y-102117856D01*
X111418870Y-102117858D01*
X111374819Y-102168696D01*
X111322423Y-102200292D01*
X111261462Y-102195056D01*
X111225181Y-102168696D01*
X111181129Y-102117858D01*
X111181127Y-102117856D01*
X111060057Y-102040049D01*
X111060054Y-102040047D01*
X111060053Y-102040047D01*
X111060050Y-102040046D01*
X110921964Y-101999500D01*
X110921961Y-101999500D01*
X110778039Y-101999500D01*
X110778035Y-101999500D01*
X110639949Y-102040046D01*
X110639942Y-102040049D01*
X110518872Y-102117856D01*
X110518870Y-102117858D01*
X110474819Y-102168696D01*
X110422423Y-102200292D01*
X110361462Y-102195056D01*
X110325181Y-102168696D01*
X110281129Y-102117858D01*
X110281127Y-102117856D01*
X110160057Y-102040049D01*
X110160054Y-102040047D01*
X110160053Y-102040047D01*
X110160050Y-102040046D01*
X110021964Y-101999500D01*
X110021961Y-101999500D01*
X109878039Y-101999500D01*
X109878035Y-101999500D01*
X109739949Y-102040046D01*
X109739942Y-102040049D01*
X109618872Y-102117856D01*
X109618870Y-102117858D01*
X109574819Y-102168696D01*
X109522423Y-102200292D01*
X109461462Y-102195056D01*
X109425181Y-102168696D01*
X109381129Y-102117858D01*
X109381127Y-102117856D01*
X109260057Y-102040049D01*
X109260054Y-102040047D01*
X109260053Y-102040047D01*
X109260050Y-102040046D01*
X109121964Y-101999500D01*
X109121961Y-101999500D01*
X108978039Y-101999500D01*
X108978035Y-101999500D01*
X108839949Y-102040046D01*
X108839942Y-102040049D01*
X108718872Y-102117856D01*
X108718870Y-102117858D01*
X108674819Y-102168696D01*
X108622423Y-102200292D01*
X108561462Y-102195056D01*
X108525181Y-102168696D01*
X108481129Y-102117858D01*
X108481127Y-102117856D01*
X108360057Y-102040049D01*
X108360054Y-102040047D01*
X108360053Y-102040047D01*
X108360050Y-102040046D01*
X108221964Y-101999500D01*
X108221961Y-101999500D01*
X108078039Y-101999500D01*
X108078035Y-101999500D01*
X107939949Y-102040046D01*
X107939942Y-102040049D01*
X107818872Y-102117856D01*
X107818870Y-102117858D01*
X107774819Y-102168696D01*
X107722423Y-102200292D01*
X107661462Y-102195056D01*
X107625181Y-102168696D01*
X107581129Y-102117858D01*
X107581127Y-102117856D01*
X107460057Y-102040049D01*
X107460054Y-102040047D01*
X107460053Y-102040047D01*
X107460050Y-102040046D01*
X107321964Y-101999500D01*
X107321961Y-101999500D01*
X107178039Y-101999500D01*
X107178035Y-101999500D01*
X107039949Y-102040046D01*
X107039942Y-102040049D01*
X106918872Y-102117856D01*
X106918870Y-102117858D01*
X106874819Y-102168696D01*
X106822423Y-102200292D01*
X106761462Y-102195056D01*
X106725181Y-102168696D01*
X106681129Y-102117858D01*
X106681127Y-102117856D01*
X106560057Y-102040049D01*
X106560054Y-102040047D01*
X106560053Y-102040047D01*
X106560050Y-102040046D01*
X106421964Y-101999500D01*
X106421961Y-101999500D01*
X106278039Y-101999500D01*
X106278035Y-101999500D01*
X106139949Y-102040046D01*
X106139942Y-102040049D01*
X106018872Y-102117856D01*
X106018870Y-102117858D01*
X105974819Y-102168696D01*
X105922423Y-102200292D01*
X105861462Y-102195056D01*
X105825181Y-102168696D01*
X105781129Y-102117858D01*
X105781127Y-102117856D01*
X105660057Y-102040049D01*
X105660054Y-102040047D01*
X105660053Y-102040047D01*
X105660050Y-102040046D01*
X105521964Y-101999500D01*
X105521961Y-101999500D01*
X105378039Y-101999500D01*
X105378035Y-101999500D01*
X105239949Y-102040046D01*
X105239942Y-102040049D01*
X105118873Y-102117855D01*
X105024622Y-102226628D01*
X104964834Y-102357543D01*
X104944353Y-102499997D01*
X104944353Y-102500002D01*
X95055648Y-102500002D01*
X95055648Y-102500000D01*
X95035166Y-102357543D01*
X94975378Y-102226627D01*
X94881129Y-102117857D01*
X94881128Y-102117856D01*
X94881127Y-102117855D01*
X94760058Y-102040049D01*
X94760055Y-102040047D01*
X94760054Y-102040047D01*
X94760051Y-102040046D01*
X94621965Y-101999500D01*
X94621962Y-101999500D01*
X94478040Y-101999500D01*
X94478036Y-101999500D01*
X94339950Y-102040046D01*
X94339943Y-102040049D01*
X94218873Y-102117856D01*
X94218871Y-102117858D01*
X94174819Y-102168697D01*
X94122423Y-102200293D01*
X94061462Y-102195057D01*
X94025182Y-102168698D01*
X93981128Y-102117857D01*
X93981127Y-102117856D01*
X93981126Y-102117855D01*
X93860057Y-102040049D01*
X93860054Y-102040047D01*
X93860053Y-102040047D01*
X93860050Y-102040046D01*
X93721964Y-101999500D01*
X93721961Y-101999500D01*
X93578039Y-101999500D01*
X93578035Y-101999500D01*
X93439949Y-102040046D01*
X93439942Y-102040049D01*
X93318872Y-102117856D01*
X93318870Y-102117858D01*
X93274819Y-102168696D01*
X93222423Y-102200292D01*
X93161462Y-102195056D01*
X93125181Y-102168696D01*
X93081129Y-102117858D01*
X93081127Y-102117856D01*
X92960057Y-102040049D01*
X92960054Y-102040047D01*
X92960053Y-102040047D01*
X92960050Y-102040046D01*
X92821964Y-101999500D01*
X92821961Y-101999500D01*
X92678039Y-101999500D01*
X92678035Y-101999500D01*
X92539949Y-102040046D01*
X92539942Y-102040049D01*
X92418872Y-102117856D01*
X92418870Y-102117858D01*
X92374819Y-102168696D01*
X92322423Y-102200292D01*
X92261462Y-102195056D01*
X92225182Y-102168697D01*
X92181129Y-102117857D01*
X92181128Y-102117856D01*
X92181127Y-102117855D01*
X92060058Y-102040049D01*
X92060055Y-102040047D01*
X92060054Y-102040047D01*
X92060051Y-102040046D01*
X91921965Y-101999500D01*
X91921962Y-101999500D01*
X91778040Y-101999500D01*
X91778036Y-101999500D01*
X91639950Y-102040046D01*
X91639943Y-102040049D01*
X91518873Y-102117856D01*
X91518871Y-102117858D01*
X91474819Y-102168697D01*
X91422423Y-102200293D01*
X91361462Y-102195057D01*
X91325182Y-102168698D01*
X91281128Y-102117857D01*
X91281127Y-102117856D01*
X91281126Y-102117855D01*
X91160057Y-102040049D01*
X91160054Y-102040047D01*
X91160053Y-102040047D01*
X91160050Y-102040046D01*
X91021964Y-101999500D01*
X91021961Y-101999500D01*
X90878039Y-101999500D01*
X90878035Y-101999500D01*
X90739949Y-102040046D01*
X90739942Y-102040049D01*
X90618872Y-102117856D01*
X90618870Y-102117858D01*
X90574819Y-102168696D01*
X90522423Y-102200292D01*
X90461462Y-102195056D01*
X90425181Y-102168696D01*
X90381129Y-102117858D01*
X90381127Y-102117856D01*
X90260057Y-102040049D01*
X90260054Y-102040047D01*
X90260053Y-102040047D01*
X90260050Y-102040046D01*
X90121964Y-101999500D01*
X90121961Y-101999500D01*
X89978039Y-101999500D01*
X89978035Y-101999500D01*
X89839949Y-102040046D01*
X89839942Y-102040049D01*
X89718872Y-102117856D01*
X89718870Y-102117858D01*
X89674819Y-102168696D01*
X89622423Y-102200292D01*
X89561462Y-102195056D01*
X89525181Y-102168696D01*
X89481129Y-102117858D01*
X89481127Y-102117856D01*
X89360057Y-102040049D01*
X89360054Y-102040047D01*
X89360053Y-102040047D01*
X89360050Y-102040046D01*
X89221964Y-101999500D01*
X89221961Y-101999500D01*
X89078039Y-101999500D01*
X89078035Y-101999500D01*
X88939949Y-102040046D01*
X88939942Y-102040049D01*
X88818872Y-102117856D01*
X88818870Y-102117858D01*
X88774819Y-102168696D01*
X88722423Y-102200292D01*
X88661462Y-102195056D01*
X88625181Y-102168696D01*
X88581129Y-102117858D01*
X88581127Y-102117856D01*
X88460057Y-102040049D01*
X88460054Y-102040047D01*
X88460053Y-102040047D01*
X88460050Y-102040046D01*
X88321964Y-101999500D01*
X88321961Y-101999500D01*
X88178039Y-101999500D01*
X88178035Y-101999500D01*
X88039949Y-102040046D01*
X88039942Y-102040049D01*
X87918872Y-102117856D01*
X87918870Y-102117858D01*
X87874819Y-102168696D01*
X87822423Y-102200292D01*
X87761462Y-102195056D01*
X87725181Y-102168696D01*
X87681129Y-102117858D01*
X87681127Y-102117856D01*
X87560057Y-102040049D01*
X87560054Y-102040047D01*
X87560053Y-102040047D01*
X87560050Y-102040046D01*
X87421964Y-101999500D01*
X87421961Y-101999500D01*
X87278039Y-101999500D01*
X87278035Y-101999500D01*
X87139949Y-102040046D01*
X87139942Y-102040049D01*
X87018872Y-102117856D01*
X87018870Y-102117858D01*
X86974819Y-102168696D01*
X86922423Y-102200292D01*
X86861462Y-102195056D01*
X86825181Y-102168696D01*
X86781129Y-102117858D01*
X86781127Y-102117856D01*
X86660057Y-102040049D01*
X86660054Y-102040047D01*
X86660053Y-102040047D01*
X86660050Y-102040046D01*
X86521964Y-101999500D01*
X86521961Y-101999500D01*
X86378039Y-101999500D01*
X86378035Y-101999500D01*
X86239949Y-102040046D01*
X86239942Y-102040049D01*
X86118873Y-102117855D01*
X86024622Y-102226628D01*
X85964834Y-102357543D01*
X85944353Y-102499997D01*
X85944353Y-102500002D01*
X84000000Y-102500002D01*
X84000000Y-95637276D01*
X84018907Y-95579085D01*
X84068407Y-95543121D01*
X84129593Y-95543121D01*
X84173820Y-95572445D01*
X84174621Y-95573370D01*
X84174623Y-95573373D01*
X84229995Y-95637276D01*
X84268873Y-95682144D01*
X84389942Y-95759950D01*
X84389947Y-95759953D01*
X84496403Y-95791211D01*
X84528035Y-95800499D01*
X84528036Y-95800499D01*
X84528039Y-95800500D01*
X84528041Y-95800500D01*
X84671959Y-95800500D01*
X84671961Y-95800500D01*
X84810053Y-95759953D01*
X84931128Y-95682143D01*
X85025377Y-95573373D01*
X85085165Y-95442457D01*
X85094316Y-95378813D01*
X85121312Y-95323906D01*
X85164423Y-95301157D01*
X85215804Y-95301157D01*
X85235988Y-95304059D01*
X85279867Y-95346701D01*
X85290300Y-95378813D01*
X85299450Y-95442456D01*
X85345423Y-95543121D01*
X85359239Y-95573373D01*
X85414611Y-95637276D01*
X85453489Y-95682144D01*
X85574558Y-95759950D01*
X85574563Y-95759953D01*
X85681019Y-95791211D01*
X85712651Y-95800499D01*
X85712652Y-95800499D01*
X85712655Y-95800500D01*
X85712657Y-95800500D01*
X85856575Y-95800500D01*
X85856577Y-95800500D01*
X85994669Y-95759953D01*
X86115744Y-95682143D01*
X86209993Y-95573373D01*
X86269781Y-95442457D01*
X86278931Y-95378817D01*
X86305926Y-95323910D01*
X86349042Y-95301159D01*
X86400406Y-95301159D01*
X86420603Y-95304063D01*
X86464481Y-95346705D01*
X86474915Y-95378817D01*
X86484065Y-95442455D01*
X86484066Y-95442457D01*
X86543854Y-95573373D01*
X86599226Y-95637276D01*
X86638104Y-95682144D01*
X86759173Y-95759950D01*
X86759178Y-95759953D01*
X86865634Y-95791211D01*
X86897266Y-95800499D01*
X86897267Y-95800499D01*
X86897270Y-95800500D01*
X86897272Y-95800500D01*
X87041190Y-95800500D01*
X87041192Y-95800500D01*
X87179284Y-95759953D01*
X87300359Y-95682143D01*
X87394608Y-95573373D01*
X87454396Y-95442457D01*
X87463547Y-95378813D01*
X87490543Y-95323906D01*
X87533654Y-95301157D01*
X87585035Y-95301157D01*
X87605219Y-95304059D01*
X87649098Y-95346701D01*
X87659531Y-95378813D01*
X87668681Y-95442456D01*
X87714654Y-95543121D01*
X87728470Y-95573373D01*
X87783842Y-95637276D01*
X87822720Y-95682144D01*
X87943789Y-95759950D01*
X87943794Y-95759953D01*
X88050250Y-95791211D01*
X88081882Y-95800499D01*
X88081883Y-95800499D01*
X88081886Y-95800500D01*
X88081888Y-95800500D01*
X88225806Y-95800500D01*
X88225808Y-95800500D01*
X88363900Y-95759953D01*
X88484975Y-95682143D01*
X88579224Y-95573373D01*
X88639012Y-95442457D01*
X88648162Y-95378817D01*
X88675157Y-95323910D01*
X88718273Y-95301159D01*
X88769637Y-95301159D01*
X88789834Y-95304063D01*
X88833712Y-95346705D01*
X88844146Y-95378817D01*
X88853296Y-95442455D01*
X88853297Y-95442457D01*
X88913085Y-95573373D01*
X88968457Y-95637276D01*
X89007335Y-95682144D01*
X89128404Y-95759950D01*
X89128409Y-95759953D01*
X89234865Y-95791211D01*
X89266497Y-95800499D01*
X89266498Y-95800499D01*
X89266501Y-95800500D01*
X89266503Y-95800500D01*
X89410421Y-95800500D01*
X89410423Y-95800500D01*
X89548515Y-95759953D01*
X89669590Y-95682143D01*
X89763839Y-95573373D01*
X89823627Y-95442457D01*
X89832777Y-95378817D01*
X89859772Y-95323910D01*
X89902888Y-95301159D01*
X89954252Y-95301159D01*
X89974449Y-95304063D01*
X90018327Y-95346705D01*
X90028761Y-95378817D01*
X90037911Y-95442455D01*
X90037912Y-95442457D01*
X90097700Y-95573373D01*
X90153072Y-95637276D01*
X90191950Y-95682144D01*
X90313019Y-95759950D01*
X90313024Y-95759953D01*
X90419480Y-95791211D01*
X90451112Y-95800499D01*
X90451113Y-95800499D01*
X90451116Y-95800500D01*
X90451118Y-95800500D01*
X90595036Y-95800500D01*
X90595038Y-95800500D01*
X90733130Y-95759953D01*
X90854205Y-95682143D01*
X90948454Y-95573373D01*
X91008242Y-95442457D01*
X91017393Y-95378813D01*
X91044389Y-95323906D01*
X91087500Y-95301157D01*
X91138881Y-95301157D01*
X91159065Y-95304059D01*
X91202944Y-95346701D01*
X91213377Y-95378813D01*
X91222527Y-95442456D01*
X91268500Y-95543121D01*
X91282316Y-95573373D01*
X91337688Y-95637276D01*
X91376566Y-95682144D01*
X91497635Y-95759950D01*
X91497640Y-95759953D01*
X91604096Y-95791211D01*
X91635728Y-95800499D01*
X91635729Y-95800499D01*
X91635732Y-95800500D01*
X91635734Y-95800500D01*
X91779652Y-95800500D01*
X91779654Y-95800500D01*
X91917746Y-95759953D01*
X92038821Y-95682143D01*
X92133070Y-95573373D01*
X92192858Y-95442457D01*
X92202008Y-95378817D01*
X92229003Y-95323910D01*
X92272119Y-95301159D01*
X92323483Y-95301159D01*
X92343680Y-95304063D01*
X92387558Y-95346705D01*
X92397992Y-95378817D01*
X92407142Y-95442455D01*
X92407143Y-95442457D01*
X92466931Y-95573373D01*
X92522303Y-95637276D01*
X92561181Y-95682144D01*
X92682250Y-95759950D01*
X92682255Y-95759953D01*
X92788711Y-95791211D01*
X92820343Y-95800499D01*
X92820344Y-95800499D01*
X92820347Y-95800500D01*
X92820349Y-95800500D01*
X92964267Y-95800500D01*
X92964269Y-95800500D01*
X93102361Y-95759953D01*
X93223436Y-95682143D01*
X93317685Y-95573373D01*
X93377473Y-95442457D01*
X93386624Y-95378813D01*
X93413620Y-95323906D01*
X93456731Y-95301157D01*
X93508112Y-95301157D01*
X93528296Y-95304059D01*
X93572175Y-95346701D01*
X93582608Y-95378813D01*
X93591758Y-95442456D01*
X93637731Y-95543121D01*
X93651547Y-95573373D01*
X93706919Y-95637276D01*
X93745797Y-95682144D01*
X93866866Y-95759950D01*
X93866871Y-95759953D01*
X93973327Y-95791211D01*
X94004959Y-95800499D01*
X94004960Y-95800499D01*
X94004963Y-95800500D01*
X94004965Y-95800500D01*
X94148883Y-95800500D01*
X94148885Y-95800500D01*
X94286977Y-95759953D01*
X94408052Y-95682143D01*
X94502301Y-95573373D01*
X94562089Y-95442457D01*
X94571239Y-95378817D01*
X94598234Y-95323910D01*
X94641350Y-95301159D01*
X94692714Y-95301159D01*
X94712911Y-95304063D01*
X94756789Y-95346705D01*
X94767223Y-95378817D01*
X94776373Y-95442455D01*
X94776374Y-95442457D01*
X94836162Y-95573373D01*
X94891534Y-95637276D01*
X94930412Y-95682144D01*
X95051481Y-95759950D01*
X95051486Y-95759953D01*
X95157942Y-95791211D01*
X95189574Y-95800499D01*
X95189575Y-95800499D01*
X95189578Y-95800500D01*
X95189580Y-95800500D01*
X95333498Y-95800500D01*
X95333500Y-95800500D01*
X95471592Y-95759953D01*
X95592667Y-95682143D01*
X95686916Y-95573373D01*
X95746704Y-95442457D01*
X95755854Y-95378817D01*
X95782849Y-95323910D01*
X95825965Y-95301159D01*
X95877329Y-95301159D01*
X95897526Y-95304063D01*
X95941404Y-95346705D01*
X95951838Y-95378817D01*
X95960988Y-95442455D01*
X95960989Y-95442457D01*
X96020777Y-95573373D01*
X96076149Y-95637276D01*
X96115027Y-95682144D01*
X96236096Y-95759950D01*
X96236101Y-95759953D01*
X96342557Y-95791211D01*
X96374189Y-95800499D01*
X96374190Y-95800499D01*
X96374193Y-95800500D01*
X96374195Y-95800500D01*
X96518113Y-95800500D01*
X96518115Y-95800500D01*
X96656207Y-95759953D01*
X96777282Y-95682143D01*
X96871531Y-95573373D01*
X96931319Y-95442457D01*
X96940470Y-95378813D01*
X96967466Y-95323906D01*
X97010577Y-95301157D01*
X97061958Y-95301157D01*
X97082142Y-95304059D01*
X97126021Y-95346701D01*
X97136454Y-95378813D01*
X97145604Y-95442456D01*
X97191577Y-95543121D01*
X97205393Y-95573373D01*
X97260765Y-95637276D01*
X97299643Y-95682144D01*
X97420712Y-95759950D01*
X97420717Y-95759953D01*
X97527173Y-95791211D01*
X97558805Y-95800499D01*
X97558806Y-95800499D01*
X97558809Y-95800500D01*
X97558811Y-95800500D01*
X97702729Y-95800500D01*
X97702731Y-95800500D01*
X97840823Y-95759953D01*
X97961898Y-95682143D01*
X98056147Y-95573373D01*
X98115935Y-95442457D01*
X98125085Y-95378817D01*
X98152080Y-95323910D01*
X98195196Y-95301159D01*
X98246560Y-95301159D01*
X98266757Y-95304063D01*
X98310635Y-95346705D01*
X98321069Y-95378817D01*
X98330219Y-95442455D01*
X98330220Y-95442457D01*
X98390008Y-95573373D01*
X98445380Y-95637276D01*
X98484258Y-95682144D01*
X98605327Y-95759950D01*
X98605332Y-95759953D01*
X98711788Y-95791211D01*
X98743420Y-95800499D01*
X98743421Y-95800499D01*
X98743424Y-95800500D01*
X98743426Y-95800500D01*
X98887344Y-95800500D01*
X98887346Y-95800500D01*
X99025438Y-95759953D01*
X99146513Y-95682143D01*
X99240762Y-95573373D01*
X99300550Y-95442457D01*
X99309700Y-95378817D01*
X99336695Y-95323910D01*
X99379811Y-95301159D01*
X99431175Y-95301159D01*
X99451372Y-95304063D01*
X99495250Y-95346705D01*
X99505684Y-95378817D01*
X99514834Y-95442455D01*
X99514835Y-95442457D01*
X99574623Y-95573373D01*
X99629995Y-95637276D01*
X99668873Y-95682144D01*
X99789942Y-95759950D01*
X99789947Y-95759953D01*
X99896403Y-95791211D01*
X99928035Y-95800499D01*
X99928036Y-95800499D01*
X99928039Y-95800500D01*
X99928041Y-95800500D01*
X100071959Y-95800500D01*
X100071961Y-95800500D01*
X100210053Y-95759953D01*
X100331128Y-95682143D01*
X100425377Y-95573373D01*
X100485165Y-95442457D01*
X100494315Y-95378817D01*
X100521310Y-95323910D01*
X100564426Y-95301159D01*
X100615790Y-95301159D01*
X100635987Y-95304063D01*
X100679865Y-95346705D01*
X100690299Y-95378817D01*
X100699449Y-95442455D01*
X100699450Y-95442457D01*
X100759238Y-95573373D01*
X100814610Y-95637276D01*
X100853488Y-95682144D01*
X100974557Y-95759950D01*
X100974562Y-95759953D01*
X101081018Y-95791211D01*
X101112650Y-95800499D01*
X101112651Y-95800499D01*
X101112654Y-95800500D01*
X101112656Y-95800500D01*
X101256574Y-95800500D01*
X101256576Y-95800500D01*
X101394668Y-95759953D01*
X101515743Y-95682143D01*
X101609992Y-95573373D01*
X101669780Y-95442457D01*
X101678930Y-95378817D01*
X101705925Y-95323910D01*
X101749041Y-95301159D01*
X101800405Y-95301159D01*
X101820602Y-95304063D01*
X101864480Y-95346705D01*
X101874914Y-95378817D01*
X101884064Y-95442455D01*
X101884065Y-95442457D01*
X101943853Y-95573373D01*
X101999225Y-95637276D01*
X102038103Y-95682144D01*
X102159172Y-95759950D01*
X102159177Y-95759953D01*
X102265633Y-95791211D01*
X102297265Y-95800499D01*
X102297266Y-95800499D01*
X102297269Y-95800500D01*
X102297271Y-95800500D01*
X102441189Y-95800500D01*
X102441191Y-95800500D01*
X102579283Y-95759953D01*
X102700358Y-95682143D01*
X102794607Y-95573373D01*
X102854395Y-95442457D01*
X102863546Y-95378813D01*
X102890542Y-95323906D01*
X102933653Y-95301157D01*
X102985034Y-95301157D01*
X103005218Y-95304059D01*
X103049097Y-95346701D01*
X103059530Y-95378813D01*
X103068680Y-95442456D01*
X103114653Y-95543121D01*
X103128469Y-95573373D01*
X103183841Y-95637276D01*
X103222719Y-95682144D01*
X103343788Y-95759950D01*
X103343793Y-95759953D01*
X103450249Y-95791211D01*
X103481881Y-95800499D01*
X103481882Y-95800499D01*
X103481885Y-95800500D01*
X103481887Y-95800500D01*
X103625805Y-95800500D01*
X103625807Y-95800500D01*
X103763899Y-95759953D01*
X103884974Y-95682143D01*
X103979223Y-95573373D01*
X104039011Y-95442457D01*
X104048161Y-95378817D01*
X104075156Y-95323910D01*
X104118272Y-95301159D01*
X104169636Y-95301159D01*
X104189833Y-95304063D01*
X104233711Y-95346705D01*
X104244145Y-95378817D01*
X104253295Y-95442455D01*
X104253296Y-95442457D01*
X104313084Y-95573373D01*
X104368456Y-95637276D01*
X104407334Y-95682144D01*
X104528403Y-95759950D01*
X104528408Y-95759953D01*
X104634864Y-95791211D01*
X104666496Y-95800499D01*
X104666497Y-95800499D01*
X104666500Y-95800500D01*
X104666502Y-95800500D01*
X104810420Y-95800500D01*
X104810422Y-95800500D01*
X104948514Y-95759953D01*
X105069589Y-95682143D01*
X105163838Y-95573373D01*
X105223626Y-95442457D01*
X105232776Y-95378817D01*
X105259771Y-95323910D01*
X105302887Y-95301159D01*
X105354251Y-95301159D01*
X105374448Y-95304063D01*
X105418326Y-95346705D01*
X105428760Y-95378817D01*
X105437910Y-95442455D01*
X105437911Y-95442457D01*
X105497699Y-95573373D01*
X105553071Y-95637276D01*
X105591949Y-95682144D01*
X105713018Y-95759950D01*
X105713023Y-95759953D01*
X105819479Y-95791211D01*
X105851111Y-95800499D01*
X105851112Y-95800499D01*
X105851115Y-95800500D01*
X105851117Y-95800500D01*
X105995035Y-95800500D01*
X105995037Y-95800500D01*
X106133129Y-95759953D01*
X106254204Y-95682143D01*
X106348453Y-95573373D01*
X106408241Y-95442457D01*
X106417392Y-95378813D01*
X106444388Y-95323906D01*
X106487499Y-95301157D01*
X106538880Y-95301157D01*
X106559064Y-95304059D01*
X106602943Y-95346701D01*
X106613376Y-95378813D01*
X106622526Y-95442456D01*
X106668499Y-95543121D01*
X106682315Y-95573373D01*
X106737687Y-95637276D01*
X106776565Y-95682144D01*
X106897634Y-95759950D01*
X106897639Y-95759953D01*
X107004095Y-95791211D01*
X107035727Y-95800499D01*
X107035728Y-95800499D01*
X107035731Y-95800500D01*
X107035733Y-95800500D01*
X107179651Y-95800500D01*
X107179653Y-95800500D01*
X107317745Y-95759953D01*
X107438820Y-95682143D01*
X107533069Y-95573373D01*
X107592857Y-95442457D01*
X107602007Y-95378817D01*
X107629002Y-95323910D01*
X107672118Y-95301159D01*
X107723482Y-95301159D01*
X107743679Y-95304063D01*
X107787557Y-95346705D01*
X107797991Y-95378817D01*
X107807141Y-95442455D01*
X107807142Y-95442457D01*
X107866930Y-95573373D01*
X107922302Y-95637276D01*
X107961180Y-95682144D01*
X108082249Y-95759950D01*
X108082254Y-95759953D01*
X108188710Y-95791211D01*
X108220342Y-95800499D01*
X108220343Y-95800499D01*
X108220346Y-95800500D01*
X108220348Y-95800500D01*
X108364266Y-95800500D01*
X108364268Y-95800500D01*
X108502360Y-95759953D01*
X108623435Y-95682143D01*
X108717684Y-95573373D01*
X108777472Y-95442457D01*
X108786623Y-95378813D01*
X108813619Y-95323906D01*
X108856730Y-95301157D01*
X108908111Y-95301157D01*
X108928295Y-95304059D01*
X108972174Y-95346701D01*
X108982607Y-95378813D01*
X108991757Y-95442456D01*
X109037730Y-95543121D01*
X109051546Y-95573373D01*
X109106918Y-95637276D01*
X109145796Y-95682144D01*
X109266865Y-95759950D01*
X109266870Y-95759953D01*
X109373326Y-95791211D01*
X109404958Y-95800499D01*
X109404959Y-95800499D01*
X109404962Y-95800500D01*
X109404964Y-95800500D01*
X109548882Y-95800500D01*
X109548884Y-95800500D01*
X109686976Y-95759953D01*
X109808051Y-95682143D01*
X109902300Y-95573373D01*
X109962088Y-95442457D01*
X109971238Y-95378817D01*
X109998233Y-95323910D01*
X110041349Y-95301159D01*
X110092713Y-95301159D01*
X110112910Y-95304063D01*
X110156788Y-95346705D01*
X110167222Y-95378817D01*
X110176372Y-95442455D01*
X110176373Y-95442457D01*
X110236161Y-95573373D01*
X110291533Y-95637276D01*
X110330411Y-95682144D01*
X110451480Y-95759950D01*
X110451485Y-95759953D01*
X110557941Y-95791211D01*
X110589573Y-95800499D01*
X110589574Y-95800499D01*
X110589577Y-95800500D01*
X110589579Y-95800500D01*
X110733497Y-95800500D01*
X110733499Y-95800500D01*
X110871591Y-95759953D01*
X110992666Y-95682143D01*
X111086915Y-95573373D01*
X111146703Y-95442457D01*
X111155853Y-95378817D01*
X111182848Y-95323910D01*
X111225964Y-95301159D01*
X111277328Y-95301159D01*
X111297525Y-95304063D01*
X111341403Y-95346705D01*
X111351837Y-95378817D01*
X111360987Y-95442455D01*
X111360988Y-95442457D01*
X111420776Y-95573373D01*
X111476148Y-95637276D01*
X111515026Y-95682144D01*
X111636095Y-95759950D01*
X111636100Y-95759953D01*
X111742556Y-95791211D01*
X111774188Y-95800499D01*
X111774189Y-95800499D01*
X111774192Y-95800500D01*
X111774194Y-95800500D01*
X111918112Y-95800500D01*
X111918114Y-95800500D01*
X112056206Y-95759953D01*
X112177281Y-95682143D01*
X112271530Y-95573373D01*
X112331318Y-95442457D01*
X112340469Y-95378813D01*
X112367465Y-95323906D01*
X112410576Y-95301157D01*
X112461957Y-95301157D01*
X112482141Y-95304059D01*
X112526020Y-95346701D01*
X112536453Y-95378813D01*
X112545603Y-95442456D01*
X112591576Y-95543121D01*
X112605392Y-95573373D01*
X112660764Y-95637276D01*
X112699642Y-95682144D01*
X112820711Y-95759950D01*
X112820716Y-95759953D01*
X112927172Y-95791211D01*
X112958804Y-95800499D01*
X112958805Y-95800499D01*
X112958808Y-95800500D01*
X112958810Y-95800500D01*
X113102728Y-95800500D01*
X113102730Y-95800500D01*
X113240822Y-95759953D01*
X113361897Y-95682143D01*
X113456146Y-95573373D01*
X113515934Y-95442457D01*
X113525084Y-95378817D01*
X113552079Y-95323910D01*
X113595195Y-95301159D01*
X113646559Y-95301159D01*
X113666756Y-95304063D01*
X113710634Y-95346705D01*
X113721068Y-95378817D01*
X113730218Y-95442455D01*
X113730219Y-95442457D01*
X113790007Y-95573373D01*
X113845379Y-95637276D01*
X113884257Y-95682144D01*
X114005326Y-95759950D01*
X114005331Y-95759953D01*
X114111787Y-95791211D01*
X114143419Y-95800499D01*
X114143420Y-95800499D01*
X114143423Y-95800500D01*
X114143425Y-95800500D01*
X114287343Y-95800500D01*
X114287345Y-95800500D01*
X114425437Y-95759953D01*
X114546512Y-95682143D01*
X114640761Y-95573373D01*
X114700549Y-95442457D01*
X114709700Y-95378813D01*
X114736696Y-95323906D01*
X114784196Y-95298841D01*
X114764011Y-95295940D01*
X114720133Y-95253297D01*
X114709700Y-95221186D01*
X114700549Y-95157543D01*
X114654576Y-95056878D01*
X114640761Y-95026627D01*
X114546512Y-94917857D01*
X114546511Y-94917856D01*
X114546510Y-94917855D01*
X114425441Y-94840049D01*
X114425438Y-94840047D01*
X114425437Y-94840047D01*
X114425434Y-94840046D01*
X114287348Y-94799500D01*
X114287345Y-94799500D01*
X114143423Y-94799500D01*
X114143419Y-94799500D01*
X114005333Y-94840046D01*
X114005326Y-94840049D01*
X113884257Y-94917855D01*
X113790006Y-95026628D01*
X113730218Y-95157543D01*
X113721068Y-95221183D01*
X113694072Y-95276090D01*
X113646559Y-95301159D01*
X113595195Y-95301159D01*
X113599592Y-95298839D01*
X113579395Y-95295935D01*
X113535517Y-95253293D01*
X113525084Y-95221181D01*
X113515934Y-95157544D01*
X113470999Y-95059150D01*
X113456146Y-95026627D01*
X113361897Y-94917857D01*
X113361896Y-94917856D01*
X113361895Y-94917855D01*
X113240826Y-94840049D01*
X113240823Y-94840047D01*
X113240822Y-94840047D01*
X113240819Y-94840046D01*
X113102733Y-94799500D01*
X113102730Y-94799500D01*
X112958808Y-94799500D01*
X112958804Y-94799500D01*
X112820718Y-94840046D01*
X112820711Y-94840049D01*
X112699642Y-94917855D01*
X112605391Y-95026628D01*
X112545603Y-95157543D01*
X112536453Y-95221186D01*
X112509457Y-95276094D01*
X112461957Y-95301157D01*
X112410576Y-95301157D01*
X112414965Y-95298841D01*
X112394780Y-95295940D01*
X112350902Y-95253297D01*
X112340469Y-95221186D01*
X112331318Y-95157543D01*
X112285345Y-95056878D01*
X112271530Y-95026627D01*
X112177281Y-94917857D01*
X112177280Y-94917856D01*
X112177279Y-94917855D01*
X112056210Y-94840049D01*
X112056207Y-94840047D01*
X112056206Y-94840047D01*
X112056203Y-94840046D01*
X111918117Y-94799500D01*
X111918114Y-94799500D01*
X111774192Y-94799500D01*
X111774188Y-94799500D01*
X111636102Y-94840046D01*
X111636095Y-94840049D01*
X111515026Y-94917855D01*
X111420775Y-95026628D01*
X111360987Y-95157543D01*
X111351837Y-95221183D01*
X111324841Y-95276090D01*
X111277328Y-95301159D01*
X111225964Y-95301159D01*
X111230361Y-95298839D01*
X111210164Y-95295935D01*
X111166286Y-95253293D01*
X111155853Y-95221181D01*
X111146703Y-95157544D01*
X111101768Y-95059150D01*
X111086915Y-95026627D01*
X110992666Y-94917857D01*
X110992665Y-94917856D01*
X110992664Y-94917855D01*
X110871595Y-94840049D01*
X110871592Y-94840047D01*
X110871591Y-94840047D01*
X110871588Y-94840046D01*
X110733502Y-94799500D01*
X110733499Y-94799500D01*
X110589577Y-94799500D01*
X110589573Y-94799500D01*
X110451487Y-94840046D01*
X110451480Y-94840049D01*
X110330411Y-94917855D01*
X110236160Y-95026628D01*
X110176372Y-95157543D01*
X110167222Y-95221183D01*
X110140226Y-95276090D01*
X110092713Y-95301159D01*
X110041349Y-95301159D01*
X110045746Y-95298839D01*
X110025549Y-95295935D01*
X109981671Y-95253293D01*
X109971238Y-95221181D01*
X109962088Y-95157544D01*
X109917153Y-95059150D01*
X109902300Y-95026627D01*
X109808051Y-94917857D01*
X109808050Y-94917856D01*
X109808049Y-94917855D01*
X109686980Y-94840049D01*
X109686977Y-94840047D01*
X109686976Y-94840047D01*
X109686973Y-94840046D01*
X109548887Y-94799500D01*
X109548884Y-94799500D01*
X109404962Y-94799500D01*
X109404958Y-94799500D01*
X109266872Y-94840046D01*
X109266865Y-94840049D01*
X109145796Y-94917855D01*
X109051545Y-95026628D01*
X108991757Y-95157543D01*
X108982607Y-95221186D01*
X108955611Y-95276094D01*
X108908111Y-95301157D01*
X108856730Y-95301157D01*
X108861119Y-95298841D01*
X108840934Y-95295940D01*
X108797056Y-95253297D01*
X108786623Y-95221186D01*
X108777472Y-95157543D01*
X108731499Y-95056878D01*
X108717684Y-95026627D01*
X108623435Y-94917857D01*
X108623434Y-94917856D01*
X108623433Y-94917855D01*
X108502364Y-94840049D01*
X108502361Y-94840047D01*
X108502360Y-94840047D01*
X108502357Y-94840046D01*
X108364271Y-94799500D01*
X108364268Y-94799500D01*
X108220346Y-94799500D01*
X108220342Y-94799500D01*
X108082256Y-94840046D01*
X108082249Y-94840049D01*
X107961180Y-94917855D01*
X107866929Y-95026628D01*
X107807141Y-95157543D01*
X107797991Y-95221183D01*
X107770995Y-95276090D01*
X107723482Y-95301159D01*
X107672118Y-95301159D01*
X107676515Y-95298839D01*
X107656318Y-95295935D01*
X107612440Y-95253293D01*
X107602007Y-95221181D01*
X107592857Y-95157544D01*
X107547922Y-95059150D01*
X107533069Y-95026627D01*
X107438820Y-94917857D01*
X107438819Y-94917856D01*
X107438818Y-94917855D01*
X107317749Y-94840049D01*
X107317746Y-94840047D01*
X107317745Y-94840047D01*
X107317742Y-94840046D01*
X107179656Y-94799500D01*
X107179653Y-94799500D01*
X107035731Y-94799500D01*
X107035727Y-94799500D01*
X106897641Y-94840046D01*
X106897634Y-94840049D01*
X106776565Y-94917855D01*
X106682314Y-95026628D01*
X106622526Y-95157543D01*
X106613376Y-95221186D01*
X106586380Y-95276094D01*
X106538880Y-95301157D01*
X106487499Y-95301157D01*
X106491888Y-95298841D01*
X106471703Y-95295940D01*
X106427825Y-95253297D01*
X106417392Y-95221186D01*
X106408241Y-95157543D01*
X106362268Y-95056878D01*
X106348453Y-95026627D01*
X106254204Y-94917857D01*
X106254203Y-94917856D01*
X106254202Y-94917855D01*
X106133133Y-94840049D01*
X106133130Y-94840047D01*
X106133129Y-94840047D01*
X106133126Y-94840046D01*
X105995040Y-94799500D01*
X105995037Y-94799500D01*
X105851115Y-94799500D01*
X105851111Y-94799500D01*
X105713025Y-94840046D01*
X105713018Y-94840049D01*
X105591949Y-94917855D01*
X105497698Y-95026628D01*
X105437910Y-95157543D01*
X105428760Y-95221183D01*
X105401764Y-95276090D01*
X105354251Y-95301159D01*
X105302887Y-95301159D01*
X105307284Y-95298839D01*
X105287087Y-95295935D01*
X105243209Y-95253293D01*
X105232776Y-95221181D01*
X105223626Y-95157544D01*
X105178691Y-95059150D01*
X105163838Y-95026627D01*
X105069589Y-94917857D01*
X105069588Y-94917856D01*
X105069587Y-94917855D01*
X104948518Y-94840049D01*
X104948515Y-94840047D01*
X104948514Y-94840047D01*
X104948511Y-94840046D01*
X104810425Y-94799500D01*
X104810422Y-94799500D01*
X104666500Y-94799500D01*
X104666496Y-94799500D01*
X104528410Y-94840046D01*
X104528403Y-94840049D01*
X104407334Y-94917855D01*
X104313083Y-95026628D01*
X104253295Y-95157543D01*
X104244145Y-95221183D01*
X104217149Y-95276090D01*
X104169636Y-95301159D01*
X104118272Y-95301159D01*
X104122669Y-95298839D01*
X104102472Y-95295935D01*
X104058594Y-95253293D01*
X104048161Y-95221181D01*
X104039011Y-95157544D01*
X103994076Y-95059150D01*
X103979223Y-95026627D01*
X103884974Y-94917857D01*
X103884973Y-94917856D01*
X103884972Y-94917855D01*
X103763903Y-94840049D01*
X103763900Y-94840047D01*
X103763899Y-94840047D01*
X103763896Y-94840046D01*
X103625810Y-94799500D01*
X103625807Y-94799500D01*
X103481885Y-94799500D01*
X103481881Y-94799500D01*
X103343795Y-94840046D01*
X103343788Y-94840049D01*
X103222719Y-94917855D01*
X103128468Y-95026628D01*
X103068680Y-95157543D01*
X103059530Y-95221186D01*
X103032534Y-95276094D01*
X102985034Y-95301157D01*
X102933653Y-95301157D01*
X102938042Y-95298841D01*
X102917857Y-95295940D01*
X102873979Y-95253297D01*
X102863546Y-95221186D01*
X102854395Y-95157543D01*
X102808422Y-95056878D01*
X102794607Y-95026627D01*
X102700358Y-94917857D01*
X102700357Y-94917856D01*
X102700356Y-94917855D01*
X102579287Y-94840049D01*
X102579284Y-94840047D01*
X102579283Y-94840047D01*
X102579280Y-94840046D01*
X102441194Y-94799500D01*
X102441191Y-94799500D01*
X102297269Y-94799500D01*
X102297265Y-94799500D01*
X102159179Y-94840046D01*
X102159172Y-94840049D01*
X102038103Y-94917855D01*
X101943852Y-95026628D01*
X101884064Y-95157543D01*
X101874914Y-95221183D01*
X101847918Y-95276090D01*
X101800405Y-95301159D01*
X101749041Y-95301159D01*
X101753438Y-95298839D01*
X101733241Y-95295935D01*
X101689363Y-95253293D01*
X101678930Y-95221181D01*
X101669780Y-95157544D01*
X101624845Y-95059150D01*
X101609992Y-95026627D01*
X101515743Y-94917857D01*
X101515742Y-94917856D01*
X101515741Y-94917855D01*
X101394672Y-94840049D01*
X101394669Y-94840047D01*
X101394668Y-94840047D01*
X101394665Y-94840046D01*
X101256579Y-94799500D01*
X101256576Y-94799500D01*
X101112654Y-94799500D01*
X101112650Y-94799500D01*
X100974564Y-94840046D01*
X100974557Y-94840049D01*
X100853488Y-94917855D01*
X100759237Y-95026628D01*
X100699449Y-95157543D01*
X100690299Y-95221183D01*
X100663303Y-95276090D01*
X100615790Y-95301159D01*
X100564426Y-95301159D01*
X100568823Y-95298839D01*
X100548626Y-95295935D01*
X100504748Y-95253293D01*
X100494315Y-95221181D01*
X100485165Y-95157544D01*
X100440230Y-95059150D01*
X100425377Y-95026627D01*
X100331128Y-94917857D01*
X100331127Y-94917856D01*
X100331126Y-94917855D01*
X100210057Y-94840049D01*
X100210054Y-94840047D01*
X100210053Y-94840047D01*
X100210050Y-94840046D01*
X100071964Y-94799500D01*
X100071961Y-94799500D01*
X99928039Y-94799500D01*
X99928035Y-94799500D01*
X99789949Y-94840046D01*
X99789942Y-94840049D01*
X99668873Y-94917855D01*
X99574622Y-95026628D01*
X99514834Y-95157543D01*
X99505684Y-95221183D01*
X99478688Y-95276090D01*
X99431175Y-95301159D01*
X99379811Y-95301159D01*
X99384208Y-95298839D01*
X99364011Y-95295935D01*
X99320133Y-95253293D01*
X99309700Y-95221181D01*
X99300550Y-95157544D01*
X99255615Y-95059150D01*
X99240762Y-95026627D01*
X99146513Y-94917857D01*
X99146512Y-94917856D01*
X99146511Y-94917855D01*
X99025442Y-94840049D01*
X99025439Y-94840047D01*
X99025438Y-94840047D01*
X99025435Y-94840046D01*
X98887349Y-94799500D01*
X98887346Y-94799500D01*
X98743424Y-94799500D01*
X98743420Y-94799500D01*
X98605334Y-94840046D01*
X98605327Y-94840049D01*
X98484258Y-94917855D01*
X98390007Y-95026628D01*
X98330219Y-95157543D01*
X98321069Y-95221183D01*
X98294073Y-95276090D01*
X98246560Y-95301159D01*
X98195196Y-95301159D01*
X98199593Y-95298839D01*
X98179396Y-95295935D01*
X98135518Y-95253293D01*
X98125085Y-95221181D01*
X98115935Y-95157544D01*
X98071000Y-95059150D01*
X98056147Y-95026627D01*
X97961898Y-94917857D01*
X97961897Y-94917856D01*
X97961896Y-94917855D01*
X97840827Y-94840049D01*
X97840824Y-94840047D01*
X97840823Y-94840047D01*
X97840820Y-94840046D01*
X97702734Y-94799500D01*
X97702731Y-94799500D01*
X97558809Y-94799500D01*
X97558805Y-94799500D01*
X97420719Y-94840046D01*
X97420712Y-94840049D01*
X97299643Y-94917855D01*
X97205392Y-95026628D01*
X97145604Y-95157543D01*
X97136454Y-95221186D01*
X97109458Y-95276094D01*
X97061958Y-95301157D01*
X97010577Y-95301157D01*
X97014966Y-95298841D01*
X96994781Y-95295940D01*
X96950903Y-95253297D01*
X96940470Y-95221186D01*
X96931319Y-95157543D01*
X96885346Y-95056878D01*
X96871531Y-95026627D01*
X96777282Y-94917857D01*
X96777281Y-94917856D01*
X96777280Y-94917855D01*
X96656211Y-94840049D01*
X96656208Y-94840047D01*
X96656207Y-94840047D01*
X96656204Y-94840046D01*
X96518118Y-94799500D01*
X96518115Y-94799500D01*
X96374193Y-94799500D01*
X96374189Y-94799500D01*
X96236103Y-94840046D01*
X96236096Y-94840049D01*
X96115027Y-94917855D01*
X96020776Y-95026628D01*
X95960988Y-95157543D01*
X95951838Y-95221183D01*
X95924842Y-95276090D01*
X95877329Y-95301159D01*
X95825965Y-95301159D01*
X95830362Y-95298839D01*
X95810165Y-95295935D01*
X95766287Y-95253293D01*
X95755854Y-95221181D01*
X95746704Y-95157544D01*
X95701769Y-95059150D01*
X95686916Y-95026627D01*
X95592667Y-94917857D01*
X95592666Y-94917856D01*
X95592665Y-94917855D01*
X95471596Y-94840049D01*
X95471593Y-94840047D01*
X95471592Y-94840047D01*
X95471589Y-94840046D01*
X95333503Y-94799500D01*
X95333500Y-94799500D01*
X95189578Y-94799500D01*
X95189574Y-94799500D01*
X95051488Y-94840046D01*
X95051481Y-94840049D01*
X94930412Y-94917855D01*
X94836161Y-95026628D01*
X94776373Y-95157543D01*
X94767223Y-95221183D01*
X94740227Y-95276090D01*
X94692714Y-95301159D01*
X94641350Y-95301159D01*
X94645747Y-95298839D01*
X94625550Y-95295935D01*
X94581672Y-95253293D01*
X94571239Y-95221181D01*
X94562089Y-95157544D01*
X94517154Y-95059150D01*
X94502301Y-95026627D01*
X94408052Y-94917857D01*
X94408051Y-94917856D01*
X94408050Y-94917855D01*
X94286981Y-94840049D01*
X94286978Y-94840047D01*
X94286977Y-94840047D01*
X94286974Y-94840046D01*
X94148888Y-94799500D01*
X94148885Y-94799500D01*
X94004963Y-94799500D01*
X94004959Y-94799500D01*
X93866873Y-94840046D01*
X93866866Y-94840049D01*
X93745797Y-94917855D01*
X93651546Y-95026628D01*
X93591758Y-95157543D01*
X93582608Y-95221186D01*
X93555612Y-95276094D01*
X93508112Y-95301157D01*
X93456731Y-95301157D01*
X93461120Y-95298841D01*
X93440935Y-95295940D01*
X93397057Y-95253297D01*
X93386624Y-95221186D01*
X93377473Y-95157543D01*
X93331500Y-95056878D01*
X93317685Y-95026627D01*
X93223436Y-94917857D01*
X93223435Y-94917856D01*
X93223434Y-94917855D01*
X93102365Y-94840049D01*
X93102362Y-94840047D01*
X93102361Y-94840047D01*
X93102358Y-94840046D01*
X92964272Y-94799500D01*
X92964269Y-94799500D01*
X92820347Y-94799500D01*
X92820343Y-94799500D01*
X92682257Y-94840046D01*
X92682250Y-94840049D01*
X92561181Y-94917855D01*
X92466930Y-95026628D01*
X92407142Y-95157543D01*
X92397992Y-95221183D01*
X92370996Y-95276090D01*
X92323483Y-95301159D01*
X92272119Y-95301159D01*
X92276516Y-95298839D01*
X92256319Y-95295935D01*
X92212441Y-95253293D01*
X92202008Y-95221181D01*
X92192858Y-95157544D01*
X92147923Y-95059150D01*
X92133070Y-95026627D01*
X92038821Y-94917857D01*
X92038820Y-94917856D01*
X92038819Y-94917855D01*
X91917750Y-94840049D01*
X91917747Y-94840047D01*
X91917746Y-94840047D01*
X91917743Y-94840046D01*
X91779657Y-94799500D01*
X91779654Y-94799500D01*
X91635732Y-94799500D01*
X91635728Y-94799500D01*
X91497642Y-94840046D01*
X91497635Y-94840049D01*
X91376566Y-94917855D01*
X91282315Y-95026628D01*
X91222527Y-95157543D01*
X91213377Y-95221186D01*
X91186381Y-95276094D01*
X91138881Y-95301157D01*
X91087500Y-95301157D01*
X91091889Y-95298841D01*
X91071704Y-95295940D01*
X91027826Y-95253297D01*
X91017393Y-95221186D01*
X91008242Y-95157543D01*
X90962269Y-95056878D01*
X90948454Y-95026627D01*
X90854205Y-94917857D01*
X90854204Y-94917856D01*
X90854203Y-94917855D01*
X90733134Y-94840049D01*
X90733131Y-94840047D01*
X90733130Y-94840047D01*
X90733127Y-94840046D01*
X90595041Y-94799500D01*
X90595038Y-94799500D01*
X90451116Y-94799500D01*
X90451112Y-94799500D01*
X90313026Y-94840046D01*
X90313019Y-94840049D01*
X90191950Y-94917855D01*
X90097699Y-95026628D01*
X90037911Y-95157543D01*
X90028761Y-95221183D01*
X90001765Y-95276090D01*
X89954252Y-95301159D01*
X89902888Y-95301159D01*
X89907285Y-95298839D01*
X89887088Y-95295935D01*
X89843210Y-95253293D01*
X89832777Y-95221181D01*
X89823627Y-95157544D01*
X89778692Y-95059150D01*
X89763839Y-95026627D01*
X89669590Y-94917857D01*
X89669589Y-94917856D01*
X89669588Y-94917855D01*
X89548519Y-94840049D01*
X89548516Y-94840047D01*
X89548515Y-94840047D01*
X89548512Y-94840046D01*
X89410426Y-94799500D01*
X89410423Y-94799500D01*
X89266501Y-94799500D01*
X89266497Y-94799500D01*
X89128411Y-94840046D01*
X89128404Y-94840049D01*
X89007335Y-94917855D01*
X88913084Y-95026628D01*
X88853296Y-95157543D01*
X88844146Y-95221183D01*
X88817150Y-95276090D01*
X88769637Y-95301159D01*
X88718273Y-95301159D01*
X88722670Y-95298839D01*
X88702473Y-95295935D01*
X88658595Y-95253293D01*
X88648162Y-95221181D01*
X88639012Y-95157544D01*
X88594077Y-95059150D01*
X88579224Y-95026627D01*
X88484975Y-94917857D01*
X88484974Y-94917856D01*
X88484973Y-94917855D01*
X88363904Y-94840049D01*
X88363901Y-94840047D01*
X88363900Y-94840047D01*
X88363897Y-94840046D01*
X88225811Y-94799500D01*
X88225808Y-94799500D01*
X88081886Y-94799500D01*
X88081882Y-94799500D01*
X87943796Y-94840046D01*
X87943789Y-94840049D01*
X87822720Y-94917855D01*
X87728469Y-95026628D01*
X87668681Y-95157543D01*
X87659531Y-95221186D01*
X87632535Y-95276094D01*
X87585035Y-95301157D01*
X87533654Y-95301157D01*
X87538043Y-95298841D01*
X87517858Y-95295940D01*
X87473980Y-95253297D01*
X87463547Y-95221186D01*
X87454396Y-95157543D01*
X87408423Y-95056878D01*
X87394608Y-95026627D01*
X87300359Y-94917857D01*
X87300358Y-94917856D01*
X87300357Y-94917855D01*
X87179288Y-94840049D01*
X87179285Y-94840047D01*
X87179284Y-94840047D01*
X87179281Y-94840046D01*
X87041195Y-94799500D01*
X87041192Y-94799500D01*
X86897270Y-94799500D01*
X86897266Y-94799500D01*
X86759180Y-94840046D01*
X86759173Y-94840049D01*
X86638104Y-94917855D01*
X86543853Y-95026628D01*
X86484065Y-95157543D01*
X86474915Y-95221183D01*
X86447919Y-95276090D01*
X86400406Y-95301159D01*
X86349042Y-95301159D01*
X86353439Y-95298839D01*
X86333242Y-95295935D01*
X86289364Y-95253293D01*
X86278931Y-95221181D01*
X86269781Y-95157544D01*
X86224846Y-95059150D01*
X86209993Y-95026627D01*
X86115744Y-94917857D01*
X86115743Y-94917856D01*
X86115742Y-94917855D01*
X85994673Y-94840049D01*
X85994670Y-94840047D01*
X85994669Y-94840047D01*
X85994666Y-94840046D01*
X85856580Y-94799500D01*
X85856577Y-94799500D01*
X85712655Y-94799500D01*
X85712651Y-94799500D01*
X85574565Y-94840046D01*
X85574558Y-94840049D01*
X85453489Y-94917855D01*
X85359238Y-95026628D01*
X85299450Y-95157543D01*
X85290300Y-95221186D01*
X85263304Y-95276094D01*
X85215804Y-95301157D01*
X85164423Y-95301157D01*
X85168812Y-95298841D01*
X85148627Y-95295940D01*
X85104749Y-95253297D01*
X85094316Y-95221186D01*
X85085165Y-95157543D01*
X85039192Y-95056878D01*
X85025377Y-95026627D01*
X84931128Y-94917857D01*
X84931127Y-94917856D01*
X84931126Y-94917855D01*
X84810057Y-94840049D01*
X84810054Y-94840047D01*
X84810053Y-94840047D01*
X84810050Y-94840046D01*
X84671964Y-94799500D01*
X84671961Y-94799500D01*
X84528039Y-94799500D01*
X84528035Y-94799500D01*
X84389949Y-94840046D01*
X84389942Y-94840049D01*
X84268872Y-94917856D01*
X84268870Y-94917858D01*
X84173819Y-95027554D01*
X84121423Y-95059150D01*
X84060463Y-95053914D01*
X84014222Y-95013847D01*
X84000000Y-94962723D01*
X84000000Y-89699000D01*
X84018907Y-89640809D01*
X84068407Y-89604845D01*
X84099000Y-89600000D01*
X100999999Y-89600000D01*
X101000000Y-89600000D01*
X112000000Y-89600000D01*
X112000001Y-89600000D01*
X115901000Y-89600000D01*
X115959191Y-89618907D01*
G37*
%TD.AperFunction*%
%TD*%
M02*
