%TF.GenerationSoftware,KiCad,Pcbnew,7.0.10*%
%TF.CreationDate,2026-10-10T16:01:01+02:00*%
%TF.ProjectId,spb-bb-fab,7370622d-6262-42d6-9661-622e6b696361,rev?*%
%TF.SameCoordinates,Original*%
%TF.FileFunction,Paste,Top*%
%TF.FilePolarity,Positive*%
%FSLAX46Y46*%
G04 Gerber Fmt 4.6, Leading zero omitted, Abs format (unit mm)*
G04 Created by KiCad (PCBNEW 7.0.10) date 2026-10-10 16:01:01*
%MOMM*%
%LPD*%
G01*
G04 APERTURE LIST*
G04 Aperture macros list*
%AMRoundRect*
0 Rectangle with rounded corners*
0 $1 Rounding radius*
0 $2 $3 $4 $5 $6 $7 $8 $9 X,Y pos of 4 corners*
0 Add a 4 corners polygon primitive as box body*
4,1,4,$2,$3,$4,$5,$6,$7,$8,$9,$2,$3,0*
0 Add four circle primitives for the rounded corners*
1,1,$1+$1,$2,$3*
1,1,$1+$1,$4,$5*
1,1,$1+$1,$6,$7*
1,1,$1+$1,$8,$9*
0 Add four rect primitives between the rounded corners*
20,1,$1+$1,$2,$3,$4,$5,0*
20,1,$1+$1,$4,$5,$6,$7,0*
20,1,$1+$1,$6,$7,$8,$9,0*
20,1,$1+$1,$8,$9,$2,$3,0*%
G04 Aperture macros list end*
%ADD10RoundRect,0.250000X0.475000X-0.250000X0.475000X0.250000X-0.475000X0.250000X-0.475000X-0.250000X0*%
%ADD11RoundRect,0.200000X-0.200000X-0.275000X0.200000X-0.275000X0.200000X0.275000X-0.200000X0.275000X0*%
%ADD12RoundRect,0.250000X-0.250000X-0.475000X0.250000X-0.475000X0.250000X0.475000X-0.250000X0.475000X0*%
%ADD13RoundRect,0.250000X1.100000X-0.325000X1.100000X0.325000X-1.100000X0.325000X-1.100000X-0.325000X0*%
%ADD14RoundRect,0.135000X0.185000X-0.135000X0.185000X0.135000X-0.185000X0.135000X-0.185000X-0.135000X0*%
%ADD15RoundRect,0.087500X-0.087500X-0.287500X0.087500X-0.287500X0.087500X0.287500X-0.087500X0.287500X0*%
%ADD16RoundRect,0.200000X0.275000X-0.200000X0.275000X0.200000X-0.275000X0.200000X-0.275000X-0.200000X0*%
%ADD17RoundRect,0.140000X-0.140000X-0.170000X0.140000X-0.170000X0.140000X0.170000X-0.140000X0.170000X0*%
%ADD18RoundRect,0.125000X0.125000X-0.125000X0.125000X0.125000X-0.125000X0.125000X-0.125000X-0.125000X0*%
%ADD19RoundRect,0.157500X0.157500X0.222500X-0.157500X0.222500X-0.157500X-0.222500X0.157500X-0.222500X0*%
%ADD20RoundRect,0.125000X0.600000X0.125000X-0.600000X0.125000X-0.600000X-0.125000X0.600000X-0.125000X0*%
%ADD21RoundRect,0.218750X0.256250X-0.218750X0.256250X0.218750X-0.256250X0.218750X-0.256250X-0.218750X0*%
%ADD22RoundRect,0.250000X0.625000X-0.312500X0.625000X0.312500X-0.625000X0.312500X-0.625000X-0.312500X0*%
%ADD23RoundRect,0.218750X-0.218750X-0.256250X0.218750X-0.256250X0.218750X0.256250X-0.218750X0.256250X0*%
%ADD24RoundRect,0.135000X-0.135000X-0.185000X0.135000X-0.185000X0.135000X0.185000X-0.135000X0.185000X0*%
%ADD25RoundRect,0.150000X-0.587500X-0.150000X0.587500X-0.150000X0.587500X0.150000X-0.587500X0.150000X0*%
%ADD26R,2.300000X1.000000*%
G04 APERTURE END LIST*
%TO.C,Q3*%
G36*
X93241705Y-110158153D02*
G01*
X93252961Y-110161567D01*
X93263334Y-110167112D01*
X93272426Y-110174574D01*
X93279888Y-110183666D01*
X93285433Y-110194039D01*
X93288847Y-110205295D01*
X93290000Y-110217000D01*
X93290000Y-110547000D01*
X93288847Y-110558705D01*
X93285433Y-110569961D01*
X93279888Y-110580334D01*
X93272426Y-110589426D01*
X93263334Y-110596888D01*
X93252961Y-110602433D01*
X93241705Y-110605847D01*
X93230000Y-110607000D01*
X93100000Y-110607000D01*
X93088295Y-110605847D01*
X93077039Y-110602433D01*
X93066666Y-110596888D01*
X93057574Y-110589426D01*
X93050112Y-110580334D01*
X93044567Y-110569961D01*
X93041153Y-110558705D01*
X93040000Y-110547000D01*
X93040000Y-110217000D01*
X93041153Y-110205295D01*
X93044567Y-110194039D01*
X93050112Y-110183666D01*
X93057574Y-110174574D01*
X93066666Y-110167112D01*
X93077039Y-110161567D01*
X93088295Y-110158153D01*
X93100000Y-110157000D01*
X93230000Y-110157000D01*
X93241705Y-110158153D01*
G37*
G36*
X93241705Y-109241153D02*
G01*
X93252961Y-109244567D01*
X93263334Y-109250112D01*
X93272426Y-109257574D01*
X93279888Y-109266666D01*
X93285433Y-109277039D01*
X93288847Y-109288295D01*
X93290000Y-109300000D01*
X93290000Y-109630000D01*
X93288847Y-109641705D01*
X93285433Y-109652961D01*
X93279888Y-109663334D01*
X93272426Y-109672426D01*
X93263334Y-109679888D01*
X93252961Y-109685433D01*
X93241705Y-109688847D01*
X93230000Y-109690000D01*
X93100000Y-109690000D01*
X93088295Y-109688847D01*
X93077039Y-109685433D01*
X93066666Y-109679888D01*
X93057574Y-109672426D01*
X93050112Y-109663334D01*
X93044567Y-109652961D01*
X93041153Y-109641705D01*
X93040000Y-109630000D01*
X93040000Y-109300000D01*
X93041153Y-109288295D01*
X93044567Y-109277039D01*
X93050112Y-109266666D01*
X93057574Y-109257574D01*
X93066666Y-109250112D01*
X93077039Y-109244567D01*
X93088295Y-109241153D01*
X93100000Y-109240000D01*
X93230000Y-109240000D01*
X93241705Y-109241153D01*
G37*
G36*
X93241705Y-108611153D02*
G01*
X93252961Y-108614567D01*
X93263334Y-108620112D01*
X93272426Y-108627574D01*
X93279888Y-108636666D01*
X93285433Y-108647039D01*
X93288847Y-108658295D01*
X93290000Y-108670000D01*
X93290000Y-109000000D01*
X93288847Y-109011705D01*
X93285433Y-109022961D01*
X93279888Y-109033334D01*
X93272426Y-109042426D01*
X93263334Y-109049888D01*
X93252961Y-109055433D01*
X93241705Y-109058847D01*
X93230000Y-109060000D01*
X93100000Y-109060000D01*
X93088295Y-109058847D01*
X93077039Y-109055433D01*
X93066666Y-109049888D01*
X93057574Y-109042426D01*
X93050112Y-109033334D01*
X93044567Y-109022961D01*
X93041153Y-109011705D01*
X93040000Y-109000000D01*
X93040000Y-108670000D01*
X93041153Y-108658295D01*
X93044567Y-108647039D01*
X93050112Y-108636666D01*
X93057574Y-108627574D01*
X93066666Y-108620112D01*
X93077039Y-108614567D01*
X93088295Y-108611153D01*
X93100000Y-108610000D01*
X93230000Y-108610000D01*
X93241705Y-108611153D01*
G37*
G36*
X93241705Y-107976153D02*
G01*
X93252961Y-107979567D01*
X93263334Y-107985112D01*
X93272426Y-107992574D01*
X93279888Y-108001666D01*
X93285433Y-108012039D01*
X93288847Y-108023295D01*
X93290000Y-108035000D01*
X93290000Y-108365000D01*
X93288847Y-108376705D01*
X93285433Y-108387961D01*
X93279888Y-108398334D01*
X93272426Y-108407426D01*
X93263334Y-108414888D01*
X93252961Y-108420433D01*
X93241705Y-108423847D01*
X93230000Y-108425000D01*
X93100000Y-108425000D01*
X93088295Y-108423847D01*
X93077039Y-108420433D01*
X93066666Y-108414888D01*
X93057574Y-108407426D01*
X93050112Y-108398334D01*
X93044567Y-108387961D01*
X93041153Y-108376705D01*
X93040000Y-108365000D01*
X93040000Y-108035000D01*
X93041153Y-108023295D01*
X93044567Y-108012039D01*
X93050112Y-108001666D01*
X93057574Y-107992574D01*
X93066666Y-107985112D01*
X93077039Y-107979567D01*
X93088295Y-107976153D01*
X93100000Y-107975000D01*
X93230000Y-107975000D01*
X93241705Y-107976153D01*
G37*
G36*
X92809205Y-108674653D02*
G01*
X92820461Y-108678067D01*
X92830834Y-108683612D01*
X92839926Y-108691074D01*
X92847388Y-108700166D01*
X92852933Y-108710539D01*
X92856347Y-108721795D01*
X92857500Y-108733500D01*
X92857500Y-109586500D01*
X92856347Y-109598205D01*
X92852933Y-109609461D01*
X92847388Y-109619834D01*
X92839926Y-109628926D01*
X92830834Y-109636388D01*
X92820461Y-109641933D01*
X92809205Y-109645347D01*
X92797500Y-109646500D01*
X92382500Y-109646500D01*
X92370795Y-109645347D01*
X92359539Y-109641933D01*
X92349166Y-109636388D01*
X92340074Y-109628926D01*
X92332612Y-109619834D01*
X92327067Y-109609461D01*
X92323653Y-109598205D01*
X92322500Y-109586500D01*
X92322500Y-108733500D01*
X92323653Y-108721795D01*
X92327067Y-108710539D01*
X92332612Y-108700166D01*
X92340074Y-108691074D01*
X92349166Y-108683612D01*
X92359539Y-108678067D01*
X92370795Y-108674653D01*
X92382500Y-108673500D01*
X92797500Y-108673500D01*
X92809205Y-108674653D01*
G37*
G36*
X92809205Y-107501153D02*
G01*
X92820461Y-107504567D01*
X92830834Y-107510112D01*
X92839926Y-107517574D01*
X92847388Y-107526666D01*
X92852933Y-107537039D01*
X92856347Y-107548295D01*
X92857500Y-107560000D01*
X92857500Y-108413000D01*
X92856347Y-108424705D01*
X92852933Y-108435961D01*
X92847388Y-108446334D01*
X92839926Y-108455426D01*
X92830834Y-108462888D01*
X92820461Y-108468433D01*
X92809205Y-108471847D01*
X92797500Y-108473000D01*
X92382500Y-108473000D01*
X92370795Y-108471847D01*
X92359539Y-108468433D01*
X92349166Y-108462888D01*
X92340074Y-108455426D01*
X92332612Y-108446334D01*
X92327067Y-108435961D01*
X92323653Y-108424705D01*
X92322500Y-108413000D01*
X92322500Y-107560000D01*
X92323653Y-107548295D01*
X92327067Y-107537039D01*
X92332612Y-107526666D01*
X92340074Y-107517574D01*
X92349166Y-107510112D01*
X92359539Y-107504567D01*
X92370795Y-107501153D01*
X92382500Y-107500000D01*
X92797500Y-107500000D01*
X92809205Y-107501153D01*
G37*
G36*
X92779509Y-109866921D02*
G01*
X92798268Y-109872612D01*
X92815557Y-109881853D01*
X92830711Y-109894289D01*
X92843147Y-109909443D01*
X92852388Y-109926732D01*
X92858079Y-109945491D01*
X92860000Y-109965000D01*
X92860000Y-110800000D01*
X92858079Y-110819509D01*
X92852388Y-110838268D01*
X92843147Y-110855557D01*
X92830711Y-110870711D01*
X92815557Y-110883147D01*
X92798268Y-110892388D01*
X92779509Y-110898079D01*
X92760000Y-110900000D01*
X92420000Y-110900000D01*
X92400491Y-110898079D01*
X92381732Y-110892388D01*
X92364443Y-110883147D01*
X92349289Y-110870711D01*
X92336853Y-110855557D01*
X92327612Y-110838268D01*
X92321921Y-110819509D01*
X92320000Y-110800000D01*
X92320000Y-109965000D01*
X92321921Y-109945491D01*
X92327612Y-109926732D01*
X92336853Y-109909443D01*
X92349289Y-109894289D01*
X92364443Y-109881853D01*
X92381732Y-109872612D01*
X92400491Y-109866921D01*
X92420000Y-109865000D01*
X92760000Y-109865000D01*
X92779509Y-109866921D01*
G37*
G36*
X91894509Y-109301921D02*
G01*
X91913268Y-109307612D01*
X91930557Y-109316853D01*
X91945711Y-109329289D01*
X91958147Y-109344443D01*
X91967388Y-109361732D01*
X91973079Y-109380491D01*
X91975000Y-109400000D01*
X91975000Y-110800000D01*
X91973079Y-110819509D01*
X91967388Y-110838268D01*
X91958147Y-110855557D01*
X91945711Y-110870711D01*
X91930557Y-110883147D01*
X91913268Y-110892388D01*
X91894509Y-110898079D01*
X91875000Y-110900000D01*
X91675000Y-110900000D01*
X91655491Y-110898079D01*
X91636732Y-110892388D01*
X91619443Y-110883147D01*
X91604289Y-110870711D01*
X91591853Y-110855557D01*
X91582612Y-110838268D01*
X91576921Y-110819509D01*
X91575000Y-110800000D01*
X91575000Y-109400000D01*
X91576921Y-109380491D01*
X91582612Y-109361732D01*
X91591853Y-109344443D01*
X91604289Y-109329289D01*
X91619443Y-109316853D01*
X91636732Y-109307612D01*
X91655491Y-109301921D01*
X91675000Y-109300000D01*
X91875000Y-109300000D01*
X91894509Y-109301921D01*
G37*
G36*
X91894509Y-107501921D02*
G01*
X91913268Y-107507612D01*
X91930557Y-107516853D01*
X91945711Y-107529289D01*
X91958147Y-107544443D01*
X91967388Y-107561732D01*
X91973079Y-107580491D01*
X91975000Y-107600000D01*
X91975000Y-109000000D01*
X91973079Y-109019509D01*
X91967388Y-109038268D01*
X91958147Y-109055557D01*
X91945711Y-109070711D01*
X91930557Y-109083147D01*
X91913268Y-109092388D01*
X91894509Y-109098079D01*
X91875000Y-109100000D01*
X91675000Y-109100000D01*
X91655491Y-109098079D01*
X91636732Y-109092388D01*
X91619443Y-109083147D01*
X91604289Y-109070711D01*
X91591853Y-109055557D01*
X91582612Y-109038268D01*
X91576921Y-109019509D01*
X91575000Y-109000000D01*
X91575000Y-107600000D01*
X91576921Y-107580491D01*
X91582612Y-107561732D01*
X91591853Y-107544443D01*
X91604289Y-107529289D01*
X91619443Y-107516853D01*
X91636732Y-107507612D01*
X91655491Y-107501921D01*
X91675000Y-107500000D01*
X91875000Y-107500000D01*
X91894509Y-107501921D01*
G37*
G36*
X91044509Y-109301921D02*
G01*
X91063268Y-109307612D01*
X91080557Y-109316853D01*
X91095711Y-109329289D01*
X91108147Y-109344443D01*
X91117388Y-109361732D01*
X91123079Y-109380491D01*
X91125000Y-109400000D01*
X91125000Y-110800000D01*
X91123079Y-110819509D01*
X91117388Y-110838268D01*
X91108147Y-110855557D01*
X91095711Y-110870711D01*
X91080557Y-110883147D01*
X91063268Y-110892388D01*
X91044509Y-110898079D01*
X91025000Y-110900000D01*
X90825000Y-110900000D01*
X90805491Y-110898079D01*
X90786732Y-110892388D01*
X90769443Y-110883147D01*
X90754289Y-110870711D01*
X90741853Y-110855557D01*
X90732612Y-110838268D01*
X90726921Y-110819509D01*
X90725000Y-110800000D01*
X90725000Y-109400000D01*
X90726921Y-109380491D01*
X90732612Y-109361732D01*
X90741853Y-109344443D01*
X90754289Y-109329289D01*
X90769443Y-109316853D01*
X90786732Y-109307612D01*
X90805491Y-109301921D01*
X90825000Y-109300000D01*
X91025000Y-109300000D01*
X91044509Y-109301921D01*
G37*
G36*
X91044509Y-107501921D02*
G01*
X91063268Y-107507612D01*
X91080557Y-107516853D01*
X91095711Y-107529289D01*
X91108147Y-107544443D01*
X91117388Y-107561732D01*
X91123079Y-107580491D01*
X91125000Y-107600000D01*
X91125000Y-109000000D01*
X91123079Y-109019509D01*
X91117388Y-109038268D01*
X91108147Y-109055557D01*
X91095711Y-109070711D01*
X91080557Y-109083147D01*
X91063268Y-109092388D01*
X91044509Y-109098079D01*
X91025000Y-109100000D01*
X90825000Y-109100000D01*
X90805491Y-109098079D01*
X90786732Y-109092388D01*
X90769443Y-109083147D01*
X90754289Y-109070711D01*
X90741853Y-109055557D01*
X90732612Y-109038268D01*
X90726921Y-109019509D01*
X90725000Y-109000000D01*
X90725000Y-107600000D01*
X90726921Y-107580491D01*
X90732612Y-107561732D01*
X90741853Y-107544443D01*
X90754289Y-107529289D01*
X90769443Y-107516853D01*
X90786732Y-107507612D01*
X90805491Y-107501921D01*
X90825000Y-107500000D01*
X91025000Y-107500000D01*
X91044509Y-107501921D01*
G37*
G36*
X90194509Y-109301921D02*
G01*
X90213268Y-109307612D01*
X90230557Y-109316853D01*
X90245711Y-109329289D01*
X90258147Y-109344443D01*
X90267388Y-109361732D01*
X90273079Y-109380491D01*
X90275000Y-109400000D01*
X90275000Y-110800000D01*
X90273079Y-110819509D01*
X90267388Y-110838268D01*
X90258147Y-110855557D01*
X90245711Y-110870711D01*
X90230557Y-110883147D01*
X90213268Y-110892388D01*
X90194509Y-110898079D01*
X90175000Y-110900000D01*
X89975000Y-110900000D01*
X89955491Y-110898079D01*
X89936732Y-110892388D01*
X89919443Y-110883147D01*
X89904289Y-110870711D01*
X89891853Y-110855557D01*
X89882612Y-110838268D01*
X89876921Y-110819509D01*
X89875000Y-110800000D01*
X89875000Y-109400000D01*
X89876921Y-109380491D01*
X89882612Y-109361732D01*
X89891853Y-109344443D01*
X89904289Y-109329289D01*
X89919443Y-109316853D01*
X89936732Y-109307612D01*
X89955491Y-109301921D01*
X89975000Y-109300000D01*
X90175000Y-109300000D01*
X90194509Y-109301921D01*
G37*
G36*
X90194509Y-107501921D02*
G01*
X90213268Y-107507612D01*
X90230557Y-107516853D01*
X90245711Y-107529289D01*
X90258147Y-107544443D01*
X90267388Y-107561732D01*
X90273079Y-107580491D01*
X90275000Y-107600000D01*
X90275000Y-109000000D01*
X90273079Y-109019509D01*
X90267388Y-109038268D01*
X90258147Y-109055557D01*
X90245711Y-109070711D01*
X90230557Y-109083147D01*
X90213268Y-109092388D01*
X90194509Y-109098079D01*
X90175000Y-109100000D01*
X89975000Y-109100000D01*
X89955491Y-109098079D01*
X89936732Y-109092388D01*
X89919443Y-109083147D01*
X89904289Y-109070711D01*
X89891853Y-109055557D01*
X89882612Y-109038268D01*
X89876921Y-109019509D01*
X89875000Y-109000000D01*
X89875000Y-107600000D01*
X89876921Y-107580491D01*
X89882612Y-107561732D01*
X89891853Y-107544443D01*
X89904289Y-107529289D01*
X89919443Y-107516853D01*
X89936732Y-107507612D01*
X89955491Y-107501921D01*
X89975000Y-107500000D01*
X90175000Y-107500000D01*
X90194509Y-107501921D01*
G37*
G36*
X89344509Y-109301921D02*
G01*
X89363268Y-109307612D01*
X89380557Y-109316853D01*
X89395711Y-109329289D01*
X89408147Y-109344443D01*
X89417388Y-109361732D01*
X89423079Y-109380491D01*
X89425000Y-109400000D01*
X89425000Y-110800000D01*
X89423079Y-110819509D01*
X89417388Y-110838268D01*
X89408147Y-110855557D01*
X89395711Y-110870711D01*
X89380557Y-110883147D01*
X89363268Y-110892388D01*
X89344509Y-110898079D01*
X89325000Y-110900000D01*
X89125000Y-110900000D01*
X89105491Y-110898079D01*
X89086732Y-110892388D01*
X89069443Y-110883147D01*
X89054289Y-110870711D01*
X89041853Y-110855557D01*
X89032612Y-110838268D01*
X89026921Y-110819509D01*
X89025000Y-110800000D01*
X89025000Y-109400000D01*
X89026921Y-109380491D01*
X89032612Y-109361732D01*
X89041853Y-109344443D01*
X89054289Y-109329289D01*
X89069443Y-109316853D01*
X89086732Y-109307612D01*
X89105491Y-109301921D01*
X89125000Y-109300000D01*
X89325000Y-109300000D01*
X89344509Y-109301921D01*
G37*
G36*
X89344509Y-107501921D02*
G01*
X89363268Y-107507612D01*
X89380557Y-107516853D01*
X89395711Y-107529289D01*
X89408147Y-107544443D01*
X89417388Y-107561732D01*
X89423079Y-107580491D01*
X89425000Y-107600000D01*
X89425000Y-109000000D01*
X89423079Y-109019509D01*
X89417388Y-109038268D01*
X89408147Y-109055557D01*
X89395711Y-109070711D01*
X89380557Y-109083147D01*
X89363268Y-109092388D01*
X89344509Y-109098079D01*
X89325000Y-109100000D01*
X89125000Y-109100000D01*
X89105491Y-109098079D01*
X89086732Y-109092388D01*
X89069443Y-109083147D01*
X89054289Y-109070711D01*
X89041853Y-109055557D01*
X89032612Y-109038268D01*
X89026921Y-109019509D01*
X89025000Y-109000000D01*
X89025000Y-107600000D01*
X89026921Y-107580491D01*
X89032612Y-107561732D01*
X89041853Y-107544443D01*
X89054289Y-107529289D01*
X89069443Y-107516853D01*
X89086732Y-107507612D01*
X89105491Y-107501921D01*
X89125000Y-107500000D01*
X89325000Y-107500000D01*
X89344509Y-107501921D01*
G37*
G36*
X88486765Y-109302094D02*
G01*
X88507212Y-109308297D01*
X88526057Y-109318370D01*
X88542575Y-109331925D01*
X88556130Y-109348443D01*
X88566203Y-109367288D01*
X88572406Y-109387735D01*
X88574500Y-109409000D01*
X88574500Y-110791000D01*
X88572406Y-110812265D01*
X88566203Y-110832712D01*
X88556130Y-110851557D01*
X88542575Y-110868075D01*
X88526057Y-110881630D01*
X88507212Y-110891703D01*
X88486765Y-110897906D01*
X88465500Y-110900000D01*
X88248500Y-110900000D01*
X88227235Y-110897906D01*
X88206788Y-110891703D01*
X88187943Y-110881630D01*
X88171425Y-110868075D01*
X88157870Y-110851557D01*
X88147797Y-110832712D01*
X88141594Y-110812265D01*
X88139500Y-110791000D01*
X88139500Y-109409000D01*
X88141594Y-109387735D01*
X88147797Y-109367288D01*
X88157870Y-109348443D01*
X88171425Y-109331925D01*
X88187943Y-109318370D01*
X88206788Y-109308297D01*
X88227235Y-109302094D01*
X88248500Y-109300000D01*
X88465500Y-109300000D01*
X88486765Y-109302094D01*
G37*
G36*
X88486765Y-107502094D02*
G01*
X88507212Y-107508297D01*
X88526057Y-107518370D01*
X88542575Y-107531925D01*
X88556130Y-107548443D01*
X88566203Y-107567288D01*
X88572406Y-107587735D01*
X88574500Y-107609000D01*
X88574500Y-108991000D01*
X88572406Y-109012265D01*
X88566203Y-109032712D01*
X88556130Y-109051557D01*
X88542575Y-109068075D01*
X88526057Y-109081630D01*
X88507212Y-109091703D01*
X88486765Y-109097906D01*
X88465500Y-109100000D01*
X88248500Y-109100000D01*
X88227235Y-109097906D01*
X88206788Y-109091703D01*
X88187943Y-109081630D01*
X88171425Y-109068075D01*
X88157870Y-109051557D01*
X88147797Y-109032712D01*
X88141594Y-109012265D01*
X88139500Y-108991000D01*
X88139500Y-107609000D01*
X88141594Y-107587735D01*
X88147797Y-107567288D01*
X88157870Y-107548443D01*
X88171425Y-107531925D01*
X88187943Y-107518370D01*
X88206788Y-107508297D01*
X88227235Y-107502094D01*
X88248500Y-107500000D01*
X88465500Y-107500000D01*
X88486765Y-107502094D01*
G37*
G36*
X87911705Y-109951153D02*
G01*
X87922961Y-109954567D01*
X87933334Y-109960112D01*
X87942426Y-109967574D01*
X87949888Y-109976666D01*
X87955433Y-109987039D01*
X87958847Y-109998295D01*
X87960000Y-110010000D01*
X87960000Y-110340000D01*
X87958847Y-110351705D01*
X87955433Y-110362961D01*
X87949888Y-110373334D01*
X87942426Y-110382426D01*
X87933334Y-110389888D01*
X87922961Y-110395433D01*
X87911705Y-110398847D01*
X87900000Y-110400000D01*
X87770000Y-110400000D01*
X87758295Y-110398847D01*
X87747039Y-110395433D01*
X87736666Y-110389888D01*
X87727574Y-110382426D01*
X87720112Y-110373334D01*
X87714567Y-110362961D01*
X87711153Y-110351705D01*
X87710000Y-110340000D01*
X87710000Y-110010000D01*
X87711153Y-109998295D01*
X87714567Y-109987039D01*
X87720112Y-109976666D01*
X87727574Y-109967574D01*
X87736666Y-109960112D01*
X87747039Y-109954567D01*
X87758295Y-109951153D01*
X87770000Y-109950000D01*
X87900000Y-109950000D01*
X87911705Y-109951153D01*
G37*
G36*
X87911705Y-109301153D02*
G01*
X87922961Y-109304567D01*
X87933334Y-109310112D01*
X87942426Y-109317574D01*
X87949888Y-109326666D01*
X87955433Y-109337039D01*
X87958847Y-109348295D01*
X87960000Y-109360000D01*
X87960000Y-109690000D01*
X87958847Y-109701705D01*
X87955433Y-109712961D01*
X87949888Y-109723334D01*
X87942426Y-109732426D01*
X87933334Y-109739888D01*
X87922961Y-109745433D01*
X87911705Y-109748847D01*
X87900000Y-109750000D01*
X87770000Y-109750000D01*
X87758295Y-109748847D01*
X87747039Y-109745433D01*
X87736666Y-109739888D01*
X87727574Y-109732426D01*
X87720112Y-109723334D01*
X87714567Y-109712961D01*
X87711153Y-109701705D01*
X87710000Y-109690000D01*
X87710000Y-109360000D01*
X87711153Y-109348295D01*
X87714567Y-109337039D01*
X87720112Y-109326666D01*
X87727574Y-109317574D01*
X87736666Y-109310112D01*
X87747039Y-109304567D01*
X87758295Y-109301153D01*
X87770000Y-109300000D01*
X87900000Y-109300000D01*
X87911705Y-109301153D01*
G37*
G36*
X87911705Y-108651153D02*
G01*
X87922961Y-108654567D01*
X87933334Y-108660112D01*
X87942426Y-108667574D01*
X87949888Y-108676666D01*
X87955433Y-108687039D01*
X87958847Y-108698295D01*
X87960000Y-108710000D01*
X87960000Y-109040000D01*
X87958847Y-109051705D01*
X87955433Y-109062961D01*
X87949888Y-109073334D01*
X87942426Y-109082426D01*
X87933334Y-109089888D01*
X87922961Y-109095433D01*
X87911705Y-109098847D01*
X87900000Y-109100000D01*
X87770000Y-109100000D01*
X87758295Y-109098847D01*
X87747039Y-109095433D01*
X87736666Y-109089888D01*
X87727574Y-109082426D01*
X87720112Y-109073334D01*
X87714567Y-109062961D01*
X87711153Y-109051705D01*
X87710000Y-109040000D01*
X87710000Y-108710000D01*
X87711153Y-108698295D01*
X87714567Y-108687039D01*
X87720112Y-108676666D01*
X87727574Y-108667574D01*
X87736666Y-108660112D01*
X87747039Y-108654567D01*
X87758295Y-108651153D01*
X87770000Y-108650000D01*
X87900000Y-108650000D01*
X87911705Y-108651153D01*
G37*
G36*
X87911705Y-108001153D02*
G01*
X87922961Y-108004567D01*
X87933334Y-108010112D01*
X87942426Y-108017574D01*
X87949888Y-108026666D01*
X87955433Y-108037039D01*
X87958847Y-108048295D01*
X87960000Y-108060000D01*
X87960000Y-108390000D01*
X87958847Y-108401705D01*
X87955433Y-108412961D01*
X87949888Y-108423334D01*
X87942426Y-108432426D01*
X87933334Y-108439888D01*
X87922961Y-108445433D01*
X87911705Y-108448847D01*
X87900000Y-108450000D01*
X87770000Y-108450000D01*
X87758295Y-108448847D01*
X87747039Y-108445433D01*
X87736666Y-108439888D01*
X87727574Y-108432426D01*
X87720112Y-108423334D01*
X87714567Y-108412961D01*
X87711153Y-108401705D01*
X87710000Y-108390000D01*
X87710000Y-108060000D01*
X87711153Y-108048295D01*
X87714567Y-108037039D01*
X87720112Y-108026666D01*
X87727574Y-108017574D01*
X87736666Y-108010112D01*
X87747039Y-108004567D01*
X87758295Y-108001153D01*
X87770000Y-108000000D01*
X87900000Y-108000000D01*
X87911705Y-108001153D01*
G37*
%TO.C,Q2*%
G36*
X106911705Y-103494153D02*
G01*
X106922961Y-103497567D01*
X106933334Y-103503112D01*
X106942426Y-103510574D01*
X106949888Y-103519666D01*
X106955433Y-103530039D01*
X106958847Y-103541295D01*
X106960000Y-103553000D01*
X106960000Y-103883000D01*
X106958847Y-103894705D01*
X106955433Y-103905961D01*
X106949888Y-103916334D01*
X106942426Y-103925426D01*
X106933334Y-103932888D01*
X106922961Y-103938433D01*
X106911705Y-103941847D01*
X106900000Y-103943000D01*
X106770000Y-103943000D01*
X106758295Y-103941847D01*
X106747039Y-103938433D01*
X106736666Y-103932888D01*
X106727574Y-103925426D01*
X106720112Y-103916334D01*
X106714567Y-103905961D01*
X106711153Y-103894705D01*
X106710000Y-103883000D01*
X106710000Y-103553000D01*
X106711153Y-103541295D01*
X106714567Y-103530039D01*
X106720112Y-103519666D01*
X106727574Y-103510574D01*
X106736666Y-103503112D01*
X106747039Y-103497567D01*
X106758295Y-103494153D01*
X106770000Y-103493000D01*
X106900000Y-103493000D01*
X106911705Y-103494153D01*
G37*
G36*
X106911705Y-104411153D02*
G01*
X106922961Y-104414567D01*
X106933334Y-104420112D01*
X106942426Y-104427574D01*
X106949888Y-104436666D01*
X106955433Y-104447039D01*
X106958847Y-104458295D01*
X106960000Y-104470000D01*
X106960000Y-104800000D01*
X106958847Y-104811705D01*
X106955433Y-104822961D01*
X106949888Y-104833334D01*
X106942426Y-104842426D01*
X106933334Y-104849888D01*
X106922961Y-104855433D01*
X106911705Y-104858847D01*
X106900000Y-104860000D01*
X106770000Y-104860000D01*
X106758295Y-104858847D01*
X106747039Y-104855433D01*
X106736666Y-104849888D01*
X106727574Y-104842426D01*
X106720112Y-104833334D01*
X106714567Y-104822961D01*
X106711153Y-104811705D01*
X106710000Y-104800000D01*
X106710000Y-104470000D01*
X106711153Y-104458295D01*
X106714567Y-104447039D01*
X106720112Y-104436666D01*
X106727574Y-104427574D01*
X106736666Y-104420112D01*
X106747039Y-104414567D01*
X106758295Y-104411153D01*
X106770000Y-104410000D01*
X106900000Y-104410000D01*
X106911705Y-104411153D01*
G37*
G36*
X106911705Y-105041153D02*
G01*
X106922961Y-105044567D01*
X106933334Y-105050112D01*
X106942426Y-105057574D01*
X106949888Y-105066666D01*
X106955433Y-105077039D01*
X106958847Y-105088295D01*
X106960000Y-105100000D01*
X106960000Y-105430000D01*
X106958847Y-105441705D01*
X106955433Y-105452961D01*
X106949888Y-105463334D01*
X106942426Y-105472426D01*
X106933334Y-105479888D01*
X106922961Y-105485433D01*
X106911705Y-105488847D01*
X106900000Y-105490000D01*
X106770000Y-105490000D01*
X106758295Y-105488847D01*
X106747039Y-105485433D01*
X106736666Y-105479888D01*
X106727574Y-105472426D01*
X106720112Y-105463334D01*
X106714567Y-105452961D01*
X106711153Y-105441705D01*
X106710000Y-105430000D01*
X106710000Y-105100000D01*
X106711153Y-105088295D01*
X106714567Y-105077039D01*
X106720112Y-105066666D01*
X106727574Y-105057574D01*
X106736666Y-105050112D01*
X106747039Y-105044567D01*
X106758295Y-105041153D01*
X106770000Y-105040000D01*
X106900000Y-105040000D01*
X106911705Y-105041153D01*
G37*
G36*
X106911705Y-105676153D02*
G01*
X106922961Y-105679567D01*
X106933334Y-105685112D01*
X106942426Y-105692574D01*
X106949888Y-105701666D01*
X106955433Y-105712039D01*
X106958847Y-105723295D01*
X106960000Y-105735000D01*
X106960000Y-106065000D01*
X106958847Y-106076705D01*
X106955433Y-106087961D01*
X106949888Y-106098334D01*
X106942426Y-106107426D01*
X106933334Y-106114888D01*
X106922961Y-106120433D01*
X106911705Y-106123847D01*
X106900000Y-106125000D01*
X106770000Y-106125000D01*
X106758295Y-106123847D01*
X106747039Y-106120433D01*
X106736666Y-106114888D01*
X106727574Y-106107426D01*
X106720112Y-106098334D01*
X106714567Y-106087961D01*
X106711153Y-106076705D01*
X106710000Y-106065000D01*
X106710000Y-105735000D01*
X106711153Y-105723295D01*
X106714567Y-105712039D01*
X106720112Y-105701666D01*
X106727574Y-105692574D01*
X106736666Y-105685112D01*
X106747039Y-105679567D01*
X106758295Y-105676153D01*
X106770000Y-105675000D01*
X106900000Y-105675000D01*
X106911705Y-105676153D01*
G37*
G36*
X107629205Y-104454653D02*
G01*
X107640461Y-104458067D01*
X107650834Y-104463612D01*
X107659926Y-104471074D01*
X107667388Y-104480166D01*
X107672933Y-104490539D01*
X107676347Y-104501795D01*
X107677500Y-104513500D01*
X107677500Y-105366500D01*
X107676347Y-105378205D01*
X107672933Y-105389461D01*
X107667388Y-105399834D01*
X107659926Y-105408926D01*
X107650834Y-105416388D01*
X107640461Y-105421933D01*
X107629205Y-105425347D01*
X107617500Y-105426500D01*
X107202500Y-105426500D01*
X107190795Y-105425347D01*
X107179539Y-105421933D01*
X107169166Y-105416388D01*
X107160074Y-105408926D01*
X107152612Y-105399834D01*
X107147067Y-105389461D01*
X107143653Y-105378205D01*
X107142500Y-105366500D01*
X107142500Y-104513500D01*
X107143653Y-104501795D01*
X107147067Y-104490539D01*
X107152612Y-104480166D01*
X107160074Y-104471074D01*
X107169166Y-104463612D01*
X107179539Y-104458067D01*
X107190795Y-104454653D01*
X107202500Y-104453500D01*
X107617500Y-104453500D01*
X107629205Y-104454653D01*
G37*
G36*
X107629205Y-105628153D02*
G01*
X107640461Y-105631567D01*
X107650834Y-105637112D01*
X107659926Y-105644574D01*
X107667388Y-105653666D01*
X107672933Y-105664039D01*
X107676347Y-105675295D01*
X107677500Y-105687000D01*
X107677500Y-106540000D01*
X107676347Y-106551705D01*
X107672933Y-106562961D01*
X107667388Y-106573334D01*
X107659926Y-106582426D01*
X107650834Y-106589888D01*
X107640461Y-106595433D01*
X107629205Y-106598847D01*
X107617500Y-106600000D01*
X107202500Y-106600000D01*
X107190795Y-106598847D01*
X107179539Y-106595433D01*
X107169166Y-106589888D01*
X107160074Y-106582426D01*
X107152612Y-106573334D01*
X107147067Y-106562961D01*
X107143653Y-106551705D01*
X107142500Y-106540000D01*
X107142500Y-105687000D01*
X107143653Y-105675295D01*
X107147067Y-105664039D01*
X107152612Y-105653666D01*
X107160074Y-105644574D01*
X107169166Y-105637112D01*
X107179539Y-105631567D01*
X107190795Y-105628153D01*
X107202500Y-105627000D01*
X107617500Y-105627000D01*
X107629205Y-105628153D01*
G37*
G36*
X107599509Y-103201921D02*
G01*
X107618268Y-103207612D01*
X107635557Y-103216853D01*
X107650711Y-103229289D01*
X107663147Y-103244443D01*
X107672388Y-103261732D01*
X107678079Y-103280491D01*
X107680000Y-103300000D01*
X107680000Y-104135000D01*
X107678079Y-104154509D01*
X107672388Y-104173268D01*
X107663147Y-104190557D01*
X107650711Y-104205711D01*
X107635557Y-104218147D01*
X107618268Y-104227388D01*
X107599509Y-104233079D01*
X107580000Y-104235000D01*
X107240000Y-104235000D01*
X107220491Y-104233079D01*
X107201732Y-104227388D01*
X107184443Y-104218147D01*
X107169289Y-104205711D01*
X107156853Y-104190557D01*
X107147612Y-104173268D01*
X107141921Y-104154509D01*
X107140000Y-104135000D01*
X107140000Y-103300000D01*
X107141921Y-103280491D01*
X107147612Y-103261732D01*
X107156853Y-103244443D01*
X107169289Y-103229289D01*
X107184443Y-103216853D01*
X107201732Y-103207612D01*
X107220491Y-103201921D01*
X107240000Y-103200000D01*
X107580000Y-103200000D01*
X107599509Y-103201921D01*
G37*
G36*
X108344509Y-103201921D02*
G01*
X108363268Y-103207612D01*
X108380557Y-103216853D01*
X108395711Y-103229289D01*
X108408147Y-103244443D01*
X108417388Y-103261732D01*
X108423079Y-103280491D01*
X108425000Y-103300000D01*
X108425000Y-104700000D01*
X108423079Y-104719509D01*
X108417388Y-104738268D01*
X108408147Y-104755557D01*
X108395711Y-104770711D01*
X108380557Y-104783147D01*
X108363268Y-104792388D01*
X108344509Y-104798079D01*
X108325000Y-104800000D01*
X108125000Y-104800000D01*
X108105491Y-104798079D01*
X108086732Y-104792388D01*
X108069443Y-104783147D01*
X108054289Y-104770711D01*
X108041853Y-104755557D01*
X108032612Y-104738268D01*
X108026921Y-104719509D01*
X108025000Y-104700000D01*
X108025000Y-103300000D01*
X108026921Y-103280491D01*
X108032612Y-103261732D01*
X108041853Y-103244443D01*
X108054289Y-103229289D01*
X108069443Y-103216853D01*
X108086732Y-103207612D01*
X108105491Y-103201921D01*
X108125000Y-103200000D01*
X108325000Y-103200000D01*
X108344509Y-103201921D01*
G37*
G36*
X108344509Y-105001921D02*
G01*
X108363268Y-105007612D01*
X108380557Y-105016853D01*
X108395711Y-105029289D01*
X108408147Y-105044443D01*
X108417388Y-105061732D01*
X108423079Y-105080491D01*
X108425000Y-105100000D01*
X108425000Y-106500000D01*
X108423079Y-106519509D01*
X108417388Y-106538268D01*
X108408147Y-106555557D01*
X108395711Y-106570711D01*
X108380557Y-106583147D01*
X108363268Y-106592388D01*
X108344509Y-106598079D01*
X108325000Y-106600000D01*
X108125000Y-106600000D01*
X108105491Y-106598079D01*
X108086732Y-106592388D01*
X108069443Y-106583147D01*
X108054289Y-106570711D01*
X108041853Y-106555557D01*
X108032612Y-106538268D01*
X108026921Y-106519509D01*
X108025000Y-106500000D01*
X108025000Y-105100000D01*
X108026921Y-105080491D01*
X108032612Y-105061732D01*
X108041853Y-105044443D01*
X108054289Y-105029289D01*
X108069443Y-105016853D01*
X108086732Y-105007612D01*
X108105491Y-105001921D01*
X108125000Y-105000000D01*
X108325000Y-105000000D01*
X108344509Y-105001921D01*
G37*
G36*
X109194509Y-103201921D02*
G01*
X109213268Y-103207612D01*
X109230557Y-103216853D01*
X109245711Y-103229289D01*
X109258147Y-103244443D01*
X109267388Y-103261732D01*
X109273079Y-103280491D01*
X109275000Y-103300000D01*
X109275000Y-104700000D01*
X109273079Y-104719509D01*
X109267388Y-104738268D01*
X109258147Y-104755557D01*
X109245711Y-104770711D01*
X109230557Y-104783147D01*
X109213268Y-104792388D01*
X109194509Y-104798079D01*
X109175000Y-104800000D01*
X108975000Y-104800000D01*
X108955491Y-104798079D01*
X108936732Y-104792388D01*
X108919443Y-104783147D01*
X108904289Y-104770711D01*
X108891853Y-104755557D01*
X108882612Y-104738268D01*
X108876921Y-104719509D01*
X108875000Y-104700000D01*
X108875000Y-103300000D01*
X108876921Y-103280491D01*
X108882612Y-103261732D01*
X108891853Y-103244443D01*
X108904289Y-103229289D01*
X108919443Y-103216853D01*
X108936732Y-103207612D01*
X108955491Y-103201921D01*
X108975000Y-103200000D01*
X109175000Y-103200000D01*
X109194509Y-103201921D01*
G37*
G36*
X109194509Y-105001921D02*
G01*
X109213268Y-105007612D01*
X109230557Y-105016853D01*
X109245711Y-105029289D01*
X109258147Y-105044443D01*
X109267388Y-105061732D01*
X109273079Y-105080491D01*
X109275000Y-105100000D01*
X109275000Y-106500000D01*
X109273079Y-106519509D01*
X109267388Y-106538268D01*
X109258147Y-106555557D01*
X109245711Y-106570711D01*
X109230557Y-106583147D01*
X109213268Y-106592388D01*
X109194509Y-106598079D01*
X109175000Y-106600000D01*
X108975000Y-106600000D01*
X108955491Y-106598079D01*
X108936732Y-106592388D01*
X108919443Y-106583147D01*
X108904289Y-106570711D01*
X108891853Y-106555557D01*
X108882612Y-106538268D01*
X108876921Y-106519509D01*
X108875000Y-106500000D01*
X108875000Y-105100000D01*
X108876921Y-105080491D01*
X108882612Y-105061732D01*
X108891853Y-105044443D01*
X108904289Y-105029289D01*
X108919443Y-105016853D01*
X108936732Y-105007612D01*
X108955491Y-105001921D01*
X108975000Y-105000000D01*
X109175000Y-105000000D01*
X109194509Y-105001921D01*
G37*
G36*
X110044509Y-103201921D02*
G01*
X110063268Y-103207612D01*
X110080557Y-103216853D01*
X110095711Y-103229289D01*
X110108147Y-103244443D01*
X110117388Y-103261732D01*
X110123079Y-103280491D01*
X110125000Y-103300000D01*
X110125000Y-104700000D01*
X110123079Y-104719509D01*
X110117388Y-104738268D01*
X110108147Y-104755557D01*
X110095711Y-104770711D01*
X110080557Y-104783147D01*
X110063268Y-104792388D01*
X110044509Y-104798079D01*
X110025000Y-104800000D01*
X109825000Y-104800000D01*
X109805491Y-104798079D01*
X109786732Y-104792388D01*
X109769443Y-104783147D01*
X109754289Y-104770711D01*
X109741853Y-104755557D01*
X109732612Y-104738268D01*
X109726921Y-104719509D01*
X109725000Y-104700000D01*
X109725000Y-103300000D01*
X109726921Y-103280491D01*
X109732612Y-103261732D01*
X109741853Y-103244443D01*
X109754289Y-103229289D01*
X109769443Y-103216853D01*
X109786732Y-103207612D01*
X109805491Y-103201921D01*
X109825000Y-103200000D01*
X110025000Y-103200000D01*
X110044509Y-103201921D01*
G37*
G36*
X110044509Y-105001921D02*
G01*
X110063268Y-105007612D01*
X110080557Y-105016853D01*
X110095711Y-105029289D01*
X110108147Y-105044443D01*
X110117388Y-105061732D01*
X110123079Y-105080491D01*
X110125000Y-105100000D01*
X110125000Y-106500000D01*
X110123079Y-106519509D01*
X110117388Y-106538268D01*
X110108147Y-106555557D01*
X110095711Y-106570711D01*
X110080557Y-106583147D01*
X110063268Y-106592388D01*
X110044509Y-106598079D01*
X110025000Y-106600000D01*
X109825000Y-106600000D01*
X109805491Y-106598079D01*
X109786732Y-106592388D01*
X109769443Y-106583147D01*
X109754289Y-106570711D01*
X109741853Y-106555557D01*
X109732612Y-106538268D01*
X109726921Y-106519509D01*
X109725000Y-106500000D01*
X109725000Y-105100000D01*
X109726921Y-105080491D01*
X109732612Y-105061732D01*
X109741853Y-105044443D01*
X109754289Y-105029289D01*
X109769443Y-105016853D01*
X109786732Y-105007612D01*
X109805491Y-105001921D01*
X109825000Y-105000000D01*
X110025000Y-105000000D01*
X110044509Y-105001921D01*
G37*
G36*
X110894509Y-103201921D02*
G01*
X110913268Y-103207612D01*
X110930557Y-103216853D01*
X110945711Y-103229289D01*
X110958147Y-103244443D01*
X110967388Y-103261732D01*
X110973079Y-103280491D01*
X110975000Y-103300000D01*
X110975000Y-104700000D01*
X110973079Y-104719509D01*
X110967388Y-104738268D01*
X110958147Y-104755557D01*
X110945711Y-104770711D01*
X110930557Y-104783147D01*
X110913268Y-104792388D01*
X110894509Y-104798079D01*
X110875000Y-104800000D01*
X110675000Y-104800000D01*
X110655491Y-104798079D01*
X110636732Y-104792388D01*
X110619443Y-104783147D01*
X110604289Y-104770711D01*
X110591853Y-104755557D01*
X110582612Y-104738268D01*
X110576921Y-104719509D01*
X110575000Y-104700000D01*
X110575000Y-103300000D01*
X110576921Y-103280491D01*
X110582612Y-103261732D01*
X110591853Y-103244443D01*
X110604289Y-103229289D01*
X110619443Y-103216853D01*
X110636732Y-103207612D01*
X110655491Y-103201921D01*
X110675000Y-103200000D01*
X110875000Y-103200000D01*
X110894509Y-103201921D01*
G37*
G36*
X110894509Y-105001921D02*
G01*
X110913268Y-105007612D01*
X110930557Y-105016853D01*
X110945711Y-105029289D01*
X110958147Y-105044443D01*
X110967388Y-105061732D01*
X110973079Y-105080491D01*
X110975000Y-105100000D01*
X110975000Y-106500000D01*
X110973079Y-106519509D01*
X110967388Y-106538268D01*
X110958147Y-106555557D01*
X110945711Y-106570711D01*
X110930557Y-106583147D01*
X110913268Y-106592388D01*
X110894509Y-106598079D01*
X110875000Y-106600000D01*
X110675000Y-106600000D01*
X110655491Y-106598079D01*
X110636732Y-106592388D01*
X110619443Y-106583147D01*
X110604289Y-106570711D01*
X110591853Y-106555557D01*
X110582612Y-106538268D01*
X110576921Y-106519509D01*
X110575000Y-106500000D01*
X110575000Y-105100000D01*
X110576921Y-105080491D01*
X110582612Y-105061732D01*
X110591853Y-105044443D01*
X110604289Y-105029289D01*
X110619443Y-105016853D01*
X110636732Y-105007612D01*
X110655491Y-105001921D01*
X110675000Y-105000000D01*
X110875000Y-105000000D01*
X110894509Y-105001921D01*
G37*
G36*
X111772765Y-103202094D02*
G01*
X111793212Y-103208297D01*
X111812057Y-103218370D01*
X111828575Y-103231925D01*
X111842130Y-103248443D01*
X111852203Y-103267288D01*
X111858406Y-103287735D01*
X111860500Y-103309000D01*
X111860500Y-104691000D01*
X111858406Y-104712265D01*
X111852203Y-104732712D01*
X111842130Y-104751557D01*
X111828575Y-104768075D01*
X111812057Y-104781630D01*
X111793212Y-104791703D01*
X111772765Y-104797906D01*
X111751500Y-104800000D01*
X111534500Y-104800000D01*
X111513235Y-104797906D01*
X111492788Y-104791703D01*
X111473943Y-104781630D01*
X111457425Y-104768075D01*
X111443870Y-104751557D01*
X111433797Y-104732712D01*
X111427594Y-104712265D01*
X111425500Y-104691000D01*
X111425500Y-103309000D01*
X111427594Y-103287735D01*
X111433797Y-103267288D01*
X111443870Y-103248443D01*
X111457425Y-103231925D01*
X111473943Y-103218370D01*
X111492788Y-103208297D01*
X111513235Y-103202094D01*
X111534500Y-103200000D01*
X111751500Y-103200000D01*
X111772765Y-103202094D01*
G37*
G36*
X111772765Y-105002094D02*
G01*
X111793212Y-105008297D01*
X111812057Y-105018370D01*
X111828575Y-105031925D01*
X111842130Y-105048443D01*
X111852203Y-105067288D01*
X111858406Y-105087735D01*
X111860500Y-105109000D01*
X111860500Y-106491000D01*
X111858406Y-106512265D01*
X111852203Y-106532712D01*
X111842130Y-106551557D01*
X111828575Y-106568075D01*
X111812057Y-106581630D01*
X111793212Y-106591703D01*
X111772765Y-106597906D01*
X111751500Y-106600000D01*
X111534500Y-106600000D01*
X111513235Y-106597906D01*
X111492788Y-106591703D01*
X111473943Y-106581630D01*
X111457425Y-106568075D01*
X111443870Y-106551557D01*
X111433797Y-106532712D01*
X111427594Y-106512265D01*
X111425500Y-106491000D01*
X111425500Y-105109000D01*
X111427594Y-105087735D01*
X111433797Y-105067288D01*
X111443870Y-105048443D01*
X111457425Y-105031925D01*
X111473943Y-105018370D01*
X111492788Y-105008297D01*
X111513235Y-105002094D01*
X111534500Y-105000000D01*
X111751500Y-105000000D01*
X111772765Y-105002094D01*
G37*
G36*
X112241705Y-103701153D02*
G01*
X112252961Y-103704567D01*
X112263334Y-103710112D01*
X112272426Y-103717574D01*
X112279888Y-103726666D01*
X112285433Y-103737039D01*
X112288847Y-103748295D01*
X112290000Y-103760000D01*
X112290000Y-104090000D01*
X112288847Y-104101705D01*
X112285433Y-104112961D01*
X112279888Y-104123334D01*
X112272426Y-104132426D01*
X112263334Y-104139888D01*
X112252961Y-104145433D01*
X112241705Y-104148847D01*
X112230000Y-104150000D01*
X112100000Y-104150000D01*
X112088295Y-104148847D01*
X112077039Y-104145433D01*
X112066666Y-104139888D01*
X112057574Y-104132426D01*
X112050112Y-104123334D01*
X112044567Y-104112961D01*
X112041153Y-104101705D01*
X112040000Y-104090000D01*
X112040000Y-103760000D01*
X112041153Y-103748295D01*
X112044567Y-103737039D01*
X112050112Y-103726666D01*
X112057574Y-103717574D01*
X112066666Y-103710112D01*
X112077039Y-103704567D01*
X112088295Y-103701153D01*
X112100000Y-103700000D01*
X112230000Y-103700000D01*
X112241705Y-103701153D01*
G37*
G36*
X112241705Y-104351153D02*
G01*
X112252961Y-104354567D01*
X112263334Y-104360112D01*
X112272426Y-104367574D01*
X112279888Y-104376666D01*
X112285433Y-104387039D01*
X112288847Y-104398295D01*
X112290000Y-104410000D01*
X112290000Y-104740000D01*
X112288847Y-104751705D01*
X112285433Y-104762961D01*
X112279888Y-104773334D01*
X112272426Y-104782426D01*
X112263334Y-104789888D01*
X112252961Y-104795433D01*
X112241705Y-104798847D01*
X112230000Y-104800000D01*
X112100000Y-104800000D01*
X112088295Y-104798847D01*
X112077039Y-104795433D01*
X112066666Y-104789888D01*
X112057574Y-104782426D01*
X112050112Y-104773334D01*
X112044567Y-104762961D01*
X112041153Y-104751705D01*
X112040000Y-104740000D01*
X112040000Y-104410000D01*
X112041153Y-104398295D01*
X112044567Y-104387039D01*
X112050112Y-104376666D01*
X112057574Y-104367574D01*
X112066666Y-104360112D01*
X112077039Y-104354567D01*
X112088295Y-104351153D01*
X112100000Y-104350000D01*
X112230000Y-104350000D01*
X112241705Y-104351153D01*
G37*
G36*
X112241705Y-105001153D02*
G01*
X112252961Y-105004567D01*
X112263334Y-105010112D01*
X112272426Y-105017574D01*
X112279888Y-105026666D01*
X112285433Y-105037039D01*
X112288847Y-105048295D01*
X112290000Y-105060000D01*
X112290000Y-105390000D01*
X112288847Y-105401705D01*
X112285433Y-105412961D01*
X112279888Y-105423334D01*
X112272426Y-105432426D01*
X112263334Y-105439888D01*
X112252961Y-105445433D01*
X112241705Y-105448847D01*
X112230000Y-105450000D01*
X112100000Y-105450000D01*
X112088295Y-105448847D01*
X112077039Y-105445433D01*
X112066666Y-105439888D01*
X112057574Y-105432426D01*
X112050112Y-105423334D01*
X112044567Y-105412961D01*
X112041153Y-105401705D01*
X112040000Y-105390000D01*
X112040000Y-105060000D01*
X112041153Y-105048295D01*
X112044567Y-105037039D01*
X112050112Y-105026666D01*
X112057574Y-105017574D01*
X112066666Y-105010112D01*
X112077039Y-105004567D01*
X112088295Y-105001153D01*
X112100000Y-105000000D01*
X112230000Y-105000000D01*
X112241705Y-105001153D01*
G37*
G36*
X112241705Y-105651153D02*
G01*
X112252961Y-105654567D01*
X112263334Y-105660112D01*
X112272426Y-105667574D01*
X112279888Y-105676666D01*
X112285433Y-105687039D01*
X112288847Y-105698295D01*
X112290000Y-105710000D01*
X112290000Y-106040000D01*
X112288847Y-106051705D01*
X112285433Y-106062961D01*
X112279888Y-106073334D01*
X112272426Y-106082426D01*
X112263334Y-106089888D01*
X112252961Y-106095433D01*
X112241705Y-106098847D01*
X112230000Y-106100000D01*
X112100000Y-106100000D01*
X112088295Y-106098847D01*
X112077039Y-106095433D01*
X112066666Y-106089888D01*
X112057574Y-106082426D01*
X112050112Y-106073334D01*
X112044567Y-106062961D01*
X112041153Y-106051705D01*
X112040000Y-106040000D01*
X112040000Y-105710000D01*
X112041153Y-105698295D01*
X112044567Y-105687039D01*
X112050112Y-105676666D01*
X112057574Y-105667574D01*
X112066666Y-105660112D01*
X112077039Y-105654567D01*
X112088295Y-105651153D01*
X112100000Y-105650000D01*
X112230000Y-105650000D01*
X112241705Y-105651153D01*
G37*
%TO.C,Q1*%
G36*
X93241705Y-105858153D02*
G01*
X93252961Y-105861567D01*
X93263334Y-105867112D01*
X93272426Y-105874574D01*
X93279888Y-105883666D01*
X93285433Y-105894039D01*
X93288847Y-105905295D01*
X93290000Y-105917000D01*
X93290000Y-106247000D01*
X93288847Y-106258705D01*
X93285433Y-106269961D01*
X93279888Y-106280334D01*
X93272426Y-106289426D01*
X93263334Y-106296888D01*
X93252961Y-106302433D01*
X93241705Y-106305847D01*
X93230000Y-106307000D01*
X93100000Y-106307000D01*
X93088295Y-106305847D01*
X93077039Y-106302433D01*
X93066666Y-106296888D01*
X93057574Y-106289426D01*
X93050112Y-106280334D01*
X93044567Y-106269961D01*
X93041153Y-106258705D01*
X93040000Y-106247000D01*
X93040000Y-105917000D01*
X93041153Y-105905295D01*
X93044567Y-105894039D01*
X93050112Y-105883666D01*
X93057574Y-105874574D01*
X93066666Y-105867112D01*
X93077039Y-105861567D01*
X93088295Y-105858153D01*
X93100000Y-105857000D01*
X93230000Y-105857000D01*
X93241705Y-105858153D01*
G37*
G36*
X93241705Y-104941153D02*
G01*
X93252961Y-104944567D01*
X93263334Y-104950112D01*
X93272426Y-104957574D01*
X93279888Y-104966666D01*
X93285433Y-104977039D01*
X93288847Y-104988295D01*
X93290000Y-105000000D01*
X93290000Y-105330000D01*
X93288847Y-105341705D01*
X93285433Y-105352961D01*
X93279888Y-105363334D01*
X93272426Y-105372426D01*
X93263334Y-105379888D01*
X93252961Y-105385433D01*
X93241705Y-105388847D01*
X93230000Y-105390000D01*
X93100000Y-105390000D01*
X93088295Y-105388847D01*
X93077039Y-105385433D01*
X93066666Y-105379888D01*
X93057574Y-105372426D01*
X93050112Y-105363334D01*
X93044567Y-105352961D01*
X93041153Y-105341705D01*
X93040000Y-105330000D01*
X93040000Y-105000000D01*
X93041153Y-104988295D01*
X93044567Y-104977039D01*
X93050112Y-104966666D01*
X93057574Y-104957574D01*
X93066666Y-104950112D01*
X93077039Y-104944567D01*
X93088295Y-104941153D01*
X93100000Y-104940000D01*
X93230000Y-104940000D01*
X93241705Y-104941153D01*
G37*
G36*
X93241705Y-104311153D02*
G01*
X93252961Y-104314567D01*
X93263334Y-104320112D01*
X93272426Y-104327574D01*
X93279888Y-104336666D01*
X93285433Y-104347039D01*
X93288847Y-104358295D01*
X93290000Y-104370000D01*
X93290000Y-104700000D01*
X93288847Y-104711705D01*
X93285433Y-104722961D01*
X93279888Y-104733334D01*
X93272426Y-104742426D01*
X93263334Y-104749888D01*
X93252961Y-104755433D01*
X93241705Y-104758847D01*
X93230000Y-104760000D01*
X93100000Y-104760000D01*
X93088295Y-104758847D01*
X93077039Y-104755433D01*
X93066666Y-104749888D01*
X93057574Y-104742426D01*
X93050112Y-104733334D01*
X93044567Y-104722961D01*
X93041153Y-104711705D01*
X93040000Y-104700000D01*
X93040000Y-104370000D01*
X93041153Y-104358295D01*
X93044567Y-104347039D01*
X93050112Y-104336666D01*
X93057574Y-104327574D01*
X93066666Y-104320112D01*
X93077039Y-104314567D01*
X93088295Y-104311153D01*
X93100000Y-104310000D01*
X93230000Y-104310000D01*
X93241705Y-104311153D01*
G37*
G36*
X93241705Y-103676153D02*
G01*
X93252961Y-103679567D01*
X93263334Y-103685112D01*
X93272426Y-103692574D01*
X93279888Y-103701666D01*
X93285433Y-103712039D01*
X93288847Y-103723295D01*
X93290000Y-103735000D01*
X93290000Y-104065000D01*
X93288847Y-104076705D01*
X93285433Y-104087961D01*
X93279888Y-104098334D01*
X93272426Y-104107426D01*
X93263334Y-104114888D01*
X93252961Y-104120433D01*
X93241705Y-104123847D01*
X93230000Y-104125000D01*
X93100000Y-104125000D01*
X93088295Y-104123847D01*
X93077039Y-104120433D01*
X93066666Y-104114888D01*
X93057574Y-104107426D01*
X93050112Y-104098334D01*
X93044567Y-104087961D01*
X93041153Y-104076705D01*
X93040000Y-104065000D01*
X93040000Y-103735000D01*
X93041153Y-103723295D01*
X93044567Y-103712039D01*
X93050112Y-103701666D01*
X93057574Y-103692574D01*
X93066666Y-103685112D01*
X93077039Y-103679567D01*
X93088295Y-103676153D01*
X93100000Y-103675000D01*
X93230000Y-103675000D01*
X93241705Y-103676153D01*
G37*
G36*
X92809205Y-104374653D02*
G01*
X92820461Y-104378067D01*
X92830834Y-104383612D01*
X92839926Y-104391074D01*
X92847388Y-104400166D01*
X92852933Y-104410539D01*
X92856347Y-104421795D01*
X92857500Y-104433500D01*
X92857500Y-105286500D01*
X92856347Y-105298205D01*
X92852933Y-105309461D01*
X92847388Y-105319834D01*
X92839926Y-105328926D01*
X92830834Y-105336388D01*
X92820461Y-105341933D01*
X92809205Y-105345347D01*
X92797500Y-105346500D01*
X92382500Y-105346500D01*
X92370795Y-105345347D01*
X92359539Y-105341933D01*
X92349166Y-105336388D01*
X92340074Y-105328926D01*
X92332612Y-105319834D01*
X92327067Y-105309461D01*
X92323653Y-105298205D01*
X92322500Y-105286500D01*
X92322500Y-104433500D01*
X92323653Y-104421795D01*
X92327067Y-104410539D01*
X92332612Y-104400166D01*
X92340074Y-104391074D01*
X92349166Y-104383612D01*
X92359539Y-104378067D01*
X92370795Y-104374653D01*
X92382500Y-104373500D01*
X92797500Y-104373500D01*
X92809205Y-104374653D01*
G37*
G36*
X92809205Y-103201153D02*
G01*
X92820461Y-103204567D01*
X92830834Y-103210112D01*
X92839926Y-103217574D01*
X92847388Y-103226666D01*
X92852933Y-103237039D01*
X92856347Y-103248295D01*
X92857500Y-103260000D01*
X92857500Y-104113000D01*
X92856347Y-104124705D01*
X92852933Y-104135961D01*
X92847388Y-104146334D01*
X92839926Y-104155426D01*
X92830834Y-104162888D01*
X92820461Y-104168433D01*
X92809205Y-104171847D01*
X92797500Y-104173000D01*
X92382500Y-104173000D01*
X92370795Y-104171847D01*
X92359539Y-104168433D01*
X92349166Y-104162888D01*
X92340074Y-104155426D01*
X92332612Y-104146334D01*
X92327067Y-104135961D01*
X92323653Y-104124705D01*
X92322500Y-104113000D01*
X92322500Y-103260000D01*
X92323653Y-103248295D01*
X92327067Y-103237039D01*
X92332612Y-103226666D01*
X92340074Y-103217574D01*
X92349166Y-103210112D01*
X92359539Y-103204567D01*
X92370795Y-103201153D01*
X92382500Y-103200000D01*
X92797500Y-103200000D01*
X92809205Y-103201153D01*
G37*
G36*
X92779509Y-105566921D02*
G01*
X92798268Y-105572612D01*
X92815557Y-105581853D01*
X92830711Y-105594289D01*
X92843147Y-105609443D01*
X92852388Y-105626732D01*
X92858079Y-105645491D01*
X92860000Y-105665000D01*
X92860000Y-106500000D01*
X92858079Y-106519509D01*
X92852388Y-106538268D01*
X92843147Y-106555557D01*
X92830711Y-106570711D01*
X92815557Y-106583147D01*
X92798268Y-106592388D01*
X92779509Y-106598079D01*
X92760000Y-106600000D01*
X92420000Y-106600000D01*
X92400491Y-106598079D01*
X92381732Y-106592388D01*
X92364443Y-106583147D01*
X92349289Y-106570711D01*
X92336853Y-106555557D01*
X92327612Y-106538268D01*
X92321921Y-106519509D01*
X92320000Y-106500000D01*
X92320000Y-105665000D01*
X92321921Y-105645491D01*
X92327612Y-105626732D01*
X92336853Y-105609443D01*
X92349289Y-105594289D01*
X92364443Y-105581853D01*
X92381732Y-105572612D01*
X92400491Y-105566921D01*
X92420000Y-105565000D01*
X92760000Y-105565000D01*
X92779509Y-105566921D01*
G37*
G36*
X91894509Y-105001921D02*
G01*
X91913268Y-105007612D01*
X91930557Y-105016853D01*
X91945711Y-105029289D01*
X91958147Y-105044443D01*
X91967388Y-105061732D01*
X91973079Y-105080491D01*
X91975000Y-105100000D01*
X91975000Y-106500000D01*
X91973079Y-106519509D01*
X91967388Y-106538268D01*
X91958147Y-106555557D01*
X91945711Y-106570711D01*
X91930557Y-106583147D01*
X91913268Y-106592388D01*
X91894509Y-106598079D01*
X91875000Y-106600000D01*
X91675000Y-106600000D01*
X91655491Y-106598079D01*
X91636732Y-106592388D01*
X91619443Y-106583147D01*
X91604289Y-106570711D01*
X91591853Y-106555557D01*
X91582612Y-106538268D01*
X91576921Y-106519509D01*
X91575000Y-106500000D01*
X91575000Y-105100000D01*
X91576921Y-105080491D01*
X91582612Y-105061732D01*
X91591853Y-105044443D01*
X91604289Y-105029289D01*
X91619443Y-105016853D01*
X91636732Y-105007612D01*
X91655491Y-105001921D01*
X91675000Y-105000000D01*
X91875000Y-105000000D01*
X91894509Y-105001921D01*
G37*
G36*
X91894509Y-103201921D02*
G01*
X91913268Y-103207612D01*
X91930557Y-103216853D01*
X91945711Y-103229289D01*
X91958147Y-103244443D01*
X91967388Y-103261732D01*
X91973079Y-103280491D01*
X91975000Y-103300000D01*
X91975000Y-104700000D01*
X91973079Y-104719509D01*
X91967388Y-104738268D01*
X91958147Y-104755557D01*
X91945711Y-104770711D01*
X91930557Y-104783147D01*
X91913268Y-104792388D01*
X91894509Y-104798079D01*
X91875000Y-104800000D01*
X91675000Y-104800000D01*
X91655491Y-104798079D01*
X91636732Y-104792388D01*
X91619443Y-104783147D01*
X91604289Y-104770711D01*
X91591853Y-104755557D01*
X91582612Y-104738268D01*
X91576921Y-104719509D01*
X91575000Y-104700000D01*
X91575000Y-103300000D01*
X91576921Y-103280491D01*
X91582612Y-103261732D01*
X91591853Y-103244443D01*
X91604289Y-103229289D01*
X91619443Y-103216853D01*
X91636732Y-103207612D01*
X91655491Y-103201921D01*
X91675000Y-103200000D01*
X91875000Y-103200000D01*
X91894509Y-103201921D01*
G37*
G36*
X91044509Y-105001921D02*
G01*
X91063268Y-105007612D01*
X91080557Y-105016853D01*
X91095711Y-105029289D01*
X91108147Y-105044443D01*
X91117388Y-105061732D01*
X91123079Y-105080491D01*
X91125000Y-105100000D01*
X91125000Y-106500000D01*
X91123079Y-106519509D01*
X91117388Y-106538268D01*
X91108147Y-106555557D01*
X91095711Y-106570711D01*
X91080557Y-106583147D01*
X91063268Y-106592388D01*
X91044509Y-106598079D01*
X91025000Y-106600000D01*
X90825000Y-106600000D01*
X90805491Y-106598079D01*
X90786732Y-106592388D01*
X90769443Y-106583147D01*
X90754289Y-106570711D01*
X90741853Y-106555557D01*
X90732612Y-106538268D01*
X90726921Y-106519509D01*
X90725000Y-106500000D01*
X90725000Y-105100000D01*
X90726921Y-105080491D01*
X90732612Y-105061732D01*
X90741853Y-105044443D01*
X90754289Y-105029289D01*
X90769443Y-105016853D01*
X90786732Y-105007612D01*
X90805491Y-105001921D01*
X90825000Y-105000000D01*
X91025000Y-105000000D01*
X91044509Y-105001921D01*
G37*
G36*
X91044509Y-103201921D02*
G01*
X91063268Y-103207612D01*
X91080557Y-103216853D01*
X91095711Y-103229289D01*
X91108147Y-103244443D01*
X91117388Y-103261732D01*
X91123079Y-103280491D01*
X91125000Y-103300000D01*
X91125000Y-104700000D01*
X91123079Y-104719509D01*
X91117388Y-104738268D01*
X91108147Y-104755557D01*
X91095711Y-104770711D01*
X91080557Y-104783147D01*
X91063268Y-104792388D01*
X91044509Y-104798079D01*
X91025000Y-104800000D01*
X90825000Y-104800000D01*
X90805491Y-104798079D01*
X90786732Y-104792388D01*
X90769443Y-104783147D01*
X90754289Y-104770711D01*
X90741853Y-104755557D01*
X90732612Y-104738268D01*
X90726921Y-104719509D01*
X90725000Y-104700000D01*
X90725000Y-103300000D01*
X90726921Y-103280491D01*
X90732612Y-103261732D01*
X90741853Y-103244443D01*
X90754289Y-103229289D01*
X90769443Y-103216853D01*
X90786732Y-103207612D01*
X90805491Y-103201921D01*
X90825000Y-103200000D01*
X91025000Y-103200000D01*
X91044509Y-103201921D01*
G37*
G36*
X90194509Y-105001921D02*
G01*
X90213268Y-105007612D01*
X90230557Y-105016853D01*
X90245711Y-105029289D01*
X90258147Y-105044443D01*
X90267388Y-105061732D01*
X90273079Y-105080491D01*
X90275000Y-105100000D01*
X90275000Y-106500000D01*
X90273079Y-106519509D01*
X90267388Y-106538268D01*
X90258147Y-106555557D01*
X90245711Y-106570711D01*
X90230557Y-106583147D01*
X90213268Y-106592388D01*
X90194509Y-106598079D01*
X90175000Y-106600000D01*
X89975000Y-106600000D01*
X89955491Y-106598079D01*
X89936732Y-106592388D01*
X89919443Y-106583147D01*
X89904289Y-106570711D01*
X89891853Y-106555557D01*
X89882612Y-106538268D01*
X89876921Y-106519509D01*
X89875000Y-106500000D01*
X89875000Y-105100000D01*
X89876921Y-105080491D01*
X89882612Y-105061732D01*
X89891853Y-105044443D01*
X89904289Y-105029289D01*
X89919443Y-105016853D01*
X89936732Y-105007612D01*
X89955491Y-105001921D01*
X89975000Y-105000000D01*
X90175000Y-105000000D01*
X90194509Y-105001921D01*
G37*
G36*
X90194509Y-103201921D02*
G01*
X90213268Y-103207612D01*
X90230557Y-103216853D01*
X90245711Y-103229289D01*
X90258147Y-103244443D01*
X90267388Y-103261732D01*
X90273079Y-103280491D01*
X90275000Y-103300000D01*
X90275000Y-104700000D01*
X90273079Y-104719509D01*
X90267388Y-104738268D01*
X90258147Y-104755557D01*
X90245711Y-104770711D01*
X90230557Y-104783147D01*
X90213268Y-104792388D01*
X90194509Y-104798079D01*
X90175000Y-104800000D01*
X89975000Y-104800000D01*
X89955491Y-104798079D01*
X89936732Y-104792388D01*
X89919443Y-104783147D01*
X89904289Y-104770711D01*
X89891853Y-104755557D01*
X89882612Y-104738268D01*
X89876921Y-104719509D01*
X89875000Y-104700000D01*
X89875000Y-103300000D01*
X89876921Y-103280491D01*
X89882612Y-103261732D01*
X89891853Y-103244443D01*
X89904289Y-103229289D01*
X89919443Y-103216853D01*
X89936732Y-103207612D01*
X89955491Y-103201921D01*
X89975000Y-103200000D01*
X90175000Y-103200000D01*
X90194509Y-103201921D01*
G37*
G36*
X89344509Y-105001921D02*
G01*
X89363268Y-105007612D01*
X89380557Y-105016853D01*
X89395711Y-105029289D01*
X89408147Y-105044443D01*
X89417388Y-105061732D01*
X89423079Y-105080491D01*
X89425000Y-105100000D01*
X89425000Y-106500000D01*
X89423079Y-106519509D01*
X89417388Y-106538268D01*
X89408147Y-106555557D01*
X89395711Y-106570711D01*
X89380557Y-106583147D01*
X89363268Y-106592388D01*
X89344509Y-106598079D01*
X89325000Y-106600000D01*
X89125000Y-106600000D01*
X89105491Y-106598079D01*
X89086732Y-106592388D01*
X89069443Y-106583147D01*
X89054289Y-106570711D01*
X89041853Y-106555557D01*
X89032612Y-106538268D01*
X89026921Y-106519509D01*
X89025000Y-106500000D01*
X89025000Y-105100000D01*
X89026921Y-105080491D01*
X89032612Y-105061732D01*
X89041853Y-105044443D01*
X89054289Y-105029289D01*
X89069443Y-105016853D01*
X89086732Y-105007612D01*
X89105491Y-105001921D01*
X89125000Y-105000000D01*
X89325000Y-105000000D01*
X89344509Y-105001921D01*
G37*
G36*
X89344509Y-103201921D02*
G01*
X89363268Y-103207612D01*
X89380557Y-103216853D01*
X89395711Y-103229289D01*
X89408147Y-103244443D01*
X89417388Y-103261732D01*
X89423079Y-103280491D01*
X89425000Y-103300000D01*
X89425000Y-104700000D01*
X89423079Y-104719509D01*
X89417388Y-104738268D01*
X89408147Y-104755557D01*
X89395711Y-104770711D01*
X89380557Y-104783147D01*
X89363268Y-104792388D01*
X89344509Y-104798079D01*
X89325000Y-104800000D01*
X89125000Y-104800000D01*
X89105491Y-104798079D01*
X89086732Y-104792388D01*
X89069443Y-104783147D01*
X89054289Y-104770711D01*
X89041853Y-104755557D01*
X89032612Y-104738268D01*
X89026921Y-104719509D01*
X89025000Y-104700000D01*
X89025000Y-103300000D01*
X89026921Y-103280491D01*
X89032612Y-103261732D01*
X89041853Y-103244443D01*
X89054289Y-103229289D01*
X89069443Y-103216853D01*
X89086732Y-103207612D01*
X89105491Y-103201921D01*
X89125000Y-103200000D01*
X89325000Y-103200000D01*
X89344509Y-103201921D01*
G37*
G36*
X88486765Y-105002094D02*
G01*
X88507212Y-105008297D01*
X88526057Y-105018370D01*
X88542575Y-105031925D01*
X88556130Y-105048443D01*
X88566203Y-105067288D01*
X88572406Y-105087735D01*
X88574500Y-105109000D01*
X88574500Y-106491000D01*
X88572406Y-106512265D01*
X88566203Y-106532712D01*
X88556130Y-106551557D01*
X88542575Y-106568075D01*
X88526057Y-106581630D01*
X88507212Y-106591703D01*
X88486765Y-106597906D01*
X88465500Y-106600000D01*
X88248500Y-106600000D01*
X88227235Y-106597906D01*
X88206788Y-106591703D01*
X88187943Y-106581630D01*
X88171425Y-106568075D01*
X88157870Y-106551557D01*
X88147797Y-106532712D01*
X88141594Y-106512265D01*
X88139500Y-106491000D01*
X88139500Y-105109000D01*
X88141594Y-105087735D01*
X88147797Y-105067288D01*
X88157870Y-105048443D01*
X88171425Y-105031925D01*
X88187943Y-105018370D01*
X88206788Y-105008297D01*
X88227235Y-105002094D01*
X88248500Y-105000000D01*
X88465500Y-105000000D01*
X88486765Y-105002094D01*
G37*
G36*
X88486765Y-103202094D02*
G01*
X88507212Y-103208297D01*
X88526057Y-103218370D01*
X88542575Y-103231925D01*
X88556130Y-103248443D01*
X88566203Y-103267288D01*
X88572406Y-103287735D01*
X88574500Y-103309000D01*
X88574500Y-104691000D01*
X88572406Y-104712265D01*
X88566203Y-104732712D01*
X88556130Y-104751557D01*
X88542575Y-104768075D01*
X88526057Y-104781630D01*
X88507212Y-104791703D01*
X88486765Y-104797906D01*
X88465500Y-104800000D01*
X88248500Y-104800000D01*
X88227235Y-104797906D01*
X88206788Y-104791703D01*
X88187943Y-104781630D01*
X88171425Y-104768075D01*
X88157870Y-104751557D01*
X88147797Y-104732712D01*
X88141594Y-104712265D01*
X88139500Y-104691000D01*
X88139500Y-103309000D01*
X88141594Y-103287735D01*
X88147797Y-103267288D01*
X88157870Y-103248443D01*
X88171425Y-103231925D01*
X88187943Y-103218370D01*
X88206788Y-103208297D01*
X88227235Y-103202094D01*
X88248500Y-103200000D01*
X88465500Y-103200000D01*
X88486765Y-103202094D01*
G37*
G36*
X87911705Y-105651153D02*
G01*
X87922961Y-105654567D01*
X87933334Y-105660112D01*
X87942426Y-105667574D01*
X87949888Y-105676666D01*
X87955433Y-105687039D01*
X87958847Y-105698295D01*
X87960000Y-105710000D01*
X87960000Y-106040000D01*
X87958847Y-106051705D01*
X87955433Y-106062961D01*
X87949888Y-106073334D01*
X87942426Y-106082426D01*
X87933334Y-106089888D01*
X87922961Y-106095433D01*
X87911705Y-106098847D01*
X87900000Y-106100000D01*
X87770000Y-106100000D01*
X87758295Y-106098847D01*
X87747039Y-106095433D01*
X87736666Y-106089888D01*
X87727574Y-106082426D01*
X87720112Y-106073334D01*
X87714567Y-106062961D01*
X87711153Y-106051705D01*
X87710000Y-106040000D01*
X87710000Y-105710000D01*
X87711153Y-105698295D01*
X87714567Y-105687039D01*
X87720112Y-105676666D01*
X87727574Y-105667574D01*
X87736666Y-105660112D01*
X87747039Y-105654567D01*
X87758295Y-105651153D01*
X87770000Y-105650000D01*
X87900000Y-105650000D01*
X87911705Y-105651153D01*
G37*
G36*
X87911705Y-105001153D02*
G01*
X87922961Y-105004567D01*
X87933334Y-105010112D01*
X87942426Y-105017574D01*
X87949888Y-105026666D01*
X87955433Y-105037039D01*
X87958847Y-105048295D01*
X87960000Y-105060000D01*
X87960000Y-105390000D01*
X87958847Y-105401705D01*
X87955433Y-105412961D01*
X87949888Y-105423334D01*
X87942426Y-105432426D01*
X87933334Y-105439888D01*
X87922961Y-105445433D01*
X87911705Y-105448847D01*
X87900000Y-105450000D01*
X87770000Y-105450000D01*
X87758295Y-105448847D01*
X87747039Y-105445433D01*
X87736666Y-105439888D01*
X87727574Y-105432426D01*
X87720112Y-105423334D01*
X87714567Y-105412961D01*
X87711153Y-105401705D01*
X87710000Y-105390000D01*
X87710000Y-105060000D01*
X87711153Y-105048295D01*
X87714567Y-105037039D01*
X87720112Y-105026666D01*
X87727574Y-105017574D01*
X87736666Y-105010112D01*
X87747039Y-105004567D01*
X87758295Y-105001153D01*
X87770000Y-105000000D01*
X87900000Y-105000000D01*
X87911705Y-105001153D01*
G37*
G36*
X87911705Y-104351153D02*
G01*
X87922961Y-104354567D01*
X87933334Y-104360112D01*
X87942426Y-104367574D01*
X87949888Y-104376666D01*
X87955433Y-104387039D01*
X87958847Y-104398295D01*
X87960000Y-104410000D01*
X87960000Y-104740000D01*
X87958847Y-104751705D01*
X87955433Y-104762961D01*
X87949888Y-104773334D01*
X87942426Y-104782426D01*
X87933334Y-104789888D01*
X87922961Y-104795433D01*
X87911705Y-104798847D01*
X87900000Y-104800000D01*
X87770000Y-104800000D01*
X87758295Y-104798847D01*
X87747039Y-104795433D01*
X87736666Y-104789888D01*
X87727574Y-104782426D01*
X87720112Y-104773334D01*
X87714567Y-104762961D01*
X87711153Y-104751705D01*
X87710000Y-104740000D01*
X87710000Y-104410000D01*
X87711153Y-104398295D01*
X87714567Y-104387039D01*
X87720112Y-104376666D01*
X87727574Y-104367574D01*
X87736666Y-104360112D01*
X87747039Y-104354567D01*
X87758295Y-104351153D01*
X87770000Y-104350000D01*
X87900000Y-104350000D01*
X87911705Y-104351153D01*
G37*
G36*
X87911705Y-103701153D02*
G01*
X87922961Y-103704567D01*
X87933334Y-103710112D01*
X87942426Y-103717574D01*
X87949888Y-103726666D01*
X87955433Y-103737039D01*
X87958847Y-103748295D01*
X87960000Y-103760000D01*
X87960000Y-104090000D01*
X87958847Y-104101705D01*
X87955433Y-104112961D01*
X87949888Y-104123334D01*
X87942426Y-104132426D01*
X87933334Y-104139888D01*
X87922961Y-104145433D01*
X87911705Y-104148847D01*
X87900000Y-104150000D01*
X87770000Y-104150000D01*
X87758295Y-104148847D01*
X87747039Y-104145433D01*
X87736666Y-104139888D01*
X87727574Y-104132426D01*
X87720112Y-104123334D01*
X87714567Y-104112961D01*
X87711153Y-104101705D01*
X87710000Y-104090000D01*
X87710000Y-103760000D01*
X87711153Y-103748295D01*
X87714567Y-103737039D01*
X87720112Y-103726666D01*
X87727574Y-103717574D01*
X87736666Y-103710112D01*
X87747039Y-103704567D01*
X87758295Y-103701153D01*
X87770000Y-103700000D01*
X87900000Y-103700000D01*
X87911705Y-103701153D01*
G37*
%TO.C,Q4*%
G36*
X106911705Y-107794153D02*
G01*
X106922961Y-107797567D01*
X106933334Y-107803112D01*
X106942426Y-107810574D01*
X106949888Y-107819666D01*
X106955433Y-107830039D01*
X106958847Y-107841295D01*
X106960000Y-107853000D01*
X106960000Y-108183000D01*
X106958847Y-108194705D01*
X106955433Y-108205961D01*
X106949888Y-108216334D01*
X106942426Y-108225426D01*
X106933334Y-108232888D01*
X106922961Y-108238433D01*
X106911705Y-108241847D01*
X106900000Y-108243000D01*
X106770000Y-108243000D01*
X106758295Y-108241847D01*
X106747039Y-108238433D01*
X106736666Y-108232888D01*
X106727574Y-108225426D01*
X106720112Y-108216334D01*
X106714567Y-108205961D01*
X106711153Y-108194705D01*
X106710000Y-108183000D01*
X106710000Y-107853000D01*
X106711153Y-107841295D01*
X106714567Y-107830039D01*
X106720112Y-107819666D01*
X106727574Y-107810574D01*
X106736666Y-107803112D01*
X106747039Y-107797567D01*
X106758295Y-107794153D01*
X106770000Y-107793000D01*
X106900000Y-107793000D01*
X106911705Y-107794153D01*
G37*
G36*
X106911705Y-108711153D02*
G01*
X106922961Y-108714567D01*
X106933334Y-108720112D01*
X106942426Y-108727574D01*
X106949888Y-108736666D01*
X106955433Y-108747039D01*
X106958847Y-108758295D01*
X106960000Y-108770000D01*
X106960000Y-109100000D01*
X106958847Y-109111705D01*
X106955433Y-109122961D01*
X106949888Y-109133334D01*
X106942426Y-109142426D01*
X106933334Y-109149888D01*
X106922961Y-109155433D01*
X106911705Y-109158847D01*
X106900000Y-109160000D01*
X106770000Y-109160000D01*
X106758295Y-109158847D01*
X106747039Y-109155433D01*
X106736666Y-109149888D01*
X106727574Y-109142426D01*
X106720112Y-109133334D01*
X106714567Y-109122961D01*
X106711153Y-109111705D01*
X106710000Y-109100000D01*
X106710000Y-108770000D01*
X106711153Y-108758295D01*
X106714567Y-108747039D01*
X106720112Y-108736666D01*
X106727574Y-108727574D01*
X106736666Y-108720112D01*
X106747039Y-108714567D01*
X106758295Y-108711153D01*
X106770000Y-108710000D01*
X106900000Y-108710000D01*
X106911705Y-108711153D01*
G37*
G36*
X106911705Y-109341153D02*
G01*
X106922961Y-109344567D01*
X106933334Y-109350112D01*
X106942426Y-109357574D01*
X106949888Y-109366666D01*
X106955433Y-109377039D01*
X106958847Y-109388295D01*
X106960000Y-109400000D01*
X106960000Y-109730000D01*
X106958847Y-109741705D01*
X106955433Y-109752961D01*
X106949888Y-109763334D01*
X106942426Y-109772426D01*
X106933334Y-109779888D01*
X106922961Y-109785433D01*
X106911705Y-109788847D01*
X106900000Y-109790000D01*
X106770000Y-109790000D01*
X106758295Y-109788847D01*
X106747039Y-109785433D01*
X106736666Y-109779888D01*
X106727574Y-109772426D01*
X106720112Y-109763334D01*
X106714567Y-109752961D01*
X106711153Y-109741705D01*
X106710000Y-109730000D01*
X106710000Y-109400000D01*
X106711153Y-109388295D01*
X106714567Y-109377039D01*
X106720112Y-109366666D01*
X106727574Y-109357574D01*
X106736666Y-109350112D01*
X106747039Y-109344567D01*
X106758295Y-109341153D01*
X106770000Y-109340000D01*
X106900000Y-109340000D01*
X106911705Y-109341153D01*
G37*
G36*
X106911705Y-109976153D02*
G01*
X106922961Y-109979567D01*
X106933334Y-109985112D01*
X106942426Y-109992574D01*
X106949888Y-110001666D01*
X106955433Y-110012039D01*
X106958847Y-110023295D01*
X106960000Y-110035000D01*
X106960000Y-110365000D01*
X106958847Y-110376705D01*
X106955433Y-110387961D01*
X106949888Y-110398334D01*
X106942426Y-110407426D01*
X106933334Y-110414888D01*
X106922961Y-110420433D01*
X106911705Y-110423847D01*
X106900000Y-110425000D01*
X106770000Y-110425000D01*
X106758295Y-110423847D01*
X106747039Y-110420433D01*
X106736666Y-110414888D01*
X106727574Y-110407426D01*
X106720112Y-110398334D01*
X106714567Y-110387961D01*
X106711153Y-110376705D01*
X106710000Y-110365000D01*
X106710000Y-110035000D01*
X106711153Y-110023295D01*
X106714567Y-110012039D01*
X106720112Y-110001666D01*
X106727574Y-109992574D01*
X106736666Y-109985112D01*
X106747039Y-109979567D01*
X106758295Y-109976153D01*
X106770000Y-109975000D01*
X106900000Y-109975000D01*
X106911705Y-109976153D01*
G37*
G36*
X107629205Y-108754653D02*
G01*
X107640461Y-108758067D01*
X107650834Y-108763612D01*
X107659926Y-108771074D01*
X107667388Y-108780166D01*
X107672933Y-108790539D01*
X107676347Y-108801795D01*
X107677500Y-108813500D01*
X107677500Y-109666500D01*
X107676347Y-109678205D01*
X107672933Y-109689461D01*
X107667388Y-109699834D01*
X107659926Y-109708926D01*
X107650834Y-109716388D01*
X107640461Y-109721933D01*
X107629205Y-109725347D01*
X107617500Y-109726500D01*
X107202500Y-109726500D01*
X107190795Y-109725347D01*
X107179539Y-109721933D01*
X107169166Y-109716388D01*
X107160074Y-109708926D01*
X107152612Y-109699834D01*
X107147067Y-109689461D01*
X107143653Y-109678205D01*
X107142500Y-109666500D01*
X107142500Y-108813500D01*
X107143653Y-108801795D01*
X107147067Y-108790539D01*
X107152612Y-108780166D01*
X107160074Y-108771074D01*
X107169166Y-108763612D01*
X107179539Y-108758067D01*
X107190795Y-108754653D01*
X107202500Y-108753500D01*
X107617500Y-108753500D01*
X107629205Y-108754653D01*
G37*
G36*
X107629205Y-109928153D02*
G01*
X107640461Y-109931567D01*
X107650834Y-109937112D01*
X107659926Y-109944574D01*
X107667388Y-109953666D01*
X107672933Y-109964039D01*
X107676347Y-109975295D01*
X107677500Y-109987000D01*
X107677500Y-110840000D01*
X107676347Y-110851705D01*
X107672933Y-110862961D01*
X107667388Y-110873334D01*
X107659926Y-110882426D01*
X107650834Y-110889888D01*
X107640461Y-110895433D01*
X107629205Y-110898847D01*
X107617500Y-110900000D01*
X107202500Y-110900000D01*
X107190795Y-110898847D01*
X107179539Y-110895433D01*
X107169166Y-110889888D01*
X107160074Y-110882426D01*
X107152612Y-110873334D01*
X107147067Y-110862961D01*
X107143653Y-110851705D01*
X107142500Y-110840000D01*
X107142500Y-109987000D01*
X107143653Y-109975295D01*
X107147067Y-109964039D01*
X107152612Y-109953666D01*
X107160074Y-109944574D01*
X107169166Y-109937112D01*
X107179539Y-109931567D01*
X107190795Y-109928153D01*
X107202500Y-109927000D01*
X107617500Y-109927000D01*
X107629205Y-109928153D01*
G37*
G36*
X107599509Y-107501921D02*
G01*
X107618268Y-107507612D01*
X107635557Y-107516853D01*
X107650711Y-107529289D01*
X107663147Y-107544443D01*
X107672388Y-107561732D01*
X107678079Y-107580491D01*
X107680000Y-107600000D01*
X107680000Y-108435000D01*
X107678079Y-108454509D01*
X107672388Y-108473268D01*
X107663147Y-108490557D01*
X107650711Y-108505711D01*
X107635557Y-108518147D01*
X107618268Y-108527388D01*
X107599509Y-108533079D01*
X107580000Y-108535000D01*
X107240000Y-108535000D01*
X107220491Y-108533079D01*
X107201732Y-108527388D01*
X107184443Y-108518147D01*
X107169289Y-108505711D01*
X107156853Y-108490557D01*
X107147612Y-108473268D01*
X107141921Y-108454509D01*
X107140000Y-108435000D01*
X107140000Y-107600000D01*
X107141921Y-107580491D01*
X107147612Y-107561732D01*
X107156853Y-107544443D01*
X107169289Y-107529289D01*
X107184443Y-107516853D01*
X107201732Y-107507612D01*
X107220491Y-107501921D01*
X107240000Y-107500000D01*
X107580000Y-107500000D01*
X107599509Y-107501921D01*
G37*
G36*
X108344509Y-107501921D02*
G01*
X108363268Y-107507612D01*
X108380557Y-107516853D01*
X108395711Y-107529289D01*
X108408147Y-107544443D01*
X108417388Y-107561732D01*
X108423079Y-107580491D01*
X108425000Y-107600000D01*
X108425000Y-109000000D01*
X108423079Y-109019509D01*
X108417388Y-109038268D01*
X108408147Y-109055557D01*
X108395711Y-109070711D01*
X108380557Y-109083147D01*
X108363268Y-109092388D01*
X108344509Y-109098079D01*
X108325000Y-109100000D01*
X108125000Y-109100000D01*
X108105491Y-109098079D01*
X108086732Y-109092388D01*
X108069443Y-109083147D01*
X108054289Y-109070711D01*
X108041853Y-109055557D01*
X108032612Y-109038268D01*
X108026921Y-109019509D01*
X108025000Y-109000000D01*
X108025000Y-107600000D01*
X108026921Y-107580491D01*
X108032612Y-107561732D01*
X108041853Y-107544443D01*
X108054289Y-107529289D01*
X108069443Y-107516853D01*
X108086732Y-107507612D01*
X108105491Y-107501921D01*
X108125000Y-107500000D01*
X108325000Y-107500000D01*
X108344509Y-107501921D01*
G37*
G36*
X108344509Y-109301921D02*
G01*
X108363268Y-109307612D01*
X108380557Y-109316853D01*
X108395711Y-109329289D01*
X108408147Y-109344443D01*
X108417388Y-109361732D01*
X108423079Y-109380491D01*
X108425000Y-109400000D01*
X108425000Y-110800000D01*
X108423079Y-110819509D01*
X108417388Y-110838268D01*
X108408147Y-110855557D01*
X108395711Y-110870711D01*
X108380557Y-110883147D01*
X108363268Y-110892388D01*
X108344509Y-110898079D01*
X108325000Y-110900000D01*
X108125000Y-110900000D01*
X108105491Y-110898079D01*
X108086732Y-110892388D01*
X108069443Y-110883147D01*
X108054289Y-110870711D01*
X108041853Y-110855557D01*
X108032612Y-110838268D01*
X108026921Y-110819509D01*
X108025000Y-110800000D01*
X108025000Y-109400000D01*
X108026921Y-109380491D01*
X108032612Y-109361732D01*
X108041853Y-109344443D01*
X108054289Y-109329289D01*
X108069443Y-109316853D01*
X108086732Y-109307612D01*
X108105491Y-109301921D01*
X108125000Y-109300000D01*
X108325000Y-109300000D01*
X108344509Y-109301921D01*
G37*
G36*
X109194509Y-107501921D02*
G01*
X109213268Y-107507612D01*
X109230557Y-107516853D01*
X109245711Y-107529289D01*
X109258147Y-107544443D01*
X109267388Y-107561732D01*
X109273079Y-107580491D01*
X109275000Y-107600000D01*
X109275000Y-109000000D01*
X109273079Y-109019509D01*
X109267388Y-109038268D01*
X109258147Y-109055557D01*
X109245711Y-109070711D01*
X109230557Y-109083147D01*
X109213268Y-109092388D01*
X109194509Y-109098079D01*
X109175000Y-109100000D01*
X108975000Y-109100000D01*
X108955491Y-109098079D01*
X108936732Y-109092388D01*
X108919443Y-109083147D01*
X108904289Y-109070711D01*
X108891853Y-109055557D01*
X108882612Y-109038268D01*
X108876921Y-109019509D01*
X108875000Y-109000000D01*
X108875000Y-107600000D01*
X108876921Y-107580491D01*
X108882612Y-107561732D01*
X108891853Y-107544443D01*
X108904289Y-107529289D01*
X108919443Y-107516853D01*
X108936732Y-107507612D01*
X108955491Y-107501921D01*
X108975000Y-107500000D01*
X109175000Y-107500000D01*
X109194509Y-107501921D01*
G37*
G36*
X109194509Y-109301921D02*
G01*
X109213268Y-109307612D01*
X109230557Y-109316853D01*
X109245711Y-109329289D01*
X109258147Y-109344443D01*
X109267388Y-109361732D01*
X109273079Y-109380491D01*
X109275000Y-109400000D01*
X109275000Y-110800000D01*
X109273079Y-110819509D01*
X109267388Y-110838268D01*
X109258147Y-110855557D01*
X109245711Y-110870711D01*
X109230557Y-110883147D01*
X109213268Y-110892388D01*
X109194509Y-110898079D01*
X109175000Y-110900000D01*
X108975000Y-110900000D01*
X108955491Y-110898079D01*
X108936732Y-110892388D01*
X108919443Y-110883147D01*
X108904289Y-110870711D01*
X108891853Y-110855557D01*
X108882612Y-110838268D01*
X108876921Y-110819509D01*
X108875000Y-110800000D01*
X108875000Y-109400000D01*
X108876921Y-109380491D01*
X108882612Y-109361732D01*
X108891853Y-109344443D01*
X108904289Y-109329289D01*
X108919443Y-109316853D01*
X108936732Y-109307612D01*
X108955491Y-109301921D01*
X108975000Y-109300000D01*
X109175000Y-109300000D01*
X109194509Y-109301921D01*
G37*
G36*
X110044509Y-107501921D02*
G01*
X110063268Y-107507612D01*
X110080557Y-107516853D01*
X110095711Y-107529289D01*
X110108147Y-107544443D01*
X110117388Y-107561732D01*
X110123079Y-107580491D01*
X110125000Y-107600000D01*
X110125000Y-109000000D01*
X110123079Y-109019509D01*
X110117388Y-109038268D01*
X110108147Y-109055557D01*
X110095711Y-109070711D01*
X110080557Y-109083147D01*
X110063268Y-109092388D01*
X110044509Y-109098079D01*
X110025000Y-109100000D01*
X109825000Y-109100000D01*
X109805491Y-109098079D01*
X109786732Y-109092388D01*
X109769443Y-109083147D01*
X109754289Y-109070711D01*
X109741853Y-109055557D01*
X109732612Y-109038268D01*
X109726921Y-109019509D01*
X109725000Y-109000000D01*
X109725000Y-107600000D01*
X109726921Y-107580491D01*
X109732612Y-107561732D01*
X109741853Y-107544443D01*
X109754289Y-107529289D01*
X109769443Y-107516853D01*
X109786732Y-107507612D01*
X109805491Y-107501921D01*
X109825000Y-107500000D01*
X110025000Y-107500000D01*
X110044509Y-107501921D01*
G37*
G36*
X110044509Y-109301921D02*
G01*
X110063268Y-109307612D01*
X110080557Y-109316853D01*
X110095711Y-109329289D01*
X110108147Y-109344443D01*
X110117388Y-109361732D01*
X110123079Y-109380491D01*
X110125000Y-109400000D01*
X110125000Y-110800000D01*
X110123079Y-110819509D01*
X110117388Y-110838268D01*
X110108147Y-110855557D01*
X110095711Y-110870711D01*
X110080557Y-110883147D01*
X110063268Y-110892388D01*
X110044509Y-110898079D01*
X110025000Y-110900000D01*
X109825000Y-110900000D01*
X109805491Y-110898079D01*
X109786732Y-110892388D01*
X109769443Y-110883147D01*
X109754289Y-110870711D01*
X109741853Y-110855557D01*
X109732612Y-110838268D01*
X109726921Y-110819509D01*
X109725000Y-110800000D01*
X109725000Y-109400000D01*
X109726921Y-109380491D01*
X109732612Y-109361732D01*
X109741853Y-109344443D01*
X109754289Y-109329289D01*
X109769443Y-109316853D01*
X109786732Y-109307612D01*
X109805491Y-109301921D01*
X109825000Y-109300000D01*
X110025000Y-109300000D01*
X110044509Y-109301921D01*
G37*
G36*
X110894509Y-107501921D02*
G01*
X110913268Y-107507612D01*
X110930557Y-107516853D01*
X110945711Y-107529289D01*
X110958147Y-107544443D01*
X110967388Y-107561732D01*
X110973079Y-107580491D01*
X110975000Y-107600000D01*
X110975000Y-109000000D01*
X110973079Y-109019509D01*
X110967388Y-109038268D01*
X110958147Y-109055557D01*
X110945711Y-109070711D01*
X110930557Y-109083147D01*
X110913268Y-109092388D01*
X110894509Y-109098079D01*
X110875000Y-109100000D01*
X110675000Y-109100000D01*
X110655491Y-109098079D01*
X110636732Y-109092388D01*
X110619443Y-109083147D01*
X110604289Y-109070711D01*
X110591853Y-109055557D01*
X110582612Y-109038268D01*
X110576921Y-109019509D01*
X110575000Y-109000000D01*
X110575000Y-107600000D01*
X110576921Y-107580491D01*
X110582612Y-107561732D01*
X110591853Y-107544443D01*
X110604289Y-107529289D01*
X110619443Y-107516853D01*
X110636732Y-107507612D01*
X110655491Y-107501921D01*
X110675000Y-107500000D01*
X110875000Y-107500000D01*
X110894509Y-107501921D01*
G37*
G36*
X110894509Y-109301921D02*
G01*
X110913268Y-109307612D01*
X110930557Y-109316853D01*
X110945711Y-109329289D01*
X110958147Y-109344443D01*
X110967388Y-109361732D01*
X110973079Y-109380491D01*
X110975000Y-109400000D01*
X110975000Y-110800000D01*
X110973079Y-110819509D01*
X110967388Y-110838268D01*
X110958147Y-110855557D01*
X110945711Y-110870711D01*
X110930557Y-110883147D01*
X110913268Y-110892388D01*
X110894509Y-110898079D01*
X110875000Y-110900000D01*
X110675000Y-110900000D01*
X110655491Y-110898079D01*
X110636732Y-110892388D01*
X110619443Y-110883147D01*
X110604289Y-110870711D01*
X110591853Y-110855557D01*
X110582612Y-110838268D01*
X110576921Y-110819509D01*
X110575000Y-110800000D01*
X110575000Y-109400000D01*
X110576921Y-109380491D01*
X110582612Y-109361732D01*
X110591853Y-109344443D01*
X110604289Y-109329289D01*
X110619443Y-109316853D01*
X110636732Y-109307612D01*
X110655491Y-109301921D01*
X110675000Y-109300000D01*
X110875000Y-109300000D01*
X110894509Y-109301921D01*
G37*
G36*
X111772765Y-107502094D02*
G01*
X111793212Y-107508297D01*
X111812057Y-107518370D01*
X111828575Y-107531925D01*
X111842130Y-107548443D01*
X111852203Y-107567288D01*
X111858406Y-107587735D01*
X111860500Y-107609000D01*
X111860500Y-108991000D01*
X111858406Y-109012265D01*
X111852203Y-109032712D01*
X111842130Y-109051557D01*
X111828575Y-109068075D01*
X111812057Y-109081630D01*
X111793212Y-109091703D01*
X111772765Y-109097906D01*
X111751500Y-109100000D01*
X111534500Y-109100000D01*
X111513235Y-109097906D01*
X111492788Y-109091703D01*
X111473943Y-109081630D01*
X111457425Y-109068075D01*
X111443870Y-109051557D01*
X111433797Y-109032712D01*
X111427594Y-109012265D01*
X111425500Y-108991000D01*
X111425500Y-107609000D01*
X111427594Y-107587735D01*
X111433797Y-107567288D01*
X111443870Y-107548443D01*
X111457425Y-107531925D01*
X111473943Y-107518370D01*
X111492788Y-107508297D01*
X111513235Y-107502094D01*
X111534500Y-107500000D01*
X111751500Y-107500000D01*
X111772765Y-107502094D01*
G37*
G36*
X111772765Y-109302094D02*
G01*
X111793212Y-109308297D01*
X111812057Y-109318370D01*
X111828575Y-109331925D01*
X111842130Y-109348443D01*
X111852203Y-109367288D01*
X111858406Y-109387735D01*
X111860500Y-109409000D01*
X111860500Y-110791000D01*
X111858406Y-110812265D01*
X111852203Y-110832712D01*
X111842130Y-110851557D01*
X111828575Y-110868075D01*
X111812057Y-110881630D01*
X111793212Y-110891703D01*
X111772765Y-110897906D01*
X111751500Y-110900000D01*
X111534500Y-110900000D01*
X111513235Y-110897906D01*
X111492788Y-110891703D01*
X111473943Y-110881630D01*
X111457425Y-110868075D01*
X111443870Y-110851557D01*
X111433797Y-110832712D01*
X111427594Y-110812265D01*
X111425500Y-110791000D01*
X111425500Y-109409000D01*
X111427594Y-109387735D01*
X111433797Y-109367288D01*
X111443870Y-109348443D01*
X111457425Y-109331925D01*
X111473943Y-109318370D01*
X111492788Y-109308297D01*
X111513235Y-109302094D01*
X111534500Y-109300000D01*
X111751500Y-109300000D01*
X111772765Y-109302094D01*
G37*
G36*
X112241705Y-108001153D02*
G01*
X112252961Y-108004567D01*
X112263334Y-108010112D01*
X112272426Y-108017574D01*
X112279888Y-108026666D01*
X112285433Y-108037039D01*
X112288847Y-108048295D01*
X112290000Y-108060000D01*
X112290000Y-108390000D01*
X112288847Y-108401705D01*
X112285433Y-108412961D01*
X112279888Y-108423334D01*
X112272426Y-108432426D01*
X112263334Y-108439888D01*
X112252961Y-108445433D01*
X112241705Y-108448847D01*
X112230000Y-108450000D01*
X112100000Y-108450000D01*
X112088295Y-108448847D01*
X112077039Y-108445433D01*
X112066666Y-108439888D01*
X112057574Y-108432426D01*
X112050112Y-108423334D01*
X112044567Y-108412961D01*
X112041153Y-108401705D01*
X112040000Y-108390000D01*
X112040000Y-108060000D01*
X112041153Y-108048295D01*
X112044567Y-108037039D01*
X112050112Y-108026666D01*
X112057574Y-108017574D01*
X112066666Y-108010112D01*
X112077039Y-108004567D01*
X112088295Y-108001153D01*
X112100000Y-108000000D01*
X112230000Y-108000000D01*
X112241705Y-108001153D01*
G37*
G36*
X112241705Y-108651153D02*
G01*
X112252961Y-108654567D01*
X112263334Y-108660112D01*
X112272426Y-108667574D01*
X112279888Y-108676666D01*
X112285433Y-108687039D01*
X112288847Y-108698295D01*
X112290000Y-108710000D01*
X112290000Y-109040000D01*
X112288847Y-109051705D01*
X112285433Y-109062961D01*
X112279888Y-109073334D01*
X112272426Y-109082426D01*
X112263334Y-109089888D01*
X112252961Y-109095433D01*
X112241705Y-109098847D01*
X112230000Y-109100000D01*
X112100000Y-109100000D01*
X112088295Y-109098847D01*
X112077039Y-109095433D01*
X112066666Y-109089888D01*
X112057574Y-109082426D01*
X112050112Y-109073334D01*
X112044567Y-109062961D01*
X112041153Y-109051705D01*
X112040000Y-109040000D01*
X112040000Y-108710000D01*
X112041153Y-108698295D01*
X112044567Y-108687039D01*
X112050112Y-108676666D01*
X112057574Y-108667574D01*
X112066666Y-108660112D01*
X112077039Y-108654567D01*
X112088295Y-108651153D01*
X112100000Y-108650000D01*
X112230000Y-108650000D01*
X112241705Y-108651153D01*
G37*
G36*
X112241705Y-109301153D02*
G01*
X112252961Y-109304567D01*
X112263334Y-109310112D01*
X112272426Y-109317574D01*
X112279888Y-109326666D01*
X112285433Y-109337039D01*
X112288847Y-109348295D01*
X112290000Y-109360000D01*
X112290000Y-109690000D01*
X112288847Y-109701705D01*
X112285433Y-109712961D01*
X112279888Y-109723334D01*
X112272426Y-109732426D01*
X112263334Y-109739888D01*
X112252961Y-109745433D01*
X112241705Y-109748847D01*
X112230000Y-109750000D01*
X112100000Y-109750000D01*
X112088295Y-109748847D01*
X112077039Y-109745433D01*
X112066666Y-109739888D01*
X112057574Y-109732426D01*
X112050112Y-109723334D01*
X112044567Y-109712961D01*
X112041153Y-109701705D01*
X112040000Y-109690000D01*
X112040000Y-109360000D01*
X112041153Y-109348295D01*
X112044567Y-109337039D01*
X112050112Y-109326666D01*
X112057574Y-109317574D01*
X112066666Y-109310112D01*
X112077039Y-109304567D01*
X112088295Y-109301153D01*
X112100000Y-109300000D01*
X112230000Y-109300000D01*
X112241705Y-109301153D01*
G37*
G36*
X112241705Y-109951153D02*
G01*
X112252961Y-109954567D01*
X112263334Y-109960112D01*
X112272426Y-109967574D01*
X112279888Y-109976666D01*
X112285433Y-109987039D01*
X112288847Y-109998295D01*
X112290000Y-110010000D01*
X112290000Y-110340000D01*
X112288847Y-110351705D01*
X112285433Y-110362961D01*
X112279888Y-110373334D01*
X112272426Y-110382426D01*
X112263334Y-110389888D01*
X112252961Y-110395433D01*
X112241705Y-110398847D01*
X112230000Y-110400000D01*
X112100000Y-110400000D01*
X112088295Y-110398847D01*
X112077039Y-110395433D01*
X112066666Y-110389888D01*
X112057574Y-110382426D01*
X112050112Y-110373334D01*
X112044567Y-110362961D01*
X112041153Y-110351705D01*
X112040000Y-110340000D01*
X112040000Y-110010000D01*
X112041153Y-109998295D01*
X112044567Y-109987039D01*
X112050112Y-109976666D01*
X112057574Y-109967574D01*
X112066666Y-109960112D01*
X112077039Y-109954567D01*
X112088295Y-109951153D01*
X112100000Y-109950000D01*
X112230000Y-109950000D01*
X112241705Y-109951153D01*
G37*
%TD*%
D10*
%TO.C,C6*%
X94500000Y-102150000D03*
X94500000Y-100250000D03*
%TD*%
D11*
%TO.C,R34*%
X92575000Y-159600000D03*
X94225000Y-159600000D03*
%TD*%
D10*
%TO.C,C10*%
X110300000Y-102150000D03*
X110300000Y-100250000D03*
%TD*%
D12*
%TO.C,C109*%
X88250000Y-132299999D03*
X90150000Y-132299999D03*
%TD*%
D10*
%TO.C,C112*%
X106600000Y-129850000D03*
X106600000Y-127950000D03*
%TD*%
D13*
%TO.C,C16*%
X85250000Y-90775000D03*
X85250000Y-87825000D03*
%TD*%
D12*
%TO.C,C114*%
X109850000Y-132299999D03*
X111750000Y-132299999D03*
%TD*%
%TO.C,C111*%
X90850001Y-154800000D03*
X92750001Y-154800000D03*
%TD*%
D14*
%TO.C,R9*%
X98100000Y-125310000D03*
X98100000Y-124290000D03*
%TD*%
D15*
%TO.C,U1*%
X98050000Y-121149999D03*
X98700001Y-121149999D03*
X99350001Y-121149999D03*
X100000000Y-121149999D03*
X100650000Y-121149999D03*
X101300000Y-121149999D03*
X101950000Y-121149999D03*
X101950000Y-117050001D03*
X101300000Y-117050001D03*
X100650000Y-117050001D03*
X99350000Y-117050001D03*
X98700000Y-117050001D03*
X98050000Y-117050001D03*
%TD*%
D16*
%TO.C,R33*%
X117600000Y-139125000D03*
X117600000Y-137475000D03*
%TD*%
D11*
%TO.C,R13*%
X84775000Y-133900000D03*
X86425000Y-133900000D03*
%TD*%
D14*
%TO.C,R8*%
X102700000Y-112210000D03*
X102700000Y-111190000D03*
%TD*%
D12*
%TO.C,C116*%
X107249999Y-154800000D03*
X109149999Y-154800000D03*
%TD*%
D17*
%TO.C,C103*%
X103270000Y-117950000D03*
X104230000Y-117950000D03*
%TD*%
D13*
%TO.C,C24*%
X85250000Y-94775000D03*
X85250000Y-91825000D03*
%TD*%
D18*
%TO.C,D1*%
X97300000Y-115350000D03*
X97300000Y-113150000D03*
%TD*%
D13*
%TO.C,C17*%
X105750000Y-90775000D03*
X105750000Y-87825000D03*
%TD*%
D17*
%TO.C,C100*%
X95770000Y-116950000D03*
X96730000Y-116950000D03*
%TD*%
D19*
%TO.C,U2*%
X88990000Y-129370000D03*
X88990000Y-128430000D03*
X88210000Y-129370000D03*
X88210000Y-128430000D03*
D20*
X90750000Y-129875000D03*
X90750000Y-129225000D03*
X90750000Y-128575000D03*
X90750000Y-127925000D03*
X86450000Y-127925000D03*
X86450000Y-128575000D03*
X86450000Y-129225000D03*
X86450000Y-129875000D03*
%TD*%
D13*
%TO.C,C36*%
X114750000Y-98775000D03*
X114750000Y-95825000D03*
%TD*%
D12*
%TO.C,C115*%
X109850000Y-134500000D03*
X111750000Y-134500000D03*
%TD*%
D10*
%TO.C,C12*%
X113500000Y-102150000D03*
X113500000Y-100250000D03*
%TD*%
D16*
%TO.C,R31*%
X82400000Y-139125000D03*
X82400000Y-137475000D03*
%TD*%
D21*
%TO.C,D3*%
X82400000Y-129287500D03*
X82400000Y-127712500D03*
%TD*%
D11*
%TO.C,R15*%
X113575000Y-132100000D03*
X115225000Y-132100000D03*
%TD*%
D16*
%TO.C,R30*%
X82400000Y-132525000D03*
X82400000Y-130875000D03*
%TD*%
D13*
%TO.C,C27*%
X111750000Y-94775000D03*
X111750000Y-91825000D03*
%TD*%
%TO.C,C13*%
X94250000Y-90775000D03*
X94250000Y-87825000D03*
%TD*%
%TO.C,C34*%
X108750000Y-98775000D03*
X108750000Y-95825000D03*
%TD*%
D14*
%TO.C,R36*%
X106600000Y-157510000D03*
X106600000Y-156490000D03*
%TD*%
D22*
%TO.C,R39*%
X119200000Y-92962500D03*
X119200000Y-90037500D03*
%TD*%
D17*
%TO.C,C105*%
X99350000Y-123350000D03*
X100310000Y-123350000D03*
%TD*%
D23*
%TO.C,D7*%
X89212500Y-159600000D03*
X90787500Y-159600000D03*
%TD*%
D17*
%TO.C,C101*%
X95770000Y-117950000D03*
X96730000Y-117950000D03*
%TD*%
%TO.C,C106*%
X101720000Y-122250000D03*
X102680000Y-122250000D03*
%TD*%
D21*
%TO.C,D5*%
X117600000Y-129287500D03*
X117600000Y-127712500D03*
%TD*%
%TO.C,D6*%
X117600000Y-135887500D03*
X117600000Y-134312500D03*
%TD*%
D16*
%TO.C,R7*%
X101000000Y-113025000D03*
X101000000Y-111375000D03*
%TD*%
D21*
%TO.C,D4*%
X82400000Y-135887500D03*
X82400000Y-134312500D03*
%TD*%
D22*
%TO.C,R38*%
X118600000Y-84962500D03*
X118600000Y-82037500D03*
%TD*%
D14*
%TO.C,R11*%
X101900000Y-124310000D03*
X101900000Y-123290000D03*
%TD*%
D13*
%TO.C,C22*%
X91250000Y-94775000D03*
X91250000Y-91825000D03*
%TD*%
D24*
%TO.C,R4*%
X102490000Y-109200000D03*
X103510000Y-109200000D03*
%TD*%
D13*
%TO.C,C19*%
X111750000Y-90775000D03*
X111750000Y-87825000D03*
%TD*%
D25*
%TO.C,U5*%
X105862500Y-132349999D03*
X105862500Y-134249999D03*
X107737500Y-133299999D03*
%TD*%
D10*
%TO.C,C3*%
X89700000Y-102150000D03*
X89700000Y-100250000D03*
%TD*%
D11*
%TO.C,R16*%
X113575000Y-133900000D03*
X115225000Y-133900000D03*
%TD*%
D13*
%TO.C,C33*%
X105750000Y-98775000D03*
X105750000Y-95825000D03*
%TD*%
D10*
%TO.C,C108*%
X93000000Y-129850000D03*
X93000000Y-127950000D03*
%TD*%
D13*
%TO.C,C25*%
X105750000Y-94775000D03*
X105750000Y-91825000D03*
%TD*%
%TO.C,C14*%
X91250000Y-90775000D03*
X91250000Y-87825000D03*
%TD*%
D14*
%TO.C,R41*%
X101000000Y-105840000D03*
X101000000Y-104820000D03*
%TD*%
D13*
%TO.C,C32*%
X85250000Y-98775000D03*
X85250000Y-95825000D03*
%TD*%
D24*
%TO.C,R2*%
X102490000Y-104900000D03*
X103510000Y-104900000D03*
%TD*%
D13*
%TO.C,C20*%
X114750000Y-90775000D03*
X114750000Y-87825000D03*
%TD*%
D14*
%TO.C,R10*%
X99350000Y-125310000D03*
X99350000Y-124290000D03*
%TD*%
D13*
%TO.C,C15*%
X88250000Y-90775000D03*
X88250000Y-87825000D03*
%TD*%
%TO.C,C18*%
X108750000Y-90775000D03*
X108750000Y-87825000D03*
%TD*%
D19*
%TO.C,U3*%
X111390000Y-129370000D03*
X111390000Y-128430000D03*
X110610000Y-129370000D03*
X110610000Y-128430000D03*
D20*
X113150000Y-129875000D03*
X113150000Y-129225000D03*
X113150000Y-128575000D03*
X113150000Y-127925000D03*
X108850000Y-127925000D03*
X108850000Y-128575000D03*
X108850000Y-129225000D03*
X108850000Y-129875000D03*
%TD*%
D10*
%TO.C,C8*%
X107100000Y-102150000D03*
X107100000Y-100250000D03*
%TD*%
%TO.C,C9*%
X108700000Y-102150000D03*
X108700000Y-100250000D03*
%TD*%
D24*
%TO.C,R3*%
X96490000Y-109200000D03*
X97510000Y-109200000D03*
%TD*%
D10*
%TO.C,C107*%
X84400000Y-130050000D03*
X84400000Y-128150000D03*
%TD*%
%TO.C,C4*%
X91300000Y-102150000D03*
X91300000Y-100250000D03*
%TD*%
%TO.C,C7*%
X105500000Y-102150000D03*
X105500000Y-100250000D03*
%TD*%
%TO.C,C2*%
X88100000Y-102150000D03*
X88100000Y-100250000D03*
%TD*%
D16*
%TO.C,R14*%
X96400000Y-130725000D03*
X96400000Y-129075000D03*
%TD*%
D10*
%TO.C,C113*%
X115200000Y-130050000D03*
X115200000Y-128150000D03*
%TD*%
D14*
%TO.C,R6*%
X97300000Y-112210000D03*
X97300000Y-111190000D03*
%TD*%
D10*
%TO.C,C11*%
X111900000Y-102150000D03*
X111900000Y-100250000D03*
%TD*%
D13*
%TO.C,C28*%
X114750000Y-94775000D03*
X114750000Y-91825000D03*
%TD*%
%TO.C,C23*%
X88250000Y-94775000D03*
X88250000Y-91825000D03*
%TD*%
D12*
%TO.C,C110*%
X88250000Y-134500000D03*
X90150000Y-134500000D03*
%TD*%
D13*
%TO.C,C30*%
X91250000Y-98775000D03*
X91250000Y-95825000D03*
%TD*%
D14*
%TO.C,R35*%
X105400000Y-157510000D03*
X105400000Y-156490000D03*
%TD*%
D13*
%TO.C,C26*%
X108750000Y-94775000D03*
X108750000Y-91825000D03*
%TD*%
D14*
%TO.C,RT1*%
X115400000Y-102910000D03*
X115400000Y-101890000D03*
%TD*%
%TO.C,R42*%
X101000000Y-109260000D03*
X101000000Y-108240000D03*
%TD*%
D10*
%TO.C,C1*%
X86500000Y-102150000D03*
X86500000Y-100250000D03*
%TD*%
D24*
%TO.C,R1*%
X96490000Y-104900000D03*
X97510000Y-104900000D03*
%TD*%
D11*
%TO.C,R12*%
X84775000Y-132100000D03*
X86425000Y-132100000D03*
%TD*%
D17*
%TO.C,C104*%
X97520000Y-122250000D03*
X98480000Y-122250000D03*
%TD*%
D22*
%TO.C,R37*%
X116100000Y-84962500D03*
X116100000Y-82037500D03*
%TD*%
D26*
%TO.C,PS2*%
X113699999Y-151525000D03*
X113699999Y-150275000D03*
X113699999Y-141525000D03*
X113699999Y-140275000D03*
X102699999Y-140275000D03*
X102699999Y-141525000D03*
X102699999Y-150275000D03*
X102699999Y-151525000D03*
%TD*%
D23*
%TO.C,D8*%
X117612500Y-87400000D03*
X119187500Y-87400000D03*
%TD*%
D16*
%TO.C,R32*%
X117600000Y-132525000D03*
X117600000Y-130875000D03*
%TD*%
D10*
%TO.C,C5*%
X92900000Y-102150000D03*
X92900000Y-100250000D03*
%TD*%
D17*
%TO.C,C102*%
X103270000Y-116950000D03*
X104230000Y-116950000D03*
%TD*%
D13*
%TO.C,C31*%
X88250000Y-98775000D03*
X88250000Y-95825000D03*
%TD*%
D18*
%TO.C,D2*%
X102700000Y-115350000D03*
X102700000Y-113150000D03*
%TD*%
D13*
%TO.C,C21*%
X94250000Y-94775000D03*
X94250000Y-91825000D03*
%TD*%
D26*
%TO.C,PS1*%
X97300001Y-151525000D03*
X97300001Y-150275000D03*
X97300001Y-141525000D03*
X97300001Y-140275000D03*
X86300001Y-140275000D03*
X86300001Y-141525000D03*
X86300001Y-150275000D03*
X86300001Y-151525000D03*
%TD*%
D16*
%TO.C,R5*%
X99000000Y-113025000D03*
X99000000Y-111375000D03*
%TD*%
D13*
%TO.C,C29*%
X94250000Y-98775000D03*
X94250000Y-95825000D03*
%TD*%
D25*
%TO.C,U4*%
X92262500Y-132349999D03*
X92262500Y-134249999D03*
X94137500Y-133299999D03*
%TD*%
D13*
%TO.C,C35*%
X111750000Y-98775000D03*
X111750000Y-95825000D03*
%TD*%
D16*
%TO.C,R17*%
X103600000Y-130725000D03*
X103600000Y-129075000D03*
%TD*%
M02*
