%TF.GenerationSoftware,KiCad,Pcbnew,7.0.10*%
%TF.CreationDate,2026-10-10T16:01:00+02:00*%
%TF.ProjectId,spb-bb-fab,7370622d-6262-42d6-9661-622e6b696361,rev?*%
%TF.SameCoordinates,Original*%
%TF.FileFunction,Copper,L1,Top*%
%TF.FilePolarity,Positive*%
%FSLAX46Y46*%
G04 Gerber Fmt 4.6, Leading zero omitted, Abs format (unit mm)*
G04 Created by KiCad (PCBNEW 7.0.10) date 2026-10-10 16:01:00*
%MOMM*%
%LPD*%
G01*
G04 APERTURE LIST*
G04 Aperture macros list*
%AMRoundRect*
0 Rectangle with rounded corners*
0 $1 Rounding radius*
0 $2 $3 $4 $5 $6 $7 $8 $9 X,Y pos of 4 corners*
0 Add a 4 corners polygon primitive as box body*
4,1,4,$2,$3,$4,$5,$6,$7,$8,$9,$2,$3,0*
0 Add four circle primitives for the rounded corners*
1,1,$1+$1,$2,$3*
1,1,$1+$1,$4,$5*
1,1,$1+$1,$6,$7*
1,1,$1+$1,$8,$9*
0 Add four rect primitives between the rounded corners*
20,1,$1+$1,$2,$3,$4,$5,0*
20,1,$1+$1,$4,$5,$6,$7,0*
20,1,$1+$1,$6,$7,$8,$9,0*
20,1,$1+$1,$8,$9,$2,$3,0*%
G04 Aperture macros list end*
%TA.AperFunction,SMDPad,CuDef*%
%ADD10RoundRect,0.250000X0.475000X-0.250000X0.475000X0.250000X-0.475000X0.250000X-0.475000X-0.250000X0*%
%TD*%
%TA.AperFunction,SMDPad,CuDef*%
%ADD11RoundRect,0.200000X-0.200000X-0.275000X0.200000X-0.275000X0.200000X0.275000X-0.200000X0.275000X0*%
%TD*%
%TA.AperFunction,SMDPad,CuDef*%
%ADD12RoundRect,0.250000X-0.250000X-0.475000X0.250000X-0.475000X0.250000X0.475000X-0.250000X0.475000X0*%
%TD*%
%TA.AperFunction,SMDPad,CuDef*%
%ADD13RoundRect,0.110001X0.440999X0.459999X-0.440999X0.459999X-0.440999X-0.459999X0.440999X-0.459999X0*%
%TD*%
%TA.AperFunction,SMDPad,CuDef*%
%ADD14RoundRect,0.110001X0.440999X1.019999X-0.440999X1.019999X-0.440999X-1.019999X0.440999X-1.019999X0*%
%TD*%
%TA.AperFunction,SMDPad,CuDef*%
%ADD15RoundRect,0.065000X0.260000X1.735000X-0.260000X1.735000X-0.260000X-1.735000X0.260000X-1.735000X0*%
%TD*%
%TA.AperFunction,SMDPad,CuDef*%
%ADD16RoundRect,0.110001X0.440999X1.689999X-0.440999X1.689999X-0.440999X-1.689999X0.440999X-1.689999X0*%
%TD*%
%TA.AperFunction,SMDPad,CuDef*%
%ADD17RoundRect,0.250000X1.100000X-0.325000X1.100000X0.325000X-1.100000X0.325000X-1.100000X-0.325000X0*%
%TD*%
%TA.AperFunction,SMDPad,CuDef*%
%ADD18RoundRect,0.135000X0.185000X-0.135000X0.185000X0.135000X-0.185000X0.135000X-0.185000X-0.135000X0*%
%TD*%
%TA.AperFunction,SMDPad,CuDef*%
%ADD19RoundRect,0.087500X-0.087500X-0.287500X0.087500X-0.287500X0.087500X0.287500X-0.087500X0.287500X0*%
%TD*%
%TA.AperFunction,SMDPad,CuDef*%
%ADD20RoundRect,0.200000X0.275000X-0.200000X0.275000X0.200000X-0.275000X0.200000X-0.275000X-0.200000X0*%
%TD*%
%TA.AperFunction,SMDPad,CuDef*%
%ADD21C,1.000000*%
%TD*%
%TA.AperFunction,SMDPad,CuDef*%
%ADD22RoundRect,0.140000X-0.140000X-0.170000X0.140000X-0.170000X0.140000X0.170000X-0.140000X0.170000X0*%
%TD*%
%TA.AperFunction,SMDPad,CuDef*%
%ADD23RoundRect,0.125000X0.125000X-0.125000X0.125000X0.125000X-0.125000X0.125000X-0.125000X-0.125000X0*%
%TD*%
%TA.AperFunction,SMDPad,CuDef*%
%ADD24RoundRect,0.125000X0.600000X0.125000X-0.600000X0.125000X-0.600000X-0.125000X0.600000X-0.125000X0*%
%TD*%
%TA.AperFunction,SMDPad,CuDef*%
%ADD25R,1.570000X1.890000*%
%TD*%
%TA.AperFunction,SMDPad,CuDef*%
%ADD26RoundRect,0.218750X0.256250X-0.218750X0.256250X0.218750X-0.256250X0.218750X-0.256250X-0.218750X0*%
%TD*%
%TA.AperFunction,ComponentPad*%
%ADD27R,1.700000X1.700000*%
%TD*%
%TA.AperFunction,ComponentPad*%
%ADD28O,1.700000X1.700000*%
%TD*%
%TA.AperFunction,SMDPad,CuDef*%
%ADD29RoundRect,0.250000X0.625000X-0.312500X0.625000X0.312500X-0.625000X0.312500X-0.625000X-0.312500X0*%
%TD*%
%TA.AperFunction,SMDPad,CuDef*%
%ADD30RoundRect,0.218750X-0.218750X-0.256250X0.218750X-0.256250X0.218750X0.256250X-0.218750X0.256250X0*%
%TD*%
%TA.AperFunction,SMDPad,CuDef*%
%ADD31RoundRect,0.110001X-0.440999X-0.459999X0.440999X-0.459999X0.440999X0.459999X-0.440999X0.459999X0*%
%TD*%
%TA.AperFunction,SMDPad,CuDef*%
%ADD32RoundRect,0.110001X-0.440999X-1.019999X0.440999X-1.019999X0.440999X1.019999X-0.440999X1.019999X0*%
%TD*%
%TA.AperFunction,SMDPad,CuDef*%
%ADD33RoundRect,0.065000X-0.260000X-1.735000X0.260000X-1.735000X0.260000X1.735000X-0.260000X1.735000X0*%
%TD*%
%TA.AperFunction,SMDPad,CuDef*%
%ADD34RoundRect,0.110001X-0.440999X-1.689999X0.440999X-1.689999X0.440999X1.689999X-0.440999X1.689999X0*%
%TD*%
%TA.AperFunction,SMDPad,CuDef*%
%ADD35RoundRect,0.135000X-0.135000X-0.185000X0.135000X-0.185000X0.135000X0.185000X-0.135000X0.185000X0*%
%TD*%
%TA.AperFunction,SMDPad,CuDef*%
%ADD36RoundRect,0.150000X-0.587500X-0.150000X0.587500X-0.150000X0.587500X0.150000X-0.587500X0.150000X0*%
%TD*%
%TA.AperFunction,SMDPad,CuDef*%
%ADD37R,2.300000X1.000000*%
%TD*%
%TA.AperFunction,ComponentPad*%
%ADD38C,3.200000*%
%TD*%
%TA.AperFunction,ViaPad*%
%ADD39C,0.600000*%
%TD*%
%TA.AperFunction,ViaPad*%
%ADD40C,0.450000*%
%TD*%
%TA.AperFunction,Conductor*%
%ADD41C,0.300000*%
%TD*%
%TA.AperFunction,Conductor*%
%ADD42C,0.250000*%
%TD*%
%TA.AperFunction,Conductor*%
%ADD43C,0.400000*%
%TD*%
%TA.AperFunction,Conductor*%
%ADD44C,0.200000*%
%TD*%
G04 APERTURE END LIST*
D10*
%TO.P,C6,1*%
%TO.N,DCP*%
X94500000Y-102150000D03*
%TO.P,C6,2*%
%TO.N,DCN*%
X94500000Y-100250000D03*
%TD*%
D11*
%TO.P,R34,1*%
%TO.N,LEDA_12V*%
X92575000Y-159600000D03*
%TO.P,R34,2*%
%TO.N,+12V*%
X94225000Y-159600000D03*
%TD*%
D10*
%TO.P,C10,1*%
%TO.N,DCP*%
X110300000Y-102150000D03*
%TO.P,C10,2*%
%TO.N,DCN*%
X110300000Y-100250000D03*
%TD*%
D12*
%TO.P,C109,1*%
%TO.N,VDDA*%
X88250000Y-132299999D03*
%TO.P,C109,2*%
%TO.N,SW*%
X90150000Y-132299999D03*
%TD*%
D13*
%TO.P,Q3,1*%
%TO.N,GL_L*%
X92852000Y-110430000D03*
D14*
%TO.P,Q3,2*%
%TO.N,DCN*%
X92852000Y-108530000D03*
D15*
%TO.P,Q3,3*%
%TO.N,SW*%
X91775000Y-109200000D03*
%TO.P,Q3,4*%
%TO.N,DCN*%
X90925000Y-109200000D03*
%TO.P,Q3,5*%
%TO.N,SW*%
X90075000Y-109200000D03*
%TO.P,Q3,6*%
%TO.N,DCN*%
X89225000Y-109200000D03*
D16*
%TO.P,Q3,7*%
%TO.N,SW*%
X88148000Y-109200000D03*
%TD*%
D10*
%TO.P,C112,1*%
%TO.N,VEEB*%
X106600000Y-129850000D03*
%TO.P,C112,2*%
%TO.N,ISOB_P*%
X106600000Y-127950000D03*
%TD*%
D17*
%TO.P,C16,1*%
%TO.N,DCN*%
X85250000Y-90775000D03*
%TO.P,C16,2*%
%TO.N,DCP*%
X85250000Y-87825000D03*
%TD*%
D12*
%TO.P,C114,1*%
%TO.N,DCN*%
X109850000Y-132299999D03*
%TO.P,C114,2*%
%TO.N,VDDB*%
X111750000Y-132299999D03*
%TD*%
%TO.P,C111,1*%
%TO.N,+12V*%
X90850001Y-154800000D03*
%TO.P,C111,2*%
%TO.N,GNDI*%
X92750001Y-154800000D03*
%TD*%
D18*
%TO.P,R9,1*%
%TO.N,PWM_H*%
X98100000Y-125310000D03*
%TO.P,R9,2*%
%TO.N,INA*%
X98100000Y-124290000D03*
%TD*%
D19*
%TO.P,U1,1*%
%TO.N,GNDI*%
X98050000Y-121149999D03*
%TO.P,U1,2*%
%TO.N,INA*%
X98700001Y-121149999D03*
%TO.P,U1,3*%
%TO.N,INB*%
X99350001Y-121149999D03*
%TO.P,U1,4*%
%TO.N,GNDI*%
X100000000Y-121149999D03*
%TO.P,U1,5*%
%TO.N,DIS*%
X100650000Y-121149999D03*
%TO.P,U1,6*%
%TO.N,N/C*%
X101300000Y-121149999D03*
%TO.P,U1,7*%
%TO.N,VDDI*%
X101950000Y-121149999D03*
%TO.P,U1,8*%
%TO.N,VEEB*%
X101950000Y-117050001D03*
%TO.P,U1,9*%
%TO.N,OUTB*%
X101300000Y-117050001D03*
%TO.P,U1,10*%
%TO.N,VDDB*%
X100650000Y-117050001D03*
%TO.P,U1,11*%
%TO.N,VEEA*%
X99350000Y-117050001D03*
%TO.P,U1,12*%
%TO.N,OUTA*%
X98700000Y-117050001D03*
%TO.P,U1,13*%
%TO.N,VDDA*%
X98050000Y-117050001D03*
%TD*%
D20*
%TO.P,R33,1*%
%TO.N,VDDB*%
X117600000Y-139125000D03*
%TO.P,R33,2*%
%TO.N,LEDA_VDDB*%
X117600000Y-137475000D03*
%TD*%
D11*
%TO.P,R13,1*%
%TO.N,ADJA*%
X84775000Y-133900000D03*
%TO.P,R13,2*%
%TO.N,VEEA*%
X86425000Y-133900000D03*
%TD*%
D18*
%TO.P,R8,1*%
%TO.N,OFFB*%
X102700000Y-112210000D03*
%TO.P,R8,2*%
%TO.N,GL_STAR*%
X102700000Y-111190000D03*
%TD*%
D12*
%TO.P,C116,1*%
%TO.N,GNDI*%
X107249999Y-154800000D03*
%TO.P,C116,2*%
%TO.N,+12V*%
X109149999Y-154800000D03*
%TD*%
D21*
%TO.P,TP6,1*%
%TO.N,DCN*%
X115500000Y-105500000D03*
X115500000Y-108000000D03*
%TO.P,TP6,2*%
X115500000Y-110500000D03*
%TD*%
D22*
%TO.P,C103,1*%
%TO.N,VDDB*%
X103270000Y-117950000D03*
%TO.P,C103,2*%
%TO.N,DCN*%
X104230000Y-117950000D03*
%TD*%
D17*
%TO.P,C24,1*%
%TO.N,DCP*%
X85250000Y-94775000D03*
%TO.P,C24,2*%
%TO.N,DCN*%
X85250000Y-91825000D03*
%TD*%
D23*
%TO.P,D1,1*%
%TO.N,OUTA*%
X97300000Y-115350000D03*
%TO.P,D1,2*%
%TO.N,OFFA*%
X97300000Y-113150000D03*
%TD*%
D17*
%TO.P,C17,1*%
%TO.N,DCN*%
X105750000Y-90775000D03*
%TO.P,C17,2*%
%TO.N,DCP*%
X105750000Y-87825000D03*
%TD*%
D22*
%TO.P,C100,1*%
%TO.N,SW*%
X95770000Y-116950000D03*
%TO.P,C100,2*%
%TO.N,VDDA*%
X96730000Y-116950000D03*
%TD*%
D24*
%TO.P,U2,1*%
%TO.N,VDDA*%
X90750000Y-129875000D03*
%TO.P,U2,2*%
%TO.N,ADJA*%
X90750000Y-129225000D03*
%TO.P,U2,3*%
%TO.N,N/C*%
X90750000Y-128575000D03*
%TO.P,U2,4*%
%TO.N,VEEA*%
X90750000Y-127925000D03*
%TO.P,U2,5*%
%TO.N,ISOA_P*%
X86450000Y-127925000D03*
%TO.P,U2,6*%
%TO.N,N/C*%
X86450000Y-128575000D03*
%TO.P,U2,7*%
X86450000Y-129225000D03*
%TO.P,U2,8*%
%TO.N,ISOA_P*%
X86450000Y-129875000D03*
D25*
%TO.P,U2,9*%
%TO.N,VEEA*%
X88600000Y-128900000D03*
%TD*%
D17*
%TO.P,C36,1*%
%TO.N,DCN*%
X114750000Y-98775000D03*
%TO.P,C36,2*%
%TO.N,DCP*%
X114750000Y-95825000D03*
%TD*%
D12*
%TO.P,C115,1*%
%TO.N,VEEB*%
X109850000Y-134500000D03*
%TO.P,C115,2*%
%TO.N,DCN*%
X111750000Y-134500000D03*
%TD*%
D10*
%TO.P,C12,1*%
%TO.N,DCP*%
X113500000Y-102150000D03*
%TO.P,C12,2*%
%TO.N,DCN*%
X113500000Y-100250000D03*
%TD*%
D20*
%TO.P,R31,1*%
%TO.N,VDDA*%
X82400000Y-139125000D03*
%TO.P,R31,2*%
%TO.N,LEDA_VDDA*%
X82400000Y-137475000D03*
%TD*%
D26*
%TO.P,D3,1*%
%TO.N,VEEA*%
X82400000Y-129287500D03*
%TO.P,D3,2*%
%TO.N,LEDA_ISOA*%
X82400000Y-127712500D03*
%TD*%
D11*
%TO.P,R15,1*%
%TO.N,ADJB*%
X113575000Y-132100000D03*
%TO.P,R15,2*%
%TO.N,VDDB*%
X115225000Y-132100000D03*
%TD*%
D20*
%TO.P,R30,1*%
%TO.N,ISOA_P*%
X82400000Y-132525000D03*
%TO.P,R30,2*%
%TO.N,LEDA_ISOA*%
X82400000Y-130875000D03*
%TD*%
D17*
%TO.P,C27,1*%
%TO.N,DCP*%
X111750000Y-94775000D03*
%TO.P,C27,2*%
%TO.N,DCN*%
X111750000Y-91825000D03*
%TD*%
%TO.P,C13,1*%
%TO.N,DCN*%
X94250000Y-90775000D03*
%TO.P,C13,2*%
%TO.N,DCP*%
X94250000Y-87825000D03*
%TD*%
D27*
%TO.P,J6,1*%
%TO.N,NTC*%
X103000000Y-133500000D03*
D28*
%TO.P,J6,2*%
%TO.N,DCN*%
X103000000Y-136040000D03*
%TD*%
D17*
%TO.P,C34,1*%
%TO.N,DCN*%
X108750000Y-98775000D03*
%TO.P,C34,2*%
%TO.N,DCP*%
X108750000Y-95825000D03*
%TD*%
D18*
%TO.P,R36,1*%
%TO.N,GNDI*%
X106600000Y-157510000D03*
%TO.P,R36,2*%
%TO.N,PWM_L*%
X106600000Y-156490000D03*
%TD*%
D29*
%TO.P,R39,1*%
%TO.N,DCP*%
X119200000Y-92962500D03*
%TO.P,R39,2*%
%TO.N,DCN*%
X119200000Y-90037500D03*
%TD*%
D21*
%TO.P,TP16,1*%
%TO.N,DCP*%
X113800000Y-85000000D03*
%TO.P,TP16,2*%
%TO.N,DCN*%
X113800000Y-82500000D03*
X113800000Y-80000000D03*
%TD*%
D22*
%TO.P,C105,1*%
%TO.N,INB*%
X99350000Y-123350000D03*
%TO.P,C105,2*%
%TO.N,GNDI*%
X100310000Y-123350000D03*
%TD*%
D30*
%TO.P,D7,1*%
%TO.N,GNDI*%
X89212500Y-159600000D03*
%TO.P,D7,2*%
%TO.N,LEDA_12V*%
X90787500Y-159600000D03*
%TD*%
D31*
%TO.P,Q2,1*%
%TO.N,GH_R*%
X107148000Y-103670000D03*
D32*
%TO.P,Q2,2*%
%TO.N,SW*%
X107148000Y-105570000D03*
D33*
%TO.P,Q2,3*%
%TO.N,DCP*%
X108225000Y-104900000D03*
%TO.P,Q2,4*%
%TO.N,SW*%
X109075000Y-104900000D03*
%TO.P,Q2,5*%
%TO.N,DCP*%
X109925000Y-104900000D03*
%TO.P,Q2,6*%
%TO.N,SW*%
X110775000Y-104900000D03*
D34*
%TO.P,Q2,7*%
%TO.N,DCP*%
X111852000Y-104900000D03*
%TD*%
D22*
%TO.P,C101,1*%
%TO.N,SW*%
X95770000Y-117950000D03*
%TO.P,C101,2*%
%TO.N,VEEA*%
X96730000Y-117950000D03*
%TD*%
%TO.P,C106,1*%
%TO.N,VDDI*%
X101720000Y-122250000D03*
%TO.P,C106,2*%
%TO.N,GNDI*%
X102680000Y-122250000D03*
%TD*%
D26*
%TO.P,D5,1*%
%TO.N,VEEB*%
X117600000Y-129287500D03*
%TO.P,D5,2*%
%TO.N,LEDA_ISOB*%
X117600000Y-127712500D03*
%TD*%
%TO.P,D6,1*%
%TO.N,VEEB*%
X117600000Y-135887500D03*
%TO.P,D6,2*%
%TO.N,LEDA_VDDB*%
X117600000Y-134312500D03*
%TD*%
D20*
%TO.P,R7,1*%
%TO.N,OUTB*%
X101000000Y-113025000D03*
%TO.P,R7,2*%
%TO.N,GL_STAR*%
X101000000Y-111375000D03*
%TD*%
D26*
%TO.P,D4,1*%
%TO.N,VEEA*%
X82400000Y-135887500D03*
%TO.P,D4,2*%
%TO.N,LEDA_VDDA*%
X82400000Y-134312500D03*
%TD*%
D27*
%TO.P,J5,1*%
%TO.N,+12V*%
X97460000Y-158040000D03*
D28*
%TO.P,J5,2*%
%TO.N,GNDI*%
X97460000Y-155500000D03*
%TO.P,J5,3*%
%TO.N,PWM_H*%
X100000000Y-158040000D03*
%TO.P,J5,4*%
%TO.N,GNDI*%
X100000000Y-155500000D03*
%TO.P,J5,5*%
%TO.N,PWM_L*%
X102540000Y-158040000D03*
%TO.P,J5,6*%
%TO.N,DIS*%
X102540000Y-155500000D03*
%TD*%
D29*
%TO.P,R38,1*%
%TO.N,HVA*%
X118600000Y-84962500D03*
%TO.P,R38,2*%
%TO.N,HVB*%
X118600000Y-82037500D03*
%TD*%
D18*
%TO.P,R11,1*%
%TO.N,+12V*%
X101900000Y-124310000D03*
%TO.P,R11,2*%
%TO.N,VDDI*%
X101900000Y-123290000D03*
%TD*%
D21*
%TO.P,TP15,1*%
%TO.N,+12V*%
X87000000Y-154500000D03*
%TO.P,TP15,2*%
%TO.N,GNDI*%
X87000000Y-157000000D03*
X87000000Y-159500000D03*
%TD*%
D17*
%TO.P,C22,1*%
%TO.N,DCP*%
X91250000Y-94775000D03*
%TO.P,C22,2*%
%TO.N,DCN*%
X91250000Y-91825000D03*
%TD*%
D35*
%TO.P,R4,1*%
%TO.N,GL_STAR*%
X102490000Y-109200000D03*
%TO.P,R4,2*%
%TO.N,GL_R*%
X103510000Y-109200000D03*
%TD*%
D17*
%TO.P,C19,1*%
%TO.N,DCN*%
X111750000Y-90775000D03*
%TO.P,C19,2*%
%TO.N,DCP*%
X111750000Y-87825000D03*
%TD*%
D36*
%TO.P,U5,1*%
%TO.N,DCN*%
X105862500Y-132349999D03*
%TO.P,U5,2*%
X105862500Y-134249999D03*
%TO.P,U5,3*%
%TO.N,VEEB*%
X107737500Y-133299999D03*
%TD*%
D21*
%TO.P,TP12,1*%
%TO.N,ISOB_P*%
X119600000Y-128000000D03*
%TO.P,TP12,2*%
%TO.N,VEEB*%
X119600000Y-130500000D03*
X119600000Y-133000000D03*
%TD*%
D10*
%TO.P,C3,1*%
%TO.N,DCP*%
X89700000Y-102150000D03*
%TO.P,C3,2*%
%TO.N,DCN*%
X89700000Y-100250000D03*
%TD*%
D11*
%TO.P,R16,1*%
%TO.N,VEEB*%
X113575000Y-133900000D03*
%TO.P,R16,2*%
%TO.N,ADJB*%
X115225000Y-133900000D03*
%TD*%
D17*
%TO.P,C33,1*%
%TO.N,DCN*%
X105750000Y-98775000D03*
%TO.P,C33,2*%
%TO.N,DCP*%
X105750000Y-95825000D03*
%TD*%
D10*
%TO.P,C108,1*%
%TO.N,VEEA*%
X93000000Y-129850000D03*
%TO.P,C108,2*%
%TO.N,VDDA*%
X93000000Y-127950000D03*
%TD*%
D17*
%TO.P,C25,1*%
%TO.N,DCP*%
X105750000Y-94775000D03*
%TO.P,C25,2*%
%TO.N,DCN*%
X105750000Y-91825000D03*
%TD*%
%TO.P,C14,1*%
%TO.N,DCN*%
X91250000Y-90775000D03*
%TO.P,C14,2*%
%TO.N,DCP*%
X91250000Y-87825000D03*
%TD*%
D18*
%TO.P,R41,1*%
%TO.N,SW*%
X101000000Y-105840000D03*
%TO.P,R41,2*%
%TO.N,GH_STAR*%
X101000000Y-104820000D03*
%TD*%
D17*
%TO.P,C32,1*%
%TO.N,DCN*%
X85250000Y-98775000D03*
%TO.P,C32,2*%
%TO.N,DCP*%
X85250000Y-95825000D03*
%TD*%
D35*
%TO.P,R2,1*%
%TO.N,GH_STAR*%
X102490000Y-104900000D03*
%TO.P,R2,2*%
%TO.N,GH_R*%
X103510000Y-104900000D03*
%TD*%
D21*
%TO.P,TP3,1*%
%TO.N,GL_L*%
X82700000Y-106000000D03*
%TO.P,TP3,2*%
%TO.N,DCN*%
X82700000Y-108500000D03*
X82700000Y-111000000D03*
%TD*%
D17*
%TO.P,C20,1*%
%TO.N,DCN*%
X114750000Y-90775000D03*
%TO.P,C20,2*%
%TO.N,DCP*%
X114750000Y-87825000D03*
%TD*%
D21*
%TO.P,TP7,1*%
%TO.N,GL_R*%
X117300000Y-106000000D03*
%TO.P,TP7,2*%
%TO.N,DCN*%
X117300000Y-108500000D03*
X117300000Y-111000000D03*
%TD*%
D18*
%TO.P,R10,1*%
%TO.N,PWM_L*%
X99350000Y-125310000D03*
%TO.P,R10,2*%
%TO.N,INB*%
X99350000Y-124290000D03*
%TD*%
D17*
%TO.P,C15,1*%
%TO.N,DCN*%
X88250000Y-90775000D03*
%TO.P,C15,2*%
%TO.N,DCP*%
X88250000Y-87825000D03*
%TD*%
%TO.P,C18,1*%
%TO.N,DCN*%
X108750000Y-90775000D03*
%TO.P,C18,2*%
%TO.N,DCP*%
X108750000Y-87825000D03*
%TD*%
D24*
%TO.P,U3,1*%
%TO.N,VDDB*%
X113150000Y-129875000D03*
%TO.P,U3,2*%
%TO.N,ADJB*%
X113150000Y-129225000D03*
%TO.P,U3,3*%
%TO.N,N/C*%
X113150000Y-128575000D03*
%TO.P,U3,4*%
%TO.N,VEEB*%
X113150000Y-127925000D03*
%TO.P,U3,5*%
%TO.N,ISOB_P*%
X108850000Y-127925000D03*
%TO.P,U3,6*%
%TO.N,N/C*%
X108850000Y-128575000D03*
%TO.P,U3,7*%
X108850000Y-129225000D03*
%TO.P,U3,8*%
%TO.N,ISOB_P*%
X108850000Y-129875000D03*
D25*
%TO.P,U3,9*%
%TO.N,VEEB*%
X111000000Y-128900000D03*
%TD*%
D21*
%TO.P,TP14,1*%
%TO.N,DCN*%
X119600000Y-142000000D03*
%TO.P,TP14,2*%
%TO.N,VEEB*%
X119600000Y-144500000D03*
X119600000Y-147000000D03*
%TD*%
D10*
%TO.P,C8,1*%
%TO.N,DCP*%
X107100000Y-102150000D03*
%TO.P,C8,2*%
%TO.N,DCN*%
X107100000Y-100250000D03*
%TD*%
%TO.P,C9,1*%
%TO.N,DCP*%
X108700000Y-102150000D03*
%TO.P,C9,2*%
%TO.N,DCN*%
X108700000Y-100250000D03*
%TD*%
D35*
%TO.P,R3,1*%
%TO.N,GL_L*%
X96490000Y-109200000D03*
%TO.P,R3,2*%
%TO.N,GL_STAR*%
X97510000Y-109200000D03*
%TD*%
D10*
%TO.P,C107,1*%
%TO.N,VEEA*%
X84400000Y-130050000D03*
%TO.P,C107,2*%
%TO.N,ISOA_P*%
X84400000Y-128150000D03*
%TD*%
%TO.P,C4,1*%
%TO.N,DCP*%
X91300000Y-102150000D03*
%TO.P,C4,2*%
%TO.N,DCN*%
X91300000Y-100250000D03*
%TD*%
%TO.P,C7,1*%
%TO.N,DCP*%
X105500000Y-102150000D03*
%TO.P,C7,2*%
%TO.N,DCN*%
X105500000Y-100250000D03*
%TD*%
%TO.P,C2,1*%
%TO.N,DCP*%
X88100000Y-102150000D03*
%TO.P,C2,2*%
%TO.N,DCN*%
X88100000Y-100250000D03*
%TD*%
D20*
%TO.P,R14,1*%
%TO.N,SW*%
X96400000Y-130725000D03*
%TO.P,R14,2*%
%TO.N,VDDA*%
X96400000Y-129075000D03*
%TD*%
D10*
%TO.P,C113,1*%
%TO.N,VEEB*%
X115200000Y-130050000D03*
%TO.P,C113,2*%
%TO.N,VDDB*%
X115200000Y-128150000D03*
%TD*%
D27*
%TO.P,J7,1*%
%TO.N,+12V*%
X113000000Y-155600000D03*
D28*
%TO.P,J7,2*%
%TO.N,GNDI*%
X113000000Y-158140000D03*
%TD*%
D18*
%TO.P,R6,1*%
%TO.N,OFFA*%
X97300000Y-112210000D03*
%TO.P,R6,2*%
%TO.N,GH_STAR*%
X97300000Y-111190000D03*
%TD*%
D10*
%TO.P,C11,1*%
%TO.N,DCP*%
X111900000Y-102150000D03*
%TO.P,C11,2*%
%TO.N,DCN*%
X111900000Y-100250000D03*
%TD*%
D21*
%TO.P,TP8,1*%
%TO.N,GH_R*%
X119600000Y-107200000D03*
%TO.P,TP8,2*%
%TO.N,SW*%
X119600000Y-104700000D03*
X119600000Y-102200000D03*
%TD*%
D17*
%TO.P,C28,1*%
%TO.N,DCP*%
X114750000Y-94775000D03*
%TO.P,C28,2*%
%TO.N,DCN*%
X114750000Y-91825000D03*
%TD*%
%TO.P,C23,1*%
%TO.N,DCP*%
X88250000Y-94775000D03*
%TO.P,C23,2*%
%TO.N,DCN*%
X88250000Y-91825000D03*
%TD*%
D12*
%TO.P,C110,1*%
%TO.N,SW*%
X88250000Y-134500000D03*
%TO.P,C110,2*%
%TO.N,VEEA*%
X90150000Y-134500000D03*
%TD*%
D21*
%TO.P,TP4,1*%
%TO.N,GH_L*%
X80400000Y-107200000D03*
%TO.P,TP4,2*%
%TO.N,SW*%
X80400000Y-104700000D03*
X80400000Y-102200000D03*
%TD*%
D17*
%TO.P,C30,1*%
%TO.N,DCN*%
X91250000Y-98775000D03*
%TO.P,C30,2*%
%TO.N,DCP*%
X91250000Y-95825000D03*
%TD*%
D18*
%TO.P,R35,1*%
%TO.N,GNDI*%
X105400000Y-157510000D03*
%TO.P,R35,2*%
%TO.N,PWM_H*%
X105400000Y-156490000D03*
%TD*%
D21*
%TO.P,TP10,1*%
%TO.N,VDDA*%
X80400000Y-135000000D03*
%TO.P,TP10,2*%
%TO.N,VEEA*%
X80400000Y-137500000D03*
X80400000Y-140000000D03*
%TD*%
D17*
%TO.P,C26,1*%
%TO.N,DCP*%
X108750000Y-94775000D03*
%TO.P,C26,2*%
%TO.N,DCN*%
X108750000Y-91825000D03*
%TD*%
D18*
%TO.P,RT1,1*%
%TO.N,DCN*%
X115400000Y-102910000D03*
%TO.P,RT1,2*%
%TO.N,NTC*%
X115400000Y-101890000D03*
%TD*%
%TO.P,R42,1*%
%TO.N,GL_STAR*%
X101000000Y-109260000D03*
%TO.P,R42,2*%
%TO.N,DCN*%
X101000000Y-108240000D03*
%TD*%
D10*
%TO.P,C1,1*%
%TO.N,DCP*%
X86500000Y-102150000D03*
%TO.P,C1,2*%
%TO.N,DCN*%
X86500000Y-100250000D03*
%TD*%
D13*
%TO.P,Q1,1*%
%TO.N,GH_L*%
X92852000Y-106130000D03*
D14*
%TO.P,Q1,2*%
%TO.N,SW*%
X92852000Y-104230000D03*
D15*
%TO.P,Q1,3*%
%TO.N,DCP*%
X91775000Y-104900000D03*
%TO.P,Q1,4*%
%TO.N,SW*%
X90925000Y-104900000D03*
%TO.P,Q1,5*%
%TO.N,DCP*%
X90075000Y-104900000D03*
%TO.P,Q1,6*%
%TO.N,SW*%
X89225000Y-104900000D03*
D16*
%TO.P,Q1,7*%
%TO.N,DCP*%
X88148000Y-104900000D03*
%TD*%
D35*
%TO.P,R1,1*%
%TO.N,GH_L*%
X96490000Y-104900000D03*
%TO.P,R1,2*%
%TO.N,GH_STAR*%
X97510000Y-104900000D03*
%TD*%
D11*
%TO.P,R12,1*%
%TO.N,VDDA*%
X84775000Y-132100000D03*
%TO.P,R12,2*%
%TO.N,ADJA*%
X86425000Y-132100000D03*
%TD*%
D21*
%TO.P,TP2,1*%
%TO.N,DCN*%
X84500000Y-105500000D03*
X84500000Y-108000000D03*
%TO.P,TP2,2*%
X84500000Y-110500000D03*
%TD*%
D22*
%TO.P,C104,1*%
%TO.N,GNDI*%
X97520000Y-122250000D03*
%TO.P,C104,2*%
%TO.N,INA*%
X98480000Y-122250000D03*
%TD*%
D21*
%TO.P,TP11,1*%
%TO.N,SW*%
X80400000Y-142000000D03*
%TO.P,TP11,2*%
%TO.N,VEEA*%
X80400000Y-144500000D03*
X80400000Y-147000000D03*
%TD*%
D29*
%TO.P,R37,1*%
%TO.N,DCP*%
X116100000Y-84962500D03*
%TO.P,R37,2*%
%TO.N,HVA*%
X116100000Y-82037500D03*
%TD*%
D37*
%TO.P,PS2,1*%
%TO.N,GNDI*%
X113699999Y-151525000D03*
%TO.P,PS2,2*%
X113699999Y-150275000D03*
%TO.P,PS2,9*%
%TO.N,VEEB*%
X113699999Y-141525000D03*
%TO.P,PS2,10*%
X113699999Y-140275000D03*
%TO.P,PS2,11*%
%TO.N,ISOB_P*%
X102699999Y-140275000D03*
%TO.P,PS2,12*%
X102699999Y-141525000D03*
%TO.P,PS2,19*%
%TO.N,+12V*%
X102699999Y-150275000D03*
%TO.P,PS2,20*%
X102699999Y-151525000D03*
%TD*%
D21*
%TO.P,TP9,1*%
%TO.N,ISOA_P*%
X80400000Y-128000000D03*
%TO.P,TP9,2*%
%TO.N,VEEA*%
X80400000Y-130500000D03*
X80400000Y-133000000D03*
%TD*%
D30*
%TO.P,D8,1*%
%TO.N,DCN*%
X117612500Y-87400000D03*
%TO.P,D8,2*%
%TO.N,HVB*%
X119187500Y-87400000D03*
%TD*%
D20*
%TO.P,R32,1*%
%TO.N,ISOB_P*%
X117600000Y-132525000D03*
%TO.P,R32,2*%
%TO.N,LEDA_ISOB*%
X117600000Y-130875000D03*
%TD*%
D10*
%TO.P,C5,1*%
%TO.N,DCP*%
X92900000Y-102150000D03*
%TO.P,C5,2*%
%TO.N,DCN*%
X92900000Y-100250000D03*
%TD*%
D22*
%TO.P,C102,1*%
%TO.N,VEEB*%
X103270000Y-116950000D03*
%TO.P,C102,2*%
%TO.N,DCN*%
X104230000Y-116950000D03*
%TD*%
D17*
%TO.P,C31,1*%
%TO.N,DCN*%
X88250000Y-98775000D03*
%TO.P,C31,2*%
%TO.N,DCP*%
X88250000Y-95825000D03*
%TD*%
D21*
%TO.P,TP5,1*%
%TO.N,SW*%
X113400000Y-105500000D03*
X113400000Y-108000000D03*
%TO.P,TP5,2*%
%TO.N,DCN*%
X113400000Y-110500000D03*
%TD*%
D31*
%TO.P,Q4,1*%
%TO.N,GL_R*%
X107148000Y-107970000D03*
D32*
%TO.P,Q4,2*%
%TO.N,DCN*%
X107148000Y-109870000D03*
D33*
%TO.P,Q4,3*%
%TO.N,SW*%
X108225000Y-109200000D03*
%TO.P,Q4,4*%
%TO.N,DCN*%
X109075000Y-109200000D03*
%TO.P,Q4,5*%
%TO.N,SW*%
X109925000Y-109200000D03*
%TO.P,Q4,6*%
%TO.N,DCN*%
X110775000Y-109200000D03*
D34*
%TO.P,Q4,7*%
%TO.N,SW*%
X111852000Y-109200000D03*
%TD*%
D23*
%TO.P,D2,1*%
%TO.N,OUTB*%
X102700000Y-115350000D03*
%TO.P,D2,2*%
%TO.N,OFFB*%
X102700000Y-113150000D03*
%TD*%
D17*
%TO.P,C21,1*%
%TO.N,DCP*%
X94250000Y-94775000D03*
%TO.P,C21,2*%
%TO.N,DCN*%
X94250000Y-91825000D03*
%TD*%
D37*
%TO.P,PS1,1*%
%TO.N,GNDI*%
X97300001Y-151525000D03*
%TO.P,PS1,2*%
X97300001Y-150275000D03*
%TO.P,PS1,9*%
%TO.N,VEEA*%
X97300001Y-141525000D03*
%TO.P,PS1,10*%
X97300001Y-140275000D03*
%TO.P,PS1,11*%
%TO.N,ISOA_P*%
X86300001Y-140275000D03*
%TO.P,PS1,12*%
X86300001Y-141525000D03*
%TO.P,PS1,19*%
%TO.N,+12V*%
X86300001Y-150275000D03*
%TO.P,PS1,20*%
X86300001Y-151525000D03*
%TD*%
D20*
%TO.P,R5,1*%
%TO.N,OUTA*%
X99000000Y-113025000D03*
%TO.P,R5,2*%
%TO.N,GH_STAR*%
X99000000Y-111375000D03*
%TD*%
D17*
%TO.P,C29,1*%
%TO.N,DCN*%
X94250000Y-98775000D03*
%TO.P,C29,2*%
%TO.N,DCP*%
X94250000Y-95825000D03*
%TD*%
D21*
%TO.P,TP13,1*%
%TO.N,VDDB*%
X119600000Y-135000000D03*
%TO.P,TP13,2*%
%TO.N,VEEB*%
X119600000Y-137500000D03*
X119600000Y-140000000D03*
%TD*%
D36*
%TO.P,U4,1*%
%TO.N,SW*%
X92262500Y-132349999D03*
%TO.P,U4,2*%
X92262500Y-134249999D03*
%TO.P,U4,3*%
%TO.N,VEEA*%
X94137500Y-133299999D03*
%TD*%
D21*
%TO.P,TP1,1*%
%TO.N,SW*%
X86600000Y-105500000D03*
X86600000Y-108000000D03*
%TO.P,TP1,2*%
%TO.N,DCN*%
X86600000Y-110500000D03*
%TD*%
D17*
%TO.P,C35,1*%
%TO.N,DCN*%
X111750000Y-98775000D03*
%TO.P,C35,2*%
%TO.N,DCP*%
X111750000Y-95825000D03*
%TD*%
D20*
%TO.P,R17,1*%
%TO.N,DCN*%
X103600000Y-130725000D03*
%TO.P,R17,2*%
%TO.N,VDDB*%
X103600000Y-129075000D03*
%TD*%
D38*
%TO.P,J4,1*%
%TO.N,SW*%
X107565000Y-114665000D03*
X107565000Y-120535000D03*
X113435000Y-114665000D03*
X113435000Y-120535000D03*
%TD*%
%TO.P,J3,1*%
%TO.N,SW*%
X86565000Y-114665000D03*
X86565000Y-120535000D03*
X92435000Y-114665000D03*
X92435000Y-120535000D03*
%TD*%
%TO.P,J1,1*%
%TO.N,DCP*%
X91065000Y-78265001D03*
X91065000Y-84135001D03*
X96935000Y-78265001D03*
X96935000Y-84135001D03*
%TD*%
%TO.P,J2,1*%
%TO.N,DCN*%
X103065000Y-78265001D03*
X103065000Y-84135001D03*
X108935000Y-78265001D03*
X108935000Y-84135001D03*
%TD*%
D39*
%TO.N,DCP*%
X86969231Y-95300000D03*
X85784616Y-95300000D03*
X101184615Y-87100000D03*
X115400000Y-87100000D03*
X111846153Y-95300000D03*
X96446154Y-87100000D03*
X94076924Y-95300000D03*
X90950000Y-102500000D03*
X88153847Y-95300000D03*
X97630770Y-95300000D03*
X90523077Y-95300000D03*
X84600000Y-95300000D03*
X109476923Y-87100000D03*
X92892308Y-87100000D03*
X85784616Y-87100000D03*
X108292307Y-95300000D03*
X86450000Y-102500000D03*
X100000000Y-87100000D03*
X88250000Y-102500000D03*
X90050000Y-102500000D03*
X110661538Y-87100000D03*
X107107692Y-87100000D03*
X111846153Y-87100000D03*
X109050000Y-102500000D03*
X103553846Y-95300000D03*
X90523077Y-87100000D03*
X91707693Y-87100000D03*
X103553846Y-87100000D03*
X86969231Y-87100000D03*
X84600000Y-87100000D03*
X91850001Y-102500000D03*
X97630770Y-87100000D03*
X109476923Y-95300000D03*
X104738461Y-87100000D03*
X110850000Y-102500000D03*
X105923076Y-87100000D03*
X95261539Y-87100000D03*
X114215384Y-95300000D03*
X92750000Y-102500000D03*
X88153847Y-87100000D03*
X89338462Y-95300000D03*
X107107692Y-95300000D03*
X102369230Y-87100000D03*
X115400000Y-95300000D03*
X107250000Y-102500000D03*
X105450000Y-102500000D03*
X98815385Y-95300000D03*
X102369230Y-95300000D03*
X110661538Y-95300000D03*
X101184615Y-95300000D03*
X113030769Y-87100000D03*
X104738461Y-95300000D03*
X93650000Y-102500000D03*
X109950000Y-102500000D03*
X113550000Y-102500000D03*
X92892308Y-95300000D03*
X111750000Y-102500000D03*
X98815385Y-87100000D03*
X94550001Y-102500000D03*
X106350000Y-102500000D03*
X95261539Y-95300000D03*
X112650000Y-102500000D03*
X91707693Y-95300000D03*
X94076924Y-87100000D03*
X96446154Y-95300000D03*
X100000000Y-95300000D03*
X87350000Y-102500000D03*
X89338462Y-87100000D03*
X89150000Y-102500000D03*
X108150000Y-102500000D03*
X108292307Y-87100000D03*
X113030769Y-95300000D03*
X105923076Y-95300000D03*
X114215384Y-87100000D03*
%TO.N,DCN*%
X96446154Y-99500000D03*
X100000000Y-99500000D03*
X94076924Y-99500000D03*
X107107692Y-99500000D03*
X111846153Y-91300000D03*
X115400000Y-103700000D03*
D40*
X118600000Y-108750000D03*
D39*
X108292307Y-91300000D03*
X96446154Y-91300000D03*
X111846153Y-99500000D03*
X98815385Y-99500000D03*
X91707693Y-99500000D03*
X94076924Y-91300000D03*
X91707693Y-91300000D03*
X109050000Y-111500000D03*
X101184615Y-91300000D03*
X89338462Y-99500000D03*
X89338462Y-91300000D03*
X105923076Y-99500000D03*
X113550000Y-111500000D03*
X114215384Y-91300000D03*
X110850000Y-111500000D03*
X113030769Y-91300000D03*
X86969231Y-99500000D03*
X85784616Y-91300000D03*
X104738461Y-99500000D03*
X95261539Y-99500000D03*
X90523077Y-91300000D03*
X103553846Y-99500000D03*
X103553846Y-91300000D03*
X103700000Y-130000000D03*
X89150000Y-111500000D03*
X110661538Y-91300000D03*
X100000000Y-91300000D03*
X110661538Y-99500000D03*
X107250000Y-111500000D03*
X101184615Y-99500000D03*
D40*
X106098000Y-109020000D03*
D39*
X90523077Y-99500000D03*
X84600000Y-91300000D03*
X90950000Y-111500000D03*
X109476923Y-91300000D03*
X97630770Y-91300000D03*
X107107692Y-91300000D03*
X102369230Y-99500000D03*
D40*
X100000000Y-107900000D03*
D39*
X98815385Y-91300000D03*
X114215384Y-99500000D03*
X102369230Y-91300000D03*
X84600000Y-99500000D03*
X92892308Y-91300000D03*
X113030769Y-99500000D03*
X85784616Y-99500000D03*
X109476923Y-99500000D03*
X115400000Y-91300000D03*
X86450000Y-111500000D03*
X104300000Y-119500000D03*
X104738461Y-91300000D03*
X86969231Y-91300000D03*
D40*
X103900000Y-111000000D03*
D39*
X88153847Y-99500000D03*
X92892308Y-99500000D03*
D40*
X81400000Y-108750000D03*
D39*
X95261539Y-91300000D03*
X108292307Y-99500000D03*
X97630770Y-99500000D03*
X88153847Y-91300000D03*
X94550001Y-111500000D03*
D40*
X93902000Y-109379999D03*
D39*
X115400000Y-99500000D03*
X105923076Y-91300000D03*
X106350000Y-111500000D03*
X105450000Y-111500000D03*
D40*
%TO.N,SW*%
X81600000Y-104000000D03*
D39*
X94550001Y-107050000D03*
X113550000Y-107050000D03*
D40*
X93902000Y-105080000D03*
D39*
X96100001Y-130000000D03*
D40*
X106098000Y-104720000D03*
X118400000Y-104000000D03*
X100000000Y-105750000D03*
D39*
X95700000Y-119500000D03*
X86450000Y-107050000D03*
D40*
X96100000Y-111000000D03*
D39*
X105450000Y-107050000D03*
D40*
%TO.N,GH_L*%
X94600000Y-106130000D03*
X81400000Y-106600000D03*
%TO.N,GL_L*%
X83800000Y-107200000D03*
X94600000Y-110430000D03*
%TO.N,GH_R*%
X118600000Y-106600000D03*
X105400000Y-103670000D03*
%TO.N,GL_R*%
X105400000Y-107970000D03*
X116200000Y-107200000D03*
D39*
%TO.N,GH_STAR*%
X98500000Y-110000000D03*
X100000000Y-104900000D03*
%TO.N,VEEB*%
X117600000Y-135800000D03*
X115200000Y-130000000D03*
X118600000Y-142700000D03*
X103200000Y-116250000D03*
X113600000Y-141500000D03*
X119600000Y-130500000D03*
X106600000Y-129800000D03*
X119600000Y-140000000D03*
X119600000Y-133000000D03*
X113600000Y-133900000D03*
X119600000Y-137500000D03*
X117600000Y-129200000D03*
X105000000Y-127500000D03*
X111000000Y-127500000D03*
X107700000Y-133300000D03*
%TO.N,VDDB*%
X114500000Y-129000000D03*
X103100000Y-127600000D03*
X103600000Y-118800000D03*
X112300000Y-131400000D03*
X113100000Y-130500000D03*
%TO.N,VEEA*%
X94100001Y-133300000D03*
X81400000Y-142700000D03*
X80400000Y-137500000D03*
X88600001Y-127500000D03*
X97000000Y-127500000D03*
X90100001Y-134500000D03*
X82400000Y-129200000D03*
X96400000Y-118800000D03*
X80400000Y-140000000D03*
X97300001Y-141500000D03*
X82400000Y-135800000D03*
X80400000Y-130500000D03*
X93000000Y-129800000D03*
X86400000Y-133900000D03*
X80400000Y-133000000D03*
%TO.N,VDDA*%
X94900000Y-127600000D03*
X87400000Y-132100000D03*
X96800000Y-116250000D03*
X85500000Y-132100000D03*
%TO.N,DIS*%
X100800000Y-126000000D03*
%TO.N,GNDI*%
X105500000Y-159100000D03*
X83000000Y-154600000D03*
X117000000Y-154600000D03*
X110400000Y-158600000D03*
X100300000Y-123300000D03*
X104200000Y-157200000D03*
X97300001Y-151500000D03*
X100000000Y-120700000D03*
X113600000Y-151500000D03*
X88400000Y-153600000D03*
X95600000Y-157400000D03*
%TO.N,PWM_H*%
X98800001Y-126700000D03*
%TO.N,PWM_L*%
X100400000Y-126700000D03*
%TO.N,+12V*%
X101200000Y-126700000D03*
X101200000Y-149100000D03*
%TO.N,ISOA_P*%
X86200000Y-137600000D03*
X82500000Y-132800000D03*
X86400000Y-127800000D03*
X86400000Y-130000000D03*
%TO.N,ISOB_P*%
X116200000Y-132100000D03*
X110400000Y-130500000D03*
X108500000Y-134500000D03*
%TO.N,NTC*%
X116900000Y-126400000D03*
X116900000Y-101920000D03*
%TO.N,LEDA_ISOA*%
X82400000Y-127800000D03*
X81700000Y-130200000D03*
%TD*%
D41*
%TO.N,DCP*%
X118200000Y-93500001D02*
X118400000Y-93400001D01*
X116000000Y-93800001D02*
X118200000Y-93500001D01*
X113800000Y-86600001D02*
X113800000Y-85300001D01*
X116000000Y-86600001D02*
X116000000Y-85400001D01*
%TO.N,DCN*%
X103900000Y-111000000D02*
X104400000Y-111500000D01*
X103700000Y-130000000D02*
X103700000Y-130400000D01*
D42*
X81400000Y-108750000D02*
X81800000Y-110200000D01*
X117300000Y-108500000D02*
X115500000Y-108000000D01*
D41*
X106500000Y-132300000D02*
X109400000Y-132300000D01*
X112000000Y-82500000D02*
X113500000Y-82500000D01*
X104000000Y-131000000D02*
X105200000Y-132100000D01*
X110300000Y-132900000D02*
X111300000Y-133900000D01*
X104400000Y-116950000D02*
X104230000Y-116950000D01*
X117100000Y-88900001D02*
X117400000Y-87800001D01*
X104400000Y-116950000D02*
X104400000Y-117950000D01*
X116399999Y-89800001D02*
X117100000Y-88900001D01*
X112000000Y-80000000D02*
X113500000Y-80000000D01*
X105800000Y-132500000D02*
X105800000Y-134000000D01*
D42*
X118600000Y-108750000D02*
X117300000Y-108500000D01*
D41*
X116000000Y-89800001D02*
X116399999Y-89800001D01*
X104400000Y-111500000D02*
X104400000Y-116950000D01*
D42*
X101000000Y-108270000D02*
X100000000Y-107900000D01*
X84500000Y-108000000D02*
X84500000Y-105500000D01*
D41*
X104400000Y-117950000D02*
X104400000Y-118900000D01*
X104400000Y-117950000D02*
X104230000Y-117950000D01*
X92852000Y-109379999D02*
X93902000Y-109379999D01*
X104400000Y-118900000D02*
X104300000Y-119500000D01*
D42*
X81400000Y-108750000D02*
X82700000Y-108500000D01*
X118200000Y-110200000D02*
X117300000Y-111000000D01*
D41*
X112200000Y-135100000D02*
X118600000Y-141500000D01*
X117200000Y-89000001D02*
X118400000Y-89600001D01*
D42*
X115500000Y-108000000D02*
X115500000Y-105500000D01*
X82700000Y-108500000D02*
X84500000Y-108000000D01*
D41*
X107148000Y-109020000D02*
X106098000Y-109020000D01*
X115400000Y-102880000D02*
X115400000Y-103700000D01*
X105200000Y-134400000D02*
X103500000Y-135700000D01*
D42*
X81800000Y-110200000D02*
X82700000Y-111000000D01*
X118600000Y-108750000D02*
X118200000Y-110200000D01*
D41*
X118600000Y-141500000D02*
X119300000Y-141800000D01*
%TO.N,SW*%
X95600000Y-116950000D02*
X95600000Y-117950000D01*
X87800000Y-135100000D02*
X81400000Y-141500000D01*
D42*
X81600000Y-104000000D02*
X80400000Y-104700000D01*
D41*
X95600000Y-116950000D02*
X95770000Y-116950000D01*
X81400000Y-141500000D02*
X80700000Y-141800000D01*
X95600000Y-111500000D02*
X95600000Y-116950000D01*
X95600000Y-117950000D02*
X95600000Y-118900000D01*
D42*
X101000000Y-105810000D02*
X100000000Y-105750000D01*
D41*
X96100001Y-130000000D02*
X96200000Y-130400000D01*
X92200001Y-132500000D02*
X92200001Y-134000000D01*
X107148000Y-104720000D02*
X106098000Y-104720000D01*
X89700001Y-132900000D02*
X88700001Y-133900000D01*
X95600000Y-118900000D02*
X95700000Y-119500000D01*
X91600001Y-132300000D02*
X90600001Y-132300000D01*
D42*
X80400000Y-102200000D02*
X81600000Y-104000000D01*
D41*
X96100000Y-111000000D02*
X95600000Y-111500000D01*
D42*
X119600000Y-102200000D02*
X118400000Y-104000000D01*
D41*
X96000000Y-131000000D02*
X92900000Y-132100000D01*
X95600000Y-117950000D02*
X95770000Y-117950000D01*
D42*
X118400000Y-104000000D02*
X119600000Y-104700000D01*
D41*
X92852000Y-105080000D02*
X93902000Y-105080000D01*
%TO.N,GH_L*%
X95700000Y-106130000D02*
X93402000Y-106130000D01*
D42*
X81400000Y-106600000D02*
X80400000Y-107200000D01*
D41*
X95700000Y-104900000D02*
X95700000Y-106130000D01*
X96520000Y-104900000D02*
X95700000Y-104900000D01*
%TO.N,GL_L*%
X95700000Y-109200000D02*
X95700000Y-110430000D01*
X96520000Y-109200000D02*
X95700000Y-109200000D01*
D42*
X83800000Y-107200000D02*
X82700000Y-106000000D01*
D41*
X95700000Y-110430000D02*
X93402000Y-110430000D01*
%TO.N,GH_R*%
X104300000Y-103670000D02*
X106598000Y-103670000D01*
X104300000Y-104900000D02*
X104300000Y-103670000D01*
D42*
X118600000Y-106600000D02*
X119600000Y-107200000D01*
D41*
X103480000Y-104900000D02*
X104300000Y-104900000D01*
%TO.N,GL_R*%
X103480000Y-109200000D02*
X104300000Y-109200000D01*
X104300000Y-107970000D02*
X106598000Y-107970000D01*
D42*
X116200000Y-107200000D02*
X117300000Y-106000000D01*
D41*
X104300000Y-109200000D02*
X104300000Y-107970000D01*
%TO.N,GH_STAR*%
X97300000Y-111300000D02*
X97300000Y-111220000D01*
X98500000Y-110000000D02*
X99000000Y-110700000D01*
X100000000Y-104900000D02*
X102520000Y-104900000D01*
X99000000Y-110700000D02*
X99000000Y-111375000D01*
X99000000Y-111300000D02*
X97300000Y-111300000D01*
X99000000Y-111375000D02*
X99000000Y-111300000D01*
X100000000Y-104900000D02*
X97480000Y-104900000D01*
%TO.N,GL_STAR*%
X101000000Y-111375000D02*
X101000000Y-110300000D01*
X102700000Y-111300000D02*
X102700000Y-111220000D01*
X100000000Y-109200000D02*
X97480000Y-109200000D01*
X101000000Y-110300000D02*
X100000000Y-110300000D01*
X101000000Y-111300000D02*
X102700000Y-111300000D01*
X100000000Y-110300000D02*
X100000000Y-109200000D01*
X101000000Y-111375000D02*
X101000000Y-111300000D01*
X100000000Y-109200000D02*
X102520000Y-109200000D01*
%TO.N,VEEB*%
X111700000Y-128100000D02*
X112500000Y-127900000D01*
X108400000Y-133500000D02*
X109400000Y-134300000D01*
X101950000Y-117050001D02*
X103270000Y-116950000D01*
X119600000Y-144800000D02*
X119600000Y-146700000D01*
X111000000Y-127500000D02*
X111000000Y-128100000D01*
X113600000Y-141100000D02*
X113600000Y-140700000D01*
X103270000Y-116950000D02*
X103200000Y-116250000D01*
X118600000Y-142700000D02*
X119400000Y-144200000D01*
%TO.N,OUTB*%
X102700000Y-115350000D02*
X102200000Y-115900000D01*
X101000000Y-115900000D02*
X101300000Y-117050001D01*
X101000000Y-113025000D02*
X101000000Y-115900000D01*
X102200000Y-115900000D02*
X101000000Y-115900000D01*
%TO.N,VDDB*%
X100650000Y-117050001D02*
X100650000Y-117950000D01*
X115500000Y-132500000D02*
X117400000Y-133500000D01*
X112200000Y-131700000D02*
X112300000Y-131400000D01*
X118500000Y-138000000D02*
X117800000Y-138800000D01*
X104000000Y-129400000D02*
X105700000Y-130700000D01*
X105700000Y-130700000D02*
X110600000Y-131200000D01*
X118500000Y-137500000D02*
X118500000Y-138000000D01*
X113100000Y-130500000D02*
X113100000Y-130000000D01*
X118300000Y-133500000D02*
X119400000Y-134700000D01*
X103100000Y-127600000D02*
X103400000Y-128800000D01*
X103270000Y-117950000D02*
X103600000Y-118800000D01*
X113399999Y-130500000D02*
X114899999Y-131900000D01*
X117400000Y-133500000D02*
X118300000Y-133500000D01*
X119300000Y-135300000D02*
X118500000Y-137500000D01*
X114500000Y-129000000D02*
X114899999Y-128600000D01*
X100650000Y-117950000D02*
X103270000Y-117950000D01*
X110600000Y-131200000D02*
X111300000Y-131900000D01*
%TO.N,VEEA*%
X99350000Y-117050001D02*
X99350000Y-117950000D01*
X99350000Y-117950000D02*
X96730000Y-117950000D01*
X82800000Y-129600000D02*
X83800000Y-129700000D01*
X96730000Y-117950000D02*
X96400000Y-118800000D01*
X80400000Y-144800000D02*
X80400000Y-146700000D01*
X97300001Y-141100000D02*
X97300001Y-140700000D01*
X81400000Y-142700000D02*
X80600000Y-144200000D01*
X88600001Y-127500000D02*
X88600001Y-128100000D01*
X89300000Y-128100000D02*
X90100001Y-127900000D01*
%TO.N,OUTA*%
X99000000Y-113025000D02*
X99000000Y-115900000D01*
X97300000Y-115350000D02*
X97800000Y-115900000D01*
X99000000Y-115900000D02*
X98700000Y-117050001D01*
X97800000Y-115900000D02*
X99000000Y-115900000D01*
%TO.N,VDDA*%
X98050000Y-117050001D02*
X96730000Y-116950000D01*
X82600000Y-133500000D02*
X81700000Y-133500000D01*
X91900000Y-129600000D02*
X91600001Y-129900000D01*
X95100001Y-127800000D02*
X96100001Y-128800000D01*
X91900000Y-129200000D02*
X91900000Y-129600000D01*
X87800000Y-132100000D02*
X87400000Y-132100000D01*
X94900000Y-127600000D02*
X93600001Y-127600000D01*
X84500000Y-132500000D02*
X82600000Y-133500000D01*
X90100001Y-130500000D02*
X88700001Y-131900000D01*
X81500000Y-138000000D02*
X82200000Y-138800000D01*
X81500000Y-137500000D02*
X81500000Y-138000000D01*
X81700000Y-133500000D02*
X80600000Y-134700000D01*
X92400000Y-128400000D02*
X91900000Y-129200000D01*
X91600001Y-129900000D02*
X91400000Y-129900000D01*
X80700000Y-135300000D02*
X81500000Y-137500000D01*
X85500000Y-132100000D02*
X85100001Y-132100000D01*
X90200001Y-130000000D02*
X90100001Y-130500000D01*
X96730000Y-116950000D02*
X96800000Y-116250000D01*
D42*
%TO.N,VDDI*%
X101720000Y-122250000D02*
X101900000Y-123320000D01*
X101950000Y-121149999D02*
X101950000Y-121700000D01*
X101950000Y-121700000D02*
X101720000Y-122250000D01*
%TO.N,DIS*%
X100650000Y-121149999D02*
X100650000Y-121900000D01*
X100900000Y-126000000D02*
X100800000Y-126000000D01*
X100650000Y-121900000D02*
X101000000Y-122400000D01*
X101000000Y-122400000D02*
X101000000Y-126100000D01*
D41*
%TO.N,GNDI*%
X100200000Y-120500000D02*
X100300000Y-120400000D01*
X98000000Y-121400000D02*
X97600001Y-122000000D01*
X100000000Y-120700000D02*
X100000000Y-120900000D01*
X98100001Y-120800000D02*
X98100001Y-120900000D01*
X102400000Y-120400000D02*
X102500000Y-120700000D01*
X97300001Y-151100000D02*
X97300001Y-150700000D01*
X100300000Y-120400000D02*
X102400000Y-120400000D01*
X113600000Y-151100000D02*
X113600000Y-150700000D01*
X102500000Y-120700000D02*
X102600000Y-122000000D01*
X99700001Y-120400000D02*
X98300001Y-120400000D01*
X98300001Y-120400000D02*
X98100001Y-120800000D01*
X99800001Y-120500000D02*
X99700001Y-120400000D01*
D42*
%TO.N,INB*%
X99350001Y-121149999D02*
X99350000Y-124320000D01*
%TO.N,INA*%
X98700001Y-121149999D02*
X98700000Y-121800000D01*
X98100000Y-123400000D02*
X98100000Y-124320000D01*
X98480000Y-122800000D02*
X98100000Y-123400000D01*
X98700000Y-121800000D02*
X98480000Y-122250000D01*
X98480000Y-122250000D02*
X98480000Y-122800000D01*
D41*
%TO.N,OFFA*%
X97300000Y-112180000D02*
X97300000Y-113150000D01*
%TO.N,OFFB*%
X102700000Y-112180000D02*
X102700000Y-113150000D01*
D42*
%TO.N,PWM_H*%
X98800001Y-126700000D02*
X98200001Y-125500000D01*
X101500000Y-156800000D02*
X100500000Y-157700000D01*
X105200000Y-156500000D02*
X103800000Y-156500000D01*
X103800000Y-156500000D02*
X103500000Y-156700000D01*
X103500000Y-156700000D02*
X101500000Y-156800000D01*
%TO.N,PWM_L*%
X107000000Y-158100000D02*
X103000000Y-158100000D01*
X107200000Y-157000000D02*
X107300000Y-157300000D01*
X107300000Y-158000000D02*
X107000000Y-158100000D01*
X107300000Y-157300000D02*
X107300000Y-158000000D01*
X100400000Y-126700000D02*
X99500000Y-125500000D01*
X106800000Y-156700000D02*
X107200000Y-157000000D01*
D43*
%TO.N,+12V*%
X101500000Y-126400000D02*
X101600000Y-125900000D01*
X98700001Y-154500000D02*
X98700001Y-156600000D01*
X86700000Y-154200000D02*
X86600001Y-151900000D01*
X93900000Y-159200000D02*
X91200001Y-155400000D01*
X101600000Y-149900000D02*
X101200000Y-149100000D01*
X101600000Y-151900000D02*
X98700001Y-154500000D01*
X96700000Y-158800000D02*
X94500000Y-159400000D01*
X90500000Y-154500000D02*
X87300000Y-154500000D01*
X108700000Y-154200000D02*
X107200000Y-153200000D01*
X102600000Y-151100000D02*
X102600000Y-150700000D01*
X86300000Y-151100000D02*
X86300000Y-150700000D01*
X101600000Y-125900000D02*
X101800000Y-124500000D01*
X101200000Y-126700000D02*
X101500000Y-126400000D01*
X112200000Y-154800000D02*
X109500000Y-154800000D01*
X107200000Y-153200000D02*
X103700000Y-151900000D01*
X98700001Y-156600000D02*
X98000000Y-157300000D01*
D41*
%TO.N,ISOA_P*%
X83800000Y-128500000D02*
X81300000Y-128500000D01*
X85800000Y-127900000D02*
X85000000Y-127900000D01*
X82800000Y-132200000D02*
X84800000Y-130900000D01*
X86300000Y-140700000D02*
X86300000Y-141100000D01*
X86200000Y-137600000D02*
X86200000Y-139900000D01*
X84800000Y-130900000D02*
X85400000Y-130900000D01*
X85400000Y-130900000D02*
X86300000Y-130000000D01*
X81300000Y-128500000D02*
X80700000Y-128200000D01*
D44*
%TO.N,ADJA*%
X86700000Y-131700000D02*
X89700001Y-130100000D01*
X89700001Y-130100000D02*
X89700001Y-129400000D01*
X89700001Y-129400000D02*
X90000000Y-129300000D01*
X85100001Y-133500000D02*
X86100001Y-132500000D01*
X90000000Y-129300000D02*
X90100001Y-129300000D01*
D41*
%TO.N,ISOB_P*%
X107700000Y-128200000D02*
X108000000Y-127900000D01*
X118000000Y-132200000D02*
X118700000Y-130900000D01*
X107700000Y-129300000D02*
X107700000Y-128200000D01*
X118700000Y-130900000D02*
X118700000Y-129700000D01*
X108200000Y-129900000D02*
X107800000Y-129800000D01*
X117200000Y-132200000D02*
X116200000Y-132100000D01*
X107600000Y-128100000D02*
X107200000Y-128100000D01*
X107800000Y-129800000D02*
X107700000Y-129300000D01*
X108500000Y-134500000D02*
X103100000Y-139900000D01*
X110400000Y-130500000D02*
X109500000Y-130000000D01*
X118700000Y-129700000D02*
X119400000Y-128300000D01*
X108000000Y-127900000D02*
X108200000Y-127900000D01*
X102600000Y-140700000D02*
X102600000Y-141100000D01*
D44*
%TO.N,ADJB*%
X114899999Y-133500000D02*
X113899999Y-132500000D01*
X113300000Y-131700000D02*
X112100000Y-130200000D01*
X112100000Y-130200000D02*
X112100000Y-129400000D01*
X112399999Y-129300000D02*
X112500000Y-129300000D01*
X112100000Y-129400000D02*
X112399999Y-129300000D01*
D42*
%TO.N,NTC*%
X115400000Y-101920000D02*
X116900000Y-101920000D01*
%TO.N,LEDA_ISOA*%
X82000000Y-130600000D02*
X81700000Y-130200000D01*
%TO.N,LEDA_VDDA*%
X82800000Y-137200000D02*
X83200000Y-136500000D01*
X83200000Y-135200000D02*
X82700000Y-134700000D01*
X83200000Y-136500000D02*
X83200000Y-135200000D01*
%TO.N,LEDA_ISOB*%
X117200000Y-130600000D02*
X116800000Y-129900000D01*
X116800000Y-128600000D02*
X117300000Y-128100000D01*
X116800000Y-129900000D02*
X116800000Y-128600000D01*
%TO.N,LEDA_VDDB*%
X117200000Y-137200000D02*
X116800000Y-136500000D01*
X116800000Y-136500000D02*
X116800000Y-135200000D01*
X116800000Y-135200000D02*
X117300000Y-134700000D01*
%TO.N,LEDA_12V*%
X92300001Y-159600000D02*
X91100001Y-159600000D01*
D41*
%TO.N,HVA*%
X117800000Y-84100001D02*
X116300000Y-82500000D01*
X117800000Y-84500001D02*
X117800000Y-84100001D01*
%TO.N,HVB*%
X120300000Y-85800001D02*
X120300000Y-84100001D01*
X119500000Y-87000001D02*
X120300000Y-85800001D01*
X120300000Y-84100001D02*
X118800000Y-82500000D01*
%TD*%
%TA.AperFunction,Conductor*%
%TO.N,DCN*%
G36*
X111959191Y-76618907D02*
G01*
X111995155Y-76668407D01*
X112000000Y-76699000D01*
X112000000Y-85901000D01*
X111981093Y-85959191D01*
X111931593Y-85995155D01*
X111901000Y-86000000D01*
X101099000Y-86000000D01*
X101040809Y-85981093D01*
X101004845Y-85931593D01*
X101000000Y-85901000D01*
X101000000Y-76699000D01*
X101018907Y-76640809D01*
X101068407Y-76604845D01*
X101099000Y-76600000D01*
X111901000Y-76600000D01*
X111959191Y-76618907D01*
G37*
%TD.AperFunction*%
%TD*%
%TA.AperFunction,Conductor*%
%TO.N,SW*%
G36*
X94559191Y-112418907D02*
G01*
X94595155Y-112468407D01*
X94600000Y-112499000D01*
X94600000Y-122901000D01*
X94581093Y-122959191D01*
X94531593Y-122995155D01*
X94501000Y-123000000D01*
X83799000Y-123000000D01*
X83740809Y-122981093D01*
X83704845Y-122931593D01*
X83700000Y-122901000D01*
X83700000Y-112499000D01*
X83718907Y-112440809D01*
X83768407Y-112404845D01*
X83799000Y-112400000D01*
X94501000Y-112400000D01*
X94559191Y-112418907D01*
G37*
%TD.AperFunction*%
%TD*%
%TA.AperFunction,Conductor*%
%TO.N,DCP*%
G36*
X115959191Y-86618907D02*
G01*
X115995155Y-86668407D01*
X116000000Y-86699000D01*
X116000000Y-88901000D01*
X115981093Y-88959191D01*
X115931593Y-88995155D01*
X115901000Y-89000000D01*
X84099000Y-89000000D01*
X84040809Y-88981093D01*
X84004845Y-88931593D01*
X84000000Y-88901000D01*
X84000000Y-86699000D01*
X84018907Y-86640809D01*
X84068407Y-86604845D01*
X84099000Y-86600000D01*
X87999999Y-86600000D01*
X88000000Y-86600000D01*
X99000000Y-86600000D01*
X99000001Y-86600000D01*
X115901000Y-86600000D01*
X115959191Y-86618907D01*
G37*
%TD.AperFunction*%
%TD*%
%TA.AperFunction,Conductor*%
%TO.N,DCN*%
G36*
X87355692Y-109518907D02*
G01*
X87391656Y-109568407D01*
X87396501Y-109599000D01*
X87396501Y-110936355D01*
X87399512Y-110962322D01*
X87446400Y-111068511D01*
X87446401Y-111068512D01*
X87446402Y-111068514D01*
X87528486Y-111150598D01*
X87528487Y-111150598D01*
X87528488Y-111150599D01*
X87552798Y-111161333D01*
X87634680Y-111197488D01*
X87660643Y-111200500D01*
X88635356Y-111200499D01*
X88661320Y-111197488D01*
X88767514Y-111150598D01*
X88849598Y-111068514D01*
X88896488Y-110962320D01*
X88899500Y-110936357D01*
X88899500Y-109599000D01*
X88918407Y-109540809D01*
X88967907Y-109504845D01*
X88998500Y-109500000D01*
X89450501Y-109500000D01*
X89508692Y-109518907D01*
X89544656Y-109568407D01*
X89549501Y-109599000D01*
X89549501Y-110961150D01*
X89564904Y-111038592D01*
X89564905Y-111038594D01*
X89623581Y-111126411D01*
X89623586Y-111126416D01*
X89711407Y-111185095D01*
X89711406Y-111185095D01*
X89726811Y-111188159D01*
X89788853Y-111200500D01*
X90361146Y-111200499D01*
X90438593Y-111185095D01*
X90490222Y-111150598D01*
X90526411Y-111126418D01*
X90526411Y-111126417D01*
X90526415Y-111126415D01*
X90585095Y-111038593D01*
X90600500Y-110961147D01*
X90600500Y-109599000D01*
X90619407Y-109540809D01*
X90668907Y-109504845D01*
X90699500Y-109500000D01*
X91150501Y-109500000D01*
X91208692Y-109518907D01*
X91244656Y-109568407D01*
X91249501Y-109599000D01*
X91249501Y-110961150D01*
X91264904Y-111038592D01*
X91264905Y-111038594D01*
X91323581Y-111126411D01*
X91323586Y-111126416D01*
X91411407Y-111185095D01*
X91411406Y-111185095D01*
X91426811Y-111188159D01*
X91488853Y-111200500D01*
X92061146Y-111200499D01*
X92138593Y-111185095D01*
X92161809Y-111169582D01*
X92220695Y-111152974D01*
X92256798Y-111161333D01*
X92338680Y-111197488D01*
X92364643Y-111200500D01*
X93339356Y-111200499D01*
X93365320Y-111197488D01*
X93471514Y-111150598D01*
X93553598Y-111068514D01*
X93600488Y-110962320D01*
X93603500Y-110936357D01*
X93603500Y-110879500D01*
X93622407Y-110821309D01*
X93671907Y-110785345D01*
X93702500Y-110780500D01*
X94326882Y-110780500D01*
X94371826Y-110791289D01*
X94466874Y-110839719D01*
X94600000Y-110860804D01*
X94733126Y-110839719D01*
X94828173Y-110791289D01*
X94873118Y-110780500D01*
X94901000Y-110780500D01*
X94959191Y-110799407D01*
X94995155Y-110848907D01*
X95000000Y-110879500D01*
X95000000Y-111851000D01*
X94981093Y-111909191D01*
X94931593Y-111945155D01*
X94901000Y-111950000D01*
X86000000Y-111950000D01*
X86000000Y-109500000D01*
X87297501Y-109500000D01*
X87355692Y-109518907D01*
G37*
%TD.AperFunction*%
%TA.AperFunction,Conductor*%
G36*
X94959191Y-109518907D02*
G01*
X94995155Y-109568407D01*
X95000000Y-109599000D01*
X95000000Y-109980500D01*
X94981093Y-110038691D01*
X94931593Y-110074655D01*
X94901000Y-110079500D01*
X94873118Y-110079500D01*
X94828173Y-110068710D01*
X94733126Y-110020281D01*
X94600000Y-109999196D01*
X94466874Y-110020281D01*
X94466872Y-110020281D01*
X94371827Y-110068710D01*
X94326882Y-110079500D01*
X93702499Y-110079500D01*
X93644308Y-110060593D01*
X93608344Y-110011093D01*
X93603499Y-109980500D01*
X93603499Y-109923647D01*
X93603499Y-109923644D01*
X93600488Y-109897680D01*
X93553598Y-109791486D01*
X93471514Y-109709402D01*
X93471512Y-109709401D01*
X93471511Y-109709400D01*
X93426587Y-109689564D01*
X93380992Y-109648763D01*
X93368087Y-109588954D01*
X93392801Y-109532983D01*
X93445695Y-109502227D01*
X93466576Y-109500000D01*
X94901000Y-109500000D01*
X94959191Y-109518907D01*
G37*
%TD.AperFunction*%
%TD*%
%TA.AperFunction,Conductor*%
%TO.N,DCP*%
G36*
X115959191Y-93618907D02*
G01*
X115995155Y-93668407D01*
X116000000Y-93699000D01*
X116000000Y-96901000D01*
X115981093Y-96959191D01*
X115931593Y-96995155D01*
X115901000Y-97000000D01*
X84099000Y-97000000D01*
X84040809Y-96981093D01*
X84004845Y-96931593D01*
X84000000Y-96901000D01*
X84000000Y-93699000D01*
X84018907Y-93640809D01*
X84068407Y-93604845D01*
X84099000Y-93600000D01*
X115901000Y-93600000D01*
X115959191Y-93618907D01*
G37*
%TD.AperFunction*%
%TD*%
%TA.AperFunction,Conductor*%
%TO.N,SW*%
G36*
X87355692Y-105218907D02*
G01*
X87391656Y-105268407D01*
X87396501Y-105299000D01*
X87396501Y-106636355D01*
X87399512Y-106662322D01*
X87446400Y-106768511D01*
X87446401Y-106768512D01*
X87446402Y-106768514D01*
X87528486Y-106850598D01*
X87634680Y-106897488D01*
X87660643Y-106900500D01*
X88635356Y-106900499D01*
X88661320Y-106897488D01*
X88767514Y-106850598D01*
X88849598Y-106768514D01*
X88896488Y-106662320D01*
X88899500Y-106636357D01*
X88899500Y-105299000D01*
X88918407Y-105240809D01*
X88967907Y-105204845D01*
X88998500Y-105200000D01*
X89450501Y-105200000D01*
X89508692Y-105218907D01*
X89544656Y-105268407D01*
X89549501Y-105299000D01*
X89549501Y-106661150D01*
X89564904Y-106738592D01*
X89564905Y-106738594D01*
X89623581Y-106826411D01*
X89623586Y-106826416D01*
X89711407Y-106885095D01*
X89711406Y-106885095D01*
X89726811Y-106888159D01*
X89788853Y-106900500D01*
X90361146Y-106900499D01*
X90438593Y-106885095D01*
X90490222Y-106850598D01*
X90526411Y-106826418D01*
X90526411Y-106826417D01*
X90526415Y-106826415D01*
X90585095Y-106738593D01*
X90600500Y-106661147D01*
X90600500Y-105299000D01*
X90619407Y-105240809D01*
X90668907Y-105204845D01*
X90699500Y-105200000D01*
X91150501Y-105200000D01*
X91208692Y-105218907D01*
X91244656Y-105268407D01*
X91249501Y-105299000D01*
X91249501Y-106661150D01*
X91264904Y-106738592D01*
X91264905Y-106738594D01*
X91323581Y-106826411D01*
X91323586Y-106826416D01*
X91411407Y-106885095D01*
X91411406Y-106885095D01*
X91426811Y-106888159D01*
X91488853Y-106900500D01*
X92061146Y-106900499D01*
X92138593Y-106885095D01*
X92161809Y-106869582D01*
X92220695Y-106852974D01*
X92256798Y-106861333D01*
X92338680Y-106897488D01*
X92364643Y-106900500D01*
X93339356Y-106900499D01*
X93365320Y-106897488D01*
X93471514Y-106850598D01*
X93553598Y-106768514D01*
X93600488Y-106662320D01*
X93603500Y-106636357D01*
X93603500Y-106579500D01*
X93622407Y-106521309D01*
X93671907Y-106485345D01*
X93702500Y-106480500D01*
X94326882Y-106480500D01*
X94371826Y-106491289D01*
X94466874Y-106539719D01*
X94600000Y-106560804D01*
X94733126Y-106539719D01*
X94828173Y-106491289D01*
X94873118Y-106480500D01*
X94901000Y-106480500D01*
X94959191Y-106499407D01*
X94995155Y-106548907D01*
X95000000Y-106579500D01*
X95000000Y-108801000D01*
X94981093Y-108859191D01*
X94931593Y-108895155D01*
X94901000Y-108900000D01*
X93702500Y-108900000D01*
X93644309Y-108881093D01*
X93608345Y-108831593D01*
X93603500Y-108801000D01*
X93603499Y-107463647D01*
X93603499Y-107463644D01*
X93600488Y-107437680D01*
X93553598Y-107331486D01*
X93471514Y-107249402D01*
X93471512Y-107249401D01*
X93471511Y-107249400D01*
X93365319Y-107202511D01*
X93339360Y-107199500D01*
X92364647Y-107199500D01*
X92364644Y-107199501D01*
X92338677Y-107202512D01*
X92232488Y-107249400D01*
X92150400Y-107331488D01*
X92103511Y-107437679D01*
X92103511Y-107437680D01*
X92100500Y-107463636D01*
X92100500Y-107463642D01*
X92100501Y-108801000D01*
X92081594Y-108859191D01*
X92032094Y-108895155D01*
X92001501Y-108900000D01*
X91549499Y-108900000D01*
X91491308Y-108881093D01*
X91455344Y-108831593D01*
X91450499Y-108801000D01*
X91450499Y-107438856D01*
X91450498Y-107438849D01*
X91435095Y-107361407D01*
X91435094Y-107361405D01*
X91376418Y-107273588D01*
X91376413Y-107273583D01*
X91288592Y-107214904D01*
X91288593Y-107214904D01*
X91211147Y-107199500D01*
X90638856Y-107199500D01*
X90638849Y-107199501D01*
X90561407Y-107214904D01*
X90561405Y-107214905D01*
X90473588Y-107273581D01*
X90473583Y-107273586D01*
X90414904Y-107361407D01*
X90399500Y-107438850D01*
X90399500Y-108801000D01*
X90380593Y-108859191D01*
X90331093Y-108895155D01*
X90300500Y-108900000D01*
X89849499Y-108900000D01*
X89791308Y-108881093D01*
X89755344Y-108831593D01*
X89750499Y-108801000D01*
X89750499Y-107438856D01*
X89750498Y-107438849D01*
X89735095Y-107361407D01*
X89735094Y-107361405D01*
X89676418Y-107273588D01*
X89676413Y-107273583D01*
X89588592Y-107214904D01*
X89588593Y-107214904D01*
X89511147Y-107199500D01*
X88938856Y-107199500D01*
X88938849Y-107199501D01*
X88861407Y-107214904D01*
X88861405Y-107214905D01*
X88773588Y-107273581D01*
X88773583Y-107273586D01*
X88714904Y-107361407D01*
X88699500Y-107438850D01*
X88699500Y-108801000D01*
X88680593Y-108859191D01*
X88631093Y-108895155D01*
X88600500Y-108900000D01*
X86099000Y-108900000D01*
X86040809Y-108881093D01*
X86004845Y-108831593D01*
X86000000Y-108801000D01*
X86000000Y-105299000D01*
X86018907Y-105240809D01*
X86068407Y-105204845D01*
X86099000Y-105200000D01*
X87297501Y-105200000D01*
X87355692Y-105218907D01*
G37*
%TD.AperFunction*%
%TA.AperFunction,Conductor*%
G36*
X94959191Y-105218907D02*
G01*
X94995155Y-105268407D01*
X95000000Y-105299000D01*
X95000000Y-105680500D01*
X94981093Y-105738691D01*
X94931593Y-105774655D01*
X94901000Y-105779500D01*
X94873118Y-105779500D01*
X94828173Y-105768710D01*
X94733126Y-105720281D01*
X94600000Y-105699196D01*
X94466874Y-105720281D01*
X94466872Y-105720281D01*
X94371827Y-105768710D01*
X94326882Y-105779500D01*
X93702499Y-105779500D01*
X93644308Y-105760593D01*
X93608344Y-105711093D01*
X93603499Y-105680500D01*
X93603499Y-105623647D01*
X93603499Y-105623644D01*
X93600488Y-105597680D01*
X93553598Y-105491486D01*
X93471514Y-105409402D01*
X93471512Y-105409401D01*
X93471511Y-105409400D01*
X93426587Y-105389564D01*
X93380992Y-105348763D01*
X93368087Y-105288954D01*
X93392801Y-105232983D01*
X93445695Y-105202227D01*
X93466576Y-105200000D01*
X94901000Y-105200000D01*
X94959191Y-105218907D01*
G37*
%TD.AperFunction*%
%TD*%
%TA.AperFunction,Conductor*%
%TO.N,DCN*%
G36*
X115959191Y-89618907D02*
G01*
X115995155Y-89668407D01*
X116000000Y-89699000D01*
X116000000Y-92901000D01*
X115981093Y-92959191D01*
X115931593Y-92995155D01*
X115901000Y-93000000D01*
X84099000Y-93000000D01*
X84040809Y-92981093D01*
X84004845Y-92931593D01*
X84000000Y-92901000D01*
X84000000Y-89699000D01*
X84018907Y-89640809D01*
X84068407Y-89604845D01*
X84099000Y-89600000D01*
X115901000Y-89600000D01*
X115959191Y-89618907D01*
G37*
%TD.AperFunction*%
%TD*%
%TA.AperFunction,Conductor*%
%TO.N,DCP*%
G36*
X113959191Y-101518907D02*
G01*
X113995155Y-101568407D01*
X114000000Y-101599000D01*
X114000000Y-104501000D01*
X113981093Y-104559191D01*
X113931593Y-104595155D01*
X113901000Y-104600000D01*
X111399499Y-104600000D01*
X111341308Y-104581093D01*
X111305344Y-104531593D01*
X111300499Y-104501000D01*
X111300499Y-103138856D01*
X111300498Y-103138849D01*
X111285095Y-103061407D01*
X111285094Y-103061405D01*
X111226418Y-102973588D01*
X111226413Y-102973583D01*
X111138592Y-102914904D01*
X111138593Y-102914904D01*
X111061147Y-102899500D01*
X110488856Y-102899500D01*
X110488849Y-102899501D01*
X110411407Y-102914904D01*
X110411405Y-102914905D01*
X110323588Y-102973581D01*
X110323583Y-102973586D01*
X110264904Y-103061407D01*
X110249500Y-103138850D01*
X110249500Y-104501000D01*
X110230593Y-104559191D01*
X110181093Y-104595155D01*
X110150500Y-104600000D01*
X109699499Y-104600000D01*
X109641308Y-104581093D01*
X109605344Y-104531593D01*
X109600499Y-104501000D01*
X109600499Y-103138856D01*
X109600498Y-103138849D01*
X109585095Y-103061407D01*
X109585094Y-103061405D01*
X109526418Y-102973588D01*
X109526413Y-102973583D01*
X109438592Y-102914904D01*
X109438593Y-102914904D01*
X109361147Y-102899500D01*
X108788856Y-102899500D01*
X108788849Y-102899501D01*
X108711407Y-102914904D01*
X108711405Y-102914905D01*
X108623588Y-102973581D01*
X108623583Y-102973586D01*
X108564904Y-103061407D01*
X108549500Y-103138850D01*
X108549500Y-104501000D01*
X108530593Y-104559191D01*
X108481093Y-104595155D01*
X108450500Y-104600000D01*
X107998499Y-104600000D01*
X107940308Y-104581093D01*
X107904344Y-104531593D01*
X107900363Y-104506460D01*
X107899664Y-104506501D01*
X107899499Y-104503661D01*
X107899499Y-104503644D01*
X107896488Y-104477680D01*
X107853351Y-104379987D01*
X107847143Y-104319119D01*
X107853348Y-104300020D01*
X107896488Y-104202320D01*
X107899500Y-104176357D01*
X107899499Y-103163644D01*
X107896488Y-103137680D01*
X107849598Y-103031486D01*
X107767514Y-102949402D01*
X107767512Y-102949401D01*
X107767511Y-102949400D01*
X107661319Y-102902511D01*
X107635360Y-102899500D01*
X106660647Y-102899500D01*
X106660644Y-102899501D01*
X106634677Y-102902512D01*
X106528488Y-102949400D01*
X106446400Y-103031488D01*
X106399511Y-103137679D01*
X106399511Y-103137680D01*
X106396500Y-103163636D01*
X106396500Y-103220500D01*
X106377593Y-103278691D01*
X106328093Y-103314655D01*
X106297500Y-103319500D01*
X105673118Y-103319500D01*
X105628173Y-103308710D01*
X105533126Y-103260281D01*
X105400000Y-103239196D01*
X105266874Y-103260281D01*
X105266872Y-103260281D01*
X105171827Y-103308710D01*
X105126882Y-103319500D01*
X105099000Y-103319500D01*
X105040809Y-103300593D01*
X105004845Y-103251093D01*
X105000000Y-103220500D01*
X105000000Y-101599000D01*
X105018907Y-101540809D01*
X105068407Y-101504845D01*
X105099000Y-101500000D01*
X113901000Y-101500000D01*
X113959191Y-101518907D01*
G37*
%TD.AperFunction*%
%TD*%
%TA.AperFunction,Conductor*%
%TO.N,DCN*%
G36*
X115959191Y-97618907D02*
G01*
X115995155Y-97668407D01*
X116000000Y-97699000D01*
X116000000Y-100801000D01*
X115981093Y-100859191D01*
X115931593Y-100895155D01*
X115901000Y-100900000D01*
X84099000Y-100900000D01*
X84040809Y-100881093D01*
X84004845Y-100831593D01*
X84000000Y-100801000D01*
X84000000Y-97699000D01*
X84018907Y-97640809D01*
X84068407Y-97604845D01*
X84099000Y-97600000D01*
X115901000Y-97600000D01*
X115959191Y-97618907D01*
G37*
%TD.AperFunction*%
%TD*%
%TA.AperFunction,Conductor*%
%TO.N,DCN*%
G36*
X86000000Y-111950000D02*
G01*
X84099000Y-111950000D01*
X84040809Y-111931093D01*
X84004845Y-111881593D01*
X84000000Y-111851000D01*
X84000000Y-109599000D01*
X84018907Y-109540809D01*
X84068407Y-109504845D01*
X84099000Y-109500000D01*
X86000000Y-109500000D01*
X86000000Y-111950000D01*
G37*
%TD.AperFunction*%
%TD*%
%TA.AperFunction,Conductor*%
%TO.N,DCN*%
G36*
X115959191Y-109518907D02*
G01*
X115995155Y-109568407D01*
X116000000Y-109599000D01*
X116000000Y-111851000D01*
X115981093Y-111909191D01*
X115931593Y-111945155D01*
X115901000Y-111950000D01*
X114000000Y-111950000D01*
X114000000Y-109500000D01*
X115901000Y-109500000D01*
X115959191Y-109518907D01*
G37*
%TD.AperFunction*%
%TD*%
%TA.AperFunction,Conductor*%
%TO.N,DCN*%
G36*
X107658692Y-109518907D02*
G01*
X107694656Y-109568407D01*
X107699501Y-109599000D01*
X107699501Y-110961150D01*
X107714904Y-111038592D01*
X107714905Y-111038594D01*
X107773581Y-111126411D01*
X107773586Y-111126416D01*
X107861407Y-111185095D01*
X107861406Y-111185095D01*
X107876811Y-111188159D01*
X107938853Y-111200500D01*
X108511146Y-111200499D01*
X108588593Y-111185095D01*
X108676415Y-111126415D01*
X108735095Y-111038593D01*
X108750500Y-110961147D01*
X108750500Y-109599000D01*
X108769407Y-109540809D01*
X108818907Y-109504845D01*
X108849500Y-109500000D01*
X109300501Y-109500000D01*
X109358692Y-109518907D01*
X109394656Y-109568407D01*
X109399501Y-109599000D01*
X109399501Y-110961150D01*
X109414904Y-111038592D01*
X109414905Y-111038594D01*
X109473581Y-111126411D01*
X109473586Y-111126416D01*
X109561407Y-111185095D01*
X109561406Y-111185095D01*
X109576811Y-111188159D01*
X109638853Y-111200500D01*
X110211146Y-111200499D01*
X110288593Y-111185095D01*
X110376415Y-111126415D01*
X110435095Y-111038593D01*
X110450500Y-110961147D01*
X110450500Y-109599000D01*
X110469407Y-109540809D01*
X110518907Y-109504845D01*
X110549500Y-109500000D01*
X111001501Y-109500000D01*
X111059692Y-109518907D01*
X111095656Y-109568407D01*
X111100501Y-109599000D01*
X111100501Y-110936355D01*
X111103512Y-110962322D01*
X111150400Y-111068511D01*
X111150401Y-111068512D01*
X111150402Y-111068514D01*
X111232486Y-111150598D01*
X111338680Y-111197488D01*
X111364643Y-111200500D01*
X112339356Y-111200499D01*
X112365320Y-111197488D01*
X112471514Y-111150598D01*
X112553598Y-111068514D01*
X112600488Y-110962320D01*
X112603500Y-110936357D01*
X112603500Y-109599000D01*
X112622407Y-109540809D01*
X112671907Y-109504845D01*
X112702500Y-109500000D01*
X114000000Y-109500000D01*
X114000000Y-111950000D01*
X105099000Y-111950000D01*
X105040809Y-111931093D01*
X105004845Y-111881593D01*
X105000000Y-111851000D01*
X105000000Y-109599000D01*
X105018907Y-109540809D01*
X105068407Y-109504845D01*
X105099000Y-109500000D01*
X107600501Y-109500000D01*
X107658692Y-109518907D01*
G37*
%TD.AperFunction*%
%TD*%
%TA.AperFunction,Conductor*%
%TO.N,GNDI*%
G36*
X106067518Y-156690740D02*
G01*
X106089722Y-156721301D01*
X106135935Y-156820404D01*
X106219596Y-156904065D01*
X106219597Y-156904065D01*
X106219598Y-156904066D01*
X106326824Y-156954067D01*
X106326825Y-156954067D01*
X106326827Y-156954068D01*
X106375684Y-156960500D01*
X106571833Y-156960500D01*
X106630024Y-156979407D01*
X106631233Y-156980300D01*
X106656833Y-156999500D01*
X106894834Y-157178000D01*
X106898616Y-157180836D01*
X106933136Y-157228729D01*
X106969420Y-157337581D01*
X106974500Y-157368888D01*
X106974500Y-157675500D01*
X106955593Y-157733691D01*
X106906093Y-157769655D01*
X106875500Y-157774500D01*
X103630654Y-157774500D01*
X103572463Y-157755593D01*
X103536499Y-157706093D01*
X103535917Y-157704237D01*
X103515232Y-157636046D01*
X103417685Y-157453550D01*
X103337540Y-157355893D01*
X103286414Y-157293595D01*
X103286410Y-157293590D01*
X103286404Y-157293585D01*
X103189366Y-157213948D01*
X103156379Y-157162417D01*
X103159981Y-157101337D01*
X103198796Y-157054040D01*
X103247225Y-157038544D01*
X103450787Y-157028367D01*
X103461176Y-157028679D01*
X103463670Y-157028518D01*
X103463674Y-157028519D01*
X103517928Y-157025019D01*
X103519219Y-157024945D01*
X103544694Y-157023672D01*
X103544703Y-157023669D01*
X103546244Y-157023457D01*
X103553424Y-157022729D01*
X103578224Y-157021131D01*
X103593943Y-157014233D01*
X103611677Y-157008376D01*
X103628414Y-157004555D01*
X103649308Y-156991057D01*
X103655481Y-156987382D01*
X103656853Y-156986630D01*
X103656862Y-156986627D01*
X103678036Y-156972510D01*
X103679167Y-156971767D01*
X103724833Y-156942269D01*
X103724833Y-156942267D01*
X103726928Y-156940915D01*
X103735090Y-156934474D01*
X103873611Y-156842126D01*
X103928526Y-156825500D01*
X104900023Y-156825500D01*
X104958214Y-156844407D01*
X104970026Y-156854496D01*
X105019595Y-156904064D01*
X105019598Y-156904066D01*
X105126824Y-156954067D01*
X105126825Y-156954067D01*
X105126827Y-156954068D01*
X105175684Y-156960500D01*
X105175685Y-156960500D01*
X105624314Y-156960500D01*
X105624316Y-156960500D01*
X105673173Y-156954068D01*
X105780404Y-156904065D01*
X105864065Y-156820404D01*
X105910276Y-156721302D01*
X105952004Y-156676557D01*
X106012065Y-156664882D01*
X106067518Y-156690740D01*
G37*
%TD.AperFunction*%
%TA.AperFunction,Conductor*%
G36*
X86232088Y-153518907D02*
G01*
X86268052Y-153568407D01*
X86272804Y-153594700D01*
X86301246Y-154248884D01*
X86301247Y-154248890D01*
X86312824Y-154305845D01*
X86314086Y-154337497D01*
X86295679Y-154489094D01*
X86294355Y-154500000D01*
X86314860Y-154668872D01*
X86375182Y-154827930D01*
X86471817Y-154967929D01*
X86599148Y-155080734D01*
X86749775Y-155159790D01*
X86914944Y-155200500D01*
X86914947Y-155200500D01*
X87085053Y-155200500D01*
X87085056Y-155200500D01*
X87250225Y-155159790D01*
X87400852Y-155080734D01*
X87528183Y-154967929D01*
X87545209Y-154943263D01*
X87593825Y-154906113D01*
X87626685Y-154900500D01*
X90050501Y-154900500D01*
X90108692Y-154919407D01*
X90144656Y-154968907D01*
X90149501Y-154999500D01*
X90149501Y-155329274D01*
X90152354Y-155359694D01*
X90152356Y-155359703D01*
X90197208Y-155487883D01*
X90277846Y-155597144D01*
X90277848Y-155597146D01*
X90277851Y-155597150D01*
X90277854Y-155597152D01*
X90277856Y-155597154D01*
X90387117Y-155677792D01*
X90387118Y-155677792D01*
X90387119Y-155677793D01*
X90515302Y-155722646D01*
X90545726Y-155725499D01*
X90545728Y-155725500D01*
X90545735Y-155725500D01*
X90888872Y-155725500D01*
X90947063Y-155744407D01*
X90969574Y-155767158D01*
X91324602Y-156266827D01*
X93198229Y-158903786D01*
X93216520Y-158962173D01*
X93197000Y-159020161D01*
X93147122Y-159055599D01*
X93085940Y-159054953D01*
X93047524Y-159031132D01*
X93013342Y-158996950D01*
X92900304Y-158939354D01*
X92900305Y-158939354D01*
X92806522Y-158924500D01*
X92343479Y-158924500D01*
X92343476Y-158924501D01*
X92249700Y-158939352D01*
X92249695Y-158939354D01*
X92136659Y-158996949D01*
X92046949Y-159086659D01*
X91989354Y-159199693D01*
X91987276Y-159206092D01*
X91951313Y-159255592D01*
X91893122Y-159274500D01*
X91501998Y-159274500D01*
X91443807Y-159255593D01*
X91416487Y-159217995D01*
X91413489Y-159219523D01*
X91372503Y-159139085D01*
X91349658Y-159094249D01*
X91255751Y-159000342D01*
X91192734Y-158968233D01*
X91137423Y-158940050D01*
X91137420Y-158940049D01*
X91112876Y-158936161D01*
X91039249Y-158924500D01*
X91039246Y-158924500D01*
X90535754Y-158924500D01*
X90535751Y-158924500D01*
X90437580Y-158940049D01*
X90437576Y-158940050D01*
X90319250Y-159000341D01*
X90225341Y-159094250D01*
X90165050Y-159212576D01*
X90165049Y-159212580D01*
X90149500Y-159310751D01*
X90149500Y-159889248D01*
X90165049Y-159987419D01*
X90165050Y-159987423D01*
X90223243Y-160101631D01*
X90225342Y-160105751D01*
X90319249Y-160199658D01*
X90437580Y-160259951D01*
X90504130Y-160270491D01*
X90535751Y-160275500D01*
X90535754Y-160275500D01*
X91039249Y-160275500D01*
X91067803Y-160270976D01*
X91137420Y-160259951D01*
X91255751Y-160199658D01*
X91349658Y-160105751D01*
X91406646Y-159993907D01*
X91413489Y-159980477D01*
X91416488Y-159982005D01*
X91443815Y-159944402D01*
X91501998Y-159925500D01*
X91893121Y-159925500D01*
X91951312Y-159944407D01*
X91987276Y-159993907D01*
X91987276Y-159993908D01*
X91989354Y-160000306D01*
X92043081Y-160105749D01*
X92046950Y-160113342D01*
X92136658Y-160203050D01*
X92249696Y-160260646D01*
X92343481Y-160275500D01*
X92806518Y-160275499D01*
X92806520Y-160275499D01*
X92806521Y-160275498D01*
X92853411Y-160268072D01*
X92900299Y-160260647D01*
X92900299Y-160260646D01*
X92900304Y-160260646D01*
X93013342Y-160203050D01*
X93103050Y-160113342D01*
X93160646Y-160000304D01*
X93175500Y-159906519D01*
X93175499Y-159293482D01*
X93172493Y-159274500D01*
X93160647Y-159199700D01*
X93160647Y-159199698D01*
X93160644Y-159199693D01*
X93144813Y-159168623D01*
X93135242Y-159108194D01*
X93163018Y-159053677D01*
X93217534Y-159025898D01*
X93277966Y-159035469D01*
X93313726Y-159066337D01*
X93591775Y-159457665D01*
X93596237Y-159462222D01*
X93623439Y-159517028D01*
X93624500Y-159531484D01*
X93624500Y-159906520D01*
X93624501Y-159906523D01*
X93639352Y-160000299D01*
X93639354Y-160000304D01*
X93696950Y-160113342D01*
X93786658Y-160203050D01*
X93899696Y-160260646D01*
X93993481Y-160275500D01*
X94456518Y-160275499D01*
X94456520Y-160275499D01*
X94456521Y-160275498D01*
X94503411Y-160268072D01*
X94550299Y-160260647D01*
X94550299Y-160260646D01*
X94550304Y-160260646D01*
X94663342Y-160203050D01*
X94753050Y-160113342D01*
X94810646Y-160000304D01*
X94825500Y-159906519D01*
X94825499Y-159801969D01*
X94844406Y-159743780D01*
X94893905Y-159707816D01*
X94898437Y-159706461D01*
X96835787Y-159178095D01*
X96922359Y-159139088D01*
X96928044Y-159133922D01*
X96947527Y-159116224D01*
X97003311Y-159091089D01*
X97014097Y-159090500D01*
X98329747Y-159090500D01*
X98329748Y-159090500D01*
X98388231Y-159078867D01*
X98454552Y-159034552D01*
X98498867Y-158968231D01*
X98510500Y-158909748D01*
X98510500Y-158040003D01*
X98944417Y-158040003D01*
X98964698Y-158245929D01*
X98964699Y-158245934D01*
X99024768Y-158443954D01*
X99122316Y-158626452D01*
X99253585Y-158786404D01*
X99253590Y-158786410D01*
X99253595Y-158786414D01*
X99413547Y-158917683D01*
X99413548Y-158917683D01*
X99413550Y-158917685D01*
X99596046Y-159015232D01*
X99722784Y-159053677D01*
X99794065Y-159075300D01*
X99794070Y-159075301D01*
X99999997Y-159095583D01*
X100000000Y-159095583D01*
X100000003Y-159095583D01*
X100205929Y-159075301D01*
X100205934Y-159075300D01*
X100235481Y-159066337D01*
X100403954Y-159015232D01*
X100586450Y-158917685D01*
X100746410Y-158786410D01*
X100877685Y-158626450D01*
X100975232Y-158443954D01*
X101035300Y-158245934D01*
X101035301Y-158245929D01*
X101055583Y-158040003D01*
X101055583Y-158039996D01*
X101035301Y-157834070D01*
X101035300Y-157834069D01*
X101035300Y-157834066D01*
X101011171Y-157754523D01*
X101012372Y-157693352D01*
X101039679Y-157652202D01*
X101605627Y-157142849D01*
X101661528Y-157117976D01*
X101666897Y-157117560D01*
X101730478Y-157114381D01*
X101789538Y-157130358D01*
X101827929Y-157178000D01*
X101830985Y-157239109D01*
X101798232Y-157289780D01*
X101793594Y-157293586D01*
X101793585Y-157293595D01*
X101662316Y-157453547D01*
X101564768Y-157636045D01*
X101504699Y-157834065D01*
X101504698Y-157834070D01*
X101484417Y-158039996D01*
X101484417Y-158040003D01*
X101504698Y-158245929D01*
X101504699Y-158245934D01*
X101564768Y-158443954D01*
X101662316Y-158626452D01*
X101793585Y-158786404D01*
X101793590Y-158786410D01*
X101793595Y-158786414D01*
X101953547Y-158917683D01*
X101953548Y-158917683D01*
X101953550Y-158917685D01*
X102136046Y-159015232D01*
X102262784Y-159053677D01*
X102334065Y-159075300D01*
X102334070Y-159075301D01*
X102539997Y-159095583D01*
X102540000Y-159095583D01*
X102540003Y-159095583D01*
X102745929Y-159075301D01*
X102745934Y-159075300D01*
X102775481Y-159066337D01*
X102943954Y-159015232D01*
X103126450Y-158917685D01*
X103286410Y-158786410D01*
X103417685Y-158626450D01*
X103497124Y-158477830D01*
X103541230Y-158435425D01*
X103584434Y-158425500D01*
X106957012Y-158425500D01*
X106976859Y-158427509D01*
X106990973Y-158430398D01*
X107016780Y-158426570D01*
X107024187Y-158426024D01*
X107024175Y-158425876D01*
X107028468Y-158425500D01*
X107028475Y-158425500D01*
X107050859Y-158421553D01*
X107053446Y-158421133D01*
X107075918Y-158417801D01*
X107075933Y-158417795D01*
X107080125Y-158416795D01*
X107080160Y-158416942D01*
X107087357Y-158415116D01*
X107113045Y-158410588D01*
X107125520Y-158403385D01*
X107143707Y-158395204D01*
X107340777Y-158329514D01*
X107354886Y-158325941D01*
X107357386Y-158325500D01*
X107357394Y-158325500D01*
X107405963Y-158307821D01*
X107408387Y-158306977D01*
X107429946Y-158299792D01*
X107429952Y-158299788D01*
X107433923Y-158298068D01*
X107433982Y-158298205D01*
X107440748Y-158295161D01*
X107465260Y-158286240D01*
X107476299Y-158276976D01*
X107492790Y-158265762D01*
X107505461Y-158258902D01*
X107522771Y-158239379D01*
X107533210Y-158229222D01*
X107553194Y-158212455D01*
X107560397Y-158199976D01*
X107572058Y-158183798D01*
X107581620Y-158173017D01*
X107591214Y-158148739D01*
X107597537Y-158135648D01*
X107610588Y-158113045D01*
X107613089Y-158098861D01*
X107618516Y-158079661D01*
X107623811Y-158066263D01*
X107624330Y-158047257D01*
X107624523Y-158040173D01*
X107625273Y-158032790D01*
X107625123Y-158032777D01*
X107625500Y-158028470D01*
X107625500Y-158005792D01*
X107625537Y-158003087D01*
X107626946Y-157951517D01*
X107626570Y-157948979D01*
X107625500Y-157934461D01*
X107625500Y-157342989D01*
X107627510Y-157323140D01*
X107630398Y-157309027D01*
X107626571Y-157283221D01*
X107626025Y-157275822D01*
X107625877Y-157275835D01*
X107625500Y-157271537D01*
X107625500Y-157271525D01*
X107621547Y-157249115D01*
X107621137Y-157246588D01*
X107617801Y-157224082D01*
X107617800Y-157224080D01*
X107617800Y-157224077D01*
X107616796Y-157219875D01*
X107616941Y-157219840D01*
X107615117Y-157212644D01*
X107610588Y-157186955D01*
X107603383Y-157174476D01*
X107595203Y-157156288D01*
X107526830Y-156951170D01*
X107521899Y-156925266D01*
X107521880Y-156924918D01*
X107506175Y-156888151D01*
X107503298Y-156880570D01*
X107499794Y-156870059D01*
X107499789Y-156870049D01*
X107495597Y-156862307D01*
X107491609Y-156854051D01*
X107476789Y-156819357D01*
X107476789Y-156819356D01*
X107474975Y-156817420D01*
X107460166Y-156796874D01*
X107458901Y-156794539D01*
X107458900Y-156794538D01*
X107430673Y-156769507D01*
X107424106Y-156763118D01*
X107422266Y-156761154D01*
X107418080Y-156756685D01*
X107409211Y-156750033D01*
X107402945Y-156744919D01*
X107373017Y-156718381D01*
X107373015Y-156718380D01*
X107373012Y-156718378D01*
X107372679Y-156718247D01*
X107349672Y-156705379D01*
X107160100Y-156563200D01*
X107124892Y-156513160D01*
X107120500Y-156484000D01*
X107120500Y-156315685D01*
X107117021Y-156289259D01*
X107114068Y-156266827D01*
X107110275Y-156258694D01*
X107064066Y-156159598D01*
X107064065Y-156159597D01*
X107064065Y-156159596D01*
X106980404Y-156075935D01*
X106980402Y-156075934D01*
X106980401Y-156075933D01*
X106873175Y-156025932D01*
X106840601Y-156021644D01*
X106824316Y-156019500D01*
X106375684Y-156019500D01*
X106359398Y-156021644D01*
X106326825Y-156025932D01*
X106326824Y-156025932D01*
X106219598Y-156075933D01*
X106135933Y-156159598D01*
X106089724Y-156258694D01*
X106047996Y-156303442D01*
X105987935Y-156315117D01*
X105932482Y-156289259D01*
X105910276Y-156258694D01*
X105864066Y-156159598D01*
X105864065Y-156159597D01*
X105864065Y-156159596D01*
X105780404Y-156075935D01*
X105780402Y-156075934D01*
X105780401Y-156075933D01*
X105673175Y-156025932D01*
X105640601Y-156021644D01*
X105624316Y-156019500D01*
X105175684Y-156019500D01*
X105159398Y-156021644D01*
X105126825Y-156025932D01*
X105126824Y-156025932D01*
X105019598Y-156075933D01*
X105019596Y-156075934D01*
X105019596Y-156075935D01*
X104950025Y-156145505D01*
X104895511Y-156173281D01*
X104880024Y-156174500D01*
X103860831Y-156174500D01*
X103844958Y-156172225D01*
X103844936Y-156172433D01*
X103836328Y-156171481D01*
X103836326Y-156171481D01*
X103801205Y-156173746D01*
X103792695Y-156174295D01*
X103786324Y-156174500D01*
X103771525Y-156174500D01*
X103767007Y-156175296D01*
X103766515Y-156175383D01*
X103755714Y-156176678D01*
X103721782Y-156178867D01*
X103721767Y-156178871D01*
X103715866Y-156181460D01*
X103693300Y-156188292D01*
X103686961Y-156189410D01*
X103686955Y-156189411D01*
X103686955Y-156189412D01*
X103686954Y-156189412D01*
X103686950Y-156189414D01*
X103657502Y-156206415D01*
X103647789Y-156211332D01*
X103643134Y-156213374D01*
X103630817Y-156221585D01*
X103625409Y-156224944D01*
X103587544Y-156246805D01*
X103580913Y-156252370D01*
X103580779Y-156252211D01*
X103568832Y-156262909D01*
X103468640Y-156329704D01*
X103409734Y-156346251D01*
X103352353Y-156325013D01*
X103318413Y-156274104D01*
X103320879Y-156212968D01*
X103337194Y-156184528D01*
X103417685Y-156086450D01*
X103515232Y-155903954D01*
X103575300Y-155705934D01*
X103575301Y-155705929D01*
X103595583Y-155500003D01*
X103595583Y-155499996D01*
X103575301Y-155294070D01*
X103575300Y-155294065D01*
X103534568Y-155159790D01*
X103515232Y-155096046D01*
X103417685Y-154913550D01*
X103406975Y-154900500D01*
X103286414Y-154753595D01*
X103286410Y-154753590D01*
X103257974Y-154730253D01*
X103126452Y-154622316D01*
X102943954Y-154524768D01*
X102745934Y-154464699D01*
X102745929Y-154464698D01*
X102540003Y-154444417D01*
X102539997Y-154444417D01*
X102334070Y-154464698D01*
X102334065Y-154464699D01*
X102136045Y-154524768D01*
X101953547Y-154622316D01*
X101793595Y-154753585D01*
X101793585Y-154753595D01*
X101662316Y-154913547D01*
X101564768Y-155096045D01*
X101504699Y-155294065D01*
X101504698Y-155294070D01*
X101484417Y-155499996D01*
X101484417Y-155500003D01*
X101504698Y-155705929D01*
X101504699Y-155705934D01*
X101564768Y-155903954D01*
X101662316Y-156086452D01*
X101746813Y-156189412D01*
X101793590Y-156246410D01*
X101827335Y-156274104D01*
X101840096Y-156284576D01*
X101873083Y-156336107D01*
X101869481Y-156397186D01*
X101830666Y-156444483D01*
X101782235Y-156459980D01*
X101524100Y-156472887D01*
X101505360Y-156472045D01*
X101488537Y-156469677D01*
X101464252Y-156474833D01*
X101457267Y-156476056D01*
X101455318Y-156476325D01*
X101446039Y-156478443D01*
X101430669Y-156481952D01*
X101429252Y-156482265D01*
X101376049Y-156493562D01*
X101374608Y-156494170D01*
X101373207Y-156494748D01*
X101371759Y-156495332D01*
X101326110Y-156524820D01*
X101324842Y-156525626D01*
X101303412Y-156539011D01*
X101301848Y-156540190D01*
X101296029Y-156544252D01*
X101275166Y-156557731D01*
X101275165Y-156557731D01*
X101275165Y-156557732D01*
X101275159Y-156557737D01*
X101264906Y-156571276D01*
X101252215Y-156585090D01*
X100653394Y-157124029D01*
X100597492Y-157148903D01*
X100540498Y-157137753D01*
X100403954Y-157064768D01*
X100372653Y-157055273D01*
X100205934Y-157004699D01*
X100205929Y-157004698D01*
X100000003Y-156984417D01*
X99999997Y-156984417D01*
X99794070Y-157004698D01*
X99794065Y-157004699D01*
X99596045Y-157064768D01*
X99413547Y-157162316D01*
X99253595Y-157293585D01*
X99253585Y-157293595D01*
X99122316Y-157453547D01*
X99024768Y-157636045D01*
X98964699Y-157834065D01*
X98964698Y-157834070D01*
X98944417Y-158039996D01*
X98944417Y-158040003D01*
X98510500Y-158040003D01*
X98510500Y-157396901D01*
X98529407Y-157338710D01*
X98539496Y-157326897D01*
X98769262Y-157097131D01*
X99005484Y-156860909D01*
X99028051Y-156838342D01*
X99039003Y-156816843D01*
X99047116Y-156803605D01*
X99061297Y-156784090D01*
X99068749Y-156761154D01*
X99074696Y-156746796D01*
X99085646Y-156725306D01*
X99085646Y-156725305D01*
X99085647Y-156725304D01*
X99089420Y-156701473D01*
X99093048Y-156686366D01*
X99096236Y-156676557D01*
X99100500Y-156663434D01*
X99100500Y-156637598D01*
X99100501Y-156637581D01*
X99100501Y-154723028D01*
X99119408Y-154664837D01*
X99133410Y-154649320D01*
X100387138Y-153525287D01*
X100443087Y-153500520D01*
X100453225Y-153500000D01*
X106839657Y-153500000D01*
X106874127Y-153506195D01*
X107005900Y-153555139D01*
X107026342Y-153565569D01*
X107682271Y-154002855D01*
X108405414Y-154484950D01*
X108443344Y-154532960D01*
X108449499Y-154567323D01*
X108449499Y-155329274D01*
X108452352Y-155359694D01*
X108452354Y-155359703D01*
X108497206Y-155487883D01*
X108577844Y-155597144D01*
X108577846Y-155597146D01*
X108577849Y-155597150D01*
X108577852Y-155597152D01*
X108577854Y-155597154D01*
X108687115Y-155677792D01*
X108687116Y-155677792D01*
X108687117Y-155677793D01*
X108815300Y-155722646D01*
X108845724Y-155725499D01*
X108845726Y-155725500D01*
X108845733Y-155725500D01*
X109454272Y-155725500D01*
X109454272Y-155725499D01*
X109484698Y-155722646D01*
X109612881Y-155677793D01*
X109722149Y-155597150D01*
X109802792Y-155487882D01*
X109847645Y-155359699D01*
X109850498Y-155329273D01*
X109850499Y-155329273D01*
X109850499Y-155299500D01*
X109869406Y-155241309D01*
X109918906Y-155205345D01*
X109949499Y-155200500D01*
X111850500Y-155200500D01*
X111908691Y-155219407D01*
X111944655Y-155268907D01*
X111949500Y-155299500D01*
X111949500Y-156469746D01*
X111949501Y-156469758D01*
X111961132Y-156528227D01*
X111961134Y-156528233D01*
X112005445Y-156594548D01*
X112005448Y-156594552D01*
X112071769Y-156638867D01*
X112116231Y-156647711D01*
X112130241Y-156650498D01*
X112130246Y-156650498D01*
X112130252Y-156650500D01*
X112130253Y-156650500D01*
X113869747Y-156650500D01*
X113869748Y-156650500D01*
X113928231Y-156638867D01*
X113994552Y-156594552D01*
X114038867Y-156528231D01*
X114050500Y-156469748D01*
X114050500Y-154730252D01*
X114038867Y-154671769D01*
X113994552Y-154605448D01*
X113934342Y-154565216D01*
X113928233Y-154561134D01*
X113928231Y-154561133D01*
X113928228Y-154561132D01*
X113928227Y-154561132D01*
X113869758Y-154549501D01*
X113869748Y-154549500D01*
X113869747Y-154549500D01*
X112556900Y-154549500D01*
X112498709Y-154530593D01*
X112486897Y-154520504D01*
X112438343Y-154471951D01*
X112438342Y-154471950D01*
X112325304Y-154414354D01*
X112325305Y-154414354D01*
X112231522Y-154399500D01*
X112231519Y-154399500D01*
X109949499Y-154399500D01*
X109891308Y-154380593D01*
X109855344Y-154331093D01*
X109850499Y-154300500D01*
X109850499Y-154270727D01*
X109850498Y-154270725D01*
X109849648Y-154261658D01*
X109847645Y-154240301D01*
X109802792Y-154112118D01*
X109761919Y-154056737D01*
X109722153Y-154002855D01*
X109722150Y-154002852D01*
X109722149Y-154002850D01*
X109722145Y-154002847D01*
X109722143Y-154002845D01*
X109612882Y-153922207D01*
X109484702Y-153877355D01*
X109484693Y-153877353D01*
X109454273Y-153874500D01*
X109454265Y-153874500D01*
X108963736Y-153874500D01*
X108908821Y-153857873D01*
X108644071Y-153681373D01*
X108606141Y-153633363D01*
X108603675Y-153572227D01*
X108637614Y-153521318D01*
X108694996Y-153500080D01*
X108698986Y-153500000D01*
X120201000Y-153500000D01*
X120259191Y-153518907D01*
X120295155Y-153568407D01*
X120300000Y-153599000D01*
X120300000Y-158024146D01*
X120281093Y-158082337D01*
X120231593Y-158118301D01*
X120170407Y-158118301D01*
X120120907Y-158082337D01*
X120109536Y-158062032D01*
X120030467Y-157871143D01*
X120030464Y-157871137D01*
X119928187Y-157704237D01*
X119898836Y-157656341D01*
X119881503Y-157636047D01*
X119735232Y-157464785D01*
X119735229Y-157464782D01*
X119735224Y-157464776D01*
X119735217Y-157464770D01*
X119735214Y-157464767D01*
X119543664Y-157301168D01*
X119543656Y-157301162D01*
X119328862Y-157169535D01*
X119328856Y-157169532D01*
X119096112Y-157073127D01*
X119096113Y-157073127D01*
X118851146Y-157014316D01*
X118737306Y-157005357D01*
X118662882Y-156999500D01*
X118537118Y-156999500D01*
X118466671Y-157005044D01*
X118348853Y-157014316D01*
X118103886Y-157073127D01*
X117871143Y-157169532D01*
X117871137Y-157169535D01*
X117656343Y-157301162D01*
X117656335Y-157301168D01*
X117464785Y-157464767D01*
X117464767Y-157464785D01*
X117301168Y-157656335D01*
X117301162Y-157656343D01*
X117169535Y-157871137D01*
X117169532Y-157871143D01*
X117073127Y-158103886D01*
X117014316Y-158348853D01*
X116994551Y-158600000D01*
X117014316Y-158851146D01*
X117073127Y-159096113D01*
X117169532Y-159328856D01*
X117169535Y-159328862D01*
X117301162Y-159543656D01*
X117301168Y-159543664D01*
X117440207Y-159706458D01*
X117464776Y-159735224D01*
X117464782Y-159735229D01*
X117464785Y-159735232D01*
X117645115Y-159889248D01*
X117656341Y-159898836D01*
X117668885Y-159906523D01*
X117871137Y-160030464D01*
X117871141Y-160030466D01*
X118071217Y-160113340D01*
X118103887Y-160126872D01*
X118103889Y-160126873D01*
X118348852Y-160185683D01*
X118537118Y-160200500D01*
X118537125Y-160200500D01*
X118662875Y-160200500D01*
X118662882Y-160200500D01*
X118851148Y-160185683D01*
X119096111Y-160126873D01*
X119328859Y-160030466D01*
X119543659Y-159898836D01*
X119735224Y-159735224D01*
X119898836Y-159543659D01*
X120030466Y-159328859D01*
X120092914Y-159178095D01*
X120109536Y-159137967D01*
X120149273Y-159091442D01*
X120208767Y-159077158D01*
X120265295Y-159100573D01*
X120297265Y-159152742D01*
X120300000Y-159175853D01*
X120300000Y-160400500D01*
X120281093Y-160458691D01*
X120231593Y-160494655D01*
X120201000Y-160499500D01*
X79799000Y-160499500D01*
X79740809Y-160480593D01*
X79704845Y-160431093D01*
X79700000Y-160400500D01*
X79700000Y-159175853D01*
X79718907Y-159117662D01*
X79768407Y-159081698D01*
X79829593Y-159081698D01*
X79879093Y-159117662D01*
X79890464Y-159137967D01*
X79969532Y-159328856D01*
X79969535Y-159328862D01*
X80101162Y-159543656D01*
X80101168Y-159543664D01*
X80240207Y-159706458D01*
X80264776Y-159735224D01*
X80264782Y-159735229D01*
X80264785Y-159735232D01*
X80445115Y-159889248D01*
X80456341Y-159898836D01*
X80468885Y-159906523D01*
X80671137Y-160030464D01*
X80671141Y-160030466D01*
X80871217Y-160113340D01*
X80903887Y-160126872D01*
X80903889Y-160126873D01*
X81148852Y-160185683D01*
X81337118Y-160200500D01*
X81337125Y-160200500D01*
X81462875Y-160200500D01*
X81462882Y-160200500D01*
X81651148Y-160185683D01*
X81896111Y-160126873D01*
X82128859Y-160030466D01*
X82343659Y-159898836D01*
X82535224Y-159735224D01*
X82698836Y-159543659D01*
X82830466Y-159328859D01*
X82926873Y-159096111D01*
X82985683Y-158851148D01*
X83005449Y-158600000D01*
X82985683Y-158348852D01*
X82926873Y-158103889D01*
X82925024Y-158099426D01*
X82830467Y-157871143D01*
X82830464Y-157871137D01*
X82728187Y-157704237D01*
X82698836Y-157656341D01*
X82681503Y-157636047D01*
X82535232Y-157464785D01*
X82535229Y-157464782D01*
X82535224Y-157464776D01*
X82535217Y-157464770D01*
X82535214Y-157464767D01*
X82343664Y-157301168D01*
X82343656Y-157301162D01*
X82128862Y-157169535D01*
X82128856Y-157169532D01*
X81896112Y-157073127D01*
X81896113Y-157073127D01*
X81651146Y-157014316D01*
X81537306Y-157005357D01*
X81462882Y-156999500D01*
X81337118Y-156999500D01*
X81266671Y-157005044D01*
X81148853Y-157014316D01*
X80903886Y-157073127D01*
X80671143Y-157169532D01*
X80671137Y-157169535D01*
X80456343Y-157301162D01*
X80456335Y-157301168D01*
X80264785Y-157464767D01*
X80264767Y-157464785D01*
X80101168Y-157656335D01*
X80101162Y-157656343D01*
X79969535Y-157871137D01*
X79969532Y-157871143D01*
X79890464Y-158062032D01*
X79850727Y-158108557D01*
X79791233Y-158122841D01*
X79734705Y-158099426D01*
X79702735Y-158047257D01*
X79700000Y-158024146D01*
X79700000Y-153599000D01*
X79718907Y-153540809D01*
X79768407Y-153504845D01*
X79799000Y-153500000D01*
X86173897Y-153500000D01*
X86232088Y-153518907D01*
G37*
%TD.AperFunction*%
%TA.AperFunction,Conductor*%
G36*
X99014888Y-153518907D02*
G01*
X99050852Y-153568407D01*
X99050852Y-153629593D01*
X99022784Y-153672712D01*
X98481203Y-154158266D01*
X98467947Y-154167357D01*
X98467959Y-154167373D01*
X98461656Y-154171952D01*
X98426424Y-154207183D01*
X98422510Y-154210889D01*
X98409189Y-154222832D01*
X98409178Y-154222843D01*
X98405465Y-154227408D01*
X98398675Y-154234932D01*
X98371952Y-154261655D01*
X98371948Y-154261661D01*
X98367229Y-154270923D01*
X98355831Y-154288434D01*
X98349267Y-154296504D01*
X98349265Y-154296508D01*
X98335645Y-154331764D01*
X98331508Y-154341030D01*
X98314356Y-154374694D01*
X98314354Y-154374698D01*
X98312728Y-154384968D01*
X98307296Y-154405151D01*
X98303552Y-154414843D01*
X98303550Y-154414850D01*
X98301492Y-154452576D01*
X98300422Y-154462656D01*
X98299501Y-154468473D01*
X98299501Y-154486397D01*
X98299354Y-154491788D01*
X98296641Y-154541527D01*
X98297439Y-154549277D01*
X98297419Y-154549278D01*
X98299501Y-154565216D01*
X98299501Y-156393099D01*
X98280594Y-156451290D01*
X98270505Y-156463103D01*
X97773104Y-156960504D01*
X97718587Y-156988281D01*
X97703100Y-156989500D01*
X96590252Y-156989500D01*
X96590251Y-156989500D01*
X96590241Y-156989501D01*
X96531772Y-157001132D01*
X96531766Y-157001134D01*
X96465451Y-157045445D01*
X96465445Y-157045451D01*
X96421134Y-157111766D01*
X96421132Y-157111772D01*
X96409501Y-157170241D01*
X96409500Y-157170253D01*
X96409500Y-158388482D01*
X96390593Y-158446673D01*
X96341093Y-158482637D01*
X96336549Y-158483994D01*
X94627861Y-158950000D01*
X94566745Y-158947070D01*
X94556868Y-158942698D01*
X94550308Y-158939355D01*
X94550304Y-158939354D01*
X94519042Y-158934402D01*
X94456521Y-158924500D01*
X94456519Y-158924500D01*
X94246656Y-158924500D01*
X94188465Y-158905593D01*
X94165953Y-158882841D01*
X93854112Y-158443954D01*
X92838260Y-157014235D01*
X91568798Y-155227584D01*
X91550501Y-155170243D01*
X91550501Y-154270727D01*
X91550500Y-154270725D01*
X91549650Y-154261658D01*
X91547647Y-154240301D01*
X91502794Y-154112118D01*
X91461921Y-154056737D01*
X91422155Y-154002855D01*
X91422152Y-154002852D01*
X91422151Y-154002850D01*
X91422147Y-154002847D01*
X91422145Y-154002845D01*
X91312884Y-153922207D01*
X91184704Y-153877355D01*
X91184695Y-153877353D01*
X91154275Y-153874500D01*
X91154267Y-153874500D01*
X90545735Y-153874500D01*
X90545726Y-153874500D01*
X90515306Y-153877353D01*
X90515297Y-153877355D01*
X90387117Y-153922207D01*
X90277850Y-154002850D01*
X90277848Y-154002852D01*
X90236197Y-154059288D01*
X90186430Y-154094881D01*
X90156542Y-154099500D01*
X87626685Y-154099500D01*
X87568494Y-154080593D01*
X87545209Y-154056737D01*
X87528185Y-154032073D01*
X87495193Y-154002845D01*
X87400852Y-153919266D01*
X87250225Y-153840210D01*
X87250224Y-153840209D01*
X87250223Y-153840209D01*
X87155441Y-153816848D01*
X87103466Y-153784565D01*
X87080393Y-153727896D01*
X87080230Y-153725093D01*
X87074934Y-153603297D01*
X87091296Y-153544343D01*
X87139188Y-153506263D01*
X87173841Y-153500000D01*
X98956697Y-153500000D01*
X99014888Y-153518907D01*
G37*
%TD.AperFunction*%
%TD*%
%TA.AperFunction,Conductor*%
%TO.N,DCP*%
G36*
X94959191Y-101518907D02*
G01*
X94995155Y-101568407D01*
X95000000Y-101599000D01*
X95000000Y-104501000D01*
X94981093Y-104559191D01*
X94931593Y-104595155D01*
X94901000Y-104600000D01*
X93702500Y-104600000D01*
X93644309Y-104581093D01*
X93608345Y-104531593D01*
X93603500Y-104501000D01*
X93603499Y-103163647D01*
X93603499Y-103163644D01*
X93600488Y-103137680D01*
X93553598Y-103031486D01*
X93471514Y-102949402D01*
X93471512Y-102949401D01*
X93471511Y-102949400D01*
X93365319Y-102902511D01*
X93339360Y-102899500D01*
X92364647Y-102899500D01*
X92364644Y-102899501D01*
X92338677Y-102902512D01*
X92232488Y-102949400D01*
X92150400Y-103031488D01*
X92103511Y-103137679D01*
X92103511Y-103137680D01*
X92100500Y-103163636D01*
X92100500Y-103163642D01*
X92100501Y-104501000D01*
X92081594Y-104559191D01*
X92032094Y-104595155D01*
X92001501Y-104600000D01*
X91549499Y-104600000D01*
X91491308Y-104581093D01*
X91455344Y-104531593D01*
X91450499Y-104501000D01*
X91450499Y-103138856D01*
X91450498Y-103138849D01*
X91435095Y-103061407D01*
X91435094Y-103061405D01*
X91376418Y-102973588D01*
X91376413Y-102973583D01*
X91288592Y-102914904D01*
X91288593Y-102914904D01*
X91211147Y-102899500D01*
X90638856Y-102899500D01*
X90638849Y-102899501D01*
X90561407Y-102914904D01*
X90561405Y-102914905D01*
X90473588Y-102973581D01*
X90473583Y-102973586D01*
X90414904Y-103061407D01*
X90399500Y-103138850D01*
X90399500Y-104501000D01*
X90380593Y-104559191D01*
X90331093Y-104595155D01*
X90300500Y-104600000D01*
X89849499Y-104600000D01*
X89791308Y-104581093D01*
X89755344Y-104531593D01*
X89750499Y-104501000D01*
X89750499Y-103138856D01*
X89750498Y-103138849D01*
X89735095Y-103061407D01*
X89735094Y-103061405D01*
X89676418Y-102973588D01*
X89676413Y-102973583D01*
X89588592Y-102914904D01*
X89588593Y-102914904D01*
X89511147Y-102899500D01*
X88938856Y-102899500D01*
X88938849Y-102899501D01*
X88861407Y-102914904D01*
X88861405Y-102914905D01*
X88773588Y-102973581D01*
X88773583Y-102973586D01*
X88714904Y-103061407D01*
X88699500Y-103138850D01*
X88699500Y-104501000D01*
X88680593Y-104559191D01*
X88631093Y-104595155D01*
X88600500Y-104600000D01*
X86099000Y-104600000D01*
X86040809Y-104581093D01*
X86004845Y-104531593D01*
X86000000Y-104501000D01*
X86000000Y-101599000D01*
X86018907Y-101540809D01*
X86068407Y-101504845D01*
X86099000Y-101500000D01*
X94901000Y-101500000D01*
X94959191Y-101518907D01*
G37*
%TD.AperFunction*%
%TD*%
%TA.AperFunction,Conductor*%
%TO.N,DCP*%
G36*
X98959191Y-76618907D02*
G01*
X98995155Y-76668407D01*
X99000000Y-76699000D01*
X99000000Y-86600000D01*
X88000000Y-86600000D01*
X88000000Y-76699000D01*
X88018907Y-76640809D01*
X88068407Y-76604845D01*
X88099000Y-76600000D01*
X98901000Y-76600000D01*
X98959191Y-76618907D01*
G37*
%TD.AperFunction*%
%TD*%
%TA.AperFunction,Conductor*%
%TO.N,SW*%
G36*
X115259191Y-112418907D02*
G01*
X115295155Y-112468407D01*
X115300000Y-112499000D01*
X115300000Y-122901000D01*
X115281093Y-122959191D01*
X115231593Y-122995155D01*
X115201000Y-123000000D01*
X105499000Y-123000000D01*
X105440809Y-122981093D01*
X105404845Y-122931593D01*
X105400000Y-122901000D01*
X105400000Y-112499000D01*
X105418907Y-112440809D01*
X105468407Y-112404845D01*
X105499000Y-112400000D01*
X115201000Y-112400000D01*
X115259191Y-112418907D01*
G37*
%TD.AperFunction*%
%TD*%
%TA.AperFunction,Conductor*%
%TO.N,SW*%
G36*
X107658692Y-105218907D02*
G01*
X107694656Y-105268407D01*
X107699501Y-105299000D01*
X107699501Y-106661150D01*
X107714904Y-106738592D01*
X107714905Y-106738594D01*
X107773581Y-106826411D01*
X107773586Y-106826416D01*
X107861407Y-106885095D01*
X107861406Y-106885095D01*
X107876811Y-106888159D01*
X107938853Y-106900500D01*
X108511146Y-106900499D01*
X108588593Y-106885095D01*
X108676415Y-106826415D01*
X108735095Y-106738593D01*
X108750500Y-106661147D01*
X108750500Y-105299000D01*
X108769407Y-105240809D01*
X108818907Y-105204845D01*
X108849500Y-105200000D01*
X109300501Y-105200000D01*
X109358692Y-105218907D01*
X109394656Y-105268407D01*
X109399501Y-105299000D01*
X109399501Y-106661150D01*
X109414904Y-106738592D01*
X109414905Y-106738594D01*
X109473581Y-106826411D01*
X109473586Y-106826416D01*
X109561407Y-106885095D01*
X109561406Y-106885095D01*
X109576811Y-106888159D01*
X109638853Y-106900500D01*
X110211146Y-106900499D01*
X110288593Y-106885095D01*
X110376415Y-106826415D01*
X110435095Y-106738593D01*
X110450500Y-106661147D01*
X110450500Y-105299000D01*
X110469407Y-105240809D01*
X110518907Y-105204845D01*
X110549500Y-105200000D01*
X111001501Y-105200000D01*
X111059692Y-105218907D01*
X111095656Y-105268407D01*
X111100501Y-105299000D01*
X111100501Y-106636355D01*
X111103512Y-106662322D01*
X111150400Y-106768511D01*
X111150401Y-106768512D01*
X111150402Y-106768514D01*
X111232486Y-106850598D01*
X111338680Y-106897488D01*
X111364643Y-106900500D01*
X112339356Y-106900499D01*
X112365320Y-106897488D01*
X112471514Y-106850598D01*
X112553598Y-106768514D01*
X112600488Y-106662320D01*
X112603500Y-106636357D01*
X112603500Y-105299000D01*
X112622407Y-105240809D01*
X112671907Y-105204845D01*
X112702500Y-105200000D01*
X113901000Y-105200000D01*
X113959191Y-105218907D01*
X113995155Y-105268407D01*
X114000000Y-105299000D01*
X114000000Y-108801000D01*
X113981093Y-108859191D01*
X113931593Y-108895155D01*
X113901000Y-108900000D01*
X111399499Y-108900000D01*
X111341308Y-108881093D01*
X111305344Y-108831593D01*
X111300499Y-108801000D01*
X111300499Y-107438856D01*
X111300498Y-107438849D01*
X111285095Y-107361407D01*
X111285094Y-107361405D01*
X111226418Y-107273588D01*
X111226413Y-107273583D01*
X111138592Y-107214904D01*
X111138593Y-107214904D01*
X111061147Y-107199500D01*
X110488856Y-107199500D01*
X110488849Y-107199501D01*
X110411407Y-107214904D01*
X110411405Y-107214905D01*
X110323588Y-107273581D01*
X110323583Y-107273586D01*
X110264904Y-107361407D01*
X110249500Y-107438850D01*
X110249500Y-108801000D01*
X110230593Y-108859191D01*
X110181093Y-108895155D01*
X110150500Y-108900000D01*
X109699499Y-108900000D01*
X109641308Y-108881093D01*
X109605344Y-108831593D01*
X109600499Y-108801000D01*
X109600499Y-107438856D01*
X109600498Y-107438849D01*
X109585095Y-107361407D01*
X109585094Y-107361405D01*
X109526418Y-107273588D01*
X109526413Y-107273583D01*
X109438592Y-107214904D01*
X109438593Y-107214904D01*
X109361147Y-107199500D01*
X108788856Y-107199500D01*
X108788849Y-107199501D01*
X108711407Y-107214904D01*
X108711405Y-107214905D01*
X108623588Y-107273581D01*
X108623583Y-107273586D01*
X108564904Y-107361407D01*
X108549500Y-107438850D01*
X108549500Y-108801000D01*
X108530593Y-108859191D01*
X108481093Y-108895155D01*
X108450500Y-108900000D01*
X107998499Y-108900000D01*
X107940308Y-108881093D01*
X107904344Y-108831593D01*
X107900363Y-108806460D01*
X107899664Y-108806501D01*
X107899499Y-108803661D01*
X107899499Y-108803644D01*
X107896488Y-108777680D01*
X107853351Y-108679987D01*
X107847143Y-108619119D01*
X107853348Y-108600020D01*
X107896488Y-108502320D01*
X107899500Y-108476357D01*
X107899499Y-107463644D01*
X107896488Y-107437680D01*
X107849598Y-107331486D01*
X107767514Y-107249402D01*
X107767512Y-107249401D01*
X107767511Y-107249400D01*
X107661319Y-107202511D01*
X107635360Y-107199500D01*
X106660647Y-107199500D01*
X106660644Y-107199501D01*
X106634677Y-107202512D01*
X106528488Y-107249400D01*
X106446400Y-107331488D01*
X106399511Y-107437679D01*
X106399511Y-107437680D01*
X106396500Y-107463636D01*
X106396500Y-107520500D01*
X106377593Y-107578691D01*
X106328093Y-107614655D01*
X106297500Y-107619500D01*
X105673118Y-107619500D01*
X105628173Y-107608710D01*
X105533126Y-107560281D01*
X105400000Y-107539196D01*
X105266874Y-107560281D01*
X105266872Y-107560281D01*
X105171827Y-107608710D01*
X105126882Y-107619500D01*
X105099000Y-107619500D01*
X105040809Y-107600593D01*
X105004845Y-107551093D01*
X105000000Y-107520500D01*
X105000000Y-105299000D01*
X105018907Y-105240809D01*
X105068407Y-105204845D01*
X105099000Y-105200000D01*
X107600501Y-105200000D01*
X107658692Y-105218907D01*
G37*
%TD.AperFunction*%
%TD*%
M02*
