%TF.GenerationSoftware,KiCad,Pcbnew,7.0.10*%
%TF.CreationDate,2026-10-10T16:01:01+02:00*%
%TF.ProjectId,spb-bb-fab,7370622d-6262-42d6-9661-622e6b696361,rev?*%
%TF.SameCoordinates,Original*%
%TF.FileFunction,Legend,Bot*%
%TF.FilePolarity,Positive*%
%FSLAX46Y46*%
G04 Gerber Fmt 4.6, Leading zero omitted, Abs format (unit mm)*
G04 Created by KiCad (PCBNEW 7.0.10) date 2026-10-10 16:01:01*
%MOMM*%
%LPD*%
G01*
G04 APERTURE LIST*
%ADD10C,0.120000*%
%ADD11C,2.700000*%
%ADD12R,1.700000X1.700000*%
%ADD13O,1.700000X1.700000*%
%ADD14C,3.200000*%
G04 APERTURE END LIST*
D10*
%TO.C,J4*%
X106800000Y-116400000D02*
X106800000Y-118800000D01*
X109300000Y-121300000D02*
X111700000Y-121300000D01*
X111700000Y-113900000D02*
X109300000Y-113900000D01*
X114200000Y-118800000D02*
X114200000Y-116400000D01*
%TO.C,J3*%
X85800000Y-116400000D02*
X85800000Y-118800000D01*
X88300000Y-121300000D02*
X90700000Y-121300000D01*
X90700000Y-113900000D02*
X88300000Y-113900000D01*
X93200000Y-118800000D02*
X93200000Y-116400000D01*
%TO.C,J1*%
X90300000Y-80000001D02*
X90300000Y-82400001D01*
X92800000Y-84900001D02*
X95200000Y-84900001D01*
X95200000Y-77500001D02*
X92800000Y-77500001D01*
X97700000Y-82400001D02*
X97700000Y-80000001D01*
%TO.C,J2*%
X102300000Y-80000001D02*
X102300000Y-82400001D01*
X104800000Y-84900001D02*
X107200000Y-84900001D01*
X107200000Y-77500001D02*
X104800000Y-77500001D01*
X109700000Y-82400001D02*
X109700000Y-80000001D01*
%TD*%
%LPC*%
D11*
%TO.C,H8*%
X119200000Y-114800000D03*
%TD*%
D12*
%TO.C,J6*%
X103000000Y-133500000D03*
D13*
X103000000Y-136040000D03*
%TD*%
D11*
%TO.C,H2*%
X118600000Y-158600000D03*
%TD*%
%TO.C,H7*%
X80800000Y-114800000D03*
%TD*%
D12*
%TO.C,J5*%
X97460000Y-158040000D03*
D13*
X97460000Y-155500000D03*
X100000000Y-158040000D03*
X100000000Y-155500000D03*
X102540000Y-158040000D03*
X102540000Y-155500000D03*
%TD*%
D11*
%TO.C,H4*%
X118600000Y-78000000D03*
%TD*%
%TO.C,H3*%
X81400000Y-78000000D03*
%TD*%
%TO.C,H5*%
X80800000Y-98400000D03*
%TD*%
D12*
%TO.C,J7*%
X113000000Y-155600000D03*
D13*
X113000000Y-158140000D03*
%TD*%
D11*
%TO.C,H6*%
X119200000Y-98400000D03*
%TD*%
%TO.C,H1*%
X81400000Y-158600000D03*
%TD*%
D14*
%TO.C,J4*%
X107565000Y-114665000D03*
X107565000Y-120535000D03*
X113435000Y-114665000D03*
X113435000Y-120535000D03*
%TD*%
%TO.C,J3*%
X86565000Y-114665000D03*
X86565000Y-120535000D03*
X92435000Y-114665000D03*
X92435000Y-120535000D03*
%TD*%
%TO.C,J1*%
X91065000Y-78265001D03*
X91065000Y-84135001D03*
X96935000Y-78265001D03*
X96935000Y-84135001D03*
%TD*%
%TO.C,J2*%
X103065000Y-78265001D03*
X103065000Y-84135001D03*
X108935000Y-78265001D03*
X108935000Y-84135001D03*
%TD*%
%LPD*%
M02*
