%TF.GenerationSoftware,KiCad,Pcbnew,7.0.10*%
%TF.CreationDate,2026-10-10T16:01:00+02:00*%
%TF.ProjectId,spb-bb-fab,7370622d-6262-42d6-9661-622e6b696361,rev?*%
%TF.SameCoordinates,Original*%
%TF.FileFunction,Copper,L3,Inr*%
%TF.FilePolarity,Positive*%
%FSLAX46Y46*%
G04 Gerber Fmt 4.6, Leading zero omitted, Abs format (unit mm)*
G04 Created by KiCad (PCBNEW 7.0.10) date 2026-10-10 16:01:00*
%MOMM*%
%LPD*%
G01*
G04 APERTURE LIST*
%TA.AperFunction,ComponentPad*%
%ADD10R,1.700000X1.700000*%
%TD*%
%TA.AperFunction,ComponentPad*%
%ADD11O,1.700000X1.700000*%
%TD*%
%TA.AperFunction,ComponentPad*%
%ADD12C,3.200000*%
%TD*%
%TA.AperFunction,ViaPad*%
%ADD13C,0.600000*%
%TD*%
%TA.AperFunction,ViaPad*%
%ADD14C,0.450000*%
%TD*%
%TA.AperFunction,Conductor*%
%ADD15C,0.200000*%
%TD*%
%TA.AperFunction,Conductor*%
%ADD16C,0.300000*%
%TD*%
%TA.AperFunction,Conductor*%
%ADD17C,0.250000*%
%TD*%
G04 APERTURE END LIST*
D10*
%TO.N,NTC*%
%TO.C,J6*%
X103000000Y-133500000D03*
D11*
%TO.N,DCN*%
X103000000Y-136040000D03*
%TD*%
D10*
%TO.N,+12V*%
%TO.C,J5*%
X97460000Y-158040000D03*
D11*
%TO.N,GNDI*%
X97460000Y-155500000D03*
%TO.N,PWM_H*%
X100000000Y-158040000D03*
%TO.N,GNDI*%
X100000000Y-155500000D03*
%TO.N,PWM_L*%
X102540000Y-158040000D03*
%TO.N,DIS*%
X102540000Y-155500000D03*
%TD*%
D10*
%TO.N,+12V*%
%TO.C,J7*%
X113000000Y-155600000D03*
D11*
%TO.N,GNDI*%
X113000000Y-158140000D03*
%TD*%
D12*
%TO.N,SW*%
%TO.C,J4*%
X107565000Y-114665000D03*
X107565000Y-120535000D03*
X113435000Y-114665000D03*
X113435000Y-120535000D03*
%TD*%
%TO.N,SW*%
%TO.C,J3*%
X86565000Y-114665000D03*
X86565000Y-120535000D03*
X92435000Y-114665000D03*
X92435000Y-120535000D03*
%TD*%
%TO.N,DCP*%
%TO.C,J1*%
X91065000Y-78265001D03*
X91065000Y-84135001D03*
X96935000Y-78265001D03*
X96935000Y-84135001D03*
%TD*%
%TO.N,DCN*%
%TO.C,J2*%
X103065000Y-78265001D03*
X103065000Y-84135001D03*
X108935000Y-78265001D03*
X108935000Y-84135001D03*
%TD*%
D13*
%TO.N,DCP*%
X86969231Y-95300000D03*
X85784616Y-95300000D03*
X101184615Y-87100000D03*
X115400000Y-87100000D03*
X111846153Y-95300000D03*
X96446154Y-87100000D03*
X94076924Y-95300000D03*
X90950000Y-102500000D03*
X88153847Y-95300000D03*
X97630770Y-95300000D03*
X90523077Y-95300000D03*
X84600000Y-95300000D03*
X109476923Y-87100000D03*
X92892308Y-87100000D03*
X85784616Y-87100000D03*
X108292307Y-95300000D03*
X86450000Y-102500000D03*
X100000000Y-87100000D03*
X88250000Y-102500000D03*
X90050000Y-102500000D03*
X110661538Y-87100000D03*
X107107692Y-87100000D03*
X111846153Y-87100000D03*
X109050000Y-102500000D03*
X103553846Y-95300000D03*
X90523077Y-87100000D03*
X91707693Y-87100000D03*
X103553846Y-87100000D03*
X86969231Y-87100000D03*
X84600000Y-87100000D03*
X91850001Y-102500000D03*
X97630770Y-87100000D03*
X109476923Y-95300000D03*
X104738461Y-87100000D03*
X110850000Y-102500000D03*
X105923076Y-87100000D03*
X95261539Y-87100000D03*
X114215384Y-95300000D03*
X92750000Y-102500000D03*
X88153847Y-87100000D03*
X89338462Y-95300000D03*
X107107692Y-95300000D03*
X102369230Y-87100000D03*
X115400000Y-95300000D03*
X107250000Y-102500000D03*
X105450000Y-102500000D03*
X98815385Y-95300000D03*
X102369230Y-95300000D03*
X110661538Y-95300000D03*
X101184615Y-95300000D03*
X113030769Y-87100000D03*
X104738461Y-95300000D03*
X93650000Y-102500000D03*
X109950000Y-102500000D03*
X113550000Y-102500000D03*
X92892308Y-95300000D03*
X111750000Y-102500000D03*
X98815385Y-87100000D03*
X94550001Y-102500000D03*
X106350000Y-102500000D03*
X95261539Y-95300000D03*
X112650000Y-102500000D03*
X91707693Y-95300000D03*
X94076924Y-87100000D03*
X96446154Y-95300000D03*
X100000000Y-95300000D03*
X87350000Y-102500000D03*
X89338462Y-87100000D03*
X89150000Y-102500000D03*
X108150000Y-102500000D03*
X108292307Y-87100000D03*
X113030769Y-95300000D03*
X105923076Y-95300000D03*
X114215384Y-87100000D03*
%TO.N,DCN*%
X96446154Y-99500000D03*
X100000000Y-99500000D03*
X94076924Y-99500000D03*
X107107692Y-99500000D03*
X111846153Y-91300000D03*
X115400000Y-103700000D03*
D14*
X118600000Y-108750000D03*
D13*
X108292307Y-91300000D03*
X96446154Y-91300000D03*
X111846153Y-99500000D03*
X98815385Y-99500000D03*
X91707693Y-99500000D03*
X94076924Y-91300000D03*
X91707693Y-91300000D03*
X109050000Y-111500000D03*
X101184615Y-91300000D03*
X89338462Y-99500000D03*
X89338462Y-91300000D03*
X105923076Y-99500000D03*
X113550000Y-111500000D03*
X114215384Y-91300000D03*
X110850000Y-111500000D03*
X113030769Y-91300000D03*
X86969231Y-99500000D03*
X85784616Y-91300000D03*
X104738461Y-99500000D03*
X95261539Y-99500000D03*
X90523077Y-91300000D03*
X103553846Y-99500000D03*
X103553846Y-91300000D03*
X103700000Y-130000000D03*
X89150000Y-111500000D03*
X110661538Y-91300000D03*
X100000000Y-91300000D03*
X110661538Y-99500000D03*
X107250000Y-111500000D03*
X101184615Y-99500000D03*
D14*
X106098000Y-109020000D03*
D13*
X90523077Y-99500000D03*
X84600000Y-91300000D03*
X90950000Y-111500000D03*
X109476923Y-91300000D03*
X97630770Y-91300000D03*
X107107692Y-91300000D03*
X102369230Y-99500000D03*
D14*
X100000000Y-107900000D03*
D13*
X98815385Y-91300000D03*
X114215384Y-99500000D03*
X102369230Y-91300000D03*
X84600000Y-99500000D03*
X92892308Y-91300000D03*
X113030769Y-99500000D03*
X85784616Y-99500000D03*
X109476923Y-99500000D03*
X115400000Y-91300000D03*
X86450000Y-111500000D03*
X104300000Y-119500000D03*
X104738461Y-91300000D03*
X86969231Y-91300000D03*
D14*
X103900000Y-111000000D03*
D13*
X88153847Y-99500000D03*
X92892308Y-99500000D03*
D14*
X81400000Y-108750000D03*
D13*
X95261539Y-91300000D03*
X108292307Y-99500000D03*
X97630770Y-99500000D03*
X88153847Y-91300000D03*
X94550001Y-111500000D03*
D14*
X93902000Y-109379999D03*
D13*
X115400000Y-99500000D03*
X105923076Y-91300000D03*
X106350000Y-111500000D03*
X105450000Y-111500000D03*
D14*
%TO.N,SW*%
X81600000Y-104000000D03*
D13*
X94550001Y-107050000D03*
X113550000Y-107050000D03*
D14*
X93902000Y-105080000D03*
D13*
X96100001Y-130000000D03*
D14*
X106098000Y-104720000D03*
X118400000Y-104000000D03*
X100000000Y-105750000D03*
D13*
X95700000Y-119500000D03*
X86450000Y-107050000D03*
D14*
X96100000Y-111000000D03*
D13*
X105450000Y-107050000D03*
D14*
%TO.N,GH_L*%
X94600000Y-106130000D03*
X81400000Y-106600000D03*
%TO.N,GL_L*%
X83800000Y-107200000D03*
X94600000Y-110430000D03*
%TO.N,GH_R*%
X118600000Y-106600000D03*
X105400000Y-103670000D03*
%TO.N,GL_R*%
X105400000Y-107970000D03*
X116200000Y-107200000D03*
D13*
%TO.N,GH_STAR*%
X98500000Y-110000000D03*
X100000000Y-104900000D03*
%TO.N,VEEB*%
X117600000Y-135800000D03*
X115200000Y-130000000D03*
X118600000Y-142700000D03*
X103200000Y-116250000D03*
X113600000Y-141500000D03*
X119600000Y-130500000D03*
X106600000Y-129800000D03*
X119600000Y-140000000D03*
X119600000Y-133000000D03*
X113600000Y-133900000D03*
X119600000Y-137500000D03*
X117600000Y-129200000D03*
X105000000Y-127500000D03*
X111000000Y-127500000D03*
X107700000Y-133300000D03*
%TO.N,VDDB*%
X114500000Y-129000000D03*
X103100000Y-127600000D03*
X103600000Y-118800000D03*
X112300000Y-131400000D03*
X113100000Y-130500000D03*
%TO.N,VEEA*%
X94100001Y-133300000D03*
X81400000Y-142700000D03*
X80400000Y-137500000D03*
X88600001Y-127500000D03*
X97000000Y-127500000D03*
X90100001Y-134500000D03*
X82400000Y-129200000D03*
X96400000Y-118800000D03*
X80400000Y-140000000D03*
X97300001Y-141500000D03*
X82400000Y-135800000D03*
X80400000Y-130500000D03*
X93000000Y-129800000D03*
X86400000Y-133900000D03*
X80400000Y-133000000D03*
%TO.N,VDDA*%
X94900000Y-127600000D03*
X87400000Y-132100000D03*
X96800000Y-116250000D03*
X85500000Y-132100000D03*
%TO.N,DIS*%
X100800000Y-126000000D03*
%TO.N,GNDI*%
X105500000Y-159100000D03*
X83000000Y-154600000D03*
X117000000Y-154600000D03*
X110400000Y-158600000D03*
X100300000Y-123300000D03*
X104200000Y-157200000D03*
X97300001Y-151500000D03*
X100000000Y-120700000D03*
X113600000Y-151500000D03*
X88400000Y-153600000D03*
X95600000Y-157400000D03*
%TO.N,PWM_H*%
X98800001Y-126700000D03*
%TO.N,PWM_L*%
X100400000Y-126700000D03*
%TO.N,+12V*%
X101200000Y-126700000D03*
X101200000Y-149100000D03*
%TO.N,ISOA_P*%
X86200000Y-137600000D03*
X82500000Y-132800000D03*
X86400000Y-127800000D03*
X86400000Y-130000000D03*
%TO.N,ISOB_P*%
X116200000Y-132100000D03*
X110400000Y-130500000D03*
X108500000Y-134500000D03*
%TO.N,NTC*%
X116900000Y-126400000D03*
X116900000Y-101920000D03*
%TO.N,LEDA_ISOA*%
X82400000Y-127800000D03*
X81700000Y-130200000D03*
%TD*%
D15*
%TO.N,DCN*%
X93902000Y-108750000D02*
X81400000Y-108750000D01*
D16*
X104300000Y-119500000D02*
X104000000Y-119800000D01*
X104000000Y-119800000D02*
X104000000Y-127500000D01*
D15*
X106098000Y-108750000D02*
X118600000Y-108750000D01*
X93902000Y-109379999D02*
X93902000Y-108750000D01*
D16*
X103900000Y-127600000D02*
X103700000Y-130000000D01*
D15*
X106098000Y-109020000D02*
X106098000Y-108750000D01*
D16*
%TO.N,SW*%
X96000000Y-119800000D02*
X96000000Y-127500000D01*
X96100001Y-127600000D02*
X96100001Y-130000000D01*
D15*
X93902000Y-105080000D02*
X93902000Y-105250000D01*
X93902000Y-105250000D02*
X81600000Y-105250000D01*
X81600000Y-105250000D02*
X81600000Y-104000000D01*
X106098000Y-105250000D02*
X118400000Y-105250000D01*
X118400000Y-105250000D02*
X118400000Y-104000000D01*
X106098000Y-104720000D02*
X106098000Y-105250000D01*
D16*
X95700000Y-119500000D02*
X96000000Y-119800000D01*
D15*
%TO.N,GH_L*%
X94600000Y-106130000D02*
X94600000Y-105750000D01*
X94600000Y-105750000D02*
X81400000Y-105750000D01*
X81400000Y-105750000D02*
X81400000Y-106600000D01*
%TO.N,GL_L*%
X94600000Y-110430000D02*
X94600000Y-108250000D01*
X83800000Y-108250000D02*
X83800000Y-107200000D01*
X94600000Y-108250000D02*
X83800000Y-108250000D01*
%TO.N,GH_R*%
X105400000Y-103670000D02*
X105400000Y-105750000D01*
X118600000Y-105750000D02*
X118600000Y-106600000D01*
X105400000Y-105750000D02*
X118600000Y-105750000D01*
%TO.N,GL_R*%
X116200000Y-108250000D02*
X116200000Y-107200000D01*
X105400000Y-108250000D02*
X116200000Y-108250000D01*
X105400000Y-107970000D02*
X105400000Y-108250000D01*
D16*
%TO.N,GH_STAR*%
X100000000Y-104900000D02*
X99250000Y-105650000D01*
X99250000Y-109250000D02*
X98500000Y-110000000D01*
X99250000Y-105650000D02*
X99250000Y-109250000D01*
%TO.N,VEEB*%
X103200000Y-116250000D02*
X105000000Y-116250000D01*
X105000000Y-116250000D02*
X105000000Y-127500000D01*
%TO.N,VDDB*%
X112300000Y-131400000D02*
X113100000Y-130500000D01*
X113300000Y-130300000D02*
X114500000Y-129000000D01*
X103600000Y-118800000D02*
X103000000Y-119400000D01*
X103000000Y-119400000D02*
X103000000Y-127500000D01*
%TO.N,VEEA*%
X97000000Y-119400000D02*
X97000000Y-127500000D01*
X96400000Y-118800000D02*
X97000000Y-119400000D01*
%TO.N,VDDA*%
X95000000Y-116250000D02*
X95000000Y-127500000D01*
X96800000Y-116250000D02*
X95000000Y-116250000D01*
X87400000Y-132100000D02*
X85500000Y-132100000D01*
D17*
%TO.N,DIS*%
X100800000Y-126000000D02*
X100300000Y-126000000D01*
X100300000Y-126000000D02*
X99800001Y-126300000D01*
X100600000Y-152500000D02*
X102200000Y-155000000D01*
X99700001Y-127000000D02*
X100600000Y-152500000D01*
X99800001Y-126300000D02*
X99700001Y-127000000D01*
D16*
%TO.N,ISOA_P*%
X82500000Y-132800000D02*
X86200000Y-137600000D01*
X86400000Y-130000000D02*
X86400000Y-127800000D01*
%TO.N,ISOB_P*%
X112100000Y-132100000D02*
X110400000Y-130500000D01*
X111399999Y-131600000D02*
X108500000Y-134500000D01*
X116200000Y-132100000D02*
X112100000Y-132100000D01*
D17*
%TO.N,NTC*%
X116700000Y-126600000D02*
X103800000Y-133000000D01*
%TO.N,LEDA_ISOA*%
X81700000Y-128800000D02*
X82400000Y-127800000D01*
X81700000Y-130200000D02*
X81700000Y-128800000D01*
%TD*%
%TA.AperFunction,Conductor*%
%TO.N,DCN*%
G36*
X111959191Y-76618907D02*
G01*
X111995155Y-76668407D01*
X112000000Y-76699000D01*
X112000000Y-85901000D01*
X111981093Y-85959191D01*
X111931593Y-85995155D01*
X111901000Y-86000000D01*
X101099000Y-86000000D01*
X101040809Y-85981093D01*
X101004845Y-85931593D01*
X101000000Y-85901000D01*
X101000000Y-76699000D01*
X101018907Y-76640809D01*
X101068407Y-76604845D01*
X101099000Y-76600000D01*
X111901000Y-76600000D01*
X111959191Y-76618907D01*
G37*
%TD.AperFunction*%
%TD*%
%TA.AperFunction,Conductor*%
%TO.N,SW*%
G36*
X94559191Y-112418907D02*
G01*
X94595155Y-112468407D01*
X94600000Y-112499000D01*
X94600000Y-122901000D01*
X94581093Y-122959191D01*
X94531593Y-122995155D01*
X94501000Y-123000000D01*
X83799000Y-123000000D01*
X83740809Y-122981093D01*
X83704845Y-122931593D01*
X83700000Y-122901000D01*
X83700000Y-112499000D01*
X83718907Y-112440809D01*
X83768407Y-112404845D01*
X83799000Y-112400000D01*
X94501000Y-112400000D01*
X94559191Y-112418907D01*
G37*
%TD.AperFunction*%
%TD*%
%TA.AperFunction,Conductor*%
%TO.N,DCP*%
G36*
X98959191Y-76618907D02*
G01*
X98995155Y-76668407D01*
X99000000Y-76699000D01*
X99000000Y-86600000D01*
X88000000Y-86600000D01*
X88000000Y-76699000D01*
X88018907Y-76640809D01*
X88068407Y-76604845D01*
X88099000Y-76600000D01*
X98901000Y-76600000D01*
X98959191Y-76618907D01*
G37*
%TD.AperFunction*%
%TD*%
%TA.AperFunction,Conductor*%
%TO.N,DCP*%
G36*
X115959191Y-86618907D02*
G01*
X115995155Y-86668407D01*
X116000000Y-86699000D01*
X116000000Y-90962723D01*
X115981093Y-91020914D01*
X115931593Y-91056878D01*
X115870407Y-91056878D01*
X115826181Y-91027554D01*
X115731129Y-90917858D01*
X115731127Y-90917856D01*
X115610057Y-90840049D01*
X115610054Y-90840047D01*
X115610053Y-90840047D01*
X115610050Y-90840046D01*
X115471964Y-90799500D01*
X115471961Y-90799500D01*
X115328039Y-90799500D01*
X115328035Y-90799500D01*
X115189949Y-90840046D01*
X115189942Y-90840049D01*
X115068873Y-90917855D01*
X114974622Y-91026628D01*
X114914834Y-91157543D01*
X114905684Y-91221186D01*
X114878688Y-91276094D01*
X114831188Y-91301157D01*
X114851372Y-91304059D01*
X114895251Y-91346701D01*
X114905684Y-91378813D01*
X114914834Y-91442456D01*
X114960807Y-91543121D01*
X114974623Y-91573373D01*
X115029995Y-91637276D01*
X115068873Y-91682144D01*
X115189942Y-91759950D01*
X115189947Y-91759953D01*
X115296403Y-91791211D01*
X115328035Y-91800499D01*
X115328036Y-91800499D01*
X115328039Y-91800500D01*
X115328041Y-91800500D01*
X115471959Y-91800500D01*
X115471961Y-91800500D01*
X115610053Y-91759953D01*
X115731128Y-91682143D01*
X115825377Y-91573373D01*
X115825378Y-91573370D01*
X115826180Y-91572445D01*
X115878576Y-91540849D01*
X115939537Y-91546084D01*
X115985778Y-91586152D01*
X116000000Y-91637276D01*
X116000000Y-99162723D01*
X115981093Y-99220914D01*
X115931593Y-99256878D01*
X115870407Y-99256878D01*
X115826181Y-99227554D01*
X115731129Y-99117858D01*
X115731127Y-99117856D01*
X115610057Y-99040049D01*
X115610054Y-99040047D01*
X115610053Y-99040047D01*
X115610050Y-99040046D01*
X115471964Y-98999500D01*
X115471961Y-98999500D01*
X115328039Y-98999500D01*
X115328035Y-98999500D01*
X115189949Y-99040046D01*
X115189942Y-99040049D01*
X115068873Y-99117855D01*
X114974622Y-99226628D01*
X114914834Y-99357543D01*
X114905684Y-99421186D01*
X114878688Y-99476094D01*
X114831188Y-99501157D01*
X114851372Y-99504059D01*
X114895251Y-99546701D01*
X114905684Y-99578813D01*
X114914834Y-99642456D01*
X114960807Y-99743121D01*
X114974623Y-99773373D01*
X115029995Y-99837276D01*
X115068873Y-99882144D01*
X115189942Y-99959950D01*
X115189947Y-99959953D01*
X115296403Y-99991211D01*
X115328035Y-100000499D01*
X115328036Y-100000499D01*
X115328039Y-100000500D01*
X115328041Y-100000500D01*
X115471959Y-100000500D01*
X115471961Y-100000500D01*
X115610053Y-99959953D01*
X115731128Y-99882143D01*
X115825377Y-99773373D01*
X115825378Y-99773370D01*
X115826180Y-99772445D01*
X115878576Y-99740849D01*
X115939537Y-99746084D01*
X115985778Y-99786152D01*
X116000000Y-99837276D01*
X116000000Y-103362723D01*
X115981093Y-103420914D01*
X115931593Y-103456878D01*
X115870407Y-103456878D01*
X115826181Y-103427554D01*
X115731129Y-103317858D01*
X115731127Y-103317856D01*
X115610057Y-103240049D01*
X115610054Y-103240047D01*
X115610053Y-103240047D01*
X115607155Y-103239196D01*
X115471964Y-103199500D01*
X115471961Y-103199500D01*
X115328039Y-103199500D01*
X115328035Y-103199500D01*
X115189949Y-103240046D01*
X115189942Y-103240049D01*
X115068873Y-103317855D01*
X114974622Y-103426628D01*
X114914834Y-103557543D01*
X114894353Y-103699997D01*
X114894353Y-103700002D01*
X114914834Y-103842456D01*
X114974199Y-103972445D01*
X114974623Y-103973373D01*
X115029995Y-104037276D01*
X115068873Y-104082144D01*
X115189942Y-104159950D01*
X115189947Y-104159953D01*
X115296403Y-104191211D01*
X115328035Y-104200499D01*
X115328036Y-104200499D01*
X115328039Y-104200500D01*
X115328041Y-104200500D01*
X115471959Y-104200500D01*
X115471961Y-104200500D01*
X115610053Y-104159953D01*
X115731128Y-104082143D01*
X115825377Y-103973373D01*
X115825378Y-103973370D01*
X115826180Y-103972445D01*
X115878576Y-103940849D01*
X115939537Y-103946084D01*
X115985778Y-103986152D01*
X116000000Y-104037276D01*
X116000000Y-104501000D01*
X115981093Y-104559191D01*
X115931593Y-104595155D01*
X115901000Y-104600000D01*
X106575074Y-104600000D01*
X106516883Y-104581093D01*
X106486865Y-104545946D01*
X106446528Y-104466780D01*
X106351220Y-104371472D01*
X106351217Y-104371470D01*
X106231129Y-104310282D01*
X106231127Y-104310281D01*
X106098000Y-104289196D01*
X105964874Y-104310281D01*
X105844780Y-104371472D01*
X105844779Y-104371472D01*
X105844445Y-104371643D01*
X105784013Y-104381214D01*
X105729497Y-104353437D01*
X105701719Y-104298920D01*
X105700500Y-104283433D01*
X105700500Y-104012255D01*
X105719407Y-103954064D01*
X105729490Y-103942257D01*
X105748528Y-103923220D01*
X105809719Y-103803126D01*
X105830804Y-103670000D01*
X105809719Y-103536874D01*
X105748528Y-103416780D01*
X105653220Y-103321472D01*
X105653217Y-103321470D01*
X105533129Y-103260282D01*
X105533127Y-103260281D01*
X105400000Y-103239196D01*
X105266872Y-103260281D01*
X105266870Y-103260282D01*
X105146782Y-103321470D01*
X105051470Y-103416782D01*
X104990282Y-103536870D01*
X104990281Y-103536872D01*
X104969196Y-103669999D01*
X104969196Y-103670000D01*
X104990281Y-103803127D01*
X104990282Y-103803129D01*
X105010321Y-103842457D01*
X105051472Y-103923220D01*
X105070505Y-103942253D01*
X105098281Y-103996768D01*
X105099500Y-104012255D01*
X105099500Y-104501000D01*
X105080593Y-104559191D01*
X105031093Y-104595155D01*
X105000500Y-104600000D01*
X100447516Y-104600000D01*
X100389325Y-104581093D01*
X100372697Y-104565831D01*
X100331128Y-104517857D01*
X100298182Y-104496684D01*
X100210057Y-104440049D01*
X100210054Y-104440047D01*
X100210053Y-104440047D01*
X100210050Y-104440046D01*
X100071964Y-104399500D01*
X100071961Y-104399500D01*
X99928039Y-104399500D01*
X99928035Y-104399500D01*
X99789949Y-104440046D01*
X99789942Y-104440049D01*
X99668876Y-104517854D01*
X99668873Y-104517856D01*
X99668872Y-104517857D01*
X99629850Y-104562892D01*
X99627303Y-104565831D01*
X99574908Y-104597427D01*
X99552484Y-104600000D01*
X84099000Y-104600000D01*
X84040809Y-104581093D01*
X84004845Y-104531593D01*
X84000000Y-104501000D01*
X84000000Y-99837276D01*
X84018907Y-99779085D01*
X84068407Y-99743121D01*
X84129593Y-99743121D01*
X84173820Y-99772445D01*
X84174621Y-99773370D01*
X84174623Y-99773373D01*
X84229995Y-99837276D01*
X84268873Y-99882144D01*
X84389942Y-99959950D01*
X84389947Y-99959953D01*
X84496403Y-99991211D01*
X84528035Y-100000499D01*
X84528036Y-100000499D01*
X84528039Y-100000500D01*
X84528041Y-100000500D01*
X84671959Y-100000500D01*
X84671961Y-100000500D01*
X84810053Y-99959953D01*
X84931128Y-99882143D01*
X85025377Y-99773373D01*
X85085165Y-99642457D01*
X85094316Y-99578813D01*
X85121312Y-99523906D01*
X85164423Y-99501157D01*
X85215804Y-99501157D01*
X85235988Y-99504059D01*
X85279867Y-99546701D01*
X85290300Y-99578813D01*
X85299450Y-99642456D01*
X85345423Y-99743121D01*
X85359239Y-99773373D01*
X85414611Y-99837276D01*
X85453489Y-99882144D01*
X85574558Y-99959950D01*
X85574563Y-99959953D01*
X85681019Y-99991211D01*
X85712651Y-100000499D01*
X85712652Y-100000499D01*
X85712655Y-100000500D01*
X85712657Y-100000500D01*
X85856575Y-100000500D01*
X85856577Y-100000500D01*
X85994669Y-99959953D01*
X86115744Y-99882143D01*
X86209993Y-99773373D01*
X86269781Y-99642457D01*
X86278931Y-99578817D01*
X86305926Y-99523910D01*
X86349042Y-99501159D01*
X86400406Y-99501159D01*
X86420603Y-99504063D01*
X86464481Y-99546705D01*
X86474915Y-99578817D01*
X86484065Y-99642455D01*
X86484066Y-99642457D01*
X86543854Y-99773373D01*
X86599226Y-99837276D01*
X86638104Y-99882144D01*
X86759173Y-99959950D01*
X86759178Y-99959953D01*
X86865634Y-99991211D01*
X86897266Y-100000499D01*
X86897267Y-100000499D01*
X86897270Y-100000500D01*
X86897272Y-100000500D01*
X87041190Y-100000500D01*
X87041192Y-100000500D01*
X87179284Y-99959953D01*
X87300359Y-99882143D01*
X87394608Y-99773373D01*
X87454396Y-99642457D01*
X87463547Y-99578813D01*
X87490543Y-99523906D01*
X87533654Y-99501157D01*
X87585035Y-99501157D01*
X87605219Y-99504059D01*
X87649098Y-99546701D01*
X87659531Y-99578813D01*
X87668681Y-99642456D01*
X87714654Y-99743121D01*
X87728470Y-99773373D01*
X87783842Y-99837276D01*
X87822720Y-99882144D01*
X87943789Y-99959950D01*
X87943794Y-99959953D01*
X88050250Y-99991211D01*
X88081882Y-100000499D01*
X88081883Y-100000499D01*
X88081886Y-100000500D01*
X88081888Y-100000500D01*
X88225806Y-100000500D01*
X88225808Y-100000500D01*
X88363900Y-99959953D01*
X88484975Y-99882143D01*
X88579224Y-99773373D01*
X88639012Y-99642457D01*
X88648162Y-99578817D01*
X88675157Y-99523910D01*
X88718273Y-99501159D01*
X88769637Y-99501159D01*
X88789834Y-99504063D01*
X88833712Y-99546705D01*
X88844146Y-99578817D01*
X88853296Y-99642455D01*
X88853297Y-99642457D01*
X88913085Y-99773373D01*
X88968457Y-99837276D01*
X89007335Y-99882144D01*
X89128404Y-99959950D01*
X89128409Y-99959953D01*
X89234865Y-99991211D01*
X89266497Y-100000499D01*
X89266498Y-100000499D01*
X89266501Y-100000500D01*
X89266503Y-100000500D01*
X89410421Y-100000500D01*
X89410423Y-100000500D01*
X89548515Y-99959953D01*
X89669590Y-99882143D01*
X89763839Y-99773373D01*
X89823627Y-99642457D01*
X89832777Y-99578817D01*
X89859772Y-99523910D01*
X89902888Y-99501159D01*
X89954252Y-99501159D01*
X89974449Y-99504063D01*
X90018327Y-99546705D01*
X90028761Y-99578817D01*
X90037911Y-99642455D01*
X90037912Y-99642457D01*
X90097700Y-99773373D01*
X90153072Y-99837276D01*
X90191950Y-99882144D01*
X90313019Y-99959950D01*
X90313024Y-99959953D01*
X90419480Y-99991211D01*
X90451112Y-100000499D01*
X90451113Y-100000499D01*
X90451116Y-100000500D01*
X90451118Y-100000500D01*
X90595036Y-100000500D01*
X90595038Y-100000500D01*
X90733130Y-99959953D01*
X90854205Y-99882143D01*
X90948454Y-99773373D01*
X91008242Y-99642457D01*
X91017393Y-99578813D01*
X91044389Y-99523906D01*
X91087500Y-99501157D01*
X91138881Y-99501157D01*
X91159065Y-99504059D01*
X91202944Y-99546701D01*
X91213377Y-99578813D01*
X91222527Y-99642456D01*
X91268500Y-99743121D01*
X91282316Y-99773373D01*
X91337688Y-99837276D01*
X91376566Y-99882144D01*
X91497635Y-99959950D01*
X91497640Y-99959953D01*
X91604096Y-99991211D01*
X91635728Y-100000499D01*
X91635729Y-100000499D01*
X91635732Y-100000500D01*
X91635734Y-100000500D01*
X91779652Y-100000500D01*
X91779654Y-100000500D01*
X91917746Y-99959953D01*
X92038821Y-99882143D01*
X92133070Y-99773373D01*
X92192858Y-99642457D01*
X92202008Y-99578817D01*
X92229003Y-99523910D01*
X92272119Y-99501159D01*
X92323483Y-99501159D01*
X92343680Y-99504063D01*
X92387558Y-99546705D01*
X92397992Y-99578817D01*
X92407142Y-99642455D01*
X92407143Y-99642457D01*
X92466931Y-99773373D01*
X92522303Y-99837276D01*
X92561181Y-99882144D01*
X92682250Y-99959950D01*
X92682255Y-99959953D01*
X92788711Y-99991211D01*
X92820343Y-100000499D01*
X92820344Y-100000499D01*
X92820347Y-100000500D01*
X92820349Y-100000500D01*
X92964267Y-100000500D01*
X92964269Y-100000500D01*
X93102361Y-99959953D01*
X93223436Y-99882143D01*
X93317685Y-99773373D01*
X93377473Y-99642457D01*
X93386624Y-99578813D01*
X93413620Y-99523906D01*
X93456731Y-99501157D01*
X93508112Y-99501157D01*
X93528296Y-99504059D01*
X93572175Y-99546701D01*
X93582608Y-99578813D01*
X93591758Y-99642456D01*
X93637731Y-99743121D01*
X93651547Y-99773373D01*
X93706919Y-99837276D01*
X93745797Y-99882144D01*
X93866866Y-99959950D01*
X93866871Y-99959953D01*
X93973327Y-99991211D01*
X94004959Y-100000499D01*
X94004960Y-100000499D01*
X94004963Y-100000500D01*
X94004965Y-100000500D01*
X94148883Y-100000500D01*
X94148885Y-100000500D01*
X94286977Y-99959953D01*
X94408052Y-99882143D01*
X94502301Y-99773373D01*
X94562089Y-99642457D01*
X94571239Y-99578817D01*
X94598234Y-99523910D01*
X94641350Y-99501159D01*
X94692714Y-99501159D01*
X94712911Y-99504063D01*
X94756789Y-99546705D01*
X94767223Y-99578817D01*
X94776373Y-99642455D01*
X94776374Y-99642457D01*
X94836162Y-99773373D01*
X94891534Y-99837276D01*
X94930412Y-99882144D01*
X95051481Y-99959950D01*
X95051486Y-99959953D01*
X95157942Y-99991211D01*
X95189574Y-100000499D01*
X95189575Y-100000499D01*
X95189578Y-100000500D01*
X95189580Y-100000500D01*
X95333498Y-100000500D01*
X95333500Y-100000500D01*
X95471592Y-99959953D01*
X95592667Y-99882143D01*
X95686916Y-99773373D01*
X95746704Y-99642457D01*
X95755854Y-99578817D01*
X95782849Y-99523910D01*
X95825965Y-99501159D01*
X95877329Y-99501159D01*
X95897526Y-99504063D01*
X95941404Y-99546705D01*
X95951838Y-99578817D01*
X95960988Y-99642455D01*
X95960989Y-99642457D01*
X96020777Y-99773373D01*
X96076149Y-99837276D01*
X96115027Y-99882144D01*
X96236096Y-99959950D01*
X96236101Y-99959953D01*
X96342557Y-99991211D01*
X96374189Y-100000499D01*
X96374190Y-100000499D01*
X96374193Y-100000500D01*
X96374195Y-100000500D01*
X96518113Y-100000500D01*
X96518115Y-100000500D01*
X96656207Y-99959953D01*
X96777282Y-99882143D01*
X96871531Y-99773373D01*
X96931319Y-99642457D01*
X96940470Y-99578813D01*
X96967466Y-99523906D01*
X97010577Y-99501157D01*
X97061958Y-99501157D01*
X97082142Y-99504059D01*
X97126021Y-99546701D01*
X97136454Y-99578813D01*
X97145604Y-99642456D01*
X97191577Y-99743121D01*
X97205393Y-99773373D01*
X97260765Y-99837276D01*
X97299643Y-99882144D01*
X97420712Y-99959950D01*
X97420717Y-99959953D01*
X97527173Y-99991211D01*
X97558805Y-100000499D01*
X97558806Y-100000499D01*
X97558809Y-100000500D01*
X97558811Y-100000500D01*
X97702729Y-100000500D01*
X97702731Y-100000500D01*
X97840823Y-99959953D01*
X97961898Y-99882143D01*
X98056147Y-99773373D01*
X98115935Y-99642457D01*
X98125085Y-99578817D01*
X98152080Y-99523910D01*
X98195196Y-99501159D01*
X98246560Y-99501159D01*
X98266757Y-99504063D01*
X98310635Y-99546705D01*
X98321069Y-99578817D01*
X98330219Y-99642455D01*
X98330220Y-99642457D01*
X98390008Y-99773373D01*
X98445380Y-99837276D01*
X98484258Y-99882144D01*
X98605327Y-99959950D01*
X98605332Y-99959953D01*
X98711788Y-99991211D01*
X98743420Y-100000499D01*
X98743421Y-100000499D01*
X98743424Y-100000500D01*
X98743426Y-100000500D01*
X98887344Y-100000500D01*
X98887346Y-100000500D01*
X99025438Y-99959953D01*
X99146513Y-99882143D01*
X99240762Y-99773373D01*
X99300550Y-99642457D01*
X99309700Y-99578817D01*
X99336695Y-99523910D01*
X99379811Y-99501159D01*
X99431175Y-99501159D01*
X99451372Y-99504063D01*
X99495250Y-99546705D01*
X99505684Y-99578817D01*
X99514834Y-99642455D01*
X99514835Y-99642457D01*
X99574623Y-99773373D01*
X99629995Y-99837276D01*
X99668873Y-99882144D01*
X99789942Y-99959950D01*
X99789947Y-99959953D01*
X99896403Y-99991211D01*
X99928035Y-100000499D01*
X99928036Y-100000499D01*
X99928039Y-100000500D01*
X99928041Y-100000500D01*
X100071959Y-100000500D01*
X100071961Y-100000500D01*
X100210053Y-99959953D01*
X100331128Y-99882143D01*
X100425377Y-99773373D01*
X100485165Y-99642457D01*
X100494315Y-99578817D01*
X100521310Y-99523910D01*
X100564426Y-99501159D01*
X100615790Y-99501159D01*
X100635987Y-99504063D01*
X100679865Y-99546705D01*
X100690299Y-99578817D01*
X100699449Y-99642455D01*
X100699450Y-99642457D01*
X100759238Y-99773373D01*
X100814610Y-99837276D01*
X100853488Y-99882144D01*
X100974557Y-99959950D01*
X100974562Y-99959953D01*
X101081018Y-99991211D01*
X101112650Y-100000499D01*
X101112651Y-100000499D01*
X101112654Y-100000500D01*
X101112656Y-100000500D01*
X101256574Y-100000500D01*
X101256576Y-100000500D01*
X101394668Y-99959953D01*
X101515743Y-99882143D01*
X101609992Y-99773373D01*
X101669780Y-99642457D01*
X101678930Y-99578817D01*
X101705925Y-99523910D01*
X101749041Y-99501159D01*
X101800405Y-99501159D01*
X101820602Y-99504063D01*
X101864480Y-99546705D01*
X101874914Y-99578817D01*
X101884064Y-99642455D01*
X101884065Y-99642457D01*
X101943853Y-99773373D01*
X101999225Y-99837276D01*
X102038103Y-99882144D01*
X102159172Y-99959950D01*
X102159177Y-99959953D01*
X102265633Y-99991211D01*
X102297265Y-100000499D01*
X102297266Y-100000499D01*
X102297269Y-100000500D01*
X102297271Y-100000500D01*
X102441189Y-100000500D01*
X102441191Y-100000500D01*
X102579283Y-99959953D01*
X102700358Y-99882143D01*
X102794607Y-99773373D01*
X102854395Y-99642457D01*
X102863546Y-99578813D01*
X102890542Y-99523906D01*
X102933653Y-99501157D01*
X102985034Y-99501157D01*
X103005218Y-99504059D01*
X103049097Y-99546701D01*
X103059530Y-99578813D01*
X103068680Y-99642456D01*
X103114653Y-99743121D01*
X103128469Y-99773373D01*
X103183841Y-99837276D01*
X103222719Y-99882144D01*
X103343788Y-99959950D01*
X103343793Y-99959953D01*
X103450249Y-99991211D01*
X103481881Y-100000499D01*
X103481882Y-100000499D01*
X103481885Y-100000500D01*
X103481887Y-100000500D01*
X103625805Y-100000500D01*
X103625807Y-100000500D01*
X103763899Y-99959953D01*
X103884974Y-99882143D01*
X103979223Y-99773373D01*
X104039011Y-99642457D01*
X104048161Y-99578817D01*
X104075156Y-99523910D01*
X104118272Y-99501159D01*
X104169636Y-99501159D01*
X104189833Y-99504063D01*
X104233711Y-99546705D01*
X104244145Y-99578817D01*
X104253295Y-99642455D01*
X104253296Y-99642457D01*
X104313084Y-99773373D01*
X104368456Y-99837276D01*
X104407334Y-99882144D01*
X104528403Y-99959950D01*
X104528408Y-99959953D01*
X104634864Y-99991211D01*
X104666496Y-100000499D01*
X104666497Y-100000499D01*
X104666500Y-100000500D01*
X104666502Y-100000500D01*
X104810420Y-100000500D01*
X104810422Y-100000500D01*
X104948514Y-99959953D01*
X105069589Y-99882143D01*
X105163838Y-99773373D01*
X105223626Y-99642457D01*
X105232776Y-99578817D01*
X105259771Y-99523910D01*
X105302887Y-99501159D01*
X105354251Y-99501159D01*
X105374448Y-99504063D01*
X105418326Y-99546705D01*
X105428760Y-99578817D01*
X105437910Y-99642455D01*
X105437911Y-99642457D01*
X105497699Y-99773373D01*
X105553071Y-99837276D01*
X105591949Y-99882144D01*
X105713018Y-99959950D01*
X105713023Y-99959953D01*
X105819479Y-99991211D01*
X105851111Y-100000499D01*
X105851112Y-100000499D01*
X105851115Y-100000500D01*
X105851117Y-100000500D01*
X105995035Y-100000500D01*
X105995037Y-100000500D01*
X106133129Y-99959953D01*
X106254204Y-99882143D01*
X106348453Y-99773373D01*
X106408241Y-99642457D01*
X106417392Y-99578813D01*
X106444388Y-99523906D01*
X106487499Y-99501157D01*
X106538880Y-99501157D01*
X106559064Y-99504059D01*
X106602943Y-99546701D01*
X106613376Y-99578813D01*
X106622526Y-99642456D01*
X106668499Y-99743121D01*
X106682315Y-99773373D01*
X106737687Y-99837276D01*
X106776565Y-99882144D01*
X106897634Y-99959950D01*
X106897639Y-99959953D01*
X107004095Y-99991211D01*
X107035727Y-100000499D01*
X107035728Y-100000499D01*
X107035731Y-100000500D01*
X107035733Y-100000500D01*
X107179651Y-100000500D01*
X107179653Y-100000500D01*
X107317745Y-99959953D01*
X107438820Y-99882143D01*
X107533069Y-99773373D01*
X107592857Y-99642457D01*
X107602007Y-99578817D01*
X107629002Y-99523910D01*
X107672118Y-99501159D01*
X107723482Y-99501159D01*
X107743679Y-99504063D01*
X107787557Y-99546705D01*
X107797991Y-99578817D01*
X107807141Y-99642455D01*
X107807142Y-99642457D01*
X107866930Y-99773373D01*
X107922302Y-99837276D01*
X107961180Y-99882144D01*
X108082249Y-99959950D01*
X108082254Y-99959953D01*
X108188710Y-99991211D01*
X108220342Y-100000499D01*
X108220343Y-100000499D01*
X108220346Y-100000500D01*
X108220348Y-100000500D01*
X108364266Y-100000500D01*
X108364268Y-100000500D01*
X108502360Y-99959953D01*
X108623435Y-99882143D01*
X108717684Y-99773373D01*
X108777472Y-99642457D01*
X108786623Y-99578813D01*
X108813619Y-99523906D01*
X108856730Y-99501157D01*
X108908111Y-99501157D01*
X108928295Y-99504059D01*
X108972174Y-99546701D01*
X108982607Y-99578813D01*
X108991757Y-99642456D01*
X109037730Y-99743121D01*
X109051546Y-99773373D01*
X109106918Y-99837276D01*
X109145796Y-99882144D01*
X109266865Y-99959950D01*
X109266870Y-99959953D01*
X109373326Y-99991211D01*
X109404958Y-100000499D01*
X109404959Y-100000499D01*
X109404962Y-100000500D01*
X109404964Y-100000500D01*
X109548882Y-100000500D01*
X109548884Y-100000500D01*
X109686976Y-99959953D01*
X109808051Y-99882143D01*
X109902300Y-99773373D01*
X109962088Y-99642457D01*
X109971238Y-99578817D01*
X109998233Y-99523910D01*
X110041349Y-99501159D01*
X110092713Y-99501159D01*
X110112910Y-99504063D01*
X110156788Y-99546705D01*
X110167222Y-99578817D01*
X110176372Y-99642455D01*
X110176373Y-99642457D01*
X110236161Y-99773373D01*
X110291533Y-99837276D01*
X110330411Y-99882144D01*
X110451480Y-99959950D01*
X110451485Y-99959953D01*
X110557941Y-99991211D01*
X110589573Y-100000499D01*
X110589574Y-100000499D01*
X110589577Y-100000500D01*
X110589579Y-100000500D01*
X110733497Y-100000500D01*
X110733499Y-100000500D01*
X110871591Y-99959953D01*
X110992666Y-99882143D01*
X111086915Y-99773373D01*
X111146703Y-99642457D01*
X111155853Y-99578817D01*
X111182848Y-99523910D01*
X111225964Y-99501159D01*
X111277328Y-99501159D01*
X111297525Y-99504063D01*
X111341403Y-99546705D01*
X111351837Y-99578817D01*
X111360987Y-99642455D01*
X111360988Y-99642457D01*
X111420776Y-99773373D01*
X111476148Y-99837276D01*
X111515026Y-99882144D01*
X111636095Y-99959950D01*
X111636100Y-99959953D01*
X111742556Y-99991211D01*
X111774188Y-100000499D01*
X111774189Y-100000499D01*
X111774192Y-100000500D01*
X111774194Y-100000500D01*
X111918112Y-100000500D01*
X111918114Y-100000500D01*
X112056206Y-99959953D01*
X112177281Y-99882143D01*
X112271530Y-99773373D01*
X112331318Y-99642457D01*
X112340469Y-99578813D01*
X112367465Y-99523906D01*
X112410576Y-99501157D01*
X112461957Y-99501157D01*
X112482141Y-99504059D01*
X112526020Y-99546701D01*
X112536453Y-99578813D01*
X112545603Y-99642456D01*
X112591576Y-99743121D01*
X112605392Y-99773373D01*
X112660764Y-99837276D01*
X112699642Y-99882144D01*
X112820711Y-99959950D01*
X112820716Y-99959953D01*
X112927172Y-99991211D01*
X112958804Y-100000499D01*
X112958805Y-100000499D01*
X112958808Y-100000500D01*
X112958810Y-100000500D01*
X113102728Y-100000500D01*
X113102730Y-100000500D01*
X113240822Y-99959953D01*
X113361897Y-99882143D01*
X113456146Y-99773373D01*
X113515934Y-99642457D01*
X113525084Y-99578817D01*
X113552079Y-99523910D01*
X113595195Y-99501159D01*
X113646559Y-99501159D01*
X113666756Y-99504063D01*
X113710634Y-99546705D01*
X113721068Y-99578817D01*
X113730218Y-99642455D01*
X113730219Y-99642457D01*
X113790007Y-99773373D01*
X113845379Y-99837276D01*
X113884257Y-99882144D01*
X114005326Y-99959950D01*
X114005331Y-99959953D01*
X114111787Y-99991211D01*
X114143419Y-100000499D01*
X114143420Y-100000499D01*
X114143423Y-100000500D01*
X114143425Y-100000500D01*
X114287343Y-100000500D01*
X114287345Y-100000500D01*
X114425437Y-99959953D01*
X114546512Y-99882143D01*
X114640761Y-99773373D01*
X114700549Y-99642457D01*
X114709700Y-99578813D01*
X114736696Y-99523906D01*
X114784196Y-99498841D01*
X114764011Y-99495940D01*
X114720133Y-99453297D01*
X114709700Y-99421186D01*
X114700549Y-99357543D01*
X114654576Y-99256878D01*
X114640761Y-99226627D01*
X114546512Y-99117857D01*
X114546511Y-99117856D01*
X114546510Y-99117855D01*
X114425441Y-99040049D01*
X114425438Y-99040047D01*
X114425437Y-99040047D01*
X114425434Y-99040046D01*
X114287348Y-98999500D01*
X114287345Y-98999500D01*
X114143423Y-98999500D01*
X114143419Y-98999500D01*
X114005333Y-99040046D01*
X114005326Y-99040049D01*
X113884257Y-99117855D01*
X113790006Y-99226628D01*
X113730218Y-99357543D01*
X113721068Y-99421183D01*
X113694072Y-99476090D01*
X113646559Y-99501159D01*
X113595195Y-99501159D01*
X113599592Y-99498839D01*
X113579395Y-99495935D01*
X113535517Y-99453293D01*
X113525084Y-99421181D01*
X113515934Y-99357544D01*
X113470999Y-99259150D01*
X113456146Y-99226627D01*
X113361897Y-99117857D01*
X113361896Y-99117856D01*
X113361895Y-99117855D01*
X113240826Y-99040049D01*
X113240823Y-99040047D01*
X113240822Y-99040047D01*
X113240819Y-99040046D01*
X113102733Y-98999500D01*
X113102730Y-98999500D01*
X112958808Y-98999500D01*
X112958804Y-98999500D01*
X112820718Y-99040046D01*
X112820711Y-99040049D01*
X112699642Y-99117855D01*
X112605391Y-99226628D01*
X112545603Y-99357543D01*
X112536453Y-99421186D01*
X112509457Y-99476094D01*
X112461957Y-99501157D01*
X112410576Y-99501157D01*
X112414965Y-99498841D01*
X112394780Y-99495940D01*
X112350902Y-99453297D01*
X112340469Y-99421186D01*
X112331318Y-99357543D01*
X112285345Y-99256878D01*
X112271530Y-99226627D01*
X112177281Y-99117857D01*
X112177280Y-99117856D01*
X112177279Y-99117855D01*
X112056210Y-99040049D01*
X112056207Y-99040047D01*
X112056206Y-99040047D01*
X112056203Y-99040046D01*
X111918117Y-98999500D01*
X111918114Y-98999500D01*
X111774192Y-98999500D01*
X111774188Y-98999500D01*
X111636102Y-99040046D01*
X111636095Y-99040049D01*
X111515026Y-99117855D01*
X111420775Y-99226628D01*
X111360987Y-99357543D01*
X111351837Y-99421183D01*
X111324841Y-99476090D01*
X111277328Y-99501159D01*
X111225964Y-99501159D01*
X111230361Y-99498839D01*
X111210164Y-99495935D01*
X111166286Y-99453293D01*
X111155853Y-99421181D01*
X111146703Y-99357544D01*
X111101768Y-99259150D01*
X111086915Y-99226627D01*
X110992666Y-99117857D01*
X110992665Y-99117856D01*
X110992664Y-99117855D01*
X110871595Y-99040049D01*
X110871592Y-99040047D01*
X110871591Y-99040047D01*
X110871588Y-99040046D01*
X110733502Y-98999500D01*
X110733499Y-98999500D01*
X110589577Y-98999500D01*
X110589573Y-98999500D01*
X110451487Y-99040046D01*
X110451480Y-99040049D01*
X110330411Y-99117855D01*
X110236160Y-99226628D01*
X110176372Y-99357543D01*
X110167222Y-99421183D01*
X110140226Y-99476090D01*
X110092713Y-99501159D01*
X110041349Y-99501159D01*
X110045746Y-99498839D01*
X110025549Y-99495935D01*
X109981671Y-99453293D01*
X109971238Y-99421181D01*
X109962088Y-99357544D01*
X109917153Y-99259150D01*
X109902300Y-99226627D01*
X109808051Y-99117857D01*
X109808050Y-99117856D01*
X109808049Y-99117855D01*
X109686980Y-99040049D01*
X109686977Y-99040047D01*
X109686976Y-99040047D01*
X109686973Y-99040046D01*
X109548887Y-98999500D01*
X109548884Y-98999500D01*
X109404962Y-98999500D01*
X109404958Y-98999500D01*
X109266872Y-99040046D01*
X109266865Y-99040049D01*
X109145796Y-99117855D01*
X109051545Y-99226628D01*
X108991757Y-99357543D01*
X108982607Y-99421186D01*
X108955611Y-99476094D01*
X108908111Y-99501157D01*
X108856730Y-99501157D01*
X108861119Y-99498841D01*
X108840934Y-99495940D01*
X108797056Y-99453297D01*
X108786623Y-99421186D01*
X108777472Y-99357543D01*
X108731499Y-99256878D01*
X108717684Y-99226627D01*
X108623435Y-99117857D01*
X108623434Y-99117856D01*
X108623433Y-99117855D01*
X108502364Y-99040049D01*
X108502361Y-99040047D01*
X108502360Y-99040047D01*
X108502357Y-99040046D01*
X108364271Y-98999500D01*
X108364268Y-98999500D01*
X108220346Y-98999500D01*
X108220342Y-98999500D01*
X108082256Y-99040046D01*
X108082249Y-99040049D01*
X107961180Y-99117855D01*
X107866929Y-99226628D01*
X107807141Y-99357543D01*
X107797991Y-99421183D01*
X107770995Y-99476090D01*
X107723482Y-99501159D01*
X107672118Y-99501159D01*
X107676515Y-99498839D01*
X107656318Y-99495935D01*
X107612440Y-99453293D01*
X107602007Y-99421181D01*
X107592857Y-99357544D01*
X107547922Y-99259150D01*
X107533069Y-99226627D01*
X107438820Y-99117857D01*
X107438819Y-99117856D01*
X107438818Y-99117855D01*
X107317749Y-99040049D01*
X107317746Y-99040047D01*
X107317745Y-99040047D01*
X107317742Y-99040046D01*
X107179656Y-98999500D01*
X107179653Y-98999500D01*
X107035731Y-98999500D01*
X107035727Y-98999500D01*
X106897641Y-99040046D01*
X106897634Y-99040049D01*
X106776565Y-99117855D01*
X106682314Y-99226628D01*
X106622526Y-99357543D01*
X106613376Y-99421186D01*
X106586380Y-99476094D01*
X106538880Y-99501157D01*
X106487499Y-99501157D01*
X106491888Y-99498841D01*
X106471703Y-99495940D01*
X106427825Y-99453297D01*
X106417392Y-99421186D01*
X106408241Y-99357543D01*
X106362268Y-99256878D01*
X106348453Y-99226627D01*
X106254204Y-99117857D01*
X106254203Y-99117856D01*
X106254202Y-99117855D01*
X106133133Y-99040049D01*
X106133130Y-99040047D01*
X106133129Y-99040047D01*
X106133126Y-99040046D01*
X105995040Y-98999500D01*
X105995037Y-98999500D01*
X105851115Y-98999500D01*
X105851111Y-98999500D01*
X105713025Y-99040046D01*
X105713018Y-99040049D01*
X105591949Y-99117855D01*
X105497698Y-99226628D01*
X105437910Y-99357543D01*
X105428760Y-99421183D01*
X105401764Y-99476090D01*
X105354251Y-99501159D01*
X105302887Y-99501159D01*
X105307284Y-99498839D01*
X105287087Y-99495935D01*
X105243209Y-99453293D01*
X105232776Y-99421181D01*
X105223626Y-99357544D01*
X105178691Y-99259150D01*
X105163838Y-99226627D01*
X105069589Y-99117857D01*
X105069588Y-99117856D01*
X105069587Y-99117855D01*
X104948518Y-99040049D01*
X104948515Y-99040047D01*
X104948514Y-99040047D01*
X104948511Y-99040046D01*
X104810425Y-98999500D01*
X104810422Y-98999500D01*
X104666500Y-98999500D01*
X104666496Y-98999500D01*
X104528410Y-99040046D01*
X104528403Y-99040049D01*
X104407334Y-99117855D01*
X104313083Y-99226628D01*
X104253295Y-99357543D01*
X104244145Y-99421183D01*
X104217149Y-99476090D01*
X104169636Y-99501159D01*
X104118272Y-99501159D01*
X104122669Y-99498839D01*
X104102472Y-99495935D01*
X104058594Y-99453293D01*
X104048161Y-99421181D01*
X104039011Y-99357544D01*
X103994076Y-99259150D01*
X103979223Y-99226627D01*
X103884974Y-99117857D01*
X103884973Y-99117856D01*
X103884972Y-99117855D01*
X103763903Y-99040049D01*
X103763900Y-99040047D01*
X103763899Y-99040047D01*
X103763896Y-99040046D01*
X103625810Y-98999500D01*
X103625807Y-98999500D01*
X103481885Y-98999500D01*
X103481881Y-98999500D01*
X103343795Y-99040046D01*
X103343788Y-99040049D01*
X103222719Y-99117855D01*
X103128468Y-99226628D01*
X103068680Y-99357543D01*
X103059530Y-99421186D01*
X103032534Y-99476094D01*
X102985034Y-99501157D01*
X102933653Y-99501157D01*
X102938042Y-99498841D01*
X102917857Y-99495940D01*
X102873979Y-99453297D01*
X102863546Y-99421186D01*
X102854395Y-99357543D01*
X102808422Y-99256878D01*
X102794607Y-99226627D01*
X102700358Y-99117857D01*
X102700357Y-99117856D01*
X102700356Y-99117855D01*
X102579287Y-99040049D01*
X102579284Y-99040047D01*
X102579283Y-99040047D01*
X102579280Y-99040046D01*
X102441194Y-98999500D01*
X102441191Y-98999500D01*
X102297269Y-98999500D01*
X102297265Y-98999500D01*
X102159179Y-99040046D01*
X102159172Y-99040049D01*
X102038103Y-99117855D01*
X101943852Y-99226628D01*
X101884064Y-99357543D01*
X101874914Y-99421183D01*
X101847918Y-99476090D01*
X101800405Y-99501159D01*
X101749041Y-99501159D01*
X101753438Y-99498839D01*
X101733241Y-99495935D01*
X101689363Y-99453293D01*
X101678930Y-99421181D01*
X101669780Y-99357544D01*
X101624845Y-99259150D01*
X101609992Y-99226627D01*
X101515743Y-99117857D01*
X101515742Y-99117856D01*
X101515741Y-99117855D01*
X101394672Y-99040049D01*
X101394669Y-99040047D01*
X101394668Y-99040047D01*
X101394665Y-99040046D01*
X101256579Y-98999500D01*
X101256576Y-98999500D01*
X101112654Y-98999500D01*
X101112650Y-98999500D01*
X100974564Y-99040046D01*
X100974557Y-99040049D01*
X100853488Y-99117855D01*
X100759237Y-99226628D01*
X100699449Y-99357543D01*
X100690299Y-99421183D01*
X100663303Y-99476090D01*
X100615790Y-99501159D01*
X100564426Y-99501159D01*
X100568823Y-99498839D01*
X100548626Y-99495935D01*
X100504748Y-99453293D01*
X100494315Y-99421181D01*
X100485165Y-99357544D01*
X100440230Y-99259150D01*
X100425377Y-99226627D01*
X100331128Y-99117857D01*
X100331127Y-99117856D01*
X100331126Y-99117855D01*
X100210057Y-99040049D01*
X100210054Y-99040047D01*
X100210053Y-99040047D01*
X100210050Y-99040046D01*
X100071964Y-98999500D01*
X100071961Y-98999500D01*
X99928039Y-98999500D01*
X99928035Y-98999500D01*
X99789949Y-99040046D01*
X99789942Y-99040049D01*
X99668873Y-99117855D01*
X99574622Y-99226628D01*
X99514834Y-99357543D01*
X99505684Y-99421183D01*
X99478688Y-99476090D01*
X99431175Y-99501159D01*
X99379811Y-99501159D01*
X99384208Y-99498839D01*
X99364011Y-99495935D01*
X99320133Y-99453293D01*
X99309700Y-99421181D01*
X99300550Y-99357544D01*
X99255615Y-99259150D01*
X99240762Y-99226627D01*
X99146513Y-99117857D01*
X99146512Y-99117856D01*
X99146511Y-99117855D01*
X99025442Y-99040049D01*
X99025439Y-99040047D01*
X99025438Y-99040047D01*
X99025435Y-99040046D01*
X98887349Y-98999500D01*
X98887346Y-98999500D01*
X98743424Y-98999500D01*
X98743420Y-98999500D01*
X98605334Y-99040046D01*
X98605327Y-99040049D01*
X98484258Y-99117855D01*
X98390007Y-99226628D01*
X98330219Y-99357543D01*
X98321069Y-99421183D01*
X98294073Y-99476090D01*
X98246560Y-99501159D01*
X98195196Y-99501159D01*
X98199593Y-99498839D01*
X98179396Y-99495935D01*
X98135518Y-99453293D01*
X98125085Y-99421181D01*
X98115935Y-99357544D01*
X98071000Y-99259150D01*
X98056147Y-99226627D01*
X97961898Y-99117857D01*
X97961897Y-99117856D01*
X97961896Y-99117855D01*
X97840827Y-99040049D01*
X97840824Y-99040047D01*
X97840823Y-99040047D01*
X97840820Y-99040046D01*
X97702734Y-98999500D01*
X97702731Y-98999500D01*
X97558809Y-98999500D01*
X97558805Y-98999500D01*
X97420719Y-99040046D01*
X97420712Y-99040049D01*
X97299643Y-99117855D01*
X97205392Y-99226628D01*
X97145604Y-99357543D01*
X97136454Y-99421186D01*
X97109458Y-99476094D01*
X97061958Y-99501157D01*
X97010577Y-99501157D01*
X97014966Y-99498841D01*
X96994781Y-99495940D01*
X96950903Y-99453297D01*
X96940470Y-99421186D01*
X96931319Y-99357543D01*
X96885346Y-99256878D01*
X96871531Y-99226627D01*
X96777282Y-99117857D01*
X96777281Y-99117856D01*
X96777280Y-99117855D01*
X96656211Y-99040049D01*
X96656208Y-99040047D01*
X96656207Y-99040047D01*
X96656204Y-99040046D01*
X96518118Y-98999500D01*
X96518115Y-98999500D01*
X96374193Y-98999500D01*
X96374189Y-98999500D01*
X96236103Y-99040046D01*
X96236096Y-99040049D01*
X96115027Y-99117855D01*
X96020776Y-99226628D01*
X95960988Y-99357543D01*
X95951838Y-99421183D01*
X95924842Y-99476090D01*
X95877329Y-99501159D01*
X95825965Y-99501159D01*
X95830362Y-99498839D01*
X95810165Y-99495935D01*
X95766287Y-99453293D01*
X95755854Y-99421181D01*
X95746704Y-99357544D01*
X95701769Y-99259150D01*
X95686916Y-99226627D01*
X95592667Y-99117857D01*
X95592666Y-99117856D01*
X95592665Y-99117855D01*
X95471596Y-99040049D01*
X95471593Y-99040047D01*
X95471592Y-99040047D01*
X95471589Y-99040046D01*
X95333503Y-98999500D01*
X95333500Y-98999500D01*
X95189578Y-98999500D01*
X95189574Y-98999500D01*
X95051488Y-99040046D01*
X95051481Y-99040049D01*
X94930412Y-99117855D01*
X94836161Y-99226628D01*
X94776373Y-99357543D01*
X94767223Y-99421183D01*
X94740227Y-99476090D01*
X94692714Y-99501159D01*
X94641350Y-99501159D01*
X94645747Y-99498839D01*
X94625550Y-99495935D01*
X94581672Y-99453293D01*
X94571239Y-99421181D01*
X94562089Y-99357544D01*
X94517154Y-99259150D01*
X94502301Y-99226627D01*
X94408052Y-99117857D01*
X94408051Y-99117856D01*
X94408050Y-99117855D01*
X94286981Y-99040049D01*
X94286978Y-99040047D01*
X94286977Y-99040047D01*
X94286974Y-99040046D01*
X94148888Y-98999500D01*
X94148885Y-98999500D01*
X94004963Y-98999500D01*
X94004959Y-98999500D01*
X93866873Y-99040046D01*
X93866866Y-99040049D01*
X93745797Y-99117855D01*
X93651546Y-99226628D01*
X93591758Y-99357543D01*
X93582608Y-99421186D01*
X93555612Y-99476094D01*
X93508112Y-99501157D01*
X93456731Y-99501157D01*
X93461120Y-99498841D01*
X93440935Y-99495940D01*
X93397057Y-99453297D01*
X93386624Y-99421186D01*
X93377473Y-99357543D01*
X93331500Y-99256878D01*
X93317685Y-99226627D01*
X93223436Y-99117857D01*
X93223435Y-99117856D01*
X93223434Y-99117855D01*
X93102365Y-99040049D01*
X93102362Y-99040047D01*
X93102361Y-99040047D01*
X93102358Y-99040046D01*
X92964272Y-98999500D01*
X92964269Y-98999500D01*
X92820347Y-98999500D01*
X92820343Y-98999500D01*
X92682257Y-99040046D01*
X92682250Y-99040049D01*
X92561181Y-99117855D01*
X92466930Y-99226628D01*
X92407142Y-99357543D01*
X92397992Y-99421183D01*
X92370996Y-99476090D01*
X92323483Y-99501159D01*
X92272119Y-99501159D01*
X92276516Y-99498839D01*
X92256319Y-99495935D01*
X92212441Y-99453293D01*
X92202008Y-99421181D01*
X92192858Y-99357544D01*
X92147923Y-99259150D01*
X92133070Y-99226627D01*
X92038821Y-99117857D01*
X92038820Y-99117856D01*
X92038819Y-99117855D01*
X91917750Y-99040049D01*
X91917747Y-99040047D01*
X91917746Y-99040047D01*
X91917743Y-99040046D01*
X91779657Y-98999500D01*
X91779654Y-98999500D01*
X91635732Y-98999500D01*
X91635728Y-98999500D01*
X91497642Y-99040046D01*
X91497635Y-99040049D01*
X91376566Y-99117855D01*
X91282315Y-99226628D01*
X91222527Y-99357543D01*
X91213377Y-99421186D01*
X91186381Y-99476094D01*
X91138881Y-99501157D01*
X91087500Y-99501157D01*
X91091889Y-99498841D01*
X91071704Y-99495940D01*
X91027826Y-99453297D01*
X91017393Y-99421186D01*
X91008242Y-99357543D01*
X90962269Y-99256878D01*
X90948454Y-99226627D01*
X90854205Y-99117857D01*
X90854204Y-99117856D01*
X90854203Y-99117855D01*
X90733134Y-99040049D01*
X90733131Y-99040047D01*
X90733130Y-99040047D01*
X90733127Y-99040046D01*
X90595041Y-98999500D01*
X90595038Y-98999500D01*
X90451116Y-98999500D01*
X90451112Y-98999500D01*
X90313026Y-99040046D01*
X90313019Y-99040049D01*
X90191950Y-99117855D01*
X90097699Y-99226628D01*
X90037911Y-99357543D01*
X90028761Y-99421183D01*
X90001765Y-99476090D01*
X89954252Y-99501159D01*
X89902888Y-99501159D01*
X89907285Y-99498839D01*
X89887088Y-99495935D01*
X89843210Y-99453293D01*
X89832777Y-99421181D01*
X89823627Y-99357544D01*
X89778692Y-99259150D01*
X89763839Y-99226627D01*
X89669590Y-99117857D01*
X89669589Y-99117856D01*
X89669588Y-99117855D01*
X89548519Y-99040049D01*
X89548516Y-99040047D01*
X89548515Y-99040047D01*
X89548512Y-99040046D01*
X89410426Y-98999500D01*
X89410423Y-98999500D01*
X89266501Y-98999500D01*
X89266497Y-98999500D01*
X89128411Y-99040046D01*
X89128404Y-99040049D01*
X89007335Y-99117855D01*
X88913084Y-99226628D01*
X88853296Y-99357543D01*
X88844146Y-99421183D01*
X88817150Y-99476090D01*
X88769637Y-99501159D01*
X88718273Y-99501159D01*
X88722670Y-99498839D01*
X88702473Y-99495935D01*
X88658595Y-99453293D01*
X88648162Y-99421181D01*
X88639012Y-99357544D01*
X88594077Y-99259150D01*
X88579224Y-99226627D01*
X88484975Y-99117857D01*
X88484974Y-99117856D01*
X88484973Y-99117855D01*
X88363904Y-99040049D01*
X88363901Y-99040047D01*
X88363900Y-99040047D01*
X88363897Y-99040046D01*
X88225811Y-98999500D01*
X88225808Y-98999500D01*
X88081886Y-98999500D01*
X88081882Y-98999500D01*
X87943796Y-99040046D01*
X87943789Y-99040049D01*
X87822720Y-99117855D01*
X87728469Y-99226628D01*
X87668681Y-99357543D01*
X87659531Y-99421186D01*
X87632535Y-99476094D01*
X87585035Y-99501157D01*
X87533654Y-99501157D01*
X87538043Y-99498841D01*
X87517858Y-99495940D01*
X87473980Y-99453297D01*
X87463547Y-99421186D01*
X87454396Y-99357543D01*
X87408423Y-99256878D01*
X87394608Y-99226627D01*
X87300359Y-99117857D01*
X87300358Y-99117856D01*
X87300357Y-99117855D01*
X87179288Y-99040049D01*
X87179285Y-99040047D01*
X87179284Y-99040047D01*
X87179281Y-99040046D01*
X87041195Y-98999500D01*
X87041192Y-98999500D01*
X86897270Y-98999500D01*
X86897266Y-98999500D01*
X86759180Y-99040046D01*
X86759173Y-99040049D01*
X86638104Y-99117855D01*
X86543853Y-99226628D01*
X86484065Y-99357543D01*
X86474915Y-99421183D01*
X86447919Y-99476090D01*
X86400406Y-99501159D01*
X86349042Y-99501159D01*
X86353439Y-99498839D01*
X86333242Y-99495935D01*
X86289364Y-99453293D01*
X86278931Y-99421181D01*
X86269781Y-99357544D01*
X86224846Y-99259150D01*
X86209993Y-99226627D01*
X86115744Y-99117857D01*
X86115743Y-99117856D01*
X86115742Y-99117855D01*
X85994673Y-99040049D01*
X85994670Y-99040047D01*
X85994669Y-99040047D01*
X85994666Y-99040046D01*
X85856580Y-98999500D01*
X85856577Y-98999500D01*
X85712655Y-98999500D01*
X85712651Y-98999500D01*
X85574565Y-99040046D01*
X85574558Y-99040049D01*
X85453489Y-99117855D01*
X85359238Y-99226628D01*
X85299450Y-99357543D01*
X85290300Y-99421186D01*
X85263304Y-99476094D01*
X85215804Y-99501157D01*
X85164423Y-99501157D01*
X85168812Y-99498841D01*
X85148627Y-99495940D01*
X85104749Y-99453297D01*
X85094316Y-99421186D01*
X85085165Y-99357543D01*
X85039192Y-99256878D01*
X85025377Y-99226627D01*
X84931128Y-99117857D01*
X84931127Y-99117856D01*
X84931126Y-99117855D01*
X84810057Y-99040049D01*
X84810054Y-99040047D01*
X84810053Y-99040047D01*
X84810050Y-99040046D01*
X84671964Y-98999500D01*
X84671961Y-98999500D01*
X84528039Y-98999500D01*
X84528035Y-98999500D01*
X84389949Y-99040046D01*
X84389942Y-99040049D01*
X84268872Y-99117856D01*
X84268870Y-99117858D01*
X84173819Y-99227554D01*
X84121423Y-99259150D01*
X84060463Y-99253914D01*
X84014222Y-99213847D01*
X84000000Y-99162723D01*
X84000000Y-91637276D01*
X84018907Y-91579085D01*
X84068407Y-91543121D01*
X84129593Y-91543121D01*
X84173820Y-91572445D01*
X84174621Y-91573370D01*
X84174623Y-91573373D01*
X84229995Y-91637276D01*
X84268873Y-91682144D01*
X84389942Y-91759950D01*
X84389947Y-91759953D01*
X84496403Y-91791211D01*
X84528035Y-91800499D01*
X84528036Y-91800499D01*
X84528039Y-91800500D01*
X84528041Y-91800500D01*
X84671959Y-91800500D01*
X84671961Y-91800500D01*
X84810053Y-91759953D01*
X84931128Y-91682143D01*
X85025377Y-91573373D01*
X85085165Y-91442457D01*
X85094316Y-91378813D01*
X85121312Y-91323906D01*
X85164423Y-91301157D01*
X85215804Y-91301157D01*
X85235988Y-91304059D01*
X85279867Y-91346701D01*
X85290300Y-91378813D01*
X85299450Y-91442456D01*
X85345423Y-91543121D01*
X85359239Y-91573373D01*
X85414611Y-91637276D01*
X85453489Y-91682144D01*
X85574558Y-91759950D01*
X85574563Y-91759953D01*
X85681019Y-91791211D01*
X85712651Y-91800499D01*
X85712652Y-91800499D01*
X85712655Y-91800500D01*
X85712657Y-91800500D01*
X85856575Y-91800500D01*
X85856577Y-91800500D01*
X85994669Y-91759953D01*
X86115744Y-91682143D01*
X86209993Y-91573373D01*
X86269781Y-91442457D01*
X86278931Y-91378817D01*
X86305926Y-91323910D01*
X86349042Y-91301159D01*
X86400406Y-91301159D01*
X86420603Y-91304063D01*
X86464481Y-91346705D01*
X86474915Y-91378817D01*
X86484065Y-91442455D01*
X86484066Y-91442457D01*
X86543854Y-91573373D01*
X86599226Y-91637276D01*
X86638104Y-91682144D01*
X86759173Y-91759950D01*
X86759178Y-91759953D01*
X86865634Y-91791211D01*
X86897266Y-91800499D01*
X86897267Y-91800499D01*
X86897270Y-91800500D01*
X86897272Y-91800500D01*
X87041190Y-91800500D01*
X87041192Y-91800500D01*
X87179284Y-91759953D01*
X87300359Y-91682143D01*
X87394608Y-91573373D01*
X87454396Y-91442457D01*
X87463547Y-91378813D01*
X87490543Y-91323906D01*
X87533654Y-91301157D01*
X87585035Y-91301157D01*
X87605219Y-91304059D01*
X87649098Y-91346701D01*
X87659531Y-91378813D01*
X87668681Y-91442456D01*
X87714654Y-91543121D01*
X87728470Y-91573373D01*
X87783842Y-91637276D01*
X87822720Y-91682144D01*
X87943789Y-91759950D01*
X87943794Y-91759953D01*
X88050250Y-91791211D01*
X88081882Y-91800499D01*
X88081883Y-91800499D01*
X88081886Y-91800500D01*
X88081888Y-91800500D01*
X88225806Y-91800500D01*
X88225808Y-91800500D01*
X88363900Y-91759953D01*
X88484975Y-91682143D01*
X88579224Y-91573373D01*
X88639012Y-91442457D01*
X88648162Y-91378817D01*
X88675157Y-91323910D01*
X88718273Y-91301159D01*
X88769637Y-91301159D01*
X88789834Y-91304063D01*
X88833712Y-91346705D01*
X88844146Y-91378817D01*
X88853296Y-91442455D01*
X88853297Y-91442457D01*
X88913085Y-91573373D01*
X88968457Y-91637276D01*
X89007335Y-91682144D01*
X89128404Y-91759950D01*
X89128409Y-91759953D01*
X89234865Y-91791211D01*
X89266497Y-91800499D01*
X89266498Y-91800499D01*
X89266501Y-91800500D01*
X89266503Y-91800500D01*
X89410421Y-91800500D01*
X89410423Y-91800500D01*
X89548515Y-91759953D01*
X89669590Y-91682143D01*
X89763839Y-91573373D01*
X89823627Y-91442457D01*
X89832777Y-91378817D01*
X89859772Y-91323910D01*
X89902888Y-91301159D01*
X89954252Y-91301159D01*
X89974449Y-91304063D01*
X90018327Y-91346705D01*
X90028761Y-91378817D01*
X90037911Y-91442455D01*
X90037912Y-91442457D01*
X90097700Y-91573373D01*
X90153072Y-91637276D01*
X90191950Y-91682144D01*
X90313019Y-91759950D01*
X90313024Y-91759953D01*
X90419480Y-91791211D01*
X90451112Y-91800499D01*
X90451113Y-91800499D01*
X90451116Y-91800500D01*
X90451118Y-91800500D01*
X90595036Y-91800500D01*
X90595038Y-91800500D01*
X90733130Y-91759953D01*
X90854205Y-91682143D01*
X90948454Y-91573373D01*
X91008242Y-91442457D01*
X91017393Y-91378813D01*
X91044389Y-91323906D01*
X91087500Y-91301157D01*
X91138881Y-91301157D01*
X91159065Y-91304059D01*
X91202944Y-91346701D01*
X91213377Y-91378813D01*
X91222527Y-91442456D01*
X91268500Y-91543121D01*
X91282316Y-91573373D01*
X91337688Y-91637276D01*
X91376566Y-91682144D01*
X91497635Y-91759950D01*
X91497640Y-91759953D01*
X91604096Y-91791211D01*
X91635728Y-91800499D01*
X91635729Y-91800499D01*
X91635732Y-91800500D01*
X91635734Y-91800500D01*
X91779652Y-91800500D01*
X91779654Y-91800500D01*
X91917746Y-91759953D01*
X92038821Y-91682143D01*
X92133070Y-91573373D01*
X92192858Y-91442457D01*
X92202008Y-91378817D01*
X92229003Y-91323910D01*
X92272119Y-91301159D01*
X92323483Y-91301159D01*
X92343680Y-91304063D01*
X92387558Y-91346705D01*
X92397992Y-91378817D01*
X92407142Y-91442455D01*
X92407143Y-91442457D01*
X92466931Y-91573373D01*
X92522303Y-91637276D01*
X92561181Y-91682144D01*
X92682250Y-91759950D01*
X92682255Y-91759953D01*
X92788711Y-91791211D01*
X92820343Y-91800499D01*
X92820344Y-91800499D01*
X92820347Y-91800500D01*
X92820349Y-91800500D01*
X92964267Y-91800500D01*
X92964269Y-91800500D01*
X93102361Y-91759953D01*
X93223436Y-91682143D01*
X93317685Y-91573373D01*
X93377473Y-91442457D01*
X93386624Y-91378813D01*
X93413620Y-91323906D01*
X93456731Y-91301157D01*
X93508112Y-91301157D01*
X93528296Y-91304059D01*
X93572175Y-91346701D01*
X93582608Y-91378813D01*
X93591758Y-91442456D01*
X93637731Y-91543121D01*
X93651547Y-91573373D01*
X93706919Y-91637276D01*
X93745797Y-91682144D01*
X93866866Y-91759950D01*
X93866871Y-91759953D01*
X93973327Y-91791211D01*
X94004959Y-91800499D01*
X94004960Y-91800499D01*
X94004963Y-91800500D01*
X94004965Y-91800500D01*
X94148883Y-91800500D01*
X94148885Y-91800500D01*
X94286977Y-91759953D01*
X94408052Y-91682143D01*
X94502301Y-91573373D01*
X94562089Y-91442457D01*
X94571239Y-91378817D01*
X94598234Y-91323910D01*
X94641350Y-91301159D01*
X94692714Y-91301159D01*
X94712911Y-91304063D01*
X94756789Y-91346705D01*
X94767223Y-91378817D01*
X94776373Y-91442455D01*
X94776374Y-91442457D01*
X94836162Y-91573373D01*
X94891534Y-91637276D01*
X94930412Y-91682144D01*
X95051481Y-91759950D01*
X95051486Y-91759953D01*
X95157942Y-91791211D01*
X95189574Y-91800499D01*
X95189575Y-91800499D01*
X95189578Y-91800500D01*
X95189580Y-91800500D01*
X95333498Y-91800500D01*
X95333500Y-91800500D01*
X95471592Y-91759953D01*
X95592667Y-91682143D01*
X95686916Y-91573373D01*
X95746704Y-91442457D01*
X95755854Y-91378817D01*
X95782849Y-91323910D01*
X95825965Y-91301159D01*
X95877329Y-91301159D01*
X95897526Y-91304063D01*
X95941404Y-91346705D01*
X95951838Y-91378817D01*
X95960988Y-91442455D01*
X95960989Y-91442457D01*
X96020777Y-91573373D01*
X96076149Y-91637276D01*
X96115027Y-91682144D01*
X96236096Y-91759950D01*
X96236101Y-91759953D01*
X96342557Y-91791211D01*
X96374189Y-91800499D01*
X96374190Y-91800499D01*
X96374193Y-91800500D01*
X96374195Y-91800500D01*
X96518113Y-91800500D01*
X96518115Y-91800500D01*
X96656207Y-91759953D01*
X96777282Y-91682143D01*
X96871531Y-91573373D01*
X96931319Y-91442457D01*
X96940470Y-91378813D01*
X96967466Y-91323906D01*
X97010577Y-91301157D01*
X97061958Y-91301157D01*
X97082142Y-91304059D01*
X97126021Y-91346701D01*
X97136454Y-91378813D01*
X97145604Y-91442456D01*
X97191577Y-91543121D01*
X97205393Y-91573373D01*
X97260765Y-91637276D01*
X97299643Y-91682144D01*
X97420712Y-91759950D01*
X97420717Y-91759953D01*
X97527173Y-91791211D01*
X97558805Y-91800499D01*
X97558806Y-91800499D01*
X97558809Y-91800500D01*
X97558811Y-91800500D01*
X97702729Y-91800500D01*
X97702731Y-91800500D01*
X97840823Y-91759953D01*
X97961898Y-91682143D01*
X98056147Y-91573373D01*
X98115935Y-91442457D01*
X98125085Y-91378817D01*
X98152080Y-91323910D01*
X98195196Y-91301159D01*
X98246560Y-91301159D01*
X98266757Y-91304063D01*
X98310635Y-91346705D01*
X98321069Y-91378817D01*
X98330219Y-91442455D01*
X98330220Y-91442457D01*
X98390008Y-91573373D01*
X98445380Y-91637276D01*
X98484258Y-91682144D01*
X98605327Y-91759950D01*
X98605332Y-91759953D01*
X98711788Y-91791211D01*
X98743420Y-91800499D01*
X98743421Y-91800499D01*
X98743424Y-91800500D01*
X98743426Y-91800500D01*
X98887344Y-91800500D01*
X98887346Y-91800500D01*
X99025438Y-91759953D01*
X99146513Y-91682143D01*
X99240762Y-91573373D01*
X99300550Y-91442457D01*
X99309700Y-91378817D01*
X99336695Y-91323910D01*
X99379811Y-91301159D01*
X99431175Y-91301159D01*
X99451372Y-91304063D01*
X99495250Y-91346705D01*
X99505684Y-91378817D01*
X99514834Y-91442455D01*
X99514835Y-91442457D01*
X99574623Y-91573373D01*
X99629995Y-91637276D01*
X99668873Y-91682144D01*
X99789942Y-91759950D01*
X99789947Y-91759953D01*
X99896403Y-91791211D01*
X99928035Y-91800499D01*
X99928036Y-91800499D01*
X99928039Y-91800500D01*
X99928041Y-91800500D01*
X100071959Y-91800500D01*
X100071961Y-91800500D01*
X100210053Y-91759953D01*
X100331128Y-91682143D01*
X100425377Y-91573373D01*
X100485165Y-91442457D01*
X100494315Y-91378817D01*
X100521310Y-91323910D01*
X100564426Y-91301159D01*
X100615790Y-91301159D01*
X100635987Y-91304063D01*
X100679865Y-91346705D01*
X100690299Y-91378817D01*
X100699449Y-91442455D01*
X100699450Y-91442457D01*
X100759238Y-91573373D01*
X100814610Y-91637276D01*
X100853488Y-91682144D01*
X100974557Y-91759950D01*
X100974562Y-91759953D01*
X101081018Y-91791211D01*
X101112650Y-91800499D01*
X101112651Y-91800499D01*
X101112654Y-91800500D01*
X101112656Y-91800500D01*
X101256574Y-91800500D01*
X101256576Y-91800500D01*
X101394668Y-91759953D01*
X101515743Y-91682143D01*
X101609992Y-91573373D01*
X101669780Y-91442457D01*
X101678930Y-91378817D01*
X101705925Y-91323910D01*
X101749041Y-91301159D01*
X101800405Y-91301159D01*
X101820602Y-91304063D01*
X101864480Y-91346705D01*
X101874914Y-91378817D01*
X101884064Y-91442455D01*
X101884065Y-91442457D01*
X101943853Y-91573373D01*
X101999225Y-91637276D01*
X102038103Y-91682144D01*
X102159172Y-91759950D01*
X102159177Y-91759953D01*
X102265633Y-91791211D01*
X102297265Y-91800499D01*
X102297266Y-91800499D01*
X102297269Y-91800500D01*
X102297271Y-91800500D01*
X102441189Y-91800500D01*
X102441191Y-91800500D01*
X102579283Y-91759953D01*
X102700358Y-91682143D01*
X102794607Y-91573373D01*
X102854395Y-91442457D01*
X102863546Y-91378813D01*
X102890542Y-91323906D01*
X102933653Y-91301157D01*
X102985034Y-91301157D01*
X103005218Y-91304059D01*
X103049097Y-91346701D01*
X103059530Y-91378813D01*
X103068680Y-91442456D01*
X103114653Y-91543121D01*
X103128469Y-91573373D01*
X103183841Y-91637276D01*
X103222719Y-91682144D01*
X103343788Y-91759950D01*
X103343793Y-91759953D01*
X103450249Y-91791211D01*
X103481881Y-91800499D01*
X103481882Y-91800499D01*
X103481885Y-91800500D01*
X103481887Y-91800500D01*
X103625805Y-91800500D01*
X103625807Y-91800500D01*
X103763899Y-91759953D01*
X103884974Y-91682143D01*
X103979223Y-91573373D01*
X104039011Y-91442457D01*
X104048161Y-91378817D01*
X104075156Y-91323910D01*
X104118272Y-91301159D01*
X104169636Y-91301159D01*
X104189833Y-91304063D01*
X104233711Y-91346705D01*
X104244145Y-91378817D01*
X104253295Y-91442455D01*
X104253296Y-91442457D01*
X104313084Y-91573373D01*
X104368456Y-91637276D01*
X104407334Y-91682144D01*
X104528403Y-91759950D01*
X104528408Y-91759953D01*
X104634864Y-91791211D01*
X104666496Y-91800499D01*
X104666497Y-91800499D01*
X104666500Y-91800500D01*
X104666502Y-91800500D01*
X104810420Y-91800500D01*
X104810422Y-91800500D01*
X104948514Y-91759953D01*
X105069589Y-91682143D01*
X105163838Y-91573373D01*
X105223626Y-91442457D01*
X105232776Y-91378817D01*
X105259771Y-91323910D01*
X105302887Y-91301159D01*
X105354251Y-91301159D01*
X105374448Y-91304063D01*
X105418326Y-91346705D01*
X105428760Y-91378817D01*
X105437910Y-91442455D01*
X105437911Y-91442457D01*
X105497699Y-91573373D01*
X105553071Y-91637276D01*
X105591949Y-91682144D01*
X105713018Y-91759950D01*
X105713023Y-91759953D01*
X105819479Y-91791211D01*
X105851111Y-91800499D01*
X105851112Y-91800499D01*
X105851115Y-91800500D01*
X105851117Y-91800500D01*
X105995035Y-91800500D01*
X105995037Y-91800500D01*
X106133129Y-91759953D01*
X106254204Y-91682143D01*
X106348453Y-91573373D01*
X106408241Y-91442457D01*
X106417392Y-91378813D01*
X106444388Y-91323906D01*
X106487499Y-91301157D01*
X106538880Y-91301157D01*
X106559064Y-91304059D01*
X106602943Y-91346701D01*
X106613376Y-91378813D01*
X106622526Y-91442456D01*
X106668499Y-91543121D01*
X106682315Y-91573373D01*
X106737687Y-91637276D01*
X106776565Y-91682144D01*
X106897634Y-91759950D01*
X106897639Y-91759953D01*
X107004095Y-91791211D01*
X107035727Y-91800499D01*
X107035728Y-91800499D01*
X107035731Y-91800500D01*
X107035733Y-91800500D01*
X107179651Y-91800500D01*
X107179653Y-91800500D01*
X107317745Y-91759953D01*
X107438820Y-91682143D01*
X107533069Y-91573373D01*
X107592857Y-91442457D01*
X107602007Y-91378817D01*
X107629002Y-91323910D01*
X107672118Y-91301159D01*
X107723482Y-91301159D01*
X107743679Y-91304063D01*
X107787557Y-91346705D01*
X107797991Y-91378817D01*
X107807141Y-91442455D01*
X107807142Y-91442457D01*
X107866930Y-91573373D01*
X107922302Y-91637276D01*
X107961180Y-91682144D01*
X108082249Y-91759950D01*
X108082254Y-91759953D01*
X108188710Y-91791211D01*
X108220342Y-91800499D01*
X108220343Y-91800499D01*
X108220346Y-91800500D01*
X108220348Y-91800500D01*
X108364266Y-91800500D01*
X108364268Y-91800500D01*
X108502360Y-91759953D01*
X108623435Y-91682143D01*
X108717684Y-91573373D01*
X108777472Y-91442457D01*
X108786623Y-91378813D01*
X108813619Y-91323906D01*
X108856730Y-91301157D01*
X108908111Y-91301157D01*
X108928295Y-91304059D01*
X108972174Y-91346701D01*
X108982607Y-91378813D01*
X108991757Y-91442456D01*
X109037730Y-91543121D01*
X109051546Y-91573373D01*
X109106918Y-91637276D01*
X109145796Y-91682144D01*
X109266865Y-91759950D01*
X109266870Y-91759953D01*
X109373326Y-91791211D01*
X109404958Y-91800499D01*
X109404959Y-91800499D01*
X109404962Y-91800500D01*
X109404964Y-91800500D01*
X109548882Y-91800500D01*
X109548884Y-91800500D01*
X109686976Y-91759953D01*
X109808051Y-91682143D01*
X109902300Y-91573373D01*
X109962088Y-91442457D01*
X109971238Y-91378817D01*
X109998233Y-91323910D01*
X110041349Y-91301159D01*
X110092713Y-91301159D01*
X110112910Y-91304063D01*
X110156788Y-91346705D01*
X110167222Y-91378817D01*
X110176372Y-91442455D01*
X110176373Y-91442457D01*
X110236161Y-91573373D01*
X110291533Y-91637276D01*
X110330411Y-91682144D01*
X110451480Y-91759950D01*
X110451485Y-91759953D01*
X110557941Y-91791211D01*
X110589573Y-91800499D01*
X110589574Y-91800499D01*
X110589577Y-91800500D01*
X110589579Y-91800500D01*
X110733497Y-91800500D01*
X110733499Y-91800500D01*
X110871591Y-91759953D01*
X110992666Y-91682143D01*
X111086915Y-91573373D01*
X111146703Y-91442457D01*
X111155853Y-91378817D01*
X111182848Y-91323910D01*
X111225964Y-91301159D01*
X111277328Y-91301159D01*
X111297525Y-91304063D01*
X111341403Y-91346705D01*
X111351837Y-91378817D01*
X111360987Y-91442455D01*
X111360988Y-91442457D01*
X111420776Y-91573373D01*
X111476148Y-91637276D01*
X111515026Y-91682144D01*
X111636095Y-91759950D01*
X111636100Y-91759953D01*
X111742556Y-91791211D01*
X111774188Y-91800499D01*
X111774189Y-91800499D01*
X111774192Y-91800500D01*
X111774194Y-91800500D01*
X111918112Y-91800500D01*
X111918114Y-91800500D01*
X112056206Y-91759953D01*
X112177281Y-91682143D01*
X112271530Y-91573373D01*
X112331318Y-91442457D01*
X112340469Y-91378813D01*
X112367465Y-91323906D01*
X112410576Y-91301157D01*
X112461957Y-91301157D01*
X112482141Y-91304059D01*
X112526020Y-91346701D01*
X112536453Y-91378813D01*
X112545603Y-91442456D01*
X112591576Y-91543121D01*
X112605392Y-91573373D01*
X112660764Y-91637276D01*
X112699642Y-91682144D01*
X112820711Y-91759950D01*
X112820716Y-91759953D01*
X112927172Y-91791211D01*
X112958804Y-91800499D01*
X112958805Y-91800499D01*
X112958808Y-91800500D01*
X112958810Y-91800500D01*
X113102728Y-91800500D01*
X113102730Y-91800500D01*
X113240822Y-91759953D01*
X113361897Y-91682143D01*
X113456146Y-91573373D01*
X113515934Y-91442457D01*
X113525084Y-91378817D01*
X113552079Y-91323910D01*
X113595195Y-91301159D01*
X113646559Y-91301159D01*
X113666756Y-91304063D01*
X113710634Y-91346705D01*
X113721068Y-91378817D01*
X113730218Y-91442455D01*
X113730219Y-91442457D01*
X113790007Y-91573373D01*
X113845379Y-91637276D01*
X113884257Y-91682144D01*
X114005326Y-91759950D01*
X114005331Y-91759953D01*
X114111787Y-91791211D01*
X114143419Y-91800499D01*
X114143420Y-91800499D01*
X114143423Y-91800500D01*
X114143425Y-91800500D01*
X114287343Y-91800500D01*
X114287345Y-91800500D01*
X114425437Y-91759953D01*
X114546512Y-91682143D01*
X114640761Y-91573373D01*
X114700549Y-91442457D01*
X114709700Y-91378813D01*
X114736696Y-91323906D01*
X114784196Y-91298841D01*
X114764011Y-91295940D01*
X114720133Y-91253297D01*
X114709700Y-91221186D01*
X114700549Y-91157543D01*
X114654576Y-91056878D01*
X114640761Y-91026627D01*
X114546512Y-90917857D01*
X114546511Y-90917856D01*
X114546510Y-90917855D01*
X114425441Y-90840049D01*
X114425438Y-90840047D01*
X114425437Y-90840047D01*
X114425434Y-90840046D01*
X114287348Y-90799500D01*
X114287345Y-90799500D01*
X114143423Y-90799500D01*
X114143419Y-90799500D01*
X114005333Y-90840046D01*
X114005326Y-90840049D01*
X113884257Y-90917855D01*
X113790006Y-91026628D01*
X113730218Y-91157543D01*
X113721068Y-91221183D01*
X113694072Y-91276090D01*
X113646559Y-91301159D01*
X113595195Y-91301159D01*
X113599592Y-91298839D01*
X113579395Y-91295935D01*
X113535517Y-91253293D01*
X113525084Y-91221181D01*
X113515934Y-91157544D01*
X113470999Y-91059150D01*
X113456146Y-91026627D01*
X113361897Y-90917857D01*
X113361896Y-90917856D01*
X113361895Y-90917855D01*
X113240826Y-90840049D01*
X113240823Y-90840047D01*
X113240822Y-90840047D01*
X113240819Y-90840046D01*
X113102733Y-90799500D01*
X113102730Y-90799500D01*
X112958808Y-90799500D01*
X112958804Y-90799500D01*
X112820718Y-90840046D01*
X112820711Y-90840049D01*
X112699642Y-90917855D01*
X112605391Y-91026628D01*
X112545603Y-91157543D01*
X112536453Y-91221186D01*
X112509457Y-91276094D01*
X112461957Y-91301157D01*
X112410576Y-91301157D01*
X112414965Y-91298841D01*
X112394780Y-91295940D01*
X112350902Y-91253297D01*
X112340469Y-91221186D01*
X112331318Y-91157543D01*
X112285345Y-91056878D01*
X112271530Y-91026627D01*
X112177281Y-90917857D01*
X112177280Y-90917856D01*
X112177279Y-90917855D01*
X112056210Y-90840049D01*
X112056207Y-90840047D01*
X112056206Y-90840047D01*
X112056203Y-90840046D01*
X111918117Y-90799500D01*
X111918114Y-90799500D01*
X111774192Y-90799500D01*
X111774188Y-90799500D01*
X111636102Y-90840046D01*
X111636095Y-90840049D01*
X111515026Y-90917855D01*
X111420775Y-91026628D01*
X111360987Y-91157543D01*
X111351837Y-91221183D01*
X111324841Y-91276090D01*
X111277328Y-91301159D01*
X111225964Y-91301159D01*
X111230361Y-91298839D01*
X111210164Y-91295935D01*
X111166286Y-91253293D01*
X111155853Y-91221181D01*
X111146703Y-91157544D01*
X111101768Y-91059150D01*
X111086915Y-91026627D01*
X110992666Y-90917857D01*
X110992665Y-90917856D01*
X110992664Y-90917855D01*
X110871595Y-90840049D01*
X110871592Y-90840047D01*
X110871591Y-90840047D01*
X110871588Y-90840046D01*
X110733502Y-90799500D01*
X110733499Y-90799500D01*
X110589577Y-90799500D01*
X110589573Y-90799500D01*
X110451487Y-90840046D01*
X110451480Y-90840049D01*
X110330411Y-90917855D01*
X110236160Y-91026628D01*
X110176372Y-91157543D01*
X110167222Y-91221183D01*
X110140226Y-91276090D01*
X110092713Y-91301159D01*
X110041349Y-91301159D01*
X110045746Y-91298839D01*
X110025549Y-91295935D01*
X109981671Y-91253293D01*
X109971238Y-91221181D01*
X109962088Y-91157544D01*
X109917153Y-91059150D01*
X109902300Y-91026627D01*
X109808051Y-90917857D01*
X109808050Y-90917856D01*
X109808049Y-90917855D01*
X109686980Y-90840049D01*
X109686977Y-90840047D01*
X109686976Y-90840047D01*
X109686973Y-90840046D01*
X109548887Y-90799500D01*
X109548884Y-90799500D01*
X109404962Y-90799500D01*
X109404958Y-90799500D01*
X109266872Y-90840046D01*
X109266865Y-90840049D01*
X109145796Y-90917855D01*
X109051545Y-91026628D01*
X108991757Y-91157543D01*
X108982607Y-91221186D01*
X108955611Y-91276094D01*
X108908111Y-91301157D01*
X108856730Y-91301157D01*
X108861119Y-91298841D01*
X108840934Y-91295940D01*
X108797056Y-91253297D01*
X108786623Y-91221186D01*
X108777472Y-91157543D01*
X108731499Y-91056878D01*
X108717684Y-91026627D01*
X108623435Y-90917857D01*
X108623434Y-90917856D01*
X108623433Y-90917855D01*
X108502364Y-90840049D01*
X108502361Y-90840047D01*
X108502360Y-90840047D01*
X108502357Y-90840046D01*
X108364271Y-90799500D01*
X108364268Y-90799500D01*
X108220346Y-90799500D01*
X108220342Y-90799500D01*
X108082256Y-90840046D01*
X108082249Y-90840049D01*
X107961180Y-90917855D01*
X107866929Y-91026628D01*
X107807141Y-91157543D01*
X107797991Y-91221183D01*
X107770995Y-91276090D01*
X107723482Y-91301159D01*
X107672118Y-91301159D01*
X107676515Y-91298839D01*
X107656318Y-91295935D01*
X107612440Y-91253293D01*
X107602007Y-91221181D01*
X107592857Y-91157544D01*
X107547922Y-91059150D01*
X107533069Y-91026627D01*
X107438820Y-90917857D01*
X107438819Y-90917856D01*
X107438818Y-90917855D01*
X107317749Y-90840049D01*
X107317746Y-90840047D01*
X107317745Y-90840047D01*
X107317742Y-90840046D01*
X107179656Y-90799500D01*
X107179653Y-90799500D01*
X107035731Y-90799500D01*
X107035727Y-90799500D01*
X106897641Y-90840046D01*
X106897634Y-90840049D01*
X106776565Y-90917855D01*
X106682314Y-91026628D01*
X106622526Y-91157543D01*
X106613376Y-91221186D01*
X106586380Y-91276094D01*
X106538880Y-91301157D01*
X106487499Y-91301157D01*
X106491888Y-91298841D01*
X106471703Y-91295940D01*
X106427825Y-91253297D01*
X106417392Y-91221186D01*
X106408241Y-91157543D01*
X106362268Y-91056878D01*
X106348453Y-91026627D01*
X106254204Y-90917857D01*
X106254203Y-90917856D01*
X106254202Y-90917855D01*
X106133133Y-90840049D01*
X106133130Y-90840047D01*
X106133129Y-90840047D01*
X106133126Y-90840046D01*
X105995040Y-90799500D01*
X105995037Y-90799500D01*
X105851115Y-90799500D01*
X105851111Y-90799500D01*
X105713025Y-90840046D01*
X105713018Y-90840049D01*
X105591949Y-90917855D01*
X105497698Y-91026628D01*
X105437910Y-91157543D01*
X105428760Y-91221183D01*
X105401764Y-91276090D01*
X105354251Y-91301159D01*
X105302887Y-91301159D01*
X105307284Y-91298839D01*
X105287087Y-91295935D01*
X105243209Y-91253293D01*
X105232776Y-91221181D01*
X105223626Y-91157544D01*
X105178691Y-91059150D01*
X105163838Y-91026627D01*
X105069589Y-90917857D01*
X105069588Y-90917856D01*
X105069587Y-90917855D01*
X104948518Y-90840049D01*
X104948515Y-90840047D01*
X104948514Y-90840047D01*
X104948511Y-90840046D01*
X104810425Y-90799500D01*
X104810422Y-90799500D01*
X104666500Y-90799500D01*
X104666496Y-90799500D01*
X104528410Y-90840046D01*
X104528403Y-90840049D01*
X104407334Y-90917855D01*
X104313083Y-91026628D01*
X104253295Y-91157543D01*
X104244145Y-91221183D01*
X104217149Y-91276090D01*
X104169636Y-91301159D01*
X104118272Y-91301159D01*
X104122669Y-91298839D01*
X104102472Y-91295935D01*
X104058594Y-91253293D01*
X104048161Y-91221181D01*
X104039011Y-91157544D01*
X103994076Y-91059150D01*
X103979223Y-91026627D01*
X103884974Y-90917857D01*
X103884973Y-90917856D01*
X103884972Y-90917855D01*
X103763903Y-90840049D01*
X103763900Y-90840047D01*
X103763899Y-90840047D01*
X103763896Y-90840046D01*
X103625810Y-90799500D01*
X103625807Y-90799500D01*
X103481885Y-90799500D01*
X103481881Y-90799500D01*
X103343795Y-90840046D01*
X103343788Y-90840049D01*
X103222719Y-90917855D01*
X103128468Y-91026628D01*
X103068680Y-91157543D01*
X103059530Y-91221186D01*
X103032534Y-91276094D01*
X102985034Y-91301157D01*
X102933653Y-91301157D01*
X102938042Y-91298841D01*
X102917857Y-91295940D01*
X102873979Y-91253297D01*
X102863546Y-91221186D01*
X102854395Y-91157543D01*
X102808422Y-91056878D01*
X102794607Y-91026627D01*
X102700358Y-90917857D01*
X102700357Y-90917856D01*
X102700356Y-90917855D01*
X102579287Y-90840049D01*
X102579284Y-90840047D01*
X102579283Y-90840047D01*
X102579280Y-90840046D01*
X102441194Y-90799500D01*
X102441191Y-90799500D01*
X102297269Y-90799500D01*
X102297265Y-90799500D01*
X102159179Y-90840046D01*
X102159172Y-90840049D01*
X102038103Y-90917855D01*
X101943852Y-91026628D01*
X101884064Y-91157543D01*
X101874914Y-91221183D01*
X101847918Y-91276090D01*
X101800405Y-91301159D01*
X101749041Y-91301159D01*
X101753438Y-91298839D01*
X101733241Y-91295935D01*
X101689363Y-91253293D01*
X101678930Y-91221181D01*
X101669780Y-91157544D01*
X101624845Y-91059150D01*
X101609992Y-91026627D01*
X101515743Y-90917857D01*
X101515742Y-90917856D01*
X101515741Y-90917855D01*
X101394672Y-90840049D01*
X101394669Y-90840047D01*
X101394668Y-90840047D01*
X101394665Y-90840046D01*
X101256579Y-90799500D01*
X101256576Y-90799500D01*
X101112654Y-90799500D01*
X101112650Y-90799500D01*
X100974564Y-90840046D01*
X100974557Y-90840049D01*
X100853488Y-90917855D01*
X100759237Y-91026628D01*
X100699449Y-91157543D01*
X100690299Y-91221183D01*
X100663303Y-91276090D01*
X100615790Y-91301159D01*
X100564426Y-91301159D01*
X100568823Y-91298839D01*
X100548626Y-91295935D01*
X100504748Y-91253293D01*
X100494315Y-91221181D01*
X100485165Y-91157544D01*
X100440230Y-91059150D01*
X100425377Y-91026627D01*
X100331128Y-90917857D01*
X100331127Y-90917856D01*
X100331126Y-90917855D01*
X100210057Y-90840049D01*
X100210054Y-90840047D01*
X100210053Y-90840047D01*
X100210050Y-90840046D01*
X100071964Y-90799500D01*
X100071961Y-90799500D01*
X99928039Y-90799500D01*
X99928035Y-90799500D01*
X99789949Y-90840046D01*
X99789942Y-90840049D01*
X99668873Y-90917855D01*
X99574622Y-91026628D01*
X99514834Y-91157543D01*
X99505684Y-91221183D01*
X99478688Y-91276090D01*
X99431175Y-91301159D01*
X99379811Y-91301159D01*
X99384208Y-91298839D01*
X99364011Y-91295935D01*
X99320133Y-91253293D01*
X99309700Y-91221181D01*
X99300550Y-91157544D01*
X99255615Y-91059150D01*
X99240762Y-91026627D01*
X99146513Y-90917857D01*
X99146512Y-90917856D01*
X99146511Y-90917855D01*
X99025442Y-90840049D01*
X99025439Y-90840047D01*
X99025438Y-90840047D01*
X99025435Y-90840046D01*
X98887349Y-90799500D01*
X98887346Y-90799500D01*
X98743424Y-90799500D01*
X98743420Y-90799500D01*
X98605334Y-90840046D01*
X98605327Y-90840049D01*
X98484258Y-90917855D01*
X98390007Y-91026628D01*
X98330219Y-91157543D01*
X98321069Y-91221183D01*
X98294073Y-91276090D01*
X98246560Y-91301159D01*
X98195196Y-91301159D01*
X98199593Y-91298839D01*
X98179396Y-91295935D01*
X98135518Y-91253293D01*
X98125085Y-91221181D01*
X98115935Y-91157544D01*
X98071000Y-91059150D01*
X98056147Y-91026627D01*
X97961898Y-90917857D01*
X97961897Y-90917856D01*
X97961896Y-90917855D01*
X97840827Y-90840049D01*
X97840824Y-90840047D01*
X97840823Y-90840047D01*
X97840820Y-90840046D01*
X97702734Y-90799500D01*
X97702731Y-90799500D01*
X97558809Y-90799500D01*
X97558805Y-90799500D01*
X97420719Y-90840046D01*
X97420712Y-90840049D01*
X97299643Y-90917855D01*
X97205392Y-91026628D01*
X97145604Y-91157543D01*
X97136454Y-91221186D01*
X97109458Y-91276094D01*
X97061958Y-91301157D01*
X97010577Y-91301157D01*
X97014966Y-91298841D01*
X96994781Y-91295940D01*
X96950903Y-91253297D01*
X96940470Y-91221186D01*
X96931319Y-91157543D01*
X96885346Y-91056878D01*
X96871531Y-91026627D01*
X96777282Y-90917857D01*
X96777281Y-90917856D01*
X96777280Y-90917855D01*
X96656211Y-90840049D01*
X96656208Y-90840047D01*
X96656207Y-90840047D01*
X96656204Y-90840046D01*
X96518118Y-90799500D01*
X96518115Y-90799500D01*
X96374193Y-90799500D01*
X96374189Y-90799500D01*
X96236103Y-90840046D01*
X96236096Y-90840049D01*
X96115027Y-90917855D01*
X96020776Y-91026628D01*
X95960988Y-91157543D01*
X95951838Y-91221183D01*
X95924842Y-91276090D01*
X95877329Y-91301159D01*
X95825965Y-91301159D01*
X95830362Y-91298839D01*
X95810165Y-91295935D01*
X95766287Y-91253293D01*
X95755854Y-91221181D01*
X95746704Y-91157544D01*
X95701769Y-91059150D01*
X95686916Y-91026627D01*
X95592667Y-90917857D01*
X95592666Y-90917856D01*
X95592665Y-90917855D01*
X95471596Y-90840049D01*
X95471593Y-90840047D01*
X95471592Y-90840047D01*
X95471589Y-90840046D01*
X95333503Y-90799500D01*
X95333500Y-90799500D01*
X95189578Y-90799500D01*
X95189574Y-90799500D01*
X95051488Y-90840046D01*
X95051481Y-90840049D01*
X94930412Y-90917855D01*
X94836161Y-91026628D01*
X94776373Y-91157543D01*
X94767223Y-91221183D01*
X94740227Y-91276090D01*
X94692714Y-91301159D01*
X94641350Y-91301159D01*
X94645747Y-91298839D01*
X94625550Y-91295935D01*
X94581672Y-91253293D01*
X94571239Y-91221181D01*
X94562089Y-91157544D01*
X94517154Y-91059150D01*
X94502301Y-91026627D01*
X94408052Y-90917857D01*
X94408051Y-90917856D01*
X94408050Y-90917855D01*
X94286981Y-90840049D01*
X94286978Y-90840047D01*
X94286977Y-90840047D01*
X94286974Y-90840046D01*
X94148888Y-90799500D01*
X94148885Y-90799500D01*
X94004963Y-90799500D01*
X94004959Y-90799500D01*
X93866873Y-90840046D01*
X93866866Y-90840049D01*
X93745797Y-90917855D01*
X93651546Y-91026628D01*
X93591758Y-91157543D01*
X93582608Y-91221186D01*
X93555612Y-91276094D01*
X93508112Y-91301157D01*
X93456731Y-91301157D01*
X93461120Y-91298841D01*
X93440935Y-91295940D01*
X93397057Y-91253297D01*
X93386624Y-91221186D01*
X93377473Y-91157543D01*
X93331500Y-91056878D01*
X93317685Y-91026627D01*
X93223436Y-90917857D01*
X93223435Y-90917856D01*
X93223434Y-90917855D01*
X93102365Y-90840049D01*
X93102362Y-90840047D01*
X93102361Y-90840047D01*
X93102358Y-90840046D01*
X92964272Y-90799500D01*
X92964269Y-90799500D01*
X92820347Y-90799500D01*
X92820343Y-90799500D01*
X92682257Y-90840046D01*
X92682250Y-90840049D01*
X92561181Y-90917855D01*
X92466930Y-91026628D01*
X92407142Y-91157543D01*
X92397992Y-91221183D01*
X92370996Y-91276090D01*
X92323483Y-91301159D01*
X92272119Y-91301159D01*
X92276516Y-91298839D01*
X92256319Y-91295935D01*
X92212441Y-91253293D01*
X92202008Y-91221181D01*
X92192858Y-91157544D01*
X92147923Y-91059150D01*
X92133070Y-91026627D01*
X92038821Y-90917857D01*
X92038820Y-90917856D01*
X92038819Y-90917855D01*
X91917750Y-90840049D01*
X91917747Y-90840047D01*
X91917746Y-90840047D01*
X91917743Y-90840046D01*
X91779657Y-90799500D01*
X91779654Y-90799500D01*
X91635732Y-90799500D01*
X91635728Y-90799500D01*
X91497642Y-90840046D01*
X91497635Y-90840049D01*
X91376566Y-90917855D01*
X91282315Y-91026628D01*
X91222527Y-91157543D01*
X91213377Y-91221186D01*
X91186381Y-91276094D01*
X91138881Y-91301157D01*
X91087500Y-91301157D01*
X91091889Y-91298841D01*
X91071704Y-91295940D01*
X91027826Y-91253297D01*
X91017393Y-91221186D01*
X91008242Y-91157543D01*
X90962269Y-91056878D01*
X90948454Y-91026627D01*
X90854205Y-90917857D01*
X90854204Y-90917856D01*
X90854203Y-90917855D01*
X90733134Y-90840049D01*
X90733131Y-90840047D01*
X90733130Y-90840047D01*
X90733127Y-90840046D01*
X90595041Y-90799500D01*
X90595038Y-90799500D01*
X90451116Y-90799500D01*
X90451112Y-90799500D01*
X90313026Y-90840046D01*
X90313019Y-90840049D01*
X90191950Y-90917855D01*
X90097699Y-91026628D01*
X90037911Y-91157543D01*
X90028761Y-91221183D01*
X90001765Y-91276090D01*
X89954252Y-91301159D01*
X89902888Y-91301159D01*
X89907285Y-91298839D01*
X89887088Y-91295935D01*
X89843210Y-91253293D01*
X89832777Y-91221181D01*
X89823627Y-91157544D01*
X89778692Y-91059150D01*
X89763839Y-91026627D01*
X89669590Y-90917857D01*
X89669589Y-90917856D01*
X89669588Y-90917855D01*
X89548519Y-90840049D01*
X89548516Y-90840047D01*
X89548515Y-90840047D01*
X89548512Y-90840046D01*
X89410426Y-90799500D01*
X89410423Y-90799500D01*
X89266501Y-90799500D01*
X89266497Y-90799500D01*
X89128411Y-90840046D01*
X89128404Y-90840049D01*
X89007335Y-90917855D01*
X88913084Y-91026628D01*
X88853296Y-91157543D01*
X88844146Y-91221183D01*
X88817150Y-91276090D01*
X88769637Y-91301159D01*
X88718273Y-91301159D01*
X88722670Y-91298839D01*
X88702473Y-91295935D01*
X88658595Y-91253293D01*
X88648162Y-91221181D01*
X88639012Y-91157544D01*
X88594077Y-91059150D01*
X88579224Y-91026627D01*
X88484975Y-90917857D01*
X88484974Y-90917856D01*
X88484973Y-90917855D01*
X88363904Y-90840049D01*
X88363901Y-90840047D01*
X88363900Y-90840047D01*
X88363897Y-90840046D01*
X88225811Y-90799500D01*
X88225808Y-90799500D01*
X88081886Y-90799500D01*
X88081882Y-90799500D01*
X87943796Y-90840046D01*
X87943789Y-90840049D01*
X87822720Y-90917855D01*
X87728469Y-91026628D01*
X87668681Y-91157543D01*
X87659531Y-91221186D01*
X87632535Y-91276094D01*
X87585035Y-91301157D01*
X87533654Y-91301157D01*
X87538043Y-91298841D01*
X87517858Y-91295940D01*
X87473980Y-91253297D01*
X87463547Y-91221186D01*
X87454396Y-91157543D01*
X87408423Y-91056878D01*
X87394608Y-91026627D01*
X87300359Y-90917857D01*
X87300358Y-90917856D01*
X87300357Y-90917855D01*
X87179288Y-90840049D01*
X87179285Y-90840047D01*
X87179284Y-90840047D01*
X87179281Y-90840046D01*
X87041195Y-90799500D01*
X87041192Y-90799500D01*
X86897270Y-90799500D01*
X86897266Y-90799500D01*
X86759180Y-90840046D01*
X86759173Y-90840049D01*
X86638104Y-90917855D01*
X86543853Y-91026628D01*
X86484065Y-91157543D01*
X86474915Y-91221183D01*
X86447919Y-91276090D01*
X86400406Y-91301159D01*
X86349042Y-91301159D01*
X86353439Y-91298839D01*
X86333242Y-91295935D01*
X86289364Y-91253293D01*
X86278931Y-91221181D01*
X86269781Y-91157544D01*
X86224846Y-91059150D01*
X86209993Y-91026627D01*
X86115744Y-90917857D01*
X86115743Y-90917856D01*
X86115742Y-90917855D01*
X85994673Y-90840049D01*
X85994670Y-90840047D01*
X85994669Y-90840047D01*
X85994666Y-90840046D01*
X85856580Y-90799500D01*
X85856577Y-90799500D01*
X85712655Y-90799500D01*
X85712651Y-90799500D01*
X85574565Y-90840046D01*
X85574558Y-90840049D01*
X85453489Y-90917855D01*
X85359238Y-91026628D01*
X85299450Y-91157543D01*
X85290300Y-91221186D01*
X85263304Y-91276094D01*
X85215804Y-91301157D01*
X85164423Y-91301157D01*
X85168812Y-91298841D01*
X85148627Y-91295940D01*
X85104749Y-91253297D01*
X85094316Y-91221186D01*
X85085165Y-91157543D01*
X85039192Y-91056878D01*
X85025377Y-91026627D01*
X84931128Y-90917857D01*
X84931127Y-90917856D01*
X84931126Y-90917855D01*
X84810057Y-90840049D01*
X84810054Y-90840047D01*
X84810053Y-90840047D01*
X84810050Y-90840046D01*
X84671964Y-90799500D01*
X84671961Y-90799500D01*
X84528039Y-90799500D01*
X84528035Y-90799500D01*
X84389949Y-90840046D01*
X84389942Y-90840049D01*
X84268872Y-90917856D01*
X84268870Y-90917858D01*
X84173819Y-91027554D01*
X84121423Y-91059150D01*
X84060463Y-91053914D01*
X84014222Y-91013847D01*
X84000000Y-90962723D01*
X84000000Y-86699000D01*
X84018907Y-86640809D01*
X84068407Y-86604845D01*
X84099000Y-86600000D01*
X87999999Y-86600000D01*
X88000000Y-86600000D01*
X99000000Y-86600000D01*
X99000001Y-86600000D01*
X115901000Y-86600000D01*
X115959191Y-86618907D01*
G37*
%TD.AperFunction*%
%TD*%
%TA.AperFunction,Conductor*%
%TO.N,SW*%
G36*
X115259191Y-112418907D02*
G01*
X115295155Y-112468407D01*
X115300000Y-112499000D01*
X115300000Y-122901000D01*
X115281093Y-122959191D01*
X115231593Y-122995155D01*
X115201000Y-123000000D01*
X105499000Y-123000000D01*
X105440809Y-122981093D01*
X105404845Y-122931593D01*
X105400000Y-122901000D01*
X105400000Y-112499000D01*
X105418907Y-112440809D01*
X105468407Y-112404845D01*
X105499000Y-112400000D01*
X115201000Y-112400000D01*
X115259191Y-112418907D01*
G37*
%TD.AperFunction*%
%TD*%
M02*
