M48
; DRILL file {KiCad 7.0.10} date Sat Oct 10 16:01:02 2026
; FORMAT={-:-/ absolute / metric / decimal}
; #@! TF.CreationDate,2026-10-10T16:01:02+02:00
; #@! TF.GenerationSoftware,Kicad,Pcbnew,7.0.10
; #@! TF.FileFunction,MixedPlating,1,4
FMAT,2
METRIC
; #@! TA.AperFunction,Plated,PTH,ViaDrill
T1C0.250
; #@! TA.AperFunction,Plated,PTH,ViaDrill
T2C0.300
; #@! TA.AperFunction,Plated,PTH,ComponentDrill
T3C1.000
; #@! TA.AperFunction,Plated,PTH,ComponentDrill
T4C1.850
; #@! TA.AperFunction,NonPlated,NPTH,ComponentDrill
T5C2.700
%
G90
G05
T1
X81.4Y-106.6
X81.4Y-108.75
X81.6Y-104.0
X83.8Y-107.2
X93.902Y-105.08
X93.902Y-109.38
X94.6Y-106.13
X94.6Y-110.43
X96.1Y-111.0
X100.0Y-105.75
X100.0Y-107.9
X103.9Y-111.0
X105.4Y-103.67
X105.4Y-107.97
X106.098Y-104.72
X106.098Y-109.02
X116.2Y-107.2
X118.4Y-104.0
X118.6Y-106.6
X118.6Y-108.75
T2
X80.4Y-130.5
X80.4Y-133.0
X80.4Y-137.5
X80.4Y-140.0
X81.4Y-142.7
X81.7Y-130.2
X82.4Y-127.8
X82.4Y-129.2
X82.4Y-135.8
X82.5Y-132.8
X83.0Y-154.6
X84.6Y-87.1
X84.6Y-91.3
X84.6Y-95.3
X84.6Y-99.5
X85.5Y-132.1
X85.785Y-87.1
X85.785Y-91.3
X85.785Y-95.3
X85.785Y-99.5
X86.2Y-137.6
X86.4Y-127.8
X86.4Y-130.0
X86.4Y-133.9
X86.45Y-102.5
X86.45Y-107.05
X86.45Y-111.5
X86.969Y-87.1
X86.969Y-91.3
X86.969Y-95.3
X86.969Y-99.5
X87.35Y-102.5
X87.4Y-132.1
X88.154Y-87.1
X88.154Y-91.3
X88.154Y-95.3
X88.154Y-99.5
X88.25Y-102.5
X88.4Y-153.6
X88.6Y-127.5
X89.15Y-102.5
X89.15Y-111.5
X89.338Y-87.1
X89.338Y-91.3
X89.338Y-95.3
X89.338Y-99.5
X90.05Y-102.5
X90.1Y-134.5
X90.523Y-87.1
X90.523Y-91.3
X90.523Y-95.3
X90.523Y-99.5
X90.95Y-102.5
X90.95Y-111.5
X91.708Y-87.1
X91.708Y-91.3
X91.708Y-95.3
X91.708Y-99.5
X91.85Y-102.5
X92.75Y-102.5
X92.892Y-87.1
X92.892Y-91.3
X92.892Y-95.3
X92.892Y-99.5
X93.0Y-129.8
X93.65Y-102.5
X94.077Y-87.1
X94.077Y-91.3
X94.077Y-95.3
X94.077Y-99.5
X94.1Y-133.3
X94.55Y-102.5
X94.55Y-107.05
X94.55Y-111.5
X94.9Y-127.6
X95.262Y-87.1
X95.262Y-91.3
X95.262Y-95.3
X95.262Y-99.5
X95.6Y-157.4
X95.7Y-119.5
X96.1Y-130.0
X96.4Y-118.8
X96.446Y-87.1
X96.446Y-91.3
X96.446Y-95.3
X96.446Y-99.5
X96.8Y-116.25
X97.0Y-127.5
X97.3Y-141.5
X97.3Y-151.5
X97.631Y-87.1
X97.631Y-91.3
X97.631Y-95.3
X97.631Y-99.5
X98.5Y-110.0
X98.8Y-126.7
X98.815Y-87.1
X98.815Y-91.3
X98.815Y-95.3
X98.815Y-99.5
X100.0Y-87.1
X100.0Y-91.3
X100.0Y-95.3
X100.0Y-99.5
X100.0Y-104.9
X100.0Y-120.7
X100.3Y-123.3
X100.4Y-126.7
X100.8Y-126.0
X101.185Y-87.1
X101.185Y-91.3
X101.185Y-95.3
X101.185Y-99.5
X101.2Y-126.7
X101.2Y-149.1
X102.369Y-87.1
X102.369Y-91.3
X102.369Y-95.3
X102.369Y-99.5
X103.1Y-127.6
X103.2Y-116.25
X103.554Y-87.1
X103.554Y-91.3
X103.554Y-95.3
X103.554Y-99.5
X103.6Y-118.8
X103.7Y-130.0
X104.2Y-157.2
X104.3Y-119.5
X104.738Y-87.1
X104.738Y-91.3
X104.738Y-95.3
X104.738Y-99.5
X105.0Y-127.5
X105.45Y-102.5
X105.45Y-107.05
X105.45Y-111.5
X105.5Y-159.1
X105.923Y-87.1
X105.923Y-91.3
X105.923Y-95.3
X105.923Y-99.5
X106.35Y-102.5
X106.35Y-111.5
X106.6Y-129.8
X107.108Y-87.1
X107.108Y-91.3
X107.108Y-95.3
X107.108Y-99.5
X107.25Y-102.5
X107.25Y-111.5
X107.7Y-133.3
X108.15Y-102.5
X108.292Y-87.1
X108.292Y-91.3
X108.292Y-95.3
X108.292Y-99.5
X108.5Y-134.5
X109.05Y-102.5
X109.05Y-111.5
X109.477Y-87.1
X109.477Y-91.3
X109.477Y-95.3
X109.477Y-99.5
X109.95Y-102.5
X110.4Y-130.5
X110.4Y-158.6
X110.662Y-87.1
X110.662Y-91.3
X110.662Y-95.3
X110.662Y-99.5
X110.85Y-102.5
X110.85Y-111.5
X111.0Y-127.5
X111.75Y-102.5
X111.846Y-87.1
X111.846Y-91.3
X111.846Y-95.3
X111.846Y-99.5
X112.3Y-131.4
X112.65Y-102.5
X113.031Y-87.1
X113.031Y-91.3
X113.031Y-95.3
X113.031Y-99.5
X113.1Y-130.5
X113.55Y-102.5
X113.55Y-107.05
X113.55Y-111.5
X113.6Y-133.9
X113.6Y-141.5
X113.6Y-151.5
X114.215Y-87.1
X114.215Y-91.3
X114.215Y-95.3
X114.215Y-99.5
X114.5Y-129.0
X115.2Y-130.0
X115.4Y-87.1
X115.4Y-91.3
X115.4Y-95.3
X115.4Y-99.5
X115.4Y-103.7
X116.2Y-132.1
X116.9Y-101.92
X116.9Y-126.4
X117.0Y-154.6
X117.6Y-129.2
X117.6Y-135.8
X118.6Y-142.7
X119.6Y-130.5
X119.6Y-133.0
X119.6Y-137.5
X119.6Y-140.0
T3
X97.46Y-155.5
X97.46Y-158.04
X100.0Y-155.5
X100.0Y-158.04
X102.54Y-155.5
X102.54Y-158.04
X103.0Y-133.5
X103.0Y-136.04
X113.0Y-155.6
X113.0Y-158.14
T4
X86.565Y-114.665
X86.565Y-120.535
X91.065Y-78.265
X91.065Y-84.135
X92.435Y-114.665
X92.435Y-120.535
X96.935Y-78.265
X96.935Y-84.135
X103.065Y-78.265
X103.065Y-84.135
X107.565Y-114.665
X107.565Y-120.535
X108.935Y-78.265
X108.935Y-84.135
X113.435Y-114.665
X113.435Y-120.535
T5
X80.8Y-98.4
X80.8Y-114.8
X81.4Y-78.0
X81.4Y-158.6
X118.6Y-78.0
X118.6Y-158.6
X119.2Y-98.4
X119.2Y-114.8
M30
