%TF.GenerationSoftware,KiCad,Pcbnew,7.0.10*%
%TF.CreationDate,2026-10-10T16:01:01+02:00*%
%TF.ProjectId,spb-bb-fab,7370622d-6262-42d6-9661-622e6b696361,rev?*%
%TF.SameCoordinates,Original*%
%TF.FileFunction,Copper,L4,Bot*%
%TF.FilePolarity,Positive*%
%FSLAX46Y46*%
G04 Gerber Fmt 4.6, Leading zero omitted, Abs format (unit mm)*
G04 Created by KiCad (PCBNEW 7.0.10) date 2026-10-10 16:01:01*
%MOMM*%
%LPD*%
G01*
G04 APERTURE LIST*
%TA.AperFunction,ComponentPad*%
%ADD10R,1.700000X1.700000*%
%TD*%
%TA.AperFunction,ComponentPad*%
%ADD11O,1.700000X1.700000*%
%TD*%
%TA.AperFunction,ComponentPad*%
%ADD12C,3.200000*%
%TD*%
%TA.AperFunction,ViaPad*%
%ADD13C,0.600000*%
%TD*%
%TA.AperFunction,ViaPad*%
%ADD14C,0.450000*%
%TD*%
%TA.AperFunction,Conductor*%
%ADD15C,0.300000*%
%TD*%
G04 APERTURE END LIST*
D10*
%TO.P,J6,1*%
%TO.N,NTC*%
X103000000Y-133500000D03*
D11*
%TO.P,J6,2*%
%TO.N,DCN*%
X103000000Y-136040000D03*
%TD*%
D10*
%TO.P,J5,1*%
%TO.N,+12V*%
X97460000Y-158040000D03*
D11*
%TO.P,J5,2*%
%TO.N,GNDI*%
X97460000Y-155500000D03*
%TO.P,J5,3*%
%TO.N,PWM_H*%
X100000000Y-158040000D03*
%TO.P,J5,4*%
%TO.N,GNDI*%
X100000000Y-155500000D03*
%TO.P,J5,5*%
%TO.N,PWM_L*%
X102540000Y-158040000D03*
%TO.P,J5,6*%
%TO.N,DIS*%
X102540000Y-155500000D03*
%TD*%
D10*
%TO.P,J7,1*%
%TO.N,+12V*%
X113000000Y-155600000D03*
D11*
%TO.P,J7,2*%
%TO.N,GNDI*%
X113000000Y-158140000D03*
%TD*%
D12*
%TO.P,J4,1*%
%TO.N,SW*%
X107565000Y-114665000D03*
X107565000Y-120535000D03*
X113435000Y-114665000D03*
X113435000Y-120535000D03*
%TD*%
%TO.P,J3,1*%
%TO.N,SW*%
X86565000Y-114665000D03*
X86565000Y-120535000D03*
X92435000Y-114665000D03*
X92435000Y-120535000D03*
%TD*%
%TO.P,J1,1*%
%TO.N,DCP*%
X91065000Y-78265001D03*
X91065000Y-84135001D03*
X96935000Y-78265001D03*
X96935000Y-84135001D03*
%TD*%
%TO.P,J2,1*%
%TO.N,DCN*%
X103065000Y-78265001D03*
X103065000Y-84135001D03*
X108935000Y-78265001D03*
X108935000Y-84135001D03*
%TD*%
D13*
%TO.N,DCP*%
X86969231Y-95300000D03*
X85784616Y-95300000D03*
X101184615Y-87100000D03*
X115400000Y-87100000D03*
X111846153Y-95300000D03*
X96446154Y-87100000D03*
X94076924Y-95300000D03*
X90950000Y-102500000D03*
X88153847Y-95300000D03*
X97630770Y-95300000D03*
X90523077Y-95300000D03*
X84600000Y-95300000D03*
X109476923Y-87100000D03*
X92892308Y-87100000D03*
X85784616Y-87100000D03*
X108292307Y-95300000D03*
X86450000Y-102500000D03*
X100000000Y-87100000D03*
X88250000Y-102500000D03*
X90050000Y-102500000D03*
X110661538Y-87100000D03*
X107107692Y-87100000D03*
X111846153Y-87100000D03*
X109050000Y-102500000D03*
X103553846Y-95300000D03*
X90523077Y-87100000D03*
X91707693Y-87100000D03*
X103553846Y-87100000D03*
X86969231Y-87100000D03*
X84600000Y-87100000D03*
X91850001Y-102500000D03*
X97630770Y-87100000D03*
X109476923Y-95300000D03*
X104738461Y-87100000D03*
X110850000Y-102500000D03*
X105923076Y-87100000D03*
X95261539Y-87100000D03*
X114215384Y-95300000D03*
X92750000Y-102500000D03*
X88153847Y-87100000D03*
X89338462Y-95300000D03*
X107107692Y-95300000D03*
X102369230Y-87100000D03*
X115400000Y-95300000D03*
X107250000Y-102500000D03*
X105450000Y-102500000D03*
X98815385Y-95300000D03*
X102369230Y-95300000D03*
X110661538Y-95300000D03*
X101184615Y-95300000D03*
X113030769Y-87100000D03*
X104738461Y-95300000D03*
X93650000Y-102500000D03*
X109950000Y-102500000D03*
X113550000Y-102500000D03*
X92892308Y-95300000D03*
X111750000Y-102500000D03*
X98815385Y-87100000D03*
X94550001Y-102500000D03*
X106350000Y-102500000D03*
X95261539Y-95300000D03*
X112650000Y-102500000D03*
X91707693Y-95300000D03*
X94076924Y-87100000D03*
X96446154Y-95300000D03*
X100000000Y-95300000D03*
X87350000Y-102500000D03*
X89338462Y-87100000D03*
X89150000Y-102500000D03*
X108150000Y-102500000D03*
X108292307Y-87100000D03*
X113030769Y-95300000D03*
X105923076Y-95300000D03*
X114215384Y-87100000D03*
%TO.N,DCN*%
X96446154Y-99500000D03*
X100000000Y-99500000D03*
X94076924Y-99500000D03*
X107107692Y-99500000D03*
X111846153Y-91300000D03*
X115400000Y-103700000D03*
D14*
X118600000Y-108750000D03*
D13*
X108292307Y-91300000D03*
X96446154Y-91300000D03*
X111846153Y-99500000D03*
X98815385Y-99500000D03*
X91707693Y-99500000D03*
X94076924Y-91300000D03*
X91707693Y-91300000D03*
X109050000Y-111500000D03*
X101184615Y-91300000D03*
X89338462Y-99500000D03*
X89338462Y-91300000D03*
X105923076Y-99500000D03*
X113550000Y-111500000D03*
X114215384Y-91300000D03*
X110850000Y-111500000D03*
X113030769Y-91300000D03*
X86969231Y-99500000D03*
X85784616Y-91300000D03*
X104738461Y-99500000D03*
X95261539Y-99500000D03*
X90523077Y-91300000D03*
X103553846Y-99500000D03*
X103553846Y-91300000D03*
X103700000Y-130000000D03*
X89150000Y-111500000D03*
X110661538Y-91300000D03*
X100000000Y-91300000D03*
X110661538Y-99500000D03*
X107250000Y-111500000D03*
X101184615Y-99500000D03*
D14*
X106098000Y-109020000D03*
D13*
X90523077Y-99500000D03*
X84600000Y-91300000D03*
X90950000Y-111500000D03*
X109476923Y-91300000D03*
X97630770Y-91300000D03*
X107107692Y-91300000D03*
X102369230Y-99500000D03*
D14*
X100000000Y-107900000D03*
D13*
X98815385Y-91300000D03*
X114215384Y-99500000D03*
X102369230Y-91300000D03*
X84600000Y-99500000D03*
X92892308Y-91300000D03*
X113030769Y-99500000D03*
X85784616Y-99500000D03*
X109476923Y-99500000D03*
X115400000Y-91300000D03*
X86450000Y-111500000D03*
X104300000Y-119500000D03*
X104738461Y-91300000D03*
X86969231Y-91300000D03*
D14*
X103900000Y-111000000D03*
D13*
X88153847Y-99500000D03*
X92892308Y-99500000D03*
D14*
X81400000Y-108750000D03*
D13*
X95261539Y-91300000D03*
X108292307Y-99500000D03*
X97630770Y-99500000D03*
X88153847Y-91300000D03*
X94550001Y-111500000D03*
D14*
X93902000Y-109379999D03*
D13*
X115400000Y-99500000D03*
X105923076Y-91300000D03*
X106350000Y-111500000D03*
X105450000Y-111500000D03*
D14*
%TO.N,SW*%
X81600000Y-104000000D03*
D13*
X94550001Y-107050000D03*
X113550000Y-107050000D03*
D14*
X93902000Y-105080000D03*
D13*
X96100001Y-130000000D03*
D14*
X106098000Y-104720000D03*
X118400000Y-104000000D03*
X100000000Y-105750000D03*
D13*
X95700000Y-119500000D03*
X86450000Y-107050000D03*
D14*
X96100000Y-111000000D03*
D13*
X105450000Y-107050000D03*
D14*
%TO.N,GH_L*%
X94600000Y-106130000D03*
X81400000Y-106600000D03*
%TO.N,GL_L*%
X83800000Y-107200000D03*
X94600000Y-110430000D03*
%TO.N,GH_R*%
X118600000Y-106600000D03*
X105400000Y-103670000D03*
%TO.N,GL_R*%
X105400000Y-107970000D03*
X116200000Y-107200000D03*
D13*
%TO.N,GH_STAR*%
X98500000Y-110000000D03*
X100000000Y-104900000D03*
%TO.N,VEEB*%
X117600000Y-135800000D03*
X115200000Y-130000000D03*
X118600000Y-142700000D03*
X103200000Y-116250000D03*
X113600000Y-141500000D03*
X119600000Y-130500000D03*
X106600000Y-129800000D03*
X119600000Y-140000000D03*
X119600000Y-133000000D03*
X113600000Y-133900000D03*
X119600000Y-137500000D03*
X117600000Y-129200000D03*
X105000000Y-127500000D03*
X111000000Y-127500000D03*
X107700000Y-133300000D03*
%TO.N,VDDB*%
X114500000Y-129000000D03*
X103100000Y-127600000D03*
X103600000Y-118800000D03*
X112300000Y-131400000D03*
X113100000Y-130500000D03*
%TO.N,VEEA*%
X94100001Y-133300000D03*
X81400000Y-142700000D03*
X80400000Y-137500000D03*
X88600001Y-127500000D03*
X97000000Y-127500000D03*
X90100001Y-134500000D03*
X82400000Y-129200000D03*
X96400000Y-118800000D03*
X80400000Y-140000000D03*
X97300001Y-141500000D03*
X82400000Y-135800000D03*
X80400000Y-130500000D03*
X93000000Y-129800000D03*
X86400000Y-133900000D03*
X80400000Y-133000000D03*
%TO.N,VDDA*%
X94900000Y-127600000D03*
X87400000Y-132100000D03*
X96800000Y-116250000D03*
X85500000Y-132100000D03*
%TO.N,DIS*%
X100800000Y-126000000D03*
%TO.N,GNDI*%
X105500000Y-159100000D03*
X83000000Y-154600000D03*
X117000000Y-154600000D03*
X110400000Y-158600000D03*
X100300000Y-123300000D03*
X104200000Y-157200000D03*
X97300001Y-151500000D03*
X100000000Y-120700000D03*
X113600000Y-151500000D03*
X88400000Y-153600000D03*
X95600000Y-157400000D03*
%TO.N,PWM_H*%
X98800001Y-126700000D03*
%TO.N,PWM_L*%
X100400000Y-126700000D03*
%TO.N,+12V*%
X101200000Y-126700000D03*
X101200000Y-149100000D03*
%TO.N,ISOA_P*%
X86200000Y-137600000D03*
X82500000Y-132800000D03*
X86400000Y-127800000D03*
X86400000Y-130000000D03*
%TO.N,ISOB_P*%
X116200000Y-132100000D03*
X110400000Y-130500000D03*
X108500000Y-134500000D03*
%TO.N,NTC*%
X116900000Y-126400000D03*
X116900000Y-101920000D03*
%TO.N,LEDA_ISOA*%
X82400000Y-127800000D03*
X81700000Y-130200000D03*
%TD*%
D15*
%TO.N,SW*%
X98850000Y-111000000D02*
X96100000Y-111000000D01*
X99250000Y-106500000D02*
X99250000Y-110600000D01*
X100000000Y-105750000D02*
X99250000Y-106500000D01*
X99250000Y-110600000D02*
X98850000Y-111000000D01*
%TD*%
%TA.AperFunction,Conductor*%
%TO.N,GNDI*%
G36*
X101859191Y-119518907D02*
G01*
X101895155Y-119568407D01*
X101900000Y-119599000D01*
X101900000Y-126601000D01*
X101881093Y-126659191D01*
X101831593Y-126695155D01*
X101801000Y-126700000D01*
X101791431Y-126700000D01*
X101733240Y-126681093D01*
X101697276Y-126631593D01*
X101693439Y-126615088D01*
X101685165Y-126557544D01*
X101625377Y-126426628D01*
X101625377Y-126426627D01*
X101531128Y-126317857D01*
X101531127Y-126317856D01*
X101531126Y-126317855D01*
X101410057Y-126240049D01*
X101410054Y-126240048D01*
X101410053Y-126240047D01*
X101359068Y-126225076D01*
X101308563Y-126190541D01*
X101288001Y-126132914D01*
X101288969Y-126115998D01*
X101305647Y-126000002D01*
X101305647Y-125999997D01*
X101285165Y-125857543D01*
X101225377Y-125726628D01*
X101225377Y-125726627D01*
X101131128Y-125617857D01*
X101131127Y-125617856D01*
X101131126Y-125617855D01*
X101010057Y-125540049D01*
X101010054Y-125540047D01*
X101010053Y-125540047D01*
X101010050Y-125540046D01*
X100871964Y-125499500D01*
X100871961Y-125499500D01*
X100728039Y-125499500D01*
X100728035Y-125499500D01*
X100589949Y-125540046D01*
X100589942Y-125540049D01*
X100468873Y-125617855D01*
X100374622Y-125726628D01*
X100314834Y-125857543D01*
X100294353Y-125999997D01*
X100294353Y-126000003D01*
X100311030Y-126115998D01*
X100300597Y-126176287D01*
X100256718Y-126218930D01*
X100240930Y-126225077D01*
X100189947Y-126240047D01*
X100189942Y-126240049D01*
X100068873Y-126317855D01*
X99974622Y-126426628D01*
X99914834Y-126557543D01*
X99894353Y-126699997D01*
X99894353Y-126700000D01*
X99305648Y-126700000D01*
X99305648Y-126699997D01*
X99285166Y-126557543D01*
X99225378Y-126426628D01*
X99225378Y-126426627D01*
X99131129Y-126317857D01*
X99131128Y-126317856D01*
X99131127Y-126317855D01*
X99010058Y-126240049D01*
X99010055Y-126240047D01*
X99010054Y-126240047D01*
X99010051Y-126240046D01*
X98871965Y-126199500D01*
X98871962Y-126199500D01*
X98728040Y-126199500D01*
X98728036Y-126199500D01*
X98589950Y-126240046D01*
X98589943Y-126240049D01*
X98468874Y-126317855D01*
X98374623Y-126426628D01*
X98314835Y-126557544D01*
X98306562Y-126615088D01*
X98279567Y-126669996D01*
X98225453Y-126698550D01*
X98208570Y-126700000D01*
X98199000Y-126700000D01*
X98140809Y-126681093D01*
X98104845Y-126631593D01*
X98100000Y-126601000D01*
X98100000Y-119599000D01*
X98118907Y-119540809D01*
X98168407Y-119504845D01*
X98199000Y-119500000D01*
X101801000Y-119500000D01*
X101859191Y-119518907D01*
G37*
%TD.AperFunction*%
%TD*%
%TA.AperFunction,Conductor*%
%TO.N,SW*%
G36*
X96659191Y-104618907D02*
G01*
X96695155Y-104668407D01*
X96700000Y-104699000D01*
X96700000Y-109901000D01*
X96681093Y-109959191D01*
X96631593Y-109995155D01*
X96601000Y-110000000D01*
X95400000Y-110000000D01*
X95400000Y-110000001D01*
X95400000Y-114901000D01*
X95381093Y-114959191D01*
X95331593Y-114995155D01*
X95301000Y-115000000D01*
X86000000Y-115000000D01*
X86000000Y-111719457D01*
X86024623Y-111773373D01*
X86118872Y-111882143D01*
X86118873Y-111882144D01*
X86239942Y-111959950D01*
X86239947Y-111959953D01*
X86346403Y-111991211D01*
X86378035Y-112000499D01*
X86378036Y-112000499D01*
X86378039Y-112000500D01*
X86378041Y-112000500D01*
X86521959Y-112000500D01*
X86521961Y-112000500D01*
X86660053Y-111959953D01*
X86781128Y-111882143D01*
X86875377Y-111773373D01*
X86935165Y-111642457D01*
X86955647Y-111500002D01*
X88644353Y-111500002D01*
X88664834Y-111642456D01*
X88700000Y-111719457D01*
X88724623Y-111773373D01*
X88818872Y-111882143D01*
X88818873Y-111882144D01*
X88939942Y-111959950D01*
X88939947Y-111959953D01*
X89046403Y-111991211D01*
X89078035Y-112000499D01*
X89078036Y-112000499D01*
X89078039Y-112000500D01*
X89078041Y-112000500D01*
X89221959Y-112000500D01*
X89221961Y-112000500D01*
X89360053Y-111959953D01*
X89481128Y-111882143D01*
X89575377Y-111773373D01*
X89635165Y-111642457D01*
X89655647Y-111500002D01*
X90444353Y-111500002D01*
X90464834Y-111642456D01*
X90500000Y-111719457D01*
X90524623Y-111773373D01*
X90618872Y-111882143D01*
X90618873Y-111882144D01*
X90739942Y-111959950D01*
X90739947Y-111959953D01*
X90846403Y-111991211D01*
X90878035Y-112000499D01*
X90878036Y-112000499D01*
X90878039Y-112000500D01*
X90878041Y-112000500D01*
X91021959Y-112000500D01*
X91021961Y-112000500D01*
X91160053Y-111959953D01*
X91281128Y-111882143D01*
X91375377Y-111773373D01*
X91435165Y-111642457D01*
X91455647Y-111500002D01*
X94044354Y-111500002D01*
X94064835Y-111642456D01*
X94100001Y-111719457D01*
X94124624Y-111773373D01*
X94218873Y-111882143D01*
X94218874Y-111882144D01*
X94339943Y-111959950D01*
X94339948Y-111959953D01*
X94446404Y-111991211D01*
X94478036Y-112000499D01*
X94478037Y-112000499D01*
X94478040Y-112000500D01*
X94478042Y-112000500D01*
X94621960Y-112000500D01*
X94621962Y-112000500D01*
X94760054Y-111959953D01*
X94881129Y-111882143D01*
X94975378Y-111773373D01*
X95035166Y-111642457D01*
X95055648Y-111500000D01*
X95035166Y-111357543D01*
X94975378Y-111226627D01*
X94881129Y-111117857D01*
X94881128Y-111117856D01*
X94881127Y-111117855D01*
X94760058Y-111040049D01*
X94760056Y-111040048D01*
X94760054Y-111040047D01*
X94729246Y-111031001D01*
X94678739Y-110996464D01*
X94658178Y-110938837D01*
X94675417Y-110880130D01*
X94723870Y-110842768D01*
X94726551Y-110841855D01*
X94733119Y-110839719D01*
X94733126Y-110839719D01*
X94853220Y-110778528D01*
X94948528Y-110683220D01*
X95009719Y-110563126D01*
X95030804Y-110430000D01*
X95009719Y-110296874D01*
X94948528Y-110176780D01*
X94853220Y-110081472D01*
X94853217Y-110081470D01*
X94733129Y-110020282D01*
X94733127Y-110020281D01*
X94600000Y-109999196D01*
X94466872Y-110020281D01*
X94466870Y-110020282D01*
X94346782Y-110081470D01*
X94251470Y-110176782D01*
X94190282Y-110296870D01*
X94190281Y-110296872D01*
X94169196Y-110429999D01*
X94169196Y-110430000D01*
X94190281Y-110563127D01*
X94190282Y-110563129D01*
X94251470Y-110683217D01*
X94251472Y-110683220D01*
X94346780Y-110778528D01*
X94448033Y-110830119D01*
X94491297Y-110873383D01*
X94500868Y-110933815D01*
X94473090Y-110988332D01*
X94430979Y-111013318D01*
X94339948Y-111040047D01*
X94339943Y-111040049D01*
X94218874Y-111117855D01*
X94124623Y-111226628D01*
X94064835Y-111357543D01*
X94044354Y-111499997D01*
X94044354Y-111500002D01*
X91455647Y-111500002D01*
X91455647Y-111500000D01*
X91435165Y-111357543D01*
X91375377Y-111226627D01*
X91281128Y-111117857D01*
X91281127Y-111117856D01*
X91281126Y-111117855D01*
X91160057Y-111040049D01*
X91160054Y-111040047D01*
X91160053Y-111040047D01*
X91160050Y-111040046D01*
X91021964Y-110999500D01*
X91021961Y-110999500D01*
X90878039Y-110999500D01*
X90878035Y-110999500D01*
X90739949Y-111040046D01*
X90739942Y-111040049D01*
X90618873Y-111117855D01*
X90524622Y-111226628D01*
X90464834Y-111357543D01*
X90444353Y-111499997D01*
X90444353Y-111500002D01*
X89655647Y-111500002D01*
X89655647Y-111500000D01*
X89635165Y-111357543D01*
X89575377Y-111226627D01*
X89481128Y-111117857D01*
X89481127Y-111117856D01*
X89481126Y-111117855D01*
X89360057Y-111040049D01*
X89360054Y-111040047D01*
X89360053Y-111040047D01*
X89360050Y-111040046D01*
X89221964Y-110999500D01*
X89221961Y-110999500D01*
X89078039Y-110999500D01*
X89078035Y-110999500D01*
X88939949Y-111040046D01*
X88939942Y-111040049D01*
X88818873Y-111117855D01*
X88724622Y-111226628D01*
X88664834Y-111357543D01*
X88644353Y-111499997D01*
X88644353Y-111500002D01*
X86955647Y-111500002D01*
X86955647Y-111500000D01*
X86935165Y-111357543D01*
X86875377Y-111226627D01*
X86781128Y-111117857D01*
X86781127Y-111117856D01*
X86781126Y-111117855D01*
X86660057Y-111040049D01*
X86660054Y-111040047D01*
X86660053Y-111040047D01*
X86660050Y-111040046D01*
X86521964Y-110999500D01*
X86521961Y-110999500D01*
X86378039Y-110999500D01*
X86378035Y-110999500D01*
X86239949Y-111040046D01*
X86239942Y-111040049D01*
X86118873Y-111117855D01*
X86024622Y-111226628D01*
X86000000Y-111280541D01*
X86000000Y-109379999D01*
X93471196Y-109379999D01*
X93492281Y-109513126D01*
X93492282Y-109513128D01*
X93553470Y-109633216D01*
X93553472Y-109633219D01*
X93648780Y-109728527D01*
X93768874Y-109789718D01*
X93902000Y-109810803D01*
X94035126Y-109789718D01*
X94155220Y-109728527D01*
X94250528Y-109633219D01*
X94311719Y-109513125D01*
X94332804Y-109379999D01*
X94311719Y-109246873D01*
X94250528Y-109126779D01*
X94155220Y-109031471D01*
X94155217Y-109031469D01*
X94035129Y-108970281D01*
X94035127Y-108970280D01*
X93902000Y-108949195D01*
X93768872Y-108970280D01*
X93768870Y-108970281D01*
X93648782Y-109031469D01*
X93553470Y-109126781D01*
X93492282Y-109246869D01*
X93492281Y-109246871D01*
X93471196Y-109379998D01*
X93471196Y-109379999D01*
X86000000Y-109379999D01*
X86000000Y-106130000D01*
X94169196Y-106130000D01*
X94190281Y-106263127D01*
X94190282Y-106263129D01*
X94251470Y-106383217D01*
X94251472Y-106383220D01*
X94346780Y-106478528D01*
X94466874Y-106539719D01*
X94600000Y-106560804D01*
X94733126Y-106539719D01*
X94853220Y-106478528D01*
X94948528Y-106383220D01*
X95009719Y-106263126D01*
X95030804Y-106130000D01*
X95009719Y-105996874D01*
X94948528Y-105876780D01*
X94853220Y-105781472D01*
X94853217Y-105781470D01*
X94733129Y-105720282D01*
X94733127Y-105720281D01*
X94600000Y-105699196D01*
X94466872Y-105720281D01*
X94466870Y-105720282D01*
X94346782Y-105781470D01*
X94251470Y-105876782D01*
X94190282Y-105996870D01*
X94190281Y-105996872D01*
X94169196Y-106129999D01*
X94169196Y-106130000D01*
X86000000Y-106130000D01*
X86000000Y-104600000D01*
X96601000Y-104600000D01*
X96659191Y-104618907D01*
G37*
%TD.AperFunction*%
%TA.AperFunction,Conductor*%
G36*
X114000000Y-111280542D02*
G01*
X113975377Y-111226628D01*
X113975377Y-111226627D01*
X113881128Y-111117857D01*
X113881127Y-111117856D01*
X113881126Y-111117855D01*
X113760057Y-111040049D01*
X113760054Y-111040047D01*
X113760053Y-111040047D01*
X113760050Y-111040046D01*
X113621964Y-110999500D01*
X113621961Y-110999500D01*
X113478039Y-110999500D01*
X113478035Y-110999500D01*
X113339949Y-111040046D01*
X113339942Y-111040049D01*
X113218873Y-111117855D01*
X113124622Y-111226628D01*
X113064834Y-111357543D01*
X113044353Y-111499997D01*
X113044353Y-111500002D01*
X113064834Y-111642456D01*
X113100000Y-111719457D01*
X113124623Y-111773373D01*
X113218872Y-111882143D01*
X113218873Y-111882144D01*
X113339942Y-111959950D01*
X113339947Y-111959953D01*
X113446403Y-111991211D01*
X113478035Y-112000499D01*
X113478036Y-112000499D01*
X113478039Y-112000500D01*
X113478041Y-112000500D01*
X113621959Y-112000500D01*
X113621961Y-112000500D01*
X113760053Y-111959953D01*
X113881128Y-111882143D01*
X113975377Y-111773373D01*
X114000000Y-111719456D01*
X114000000Y-115000000D01*
X104699000Y-115000000D01*
X104640809Y-114981093D01*
X104604845Y-114931593D01*
X104600000Y-114901000D01*
X104600000Y-111500002D01*
X104944353Y-111500002D01*
X104964834Y-111642456D01*
X105000000Y-111719457D01*
X105024623Y-111773373D01*
X105118872Y-111882143D01*
X105118873Y-111882144D01*
X105239942Y-111959950D01*
X105239947Y-111959953D01*
X105346403Y-111991211D01*
X105378035Y-112000499D01*
X105378036Y-112000499D01*
X105378039Y-112000500D01*
X105378041Y-112000500D01*
X105521959Y-112000500D01*
X105521961Y-112000500D01*
X105660053Y-111959953D01*
X105781128Y-111882143D01*
X105825181Y-111831302D01*
X105877576Y-111799707D01*
X105938537Y-111804942D01*
X105974817Y-111831301D01*
X106018872Y-111882143D01*
X106018873Y-111882144D01*
X106139942Y-111959950D01*
X106139947Y-111959953D01*
X106246403Y-111991211D01*
X106278035Y-112000499D01*
X106278036Y-112000499D01*
X106278039Y-112000500D01*
X106278041Y-112000500D01*
X106421959Y-112000500D01*
X106421961Y-112000500D01*
X106560053Y-111959953D01*
X106681128Y-111882143D01*
X106725181Y-111831302D01*
X106777576Y-111799707D01*
X106838537Y-111804942D01*
X106874817Y-111831301D01*
X106918872Y-111882143D01*
X106918873Y-111882144D01*
X107039942Y-111959950D01*
X107039947Y-111959953D01*
X107146403Y-111991211D01*
X107178035Y-112000499D01*
X107178036Y-112000499D01*
X107178039Y-112000500D01*
X107178041Y-112000500D01*
X107321959Y-112000500D01*
X107321961Y-112000500D01*
X107460053Y-111959953D01*
X107581128Y-111882143D01*
X107675377Y-111773373D01*
X107735165Y-111642457D01*
X107755647Y-111500002D01*
X108544353Y-111500002D01*
X108564834Y-111642456D01*
X108600000Y-111719457D01*
X108624623Y-111773373D01*
X108718872Y-111882143D01*
X108718873Y-111882144D01*
X108839942Y-111959950D01*
X108839947Y-111959953D01*
X108946403Y-111991211D01*
X108978035Y-112000499D01*
X108978036Y-112000499D01*
X108978039Y-112000500D01*
X108978041Y-112000500D01*
X109121959Y-112000500D01*
X109121961Y-112000500D01*
X109260053Y-111959953D01*
X109381128Y-111882143D01*
X109475377Y-111773373D01*
X109535165Y-111642457D01*
X109555647Y-111500002D01*
X110344353Y-111500002D01*
X110364834Y-111642456D01*
X110400000Y-111719457D01*
X110424623Y-111773373D01*
X110518872Y-111882143D01*
X110518873Y-111882144D01*
X110639942Y-111959950D01*
X110639947Y-111959953D01*
X110746403Y-111991211D01*
X110778035Y-112000499D01*
X110778036Y-112000499D01*
X110778039Y-112000500D01*
X110778041Y-112000500D01*
X110921959Y-112000500D01*
X110921961Y-112000500D01*
X111060053Y-111959953D01*
X111181128Y-111882143D01*
X111275377Y-111773373D01*
X111335165Y-111642457D01*
X111355647Y-111500000D01*
X111335165Y-111357543D01*
X111275377Y-111226627D01*
X111181128Y-111117857D01*
X111181127Y-111117856D01*
X111181126Y-111117855D01*
X111060057Y-111040049D01*
X111060054Y-111040047D01*
X111060053Y-111040047D01*
X111060050Y-111040046D01*
X110921964Y-110999500D01*
X110921961Y-110999500D01*
X110778039Y-110999500D01*
X110778035Y-110999500D01*
X110639949Y-111040046D01*
X110639942Y-111040049D01*
X110518873Y-111117855D01*
X110424622Y-111226628D01*
X110364834Y-111357543D01*
X110344353Y-111499997D01*
X110344353Y-111500002D01*
X109555647Y-111500002D01*
X109555647Y-111500000D01*
X109535165Y-111357543D01*
X109475377Y-111226627D01*
X109381128Y-111117857D01*
X109381127Y-111117856D01*
X109381126Y-111117855D01*
X109260057Y-111040049D01*
X109260054Y-111040047D01*
X109260053Y-111040047D01*
X109260050Y-111040046D01*
X109121964Y-110999500D01*
X109121961Y-110999500D01*
X108978039Y-110999500D01*
X108978035Y-110999500D01*
X108839949Y-111040046D01*
X108839942Y-111040049D01*
X108718873Y-111117855D01*
X108624622Y-111226628D01*
X108564834Y-111357543D01*
X108544353Y-111499997D01*
X108544353Y-111500002D01*
X107755647Y-111500002D01*
X107755647Y-111500000D01*
X107735165Y-111357543D01*
X107675377Y-111226627D01*
X107581128Y-111117857D01*
X107581127Y-111117856D01*
X107581126Y-111117855D01*
X107460057Y-111040049D01*
X107460054Y-111040047D01*
X107460053Y-111040047D01*
X107460050Y-111040046D01*
X107321964Y-110999500D01*
X107321961Y-110999500D01*
X107178039Y-110999500D01*
X107178035Y-110999500D01*
X107039949Y-111040046D01*
X107039942Y-111040049D01*
X106918872Y-111117856D01*
X106918870Y-111117858D01*
X106874819Y-111168696D01*
X106822423Y-111200292D01*
X106761462Y-111195056D01*
X106725181Y-111168696D01*
X106681129Y-111117858D01*
X106681127Y-111117856D01*
X106560057Y-111040049D01*
X106560054Y-111040047D01*
X106560053Y-111040047D01*
X106560050Y-111040046D01*
X106421964Y-110999500D01*
X106421961Y-110999500D01*
X106278039Y-110999500D01*
X106278035Y-110999500D01*
X106139949Y-111040046D01*
X106139942Y-111040049D01*
X106018872Y-111117856D01*
X106018870Y-111117858D01*
X105974819Y-111168696D01*
X105922423Y-111200292D01*
X105861462Y-111195056D01*
X105825181Y-111168696D01*
X105781129Y-111117858D01*
X105781127Y-111117856D01*
X105660057Y-111040049D01*
X105660054Y-111040047D01*
X105660053Y-111040047D01*
X105660050Y-111040046D01*
X105521964Y-110999500D01*
X105521961Y-110999500D01*
X105378039Y-110999500D01*
X105378035Y-110999500D01*
X105239949Y-111040046D01*
X105239942Y-111040049D01*
X105118873Y-111117855D01*
X105024622Y-111226628D01*
X104964834Y-111357543D01*
X104944353Y-111499997D01*
X104944353Y-111500002D01*
X104600000Y-111500002D01*
X104600000Y-110000001D01*
X104600000Y-110000000D01*
X104599999Y-110000000D01*
X103399000Y-110000000D01*
X103340809Y-109981093D01*
X103304845Y-109931593D01*
X103300000Y-109901000D01*
X103300000Y-109020000D01*
X105667196Y-109020000D01*
X105688281Y-109153127D01*
X105688282Y-109153129D01*
X105749470Y-109273217D01*
X105749472Y-109273220D01*
X105844780Y-109368528D01*
X105964874Y-109429719D01*
X106098000Y-109450804D01*
X106231126Y-109429719D01*
X106351220Y-109368528D01*
X106446528Y-109273220D01*
X106507719Y-109153126D01*
X106528804Y-109020000D01*
X106507719Y-108886874D01*
X106446528Y-108766780D01*
X106351220Y-108671472D01*
X106351217Y-108671470D01*
X106231129Y-108610282D01*
X106231127Y-108610281D01*
X106098000Y-108589196D01*
X105964872Y-108610281D01*
X105964870Y-108610282D01*
X105844782Y-108671470D01*
X105749470Y-108766782D01*
X105688282Y-108886870D01*
X105688281Y-108886872D01*
X105667196Y-109019999D01*
X105667196Y-109020000D01*
X103300000Y-109020000D01*
X103300000Y-107970000D01*
X104969196Y-107970000D01*
X104990281Y-108103127D01*
X104990282Y-108103129D01*
X105051470Y-108223217D01*
X105051472Y-108223220D01*
X105146780Y-108318528D01*
X105266874Y-108379719D01*
X105400000Y-108400804D01*
X105533126Y-108379719D01*
X105653220Y-108318528D01*
X105748528Y-108223220D01*
X105809719Y-108103126D01*
X105830804Y-107970000D01*
X105809719Y-107836874D01*
X105748528Y-107716780D01*
X105653220Y-107621472D01*
X105653217Y-107621470D01*
X105533129Y-107560282D01*
X105533127Y-107560281D01*
X105400000Y-107539196D01*
X105266872Y-107560281D01*
X105266870Y-107560282D01*
X105146782Y-107621470D01*
X105051470Y-107716782D01*
X104990282Y-107836870D01*
X104990281Y-107836872D01*
X104969196Y-107969999D01*
X104969196Y-107970000D01*
X103300000Y-107970000D01*
X103300000Y-104699000D01*
X103318907Y-104640809D01*
X103368407Y-104604845D01*
X103399000Y-104600000D01*
X114000000Y-104600000D01*
X114000000Y-111280542D01*
G37*
%TD.AperFunction*%
%TD*%
%TA.AperFunction,Conductor*%
%TO.N,DCP*%
G36*
X98959191Y-76618907D02*
G01*
X98995155Y-76668407D01*
X99000000Y-76699000D01*
X99000000Y-85901000D01*
X98981093Y-85959191D01*
X98931593Y-85995155D01*
X98901000Y-86000000D01*
X88099000Y-86000000D01*
X88040809Y-85981093D01*
X88004845Y-85931593D01*
X88000000Y-85901000D01*
X88000000Y-76699000D01*
X88018907Y-76640809D01*
X88068407Y-76604845D01*
X88099000Y-76600000D01*
X98901000Y-76600000D01*
X98959191Y-76618907D01*
G37*
%TD.AperFunction*%
%TD*%
%TA.AperFunction,Conductor*%
%TO.N,DCN*%
G36*
X111959191Y-76618907D02*
G01*
X111995155Y-76668407D01*
X112000000Y-76699000D01*
X112000000Y-85901000D01*
X111981093Y-85959191D01*
X111931593Y-85995155D01*
X111901000Y-86000000D01*
X101099000Y-86000000D01*
X101040809Y-85981093D01*
X101004845Y-85931593D01*
X101000000Y-85901000D01*
X101000000Y-76699000D01*
X101018907Y-76640809D01*
X101068407Y-76604845D01*
X101099000Y-76600000D01*
X111901000Y-76600000D01*
X111959191Y-76618907D01*
G37*
%TD.AperFunction*%
%TD*%
%TA.AperFunction,Conductor*%
%TO.N,GNDI*%
G36*
X100714834Y-149242456D02*
G01*
X100774622Y-149373371D01*
X100774623Y-149373373D01*
X100868872Y-149482143D01*
X100868873Y-149482144D01*
X100989942Y-149559950D01*
X100989947Y-149559953D01*
X101096403Y-149591211D01*
X101128035Y-149600499D01*
X101128036Y-149600499D01*
X101128039Y-149600500D01*
X101128041Y-149600500D01*
X101271959Y-149600500D01*
X101271961Y-149600500D01*
X101410053Y-149559953D01*
X101531128Y-149482143D01*
X101625377Y-149373373D01*
X101685165Y-149242457D01*
X101693439Y-149184912D01*
X101720434Y-149130004D01*
X101774548Y-149101450D01*
X101791431Y-149100000D01*
X120201000Y-149100000D01*
X120259191Y-149118907D01*
X120295155Y-149168407D01*
X120300000Y-149199000D01*
X120300000Y-158024146D01*
X120281093Y-158082337D01*
X120231593Y-158118301D01*
X120170407Y-158118301D01*
X120120907Y-158082337D01*
X120109536Y-158062032D01*
X120030467Y-157871143D01*
X120030464Y-157871137D01*
X119898837Y-157656343D01*
X119898836Y-157656341D01*
X119898831Y-157656335D01*
X119735232Y-157464785D01*
X119735229Y-157464782D01*
X119735224Y-157464776D01*
X119735217Y-157464770D01*
X119735214Y-157464767D01*
X119543664Y-157301168D01*
X119543656Y-157301162D01*
X119328862Y-157169535D01*
X119328856Y-157169532D01*
X119096112Y-157073127D01*
X119096113Y-157073127D01*
X118851146Y-157014316D01*
X118737306Y-157005357D01*
X118662882Y-156999500D01*
X118537118Y-156999500D01*
X118466671Y-157005044D01*
X118348853Y-157014316D01*
X118103886Y-157073127D01*
X117871143Y-157169532D01*
X117871137Y-157169535D01*
X117656343Y-157301162D01*
X117656335Y-157301168D01*
X117464785Y-157464767D01*
X117464767Y-157464785D01*
X117301168Y-157656335D01*
X117301162Y-157656343D01*
X117169535Y-157871137D01*
X117169532Y-157871143D01*
X117073127Y-158103886D01*
X117014316Y-158348853D01*
X116994551Y-158600000D01*
X117014316Y-158851146D01*
X117073127Y-159096113D01*
X117169532Y-159328856D01*
X117169535Y-159328862D01*
X117301162Y-159543656D01*
X117301164Y-159543659D01*
X117464776Y-159735224D01*
X117656341Y-159898836D01*
X117656343Y-159898837D01*
X117871137Y-160030464D01*
X117871143Y-160030467D01*
X118103887Y-160126872D01*
X118103889Y-160126873D01*
X118348852Y-160185683D01*
X118537118Y-160200500D01*
X118537125Y-160200500D01*
X118662875Y-160200500D01*
X118662882Y-160200500D01*
X118851148Y-160185683D01*
X119096111Y-160126873D01*
X119328859Y-160030466D01*
X119543659Y-159898836D01*
X119735224Y-159735224D01*
X119898836Y-159543659D01*
X120030466Y-159328859D01*
X120109536Y-159137967D01*
X120149273Y-159091442D01*
X120208767Y-159077158D01*
X120265295Y-159100573D01*
X120297265Y-159152742D01*
X120300000Y-159175853D01*
X120300000Y-160400500D01*
X120281093Y-160458691D01*
X120231593Y-160494655D01*
X120201000Y-160499500D01*
X79799000Y-160499500D01*
X79740809Y-160480593D01*
X79704845Y-160431093D01*
X79700000Y-160400500D01*
X79700000Y-159175853D01*
X79718907Y-159117662D01*
X79768407Y-159081698D01*
X79829593Y-159081698D01*
X79879093Y-159117662D01*
X79890464Y-159137967D01*
X79969532Y-159328856D01*
X79969535Y-159328862D01*
X80101162Y-159543656D01*
X80101164Y-159543659D01*
X80264776Y-159735224D01*
X80456341Y-159898836D01*
X80456343Y-159898837D01*
X80671137Y-160030464D01*
X80671143Y-160030467D01*
X80903887Y-160126872D01*
X80903889Y-160126873D01*
X81148852Y-160185683D01*
X81337118Y-160200500D01*
X81337125Y-160200500D01*
X81462875Y-160200500D01*
X81462882Y-160200500D01*
X81651148Y-160185683D01*
X81896111Y-160126873D01*
X82128859Y-160030466D01*
X82343659Y-159898836D01*
X82535224Y-159735224D01*
X82698836Y-159543659D01*
X82830466Y-159328859D01*
X82926873Y-159096111D01*
X82971615Y-158909746D01*
X96409500Y-158909746D01*
X96409501Y-158909758D01*
X96421132Y-158968227D01*
X96421134Y-158968233D01*
X96465445Y-159034548D01*
X96465448Y-159034552D01*
X96531769Y-159078867D01*
X96576231Y-159087711D01*
X96590241Y-159090498D01*
X96590246Y-159090498D01*
X96590252Y-159090500D01*
X96590253Y-159090500D01*
X98329747Y-159090500D01*
X98329748Y-159090500D01*
X98388231Y-159078867D01*
X98454552Y-159034552D01*
X98498867Y-158968231D01*
X98510500Y-158909748D01*
X98510500Y-158040003D01*
X98944417Y-158040003D01*
X98964698Y-158245929D01*
X98964699Y-158245934D01*
X99024768Y-158443954D01*
X99122316Y-158626452D01*
X99253585Y-158786404D01*
X99253590Y-158786410D01*
X99253595Y-158786414D01*
X99413547Y-158917683D01*
X99413548Y-158917683D01*
X99413550Y-158917685D01*
X99596046Y-159015232D01*
X99733997Y-159057078D01*
X99794065Y-159075300D01*
X99794070Y-159075301D01*
X99999997Y-159095583D01*
X100000000Y-159095583D01*
X100000003Y-159095583D01*
X100205929Y-159075301D01*
X100205934Y-159075300D01*
X100403954Y-159015232D01*
X100586450Y-158917685D01*
X100746410Y-158786410D01*
X100877685Y-158626450D01*
X100975232Y-158443954D01*
X101035300Y-158245934D01*
X101035301Y-158245929D01*
X101055583Y-158040003D01*
X101484417Y-158040003D01*
X101504698Y-158245929D01*
X101504699Y-158245934D01*
X101564768Y-158443954D01*
X101662316Y-158626452D01*
X101793585Y-158786404D01*
X101793590Y-158786410D01*
X101793595Y-158786414D01*
X101953547Y-158917683D01*
X101953548Y-158917683D01*
X101953550Y-158917685D01*
X102136046Y-159015232D01*
X102273997Y-159057078D01*
X102334065Y-159075300D01*
X102334070Y-159075301D01*
X102539997Y-159095583D01*
X102540000Y-159095583D01*
X102540003Y-159095583D01*
X102745929Y-159075301D01*
X102745934Y-159075300D01*
X102943954Y-159015232D01*
X103126450Y-158917685D01*
X103286410Y-158786410D01*
X103417685Y-158626450D01*
X103515232Y-158443954D01*
X103575300Y-158245934D01*
X103575301Y-158245929D01*
X103595583Y-158040003D01*
X103595583Y-158039996D01*
X103575301Y-157834070D01*
X103575300Y-157834065D01*
X103557078Y-157773997D01*
X103515232Y-157636046D01*
X103417685Y-157453550D01*
X103286410Y-157293590D01*
X103136123Y-157170253D01*
X103126452Y-157162316D01*
X102943954Y-157064768D01*
X102745934Y-157004699D01*
X102745929Y-157004698D01*
X102540003Y-156984417D01*
X102539997Y-156984417D01*
X102334070Y-157004698D01*
X102334065Y-157004699D01*
X102136045Y-157064768D01*
X101953547Y-157162316D01*
X101793595Y-157293585D01*
X101793585Y-157293595D01*
X101662316Y-157453547D01*
X101564768Y-157636045D01*
X101504699Y-157834065D01*
X101504698Y-157834070D01*
X101484417Y-158039996D01*
X101484417Y-158040003D01*
X101055583Y-158040003D01*
X101055583Y-158039996D01*
X101035301Y-157834070D01*
X101035300Y-157834065D01*
X101017078Y-157773997D01*
X100975232Y-157636046D01*
X100877685Y-157453550D01*
X100746410Y-157293590D01*
X100596123Y-157170253D01*
X100586452Y-157162316D01*
X100403954Y-157064768D01*
X100205934Y-157004699D01*
X100205929Y-157004698D01*
X100000003Y-156984417D01*
X99999997Y-156984417D01*
X99794070Y-157004698D01*
X99794065Y-157004699D01*
X99596045Y-157064768D01*
X99413547Y-157162316D01*
X99253595Y-157293585D01*
X99253585Y-157293595D01*
X99122316Y-157453547D01*
X99024768Y-157636045D01*
X98964699Y-157834065D01*
X98964698Y-157834070D01*
X98944417Y-158039996D01*
X98944417Y-158040003D01*
X98510500Y-158040003D01*
X98510500Y-157170252D01*
X98510357Y-157169535D01*
X98507711Y-157156231D01*
X98498867Y-157111769D01*
X98454552Y-157045448D01*
X98407962Y-157014317D01*
X98388233Y-157001134D01*
X98388231Y-157001133D01*
X98388228Y-157001132D01*
X98388227Y-157001132D01*
X98329758Y-156989501D01*
X98329748Y-156989500D01*
X96590252Y-156989500D01*
X96590251Y-156989500D01*
X96590241Y-156989501D01*
X96531772Y-157001132D01*
X96531766Y-157001134D01*
X96465451Y-157045445D01*
X96465445Y-157045451D01*
X96421134Y-157111766D01*
X96421132Y-157111772D01*
X96409501Y-157170241D01*
X96409500Y-157170253D01*
X96409500Y-158909746D01*
X82971615Y-158909746D01*
X82985683Y-158851148D01*
X83005449Y-158600000D01*
X82985683Y-158348852D01*
X82926873Y-158103889D01*
X82925024Y-158099426D01*
X82830467Y-157871143D01*
X82830464Y-157871137D01*
X82698837Y-157656343D01*
X82698836Y-157656341D01*
X82698831Y-157656335D01*
X82535232Y-157464785D01*
X82535229Y-157464782D01*
X82535224Y-157464776D01*
X82535217Y-157464770D01*
X82535214Y-157464767D01*
X82343664Y-157301168D01*
X82343656Y-157301162D01*
X82128862Y-157169535D01*
X82128856Y-157169532D01*
X81896112Y-157073127D01*
X81896113Y-157073127D01*
X81651146Y-157014316D01*
X81537306Y-157005357D01*
X81462882Y-156999500D01*
X81337118Y-156999500D01*
X81266671Y-157005044D01*
X81148853Y-157014316D01*
X80903886Y-157073127D01*
X80671143Y-157169532D01*
X80671137Y-157169535D01*
X80456343Y-157301162D01*
X80456335Y-157301168D01*
X80264785Y-157464767D01*
X80264767Y-157464785D01*
X80101168Y-157656335D01*
X80101162Y-157656343D01*
X79969535Y-157871137D01*
X79969532Y-157871143D01*
X79890464Y-158062032D01*
X79850727Y-158108557D01*
X79791233Y-158122841D01*
X79734705Y-158099426D01*
X79702735Y-158047257D01*
X79700000Y-158024146D01*
X79700000Y-155500003D01*
X101484417Y-155500003D01*
X101504698Y-155705929D01*
X101504699Y-155705934D01*
X101564768Y-155903954D01*
X101662316Y-156086452D01*
X101793585Y-156246404D01*
X101793590Y-156246410D01*
X101793595Y-156246414D01*
X101953547Y-156377683D01*
X101953548Y-156377683D01*
X101953550Y-156377685D01*
X102136046Y-156475232D01*
X102273997Y-156517078D01*
X102334065Y-156535300D01*
X102334070Y-156535301D01*
X102539997Y-156555583D01*
X102540000Y-156555583D01*
X102540003Y-156555583D01*
X102745929Y-156535301D01*
X102745934Y-156535300D01*
X102769231Y-156528233D01*
X102943954Y-156475232D01*
X102954217Y-156469746D01*
X111949500Y-156469746D01*
X111949501Y-156469758D01*
X111961132Y-156528227D01*
X111961133Y-156528231D01*
X112005448Y-156594552D01*
X112071769Y-156638867D01*
X112116231Y-156647711D01*
X112130241Y-156650498D01*
X112130246Y-156650498D01*
X112130252Y-156650500D01*
X112130253Y-156650500D01*
X113869747Y-156650500D01*
X113869748Y-156650500D01*
X113928231Y-156638867D01*
X113994552Y-156594552D01*
X114038867Y-156528231D01*
X114050500Y-156469748D01*
X114050500Y-154730252D01*
X114038867Y-154671769D01*
X113994552Y-154605448D01*
X113994548Y-154605445D01*
X113928233Y-154561134D01*
X113928231Y-154561133D01*
X113928228Y-154561132D01*
X113928227Y-154561132D01*
X113869758Y-154549501D01*
X113869748Y-154549500D01*
X112130252Y-154549500D01*
X112130251Y-154549500D01*
X112130241Y-154549501D01*
X112071772Y-154561132D01*
X112071766Y-154561134D01*
X112005451Y-154605445D01*
X112005445Y-154605451D01*
X111961134Y-154671766D01*
X111961132Y-154671772D01*
X111949501Y-154730241D01*
X111949500Y-154730253D01*
X111949500Y-156469746D01*
X102954217Y-156469746D01*
X103126450Y-156377685D01*
X103286410Y-156246410D01*
X103417685Y-156086450D01*
X103515232Y-155903954D01*
X103575300Y-155705934D01*
X103575301Y-155705929D01*
X103595583Y-155500003D01*
X103595583Y-155499996D01*
X103575301Y-155294070D01*
X103575300Y-155294065D01*
X103557078Y-155233997D01*
X103515232Y-155096046D01*
X103417685Y-154913550D01*
X103286410Y-154753590D01*
X103257974Y-154730253D01*
X103126452Y-154622316D01*
X102943954Y-154524768D01*
X102745934Y-154464699D01*
X102745929Y-154464698D01*
X102540003Y-154444417D01*
X102539997Y-154444417D01*
X102334070Y-154464698D01*
X102334065Y-154464699D01*
X102136045Y-154524768D01*
X101953547Y-154622316D01*
X101793595Y-154753585D01*
X101793585Y-154753595D01*
X101662316Y-154913547D01*
X101564768Y-155096045D01*
X101504699Y-155294065D01*
X101504698Y-155294070D01*
X101484417Y-155499996D01*
X101484417Y-155500003D01*
X79700000Y-155500003D01*
X79700000Y-149199000D01*
X79718907Y-149140809D01*
X79768407Y-149104845D01*
X79799000Y-149100000D01*
X98799999Y-149100000D01*
X98800000Y-149100000D01*
X100694353Y-149100000D01*
X100714834Y-149242456D01*
G37*
%TD.AperFunction*%
%TD*%
%TA.AperFunction,Conductor*%
%TO.N,GNDI*%
G36*
X99914834Y-126557543D02*
G01*
X99894353Y-126699997D01*
X99894353Y-126700002D01*
X99914834Y-126842456D01*
X99974622Y-126973371D01*
X99974623Y-126973373D01*
X100065840Y-127078644D01*
X100068873Y-127082144D01*
X100068875Y-127082145D01*
X100189947Y-127159953D01*
X100296403Y-127191211D01*
X100328035Y-127200499D01*
X100328036Y-127200499D01*
X100328039Y-127200500D01*
X100328041Y-127200500D01*
X100471959Y-127200500D01*
X100471961Y-127200500D01*
X100610053Y-127159953D01*
X100731128Y-127082143D01*
X100731136Y-127082133D01*
X100735165Y-127078644D01*
X100791523Y-127054824D01*
X100851119Y-127068679D01*
X100864835Y-127078644D01*
X100868866Y-127082137D01*
X100868872Y-127082143D01*
X100989947Y-127159953D01*
X101128039Y-127200500D01*
X101128040Y-127200500D01*
X101128891Y-127200750D01*
X101179398Y-127235286D01*
X101199960Y-127292913D01*
X101200000Y-127295740D01*
X101200000Y-148504259D01*
X101181093Y-148562450D01*
X101131593Y-148598414D01*
X101128892Y-148599249D01*
X100989947Y-148640047D01*
X100989942Y-148640049D01*
X100868873Y-148717855D01*
X100774622Y-148826628D01*
X100714834Y-148957543D01*
X100694353Y-149099997D01*
X100694353Y-149100000D01*
X100714834Y-149242456D01*
X100774622Y-149373371D01*
X100774623Y-149373373D01*
X100868872Y-149482143D01*
X100896658Y-149500000D01*
X98800000Y-149500000D01*
X98800000Y-127295740D01*
X98818907Y-127237549D01*
X98868407Y-127201585D01*
X98871109Y-127200750D01*
X98871960Y-127200500D01*
X98871962Y-127200500D01*
X99010054Y-127159953D01*
X99131129Y-127082143D01*
X99225378Y-126973373D01*
X99285166Y-126842457D01*
X99305648Y-126700000D01*
X99285166Y-126557543D01*
X99258887Y-126500000D01*
X99941114Y-126500000D01*
X99914834Y-126557543D01*
G37*
%TD.AperFunction*%
%TD*%
%TA.AperFunction,Conductor*%
%TO.N,SW*%
G36*
X94600000Y-105699196D02*
G01*
X94466872Y-105720281D01*
X94466870Y-105720282D01*
X94346782Y-105781470D01*
X94251470Y-105876782D01*
X94190282Y-105996870D01*
X94190281Y-105996872D01*
X94169196Y-106129999D01*
X94169196Y-106130000D01*
X94190281Y-106263127D01*
X94190282Y-106263129D01*
X94251470Y-106383217D01*
X94251472Y-106383220D01*
X94346780Y-106478528D01*
X94466874Y-106539719D01*
X94574945Y-106556835D01*
X94599999Y-106560804D01*
X94599999Y-106560803D01*
X94600000Y-106560804D01*
X94600000Y-109999196D01*
X94466872Y-110020281D01*
X94466870Y-110020282D01*
X94346782Y-110081470D01*
X94251470Y-110176782D01*
X94190282Y-110296870D01*
X94190281Y-110296872D01*
X94169196Y-110429999D01*
X94169196Y-110430000D01*
X94190281Y-110563127D01*
X94190282Y-110563129D01*
X94251470Y-110683217D01*
X94251472Y-110683220D01*
X94346780Y-110778528D01*
X94448033Y-110830119D01*
X94491297Y-110873383D01*
X94500868Y-110933815D01*
X94473090Y-110988332D01*
X94430979Y-111013318D01*
X94339948Y-111040047D01*
X94339943Y-111040049D01*
X94218874Y-111117855D01*
X94124623Y-111226628D01*
X94064835Y-111357543D01*
X94044354Y-111499997D01*
X94044354Y-111500002D01*
X94064835Y-111642456D01*
X94124623Y-111773371D01*
X94124624Y-111773373D01*
X94218873Y-111882143D01*
X94218874Y-111882144D01*
X94339943Y-111959950D01*
X94339948Y-111959953D01*
X94446404Y-111991211D01*
X94478036Y-112000499D01*
X94478037Y-112000499D01*
X94478040Y-112000500D01*
X94478042Y-112000500D01*
X94600000Y-112000500D01*
X94600000Y-115000000D01*
X94600000Y-115000001D01*
X94600000Y-122901000D01*
X94581093Y-122959191D01*
X94531593Y-122995155D01*
X94501000Y-123000000D01*
X83799000Y-123000000D01*
X83740809Y-122981093D01*
X83704845Y-122931593D01*
X83700000Y-122901000D01*
X83700000Y-111500002D01*
X85944353Y-111500002D01*
X85964834Y-111642456D01*
X86024622Y-111773371D01*
X86024623Y-111773373D01*
X86118872Y-111882143D01*
X86118873Y-111882144D01*
X86239942Y-111959950D01*
X86239947Y-111959953D01*
X86346403Y-111991211D01*
X86378035Y-112000499D01*
X86378036Y-112000499D01*
X86378039Y-112000500D01*
X86378041Y-112000500D01*
X86521959Y-112000500D01*
X86521961Y-112000500D01*
X86660053Y-111959953D01*
X86781128Y-111882143D01*
X86875377Y-111773373D01*
X86935165Y-111642457D01*
X86955647Y-111500002D01*
X88644353Y-111500002D01*
X88664834Y-111642456D01*
X88724622Y-111773371D01*
X88724623Y-111773373D01*
X88818872Y-111882143D01*
X88818873Y-111882144D01*
X88939942Y-111959950D01*
X88939947Y-111959953D01*
X89046403Y-111991211D01*
X89078035Y-112000499D01*
X89078036Y-112000499D01*
X89078039Y-112000500D01*
X89078041Y-112000500D01*
X89221959Y-112000500D01*
X89221961Y-112000500D01*
X89360053Y-111959953D01*
X89481128Y-111882143D01*
X89575377Y-111773373D01*
X89635165Y-111642457D01*
X89655647Y-111500002D01*
X90444353Y-111500002D01*
X90464834Y-111642456D01*
X90524622Y-111773371D01*
X90524623Y-111773373D01*
X90618872Y-111882143D01*
X90618873Y-111882144D01*
X90739942Y-111959950D01*
X90739947Y-111959953D01*
X90846403Y-111991211D01*
X90878035Y-112000499D01*
X90878036Y-112000499D01*
X90878039Y-112000500D01*
X90878041Y-112000500D01*
X91021959Y-112000500D01*
X91021961Y-112000500D01*
X91160053Y-111959953D01*
X91281128Y-111882143D01*
X91375377Y-111773373D01*
X91435165Y-111642457D01*
X91455647Y-111500000D01*
X91435165Y-111357543D01*
X91375377Y-111226627D01*
X91281128Y-111117857D01*
X91281127Y-111117856D01*
X91281126Y-111117855D01*
X91160057Y-111040049D01*
X91160054Y-111040047D01*
X91160053Y-111040047D01*
X91160050Y-111040046D01*
X91021964Y-110999500D01*
X91021961Y-110999500D01*
X90878039Y-110999500D01*
X90878035Y-110999500D01*
X90739949Y-111040046D01*
X90739942Y-111040049D01*
X90618873Y-111117855D01*
X90524622Y-111226628D01*
X90464834Y-111357543D01*
X90444353Y-111499997D01*
X90444353Y-111500002D01*
X89655647Y-111500002D01*
X89655647Y-111500000D01*
X89635165Y-111357543D01*
X89575377Y-111226627D01*
X89481128Y-111117857D01*
X89481127Y-111117856D01*
X89481126Y-111117855D01*
X89360057Y-111040049D01*
X89360054Y-111040047D01*
X89360053Y-111040047D01*
X89360050Y-111040046D01*
X89221964Y-110999500D01*
X89221961Y-110999500D01*
X89078039Y-110999500D01*
X89078035Y-110999500D01*
X88939949Y-111040046D01*
X88939942Y-111040049D01*
X88818873Y-111117855D01*
X88724622Y-111226628D01*
X88664834Y-111357543D01*
X88644353Y-111499997D01*
X88644353Y-111500002D01*
X86955647Y-111500002D01*
X86955647Y-111500000D01*
X86935165Y-111357543D01*
X86875377Y-111226627D01*
X86781128Y-111117857D01*
X86781127Y-111117856D01*
X86781126Y-111117855D01*
X86660057Y-111040049D01*
X86660054Y-111040047D01*
X86660053Y-111040047D01*
X86660050Y-111040046D01*
X86521964Y-110999500D01*
X86521961Y-110999500D01*
X86378039Y-110999500D01*
X86378035Y-110999500D01*
X86239949Y-111040046D01*
X86239942Y-111040049D01*
X86118873Y-111117855D01*
X86024622Y-111226628D01*
X85964834Y-111357543D01*
X85944353Y-111499997D01*
X85944353Y-111500002D01*
X83700000Y-111500002D01*
X83700000Y-109379999D01*
X93471196Y-109379999D01*
X93492281Y-109513126D01*
X93492282Y-109513128D01*
X93553470Y-109633216D01*
X93553472Y-109633219D01*
X93648780Y-109728527D01*
X93768874Y-109789718D01*
X93902000Y-109810803D01*
X94035126Y-109789718D01*
X94155220Y-109728527D01*
X94250528Y-109633219D01*
X94311719Y-109513125D01*
X94332804Y-109379999D01*
X94311719Y-109246873D01*
X94250528Y-109126779D01*
X94155220Y-109031471D01*
X94155217Y-109031469D01*
X94035129Y-108970281D01*
X94035127Y-108970280D01*
X93902000Y-108949195D01*
X93768872Y-108970280D01*
X93768870Y-108970281D01*
X93648782Y-109031469D01*
X93553470Y-109126781D01*
X93492282Y-109246869D01*
X93492281Y-109246871D01*
X93471196Y-109379998D01*
X93471196Y-109379999D01*
X83700000Y-109379999D01*
X83700000Y-107729804D01*
X83718907Y-107671613D01*
X83768407Y-107635649D01*
X83799000Y-107630804D01*
X83800000Y-107630804D01*
X83933126Y-107609719D01*
X84053220Y-107548528D01*
X84148528Y-107453220D01*
X84209719Y-107333126D01*
X84230804Y-107200000D01*
X84209719Y-107066874D01*
X84148528Y-106946780D01*
X84053220Y-106851472D01*
X84053217Y-106851470D01*
X83933129Y-106790282D01*
X83933127Y-106790281D01*
X83800001Y-106769196D01*
X83799000Y-106769196D01*
X83798047Y-106768886D01*
X83792305Y-106767977D01*
X83792449Y-106767067D01*
X83740809Y-106750289D01*
X83704845Y-106700789D01*
X83700000Y-106670196D01*
X83700000Y-104699000D01*
X83718907Y-104640809D01*
X83768407Y-104604845D01*
X83799000Y-104600000D01*
X94600000Y-104600000D01*
X94600000Y-105699196D01*
G37*
%TD.AperFunction*%
%TD*%
%TA.AperFunction,Conductor*%
%TO.N,SW*%
G36*
X115259191Y-104618907D02*
G01*
X115295155Y-104668407D01*
X115300000Y-104699000D01*
X115300000Y-122901000D01*
X115281093Y-122959191D01*
X115231593Y-122995155D01*
X115201000Y-123000000D01*
X105499000Y-123000000D01*
X105440809Y-122981093D01*
X105404845Y-122931593D01*
X105400000Y-122901000D01*
X105400000Y-115000001D01*
X105400000Y-112000500D01*
X105521959Y-112000500D01*
X105521961Y-112000500D01*
X105660053Y-111959953D01*
X105781128Y-111882143D01*
X105825181Y-111831302D01*
X105877576Y-111799707D01*
X105938537Y-111804942D01*
X105974817Y-111831301D01*
X106018872Y-111882143D01*
X106018873Y-111882144D01*
X106139942Y-111959950D01*
X106139947Y-111959953D01*
X106246403Y-111991211D01*
X106278035Y-112000499D01*
X106278036Y-112000499D01*
X106278039Y-112000500D01*
X106278041Y-112000500D01*
X106421959Y-112000500D01*
X106421961Y-112000500D01*
X106560053Y-111959953D01*
X106681128Y-111882143D01*
X106725181Y-111831302D01*
X106777576Y-111799707D01*
X106838537Y-111804942D01*
X106874817Y-111831301D01*
X106918872Y-111882143D01*
X106918873Y-111882144D01*
X107039942Y-111959950D01*
X107039947Y-111959953D01*
X107146403Y-111991211D01*
X107178035Y-112000499D01*
X107178036Y-112000499D01*
X107178039Y-112000500D01*
X107178041Y-112000500D01*
X107321959Y-112000500D01*
X107321961Y-112000500D01*
X107460053Y-111959953D01*
X107581128Y-111882143D01*
X107675377Y-111773373D01*
X107735165Y-111642457D01*
X107755647Y-111500002D01*
X108544353Y-111500002D01*
X108564834Y-111642456D01*
X108624622Y-111773371D01*
X108624623Y-111773373D01*
X108718872Y-111882143D01*
X108718873Y-111882144D01*
X108839942Y-111959950D01*
X108839947Y-111959953D01*
X108946403Y-111991211D01*
X108978035Y-112000499D01*
X108978036Y-112000499D01*
X108978039Y-112000500D01*
X108978041Y-112000500D01*
X109121959Y-112000500D01*
X109121961Y-112000500D01*
X109260053Y-111959953D01*
X109381128Y-111882143D01*
X109475377Y-111773373D01*
X109535165Y-111642457D01*
X109555647Y-111500002D01*
X110344353Y-111500002D01*
X110364834Y-111642456D01*
X110424622Y-111773371D01*
X110424623Y-111773373D01*
X110518872Y-111882143D01*
X110518873Y-111882144D01*
X110639942Y-111959950D01*
X110639947Y-111959953D01*
X110746403Y-111991211D01*
X110778035Y-112000499D01*
X110778036Y-112000499D01*
X110778039Y-112000500D01*
X110778041Y-112000500D01*
X110921959Y-112000500D01*
X110921961Y-112000500D01*
X111060053Y-111959953D01*
X111181128Y-111882143D01*
X111275377Y-111773373D01*
X111335165Y-111642457D01*
X111355647Y-111500002D01*
X113044353Y-111500002D01*
X113064834Y-111642456D01*
X113124622Y-111773371D01*
X113124623Y-111773373D01*
X113218872Y-111882143D01*
X113218873Y-111882144D01*
X113339942Y-111959950D01*
X113339947Y-111959953D01*
X113446403Y-111991211D01*
X113478035Y-112000499D01*
X113478036Y-112000499D01*
X113478039Y-112000500D01*
X113478041Y-112000500D01*
X113621959Y-112000500D01*
X113621961Y-112000500D01*
X113760053Y-111959953D01*
X113881128Y-111882143D01*
X113975377Y-111773373D01*
X114035165Y-111642457D01*
X114055647Y-111500000D01*
X114035165Y-111357543D01*
X113975377Y-111226627D01*
X113881128Y-111117857D01*
X113881127Y-111117856D01*
X113881126Y-111117855D01*
X113760057Y-111040049D01*
X113760054Y-111040047D01*
X113760053Y-111040047D01*
X113760050Y-111040046D01*
X113621964Y-110999500D01*
X113621961Y-110999500D01*
X113478039Y-110999500D01*
X113478035Y-110999500D01*
X113339949Y-111040046D01*
X113339942Y-111040049D01*
X113218873Y-111117855D01*
X113124622Y-111226628D01*
X113064834Y-111357543D01*
X113044353Y-111499997D01*
X113044353Y-111500002D01*
X111355647Y-111500002D01*
X111355647Y-111500000D01*
X111335165Y-111357543D01*
X111275377Y-111226627D01*
X111181128Y-111117857D01*
X111181127Y-111117856D01*
X111181126Y-111117855D01*
X111060057Y-111040049D01*
X111060054Y-111040047D01*
X111060053Y-111040047D01*
X111060050Y-111040046D01*
X110921964Y-110999500D01*
X110921961Y-110999500D01*
X110778039Y-110999500D01*
X110778035Y-110999500D01*
X110639949Y-111040046D01*
X110639942Y-111040049D01*
X110518873Y-111117855D01*
X110424622Y-111226628D01*
X110364834Y-111357543D01*
X110344353Y-111499997D01*
X110344353Y-111500002D01*
X109555647Y-111500002D01*
X109555647Y-111500000D01*
X109535165Y-111357543D01*
X109475377Y-111226627D01*
X109381128Y-111117857D01*
X109381127Y-111117856D01*
X109381126Y-111117855D01*
X109260057Y-111040049D01*
X109260054Y-111040047D01*
X109260053Y-111040047D01*
X109260050Y-111040046D01*
X109121964Y-110999500D01*
X109121961Y-110999500D01*
X108978039Y-110999500D01*
X108978035Y-110999500D01*
X108839949Y-111040046D01*
X108839942Y-111040049D01*
X108718873Y-111117855D01*
X108624622Y-111226628D01*
X108564834Y-111357543D01*
X108544353Y-111499997D01*
X108544353Y-111500002D01*
X107755647Y-111500002D01*
X107755647Y-111500000D01*
X107735165Y-111357543D01*
X107675377Y-111226627D01*
X107581128Y-111117857D01*
X107581127Y-111117856D01*
X107581126Y-111117855D01*
X107460057Y-111040049D01*
X107460054Y-111040047D01*
X107460053Y-111040047D01*
X107460050Y-111040046D01*
X107321964Y-110999500D01*
X107321961Y-110999500D01*
X107178039Y-110999500D01*
X107178035Y-110999500D01*
X107039949Y-111040046D01*
X107039942Y-111040049D01*
X106918872Y-111117856D01*
X106918870Y-111117858D01*
X106874819Y-111168696D01*
X106822423Y-111200292D01*
X106761462Y-111195056D01*
X106725181Y-111168696D01*
X106681129Y-111117858D01*
X106681127Y-111117856D01*
X106560057Y-111040049D01*
X106560054Y-111040047D01*
X106560053Y-111040047D01*
X106560050Y-111040046D01*
X106421964Y-110999500D01*
X106421961Y-110999500D01*
X106278039Y-110999500D01*
X106278035Y-110999500D01*
X106139949Y-111040046D01*
X106139942Y-111040049D01*
X106018872Y-111117856D01*
X106018870Y-111117858D01*
X105974819Y-111168696D01*
X105922423Y-111200292D01*
X105861462Y-111195056D01*
X105825181Y-111168696D01*
X105781129Y-111117858D01*
X105781127Y-111117856D01*
X105660057Y-111040049D01*
X105660054Y-111040047D01*
X105660053Y-111040047D01*
X105660050Y-111040046D01*
X105521964Y-110999500D01*
X105521961Y-110999500D01*
X105400000Y-110999500D01*
X105400000Y-109020000D01*
X105667196Y-109020000D01*
X105688281Y-109153127D01*
X105688282Y-109153129D01*
X105749470Y-109273217D01*
X105749472Y-109273220D01*
X105844780Y-109368528D01*
X105964874Y-109429719D01*
X106098000Y-109450804D01*
X106231126Y-109429719D01*
X106351220Y-109368528D01*
X106446528Y-109273220D01*
X106507719Y-109153126D01*
X106528804Y-109020000D01*
X106507719Y-108886874D01*
X106446528Y-108766780D01*
X106351220Y-108671472D01*
X106351217Y-108671470D01*
X106231129Y-108610282D01*
X106231127Y-108610281D01*
X106098000Y-108589196D01*
X105964872Y-108610281D01*
X105964870Y-108610282D01*
X105844782Y-108671470D01*
X105749470Y-108766782D01*
X105688282Y-108886870D01*
X105688281Y-108886872D01*
X105667196Y-109019999D01*
X105667196Y-109020000D01*
X105400000Y-109020000D01*
X105400000Y-108400804D01*
X105533126Y-108379719D01*
X105653220Y-108318528D01*
X105748528Y-108223220D01*
X105809719Y-108103126D01*
X105830804Y-107970000D01*
X105809719Y-107836874D01*
X105748528Y-107716780D01*
X105653220Y-107621472D01*
X105653217Y-107621470D01*
X105533129Y-107560282D01*
X105533127Y-107560281D01*
X105400000Y-107539196D01*
X105400000Y-104600000D01*
X115201000Y-104600000D01*
X115259191Y-104618907D01*
G37*
%TD.AperFunction*%
%TD*%
M02*
