M48
; DRILL file {KiCad 7.0.10} date Tue Sep 22 21:52:45 2026
; FORMAT={-:-/ absolute / metric / decimal}
; #@! TF.CreationDate,2026-09-22T21:52:45+02:00
; #@! TF.GenerationSoftware,Kicad,Pcbnew,7.0.10
; #@! TF.FileFunction,Plated,1,4,PTH
FMAT,2
METRIC
; #@! TA.AperFunction,Plated,PTH,ViaDrill
T1C0.300
; #@! TA.AperFunction,Plated,PTH,ComponentDrill
T2C0.650
; #@! TA.AperFunction,Plated,PTH,ComponentDrill
T3C1.000
%
G90
G05
T1
X26.0Y-20.49
X26.0Y-21.51
X29.225Y-22.7
X30.775Y-22.7
X31.0Y-20.49
X31.0Y-21.51
X32.0Y-35.8
X32.8Y-35.0
X32.8Y-36.8
X33.0Y-33.1
X33.1Y-34.0
X33.6Y-43.55
X33.6Y-45.45
X33.8Y-26.675
X33.8Y-28.325
X33.8Y-32.3
X33.8Y-38.725
X33.8Y-40.275
X34.75Y-37.6
X35.225Y-30.1
X35.75Y-32.3
X35.75Y-37.6
X36.6Y-22.5
X37.25Y-37.6
X38.8Y-22.0
X39.1Y-35.5
X39.2Y-28.775
X39.4Y-43.55
X39.4Y-45.45
X39.8Y-49.0
X40.0Y-22.5
X40.2Y-34.5
X42.75Y-23.1
X42.75Y-23.8
X42.75Y-28.1
X42.75Y-42.5
X42.75Y-46.1
X43.19Y-31.5
X43.19Y-32.7
X43.19Y-35.7
X43.19Y-38.67
X44.8Y-20.0
X44.85Y-23.1
X44.85Y-23.8
X44.85Y-28.1
X44.85Y-42.5
X44.85Y-46.1
X45.148Y-30.77
X45.148Y-36.77
X45.298Y-41.8
X45.998Y-41.8
X46.95Y-23.1
X46.95Y-23.8
X46.95Y-28.1
X46.95Y-42.5
X46.95Y-46.1
X47.225Y-41.8
X47.925Y-41.8
X48.925Y-41.8
X49.05Y-23.1
X49.05Y-23.8
X49.05Y-28.1
X49.05Y-42.5
X49.05Y-46.1
X49.625Y-41.8
X51.15Y-23.1
X51.15Y-23.8
X51.15Y-28.1
X51.15Y-42.5
X51.15Y-46.1
X53.25Y-23.1
X53.25Y-23.8
X53.25Y-28.1
X53.25Y-42.5
X53.25Y-46.1
X54.4Y-31.4
X54.4Y-32.0
X54.4Y-32.6
X55.0Y-31.4
X55.0Y-32.0
X55.0Y-32.6
X55.6Y-31.4
X55.6Y-32.0
X55.6Y-32.6
X60.75Y-23.1
X60.75Y-23.8
X60.75Y-28.1
X60.75Y-42.5
X60.75Y-46.1
X61.19Y-31.5
X61.19Y-32.7
X61.19Y-35.7
X61.19Y-38.67
X62.85Y-23.1
X62.85Y-23.8
X62.85Y-28.1
X62.85Y-42.5
X62.85Y-46.1
X63.148Y-30.77
X63.148Y-36.77
X63.298Y-41.8
X63.998Y-41.8
X64.95Y-23.1
X64.95Y-23.8
X64.95Y-28.1
X64.95Y-42.5
X64.95Y-46.1
X65.225Y-41.8
X65.925Y-41.8
X66.925Y-41.8
X67.05Y-23.1
X67.05Y-23.8
X67.05Y-28.1
X67.05Y-42.5
X67.05Y-46.1
X67.625Y-41.8
X69.15Y-23.1
X69.15Y-23.8
X69.15Y-28.1
X69.15Y-42.5
X69.15Y-46.1
X71.25Y-23.1
X71.25Y-23.8
X71.25Y-28.1
X71.25Y-42.5
X71.25Y-46.1
X71.4Y-34.4
X71.4Y-35.0
X71.4Y-35.6
X72.0Y-34.4
X72.0Y-35.0
X72.0Y-35.6
X72.6Y-34.4
X72.6Y-35.0
X72.6Y-35.6
X72.8Y-29.0
X73.8Y-47.0
T2
X41.05Y-30.77
X41.05Y-32.04
X41.05Y-36.77
X41.05Y-38.04
X59.05Y-30.77
X59.05Y-32.04
X59.05Y-36.77
X59.05Y-38.04
T3
X8.0Y-7.46
X8.0Y-10.0
X8.0Y-14.46
X8.0Y-17.0
X10.54Y-7.46
X10.54Y-10.0
X10.54Y-14.46
X10.54Y-17.0
X12.0Y-30.0
X12.0Y-32.54
X12.0Y-35.08
X12.0Y-37.62
X12.0Y-40.16
X12.0Y-42.7
X13.08Y-7.46
X13.08Y-10.0
X13.08Y-14.46
X13.08Y-17.0
X15.62Y-7.46
X15.62Y-10.0
X15.62Y-14.46
X15.62Y-17.0
X18.16Y-7.46
X18.16Y-10.0
X18.16Y-14.46
X18.16Y-17.0
X20.7Y-7.46
X20.7Y-10.0
X20.7Y-14.46
X20.7Y-17.0
X23.24Y-7.46
X23.24Y-10.0
X23.24Y-14.46
X23.24Y-17.0
X25.78Y-7.46
X25.78Y-10.0
X25.78Y-14.46
X25.78Y-17.0
X28.32Y-7.46
X28.32Y-10.0
X28.32Y-14.46
X28.32Y-17.0
X30.86Y-7.46
X30.86Y-10.0
X30.86Y-14.46
X30.86Y-17.0
X33.4Y-7.46
X33.4Y-10.0
X33.4Y-14.46
X33.4Y-17.0
X35.94Y-7.46
X35.94Y-10.0
X35.94Y-14.46
X35.94Y-17.0
X78.0Y-22.0
X78.0Y-24.54
X78.0Y-27.08
X78.0Y-29.62
X78.0Y-32.16
X78.0Y-34.7
X78.0Y-37.24
X78.0Y-39.78
X78.0Y-42.32
X78.0Y-44.86
X78.0Y-47.4
X78.0Y-49.94
X80.54Y-22.0
X80.54Y-24.54
X80.54Y-27.08
X80.54Y-29.62
X80.54Y-32.16
X80.54Y-34.7
X80.54Y-37.24
X80.54Y-39.78
X80.54Y-42.32
X80.54Y-44.86
X80.54Y-47.4
X80.54Y-49.94
M30
