#VRML V2.0 utf8
Transform { translation 0.0 -1.1811023622047243 0.6889763779527559 children [ Shape { appearance Appearance { material Material { diffuseColor .8 .4 .15 } } geometry Box { size 0.7874015748031495 0.19685039370078738 1.3779527559055118 } } ] }
Transform { translation 0.0 1.1811023622047243 0.6889763779527559 children [ Shape { appearance Appearance { material Material { diffuseColor .8 .4 .15 } } geometry Box { size 0.7874015748031495 0.19685039370078738 1.3779527559055118 } } ] }
Transform { translation 0.0 0.0 1.279527559055118 children [ Shape { appearance Appearance { material Material { diffuseColor .8 .4 .15 } } geometry Box { size 0.7874015748031495 2.3622047244094486 0.19685039370078738 } } ] }